<?xml version="1.0" encoding="UTF-8"?>
<!--
  Auto-generated from the reference HTML by
  scripts/storymode-extraction/extract.mjs.
  Do not edit by hand — regenerate the file instead.
-->
<svg xmlns="http://www.w3.org/2000/svg" xmlns:xlink="http://www.w3.org/1999/xlink" viewBox="0 0 500 260" preserveAspectRatio="xMidYMid meet">
                  <text x="20" y="22" style="fill:#e8a951;font:600 10px Inter,sans-serif;letter-spacing:2px">STEP 06 · PEPTIDE SOURCE · INSIDE THE CELL</text>

  
                    <g opacity="1">
                      <path d="M 80 95 Q 65 130 75 170 Q 90 205 140 215 Q 200 220 255 210 Q 290 200 295 165 Q 300 125 285 95 Q 260 70 200 65 Q 130 65 80 95 Z" fill="#4fb8a8" fill-opacity="0.18" stroke="#4fb8a8" stroke-width="1.6"></path>
                  <ellipse cx="155" cy="135" rx="32" ry="24" fill="#4a2d60" opacity="0.55"></ellipse><text x="180" y="240" text-anchor="middle" style="fill:#4fb8a8;font:600 8px Inter,sans-serif;letter-spacing:1.2px">EPITHELIAL CELL</text></g>
                    <g transform="translate(120 105)" opacity="1">
                      <circle cx="0" cy="0" r="9" fill="#d14859" fill-opacity="0.75" stroke="#d14859" stroke-width="1.4"></circle>
                      <g fill="#d14859">
                        <circle cx="-9" cy="-4" r="2"></circle>
                        <circle cx="9" cy="-4" r="2"></circle>
                        <circle cx="-9" cy="6" r="2"></circle>
                        <circle cx="9" cy="6" r="2"></circle>
                      </g>
                      <text x="0" y="3" text-anchor="middle" style="fill:#0a0e1a;font:700 7px Inter,sans-serif">V</text>
                    </g>
  
                    <g transform="translate(220 115)" opacity="1">
                      <circle cx="0" cy="0" r="9" fill="#d14859" fill-opacity="0.75" stroke="#d14859" stroke-width="1.4"></circle>
                      <g fill="#d14859">
                        <circle cx="-9" cy="-4" r="2"></circle>
                        <circle cx="9" cy="-4" r="2"></circle>
                        <circle cx="-9" cy="6" r="2"></circle>
                        <circle cx="9" cy="6" r="2"></circle>
                      </g>
                      <text x="0" y="3" text-anchor="middle" style="fill:#0a0e1a;font:700 7px Inter,sans-serif">V</text>
                    </g>
  
                    <g transform="translate(200 185)" opacity="1">
                      <circle cx="0" cy="0" r="9" fill="#d14859" fill-opacity="0.75" stroke="#d14859" stroke-width="1.4"></circle>
                      <g fill="#d14859">
                        <circle cx="-9" cy="-4" r="2"></circle>
                        <circle cx="9" cy="-4" r="2"></circle>
                        <circle cx="-9" cy="6" r="2"></circle>
                        <circle cx="9" cy="6" r="2"></circle>
                      </g>
                      <text x="0" y="3" text-anchor="middle" style="fill:#0a0e1a;font:700 7px Inter,sans-serif">V</text>
                    </g>
  
                    <g transform="translate(75 110) rotate(-90)" opacity="1">
                      <path d="M -12 0 L 12 0 L 14 8 L 8 8 L 6 4 L -6 4 L -8 8 L -14 8 Z" fill="#e8a951" fill-opacity="0.85" stroke="#e8a951" stroke-width="1.2"></path>
                  </g>
                    <g transform="translate(290 105) rotate(90)" opacity="1">
                      <path d="M -12 0 L 12 0 L 14 8 L 8 8 L 6 4 L -6 4 L -8 8 L -14 8 Z" fill="#e8a951" fill-opacity="0.85" stroke="#e8a951" stroke-width="1.2"></path>
                  </g>
                    <g transform="translate(295 145) rotate(90)" opacity="1">
                      <path d="M -12 0 L 12 0 L 14 8 L 8 8 L 6 4 L -6 4 L -8 8 L -14 8 Z" fill="#e8a951" fill-opacity="0.85" stroke="#e8a951" stroke-width="1.2"></path>
                  </g>
                    <g transform="translate(290 185) rotate(90)" opacity="1">
                      <path d="M -12 0 L 12 0 L 14 8 L 8 8 L 6 4 L -6 4 L -8 8 L -14 8 Z" fill="#e8a951" fill-opacity="0.85" stroke="#e8a951" stroke-width="1.2"></path>
                  </g>
                    <g transform="translate(95 195) rotate(-90)" opacity="1">
                      <path d="M -12 0 L 12 0 L 14 8 L 8 8 L 6 4 L -6 4 L -8 8 L -14 8 Z" fill="#e8a951" fill-opacity="0.85" stroke="#e8a951" stroke-width="1.2"></path>
                  </g>
                      <path d="M 200 145 L 250 110" stroke="#e8a951" stroke-width="1.5" fill="none" stroke-dasharray="3 2"></path>
                      <polygon points="250,110 245,116 252,118" fill="#e8a951"></polygon>
                      <text x="225" y="103" style="fill:#e8a951;font:italic 8px Fraunces,serif">peptides from inside</text>
    

                  <text x="250" y="252" text-anchor="middle" style="fill:#b4becf;font:italic 10px Fraunces,serif">whatever's in the cytoplasm gets sampled · self or foreign</text>

                  <!-- FOCUS · audio-aligned attention marker -->
                  <circle cx="225" cy="98" r="30" fill="none" stroke="#d14859" stroke-width="1.8" stroke-dasharray="3 2" opacity="0.85">
                    <animate attributeName="r" values="26;36;26" dur="2.4s" repeatCount="indefinite"/>
                    <animate attributeName="opacity" values="0.85;0.20;0.85" dur="2.4s" repeatCount="indefinite"/>
                  </circle>
</svg>
