<?xml version="1.0" encoding="UTF-8"?>
<!--
  Auto-generated from the reference HTML by
  scripts/storymode-extraction/extract.mjs.
  Do not edit by hand — regenerate the file instead.
-->
<svg xmlns="http://www.w3.org/2000/svg" xmlns:xlink="http://www.w3.org/1999/xlink" viewBox="0 0 500 260" preserveAspectRatio="xMidYMid meet">
<text x="20" y="16" style="fill:#e8a951;font:600 9px Inter,sans-serif;letter-spacing:2px">STEP 01 · TWO ALLELES · TWO FRAGMENT SIZES</text>

<!-- WT allele on left with full DNA + restriction sites -->
<g transform="translate(125 130)">
  <text x="0" y="-72" text-anchor="middle" style="fill:#6cc27d;font:700 9px Inter,sans-serif;letter-spacing:1.5px">WILD-TYPE X</text>
  <!-- DNA double strand -->
  <line x1="-65" y1="-3" x2="65" y2="-3" stroke="#9370b9" stroke-width="1.6" opacity="0.7"/>
  <line x1="-65" y1="3" x2="65" y2="3" stroke="#9370b9" stroke-width="1.6" opacity="0.7"/>
  <!-- WT gene -->
  <rect x="-22" y="-9" width="44" height="18" rx="2" fill="rgba(108,194,125,0.85)" stroke="#6cc27d" stroke-width="1.6"/>
  <text x="0" y="3" text-anchor="middle" style="fill:#0a0e1a;font:700 8px Inter,sans-serif">WT</text>
  
  <!-- Cut sites (red triangles) -->
  <g fill="#d14859" stroke="#d14859">
    <polygon points="-30,-12 -34,-19 -26,-19"/>
    <polygon points="30,-12 26,-19 34,-19"/>
  </g>
  <text x="-30" y="-25" text-anchor="middle" style="fill:#d14859;font:700 6.5px Inter,sans-serif">cut</text>
  <text x="30" y="-25" text-anchor="middle" style="fill:#d14859;font:700 6.5px Inter,sans-serif">cut</text>
  
  <!-- Fragment measurement -->
  <line x1="-30" y1="22" x2="30" y2="22" stroke="#6cc27d" stroke-width="2"/>
  <line x1="-30" y1="18" x2="-30" y2="26" stroke="#6cc27d" stroke-width="2"/>
  <line x1="30" y1="18" x2="30" y2="26" stroke="#6cc27d" stroke-width="2"/>
  <text x="0" y="42" text-anchor="middle" style="fill:#6cc27d;font:700 12px Inter,sans-serif;letter-spacing:1.5px">4 kb</text>
</g>

<!-- Vertical separator -->
<line x1="250" y1="55" x2="250" y2="220" stroke="#3a4358" stroke-width="1" stroke-dasharray="3 3"/>

<!-- Mutant allele on right (longer fragment) -->
<g transform="translate(370 130)">
  <text x="0" y="-72" text-anchor="middle" style="fill:#d14859;font:700 9px Inter,sans-serif;letter-spacing:1.5px">MUTANT X</text>
  <line x1="-80" y1="-3" x2="80" y2="-3" stroke="#9370b9" stroke-width="1.6" opacity="0.7"/>
  <line x1="-80" y1="3" x2="80" y2="3" stroke="#9370b9" stroke-width="1.6" opacity="0.7"/>
  <!-- Mutant gene (longer due to insertion or altered cut sites) -->
  <rect x="-30" y="-9" width="60" height="18" rx="2" fill="rgba(209,72,89,0.85)" stroke="#d14859" stroke-width="1.6"/>
  <text x="0" y="3" text-anchor="middle" style="fill:#0a0e1a;font:700 8px Inter,sans-serif">MUT</text>
  
  <!-- Cut sites -->
  <g fill="#d14859" stroke="#d14859">
    <polygon points="-45,-12 -49,-19 -41,-19"/>
    <polygon points="45,-12 41,-19 49,-19"/>
  </g>
  <text x="-45" y="-25" text-anchor="middle" style="fill:#d14859;font:700 6.5px Inter,sans-serif">cut</text>
  <text x="45" y="-25" text-anchor="middle" style="fill:#d14859;font:700 6.5px Inter,sans-serif">cut</text>
  
  <!-- Fragment measurement -->
  <line x1="-45" y1="22" x2="45" y2="22" stroke="#d14859" stroke-width="2"/>
  <line x1="-45" y1="18" x2="-45" y2="26" stroke="#d14859" stroke-width="2"/>
  <line x1="45" y1="18" x2="45" y2="26" stroke="#d14859" stroke-width="2"/>
  <text x="0" y="42" text-anchor="middle" style="fill:#d14859;font:700 12px Inter,sans-serif;letter-spacing:1.5px">6 kb</text>
</g>

<text x="250" y="245" text-anchor="middle" style="fill:#6b7689;font:italic 7.5px Fraunces,serif">Each X carries one allele · the band size tells you which one</text>

                  <!-- FOCUS · audio-aligned attention marker -->
                  <circle cx="370" cy="53" r="20" fill="none" stroke="#d14859" stroke-width="1.8" stroke-dasharray="3 2" opacity="0.85">
                    <animate attributeName="r" values="16;26;16" dur="2.4s" repeatCount="indefinite"/>
                    <animate attributeName="opacity" values="0.85;0.20;0.85" dur="2.4s" repeatCount="indefinite"/>
                  </circle>
</svg>
