<?xml version="1.0" encoding="UTF-8"?>
<!--
  Auto-generated from the reference HTML by
  scripts/storymode-extraction/extract.mjs.
  Do not edit by hand — regenerate the file instead.
-->
<svg xmlns="http://www.w3.org/2000/svg" xmlns:xlink="http://www.w3.org/1999/xlink" viewBox="0 0 500 260" preserveAspectRatio="xMidYMid meet">
                  <text x="20" y="22" style="fill:#e8a951;font:600 10px Inter,sans-serif;letter-spacing:2px">STEP 09 · CTLs · READY TO KILL</text>

                  <g opacity="1"><circle cx="100" cy="145" r="38" fill="#4fb8a8" fill-opacity="0.30" stroke="#4fb8a8" stroke-width="1.8"></circle><ellipse cx="92" cy="138" rx="10" ry="8" fill="#4a2d60" opacity="0.65"></ellipse>
                      <g fill="#d14859">
                        <circle cx="115" cy="135" r="5" fill-opacity="0.75" stroke="#d14859" stroke-width="1.2"></circle>
                        <circle cx="116" cy="160" r="5" fill-opacity="0.75" stroke="#d14859" stroke-width="1.2"></circle>
                        <text x="115" y="138" text-anchor="middle" style="fill:#0a0e1a;font:700 5px Inter,sans-serif">V</text>
                        <text x="116" y="163" text-anchor="middle" style="fill:#0a0e1a;font:700 5px Inter,sans-serif">V</text>
                      </g>
    
                      <g transform="translate(140 130) rotate(90)">
                        <path d="M -14 0 L 14 0 L 16 10 L 9 10 L 7 4 L -7 4 L -9 10 L -16 10 Z" fill="#e8a951" fill-opacity="0.85" stroke="#e8a951" stroke-width="1.3"></path>
                        <circle cx="-4" cy="-3" r="2.5" fill="#d14859"></circle>
                        <circle cx="0" cy="-3" r="2.5" fill="#d14859"></circle>
                        <circle cx="4" cy="-3" r="2.5" fill="#d14859"></circle>
                      </g>
                    <text x="100" y="200" text-anchor="middle" style="fill:#4fb8a8;font:600 8px Inter,sans-serif;letter-spacing:1.2px">INFECTED CELL</text></g><g opacity="1"><circle cx="400" cy="145" r="32" fill="#9370b9" fill-opacity="0.45" stroke="#9370b9" stroke-width="1.8"></circle><ellipse cx="395" cy="142" rx="9" ry="7" fill="#4a2d60" opacity="0.75"></ellipse><text x="402" y="148" text-anchor="middle" style="fill:#e8ecf3;font:600 9px Inter,sans-serif">CD4</text><text x="400" y="195" text-anchor="middle" style="fill:#9370b9;font:600 8px Inter,sans-serif;letter-spacing:1.2px">CD4 HELPER</text></g><g opacity="1"><circle cx="220" cy="130" r="16" fill="#6cc27d" fill-opacity="0.30" stroke="#6cc27d" stroke-width="1.8"></circle><ellipse cx="215" cy="127" rx="9" ry="7" fill="#4a2d60" opacity="0.7"></ellipse>
                      <g fill="#e8a951" opacity="0.85">
                        <circle cx="230" cy="128" r="2.2"></circle>
                        <circle cx="225" cy="140" r="2.2"></circle>
                        <circle cx="233" cy="138" r="2"></circle>
                        <circle cx="218" cy="143" r="2"></circle>
                        <circle cx="228" cy="145" r="2"></circle>
                      </g>
                    <text x="225" y="133" text-anchor="middle" style="fill:#e8ecf3;font:600 9px Inter,sans-serif">CD8</text></g><g opacity="1"><circle cx="250" cy="120" r="16" fill="#6cc27d" fill-opacity="0.30" stroke="#6cc27d" stroke-width="1.8"></circle><ellipse cx="245" cy="117" rx="9" ry="7" fill="#4a2d60" opacity="0.7"></ellipse>
                      <g fill="#e8a951" opacity="0.85">
                        <circle cx="260" cy="118" r="2.2"></circle>
                        <circle cx="255" cy="130" r="2.2"></circle>
                        <circle cx="263" cy="128" r="2"></circle>
                        <circle cx="248" cy="133" r="2"></circle>
                        <circle cx="258" cy="135" r="2"></circle>
                      </g>
                    <text x="255" y="123" text-anchor="middle" style="fill:#e8ecf3;font:600 9px Inter,sans-serif">CD8</text></g><g opacity="1"><circle cx="280" cy="130" r="16" fill="#6cc27d" fill-opacity="0.30" stroke="#6cc27d" stroke-width="1.8"></circle><ellipse cx="275" cy="127" rx="9" ry="7" fill="#4a2d60" opacity="0.7"></ellipse>
                      <g fill="#e8a951" opacity="0.85">
                        <circle cx="290" cy="128" r="2.2"></circle>
                        <circle cx="285" cy="140" r="2.2"></circle>
                        <circle cx="293" cy="138" r="2"></circle>
                        <circle cx="278" cy="143" r="2"></circle>
                        <circle cx="288" cy="145" r="2"></circle>
                      </g>
                    <text x="285" y="133" text-anchor="middle" style="fill:#e8ecf3;font:600 9px Inter,sans-serif">CD8</text></g><g opacity="1"><circle cx="220" cy="165" r="16" fill="#6cc27d" fill-opacity="0.30" stroke="#6cc27d" stroke-width="1.8"></circle><ellipse cx="215" cy="162" rx="9" ry="7" fill="#4a2d60" opacity="0.7"></ellipse>
                      <g fill="#e8a951" opacity="0.85">
                        <circle cx="230" cy="163" r="2.2"></circle>
                        <circle cx="225" cy="175" r="2.2"></circle>
                        <circle cx="233" cy="173" r="2"></circle>
                        <circle cx="218" cy="178" r="2"></circle>
                        <circle cx="228" cy="180" r="2"></circle>
                      </g>
                    <text x="225" y="168" text-anchor="middle" style="fill:#e8ecf3;font:600 9px Inter,sans-serif">CD8</text></g><g opacity="1"><circle cx="250" cy="175" r="16" fill="#6cc27d" fill-opacity="0.30" stroke="#6cc27d" stroke-width="1.8"></circle><ellipse cx="245" cy="172" rx="9" ry="7" fill="#4a2d60" opacity="0.7"></ellipse>
                      <g fill="#e8a951" opacity="0.85">
                        <circle cx="260" cy="173" r="2.2"></circle>
                        <circle cx="255" cy="185" r="2.2"></circle>
                        <circle cx="263" cy="183" r="2"></circle>
                        <circle cx="248" cy="188" r="2"></circle>
                        <circle cx="258" cy="190" r="2"></circle>
                      </g>
                    <text x="255" y="178" text-anchor="middle" style="fill:#e8ecf3;font:600 9px Inter,sans-serif">CD8</text></g><g opacity="1"><circle cx="280" cy="165" r="16" fill="#6cc27d" fill-opacity="0.30" stroke="#6cc27d" stroke-width="1.8"></circle><ellipse cx="275" cy="162" rx="9" ry="7" fill="#4a2d60" opacity="0.7"></ellipse>
                      <g fill="#e8a951" opacity="0.85">
                        <circle cx="290" cy="163" r="2.2"></circle>
                        <circle cx="285" cy="175" r="2.2"></circle>
                        <circle cx="293" cy="173" r="2"></circle>
                        <circle cx="278" cy="178" r="2"></circle>
                        <circle cx="288" cy="180" r="2"></circle>
                      </g>
                    <text x="285" y="168" text-anchor="middle" style="fill:#e8ecf3;font:600 9px Inter,sans-serif">CD8</text></g><text x="250" y="205" text-anchor="middle" style="fill:#6cc27d;font:600 9px Inter,sans-serif;letter-spacing:1.5px">CTL ARMY</text>

                  <text x="250" y="252" text-anchor="middle" style="fill:#b4becf;font:italic 10px Fraunces,serif">expanded clones differentiate into cytotoxic T lymphocytes</text>
              
                  
              
                  <!-- FOCUS · audio-aligned attention marker -->
                  <circle cx="250" cy="200" r="20" fill="none" stroke="#d14859" stroke-width="1.8" stroke-dasharray="3 2" opacity="0.85">
                    <animate attributeName="r" values="16;26;16" dur="2.4s" repeatCount="indefinite"/>
                    <animate attributeName="opacity" values="0.85;0.20;0.85" dur="2.4s" repeatCount="indefinite"/>
                  </circle>
              </svg>
