<?xml version="1.0" encoding="UTF-8"?>
<!--
  Auto-generated from the reference HTML by
  scripts/storymode-extraction/extract.mjs.
  Do not edit by hand — regenerate the file instead.
-->
<svg xmlns="http://www.w3.org/2000/svg" xmlns:xlink="http://www.w3.org/1999/xlink" viewBox="0 0 500 260" preserveAspectRatio="xMidYMid meet">
<text x="20" y="16" style="fill:#e8a951;font:600 9px Inter,sans-serif;letter-spacing:2px">STEP 01 · GRANULOMA · Th1 / MAC ARCHITECTURE</text>

<g transform="translate(250 145)">
  <text x="0" y="-100" text-anchor="middle" style="fill:#9370b9;font:700 9px Inter,sans-serif;letter-spacing:1.5px">UNIVERSAL ARCHITECTURE</text>
  
  <!-- H&E slide background -->
  <circle cx="0" cy="0" r="78" fill="rgba(245,235,225,0.95)" stroke="#3a4358" stroke-width="2"/>
  
  <!-- Outer rim: CD4 Th1 lymphocytes -->
  <g fill="rgba(108,194,125,0.85)" stroke="#3a8244" stroke-width="0.6">
    <circle cx="-58" cy="0" r="4"/>
    <circle cx="-50" cy="-30" r="4"/>
    <circle cx="-30" cy="-55" r="4"/>
    <circle cx="0" cy="-65" r="4"/>
    <circle cx="30" cy="-55" r="4"/>
    <circle cx="50" cy="-30" r="4"/>
    <circle cx="58" cy="0" r="4"/>
    <circle cx="50" cy="30" r="4"/>
    <circle cx="30" cy="55" r="4"/>
    <circle cx="0" cy="65" r="4"/>
    <circle cx="-30" cy="55" r="4"/>
    <circle cx="-50" cy="30" r="4"/>
    <circle cx="-65" cy="-15" r="4"/>
    <circle cx="-15" cy="-58" r="4"/>
    <circle cx="15" cy="-58" r="4"/>
    <circle cx="65" cy="-15" r="4"/>
    <circle cx="65" cy="15" r="4"/>
    <circle cx="15" cy="58" r="4"/>
    <circle cx="-15" cy="58" r="4"/>
    <circle cx="-65" cy="15" r="4"/>
  </g>
  
  <!-- Middle: Epithelioid macrophages (larger, pink) -->
  <g fill="rgba(232,169,81,0.65)" stroke="#a06a30" stroke-width="0.8">
    <ellipse cx="-30" cy="-15" rx="9" ry="6"/>
    <ellipse cx="-15" cy="-30" rx="9" ry="6"/>
    <ellipse cx="15" cy="-30" rx="9" ry="6"/>
    <ellipse cx="30" cy="-15" rx="9" ry="6"/>
    <ellipse cx="30" cy="15" rx="9" ry="6"/>
    <ellipse cx="15" cy="30" rx="9" ry="6"/>
    <ellipse cx="-15" cy="30" rx="9" ry="6"/>
    <ellipse cx="-30" cy="15" rx="9" ry="6"/>
  </g>
  
  <!-- Center: Multinucleated giant cells (large, multiple nuclei) -->
  <g transform="translate(0 0)">
    <ellipse cx="0" cy="0" rx="20" ry="14" fill="rgba(209,72,89,0.45)" stroke="#a53343" stroke-width="1.4"/>
    <!-- Multiple nuclei in horseshoe pattern (Langhans pattern) -->
    <g fill="rgba(74,45,96,0.85)">
      <circle cx="-10" cy="-5" r="2"/>
      <circle cx="-5" cy="-7" r="2"/>
      <circle cx="0" cy="-8" r="2"/>
      <circle cx="5" cy="-7" r="2"/>
      <circle cx="10" cy="-5" r="2"/>
    </g>
  </g>
  
  <!-- Annotations -->
  <line x1="-58" y1="0" x2="-95" y2="0" stroke="#6cc27d" stroke-width="0.8" stroke-dasharray="2 1"/>
  <text x="-100" y="-3" text-anchor="end" style="fill:#3a8244;font:700 7px Inter,sans-serif">CD4 Th1 RIM</text>
  <text x="-100" y="7" text-anchor="end" style="fill:#3a8244;font:6px Inter,sans-serif">IFN-γ + TNF</text>
  
  <line x1="30" y1="-15" x2="100" y2="-25" stroke="#a06a30" stroke-width="0.8" stroke-dasharray="2 1"/>
  <text x="105" y="-25" style="fill:#a06a30;font:700 7px Inter,sans-serif">EPITHELIOID</text>
  <text x="105" y="-15" style="fill:#a06a30;font:6px Inter,sans-serif">macrophages</text>
  
  <line x1="0" y1="0" x2="80" y2="65" stroke="#a53343" stroke-width="0.8" stroke-dasharray="2 1"/>
  <text x="85" y="60" style="fill:#a53343;font:700 7px Inter,sans-serif">GIANT CELL</text>
  <text x="85" y="70" style="fill:#a53343;font:6px Inter,sans-serif">Langhans</text>
</g>

<text x="250" y="245" text-anchor="middle" style="fill:#6b7689;font:italic 7.5px Fraunces,serif">Stereotyped Th1/macrophage architecture · same picture across many diseases</text>

                  <!-- FOCUS · audio-aligned attention marker -->
                  <circle cx="276" cy="139" r="60" fill="none" stroke="#d14859" stroke-width="1.8" stroke-dasharray="3 2" opacity="0.85">
                    <animate attributeName="r" values="56;66;56" dur="2.4s" repeatCount="indefinite"/>
                    <animate attributeName="opacity" values="0.85;0.20;0.85" dur="2.4s" repeatCount="indefinite"/>
                  </circle>
</svg>
