<?xml version="1.0" encoding="UTF-8"?>
<!--
  Auto-generated from the reference HTML by
  scripts/storymode-extraction/extract.mjs.
  Do not edit by hand — regenerate the file instead.
-->
<svg xmlns="http://www.w3.org/2000/svg" xmlns:xlink="http://www.w3.org/1999/xlink" viewBox="0 0 500 260" preserveAspectRatio="xMidYMid meet">
                  <text x="20" y="16" style="fill:#e8a951;font:600 9px Inter,sans-serif;letter-spacing:2px">STEP 04 · TA-GVHD · DONOR T CELLS ATTACK HOST</text>

                  <g transform="translate(85 145)">
                    <text x="0" y="-65" text-anchor="middle" style="fill:#e8a951;font:700 9px Inter,sans-serif;letter-spacing:1.5px">DONOR T CELLS</text>
                    <g transform="translate(-15 -10)" opacity="1"><circle cx="0" cy="0" r="11" fill="#e8a951" fill-opacity="0.55" stroke="#e8a951" stroke-width="1.2"></circle><ellipse cx="-2" cy="-1" rx="4.4" ry="3.8" fill="#4a2d60" opacity="0.85"></ellipse><text x="0" y="2" text-anchor="middle" style="fill:#e8ecf3;font:700 6px Inter,sans-serif">T</text></g>
                    <g transform="translate(15 -10)" opacity="1"><circle cx="0" cy="0" r="11" fill="#e8a951" fill-opacity="0.55" stroke="#e8a951" stroke-width="1.2"></circle><ellipse cx="-2" cy="-1" rx="4.4" ry="3.8" fill="#4a2d60" opacity="0.85"></ellipse><text x="0" y="2" text-anchor="middle" style="fill:#e8ecf3;font:700 6px Inter,sans-serif">T</text></g>
                    <g transform="translate(0 12)" opacity="1"><circle cx="0" cy="0" r="11" fill="#e8a951" fill-opacity="0.55" stroke="#e8a951" stroke-width="1.2"></circle><ellipse cx="-2" cy="-1" rx="4.4" ry="3.8" fill="#4a2d60" opacity="0.85"></ellipse><text x="0" y="2" text-anchor="middle" style="fill:#e8ecf3;font:700 6px Inter,sans-serif">T</text></g>
                    <text x="0" y="38" text-anchor="middle" style="fill:#b4becf;font:italic 7px Fraunces,serif">recognize host HLA</text>
                    <text x="0" y="48" text-anchor="middle" style="fill:#b4becf;font:italic 7px Fraunces,serif">as FOREIGN</text>
                  </g>

                  <g transform="translate(160 145)">
                    <line x1="-15" y1="0" x2="20" y2="0" stroke="#d14859" stroke-width="1.8"></line>
                    <polygon points="20,0 13,-4 13,4" fill="#d14859"></polygon>
                    <text x="3" y="-8" text-anchor="middle" style="fill:#d14859;font:700 7px Inter,sans-serif;letter-spacing:1.2px">ATTACK</text>
                  </g>

                  <g transform="translate(265 110)">
                    <g transform="translate(0 0)" opacity="1"><g fill="#9370b9" fill-opacity="0.45" stroke="#9370b9" stroke-width="1"><rect x="-14" y="-10" width="10" height="8" rx="1"></rect><rect x="-2" y="-10" width="10" height="8" rx="1"></rect><rect x="10" y="-10" width="10" height="8" rx="1"></rect><rect x="-14" y="0" width="10" height="8" rx="1"></rect><rect x="-2" y="0" width="10" height="8" rx="1"></rect><rect x="10" y="0" width="10" height="8" rx="1"></rect></g><g stroke="#d14859" stroke-width="2.2" stroke-linecap="round" opacity="0.95"><line x1="-18" y1="-14" x2="18" y2="14"></line><line x1="-18" y1="14" x2="18" y2="-14"></line></g></g>
                    <text x="0" y="22" text-anchor="middle" style="fill:#d14859;font:600 7px Inter,sans-serif;letter-spacing:1.2px">SKIN</text>
                    <text x="0" y="32" text-anchor="middle" style="fill:#b4becf;font:italic 6px Fraunces,serif">rash</text>
                  </g>
                  <g transform="translate(345 110)">
                    <g transform="translate(0 0)" opacity="1"><g stroke="#9370b9" stroke-width="2" fill="none" stroke-linecap="round"><path d="M -14 -8 Q -8 -14 0 -8 Q 8 -2 14 -8"></path><path d="M -14 0 Q -8 -6 0 0 Q 8 6 14 0"></path><path d="M -14 8 Q -8 2 0 8 Q 8 14 14 8"></path></g><g stroke="#d14859" stroke-width="2.2" stroke-linecap="round" opacity="0.95"><line x1="-18" y1="-14" x2="18" y2="14"></line><line x1="-18" y1="14" x2="18" y2="-14"></line></g></g>
                    <text x="0" y="22" text-anchor="middle" style="fill:#d14859;font:600 7px Inter,sans-serif;letter-spacing:1.2px">GUT</text>
                    <text x="0" y="32" text-anchor="middle" style="fill:#b4becf;font:italic 6px Fraunces,serif">diarrhea</text>
                  </g>
                  <g transform="translate(265 180)">
                    <g transform="translate(0 0)" opacity="1"><path d="M -16 -8 Q -18 8 -10 14 Q 0 16 12 12 Q 18 8 16 -6 Q 12 -12 0 -10 Q -12 -12 -16 -8 Z" fill="#9370b9" fill-opacity="0.45" stroke="#9370b9" stroke-width="1.4"></path><g stroke="#d14859" stroke-width="2.2" stroke-linecap="round" opacity="0.95"><line x1="-18" y1="-14" x2="18" y2="14"></line><line x1="-18" y1="14" x2="18" y2="-14"></line></g></g>
                    <text x="0" y="24" text-anchor="middle" style="fill:#d14859;font:600 7px Inter,sans-serif;letter-spacing:1.2px">LIVER</text>
                    <text x="0" y="34" text-anchor="middle" style="fill:#b4becf;font:italic 6px Fraunces,serif">jaundice</text>
                  </g>
                  <g transform="translate(345 180)">
                    <g transform="translate(0 0)" opacity="1"><rect x="-14" y="-5" width="28" height="10" rx="3" fill="#9370b9" fill-opacity="0.30" stroke="#9370b9" stroke-width="1.4"></rect><circle cx="-16" cy="0" r="5" fill="#9370b9" fill-opacity="0.30" stroke="#9370b9" stroke-width="1.4"></circle><circle cx="16" cy="0" r="5" fill="#9370b9" fill-opacity="0.30" stroke="#9370b9" stroke-width="1.4"></circle><rect x="-12" y="-3" width="24" height="6" rx="1" fill="#d14859" fill-opacity="0.55"></rect><g stroke="#d14859" stroke-width="2.2" stroke-linecap="round" opacity="0.95"><line x1="-18" y1="-14" x2="18" y2="14"></line><line x1="-18" y1="14" x2="18" y2="-14"></line></g></g>
                    <text x="0" y="20" text-anchor="middle" style="fill:#d14859;font:600 7px Inter,sans-serif;letter-spacing:1.2px">MARROW</text>
                    <text x="0" y="30" text-anchor="middle" style="fill:#b4becf;font:italic 6px Fraunces,serif">pancytopenia</text>
                  </g>

                  <g transform="translate(440 145)">
                    <rect x="-45" y="-22" width="90" height="44" rx="6" fill="#d14859" fill-opacity="0.40" stroke="#d14859" stroke-width="1.8"></rect>
                    <text x="0" y="-3" text-anchor="middle" style="fill:#d14859;font:700 9px Inter,sans-serif;letter-spacing:1.2px">TA-GVHD</text>
                    <text x="0" y="11" text-anchor="middle" style="fill:#b4becf;font:italic 7px Fraunces,serif">often fatal</text>
                  </g>

                  <text x="250" y="245" text-anchor="middle" style="fill:#b4becf;font:italic 7.5px Fraunces,serif">classic GVHD targets · skin rash · GI diarrhea · liver dysfunction · marrow failure</text>

                  <!-- FOCUS · audio-aligned attention marker -->
                  <circle cx="85" cy="178" r="27" fill="none" stroke="#d14859" stroke-width="1.8" stroke-dasharray="3 2" opacity="0.85">
                    <animate attributeName="r" values="23;33;23" dur="2.4s" repeatCount="indefinite"/>
                    <animate attributeName="opacity" values="0.85;0.20;0.85" dur="2.4s" repeatCount="indefinite"/>
                  </circle>

                  <!-- FOCUS · audio-aligned attention marker -->
                  <circle cx="85" cy="75" r="20" fill="none" stroke="#d14859" stroke-width="1.8" stroke-dasharray="3 2" opacity="0.85">
                    <animate attributeName="r" values="16;26;16" dur="2.4s" repeatCount="indefinite"/>
                    <animate attributeName="opacity" values="0.85;0.20;0.85" dur="2.4s" repeatCount="indefinite"/>
                  </circle>

                  <!-- FOCUS · audio-aligned attention marker -->
                  <circle cx="345" cy="205" r="20" fill="none" stroke="#d14859" stroke-width="1.8" stroke-dasharray="3 2" opacity="0.85">
                    <animate attributeName="r" values="16;26;16" dur="2.4s" repeatCount="indefinite"/>
                    <animate attributeName="opacity" values="0.85;0.20;0.85" dur="2.4s" repeatCount="indefinite"/>
                  </circle>
</svg>
