<?xml version="1.0" encoding="UTF-8"?>
<!--
  Auto-generated from the reference HTML by
  scripts/storymode-extraction/extract.mjs.
  Do not edit by hand — regenerate the file instead.
-->
<svg xmlns="http://www.w3.org/2000/svg" xmlns:xlink="http://www.w3.org/1999/xlink" viewBox="0 0 500 260" preserveAspectRatio="xMidYMid meet">
<text x="20" y="16" style="fill:#e8a951;font:600 9px Inter,sans-serif;letter-spacing:2px">STEP 05 · REACTIVATION · OFTEN EXTRAPULMONARY · DISSEMINATED</text><g>
    <rect x="20" y="30" width="220" height="14" rx="7" fill="rgba(232, 169, 81, 0.18)" stroke="#e8a951" stroke-width="1"/>
    <text x="130" y="40" text-anchor="middle" style="fill:#e8a951;font:700 7.5px Inter,sans-serif;letter-spacing:1.2px">ANTI-TNF · GRANULOMA MAINTENANCE</text>
  </g><g opacity="1"><g transform="translate(320 115)" opacity="0.25">
      <circle cx="0" cy="0" r="4.5" fill="#4fb8a8" opacity="0.55" stroke="#4fb8a8" stroke-width="0.9"/>
      <ellipse cx="0" cy="0" rx="2" ry="1.7" fill="#4fb8a8" opacity="0.95"/>
    </g><g transform="translate(314.0858798800485 152)" opacity="0.25">
      <circle cx="0" cy="0" r="4.5" fill="#4fb8a8" opacity="0.55" stroke="#4fb8a8" stroke-width="0.9"/>
      <ellipse cx="0" cy="0" rx="2" ry="1.7" fill="#4fb8a8" opacity="0.95"/>
    </g><g transform="translate(289 182.54998149518622)" opacity="0.25">
      <circle cx="0" cy="0" r="4.5" fill="#4fb8a8" opacity="0.55" stroke="#4fb8a8" stroke-width="0.9"/>
      <ellipse cx="0" cy="0" rx="2" ry="1.7" fill="#4fb8a8" opacity="0.95"/>
    </g><g transform="translate(250 197)" opacity="0.25">
      <circle cx="0" cy="0" r="4.5" fill="#4fb8a8" opacity="0.55" stroke="#4fb8a8" stroke-width="0.9"/>
      <ellipse cx="0" cy="0" rx="2" ry="1.7" fill="#4fb8a8" opacity="0.95"/>
    </g><g transform="translate(207.00000000000003 189.47818472546174)" opacity="0.25">
      <circle cx="0" cy="0" r="4.5" fill="#4fb8a8" opacity="0.55" stroke="#4fb8a8" stroke-width="0.9"/>
      <ellipse cx="0" cy="0" rx="2" ry="1.7" fill="#4fb8a8" opacity="0.95"/>
    </g><g transform="translate(172.05771365940052 160)" opacity="0.25">
      <circle cx="0" cy="0" r="4.5" fill="#4fb8a8" opacity="0.55" stroke="#4fb8a8" stroke-width="0.9"/>
      <ellipse cx="0" cy="0" rx="2" ry="1.7" fill="#4fb8a8" opacity="0.95"/>
    </g><g transform="translate(156 115.00000000000001)" opacity="0.25">
      <circle cx="0" cy="0" r="4.5" fill="#4fb8a8" opacity="0.55" stroke="#4fb8a8" stroke-width="0.9"/>
      <ellipse cx="0" cy="0" rx="2" ry="1.7" fill="#4fb8a8" opacity="0.95"/>
    </g><g transform="translate(165.12951042912502 65.99999999999999)" opacity="0.25">
      <circle cx="0" cy="0" r="4.5" fill="#4fb8a8" opacity="0.55" stroke="#4fb8a8" stroke-width="0.9"/>
      <ellipse cx="0" cy="0" rx="2" ry="1.7" fill="#4fb8a8" opacity="0.95"/>
    </g><g transform="translate(198.99999999999994 26.66540881398727)" opacity="0.25">
      <circle cx="0" cy="0" r="4.5" fill="#4fb8a8" opacity="0.55" stroke="#4fb8a8" stroke-width="0.9"/>
      <ellipse cx="0" cy="0" rx="2" ry="1.7" fill="#4fb8a8" opacity="0.95"/>
    </g><g transform="translate(249.99999999999997 9)" opacity="0.25">
      <circle cx="0" cy="0" r="4.5" fill="#4fb8a8" opacity="0.55" stroke="#4fb8a8" stroke-width="0.9"/>
      <ellipse cx="0" cy="0" rx="2" ry="1.7" fill="#4fb8a8" opacity="0.95"/>
    </g><g transform="translate(305 19.737205583711756)" opacity="0.25">
      <circle cx="0" cy="0" r="4.5" fill="#4fb8a8" opacity="0.55" stroke="#4fb8a8" stroke-width="0.9"/>
      <ellipse cx="0" cy="0" rx="2" ry="1.7" fill="#4fb8a8" opacity="0.95"/>
    </g><g transform="translate(348.726896031426 57.99999999999995)" opacity="0.25">
      <circle cx="0" cy="0" r="4.5" fill="#4fb8a8" opacity="0.55" stroke="#4fb8a8" stroke-width="0.9"/>
      <ellipse cx="0" cy="0" rx="2" ry="1.7" fill="#4fb8a8" opacity="0.95"/>
    </g><g transform="translate(170 90)" opacity="0.35">
        <ellipse cx="0" cy="0" rx="9" ry="4" fill="#4fb8a8" opacity="0.45" stroke="#4fb8a8" stroke-width="0.9"/>
        <ellipse cx="-2" cy="0" rx="2.5" ry="1.5" fill="#2d8a7c" opacity="0.7"/>
      </g><g transform="translate(330 85)" opacity="0.35">
        <ellipse cx="0" cy="0" rx="9" ry="4" fill="#4fb8a8" opacity="0.45" stroke="#4fb8a8" stroke-width="0.9"/>
        <ellipse cx="-2" cy="0" rx="2.5" ry="1.5" fill="#2d8a7c" opacity="0.7"/>
      </g><g transform="translate(180 145)" opacity="0.35">
        <ellipse cx="0" cy="0" rx="9" ry="4" fill="#4fb8a8" opacity="0.45" stroke="#4fb8a8" stroke-width="0.9"/>
        <ellipse cx="-2" cy="0" rx="2.5" ry="1.5" fill="#2d8a7c" opacity="0.7"/>
      </g><g transform="translate(325 140)" opacity="0.35">
        <ellipse cx="0" cy="0" rx="9" ry="4" fill="#4fb8a8" opacity="0.45" stroke="#4fb8a8" stroke-width="0.9"/>
        <ellipse cx="-2" cy="0" rx="2.5" ry="1.5" fill="#2d8a7c" opacity="0.7"/>
      </g><g transform="translate(250 55)" opacity="0.35">
        <ellipse cx="0" cy="0" rx="9" ry="4" fill="#4fb8a8" opacity="0.45" stroke="#4fb8a8" stroke-width="0.9"/>
        <ellipse cx="-2" cy="0" rx="2.5" ry="1.5" fill="#2d8a7c" opacity="0.7"/>
      </g><g transform="translate(250 175)" opacity="0.35">
        <ellipse cx="0" cy="0" rx="9" ry="4" fill="#4fb8a8" opacity="0.45" stroke="#4fb8a8" stroke-width="0.9"/>
        <ellipse cx="-2" cy="0" rx="2.5" ry="1.5" fill="#2d8a7c" opacity="0.7"/>
      </g><g transform="translate(200 85) rotate(30)">
        <ellipse cx="0" cy="0" rx="3" ry="1.2" fill="#d14859" opacity="0.95" stroke="#a53343" stroke-width="0.4"/>
      </g><g transform="translate(285 90) rotate(-30)">
        <ellipse cx="0" cy="0" rx="3" ry="1.2" fill="#d14859" opacity="0.95" stroke="#a53343" stroke-width="0.4"/>
      </g><g transform="translate(220 150) rotate(60)">
        <ellipse cx="0" cy="0" rx="3" ry="1.2" fill="#d14859" opacity="0.95" stroke="#a53343" stroke-width="0.4"/>
      </g><g transform="translate(300 145) rotate(120)">
        <ellipse cx="0" cy="0" rx="3" ry="1.2" fill="#d14859" opacity="0.95" stroke="#a53343" stroke-width="0.4"/>
      </g><g transform="translate(245 65) rotate(90)">
        <ellipse cx="0" cy="0" rx="3" ry="1.2" fill="#d14859" opacity="0.95" stroke="#a53343" stroke-width="0.4"/>
      </g><g transform="translate(265 165) rotate(0)">
        <ellipse cx="0" cy="0" rx="3" ry="1.2" fill="#d14859" opacity="0.95" stroke="#a53343" stroke-width="0.4"/>
      </g><g transform="translate(180 120) rotate(45)">
        <ellipse cx="0" cy="0" rx="3" ry="1.2" fill="#d14859" opacity="0.95" stroke="#a53343" stroke-width="0.4"/>
      </g><g transform="translate(320 120) rotate(135)">
        <ellipse cx="0" cy="0" rx="3" ry="1.2" fill="#d14859" opacity="0.95" stroke="#a53343" stroke-width="0.4"/>
      </g><g transform="translate(250 115) rotate(0)">
        <ellipse cx="0" cy="0" rx="3" ry="1.2" fill="#d14859" opacity="0.95" stroke="#a53343" stroke-width="0.4"/>
      </g><g transform="translate(275 70) rotate(-60)">
        <ellipse cx="0" cy="0" rx="3" ry="1.2" fill="#d14859" opacity="0.95" stroke="#a53343" stroke-width="0.4"/>
      </g><g transform="translate(205 110) rotate(25)">
        <ellipse cx="0" cy="0" rx="3" ry="1.2" fill="#d14859" opacity="0.95" stroke="#a53343" stroke-width="0.4"/>
      </g><g transform="translate(255 110) rotate(75)">
        <ellipse cx="0" cy="0" rx="3" ry="1.2" fill="#d14859" opacity="0.95" stroke="#a53343" stroke-width="0.4"/>
      </g><text x="250" y="51" text-anchor="middle" style="fill:#d14859;font:700 7.5px Inter,sans-serif;letter-spacing:1.5px">REACTIVATION TB</text></g><g>
    <text x="250" y="200" text-anchor="middle" style="fill:#d14859;font:600 8px Inter,sans-serif;letter-spacing:1.2px">REACTIVATION · within 6 mo · often EXTRAPULMONARY</text>
    <text x="250" y="212" text-anchor="middle" style="fill:#6b7689;font:italic 7px Fraunces,serif">cervical LN · bone · miliary · meningitis</text>
  </g>

                  <!-- FOCUS · audio-aligned attention marker -->
                  <circle cx="130" cy="35" r="40" fill="none" stroke="#d14859" stroke-width="1.8" stroke-dasharray="3 2" opacity="0.85">
                    <animate attributeName="r" values="36;46;36" dur="2.4s" repeatCount="indefinite"/>
                    <animate attributeName="opacity" values="0.85;0.20;0.85" dur="2.4s" repeatCount="indefinite"/>
                  </circle>
</svg>
