<?xml version="1.0" encoding="UTF-8"?>
<!--
  Auto-generated from the reference HTML by
  scripts/storymode-extraction/extract.mjs.
  Do not edit by hand — regenerate the file instead.
-->
<svg xmlns="http://www.w3.org/2000/svg" xmlns:xlink="http://www.w3.org/1999/xlink" viewBox="0 0 500 260" preserveAspectRatio="xMidYMid meet">
<text x="20" y="16" style="fill:#e8a951;font:600 9px Inter,sans-serif;letter-spacing:2px">STEP 10 · CHAPTER 9 · COMPLETE</text>

<!-- Big banner -->
<g transform="translate(250 60)">
  <rect x="-200" y="-22" width="400" height="44" rx="10" fill="rgba(147,112,185,0.20)" stroke="#9370b9" stroke-width="1.8"/>
  <text x="0" y="-3" text-anchor="middle" style="fill:#9370b9;font:700 12px Inter,sans-serif;letter-spacing:1.5px">VACCINE PRINCIPLES · COMPLETE</text>
  <text x="0" y="13" text-anchor="middle" style="fill:#b4becf;font:600 8px Inter,sans-serif">9 stations · platform · route · clinical pearls</text>
</g>

<!-- Three big icon panels -->
<!-- Platform icon -->
<g transform="translate(110 165)">
  <rect x="-50" y="-30" width="100" height="65" rx="8" fill="rgba(232,169,81,0.15)" stroke="#e8a951" stroke-width="1.6"/>
  <!-- 3 mini vials -->
  <g transform="translate(-25 -8)">
    <rect x="-7" y="-12" width="14" height="22" rx="2" fill="rgba(232,169,81,0.30)" stroke="#e8a951" stroke-width="1"/>
  </g>
  <g transform="translate(0 -8)">
    <rect x="-7" y="-12" width="14" height="22" rx="2" fill="rgba(232,169,81,0.30)" stroke="#e8a951" stroke-width="1"/>
  </g>
  <g transform="translate(25 -8)">
    <rect x="-7" y="-12" width="14" height="22" rx="2" fill="rgba(232,169,81,0.30)" stroke="#e8a951" stroke-width="1"/>
  </g>
  <text x="0" y="22" text-anchor="middle" style="fill:#e8a951;font:700 8px Inter,sans-serif;letter-spacing:1.2px">PLATFORMS</text>
</g>

<!-- Route icon (syringe + drop) -->
<g transform="translate(250 165)">
  <rect x="-50" y="-30" width="100" height="65" rx="8" fill="rgba(79,184,168,0.15)" stroke="#4fb8a8" stroke-width="1.6"/>
  <!-- Syringe IM -->
  <g transform="translate(-22 -8)">
    <rect x="-12" y="-3" width="20" height="6" rx="1" fill="rgba(79,184,168,0.85)"/>
    <line x1="8" y1="0" x2="18" y2="0" stroke="#b4becf" stroke-width="1.2"/>
    <text x="-2" y="14" text-anchor="middle" style="fill:#4fb8a8;font:6.5px Inter,sans-serif">IM</text>
  </g>
  <!-- Oral drop -->
  <g transform="translate(20 -8)">
    <path d="M 0 -10 Q -6 -3 -6 4 Q -6 10 0 10 Q 6 10 6 4 Q 6 -3 0 -10 Z" fill="rgba(79,184,168,0.85)" stroke="#4fb8a8"/>
    <text x="0" y="22" text-anchor="middle" style="fill:#4fb8a8;font:6.5px Inter,sans-serif">PO</text>
  </g>
  <text x="0" y="22" text-anchor="middle" style="fill:#4fb8a8;font:700 8px Inter,sans-serif;letter-spacing:1.2px">ROUTES</text>
</g>

<!-- Cautions icon (warning triangle) -->
<g transform="translate(390 165)">
  <rect x="-50" y="-30" width="100" height="65" rx="8" fill="rgba(209,72,89,0.15)" stroke="#d14859" stroke-width="1.6"/>
  <!-- SCID label -->
  <text x="-22" y="-10" text-anchor="middle" style="fill:#d14859;font:700 8px Inter,sans-serif">SCID</text>
  <!-- Warning triangle -->
  <g transform="translate(0 -8)">
    <path d="M 0 -10 L 12 8 L -12 8 Z" fill="rgba(209,72,89,0.85)" stroke="#d14859" stroke-width="1.4"/>
    <text x="0" y="5" text-anchor="middle" style="fill:#0a0e1a;font:700 11px Inter,sans-serif">!</text>
  </g>
  <!-- Pregnancy label -->
  <text x="22" y="-10" text-anchor="middle" style="fill:#d14859;font:700 8px Inter,sans-serif">PREG</text>
  <text x="0" y="22" text-anchor="middle" style="fill:#d14859;font:700 8px Inter,sans-serif;letter-spacing:1.2px">CAUTIONS</text>
</g>

<text x="250" y="240" text-anchor="middle" style="fill:#6b7689;font:italic 7.5px Fraunces,serif">Next: Chapter 10 — primary immunodeficiencies</text>

                  <!-- FOCUS · audio-aligned attention marker -->
                  <circle cx="292" cy="146" r="60" fill="none" stroke="#d14859" stroke-width="1.8" stroke-dasharray="3 2" opacity="0.85">
                    <animate attributeName="r" values="56;66;56" dur="2.4s" repeatCount="indefinite"/>
                    <animate attributeName="opacity" values="0.85;0.20;0.85" dur="2.4s" repeatCount="indefinite"/>
                  </circle>
</svg>
