<?xml version="1.0" encoding="UTF-8"?>
<!--
  Auto-generated from the reference HTML by
  scripts/storymode-extraction/extract.mjs.
  Do not edit by hand — regenerate the file instead.
-->
<svg xmlns="http://www.w3.org/2000/svg" xmlns:xlink="http://www.w3.org/1999/xlink" viewBox="0 0 500 280" preserveAspectRatio="xMidYMid meet">
                <text x="20" y="26" style="fill:#e8a951;font:600 10px Inter,sans-serif;letter-spacing:2px">STEP 08 · Ii → CLIP</text>
                <rect x="40" y="70" width="420" height="180" rx="18" fill="#0e1422" stroke="#3a4358" stroke-width="1.2"/>
                <text x="50" y="64" style="fill:#6b7689;font:600 8px Inter,sans-serif;letter-spacing:1.5px">EXTRACELLULAR</text>
                <text x="50" y="246" style="fill:#6b7689;font:600 8px Inter,sans-serif;letter-spacing:1.5px">CYTOPLASM</text>
                <line x1="40" y1="70" x2="460" y2="70" stroke="#4fb8a8" stroke-width="1.5" opacity="0.7"/>
                <g opacity="0.20">
                  <path d="M 70 180 Q 55 205 80 220 Q 130 230 175 220 Q 200 215 205 198 Q 210 175 188 162 Q 130 154 70 180 Z" fill="#4fb8a8" stroke="#4fb8a8" stroke-width="1"/>
                  <text x="135" y="245" text-anchor="middle" style="fill:#4fb8a8;font:600 8px Inter,sans-serif">ER</text>
                </g>
                <path d="M 175 200 Q 215 175 240 175" stroke="#e8a951" stroke-width="1" fill="none" stroke-dasharray="3 3" opacity="0.3"/>
                <ellipse cx="290" cy="170" rx="100" ry="65" fill="#e8a951" opacity="0.16" stroke="#e8a951" stroke-width="2.2" stroke-dasharray="5 3"/>
                <text x="290" y="105" text-anchor="middle" style="fill:#e8a951;font:700 11px Inter,sans-serif;letter-spacing:2px">ENDOSOME</text>
                <g fill="#e8a951" opacity="0.85">
                  <path d="M 220 145 L 226 149 L 224 156 L 218 152 Z"/>
                  <path d="M 360 145 L 366 149 L 364 156 L 358 152 Z"/>
                  <path d="M 215 195 L 221 199 L 219 206 L 213 202 Z"/>
                  <path d="M 360 195 L 366 199 L 364 206 L 358 202 Z"/>
                </g>
                <g transform="translate(245 175)">
                  <path d="M -22 -6 L 22 -6 L 24 4 L 14 4 L 11 -2 L -11 -2 L -14 4 L -24 4 Z" fill="#4fb8a8" opacity="0.85" stroke="#4fb8a8" stroke-width="1.3"/>
                  <rect x="-12" y="-16" width="24" height="11" rx="2" fill="#9370b9" opacity="0.9"/>
                  <text x="0" y="-8" text-anchor="middle" style="fill:#e8ecf3;font:700 8px Inter,sans-serif">Ii</text>
                </g>
                <path d="M 280 175 L 320 175" stroke="#e8a951" stroke-width="1.5"/>
                <polygon points="320,175 313,171 313,179" fill="#e8a951"/>
                <text x="300" y="166" text-anchor="middle" style="fill:#e8a951;font:600 8px Inter,sans-serif;letter-spacing:1.5px">CHEWED</text>
                <g transform="translate(345 175)">
                  <path d="M -22 -6 L 22 -6 L 24 4 L 14 4 L 11 -2 L -11 -2 L -14 4 L -24 4 Z" fill="#4fb8a8" opacity="0.85" stroke="#4fb8a8" stroke-width="1.3"/>
                  <rect x="-7" y="-10" width="14" height="6" rx="2" fill="#9370b9" opacity="0.9"/>
                  <text x="0" y="-5" text-anchor="middle" style="fill:#e8ecf3;font:700 6px Inter,sans-serif">CLIP</text>
                </g>
                <text x="250" y="270" text-anchor="middle" style="fill:#b4becf;font:italic 10px Fraunces,serif">groove still blocked · but only by a tiny remnant</text>

                  <!-- FOCUS · audio-aligned attention marker -->
                  <circle cx="345" cy="165" r="20" fill="none" stroke="#d14859" stroke-width="1.8" stroke-dasharray="3 2" opacity="0.85">
                    <animate attributeName="r" values="16;26;16" dur="2.4s" repeatCount="indefinite"/>
                    <animate attributeName="opacity" values="0.85;0.20;0.85" dur="2.4s" repeatCount="indefinite"/>
                  </circle>

                  <!-- FOCUS · audio-aligned attention marker -->
                  <circle cx="290" cy="100" r="20" fill="none" stroke="#d14859" stroke-width="1.8" stroke-dasharray="3 2" opacity="0.85">
                    <animate attributeName="r" values="16;26;16" dur="2.4s" repeatCount="indefinite"/>
                    <animate attributeName="opacity" values="0.85;0.20;0.85" dur="2.4s" repeatCount="indefinite"/>
                  </circle>
</svg>
