<?xml version="1.0" encoding="UTF-8"?>
<!--
  Auto-generated from the reference HTML by
  scripts/storymode-extraction/extract.mjs.
  Do not edit by hand — regenerate the file instead.
-->
<svg xmlns="http://www.w3.org/2000/svg" xmlns:xlink="http://www.w3.org/1999/xlink" viewBox="0 0 500 260" preserveAspectRatio="xMidYMid meet">
<text x="20" y="16" style="fill:#e8a951;font:600 9px Inter,sans-serif;letter-spacing:2px">STEP 05 · IRRADIATED · BUT MHC SURFACE STILL DISPLAYED</text>

<!-- Big donor cell with detail -->
<g transform="translate(180 130)">
  <circle cx="0" cy="0" r="68" fill="rgba(209,72,89,0.15)" stroke="#d14859" stroke-width="1.8" stroke-dasharray="3 2"/>
  
  <!-- Damaged DNA inside -->
  <g transform="translate(0 8)" opacity="0.6">
    <path d="M -15 -10 Q -10 0 -15 10" stroke="#6b7689" stroke-width="1.6" fill="none"/>
    <path d="M -8 -10 Q -3 0 -8 10" stroke="#6b7689" stroke-width="1.6" fill="none"/>
    <line x1="-5" y1="-3" x2="5" y2="3" stroke="#d14859" stroke-width="2"/>
    <line x1="3" y1="-8" x2="13" y2="-2" stroke="#d14859" stroke-width="2"/>
  </g>
  <text x="0" y="-10" text-anchor="middle" style="fill:#d14859;font:700 7px Inter,sans-serif">DSBs</text>
  <text x="0" y="34" text-anchor="middle" style="fill:#d14859;font:600 7px Inter,sans-serif">no division</text>
  
  <!-- MHC on surface — DR3 and DR6 -->
  <g transform="translate(-48 -48)">
    <rect x="-12" y="-7" width="24" height="14" rx="3" fill="#4fb8a8" fill-opacity="0.85" stroke="#4fb8a8" stroke-width="1.4"/>
    <text x="0" y="3" text-anchor="middle" style="fill:#e8ecf3;font:700 8px Inter,sans-serif">DR3</text>
  </g>
  <g transform="translate(48 -48)">
    <rect x="-12" y="-7" width="24" height="14" rx="3" fill="#4fb8a8" fill-opacity="0.85" stroke="#4fb8a8" stroke-width="1.4"/>
    <text x="0" y="3" text-anchor="middle" style="fill:#e8ecf3;font:700 8px Inter,sans-serif">DR6</text>
  </g>
  <g transform="translate(-50 50)">
    <rect x="-12" y="-7" width="24" height="14" rx="3" fill="#4fb8a8" fill-opacity="0.85" stroke="#4fb8a8" stroke-width="1.4"/>
    <text x="0" y="3" text-anchor="middle" style="fill:#e8ecf3;font:700 8px Inter,sans-serif">DR3</text>
  </g>
  <g transform="translate(50 50)">
    <rect x="-12" y="-7" width="24" height="14" rx="3" fill="#4fb8a8" fill-opacity="0.85" stroke="#4fb8a8" stroke-width="1.4"/>
    <text x="0" y="3" text-anchor="middle" style="fill:#e8ecf3;font:700 8px Inter,sans-serif">DR6</text>
  </g>
</g>

<!-- Right side annotations -->
<g transform="translate(370 80)">
  <rect x="0" y="0" width="120" height="22" rx="3" fill="rgba(209,72,89,0.18)" stroke="#d14859" stroke-width="1.2"/>
  <text x="60" y="14" text-anchor="middle" style="fill:#d14859;font:700 8px Inter,sans-serif">DNA DAMAGED</text>
</g>
<g transform="translate(370 110)">
  <rect x="0" y="0" width="120" height="22" rx="3" fill="rgba(209,72,89,0.18)" stroke="#d14859" stroke-width="1.2"/>
  <text x="60" y="14" text-anchor="middle" style="fill:#d14859;font:700 8px Inter,sans-serif">CAN'T PROLIFERATE</text>
</g>
<g transform="translate(370 140)">
  <rect x="0" y="0" width="120" height="22" rx="3" fill="rgba(108,194,125,0.18)" stroke="#6cc27d" stroke-width="1.2"/>
  <text x="60" y="14" text-anchor="middle" style="fill:#6cc27d;font:700 8px Inter,sans-serif">SURFACE MHC OK</text>
</g>
<g transform="translate(370 170)">
  <rect x="0" y="0" width="120" height="22" rx="3" fill="rgba(108,194,125,0.18)" stroke="#6cc27d" stroke-width="1.2"/>
  <text x="60" y="14" text-anchor="middle" style="fill:#6cc27d;font:700 8px Inter,sans-serif">STILL STIMULATES</text>
</g>

<text x="250" y="225" text-anchor="middle" style="fill:#e8a951;font:700 8.5px Inter,sans-serif;letter-spacing:1.2px">DONOR = "STIMULATOR" · RECIPIENT = "RESPONDER"</text>
<text x="250" y="245" text-anchor="middle" style="fill:#6b7689;font:italic 7.5px Fraunces,serif">Irradiation makes proliferation a one-way street</text>

                  <!-- FOCUS · audio-aligned attention marker -->
                  <circle cx="430" cy="149" r="21" fill="none" stroke="#d14859" stroke-width="1.8" stroke-dasharray="3 2" opacity="0.85">
                    <animate attributeName="r" values="17;27;17" dur="2.4s" repeatCount="indefinite"/>
                    <animate attributeName="opacity" values="0.85;0.20;0.85" dur="2.4s" repeatCount="indefinite"/>
                  </circle>
</svg>
