<?xml version="1.0" encoding="UTF-8"?>
<!--
  Auto-generated from the reference HTML by
  scripts/storymode-extraction/extract.mjs.
  Do not edit by hand — regenerate the file instead.
-->
<svg xmlns="http://www.w3.org/2000/svg" xmlns:xlink="http://www.w3.org/1999/xlink" viewBox="0 0 500 260" preserveAspectRatio="xMidYMid meet">
<text x="20" y="16" style="fill:#e8a951;font:600 9px Inter,sans-serif;letter-spacing:2px">STEP 02 · IMMUNE COMPLEXES FORM IN CIRCULATION</text>

<!-- Reactants on left -->
<g transform="translate(95 145)">
  <text x="0" y="-78" text-anchor="middle" style="fill:#b4becf;font:700 8px Inter,sans-serif;letter-spacing:1.2px">REACTANTS</text>
  
  <!-- IgG -->
  <g stroke="#e8a951" stroke-width="2" fill="none" stroke-linecap="round" transform="translate(-22 -10)">
    <line x1="0" y1="0" x2="0" y2="14"/>
    <line x1="-7" y1="-7" x2="0" y2="0"/>
    <line x1="7" y1="-7" x2="0" y2="0"/>
  </g>
  <text x="-22" y="20" text-anchor="middle" style="fill:#e8a951;font:700 7px Inter,sans-serif">IgG</text>
  
  <!-- Plus sign -->
  <text x="0" y="0" text-anchor="middle" style="fill:#b4becf;font:700 18px Inter,sans-serif">+</text>
  
  <!-- DNA double helix -->
  <g stroke="#4fb8a8" stroke-width="1.6" fill="none" transform="translate(22 -10)">
    <path d="M -10 0 Q -5 -4 0 0 Q 5 4 10 0"/>
    <path d="M -10 6 Q -5 2 0 6 Q 5 10 10 6"/>
    <line x1="-7" y1="-2" x2="-7" y2="6" stroke-width="0.8"/>
    <line x1="0" y1="-2" x2="0" y2="6" stroke-width="0.8"/>
    <line x1="7" y1="-2" x2="7" y2="6" stroke-width="0.8"/>
  </g>
  <text x="22" y="20" text-anchor="middle" style="fill:#4fb8a8;font:700 7px Inter,sans-serif">dsDNA</text>
</g>

<!-- Big arrow → -->
<g stroke="#e8a951" stroke-width="2.4" fill="none" marker-end="url(#arr11_5_2a)">
  <line x1="155" y1="145" x2="225" y2="145"/>
</g>
<defs>
  <marker id="arr11_5_2a" viewBox="0 0 10 10" refX="9" refY="5" markerWidth="7" markerHeight="7" orient="auto">
    <path d="M 0 0 L 10 5 L 0 10 z" fill="#e8a951"/>
  </marker>
</defs>
<text x="190" y="135" text-anchor="middle" style="fill:#e8a951;font:700 7px Inter,sans-serif;letter-spacing:1.2px">BIND</text>

<!-- Lattice complex on right -->
<g transform="translate(330 145)">
  <text x="0" y="-78" text-anchor="middle" style="fill:#9370b9;font:700 8.5px Inter,sans-serif;letter-spacing:1.2px">IMMUNE COMPLEX LATTICE</text>
  
  <!-- DNA strands (horizontal) -->
  <g stroke="#4fb8a8" stroke-width="1.6" fill="none">
    <path d="M -50 -25 Q -45 -28 -40 -25 Q -35 -22 -30 -25 Q -25 -28 -20 -25 Q -15 -22 -10 -25 Q -5 -28 0 -25 Q 5 -22 10 -25 Q 15 -28 20 -25 Q 25 -22 30 -25 Q 35 -28 40 -25 Q 45 -22 50 -25"/>
    <path d="M -50 -19 Q -45 -22 -40 -19 Q -35 -16 -30 -19 Q -25 -22 -20 -19 Q -15 -16 -10 -19 Q -5 -22 0 -19 Q 5 -16 10 -19 Q 15 -22 20 -19 Q 25 -16 30 -19 Q 35 -22 40 -19 Q 45 -16 50 -19"/>
    
    <path d="M -50 25 Q -45 22 -40 25 Q -35 28 -30 25 Q -25 22 -20 25 Q -15 28 -10 25 Q -5 22 0 25 Q 5 28 10 25 Q 15 22 20 25 Q 25 28 30 25 Q 35 22 40 25 Q 45 28 50 25"/>
    <path d="M -50 31 Q -45 28 -40 31 Q -35 34 -30 31 Q -25 28 -20 31 Q -15 34 -10 31 Q -5 28 0 31 Q 5 34 10 31 Q 15 28 20 31 Q 25 34 30 31 Q 35 28 40 31 Q 45 34 50 31"/>
  </g>
  
  <!-- IgG antibodies bridging the strands -->
  <g stroke="#e8a951" stroke-width="2" fill="none" stroke-linecap="round">
    <g transform="translate(-30 0)">
      <line x1="0" y1="-12" x2="0" y2="12"/>
      <line x1="-5" y1="-17" x2="0" y2="-12"/>
      <line x1="5" y1="-17" x2="0" y2="-12"/>
      <line x1="-5" y1="17" x2="0" y2="12"/>
      <line x1="5" y1="17" x2="0" y2="12"/>
    </g>
    <g transform="translate(0 0)">
      <line x1="0" y1="-12" x2="0" y2="12"/>
      <line x1="-5" y1="-17" x2="0" y2="-12"/>
      <line x1="5" y1="-17" x2="0" y2="-12"/>
      <line x1="-5" y1="17" x2="0" y2="12"/>
      <line x1="5" y1="17" x2="0" y2="12"/>
    </g>
    <g transform="translate(30 0)">
      <line x1="0" y1="-12" x2="0" y2="12"/>
      <line x1="-5" y1="-17" x2="0" y2="-12"/>
      <line x1="5" y1="-17" x2="0" y2="-12"/>
      <line x1="-5" y1="17" x2="0" y2="12"/>
      <line x1="5" y1="17" x2="0" y2="12"/>
    </g>
  </g>
</g>

<text x="250" y="245" text-anchor="middle" style="fill:#6b7689;font:italic 7.5px Fraunces,serif">Multivalent binding · DNA + IgG form lattice → circulating immune complexes</text>

                  <!-- FOCUS · audio-aligned attention marker -->
                  <circle cx="73" cy="160" r="20" fill="none" stroke="#d14859" stroke-width="1.8" stroke-dasharray="3 2" opacity="0.85">
                    <animate attributeName="r" values="16;26;16" dur="2.4s" repeatCount="indefinite"/>
                    <animate attributeName="opacity" values="0.85;0.20;0.85" dur="2.4s" repeatCount="indefinite"/>
                  </circle>
</svg>
