<?xml version="1.0" encoding="UTF-8"?>
<!--
  Auto-generated from the reference HTML by
  scripts/storymode-extraction/extract.mjs.
  Do not edit by hand — regenerate the file instead.
-->
<svg xmlns="http://www.w3.org/2000/svg" xmlns:xlink="http://www.w3.org/1999/xlink" viewBox="0 0 500 260" preserveAspectRatio="xMidYMid meet">
<text x="20" y="16" style="fill:#e8a951;font:600 9px Inter,sans-serif;letter-spacing:2px">STEP 02 · VISION LOSS · SUDDEN · IRREVERSIBLE · PREVENTABLE</text><g>
    <rect x="20" y="30" width="200" height="14" rx="7" fill="rgba(232, 169, 81, 0.18)" stroke="#e8a951" stroke-width="1"/>
    <text x="120" y="40" text-anchor="middle" style="fill:#e8a951;font:700 7.5px Inter,sans-serif;letter-spacing:1.2px">GCA · TREAT BEFORE BIOPSY</text>
  </g><text x="30" y="62" style="fill:#b4becf;font:600 7px 'JetBrains Mono',monospace;letter-spacing:1.5px">PATIENT · ELDERLY</text><text x="470" y="62" text-anchor="end" style="fill:#b4becf;font:600 7px 'JetBrains Mono',monospace;letter-spacing:1.5px">TREATMENT TIMELINE</text><g opacity="1">
    <!-- head profile (side view) -->
    <g stroke="#b4becf" stroke-width="1.4" fill="#b4becf" fill-opacity="0.10">
      <!-- skull oval -->
      <ellipse cx="100" cy="115" rx="42" ry="50"/>
      <!-- jaw extension - lower right -->
      <path d="M 108 155 Q 130 158 135 145 Q 138 138 130 132" stroke="#b4becf" stroke-width="1.4" fill="#b4becf" fill-opacity="0.10"/>
    </g>
    <!-- ear -->
    <ellipse cx="65" cy="115" rx="3" ry="6" fill="#b4becf" fill-opacity="0.4" stroke="#b4becf" stroke-width="0.8" opacity="0.6"/>
    <!-- eye -->
    <g>
      <ellipse cx="125" cy="105" rx="6" ry="3" fill="#b4becf" fill-opacity="0.15" stroke="#b4becf" stroke-width="0.9"/>
      <circle cx="127" cy="105" r="1.5" fill="#b4becf" opacity="0.7"/>
    </g><g opacity="0.95">
      <path d="M 78 95 Q 80 88 84 84 Q 90 80 96 82 Q 102 84 106 90" stroke="#d14859" stroke-width="2.4" fill="none" stroke-linecap="round"/>
      <!-- Tender markers (small starburst) -->
      <g stroke="#d14859" stroke-width="0.9" fill="none" opacity="0.85">
        <line x1="92" y1="78" x2="89" y2="74"/>
        <line x1="92" y1="78" x2="95" y2="74"/>
        <line x1="92" y1="78" x2="92" y2="73"/>
      </g>
    </g><g stroke="#d14859" stroke-width="1.1" fill="none" opacity="0.95">
      <line x1="100" y1="65" x2="100" y2="58"/>
      <line x1="90" y1="68" x2="86" y2="62"/>
      <line x1="110" y1="68" x2="114" y2="62"/>
    </g><g opacity="0.95">
      <g stroke="#d14859" stroke-width="1.1" fill="none">
        <path d="M 122 152 L 124 148 L 126 152 L 128 148 L 130 152"/>
      </g>
      <line x1="155" y1="155" x2="135" y2="150" stroke="#d14859" stroke-width="0.6" opacity="0.7"/>
      <text x="158" y="158" style="fill:#d14859;font:700 7px Inter,sans-serif;opacity:0.95">jaw claud.</text>
    </g><g opacity="0.95">
      <!-- warning halo around eye -->
      <ellipse cx="125" cy="105" rx="11" ry="7" fill="none" stroke="#e8a951" stroke-width="1.2" stroke-dasharray="2 1.5"/>
      <line x1="155" y1="105" x2="138" y2="105" stroke="#e8a951" stroke-width="0.6" opacity="0.7"/>
      <text x="158" y="103" style="fill:#e8a951;font:700 7px Inter,sans-serif;opacity:0.95">⚠ vision</text>
      <text x="158" y="112" style="fill:#e8a951;font:700 7px Inter,sans-serif;opacity:0.95">at risk</text>
    </g></g><g opacity="1">
    <text x="252" y="62" text-anchor="middle" style="fill:#b4becf;font:600 7px 'JetBrains Mono',monospace;letter-spacing:1.5px">CLINICAL + LAB</text>
    <g style="font:8px Inter,sans-serif;fill:#b4becf">
      <text x="200" y="78">▸ age &gt; 50 (often &gt; 70)</text>
      <text x="200" y="92">▸ new headache</text>
      <text x="200" y="106">▸ jaw claudication</text>
      <text x="200" y="120">▸ temporal artery tender</text>
    </g>
    <!-- ESR - elevated indicator -->
    <g transform="translate(252 145)">
      <rect x="-50" y="-9" width="100" height="18" rx="4" fill="rgba(209, 72, 89, 0.15)" stroke="#d14859" stroke-width="1.1"/>
      <text x="0" y="3" text-anchor="middle" style="fill:#d14859;font:700 8.5px Inter,sans-serif;letter-spacing:1px">↑↑ ESR · ↑ CRP</text>
    </g>
    <text x="252" y="172" text-anchor="middle" style="fill:#e8a951;font:italic 7.5px Fraunces,serif">high pre-test probability</text>
  </g><g opacity="1">
    <!-- timeline axis -->
    <line x1="335" y1="115" x2="465" y2="115" stroke="#3a4358" stroke-width="1"/>
    <!-- T=0 NOW marker -->
    <line x1="345" y1="105" x2="345" y2="125" stroke="#e8a951" stroke-width="1.2"/>
    <text x="345" y="100" text-anchor="middle" style="fill:#e8a951;font:700 7.5px Inter,sans-serif;letter-spacing:1.2px">NOW</text>
    <text x="345" y="135" text-anchor="middle" style="fill:#6b7689;font:6.5px 'JetBrains Mono',monospace">T = 0</text>
    <!-- T=+1-2 wk marker -->
    <line x1="450" y1="105" x2="450" y2="125" stroke="#6b7689" stroke-width="1"/>
    <text x="450" y="100" text-anchor="middle" style="fill:#6b7689;font:700 7px Inter,sans-serif;letter-spacing:0.8px">BIOPSY</text>
    <text x="450" y="135" text-anchor="middle" style="fill:#6b7689;font:6.5px 'JetBrains Mono',monospace">+1-2 WK</text></g>

                  <!-- FOCUS · audio-aligned attention marker -->
                  <circle cx="450" cy="95" r="20" fill="none" stroke="#d14859" stroke-width="1.8" stroke-dasharray="3 2" opacity="0.85">
                    <animate attributeName="r" values="16;26;16" dur="2.4s" repeatCount="indefinite"/>
                    <animate attributeName="opacity" values="0.85;0.20;0.85" dur="2.4s" repeatCount="indefinite"/>
                  </circle>
</svg>
