<?xml version="1.0" encoding="UTF-8"?>
<!--
  Auto-generated from the reference HTML by
  scripts/storymode-extraction/extract.mjs.
  Do not edit by hand — regenerate the file instead.
-->
<svg xmlns="http://www.w3.org/2000/svg" xmlns:xlink="http://www.w3.org/1999/xlink" viewBox="0 0 500 260" preserveAspectRatio="xMidYMid meet">
                  <text x="20" y="16" style="fill:#e8a951;font:600 9px Inter,sans-serif;letter-spacing:2px">STEP 03 · SCID RECIPIENT · DONOR T CELLS ENGRAFT</text>

                  <g transform="translate(80 145)">
                    <g transform="translate(0 0) scale(0.85)" opacity="1"><circle cx="0" cy="-30" r="14" fill="#d14859" fill-opacity="0.55" stroke="#d14859" stroke-width="1.4"></circle><path d="M -22 -16 L 22 -16 L 30 50 L -30 50 Z" fill="#d14859" fill-opacity="0.40" stroke="#d14859" stroke-width="1.4"></path></g>
                    <text x="0" y="62" text-anchor="middle" style="fill:#d14859;font:700 8px Inter,sans-serif;letter-spacing:1.5px">SCID HOST</text>
                    <text x="0" y="73" text-anchor="middle" style="fill:#b4becf;font:italic 7px Fraunces,serif">no T cells</text>
                  </g>

                  <g transform="translate(180 110)" opacity="1"><rect x="-3" y="-38" width="6" height="6" fill="#6b7689" opacity="0.65"></rect><path d="M -19 -30 L 19 -30 L 15 30 L -15 30 Z" fill="#d14859" fill-opacity="0.55" stroke="#d14859" stroke-width="1.5"></path><g fill="#9c2937" fill-opacity="0.85"><ellipse cx="-12" cy="-25" rx="3" ry="2"></ellipse><ellipse cx="10" cy="-28" rx="3" ry="2"></ellipse><ellipse cx="0" cy="-10" rx="3" ry="2"></ellipse><ellipse cx="-10" cy="-5" rx="3" ry="2"></ellipse><ellipse cx="12" cy="-8" rx="3" ry="2"></ellipse><ellipse cx="-15" cy="8" rx="3" ry="2"></ellipse><ellipse cx="10" cy="12" rx="3" ry="2"></ellipse><ellipse cx="-5" cy="22" rx="3" ry="2"></ellipse><ellipse cx="12" cy="25" rx="3" ry="2"></ellipse><ellipse cx="-12" cy="28" rx="3" ry="2"></ellipse></g><g fill="#e8a951" fill-opacity="0.95" stroke="#e8a951" stroke-width="0.8"><circle cx="-10" cy="-15" r="4"></circle><circle cx="6" cy="0" r="4"></circle><circle cx="-3" cy="20" r="4"></circle></g></g>
                  <line x1="180" y1="142" x2="180" y2="170" stroke="#d14859" stroke-width="1.4"></line>
                  <polygon points="180,170 176,164 184,164" fill="#d14859"></polygon>

                  <g transform="translate(310 145)">
                    <rect x="-65" y="-50" width="130" height="100" rx="8" fill="#d14859" fill-opacity="0.10" stroke="#d14859" stroke-width="1.4"></rect>
                    <text x="0" y="-38" text-anchor="middle" style="fill:#d14859;font:700 7px Inter,sans-serif;letter-spacing:1.2px">SCID HOST · NO T CELLS</text>
                    <g transform="translate(-30 -15)" opacity="1"><circle cx="0" cy="0" r="9" fill="#e8a951" fill-opacity="0.55" stroke="#e8a951" stroke-width="1.2"></circle><ellipse cx="-2" cy="-1" rx="3.6" ry="3.15" fill="#4a2d60" opacity="0.85"></ellipse><text x="0" y="2" text-anchor="middle" style="fill:#e8ecf3;font:700 6px Inter,sans-serif">T</text></g>
                    <g transform="translate(0 -10)" opacity="1"><circle cx="0" cy="0" r="9" fill="#e8a951" fill-opacity="0.55" stroke="#e8a951" stroke-width="1.2"></circle><ellipse cx="-2" cy="-1" rx="3.6" ry="3.15" fill="#4a2d60" opacity="0.85"></ellipse><text x="0" y="2" text-anchor="middle" style="fill:#e8ecf3;font:700 6px Inter,sans-serif">T</text></g>
                    <g transform="translate(30 -5)" opacity="1"><circle cx="0" cy="0" r="9" fill="#e8a951" fill-opacity="0.55" stroke="#e8a951" stroke-width="1.2"></circle><ellipse cx="-2" cy="-1" rx="3.6" ry="3.15" fill="#4a2d60" opacity="0.85"></ellipse><text x="0" y="2" text-anchor="middle" style="fill:#e8ecf3;font:700 6px Inter,sans-serif">T</text></g>
                    <g transform="translate(-25 15)" opacity="1"><circle cx="0" cy="0" r="9" fill="#e8a951" fill-opacity="0.55" stroke="#e8a951" stroke-width="1.2"></circle><ellipse cx="-2" cy="-1" rx="3.6" ry="3.15" fill="#4a2d60" opacity="0.85"></ellipse><text x="0" y="2" text-anchor="middle" style="fill:#e8ecf3;font:700 6px Inter,sans-serif">T</text></g>
                    <g transform="translate(5 20)" opacity="1"><circle cx="0" cy="0" r="9" fill="#e8a951" fill-opacity="0.55" stroke="#e8a951" stroke-width="1.2"></circle><ellipse cx="-2" cy="-1" rx="3.6" ry="3.15" fill="#4a2d60" opacity="0.85"></ellipse><text x="0" y="2" text-anchor="middle" style="fill:#e8ecf3;font:700 6px Inter,sans-serif">T</text></g>
                    <g transform="translate(35 18)" opacity="1"><circle cx="0" cy="0" r="9" fill="#e8a951" fill-opacity="0.55" stroke="#e8a951" stroke-width="1.2"></circle><ellipse cx="-2" cy="-1" rx="3.6" ry="3.15" fill="#4a2d60" opacity="0.85"></ellipse><text x="0" y="2" text-anchor="middle" style="fill:#e8ecf3;font:700 6px Inter,sans-serif">T</text></g>
                  </g>

                  <g transform="translate(440 145)">
                    <rect x="-45" y="-22" width="90" height="44" rx="6" fill="#d14859" fill-opacity="0.30" stroke="#d14859" stroke-width="1.6"></rect>
                    <text x="0" y="-3" text-anchor="middle" style="fill:#d14859;font:700 8px Inter,sans-serif;letter-spacing:1.2px">ENGRAFT</text>
                    <text x="0" y="11" text-anchor="middle" style="fill:#b4becf;font:italic 7px Fraunces,serif">no rejection</text>
                  </g>

                  <text x="250" y="245" text-anchor="middle" style="fill:#b4becf;font:italic 7.5px Fraunces,serif">SCID host has no T cells to clear donor lymphocytes · they take up residence and proliferate</text>

                  <!-- FOCUS · audio-aligned attention marker -->
                  <circle cx="310" cy="102" r="33" fill="none" stroke="#d14859" stroke-width="1.8" stroke-dasharray="3 2" opacity="0.85">
                    <animate attributeName="r" values="29;39;29" dur="2.4s" repeatCount="indefinite"/>
                    <animate attributeName="opacity" values="0.85;0.20;0.85" dur="2.4s" repeatCount="indefinite"/>
                  </circle>

                  <!-- FOCUS · audio-aligned attention marker -->
                  <circle cx="440" cy="151" r="20" fill="none" stroke="#d14859" stroke-width="1.8" stroke-dasharray="3 2" opacity="0.85">
                    <animate attributeName="r" values="16;26;16" dur="2.4s" repeatCount="indefinite"/>
                    <animate attributeName="opacity" values="0.85;0.20;0.85" dur="2.4s" repeatCount="indefinite"/>
                  </circle>

                  <!-- FOCUS · audio-aligned attention marker -->
                  <circle cx="80" cy="213" r="20" fill="none" stroke="#d14859" stroke-width="1.8" stroke-dasharray="3 2" opacity="0.85">
                    <animate attributeName="r" values="16;26;16" dur="2.4s" repeatCount="indefinite"/>
                    <animate attributeName="opacity" values="0.85;0.20;0.85" dur="2.4s" repeatCount="indefinite"/>
                  </circle>
</svg>
