<?xml version="1.0" encoding="UTF-8"?>
<!--
  Auto-generated from the reference HTML by
  scripts/storymode-extraction/extract.mjs.
  Do not edit by hand — regenerate the file instead.
-->
<svg xmlns="http://www.w3.org/2000/svg" xmlns:xlink="http://www.w3.org/1999/xlink" viewBox="0 0 500 260" preserveAspectRatio="xMidYMid meet">
<text x="20" y="16" style="fill:#e8a951;font:600 9px Inter,sans-serif;letter-spacing:2px">STEP 04 · WASp · ACTIN POLYMERIZATION REGULATOR</text>

<!-- Normal cell with WASp on left -->
<g transform="translate(125 130)">
  <text x="0" y="-78" text-anchor="middle" style="fill:#6cc27d;font:700 9px Inter,sans-serif;letter-spacing:1.5px">NORMAL · WASp PRESENT</text>
  
  <!-- Cell membrane -->
  <circle cx="0" cy="0" r="48" fill="rgba(147,112,185,0.18)" stroke="#9370b9" stroke-width="1.6"/>
  
  <!-- Surface receptor (signal in) -->
  <g transform="translate(-40 -22)">
    <rect x="-5" y="-3" width="10" height="14" rx="1" fill="rgba(232,169,81,0.85)" stroke="#e8a951" stroke-width="1"/>
    <text x="-7" y="-7" text-anchor="end" style="fill:#e8a951;font:700 6.5px 'JetBrains Mono',monospace">CD</text>
  </g>
  
  <!-- WASp protein (in cytoplasm, between receptor and actin) -->
  <g transform="translate(-15 -8)">
    <ellipse cx="0" cy="0" rx="11" ry="7" fill="rgba(232,169,81,0.85)" stroke="#e8a951" stroke-width="1.4"/>
    <text x="0" y="3" text-anchor="middle" style="fill:#0a0e1a;font:700 7px Inter,sans-serif">WASp</text>
  </g>
  
  <!-- Arp2/3 + actin polymerization (organized branched filaments) -->
  <g stroke="#4fb8a8" stroke-width="1.6" fill="none" stroke-linecap="round">
    <!-- Main filaments branching from WASp -->
    <line x1="-5" y1="-5" x2="20" y2="-25"/>
    <line x1="-3" y1="-3" x2="18" y2="5"/>
    <line x1="0" y1="0" x2="25" y2="20"/>
    <!-- Branches -->
    <line x1="12" y1="-15" x2="22" y2="-10"/>
    <line x1="8" y1="0" x2="14" y2="15"/>
    <line x1="15" y1="10" x2="28" y2="5"/>
    <line x1="20" y1="15" x2="30" y2="25"/>
  </g>
  
  <!-- Nucleus -->
  <ellipse cx="-3" cy="-1" rx="9" ry="7" fill="rgba(74,45,96,0.7)" opacity="0.5"/>
  
  <!-- Functional output indicators (small green checkmarks) -->
  <g transform="translate(35 -25)">
    <text x="0" y="3" text-anchor="middle" style="fill:#6cc27d;font:700 9px Inter,sans-serif">✓</text>
  </g>
  <g transform="translate(35 25)">
    <text x="0" y="3" text-anchor="middle" style="fill:#6cc27d;font:700 9px Inter,sans-serif">✓</text>
  </g>
  
  <text x="0" y="62" text-anchor="middle" style="fill:#4fb8a8;font:600 7px Inter,sans-serif;letter-spacing:1.2px">organized actin · cell function</text>
</g>

<!-- VS divider -->
<text x="250" y="135" text-anchor="middle" style="fill:#d14859;font:700 16px Inter,sans-serif">→</text>

<!-- WAS cell on right -->
<g transform="translate(375 130)">
  <text x="0" y="-78" text-anchor="middle" style="fill:#d14859;font:700 9px Inter,sans-serif;letter-spacing:1.5px">WAS · WASp ABSENT</text>
  
  <!-- Cell membrane -->
  <circle cx="0" cy="0" r="48" fill="rgba(147,112,185,0.18)" stroke="#9370b9" stroke-width="1.6"/>
  
  <!-- Surface receptor still here -->
  <g transform="translate(-40 -22)">
    <rect x="-5" y="-3" width="10" height="14" rx="1" fill="rgba(232,169,81,0.85)" stroke="#e8a951" stroke-width="1"/>
    <text x="-7" y="-7" text-anchor="end" style="fill:#e8a951;font:700 6.5px 'JetBrains Mono',monospace">CD</text>
  </g>
  
  <!-- WASp absent (faded outline + X) -->
  <g transform="translate(-15 -8)">
    <ellipse cx="0" cy="0" rx="11" ry="7" fill="none" stroke="#e8a951" stroke-width="1.2" stroke-dasharray="2 2" opacity="0.5"/>
    <line x1="-8" y1="-5" x2="8" y2="5" stroke="#d14859" stroke-width="2" stroke-linecap="round"/>
    <line x1="-8" y1="5" x2="8" y2="-5" stroke="#d14859" stroke-width="2" stroke-linecap="round"/>
  </g>
  
  <!-- Disorganized actin (random short fragments, not branched) -->
  <g stroke="#6b7689" stroke-width="1.2" fill="none" stroke-linecap="round" opacity="0.65" stroke-dasharray="2 2">
    <line x1="5" y1="-10" x2="10" y2="-15"/>
    <line x1="-5" y1="10" x2="0" y2="15"/>
    <line x1="15" y1="0" x2="20" y2="5"/>
    <line x1="20" y1="-15" x2="25" y2="-12"/>
    <line x1="10" y1="20" x2="15" y2="22"/>
    <line x1="25" y1="10" x2="30" y2="8"/>
  </g>
  
  <!-- Nucleus -->
  <ellipse cx="-3" cy="-1" rx="9" ry="7" fill="rgba(74,45,96,0.7)" opacity="0.5"/>
  
  <!-- Functional failure indicators (X marks) -->
  <g transform="translate(35 -25)">
    <line x1="-4" y1="-4" x2="4" y2="4" stroke="#d14859" stroke-width="2" stroke-linecap="round"/>
    <line x1="-4" y1="4" x2="4" y2="-4" stroke="#d14859" stroke-width="2" stroke-linecap="round"/>
  </g>
  <g transform="translate(35 25)">
    <line x1="-4" y1="-4" x2="4" y2="4" stroke="#d14859" stroke-width="2" stroke-linecap="round"/>
    <line x1="-4" y1="4" x2="4" y2="-4" stroke="#d14859" stroke-width="2" stroke-linecap="round"/>
  </g>
  
  <text x="0" y="62" text-anchor="middle" style="fill:#d14859;font:600 7px Inter,sans-serif;letter-spacing:1.2px">disorganized · function fails</text>
</g>

<!-- Bottom annotation: lineages affected -->
<g transform="translate(250 215)">
  <rect x="-180" y="-13" width="360" height="26" rx="6" fill="rgba(147,112,185,0.30)" stroke="#9370b9" stroke-width="1.6"/>
  <text x="0" y="3" text-anchor="middle" style="fill:#9370b9;font:700 8.5px Inter,sans-serif;letter-spacing:1.5px">X-LINKED · LYMPHOCYTES + MEGAKARYOCYTES + MΦ</text>
</g>

<text x="250" y="245" text-anchor="middle" style="fill:#6b7689;font:italic 7.5px Fraunces,serif">WASp links surface receptors → Arp2/3 → actin polymerization · multiple lineages</text>

                  <!-- FOCUS · audio-aligned attention marker -->
                  <circle cx="110" cy="120" r="20" fill="none" stroke="#d14859" stroke-width="1.8" stroke-dasharray="3 2" opacity="0.85">
                    <animate attributeName="r" values="16;26;16" dur="2.4s" repeatCount="indefinite"/>
                    <animate attributeName="opacity" values="0.85;0.20;0.85" dur="2.4s" repeatCount="indefinite"/>
                  </circle>
</svg>
