<?xml version="1.0" encoding="UTF-8"?>
<!--
  Auto-generated from the reference HTML by
  scripts/storymode-extraction/extract.mjs.
  Do not edit by hand — regenerate the file instead.
-->
<svg xmlns="http://www.w3.org/2000/svg" xmlns:xlink="http://www.w3.org/1999/xlink" viewBox="0 0 500 260" preserveAspectRatio="xMidYMid meet">
<text x="20" y="16" style="fill:#e8a951;font:600 9px Inter,sans-serif;letter-spacing:2px">STEP 02 · SMALL PLATELETS · MICROTHROMBOCYTES</text>

<!-- Normal smear (left) -->
<g transform="translate(125 130)">
  <text x="0" y="-72" text-anchor="middle" style="fill:#6cc27d;font:700 9px Inter,sans-serif;letter-spacing:1.5px">NORMAL SMEAR</text>
  
  <!-- Microscope view circle -->
  <circle cx="0" cy="0" r="62" fill="rgba(255,240,225,0.95)" stroke="#3a4358" stroke-width="2"/>
  
  <!-- RBCs (large pinkish biconcave for scale) -->
  <g fill="rgba(209,72,89,0.45)" stroke="#a53343" stroke-width="0.6">
    <circle cx="-30" cy="-25" r="12"/>
    <circle cx="-30" cy="-25" r="5" fill="rgba(255,240,225,0.95)" stroke="none"/>
    <circle cx="20" cy="-30" r="12"/>
    <circle cx="20" cy="-30" r="5" fill="rgba(255,240,225,0.95)" stroke="none"/>
    <circle cx="-15" cy="0" r="12"/>
    <circle cx="-15" cy="0" r="5" fill="rgba(255,240,225,0.95)" stroke="none"/>
    <circle cx="25" cy="5" r="12"/>
    <circle cx="25" cy="5" r="5" fill="rgba(255,240,225,0.95)" stroke="none"/>
    <circle cx="-25" cy="25" r="12"/>
    <circle cx="-25" cy="25" r="5" fill="rgba(255,240,225,0.95)" stroke="none"/>
    <circle cx="10" cy="30" r="12"/>
    <circle cx="10" cy="30" r="5" fill="rgba(255,240,225,0.95)" stroke="none"/>
  </g>
  
  <!-- Normal-size platelets (medium purple specks) -->
  <g fill="rgba(147,112,185,0.95)" stroke="#9370b9" stroke-width="0.4">
    <ellipse cx="-5" cy="-15" rx="3.5" ry="2.5"/>
    <ellipse cx="5" cy="-12" rx="3" ry="2"/>
    <ellipse cx="40" cy="-10" rx="3.5" ry="2.5"/>
    <ellipse cx="-38" cy="5" rx="3" ry="2.5"/>
    <ellipse cx="0" cy="18" rx="3.5" ry="2.5"/>
    <ellipse cx="35" cy="-2" rx="3" ry="2"/>
  </g>
  
  <!-- Lab values below -->
  <text x="0" y="80" text-anchor="middle" style="fill:#6cc27d;font:700 7px Inter,sans-serif;letter-spacing:1.2px">MPV ~9 fL · count ~250k</text>
</g>

<!-- VS divider -->
<text x="250" y="135" text-anchor="middle" style="fill:#b4becf;font:italic 700 12px Fraunces,serif">vs</text>

<!-- WAS smear (right) -->
<g transform="translate(375 130)">
  <text x="0" y="-72" text-anchor="middle" style="fill:#d14859;font:700 9px Inter,sans-serif;letter-spacing:1.5px">WAS SMEAR</text>
  
  <circle cx="0" cy="0" r="62" fill="rgba(255,240,225,0.95)" stroke="#3a4358" stroke-width="2"/>
  
  <!-- Same RBCs (size reference unchanged) -->
  <g fill="rgba(209,72,89,0.45)" stroke="#a53343" stroke-width="0.6">
    <circle cx="-30" cy="-25" r="12"/>
    <circle cx="-30" cy="-25" r="5" fill="rgba(255,240,225,0.95)" stroke="none"/>
    <circle cx="20" cy="-30" r="12"/>
    <circle cx="20" cy="-30" r="5" fill="rgba(255,240,225,0.95)" stroke="none"/>
    <circle cx="-15" cy="0" r="12"/>
    <circle cx="-15" cy="0" r="5" fill="rgba(255,240,225,0.95)" stroke="none"/>
    <circle cx="25" cy="5" r="12"/>
    <circle cx="25" cy="5" r="5" fill="rgba(255,240,225,0.95)" stroke="none"/>
    <circle cx="-25" cy="25" r="12"/>
    <circle cx="-25" cy="25" r="5" fill="rgba(255,240,225,0.95)" stroke="none"/>
    <circle cx="10" cy="30" r="12"/>
    <circle cx="10" cy="30" r="5" fill="rgba(255,240,225,0.95)" stroke="none"/>
  </g>
  
  <!-- TINY platelets (much smaller specks, FEWER) -->
  <g fill="rgba(147,112,185,0.95)" stroke="#9370b9" stroke-width="0.3">
    <circle cx="-5" cy="-15" r="1.2"/>
    <circle cx="40" cy="-10" r="1.2"/>
    <circle cx="0" cy="20" r="1.2"/>
  </g>
  
  <!-- Annotation arrow pointing to one tiny platelet -->
  <g stroke="#d14859" stroke-width="1" fill="none">
    <line x1="-15" y1="-15" x2="-30" y2="-50"/>
    <text x="-32" y="-55" style="fill:#d14859;font:700 7px Inter,sans-serif">tiny</text>
  </g>
  
  <text x="0" y="80" text-anchor="middle" style="fill:#d14859;font:700 7px Inter,sans-serif;letter-spacing:1.2px">↓ MPV · ↓ count · MICRO</text>
</g>

<text x="250" y="245" text-anchor="middle" style="fill:#6b7689;font:italic 7.5px Fraunces,serif">Microthrombocytes pathognomonic for WAS · few AND small platelets vs same RBC reference</text>

                  <!-- FOCUS · audio-aligned attention marker -->
                  <circle cx="125" cy="205" r="34" fill="none" stroke="#d14859" stroke-width="1.8" stroke-dasharray="3 2" opacity="0.85">
                    <animate attributeName="r" values="30;40;30" dur="2.4s" repeatCount="indefinite"/>
                    <animate attributeName="opacity" values="0.85;0.20;0.85" dur="2.4s" repeatCount="indefinite"/>
                  </circle>

                  <!-- FOCUS · audio-aligned attention marker -->
                  <circle cx="375" cy="205" r="34" fill="none" stroke="#d14859" stroke-width="1.8" stroke-dasharray="3 2" opacity="0.85">
                    <animate attributeName="r" values="30;40;30" dur="2.4s" repeatCount="indefinite"/>
                    <animate attributeName="opacity" values="0.85;0.20;0.85" dur="2.4s" repeatCount="indefinite"/>
                  </circle>
</svg>
