<?xml version="1.0" encoding="UTF-8"?>
<!--
  Auto-generated from the reference HTML by
  scripts/storymode-extraction/extract.mjs.
  Do not edit by hand — regenerate the file instead.
-->
<svg xmlns="http://www.w3.org/2000/svg" xmlns:xlink="http://www.w3.org/1999/xlink" viewBox="0 0 500 260" preserveAspectRatio="xMidYMid meet">
<text x="20" y="16" style="fill:#e8a951;font:600 9px Inter,sans-serif;letter-spacing:2px">STEP 02 · anti-dsDNA TITER ↑ DURING FLARE · ↓ WITH Rx</text><g>
    <rect x="20" y="30" width="210" height="14" rx="7" fill="rgba(232, 169, 81, 0.18)" stroke="#e8a951" stroke-width="1"/>
    <text x="125" y="40" text-anchor="middle" style="fill:#e8a951;font:700 7.5px Inter,sans-serif;letter-spacing:1.2px">DYNAMIC vs STATIC ACTIVITY MARKERS</text>
  </g><g opacity="1">
    <text x="95" y="62" text-anchor="middle" style="fill:#b4becf;font:600 7px 'JetBrains Mono',monospace;letter-spacing:1.5px">SLE FLARE</text>
    <!-- face -->
    <g transform="translate(95 100)">
      <circle cx="0" cy="0" r="22" fill="#b4becf" fill-opacity="0.08" stroke="#b4becf" stroke-width="1.3" opacity="0.55"/>
      <!-- eyes -->
      <circle cx="-7" cy="-3" r="1.5" fill="#b4becf" opacity="0.7"/>
      <circle cx="7" cy="-3" r="1.5" fill="#b4becf" opacity="0.7"/>
      <!-- nose -->
      <line x1="0" y1="-1" x2="0" y2="5" stroke="#b4becf" stroke-width="0.8" opacity="0.55"/>
      <!-- mouth -->
      <path d="M -5 10 Q 0 12 5 10" stroke="#b4becf" stroke-width="0.9" opacity="0.6" fill="none"/>
    </g><g transform="translate(95 100)">
      <!-- left cheek -->
      <ellipse cx="-12" cy="3" rx="6" ry="4" fill="#d14859" opacity="0.55"/>
      <!-- right cheek -->
      <ellipse cx="12" cy="3" rx="6" ry="4" fill="#d14859" opacity="0.55"/>
      <!-- bridge of nose -->
      <ellipse cx="0" cy="3" rx="3.5" ry="2" fill="#d14859" opacity="0.5"/>
    </g><text x="95" y="135" text-anchor="middle" style="fill:#d14859;font:700 7.5px Inter,sans-serif;letter-spacing:0.8px">MALAR RASH</text><g transform="translate(95 150)">
      <rect x="-50" y="-7" width="100" height="13" rx="6" fill="rgba(209, 72, 89, 0.15)" stroke="#d14859" stroke-width="0.8"/>
      <text x="0" y="3" text-anchor="middle" style="fill:#d14859;font:700 7px Inter,sans-serif;letter-spacing:0.5px">+ PROTEINURIA</text>
    </g><g transform="translate(95 166)">
      <rect x="-50" y="-7" width="100" height="13" rx="6" fill="rgba(209, 72, 89, 0.15)" stroke="#d14859" stroke-width="0.8"/>
      <text x="0" y="3" text-anchor="middle" style="fill:#d14859;font:700 7px Inter,sans-serif;letter-spacing:0.5px">↓ C3 · C4</text>
    </g></g><g opacity="1">
    <!-- frame -->
    <line x1="200" y1="175" x2="475" y2="175" stroke="#3a4358" stroke-width="1"/>
    <line x1="200" y1="70" x2="200" y2="175" stroke="#3a4358" stroke-width="1"/>
    <!-- y axis labels -->
    <text x="195" y="174" text-anchor="end" style="fill:#6b7689;font:6.5px 'JetBrains Mono',monospace">LOW</text>
    <text x="195" y="76" text-anchor="end" style="fill:#6b7689;font:6.5px 'JetBrains Mono',monospace">HIGH</text>
    <text x="186" y="125" text-anchor="middle" transform="rotate(-90 186 125)" style="fill:#b4becf;font:600 7.5px Inter,sans-serif;letter-spacing:1.2px">TITER →</text>
    <!-- x axis labels -->
    <g style="font:6.5px 'JetBrains Mono',monospace;letter-spacing:0.8px;fill:#6b7689" text-anchor="middle">
      <text x="230" y="184">BASELINE</text>
      <text x="295" y="184">FLARE</text>
      <text x="365" y="184">+ Rx</text>
      <text x="445" y="184">RESOLVE</text>
    </g>
    <!-- vertical guide at flare (around x=295) -->
    <line x1="295" y1="70" x2="295" y2="175" stroke="#d14859" stroke-width="0.5" opacity="0.3" stroke-dasharray="2 2"/>
    <text x="295" y="65" text-anchor="middle" style="fill:#d14859;font:600 6.5px 'JetBrains Mono',monospace;letter-spacing:0.8px">FLARE PEAK</text>
  </g><g><path d="M 215 95 L 280 95 L 295 96 L 360 95 L 460 95" stroke="#6b7689" stroke-width="1.5" fill="none" opacity="0.25" /><circle cx="460" cy="95" r="2.5" fill="#6b7689" opacity="0.25"/><text x="240" y="90" style="fill:#6b7689;font:600 7.5px Inter,sans-serif;opacity:0.4">ANA</text></g><g><path d="M 215 115 L 280 116 L 295 117 L 360 115 L 460 115" stroke="#6b7689" stroke-width="1.5" fill="none" opacity="0.25" /><circle cx="460" cy="115" r="2.5" fill="#6b7689" opacity="0.25"/><text x="245" y="110" style="fill:#6b7689;font:600 7.5px Inter,sans-serif;opacity:0.4">anti-Sm</text></g><g><path d="M 215 85 Q 250 88 280 130 L 295 145 Q 325 130 360 105 Q 410 88 460 85" stroke="#6b7689" stroke-width="1.5" fill="none" opacity="0.25" /><circle cx="460" cy="85" r="2.5" fill="#6b7689" opacity="0.25"/><text x="425" y="78" style="fill:#6b7689;font:600 7.5px Inter,sans-serif;opacity:0.4">C3 · C4</text></g><g><path d="M 215 140 Q 250 138 280 95 L 295 85 Q 325 95 360 120 Q 410 138 460 145" stroke="#d14859" stroke-width="2.6" fill="none" opacity="0.85" /><circle cx="460" cy="145" r="3.5" fill="#d14859" opacity="0.85"/><circle cx="460" cy="145" r="6" fill="#d14859" opacity="0.25"/><text x="415" y="132" style="fill:#d14859;font:700 7.5px Inter,sans-serif;opacity:1">anti-dsDNA</text></g>

                  <!-- FOCUS · audio-aligned attention marker -->
                  <circle cx="95" cy="164" r="20" fill="none" stroke="#d14859" stroke-width="1.8" stroke-dasharray="3 2" opacity="0.85">
                    <animate attributeName="r" values="16;26;16" dur="2.4s" repeatCount="indefinite"/>
                    <animate attributeName="opacity" values="0.85;0.20;0.85" dur="2.4s" repeatCount="indefinite"/>
                  </circle>

                  <!-- FOCUS · audio-aligned attention marker -->
                  <circle cx="425" cy="73" r="20" fill="none" stroke="#d14859" stroke-width="1.8" stroke-dasharray="3 2" opacity="0.85">
                    <animate attributeName="r" values="16;26;16" dur="2.4s" repeatCount="indefinite"/>
                    <animate attributeName="opacity" values="0.85;0.20;0.85" dur="2.4s" repeatCount="indefinite"/>
                  </circle>
</svg>
