<?xml version="1.0" encoding="UTF-8"?>
<!--
  Auto-generated from the reference HTML by
  scripts/storymode-extraction/extract.mjs.
  Do not edit by hand — regenerate the file instead.
-->
<svg xmlns="http://www.w3.org/2000/svg" xmlns:xlink="http://www.w3.org/1999/xlink" viewBox="0 0 500 260" preserveAspectRatio="xMidYMid meet">
<text x="20" y="16" style="fill:#e8a951;font:600 9px Inter,sans-serif;letter-spacing:2px">STEP 01 · 14-MO BOY · TIE TRIAD</text>

<!-- Boy figure with all three findings shown anatomically -->
<g transform="translate(135 145)">
  <text x="0" y="-100" text-anchor="middle" style="fill:#9370b9;font:700 9px Inter,sans-serif;letter-spacing:1.5px">14-MO BOY</text>
  
  <!-- Head with eczema patches on cheeks -->
  <circle cx="0" cy="-72" r="20" fill="rgba(180,190,207,0.55)" stroke="#b4becf" stroke-width="1.4"/>
  <!-- Eczema on cheeks (red flaky patches) -->
  <g fill="rgba(79,184,168,0.65)" stroke="#4fb8a8" stroke-width="0.6">
    <ellipse cx="-12" cy="-68" rx="6" ry="4"/>
    <ellipse cx="12" cy="-68" rx="6" ry="4"/>
  </g>
  <!-- Tiny scaly texture -->
  <g fill="#4fb8a8" opacity="0.85">
    <circle cx="-13" cy="-69" r="0.8"/>
    <circle cx="-10" cy="-67" r="0.8"/>
    <circle cx="-14" cy="-66" r="0.8"/>
    <circle cx="11" cy="-69" r="0.8"/>
    <circle cx="14" cy="-67" r="0.8"/>
    <circle cx="10" cy="-66" r="0.8"/>
  </g>
  
  <!-- Body with petechiae -->
  <path d="M -28 -50 Q -32 -38 -32 -25 L -32 60 L 32 60 L 32 -25 Q 32 -38 28 -50 Z" 
        fill="rgba(180,190,207,0.20)" stroke="#b4becf" stroke-width="1.4"/>
  
  <!-- Petechiae scattered on body (key finding) -->
  <g fill="rgba(209,72,89,0.95)">
    <circle cx="-14" cy="-30" r="1.5"/>
    <circle cx="-8" cy="-22" r="1.5"/>
    <circle cx="6" cy="-26" r="1.5"/>
    <circle cx="14" cy="-18" r="1.5"/>
    <circle cx="-20" cy="-10" r="1.5"/>
    <circle cx="-4" cy="-5" r="1.5"/>
    <circle cx="10" cy="-2" r="1.5"/>
    <circle cx="20" cy="6" r="1.5"/>
    <circle cx="-15" cy="14" r="1.5"/>
    <circle cx="2" cy="20" r="1.5"/>
    <circle cx="16" cy="22" r="1.5"/>
    <circle cx="-10" cy="32" r="1.5"/>
    <circle cx="8" cy="40" r="1.5"/>
    <circle cx="-22" cy="42" r="1.5"/>
    <circle cx="22" cy="48" r="1.5"/>
  </g>
  
  <!-- Bruise (purplish patch) -->
  <ellipse cx="-15" cy="50" rx="8" ry="4" fill="rgba(147,112,185,0.65)" stroke="#9370b9" stroke-width="0.8"/>
  
  <!-- Ear (otitis indicator) -->
  <g transform="translate(-20 -72)">
    <ellipse rx="3" ry="6" fill="rgba(180,190,207,0.85)" stroke="#b4becf" stroke-width="0.8"/>
    <!-- Red glow indicating infection -->
    <circle cx="-2" cy="0" r="3" fill="rgba(209,72,89,0.30)" stroke="#d14859" stroke-width="0.6"/>
  </g>
</g>

<!-- Three TIE findings on right -->
<g transform="translate(370 80)">
  <rect x="-105" y="-15" width="210" height="30" rx="6" fill="rgba(209,72,89,0.20)" stroke="#d14859" stroke-width="1.4"/>
  <!-- T = colored letter -->
  <circle cx="-90" cy="0" r="11" fill="rgba(209,72,89,0.85)"/>
  <text x="-90" y="3" text-anchor="middle" style="fill:#0a0e1a;font:700 11px Inter,sans-serif">T</text>
  <text x="10" y="-2" text-anchor="middle" style="fill:#d14859;font:700 9px Inter,sans-serif;letter-spacing:1.2px">THROMBOCYTOPENIA</text>
  <text x="10" y="10" text-anchor="middle" style="fill:#b4becf;font:6.5px Inter,sans-serif">platelets 35k · petechiae · bruising</text>
  <line x1="-105" y1="0" x2="-180" y2="40" stroke="#d14859" stroke-width="1" stroke-dasharray="2 2" opacity="0.5"/>
</g>

<g transform="translate(370 130)">
  <rect x="-105" y="-15" width="210" height="30" rx="6" fill="rgba(147,112,185,0.25)" stroke="#9370b9" stroke-width="1.4"/>
  <circle cx="-90" cy="0" r="11" fill="rgba(147,112,185,0.85)"/>
  <text x="-90" y="3" text-anchor="middle" style="fill:#0a0e1a;font:700 11px Inter,sans-serif">I</text>
  <text x="10" y="-2" text-anchor="middle" style="fill:#9370b9;font:700 9px Inter,sans-serif;letter-spacing:1.2px">INFECTIONS · RECURRENT</text>
  <text x="10" y="10" text-anchor="middle" style="fill:#b4becf;font:6.5px Inter,sans-serif">otitis · sinopulmonary</text>
  <line x1="-105" y1="0" x2="-185" y2="-45" stroke="#9370b9" stroke-width="1" stroke-dasharray="2 2" opacity="0.5"/>
</g>

<g transform="translate(370 180)">
  <rect x="-105" y="-15" width="210" height="30" rx="6" fill="rgba(79,184,168,0.25)" stroke="#4fb8a8" stroke-width="1.4"/>
  <circle cx="-90" cy="0" r="11" fill="rgba(79,184,168,0.85)"/>
  <text x="-90" y="3" text-anchor="middle" style="fill:#0a0e1a;font:700 11px Inter,sans-serif">E</text>
  <text x="10" y="-2" text-anchor="middle" style="fill:#4fb8a8;font:700 9px Inter,sans-serif;letter-spacing:1.2px">ECZEMA · ATOPIC</text>
  <text x="10" y="10" text-anchor="middle" style="fill:#b4becf;font:6.5px Inter,sans-serif">since infancy · flexural</text>
  <line x1="-105" y1="0" x2="-180" y2="-50" stroke="#4fb8a8" stroke-width="1" stroke-dasharray="2 2" opacity="0.5"/>
</g>

<text x="250" y="245" text-anchor="middle" style="fill:#6b7689;font:italic 7.5px Fraunces,serif">TIE triad in a young boy + maternal uncle affected = WAS until proven otherwise</text>

                  <!-- FOCUS · audio-aligned attention marker -->
                  <circle cx="380" cy="73" r="24" fill="none" stroke="#d14859" stroke-width="1.8" stroke-dasharray="3 2" opacity="0.85">
                    <animate attributeName="r" values="20;30;20" dur="2.4s" repeatCount="indefinite"/>
                    <animate attributeName="opacity" values="0.85;0.20;0.85" dur="2.4s" repeatCount="indefinite"/>
                  </circle>

                  <!-- FOCUS · audio-aligned attention marker -->
                  <circle cx="380" cy="123" r="33" fill="none" stroke="#d14859" stroke-width="1.8" stroke-dasharray="3 2" opacity="0.85">
                    <animate attributeName="r" values="29;39;29" dur="2.4s" repeatCount="indefinite"/>
                    <animate attributeName="opacity" values="0.85;0.20;0.85" dur="2.4s" repeatCount="indefinite"/>
                  </circle>
</svg>
