<?xml version="1.0" encoding="UTF-8"?>
<!--
  Auto-generated from the reference HTML by
  scripts/storymode-extraction/extract.mjs.
  Do not edit by hand — regenerate the file instead.
-->
<svg xmlns="http://www.w3.org/2000/svg" xmlns:xlink="http://www.w3.org/1999/xlink" viewBox="0 0 500 260" preserveAspectRatio="xMidYMid meet">
                  <text x="20" y="22" style="fill:#e8a951;font:600 10px Inter,sans-serif;letter-spacing:2px">STEP 08 · INFLUENZA · ANTI-HA NEUTRALIZES</text>

                  <!-- Influenza virus with HA spikes labeled -->
                  <g transform="translate(180 140)">
                    <text x="0" y="-65" text-anchor="middle" style="fill:#d14859;font:700 9px Inter,sans-serif;letter-spacing:1.5px">INFLUENZA</text>
                    <!-- bigger virus with HA spikes prominent -->
                    <circle cx="0" cy="0" r="32" fill="#d14859" fill-opacity="0.65" stroke="#d14859" stroke-width="1.5"></circle>
                    <!-- HA spikes (taller than typical) -->
                    <g stroke="#e8a951" stroke-width="2.4" fill="none" stroke-linecap="round">
                      <g transform="rotate(0)"><line x1="0" y1="-32" x2="0" y2="-48"></line><circle cx="0" cy="-48" r="3" fill="#e8a951"></circle></g>
                      <g transform="rotate(45)"><line x1="0" y1="-32" x2="0" y2="-48"></line><circle cx="0" cy="-48" r="3" fill="#e8a951"></circle></g>
                      <g transform="rotate(90)"><line x1="0" y1="-32" x2="0" y2="-48"></line><circle cx="0" cy="-48" r="3" fill="#e8a951"></circle></g>
                      <g transform="rotate(135)"><line x1="0" y1="-32" x2="0" y2="-48"></line><circle cx="0" cy="-48" r="3" fill="#e8a951"></circle></g>
                      <g transform="rotate(180)"><line x1="0" y1="-32" x2="0" y2="-48"></line><circle cx="0" cy="-48" r="3" fill="#e8a951"></circle></g>
                      <g transform="rotate(225)"><line x1="0" y1="-32" x2="0" y2="-48"></line><circle cx="0" cy="-48" r="3" fill="#e8a951"></circle></g>
                      <g transform="rotate(270)"><line x1="0" y1="-32" x2="0" y2="-48"></line><circle cx="0" cy="-48" r="3" fill="#e8a951"></circle></g>
                      <g transform="rotate(315)"><line x1="0" y1="-32" x2="0" y2="-48"></line><circle cx="0" cy="-48" r="3" fill="#e8a951"></circle></g>
                    </g>
                    <text x="0" y="65" text-anchor="middle" style="fill:#e8a951;font:600 8px Inter,sans-serif;letter-spacing:1.5px">HA = HEMAGGLUTININ</text>
                  </g>

                  <!-- arrow + anti-HA antibody -->
                  <path d="M 245 145 L 295 145" stroke="#e8a951" stroke-width="1.6" fill="none"></path>
                  <polygon points="295,145 288,141 288,149" fill="#e8a951"></polygon>
                  <text x="270" y="135" text-anchor="middle" style="fill:#e8a951;font:600 7px Inter,sans-serif;letter-spacing:1.2px">BLOCKED BY</text>

                  <!-- anti-HA antibodies -->
                  <g transform="translate(390 145)">
                    <text x="0" y="-65" text-anchor="middle" style="fill:#e8a951;font:700 9px Inter,sans-serif;letter-spacing:1.5px">ANTI-HA Ab</text>
                    <g transform="translate(0 0)" opacity="1"><g stroke="#e8a951" stroke-width="3" fill="none" stroke-linecap="round"><path d="M -16 -10 L -7 -2 L 7 -2 L 16 -10"></path><line x1="0" y1="-2" x2="0" y2="14"></line></g><circle cx="-16" cy="-10" r="3" fill="#d14859"></circle><circle cx="16" cy="-10" r="3" fill="#d14859"></circle></g>
                    <g transform="translate(-25 -8)" opacity="1"><g stroke="#e8a951" stroke-width="3" fill="none" stroke-linecap="round"><path d="M -16 -10 L -7 -2 L 7 -2 L 16 -10"></path><line x1="0" y1="-2" x2="0" y2="14"></line></g><circle cx="-16" cy="-10" r="3" fill="#d14859"></circle><circle cx="16" cy="-10" r="3" fill="#d14859"></circle></g>
                    <g transform="translate(25 -8)" opacity="1"><g stroke="#e8a951" stroke-width="3" fill="none" stroke-linecap="round"><path d="M -16 -10 L -7 -2 L 7 -2 L 16 -10"></path><line x1="0" y1="-2" x2="0" y2="14"></line></g><circle cx="-16" cy="-10" r="3" fill="#d14859"></circle><circle cx="16" cy="-10" r="3" fill="#d14859"></circle></g>
                    <text x="0" y="35" text-anchor="middle" style="fill:#b4becf;font:italic 7px Fraunces,serif">covers HA spike</text>
                    <text x="0" y="45" text-anchor="middle" style="fill:#b4becf;font:italic 7px Fraunces,serif">prevents binding to sialic acid</text>
                  </g>

                  <text x="250" y="252" text-anchor="middle" style="fill:#b4becf;font:italic 10px Fraunces,serif">flu vaccine teaches B cells to make anti-HA · the protective antibody for influenza</text>

                  <!-- FOCUS · audio-aligned attention marker -->
                  <circle cx="180" cy="70" r="20" fill="none" stroke="#d14859" stroke-width="1.8" stroke-dasharray="3 2" opacity="0.85">
                    <animate attributeName="r" values="16;26;16" dur="2.4s" repeatCount="indefinite"/>
                    <animate attributeName="opacity" values="0.85;0.20;0.85" dur="2.4s" repeatCount="indefinite"/>
                  </circle>

                  <!-- FOCUS · audio-aligned attention marker -->
                  <circle cx="180" cy="200" r="27" fill="none" stroke="#d14859" stroke-width="1.8" stroke-dasharray="3 2" opacity="0.85">
                    <animate attributeName="r" values="23;33;23" dur="2.4s" repeatCount="indefinite"/>
                    <animate attributeName="opacity" values="0.85;0.20;0.85" dur="2.4s" repeatCount="indefinite"/>
                  </circle>

                  <!-- FOCUS · audio-aligned attention marker -->
                  <circle cx="390" cy="185" r="40" fill="none" stroke="#d14859" stroke-width="1.8" stroke-dasharray="3 2" opacity="0.85">
                    <animate attributeName="r" values="36;46;36" dur="2.4s" repeatCount="indefinite"/>
                    <animate attributeName="opacity" values="0.85;0.20;0.85" dur="2.4s" repeatCount="indefinite"/>
                  </circle>
</svg>
