<?xml version="1.0" encoding="UTF-8"?>
<!--
  Auto-generated from the reference HTML by
  scripts/storymode-extraction/extract.mjs.
  Do not edit by hand — regenerate the file instead.
-->
<svg xmlns="http://www.w3.org/2000/svg" xmlns:xlink="http://www.w3.org/1999/xlink" viewBox="0 0 500 260" preserveAspectRatio="xMidYMid meet">
<text x="20" y="16" style="fill:#e8a951;font:600 9px Inter,sans-serif;letter-spacing:2px">STEP 03 · 5 VACCINES · ONLY ONE IS LIVE</text>

<!-- Helper: each vial has a vial body + cap + content illustrating its platform -->

<!-- A: HepB subunit -->
<g transform="translate(70 140)">
  <text x="0" y="-65" text-anchor="middle" style="fill:#4fb8a8;font:700 9px Inter,sans-serif;letter-spacing:1.5px">A · HepB</text>
  <!-- Vial cap -->
  <rect x="-12" y="-50" width="24" height="8" rx="2" fill="#3a4358" stroke="#3a4358"/>
  <rect x="-9" y="-44" width="18" height="4" fill="#6b7689"/>
  <!-- Vial body -->
  <path d="M -14 -40 L -14 30 Q -14 36 -8 36 L 8 36 Q 14 36 14 30 L 14 -40 Z" fill="rgba(79,184,168,0.20)" stroke="#4fb8a8" stroke-width="1.4"/>
  <!-- Content: protein subunit (S antigens floating) -->
  <g fill="#4fb8a8" fill-opacity="0.85">
    <ellipse cx="-5" cy="-20" rx="4" ry="3"/>
    <ellipse cx="5" cy="-10" rx="4" ry="3"/>
    <ellipse cx="-4" cy="0" rx="4" ry="3"/>
    <ellipse cx="6" cy="12" rx="4" ry="3"/>
    <ellipse cx="-3" cy="22" rx="4" ry="3"/>
  </g>
  <text x="0" y="55" text-anchor="middle" style="fill:#4fb8a8;font:700 7.5px Inter,sans-serif;letter-spacing:1.2px">SUBUNIT</text>
  <text x="0" y="68" text-anchor="middle" style="fill:#b4becf;font:6.5px Inter,sans-serif">HBsAg only</text>
</g>

<!-- B: IPV inactivated -->
<g transform="translate(160 140)">
  <text x="0" y="-65" text-anchor="middle" style="fill:#6b7689;font:700 9px Inter,sans-serif;letter-spacing:1.5px">B · IPV</text>
  <rect x="-12" y="-50" width="24" height="8" rx="2" fill="#3a4358"/>
  <rect x="-9" y="-44" width="18" height="4" fill="#6b7689"/>
  <path d="M -14 -40 L -14 30 Q -14 36 -8 36 L 8 36 Q 14 36 14 30 L 14 -40 Z" fill="rgba(107,118,137,0.20)" stroke="#6b7689" stroke-width="1.4"/>
  <!-- Content: dead viruses (gray, with X marks) -->
  <g>
    <g transform="translate(-4 -15)">
      <circle r="5" fill="rgba(107,118,137,0.65)" stroke="#6b7689" stroke-width="1"/>
      <line x1="-3" y1="-3" x2="3" y2="3" stroke="#6b7689" stroke-width="0.8"/>
      <line x1="-3" y1="3" x2="3" y2="-3" stroke="#6b7689" stroke-width="0.8"/>
    </g>
    <g transform="translate(4 0)">
      <circle r="5" fill="rgba(107,118,137,0.65)" stroke="#6b7689" stroke-width="1"/>
      <line x1="-3" y1="-3" x2="3" y2="3" stroke="#6b7689" stroke-width="0.8"/>
      <line x1="-3" y1="3" x2="3" y2="-3" stroke="#6b7689" stroke-width="0.8"/>
    </g>
    <g transform="translate(-4 18)">
      <circle r="5" fill="rgba(107,118,137,0.65)" stroke="#6b7689" stroke-width="1"/>
      <line x1="-3" y1="-3" x2="3" y2="3" stroke="#6b7689" stroke-width="0.8"/>
      <line x1="-3" y1="3" x2="3" y2="-3" stroke="#6b7689" stroke-width="0.8"/>
    </g>
  </g>
  <text x="0" y="55" text-anchor="middle" style="fill:#6b7689;font:700 7.5px Inter,sans-serif;letter-spacing:1.2px">INACTIVATED</text>
  <text x="0" y="68" text-anchor="middle" style="fill:#b4becf;font:6.5px Inter,sans-serif">killed virus</text>
</g>

<!-- C: DTaP toxoid -->
<g transform="translate(250 140)">
  <text x="0" y="-65" text-anchor="middle" style="fill:#9370b9;font:700 9px Inter,sans-serif;letter-spacing:1.5px">C · DTaP</text>
  <rect x="-12" y="-50" width="24" height="8" rx="2" fill="#3a4358"/>
  <rect x="-9" y="-44" width="18" height="4" fill="#6b7689"/>
  <path d="M -14 -40 L -14 30 Q -14 36 -8 36 L 8 36 Q 14 36 14 30 L 14 -40 Z" fill="rgba(147,112,185,0.20)" stroke="#9370b9" stroke-width="1.4"/>
  <!-- Content: toxin shapes (A-B) -->
  <g>
    <g transform="translate(0 -18)">
      <circle r="4" fill="rgba(147,112,185,0.85)" stroke="#9370b9"/>
      <ellipse cx="0" cy="6" rx="6" ry="3" fill="rgba(147,112,185,0.85)" stroke="#9370b9"/>
    </g>
    <g transform="translate(0 0)">
      <circle r="4" fill="rgba(147,112,185,0.85)" stroke="#9370b9"/>
      <ellipse cx="0" cy="6" rx="6" ry="3" fill="rgba(147,112,185,0.85)" stroke="#9370b9"/>
    </g>
    <g transform="translate(0 18)">
      <circle r="4" fill="rgba(147,112,185,0.85)" stroke="#9370b9"/>
      <ellipse cx="0" cy="6" rx="6" ry="3" fill="rgba(147,112,185,0.85)" stroke="#9370b9"/>
    </g>
  </g>
  <text x="0" y="55" text-anchor="middle" style="fill:#9370b9;font:700 7.5px Inter,sans-serif;letter-spacing:1.2px">TOXOID</text>
  <text x="0" y="68" text-anchor="middle" style="fill:#b4becf;font:6.5px Inter,sans-serif">inactive toxin</text>
</g>

<!-- D: ROTAVIRUS LIVE - HIGHLIGHTED with glow + warning -->
<g transform="translate(345 140)">
  <text x="0" y="-65" text-anchor="middle" style="fill:#d14859;font:700 10px Inter,sans-serif;letter-spacing:1.5px">D · ROTAVIRUS</text>
  <!-- Glow background -->
  <rect x="-22" y="-58" width="44" height="100" rx="8" fill="rgba(209,72,89,0.18)" stroke="#d14859" stroke-width="2.4"/>
  <!-- Vial -->
  <rect x="-12" y="-50" width="24" height="8" rx="2" fill="#3a4358"/>
  <rect x="-9" y="-44" width="18" height="4" fill="#6b7689"/>
  <path d="M -14 -40 L -14 30 Q -14 36 -8 36 L 8 36 Q 14 36 14 30 L 14 -40 Z" fill="rgba(209,72,89,0.30)" stroke="#d14859" stroke-width="1.6"/>
  <!-- Content: LIVE viruses with motion lines -->
  <g fill="rgba(209,72,89,0.95)" stroke="#d14859" stroke-width="1">
    <g transform="translate(-4 -18)">
      <circle r="4.5"/>
      <line x1="0" y1="-4.5" x2="0" y2="-7" stroke-width="0.9"/>
      <line x1="4.5" y1="0" x2="7" y2="0" stroke-width="0.9"/>
      <line x1="0" y1="4.5" x2="0" y2="7" stroke-width="0.9"/>
      <line x1="-4.5" y1="0" x2="-7" y2="0" stroke-width="0.9"/>
    </g>
    <g transform="translate(4 -2)">
      <circle r="4.5"/>
      <line x1="0" y1="-4.5" x2="0" y2="-7" stroke-width="0.9"/>
      <line x1="4.5" y1="0" x2="7" y2="0" stroke-width="0.9"/>
      <line x1="0" y1="4.5" x2="0" y2="7" stroke-width="0.9"/>
      <line x1="-4.5" y1="0" x2="-7" y2="0" stroke-width="0.9"/>
    </g>
    <g transform="translate(-3 14)">
      <circle r="4.5"/>
      <line x1="0" y1="-4.5" x2="0" y2="-7" stroke-width="0.9"/>
      <line x1="4.5" y1="0" x2="7" y2="0" stroke-width="0.9"/>
      <line x1="0" y1="4.5" x2="0" y2="7" stroke-width="0.9"/>
      <line x1="-4.5" y1="0" x2="-7" y2="0" stroke-width="0.9"/>
    </g>
    <g transform="translate(5 28)">
      <circle r="4.5"/>
      <line x1="0" y1="-4.5" x2="0" y2="-7" stroke-width="0.9"/>
      <line x1="4.5" y1="0" x2="7" y2="0" stroke-width="0.9"/>
      <line x1="0" y1="4.5" x2="0" y2="7" stroke-width="0.9"/>
      <line x1="-4.5" y1="0" x2="-7" y2="0" stroke-width="0.9"/>
    </g>
  </g>
  <text x="0" y="55" text-anchor="middle" style="fill:#d14859;font:700 8px Inter,sans-serif;letter-spacing:1.2px">LIVE ATTEN</text>
  <!-- Warning triangle -->
  <g transform="translate(0 75)">
    <path d="M 0 -7 L 8 6 L -8 6 Z" fill="#d14859" stroke="#0a0e1a" stroke-width="1.4"/>
    <text x="0" y="4" text-anchor="middle" style="fill:#0a0e1a;font:700 9px Inter,sans-serif">!</text>
  </g>
</g>

<!-- E: Hib conjugate -->
<g transform="translate(440 140)">
  <text x="0" y="-65" text-anchor="middle" style="fill:#e8a951;font:700 9px Inter,sans-serif;letter-spacing:1.5px">E · Hib</text>
  <rect x="-12" y="-50" width="24" height="8" rx="2" fill="#3a4358"/>
  <rect x="-9" y="-44" width="18" height="4" fill="#6b7689"/>
  <path d="M -14 -40 L -14 30 Q -14 36 -8 36 L 8 36 Q 14 36 14 30 L 14 -40 Z" fill="rgba(232,169,81,0.20)" stroke="#e8a951" stroke-width="1.4"/>
  <!-- Content: conjugate (carrier protein + sugar chain) -->
  <g>
    <g transform="translate(0 -15)">
      <ellipse cx="0" cy="0" rx="6" ry="3" fill="rgba(147,112,185,0.85)"/>
      <line x1="0" y1="-3" x2="0" y2="-7" stroke="#4fb8a8" stroke-width="1"/>
      <circle cx="-3" cy="-9" r="1.5" fill="#4fb8a8"/>
      <circle cx="0" cy="-11" r="1.5" fill="#4fb8a8"/>
      <circle cx="3" cy="-9" r="1.5" fill="#4fb8a8"/>
    </g>
    <g transform="translate(0 8)">
      <ellipse cx="0" cy="0" rx="6" ry="3" fill="rgba(147,112,185,0.85)"/>
      <line x1="0" y1="-3" x2="0" y2="-7" stroke="#4fb8a8" stroke-width="1"/>
      <circle cx="-3" cy="-9" r="1.5" fill="#4fb8a8"/>
      <circle cx="0" cy="-11" r="1.5" fill="#4fb8a8"/>
      <circle cx="3" cy="-9" r="1.5" fill="#4fb8a8"/>
    </g>
  </g>
  <text x="0" y="55" text-anchor="middle" style="fill:#e8a951;font:700 7.5px Inter,sans-serif;letter-spacing:1.2px">CONJUGATE</text>
  <text x="0" y="68" text-anchor="middle" style="fill:#b4becf;font:6.5px Inter,sans-serif">PRP-protein</text>
</g>

<text x="250" y="240" text-anchor="middle" style="fill:#6b7689;font:italic 7.5px Fraunces,serif">Vials look the same · platforms differ · only D replicates</text>

                  <!-- FOCUS · audio-aligned attention marker -->
                  <circle cx="345" cy="70" r="20" fill="none" stroke="#d14859" stroke-width="1.8" stroke-dasharray="3 2" opacity="0.85">
                    <animate attributeName="r" values="16;26;16" dur="2.4s" repeatCount="indefinite"/>
                    <animate attributeName="opacity" values="0.85;0.20;0.85" dur="2.4s" repeatCount="indefinite"/>
                  </circle>

                  <!-- FOCUS · audio-aligned attention marker -->
                  <circle cx="0" cy="50" r="20" fill="none" stroke="#d14859" stroke-width="1.8" stroke-dasharray="3 2" opacity="0.85">
                    <animate attributeName="r" values="16;26;16" dur="2.4s" repeatCount="indefinite"/>
                    <animate attributeName="opacity" values="0.85;0.20;0.85" dur="2.4s" repeatCount="indefinite"/>
                  </circle>

                  <!-- FOCUS · audio-aligned attention marker -->
                  <circle cx="345" cy="190" r="20" fill="none" stroke="#d14859" stroke-width="1.8" stroke-dasharray="3 2" opacity="0.85">
                    <animate attributeName="r" values="16;26;16" dur="2.4s" repeatCount="indefinite"/>
                    <animate attributeName="opacity" values="0.85;0.20;0.85" dur="2.4s" repeatCount="indefinite"/>
                  </circle>
              </svg>
