<?xml version="1.0" encoding="UTF-8"?>
<!--
  Auto-generated from the reference HTML by
  scripts/storymode-extraction/extract.mjs.
  Do not edit by hand — regenerate the file instead.
-->
<svg xmlns="http://www.w3.org/2000/svg" xmlns:xlink="http://www.w3.org/1999/xlink" viewBox="0 0 500 260" preserveAspectRatio="xMidYMid meet">
                  <text x="20" y="22" style="fill:#e8a951;font:600 10px Inter,sans-serif;letter-spacing:2px">STEP 12 · APOPTOSIS · VIRUS DIES WITH THE CELL</text>

  
                    <g opacity="0.85">
                      <path d="M 95 100 Q 80 130 90 165 Q 105 195 145 200 Q 200 205 240 195 Q 275 185 280 155 Q 285 125 270 100 Q 245 80 195 78 Q 140 76 95 100 Z" fill="#4fb8a8" fill-opacity="0.18" stroke="#4fb8a8" stroke-width="1.6"></path>
                  <ellipse cx="155" cy="135" rx="32" ry="24" fill="#4a2d60" opacity="0.55"></ellipse><text x="180" y="240" text-anchor="middle" style="fill:#4fb8a8;font:600 8px Inter,sans-serif;letter-spacing:1.2px">EPITHELIAL CELL</text></g>
                      <circle cx="280" cy="92" r="8" fill="#4fb8a8" fill-opacity="0.30" stroke="#4fb8a8" stroke-width="1.2"></circle>
                      <circle cx="92" cy="178" r="6" fill="#4fb8a8" fill-opacity="0.28" stroke="#4fb8a8" stroke-width="1.2"></circle>
                      <circle cx="265" cy="200" r="7" fill="#4fb8a8" fill-opacity="0.28" stroke="#4fb8a8" stroke-width="1.2"></circle>
    
                      <g transform="translate(180 160)" stroke="#d14859" stroke-width="1.6" fill="none" opacity="0.85">
                        <path d="M -30 -8 L -20 -12 L -10 -8 L 0 -12 L 10 -8 L 20 -12 L 30 -8"></path>
                        <path d="M -30 0 L -20 -4 L -10 0 L 0 -4 L 10 0 L 20 -4 L 30 0"></path>
                        <path d="M -30 8 L -20 4 L -10 8 L 0 4 L 10 8 L 20 4 L 30 8"></path>
                      </g>
    
                    <g transform="translate(120 105)" opacity="1">
                      <circle cx="0" cy="0" r="9" fill="#d14859" fill-opacity="0.75" stroke="#d14859" stroke-width="1.4"></circle>
                      <g fill="#d14859">
                        <circle cx="-9" cy="-4" r="2"></circle>
                        <circle cx="9" cy="-4" r="2"></circle>
                        <circle cx="-9" cy="6" r="2"></circle>
                        <circle cx="9" cy="6" r="2"></circle>
                      </g>
                      <text x="0" y="3" text-anchor="middle" style="fill:#0a0e1a;font:700 7px Inter,sans-serif">V</text>
                    </g>
  
                    <g transform="translate(220 115)" opacity="1">
                      <circle cx="0" cy="0" r="9" fill="#d14859" fill-opacity="0.75" stroke="#d14859" stroke-width="1.4"></circle>
                      <g fill="#d14859">
                        <circle cx="-9" cy="-4" r="2"></circle>
                        <circle cx="9" cy="-4" r="2"></circle>
                        <circle cx="-9" cy="6" r="2"></circle>
                        <circle cx="9" cy="6" r="2"></circle>
                      </g>
                      <text x="0" y="3" text-anchor="middle" style="fill:#0a0e1a;font:700 7px Inter,sans-serif">V</text>
                    </g>
  
                    <g transform="translate(200 185)" opacity="1">
                      <circle cx="0" cy="0" r="9" fill="#d14859" fill-opacity="0.75" stroke="#d14859" stroke-width="1.4"></circle>
                      <g fill="#d14859">
                        <circle cx="-9" cy="-4" r="2"></circle>
                        <circle cx="9" cy="-4" r="2"></circle>
                        <circle cx="-9" cy="6" r="2"></circle>
                        <circle cx="9" cy="6" r="2"></circle>
                      </g>
                      <text x="0" y="3" text-anchor="middle" style="fill:#0a0e1a;font:700 7px Inter,sans-serif">V</text>
                    </g>
  
                    <g transform="translate(75 110) rotate(-90)" opacity="1">
                      <path d="M -12 0 L 12 0 L 14 8 L 8 8 L 6 4 L -6 4 L -8 8 L -14 8 Z" fill="#e8a951" fill-opacity="0.85" stroke="#e8a951" stroke-width="1.2"></path>
                  <circle cx="-3" cy="-2.5" r="2" fill="#6cc27d"></circle><circle cx="0" cy="-2.5" r="2" fill="#6cc27d"></circle><circle cx="3" cy="-2.5" r="2" fill="#6cc27d"></circle></g>
                    <g transform="translate(290 105) rotate(90)" opacity="1">
                      <path d="M -12 0 L 12 0 L 14 8 L 8 8 L 6 4 L -6 4 L -8 8 L -14 8 Z" fill="#e8a951" fill-opacity="0.85" stroke="#e8a951" stroke-width="1.2"></path>
                  <circle cx="-3" cy="-2.5" r="2" fill="#d14859"></circle><circle cx="0" cy="-2.5" r="2" fill="#d14859"></circle><circle cx="3" cy="-2.5" r="2" fill="#d14859"></circle></g>
                    <g transform="translate(295 145) rotate(90)" opacity="1">
                      <path d="M -12 0 L 12 0 L 14 8 L 8 8 L 6 4 L -6 4 L -8 8 L -14 8 Z" fill="#e8a951" fill-opacity="0.85" stroke="#e8a951" stroke-width="1.2"></path>
                  <circle cx="-3" cy="-2.5" r="2" fill="#6cc27d"></circle><circle cx="0" cy="-2.5" r="2" fill="#6cc27d"></circle><circle cx="3" cy="-2.5" r="2" fill="#6cc27d"></circle></g>
                    <g transform="translate(290 185) rotate(90)" opacity="1">
                      <path d="M -12 0 L 12 0 L 14 8 L 8 8 L 6 4 L -6 4 L -8 8 L -14 8 Z" fill="#e8a951" fill-opacity="0.85" stroke="#e8a951" stroke-width="1.2"></path>
                  <circle cx="-3" cy="-2.5" r="2" fill="#d14859"></circle><circle cx="0" cy="-2.5" r="2" fill="#d14859"></circle><circle cx="3" cy="-2.5" r="2" fill="#d14859"></circle></g>
                    <g transform="translate(95 195) rotate(-90)" opacity="1">
                      <path d="M -12 0 L 12 0 L 14 8 L 8 8 L 6 4 L -6 4 L -8 8 L -14 8 Z" fill="#e8a951" fill-opacity="0.85" stroke="#e8a951" stroke-width="1.2"></path>
                  <circle cx="-3" cy="-2.5" r="2" fill="#6cc27d"></circle><circle cx="0" cy="-2.5" r="2" fill="#6cc27d"></circle><circle cx="3" cy="-2.5" r="2" fill="#6cc27d"></circle></g>
                      <g transform="translate(410 145)" opacity="1">
                        <circle cx="0" cy="0" r="38" fill="#6cc27d" fill-opacity="0.32" stroke="#6cc27d" stroke-width="1.8"></circle>
                        <ellipse cx="-5" cy="-3" rx="10" ry="8" fill="#1a2030" opacity="0.7"></ellipse>
                        <!-- cytotoxic granules inside -->
                        <g fill="#e8a951" opacity="0.85">
                          <circle cx="10" cy="6" r="2.5"></circle>
                          <circle cx="6" cy="14" r="2.2"></circle>
                          <circle cx="14" cy="-4" r="2.2"></circle>
                          <circle cx="10" cy="-12" r="2"></circle>
                        </g>
                        <text x="0" y="55" text-anchor="middle" style="fill:#6cc27d;font:600 9px Inter,sans-serif;letter-spacing:1.5px">CD8 T CELL</text>
                        <!-- TCR pointing left toward the cell -->
                        <g transform="translate(-38 0)">
                          <path d="M 0 0 L 12 -7 L 12 7 Z" fill="#e8a951" opacity="0.85" transform="rotate(180)"></path>
                          <text x="6" y="-12" text-anchor="middle" style="fill:#e8a951;font:600 8px Inter,sans-serif">TCR</text>
                        </g>
                      </g>
    

                  <text x="250" y="252" text-anchor="middle" style="fill:#b4becf;font:italic 10px Fraunces,serif">contained killing · viral replication factory shut down with the cell</text>

                  <!-- FOCUS · audio-aligned attention marker -->
                  <circle cx="266" cy="144" r="60" fill="none" stroke="#d14859" stroke-width="1.8" stroke-dasharray="3 2" opacity="0.85">
                    <animate attributeName="r" values="56;66;56" dur="2.4s" repeatCount="indefinite"/>
                    <animate attributeName="opacity" values="0.85;0.20;0.85" dur="2.4s" repeatCount="indefinite"/>
                  </circle>
</svg>
