<?xml version="1.0" encoding="UTF-8"?>
<!--
  Auto-generated from the reference HTML by
  scripts/storymode-extraction/extract.mjs.
  Do not edit by hand — regenerate the file instead.
-->
<svg xmlns="http://www.w3.org/2000/svg" xmlns:xlink="http://www.w3.org/1999/xlink" viewBox="0 0 500 260" preserveAspectRatio="xMidYMid meet">
                  <text x="20" y="16" style="fill:#e8a951;font:600 9px Inter,sans-serif;letter-spacing:2px">STEP 02 · SENSITIZATION · ANTI-D + MEMORY</text>

                  <!-- Maternal circulation zone -->
                  <rect x="40" y="80" width="420" height="135" rx="6" fill="#9370b9" fill-opacity="0.10" stroke="#9370b9" stroke-width="1.4" stroke-dasharray="3 2"></rect>
                  <text x="50" y="98" style="fill:#9370b9;font:600 8px Inter,sans-serif;letter-spacing:1.5px">MATERNAL CIRCULATION</text>

                  <!-- Fetal Rh+ RBC -->
                  <g transform="translate(140 145)" opacity="1"><ellipse cx="0" cy="0" rx="14" ry="9" fill="#d14859" fill-opacity="0.85" stroke="#d14859" stroke-width="1"></ellipse><ellipse cx="0" cy="0" rx="5.88" ry="3.78" fill="#1a2030" opacity="0.85"></ellipse><text x="0" y="18" text-anchor="middle" style="fill:#d14859;font:700 6px Inter,sans-serif;letter-spacing:1px">Rh+</text></g>

                  <!-- B cell encounters it -->
                  <g transform="translate(220 145)" opacity="1"><circle cx="0" cy="0" r="22" fill="#9370b9" fill-opacity="0.35" stroke="#9370b9" stroke-width="1.5"></circle><ellipse cx="-3" cy="-1" rx="6" ry="5" fill="#4a2d60" opacity="0.7"></ellipse><text x="0" y="3" text-anchor="middle" style="fill:#e8ecf3;font:700 8px Inter,sans-serif">B</text></g>

                  <!-- Arrow -->
                  <path d="M 250 145 L 290 145" stroke="#e8a951" stroke-width="1.5" fill="none"></path>
                  <polygon points="290,145 283,141 283,149" fill="#e8a951"></polygon>

                  <!-- Anti-D + memory -->
                  <g transform="translate(335 130)">
                    <g transform="translate(0 0) scale(1.4)" opacity="1"><g stroke="#e8a951" stroke-width="2" fill="none" stroke-linecap="round"><path d="M -7 -6 L -2 0 L 2 0 L 7 -6"></path><line x1="0" y1="0" x2="0" y2="9"></line></g></g>
                    <g transform="translate(-22 -3) scale(1.2)" opacity="1"><g stroke="#e8a951" stroke-width="2" fill="none" stroke-linecap="round"><path d="M -7 -6 L -2 0 L 2 0 L 7 -6"></path><line x1="0" y1="0" x2="0" y2="9"></line></g></g>
                    <g transform="translate(22 -3) scale(1.2)" opacity="1"><g stroke="#e8a951" stroke-width="2" fill="none" stroke-linecap="round"><path d="M -7 -6 L -2 0 L 2 0 L 7 -6"></path><line x1="0" y1="0" x2="0" y2="9"></line></g></g>
                    <text x="0" y="22" text-anchor="middle" style="fill:#e8a951;font:600 7px Inter,sans-serif;letter-spacing:1.2px">ANTI-D IgG</text>
                  </g>

                  <g transform="translate(415 145)" opacity="1"><circle cx="0" cy="0" r="22" fill="#6cc27d" fill-opacity="0.30" stroke="#6cc27d" stroke-width="1.5"></circle><ellipse cx="-3" cy="-1" rx="6" ry="5" fill="#4a2d60" opacity="0.7"></ellipse><text x="0" y="3" text-anchor="middle" style="fill:#e8ecf3;font:700 8px Inter,sans-serif">M</text></g>
                  <text x="415" y="178" text-anchor="middle" style="fill:#6cc27d;font:600 7px Inter,sans-serif;letter-spacing:1.2px">MEMORY</text>

                  <!-- Verdict -->
                  <g transform="translate(250 230)">
                    <rect x="-150" y="-12" width="300" height="22" rx="11" fill="#d14859" fill-opacity="0.20" stroke="#d14859" stroke-width="1.5"></rect>
                    <text x="0" y="3" text-anchor="middle" style="fill:#d14859;font:700 8px Inter,sans-serif;letter-spacing:1.5px">MOM IS SENSITIZED</text>
                  </g>

                  <text x="250" y="245" text-anchor="middle" style="fill:#b4becf;font:italic 7.5px Fraunces,serif">B cell sees Rh+ · class-switches to IgG · anti-D antibodies and memory persist for life</text>

                  <!-- FOCUS · audio-aligned attention marker -->
                  <circle cx="335" cy="147" r="20" fill="none" stroke="#d14859" stroke-width="1.8" stroke-dasharray="3 2" opacity="0.85">
                    <animate attributeName="r" values="16;26;16" dur="2.4s" repeatCount="indefinite"/>
                    <animate attributeName="opacity" values="0.85;0.20;0.85" dur="2.4s" repeatCount="indefinite"/>
                  </circle>
</svg>
