<?xml version="1.0" encoding="UTF-8"?>
<!--
  Auto-generated from the reference HTML by
  scripts/storymode-extraction/extract.mjs.
  Do not edit by hand — regenerate the file instead.
-->
<svg xmlns="http://www.w3.org/2000/svg" xmlns:xlink="http://www.w3.org/1999/xlink" viewBox="0 0 500 260" preserveAspectRatio="xMidYMid meet">
                  <text x="20" y="16" style="fill:#e8a951;font:600 9px Inter,sans-serif;letter-spacing:2px">STEP 04 · IgG ≠ IgA · GUT STAYS BARE</text>

                  <g opacity="1"><rect x="80" y="80" width="340" height="35" rx="4" fill="#4fb8a8" fill-opacity="0.15" stroke="#4fb8a8" stroke-width="1.4" stroke-dasharray="3 2"></rect><text x="90" y="100" style="fill:#4fb8a8;font:600 8px Inter,sans-serif;letter-spacing:1.5px">GUT LUMEN</text><line x1="80" y1="118" x2="420" y2="118" stroke="#9370b9" stroke-width="1.4" stroke-dasharray="2 2" opacity="0.7"></line><rect x="80" y="125" width="340" height="50" rx="4" fill="#9370b9" fill-opacity="0.30" stroke="#9370b9" stroke-width="2" stroke-dasharray="0"></rect><text x="90" y="155" style="fill:#9370b9;font:600 8px Inter,sans-serif;letter-spacing:1.5px">SERUM / BLOODSTREAM</text><rect x="80" y="185" width="340" height="35" rx="4" fill="#e8a951" fill-opacity="0.15" stroke="#e8a951" stroke-width="1.4" stroke-dasharray="3 2"></rect><text x="90" y="205" style="fill:#e8a951;font:600 8px Inter,sans-serif;letter-spacing:1.5px">CNS · MOTOR NEURONS</text></g>

                  <!-- IgG in serum (full) -->
                  <g transform="translate(150 145)" opacity="1"><path d="M -5 -4 L -1 0 L 1 0 L 5 -4" stroke="#e8a951" stroke-width="1.8" fill="none" stroke-linecap="round"></path><line x1="0" y1="0" x2="0" y2="6" stroke="#e8a951" stroke-width="1.8" stroke-linecap="round"></line></g>
                  <g transform="translate(180 152)" opacity="1"><path d="M -5 -4 L -1 0 L 1 0 L 5 -4" stroke="#e8a951" stroke-width="1.8" fill="none" stroke-linecap="round"></path><line x1="0" y1="0" x2="0" y2="6" stroke="#e8a951" stroke-width="1.8" stroke-linecap="round"></line></g>
                  <g transform="translate(210 145)" opacity="1"><path d="M -5 -4 L -1 0 L 1 0 L 5 -4" stroke="#e8a951" stroke-width="1.8" fill="none" stroke-linecap="round"></path><line x1="0" y1="0" x2="0" y2="6" stroke="#e8a951" stroke-width="1.8" stroke-linecap="round"></line></g>
                  <g transform="translate(240 152)" opacity="1"><path d="M -5 -4 L -1 0 L 1 0 L 5 -4" stroke="#e8a951" stroke-width="1.8" fill="none" stroke-linecap="round"></path><line x1="0" y1="0" x2="0" y2="6" stroke="#e8a951" stroke-width="1.8" stroke-linecap="round"></line></g>
                  <g transform="translate(270 145)" opacity="1"><path d="M -5 -4 L -1 0 L 1 0 L 5 -4" stroke="#e8a951" stroke-width="1.8" fill="none" stroke-linecap="round"></path><line x1="0" y1="0" x2="0" y2="6" stroke="#e8a951" stroke-width="1.8" stroke-linecap="round"></line></g>
                  <g transform="translate(300 152)" opacity="1"><path d="M -5 -4 L -1 0 L 1 0 L 5 -4" stroke="#e8a951" stroke-width="1.8" fill="none" stroke-linecap="round"></path><line x1="0" y1="0" x2="0" y2="6" stroke="#e8a951" stroke-width="1.8" stroke-linecap="round"></line></g>
                  <g transform="translate(330 145)" opacity="1"><path d="M -5 -4 L -1 0 L 1 0 L 5 -4" stroke="#e8a951" stroke-width="1.8" fill="none" stroke-linecap="round"></path><line x1="0" y1="0" x2="0" y2="6" stroke="#e8a951" stroke-width="1.8" stroke-linecap="round"></line></g>
                  <g transform="translate(360 152)" opacity="1"><path d="M -5 -4 L -1 0 L 1 0 L 5 -4" stroke="#e8a951" stroke-width="1.8" fill="none" stroke-linecap="round"></path><line x1="0" y1="0" x2="0" y2="6" stroke="#e8a951" stroke-width="1.8" stroke-linecap="round"></line></g>

                  <!-- Try to cross epithelium -->
                  <g stroke="#e8a951" stroke-width="1.4" fill="none" stroke-dasharray="3 2" opacity="0.5">
                    <path d="M 200 138 L 200 122"></path>
                    <path d="M 250 138 L 250 122"></path>
                    <path d="M 300 138 L 300 122"></path>
                  </g>

                  <!-- X marks at the epithelium for each attempt -->
                  <g transform="translate(200 118)">
                    <line x1="-4" y1="-4" x2="4" y2="4" stroke="#d14859" stroke-width="2" stroke-linecap="round"></line>
                    <line x1="-4" y1="4" x2="4" y2="-4" stroke="#d14859" stroke-width="2" stroke-linecap="round"></line>
                  </g>
                  <g transform="translate(250 118)">
                    <line x1="-4" y1="-4" x2="4" y2="4" stroke="#d14859" stroke-width="2" stroke-linecap="round"></line>
                    <line x1="-4" y1="4" x2="4" y2="-4" stroke="#d14859" stroke-width="2" stroke-linecap="round"></line>
                  </g>
                  <g transform="translate(300 118)">
                    <line x1="-4" y1="-4" x2="4" y2="4" stroke="#d14859" stroke-width="2" stroke-linecap="round"></line>
                    <line x1="-4" y1="4" x2="4" y2="-4" stroke="#d14859" stroke-width="2" stroke-linecap="round"></line>
                  </g>

                  <!-- Empty gut lumen -->
                  <text x="250" y="100" text-anchor="middle" style="fill:#d14859;font:600 8px Inter,sans-serif;letter-spacing:1.5px">NO IgA HERE</text>

                  <text x="250" y="245" text-anchor="middle" style="fill:#b4becf;font:italic 7.5px Fraunces,serif">IgG can't be transcytosed across gut epithelium · the lumen has no antibodies</text>

                  <!-- FOCUS · audio-aligned attention marker -->
                  <circle cx="250" cy="95" r="20" fill="none" stroke="#d14859" stroke-width="1.8" stroke-dasharray="3 2" opacity="0.85">
                    <animate attributeName="r" values="16;26;16" dur="2.4s" repeatCount="indefinite"/>
                    <animate attributeName="opacity" values="0.85;0.20;0.85" dur="2.4s" repeatCount="indefinite"/>
                  </circle>
</svg>
