<?xml version="1.0" encoding="UTF-8"?>
<!--
  Auto-generated from the reference HTML by
  scripts/storymode-extraction/extract.mjs.
  Do not edit by hand — regenerate the file instead.
-->
<svg xmlns="http://www.w3.org/2000/svg" xmlns:xlink="http://www.w3.org/1999/xlink" viewBox="0 0 500 260" preserveAspectRatio="xMidYMid meet">
<text x="20" y="16" style="fill:#e8a951;font:600 9px Inter,sans-serif;letter-spacing:2px">STEP 06 · SUBQ INJECTION · PEPTIDE DRUG</text>

<!-- Why not oral (left) -->
<g transform="translate(125 145)">
  <text x="0" y="-90" text-anchor="middle" style="fill:#d14859;font:700 9px Inter,sans-serif;letter-spacing:1.5px">ORAL · DEGRADED</text>
  
  <!-- Stomach -->
  <path d="M -30 -40 Q -38 -30 -32 -10 Q -34 10 -28 20 Q -20 35 0 30 Q 25 32 30 15 Q 32 -5 28 -25 Q 22 -40 -30 -40" 
        fill="rgba(209,72,89,0.30)" stroke="#d14859" stroke-width="1.4"/>
  <text x="0" y="0" text-anchor="middle" style="fill:#d14859;font:700 8px Inter,sans-serif">STOMACH</text>
  <text x="0" y="13" text-anchor="middle" style="fill:#b4becf;font:6.5px Inter,sans-serif">proteases</text>
  
  <!-- Drug being broken up -->
  <g fill="rgba(232,169,81,0.55)" opacity="0.55">
    <circle cx="-12" cy="-15" r="2"/>
    <circle cx="-5" cy="-10" r="2"/>
    <circle cx="5" cy="-12" r="2"/>
    <circle cx="12" cy="-8" r="2"/>
    <circle cx="-8" cy="0" r="2"/>
  </g>
  
  <text x="0" y="50" text-anchor="middle" style="fill:#d14859;font:italic 700 7px Fraunces,serif">cleaved by proteases</text>
</g>

<!-- VS divider -->
<line x1="250" y1="55" x2="250" y2="220" stroke="#3a4358" stroke-width="1" stroke-dasharray="3 3"/>

<!-- SubQ on right -->
<g transform="translate(375 145)">
  <text x="0" y="-90" text-anchor="middle" style="fill:#6cc27d;font:700 9px Inter,sans-serif;letter-spacing:1.5px">SubQ INJECTION</text>
  
  <!-- Skin layers -->
  <g transform="translate(0 0)">
    <!-- Epidermis (top) -->
    <rect x="-55" y="-30" width="110" height="14" fill="rgba(232,169,81,0.65)" stroke="#a06a30" stroke-width="0.8"/>
    <text x="-58" y="-22" text-anchor="end" style="fill:#a06a30;font:6px Inter,sans-serif">epi</text>
    
    <!-- Dermis -->
    <rect x="-55" y="-16" width="110" height="14" fill="rgba(180,190,207,0.55)" stroke="#6b7689" stroke-width="0.8"/>
    <text x="-58" y="-9" text-anchor="end" style="fill:#6b7689;font:6px Inter,sans-serif">derm</text>
    
    <!-- SubQ fat (yellow honeycomb) -->
    <rect x="-55" y="-2" width="110" height="30" fill="rgba(232,169,81,0.30)" stroke="#e8a951" stroke-width="0.8"/>
    <g stroke="#e8a951" stroke-width="0.6" fill="none">
      <circle cx="-40" cy="13" r="6"/>
      <circle cx="-25" cy="13" r="6"/>
      <circle cx="-10" cy="13" r="6"/>
      <circle cx="5" cy="13" r="6"/>
      <circle cx="20" cy="13" r="6"/>
      <circle cx="35" cy="13" r="6"/>
    </g>
    <text x="-58" y="20" text-anchor="end" style="fill:#e8a951;font:6px Inter,sans-serif">subQ</text>
  </g>
  
  <!-- Needle entering -->
  <g transform="translate(0 -45)">
    <rect x="-2" y="0" width="4" height="35" fill="#b4becf" stroke="#3a4358" stroke-width="0.6"/>
    <polygon points="-2,35 2,35 0,42" fill="#b4becf"/>
  </g>
  
  <!-- Drug deposit -->
  <ellipse cx="0" cy="13" rx="8" ry="4" fill="rgba(232,169,81,0.95)" stroke="#e8a951" stroke-width="1"/>
  
  <text x="0" y="55" text-anchor="middle" style="fill:#6cc27d;font:italic 700 7px Fraunces,serif">2× daily injection</text>
</g>

<text x="250" y="245" text-anchor="middle" style="fill:#6b7689;font:italic 7.5px Fraunces,serif">36 aa too large for oral · injection site reactions limit adoption</text>

                  <!-- FOCUS · audio-aligned attention marker -->
                  <circle cx="125" cy="50" r="22" fill="none" stroke="#d14859" stroke-width="1.8" stroke-dasharray="3 2" opacity="0.85">
                    <animate attributeName="r" values="18;28;18" dur="2.4s" repeatCount="indefinite"/>
                    <animate attributeName="opacity" values="0.85;0.20;0.85" dur="2.4s" repeatCount="indefinite"/>
                  </circle>
</svg>
