<?xml version="1.0" encoding="UTF-8"?>
<!--
  Auto-generated from the reference HTML by
  scripts/storymode-extraction/extract.mjs.
  Do not edit by hand — regenerate the file instead.
-->
<svg xmlns="http://www.w3.org/2000/svg" xmlns:xlink="http://www.w3.org/1999/xlink" viewBox="0 0 500 260" preserveAspectRatio="xMidYMid meet">
<text x="20" y="16" style="fill:#e8a951;font:600 9px Inter,sans-serif;letter-spacing:2px">STEP 05 · MICROTHROMBI → END-ORGAN ISCHEMIA</text>

<!-- Body silhouette with affected organs -->
<g transform="translate(250 130)">
  <!-- Body outline -->
  <path d="M -50 -80 Q -55 -50 -55 -20 L -55 50 L -25 80 L 25 80 L 55 50 L 55 -20 Q 55 -50 50 -80 Z" 
        fill="none" stroke="#3a4358" stroke-width="1.2"/>
  
  <!-- Fingers (purpura) -->
  <circle cx="-25" cy="80" r="4" fill="#9370b9" opacity="0.85"/>
  <circle cx="-15" cy="83" r="4" fill="#9370b9" opacity="0.85"/>
  <circle cx="15" cy="83" r="4" fill="#9370b9" opacity="0.85"/>
  <circle cx="25" cy="80" r="4" fill="#9370b9" opacity="0.85"/>
  
  <!-- Kidneys -->
  <ellipse cx="-12" cy="0" rx="6" ry="10" fill="#d14859" opacity="0.6"/>
  <ellipse cx="12" cy="0" rx="6" ry="10" fill="#d14859" opacity="0.6"/>
  
  <text x="-65" y="-15" text-anchor="end" style="fill:#d14859;font:700 7px Inter,sans-serif">↓ kidneys</text>
  <text x="-65" y="0" text-anchor="end" style="fill:#b4becf;font:6.5px Inter,sans-serif">AKI</text>
  
  <text x="65" y="-15" style="fill:#9370b9;font:700 7px Inter,sans-serif">↓ digits →</text>
  <text x="65" y="0" style="fill:#b4becf;font:6.5px Inter,sans-serif">purpura fulminans</text>
</g>

<g transform="translate(250 230)">
  <rect x="-200" y="-15" width="400" height="34" rx="6" fill="rgba(209,72,89,0.18)" stroke="#d14859" stroke-width="1.4"/>
  <text x="0" y="-1" text-anchor="middle" style="fill:#d14859;font:700 9px Inter,sans-serif;letter-spacing:1.2px">MICROTHROMBI BLOCK SMALL VESSELS</text>
  <text x="0" y="14" text-anchor="middle" style="fill:#b4becf;font:7px Inter,sans-serif">→ ischemia in fingers/toes, kidneys, brain</text>
</g>

                  <!-- FOCUS · audio-aligned attention marker -->
                  <circle cx="185" cy="125" r="20" fill="none" stroke="#d14859" stroke-width="1.8" stroke-dasharray="3 2" opacity="0.85">
                    <animate attributeName="r" values="16;26;16" dur="2.4s" repeatCount="indefinite"/>
                    <animate attributeName="opacity" values="0.85;0.20;0.85" dur="2.4s" repeatCount="indefinite"/>
                  </circle>
</svg>
