<?xml version="1.0" encoding="UTF-8"?>
<!--
  Auto-generated from the reference HTML by
  scripts/storymode-extraction/extract.mjs.
  Do not edit by hand — regenerate the file instead.
-->
<svg xmlns="http://www.w3.org/2000/svg" xmlns:xlink="http://www.w3.org/1999/xlink" viewBox="0 0 500 260" preserveAspectRatio="xMidYMid meet">
                <text x="20" y="26" style="fill:#e8a951;font:600 10px Inter,sans-serif;letter-spacing:2px">TRY TO LOAD A FRAGMENT</text>
                <g transform="translate(130 140)">
                  <path d="M -25 -20 Q -32 -5 -25 8 Q -35 20 -20 32 Q 5 38 20 28 Q 35 18 30 5 Q 40 -8 25 -22 Q 5 -32 -25 -20 Z" fill="#d14859" opacity="0.5" stroke="#d14859" stroke-width="1.5"/>
                </g>
                <path d="M 180 140 L 220 140" stroke="#e8a951" stroke-width="1.3"/>
                <polygon points="220,140 212,136 212,144" fill="#e8a951"/>
                <g transform="translate(260 140)" fill="#d14859">
                  <circle cx="-10" cy="-6" r="3"/><circle cx="-3" cy="-6" r="3"/>
                  <circle cx="4" cy="-6" r="3"/><circle cx="11" cy="-6" r="3"/>
                  <circle cx="-6" cy="6" r="3"/><circle cx="2" cy="6" r="3"/>
                  <circle cx="10" cy="6" r="3"/>
                </g>
                <path d="M 290 140 L 330 140" stroke="#e8a951" stroke-width="1.3"/>
                <polygon points="330,140 322,136 322,144" fill="#e8a951"/>
                <g transform="translate(380 140)">
                  <path d="M -25 -8 L 25 -8 L 28 4 L 17 4 L 14 -2 L -14 -2 L -17 4 L -28 4 Z" fill="#4fb8a8" opacity="0.7" stroke="#4fb8a8" stroke-width="1.5"/>
                  <rect x="-8" y="-6" width="16" height="6" fill="#4fb8a8" opacity="0.4"/>
                </g>
                <text x="250" y="220" text-anchor="middle" style="fill:#b4becf;font:italic 11px Fraunces,serif">needs a peptide that fits the groove</text>

                  <!-- FOCUS · audio-aligned attention marker -->
                  <circle cx="250" cy="215" r="40" fill="none" stroke="#d14859" stroke-width="1.8" stroke-dasharray="3 2" opacity="0.85">
                    <animate attributeName="r" values="36;46;36" dur="2.4s" repeatCount="indefinite"/>
                    <animate attributeName="opacity" values="0.85;0.20;0.85" dur="2.4s" repeatCount="indefinite"/>
                  </circle>
</svg>
