<?xml version="1.0" encoding="UTF-8"?>
<!--
  Auto-generated from the reference HTML by
  scripts/storymode-extraction/extract.mjs.
  Do not edit by hand — regenerate the file instead.
-->
<svg xmlns="http://www.w3.org/2000/svg" xmlns:xlink="http://www.w3.org/1999/xlink" viewBox="0 0 500 260" preserveAspectRatio="xMidYMid meet">
<text x="20" y="16" style="fill:#e8a951;font:600 9px Inter,sans-serif;letter-spacing:2px">STEP 03 · CREST PENTAD · C-R-E-S-T</text><g>
    <rect x="20" y="30" width="200" height="14" rx="7" fill="rgba(232, 169, 81, 0.18)" stroke="#e8a951" stroke-width="1"/>
    <text x="120" y="40" text-anchor="middle" style="fill:#e8a951;font:700 7.5px Inter,sans-serif;letter-spacing:1.2px">LIMITED SSc · ANTI-CENTROMERE</text>
  </g><text x="30" y="62" style="fill:#b4becf;font:600 7px 'JetBrains Mono',monospace;letter-spacing:1.5px">PATIENT</text><text x="470" y="62" text-anchor="end" style="fill:#b4becf;font:600 7px 'JetBrains Mono',monospace;letter-spacing:1.5px">SCLERODERMA SUBTYPE</text><g opacity="1">
    <g stroke="#b4becf" stroke-width="1.5" fill="#b4becf" fill-opacity="0.15">
      <circle cx="70" cy="80" r="11"/>
      <path d="M 60 92 Q 55 102 55 130 L 55 150 Q 60 158 70 158 Q 80 158 85 150 L 85 130 Q 85 102 80 92 Z"/>
      <path d="M 55 102 Q 39 112 35 138" fill="none"/>
      <path d="M 85 102 Q 101 112 105 138" fill="none"/>
      <path d="M 62 158 Q 60 168 60 178" fill="none"/>
      <path d="M 78 158 Q 80 168 80 178" fill="none"/>
    </g><g opacity="0.95">
      <g stroke="#d14859" stroke-width="0.8" fill="none" opacity="0.85">
        <line x1="62" y1="80" x2="58" y2="78"/>
        <line x1="62" y1="80" x2="58" y2="82"/>
        <line x1="62" y1="80" x2="59" y2="80"/>
        <line x1="78" y1="80" x2="82" y2="78"/>
        <line x1="78" y1="80" x2="82" y2="82"/>
        <line x1="78" y1="80" x2="81" y2="80"/>
      </g>
    </g><g opacity="0.95">
      <circle cx="95" cy="75" r="6" fill="#0a0e1a" stroke="#d14859" stroke-width="1.3"/>
      <text x="95" y="78" text-anchor="middle" style="fill:#d14859;font:700 8px Inter,sans-serif">T</text>
    </g><g opacity="0.95">
      <path d="M 70 91 Q 70 100 70 115" stroke="#d14859" stroke-width="2.5" fill="none" stroke-linecap="round"/>
      <path d="M 74 95 Q 77 98 74 102 Q 77 106 74 110" stroke="#d14859" stroke-width="0.7" fill="none" opacity="0.85"/>
    </g><g opacity="0.95">
      <circle cx="98" cy="105" r="6" fill="#0a0e1a" stroke="#d14859" stroke-width="1.3"/>
      <text x="98" y="108" text-anchor="middle" style="fill:#d14859;font:700 8px Inter,sans-serif">E</text>
    </g><g opacity="0.95">
      <circle cx="105" cy="138" r="3" fill="#e8ecf3" opacity="0.9"/>
      <circle cx="105" cy="138" r="3" fill="#9370b9" opacity="0.5"/>
      <circle cx="105" cy="138" r="3" fill="none" stroke="#d14859" stroke-width="1"/>
    </g><g opacity="0.95">
      <circle cx="120" cy="135" r="6" fill="#0a0e1a" stroke="#d14859" stroke-width="1.3"/>
      <text x="120" y="138" text-anchor="middle" style="fill:#d14859;font:700 8px Inter,sans-serif">R</text>
    </g><g opacity="0.95">
      <ellipse cx="35" cy="138" rx="3.5" ry="2.5" fill="#d14859" fill-opacity="0.55" stroke="#d14859" stroke-width="1"/>
      <line x1="33" y1="135" x2="31" y2="132" stroke="#d14859" stroke-width="1.2" stroke-linecap="round"/>
      <line x1="37" y1="135" x2="39" y2="132" stroke="#d14859" stroke-width="1.2" stroke-linecap="round"/>
      <line x1="35" y1="135" x2="35" y2="131" stroke="#d14859" stroke-width="1.2" stroke-linecap="round"/>
    </g><g opacity="0.95">
      <circle cx="35" cy="154" r="6" fill="#0a0e1a" stroke="#d14859" stroke-width="1.3"/>
      <text x="35" y="157" text-anchor="middle" style="fill:#d14859;font:700 8px Inter,sans-serif">S</text>
    </g><g opacity="0.95">
      <circle cx="102" cy="135" r="1.2" fill="#e8ecf3" opacity="0.95"/>
      <circle cx="108" cy="142" r="1" fill="#e8ecf3" opacity="0.95"/>
      <circle cx="104" cy="143" r="0.9" fill="#e8ecf3" opacity="0.95"/>
    </g><g opacity="0.95">
      <circle cx="120" cy="154" r="6" fill="#0a0e1a" stroke="#d14859" stroke-width="1.3"/>
      <text x="120" y="157" text-anchor="middle" style="fill:#d14859;font:700 8px Inter,sans-serif">C</text>
    </g></g><g opacity="1"><g>
      <circle cx="170" cy="68" r="6" fill="#0a0e1a" stroke="#d14859" stroke-width="1.2"/>
      <text x="170" y="71" text-anchor="middle" style="fill:#d14859;font:700 8px Inter,sans-serif">C</text>
      <text x="182" y="71" style="fill:#b4becf;font:600 8px Inter,sans-serif">Calcinosis</text>
    </g><g>
      <circle cx="170" cy="85" r="6" fill="#0a0e1a" stroke="#d14859" stroke-width="1.2"/>
      <text x="170" y="88" text-anchor="middle" style="fill:#d14859;font:700 8px Inter,sans-serif">R</text>
      <text x="182" y="88" style="fill:#b4becf;font:600 8px Inter,sans-serif">Raynaud</text>
    </g><g>
      <circle cx="170" cy="102" r="6" fill="#0a0e1a" stroke="#d14859" stroke-width="1.2"/>
      <text x="170" y="105" text-anchor="middle" style="fill:#d14859;font:700 8px Inter,sans-serif">E</text>
      <text x="182" y="105" style="fill:#b4becf;font:600 8px Inter,sans-serif">Esophagus</text>
    </g><g>
      <circle cx="170" cy="119" r="6" fill="#0a0e1a" stroke="#d14859" stroke-width="1.2"/>
      <text x="170" y="122" text-anchor="middle" style="fill:#d14859;font:700 8px Inter,sans-serif">S</text>
      <text x="182" y="122" style="fill:#b4becf;font:600 8px Inter,sans-serif">Sclerodactyly</text>
    </g><g>
      <circle cx="170" cy="136" r="6" fill="#0a0e1a" stroke="#d14859" stroke-width="1.2"/>
      <text x="170" y="139" text-anchor="middle" style="fill:#d14859;font:700 8px Inter,sans-serif">T</text>
      <text x="182" y="139" style="fill:#b4becf;font:600 8px Inter,sans-serif">Telangiectasias</text>
    </g></g><g opacity="1"><g transform="translate(360 90)">
    <rect x="-95" y="-18" width="190" height="40" rx="5" fill="rgba(232, 169, 81, 0.15)" stroke="#e8a951" stroke-width="1.8"/>
    <text x="-88" y="-5" style="fill:#e8a951;font:700 8px Inter,sans-serif;letter-spacing:1.2px">LIMITED · CREST</text>
    <g style="font:7px Inter,sans-serif;fill:#b4becf">
      <text x="-88" y="9">anti-CENTROMERE</text>
      <text x="-88" y="19">distal · slow</text>
      <text x="0" y="9">→ pulm HTN late</text>
      <text x="0" y="19">→ low renal risk</text>
    </g>
  </g><g transform="translate(360 145)">
    <rect x="-95" y="-18" width="190" height="40" rx="5" fill="rgba(147, 112, 185, 0.10)" stroke="#9370b9" stroke-width="1"/>
    <text x="-88" y="-5" style="fill:#9370b9;font:700 8px Inter,sans-serif;letter-spacing:1.2px">DIFFUSE · SSc</text>
    <g style="font:7px Inter,sans-serif;fill:#b4becf">
      <text x="-88" y="9">anti-Scl-70</text>
      <text x="-88" y="19">prox + distal · rapid</text>
      <text x="0" y="9">→ early ILD</text>
      <text x="0" y="19">→ renal crisis</text>
    </g>
    
  </g></g>
              
                  

                  

                  
              
                  <!-- FOCUS · audio-aligned attention marker -->
                  <circle cx="182" cy="134" r="22" fill="none" stroke="#d14859" stroke-width="1.8" stroke-dasharray="3 2" opacity="0.85">
                    <animate attributeName="r" values="18;28;18" dur="2.4s" repeatCount="indefinite"/>
                    <animate attributeName="opacity" values="0.85;0.20;0.85" dur="2.4s" repeatCount="indefinite"/>
                  </circle>

                  <!-- FOCUS · audio-aligned attention marker -->
                  <circle cx="182" cy="117" r="20" fill="none" stroke="#d14859" stroke-width="1.8" stroke-dasharray="3 2" opacity="0.85">
                    <animate attributeName="r" values="16;26;16" dur="2.4s" repeatCount="indefinite"/>
                    <animate attributeName="opacity" values="0.85;0.20;0.85" dur="2.4s" repeatCount="indefinite"/>
                  </circle>

                  <!-- FOCUS · audio-aligned attention marker -->
                  <circle cx="182" cy="66" r="20" fill="none" stroke="#d14859" stroke-width="1.8" stroke-dasharray="3 2" opacity="0.85">
                    <animate attributeName="r" values="16;26;16" dur="2.4s" repeatCount="indefinite"/>
                    <animate attributeName="opacity" values="0.85;0.20;0.85" dur="2.4s" repeatCount="indefinite"/>
                  </circle>
              </svg>
