<?xml version="1.0" encoding="UTF-8"?>
<!--
  Auto-generated from the reference HTML by
  scripts/storymode-extraction/extract.mjs.
  Do not edit by hand — regenerate the file instead.
-->
<svg xmlns="http://www.w3.org/2000/svg" xmlns:xlink="http://www.w3.org/1999/xlink" viewBox="0 0 500 260" preserveAspectRatio="xMidYMid meet">
<text x="20" y="16" style="fill:#e8a951;font:600 9px Inter,sans-serif;letter-spacing:2px">STEP 04 · MOST COMMON CONGENITAL VIRAL INFECTION</text>

<g transform="translate(250 100)">
  <rect x="-200" y="-40" width="400" height="80" rx="10" fill="rgba(209,72,89,0.15)" stroke="#d14859" stroke-width="1.6"/>
  <text x="0" y="-15" text-anchor="middle" style="fill:#d14859;font:700 28px 'JetBrains Mono',monospace;letter-spacing:2px">~1%</text>
  <text x="0" y="6" text-anchor="middle" style="fill:#b4becf;font:600 10px Inter,sans-serif">of all live births</text>
  <text x="0" y="24" text-anchor="middle" style="fill:#d14859;font:700 9px Inter,sans-serif;letter-spacing:1.5px">CONGENITAL CMV</text>
</g>

<g><circle cx="100" cy="175" r="2.5" fill="#3a4358"/><circle cx="130" cy="175" r="2.5" fill="#3a4358"/><circle cx="160" cy="175" r="2.5" fill="#3a4358"/><circle cx="190" cy="175" r="2.5" fill="#3a4358"/><circle cx="220" cy="175" r="2.5" fill="#3a4358"/><circle cx="250" cy="175" r="2.5" fill="#3a4358"/><circle cx="280" cy="175" r="2.5" fill="#3a4358"/><circle cx="310" cy="175" r="2.5" fill="#3a4358"/><circle cx="340" cy="175" r="2.5" fill="#3a4358"/><circle cx="370" cy="175" r="2.5" fill="#3a4358"/><circle cx="100" cy="183" r="2.5" fill="#3a4358"/><circle cx="130" cy="183" r="2.5" fill="#3a4358"/><circle cx="160" cy="183" r="2.5" fill="#3a4358"/><circle cx="190" cy="183" r="2.5" fill="#3a4358"/><circle cx="220" cy="183" r="2.5" fill="#3a4358"/><circle cx="250" cy="183" r="2.5" fill="#3a4358"/><circle cx="280" cy="183" r="2.5" fill="#3a4358"/><circle cx="310" cy="183" r="2.5" fill="#3a4358"/><circle cx="340" cy="183" r="2.5" fill="#3a4358"/><circle cx="370" cy="183" r="2.5" fill="#3a4358"/><circle cx="100" cy="191" r="2.5" fill="#3a4358"/><circle cx="130" cy="191" r="2.5" fill="#3a4358"/><circle cx="160" cy="191" r="2.5" fill="#3a4358"/><circle cx="190" cy="191" r="2.5" fill="#3a4358"/><circle cx="220" cy="191" r="2.5" fill="#3a4358"/><circle cx="250" cy="191" r="2.5" fill="#3a4358"/><circle cx="280" cy="191" r="2.5" fill="#3a4358"/><circle cx="310" cy="191" r="2.5" fill="#3a4358"/><circle cx="340" cy="191" r="2.5" fill="#3a4358"/><circle cx="370" cy="191" r="2.5" fill="#3a4358"/><circle cx="100" cy="199" r="2.5" fill="#3a4358"/><circle cx="130" cy="199" r="2.5" fill="#3a4358"/><circle cx="160" cy="199" r="2.5" fill="#3a4358"/><circle cx="190" cy="199" r="2.5" fill="#3a4358"/><circle cx="220" cy="199" r="2.5" fill="#3a4358"/><circle cx="250" cy="199" r="2.5" fill="#3a4358"/><circle cx="280" cy="199" r="2.5" fill="#3a4358"/><circle cx="310" cy="199" r="2.5" fill="#3a4358"/><circle cx="340" cy="199" r="2.5" fill="#3a4358"/><circle cx="370" cy="199" r="2.5" fill="#3a4358"/><circle cx="100" cy="207" r="2.5" fill="#3a4358"/><circle cx="130" cy="207" r="2.5" fill="#3a4358"/><circle cx="160" cy="207" r="2.5" fill="#3a4358"/><circle cx="190" cy="207" r="2.5" fill="#3a4358"/><circle cx="220" cy="207" r="2.5" fill="#3a4358"/><circle cx="250" cy="207" r="2.5" fill="#3a4358"/><circle cx="280" cy="207" r="2.5" fill="#3a4358"/><circle cx="310" cy="207" r="2.5" fill="#3a4358"/><circle cx="340" cy="207" r="2.5" fill="#3a4358"/><circle cx="370" cy="207" r="2.5" fill="#3a4358"/><circle cx="100" cy="215" r="4" fill="#d14859"/><circle cx="130" cy="215" r="2.5" fill="#3a4358"/><circle cx="160" cy="215" r="2.5" fill="#3a4358"/><circle cx="190" cy="215" r="2.5" fill="#3a4358"/><circle cx="220" cy="215" r="2.5" fill="#3a4358"/><circle cx="250" cy="215" r="2.5" fill="#3a4358"/><circle cx="280" cy="215" r="2.5" fill="#3a4358"/><circle cx="310" cy="215" r="2.5" fill="#3a4358"/><circle cx="340" cy="215" r="2.5" fill="#3a4358"/><circle cx="370" cy="215" r="2.5" fill="#3a4358"/><circle cx="100" cy="223" r="2.5" fill="#3a4358"/><circle cx="130" cy="223" r="2.5" fill="#3a4358"/><circle cx="160" cy="223" r="2.5" fill="#3a4358"/><circle cx="190" cy="223" r="2.5" fill="#3a4358"/><circle cx="220" cy="223" r="2.5" fill="#3a4358"/><circle cx="250" cy="223" r="2.5" fill="#3a4358"/><circle cx="280" cy="223" r="2.5" fill="#3a4358"/><circle cx="310" cy="223" r="2.5" fill="#3a4358"/><circle cx="340" cy="223" r="2.5" fill="#3a4358"/><circle cx="370" cy="223" r="2.5" fill="#3a4358"/><circle cx="100" cy="231" r="2.5" fill="#3a4358"/><circle cx="130" cy="231" r="2.5" fill="#3a4358"/><circle cx="160" cy="231" r="2.5" fill="#3a4358"/><circle cx="190" cy="231" r="2.5" fill="#3a4358"/><circle cx="220" cy="231" r="2.5" fill="#3a4358"/><circle cx="250" cy="231" r="2.5" fill="#3a4358"/><circle cx="280" cy="231" r="2.5" fill="#3a4358"/><circle cx="310" cy="231" r="2.5" fill="#3a4358"/><circle cx="340" cy="231" r="2.5" fill="#3a4358"/><circle cx="370" cy="231" r="2.5" fill="#3a4358"/><circle cx="100" cy="239" r="2.5" fill="#3a4358"/><circle cx="130" cy="239" r="2.5" fill="#3a4358"/><circle cx="160" cy="239" r="2.5" fill="#3a4358"/><circle cx="190" cy="239" r="2.5" fill="#3a4358"/><circle cx="220" cy="239" r="2.5" fill="#3a4358"/><circle cx="250" cy="239" r="2.5" fill="#3a4358"/><circle cx="280" cy="239" r="2.5" fill="#3a4358"/><circle cx="310" cy="239" r="2.5" fill="#3a4358"/><circle cx="340" cy="239" r="2.5" fill="#3a4358"/><circle cx="370" cy="239" r="2.5" fill="#3a4358"/><circle cx="100" cy="247" r="2.5" fill="#3a4358"/><circle cx="130" cy="247" r="2.5" fill="#3a4358"/><circle cx="160" cy="247" r="2.5" fill="#3a4358"/><circle cx="190" cy="247" r="2.5" fill="#3a4358"/><circle cx="220" cy="247" r="2.5" fill="#3a4358"/><circle cx="250" cy="247" r="2.5" fill="#3a4358"/><circle cx="280" cy="247" r="2.5" fill="#3a4358"/><circle cx="310" cy="247" r="2.5" fill="#3a4358"/><circle cx="340" cy="247" r="2.5" fill="#3a4358"/><circle cx="370" cy="247" r="2.5" fill="#3a4358"/></g>

<text x="250" y="252" text-anchor="middle" style="fill:#6b7689;font:italic 7.5px Fraunces,serif">~10% symptomatic at birth · long-term sequelae much higher</text>

                  <!-- FOCUS · audio-aligned attention marker -->
                  <circle cx="250" cy="119" r="21" fill="none" stroke="#d14859" stroke-width="1.8" stroke-dasharray="3 2" opacity="0.85">
                    <animate attributeName="r" values="17;27;17" dur="2.4s" repeatCount="indefinite"/>
                    <animate attributeName="opacity" values="0.85;0.20;0.85" dur="2.4s" repeatCount="indefinite"/>
                  </circle>
</svg>
