<?xml version="1.0" encoding="UTF-8"?>
<!--
  Auto-generated from the reference HTML by
  scripts/storymode-extraction/extract.mjs.
  Do not edit by hand — regenerate the file instead.
-->
<svg xmlns="http://www.w3.org/2000/svg" xmlns:xlink="http://www.w3.org/1999/xlink" viewBox="0 0 500 260" preserveAspectRatio="xMidYMid meet">
<text x="20" y="16" style="fill:#e8a951;font:600 9px Inter,sans-serif;letter-spacing:2px">STEP 05 · SHM · AFFINITY MATURATION</text>

<!-- Germinal center label at top -->
<g transform="translate(250 60)">
  <rect x="-180" y="-22" width="360" height="44" rx="6" fill="rgba(79,184,168,0.18)" stroke="#4fb8a8" stroke-width="1.6"/>
  <text x="0" y="-5" text-anchor="middle" style="fill:#4fb8a8;font:700 11px Inter,sans-serif;letter-spacing:1.5px">GERMINAL CENTER</text>
  <text x="0" y="11" text-anchor="middle" style="fill:#b4becf;font:7.5px Inter,sans-serif">AID introduces V-region mutations · selection enriches best binders</text>
</g>

<!-- Three rounds of mutation/selection: BCR + antigen pairs -->
<!-- Round 1: low affinity -->
<g transform="translate(95 175)">
  <text x="0" y="-50" text-anchor="middle" style="fill:#9370b9;font:700 8px Inter,sans-serif;letter-spacing:1.2px">ROUND 1</text>
  <!-- BCR (faint) -->
  <g stroke="#9370b9" stroke-width="2" fill="none" stroke-linecap="round" opacity="0.5">
    <line x1="0" y1="0" x2="0" y2="-30"/>
    <line x1="-10" y1="-38" x2="0" y2="-30"/>
    <line x1="10" y1="-38" x2="0" y2="-30"/>
  </g>
  <!-- Antigen above (loose fit) -->
  <ellipse cx="-15" cy="-50" rx="6" ry="5" fill="rgba(232,169,81,0.50)" stroke="#e8a951" stroke-width="1"/>
  <text x="0" y="20" text-anchor="middle" style="fill:#9370b9;font:700 9px Inter,sans-serif">LOW</text>
  <text x="0" y="32" text-anchor="middle" style="fill:#b4becf;font:7px Inter,sans-serif">naive · loose fit</text>
</g>

<!-- Arrow with SHM -->
<g transform="translate(190 145)">
  <text x="0" y="0" text-anchor="middle" style="fill:#e8a951;font:700 8px Inter,sans-serif;letter-spacing:1.2px">SHM</text>
  <line x1="-25" y1="10" x2="25" y2="10" stroke="#e8a951" stroke-width="2.4"/>
  <polygon points="25,10 17,5 17,15" fill="#e8a951"/>
  <text x="0" y="28" text-anchor="middle" style="fill:#b4becf;font:italic 7px Fraunces,serif">+ select</text>
</g>

<!-- Round 2: mid affinity -->
<g transform="translate(255 175)">
  <text x="0" y="-50" text-anchor="middle" style="fill:#e8a951;font:700 8px Inter,sans-serif;letter-spacing:1.2px">ROUND 2</text>
  <g stroke="#e8a951" stroke-width="2.5" fill="none" stroke-linecap="round" opacity="0.85">
    <line x1="0" y1="0" x2="0" y2="-30"/>
    <line x1="-10" y1="-38" x2="0" y2="-30"/>
    <line x1="10" y1="-38" x2="0" y2="-30"/>
  </g>
  <ellipse cx="-5" cy="-50" rx="6" ry="5" fill="rgba(232,169,81,0.85)" stroke="#e8a951" stroke-width="1.4"/>
  <text x="0" y="20" text-anchor="middle" style="fill:#e8a951;font:700 9px Inter,sans-serif">MID</text>
  <text x="0" y="32" text-anchor="middle" style="fill:#b4becf;font:7px Inter,sans-serif">mutated · better</text>
</g>

<!-- Arrow with SHM -->
<g transform="translate(345 145)">
  <text x="0" y="0" text-anchor="middle" style="fill:#e8a951;font:700 8px Inter,sans-serif;letter-spacing:1.2px">SHM</text>
  <line x1="-25" y1="10" x2="25" y2="10" stroke="#e8a951" stroke-width="2.4"/>
  <polygon points="25,10 17,5 17,15" fill="#e8a951"/>
  <text x="0" y="28" text-anchor="middle" style="fill:#b4becf;font:italic 7px Fraunces,serif">+ select</text>
</g>

<!-- Round 3: high affinity -->
<g transform="translate(410 175)">
  <text x="0" y="-50" text-anchor="middle" style="fill:#6cc27d;font:700 8px Inter,sans-serif;letter-spacing:1.2px">ROUND 3</text>
  <g stroke="#6cc27d" stroke-width="3" fill="none" stroke-linecap="round">
    <line x1="0" y1="0" x2="0" y2="-30"/>
    <line x1="-10" y1="-38" x2="0" y2="-30"/>
    <line x1="10" y1="-38" x2="0" y2="-30"/>
  </g>
  <ellipse cx="0" cy="-50" rx="6" ry="5" fill="rgba(232,169,81,0.95)" stroke="#e8a951" stroke-width="1.6"/>
  <text x="0" y="20" text-anchor="middle" style="fill:#6cc27d;font:700 9px Inter,sans-serif">HIGH</text>
  <text x="0" y="32" text-anchor="middle" style="fill:#b4becf;font:7px Inter,sans-serif">memory · perfect</text>
</g>

<text x="250" y="245" text-anchor="middle" style="fill:#6b7689;font:italic 7.5px Fraunces,serif">Same CD40 signal also licenses GC entry</text>

                  <!-- FOCUS · audio-aligned attention marker -->
                  <circle cx="250" cy="66" r="40" fill="none" stroke="#d14859" stroke-width="1.8" stroke-dasharray="3 2" opacity="0.85">
                    <animate attributeName="r" values="36;46;36" dur="2.4s" repeatCount="indefinite"/>
                    <animate attributeName="opacity" values="0.85;0.20;0.85" dur="2.4s" repeatCount="indefinite"/>
                  </circle>
</svg>
