<?xml version="1.0" encoding="UTF-8"?>
<!--
  Auto-generated from the reference HTML by
  scripts/storymode-extraction/extract.mjs.
  Do not edit by hand — regenerate the file instead.
-->
<svg xmlns="http://www.w3.org/2000/svg" xmlns:xlink="http://www.w3.org/1999/xlink" viewBox="0 0 500 280" preserveAspectRatio="xMidYMid meet">
                <text x="20" y="26" style="fill:#e8a951;font:600 10px Inter,sans-serif;letter-spacing:2px">STEP 11 · TO THE SURFACE</text>
                <rect x="40" y="70" width="420" height="180" rx="18" fill="#0e1422" stroke="#3a4358" stroke-width="1.2"/>
                <text x="50" y="64" style="fill:#6b7689;font:600 8px Inter,sans-serif;letter-spacing:1.5px">EXTRACELLULAR</text>
                <text x="50" y="246" style="fill:#6b7689;font:600 8px Inter,sans-serif;letter-spacing:1.5px">CYTOPLASM</text>
                <line x1="40" y1="70" x2="460" y2="70" stroke="#4fb8a8" stroke-width="1.5" opacity="0.7"/>
                <g opacity="0.18">
                  <path d="M 70 180 Q 55 205 80 220 Q 130 230 175 220 Q 200 215 205 198 Q 210 175 188 162 Q 130 154 70 180 Z" fill="#4fb8a8" stroke="#4fb8a8" stroke-width="1"/>
                  <text x="135" y="245" text-anchor="middle" style="fill:#4fb8a8;font:600 8px Inter,sans-serif">ER</text>
                </g>
                <g opacity="0.30">
                  <ellipse cx="200" cy="190" rx="55" ry="40" fill="none" stroke="#e8a951" stroke-width="1.3" stroke-dasharray="4 3"/>
                  <text x="200" y="194" text-anchor="middle" style="fill:#e8a951;font:600 9px Inter,sans-serif">endosome</text>
                </g>
                <g transform="translate(200 190)" opacity="0.7">
                  <path d="M -16 -5 L 16 -5 L 18 3 L 10 3 L 8 -2 L -8 -2 L -10 3 L -18 3 Z" fill="#4fb8a8" opacity="0.9" stroke="#4fb8a8" stroke-width="1"/>
                  <g transform="translate(0 -8)" fill="#d14859"><circle cx="-5" cy="0" r="1.8"/><circle cx="0" cy="0" r="1.8"/><circle cx="5" cy="0" r="1.8"/></g>
                </g>
                <path d="M 220 175 Q 290 130 380 90" stroke="#e8a951" stroke-width="2" fill="none" stroke-dasharray="5 3"/>
                <polygon points="380,90 372,90 376,82" fill="#e8a951"/>
                <text x="290" y="135" style="fill:#e8a951;font:600 9px Inter,sans-serif;letter-spacing:1.5px">EXOCYTIC VESICLE</text>
                <g transform="translate(300 130)">
                  <circle cx="0" cy="0" r="14" fill="none" stroke="#e8a951" stroke-width="1.4" stroke-dasharray="2 2"/>
                  <path d="M -10 -3 L 10 -3 L 11 2 L 7 2 L 5 -1 L -5 -1 L -7 2 L -11 2 Z" fill="#4fb8a8" opacity="0.9"/>
                  <g transform="translate(0 -7)" fill="#d14859"><circle cx="-3" cy="0" r="1.5"/><circle cx="0" cy="0" r="1.5"/><circle cx="3" cy="0" r="1.5"/></g>
                </g>
                <g transform="translate(385 70)">
                  <path d="M -18 0 L 18 0 L 20 10 L 12 10 L 9 4 L -9 4 L -12 10 L -20 10 Z" fill="#4fb8a8" opacity="1" stroke="#4fb8a8" stroke-width="1.5"/>
                  <g transform="translate(0 -7)" fill="#d14859"><circle cx="-6" cy="0" r="2.2"/><circle cx="-1" cy="0" r="2.2"/><circle cx="4" cy="0" r="2.2"/></g>
                </g>
                <text x="250" y="270" text-anchor="middle" style="fill:#b4becf;font:italic 10px Fraunces,serif">loaded · stable · presented</text>

                  <!-- FOCUS · audio-aligned attention marker -->
                  <circle cx="290" cy="130" r="24" fill="none" stroke="#d14859" stroke-width="1.8" stroke-dasharray="3 2" opacity="0.85">
                    <animate attributeName="r" values="20;30;20" dur="2.4s" repeatCount="indefinite"/>
                    <animate attributeName="opacity" values="0.85;0.20;0.85" dur="2.4s" repeatCount="indefinite"/>
                  </circle>
</svg>
