<?xml version="1.0" encoding="UTF-8"?>
<!--
  Auto-generated from the reference HTML by
  scripts/storymode-extraction/extract.mjs.
  Do not edit by hand — regenerate the file instead.
-->
<svg xmlns="http://www.w3.org/2000/svg" xmlns:xlink="http://www.w3.org/1999/xlink" viewBox="0 0 500 280" preserveAspectRatio="xMidYMid meet">
                  <text x="20" y="22" style="fill:#e8a951;font:600 10px Inter,sans-serif;letter-spacing:2px">STEP 07 · EACH ALLELE = ITS OWN DISPLAY</text>

                  <!-- Person 1 (sister, allele DR2) -->
                  <g transform="translate(140 90)">
                    <text x="0" y="-30" text-anchor="middle" style="fill:#e8a951;font:600 9px Inter,sans-serif;letter-spacing:1.5px">SISTER · DR4</text>
    
                    <g opacity="1">
                      <circle cx="0" cy="8" r="8" fill="#d14859" fill-opacity="0.35" stroke="#d14859" stroke-width="1.4"></circle>
                      <path d="M -12 34 Q -13 22 -7 18 L 7 18 Q 13 22 12 34 Z" fill="#d14859" fill-opacity="0.35" stroke="#d14859" stroke-width="1.4"></path>
                      <text x="0" y="50" text-anchor="middle" style="fill:#d14859;font:600 8px Inter,sans-serif;letter-spacing:1px"></text>
                    </g>
  
                  </g>

                  <!-- Person 1's cell with HLA molecules and their peptide repertoire -->
                  <g transform="translate(140 195)">
                    <circle cx="0" cy="0" r="42" fill="#d14859" opacity="0.18" stroke="#d14859" stroke-width="1.4"></circle>
                    <ellipse cx="-3" cy="-3" rx="11" ry="8" fill="#1a2030" opacity="0.7"></ellipse>
                    <!-- 3 HLA molecules around the cell with different peptides -->
    
                    <g opacity="1">
                      <!-- base of molecule -->
                      <path d="M -37 -32 L -7 -32 L -3 -22 L -15 -22 L -19 -28 L -25 -28 L -29 -22 L -41 -22 Z" fill="#e8a951" fill-opacity="0.75" stroke="#e8a951" stroke-width="1.4"></path>
                      <!-- groove indication: a small notch on top -->
                      <line x1="-31" y1="-33" x2="-13" y2="-33" stroke="#e8a951" stroke-width="1" opacity="0.5"></line>
                      <g transform="translate(-22 -44)"><circle cx="-7.5" cy="0" r="2.5" fill="#4fb8a8"></circle><circle cx="-2.5" cy="0" r="2.5" fill="#9370b9"></circle><circle cx="2.5" cy="0" r="2.5" fill="#6cc27d"></circle><circle cx="7.5" cy="0" r="2.5" fill="#4fb8a8"></circle></g>
                    </g>
  
    
                    <g opacity="1">
                      <!-- base of molecule -->
                      <path d="M 7 -32 L 37 -32 L 41 -22 L 29 -22 L 25 -28 L 19 -28 L 15 -22 L 3 -22 Z" fill="#e8a951" fill-opacity="0.75" stroke="#e8a951" stroke-width="1.4"></path>
                      <!-- groove indication: a small notch on top -->
                      <line x1="13" y1="-33" x2="31" y2="-33" stroke="#e8a951" stroke-width="1" opacity="0.5"></line>
                      <g transform="translate(22 -44)"><circle cx="-7.5" cy="0" r="2.5" fill="#9370b9"></circle><circle cx="-2.5" cy="0" r="2.5" fill="#6cc27d"></circle><circle cx="2.5" cy="0" r="2.5" fill="#4fb8a8"></circle><circle cx="7.5" cy="0" r="2.5" fill="#9370b9"></circle></g>
                    </g>
  
    
                    <g opacity="1">
                      <!-- base of molecule -->
                      <path d="M 21 12 L 51 12 L 55 22 L 43 22 L 39 16 L 33 16 L 29 22 L 17 22 Z" fill="#e8a951" fill-opacity="0.75" stroke="#e8a951" stroke-width="1.4"></path>
                      <!-- groove indication: a small notch on top -->
                      <line x1="27" y1="11" x2="45" y2="11" stroke="#e8a951" stroke-width="1" opacity="0.5"></line>
                      <g transform="translate(36 0)"><circle cx="-7.5" cy="0" r="2.5" fill="#4fb8a8"></circle><circle cx="-2.5" cy="0" r="2.5" fill="#9370b9"></circle><circle cx="2.5" cy="0" r="2.5" fill="#6cc27d"></circle><circle cx="7.5" cy="0" r="2.5" fill="#4fb8a8"></circle></g>
                    </g>
  
                  </g>

                  <!-- Vertical divider -->
                  <line x1="250" y1="60" x2="250" y2="245" stroke="#3a4358" stroke-width="0.8" stroke-dasharray="3 3"></line>

                  <!-- Person 2 (patient, allele DR4) -->
                  <g transform="translate(360 90)">
                    <text x="0" y="-30" text-anchor="middle" style="fill:#e8a951;font:600 9px Inter,sans-serif;letter-spacing:1.5px">PATIENT · DR4 + DR2</text>
    
                    <g opacity="1">
                      <circle cx="0" cy="8" r="8" fill="#e8a951" fill-opacity="0.45" stroke="#e8a951" stroke-width="1.4"></circle>
                      <path d="M -12 34 Q -13 22 -7 18 L 7 18 Q 13 22 12 34 Z" fill="#e8a951" fill-opacity="0.45" stroke="#e8a951" stroke-width="1.4"></path>
                      <text x="0" y="50" text-anchor="middle" style="fill:#e8a951;font:600 8px Inter,sans-serif;letter-spacing:1px"></text>
                    </g>
  
                  </g>

                  <g transform="translate(360 195)">
                    <circle cx="0" cy="0" r="42" fill="#e8a951" opacity="0.18" stroke="#e8a951" stroke-width="1.4"></circle>
                    <ellipse cx="-3" cy="-3" rx="11" ry="8" fill="#1a2030" opacity="0.7"></ellipse>
    
                    <g opacity="1">
                      <!-- base of molecule -->
                      <path d="M -37 -32 L -7 -32 L -3 -22 L -15 -22 L -19 -28 L -25 -28 L -29 -22 L -41 -22 Z" fill="#e8a951" fill-opacity="0.75" stroke="#e8a951" stroke-width="1.4"></path>
                      <!-- groove indication: a small notch on top -->
                      <line x1="-31" y1="-33" x2="-13" y2="-33" stroke="#e8a951" stroke-width="1" opacity="0.5"></line>
                      <g transform="translate(-22 -44)"><circle cx="-7.5" cy="0" r="2.5" fill="#d14859"></circle><circle cx="-2.5" cy="0" r="2.5" fill="#4fb8a8"></circle><circle cx="2.5" cy="0" r="2.5" fill="#9370b9"></circle><circle cx="7.5" cy="0" r="2.5" fill="#d14859"></circle></g>
                    </g>
  
    
                    <g opacity="1">
                      <!-- base of molecule -->
                      <path d="M 7 -32 L 37 -32 L 41 -22 L 29 -22 L 25 -28 L 19 -28 L 15 -22 L 3 -22 Z" fill="#4fb8a8" fill-opacity="0.75" stroke="#4fb8a8" stroke-width="1.4"></path>
                      <!-- groove indication: a small notch on top -->
                      <line x1="13" y1="-33" x2="31" y2="-33" stroke="#4fb8a8" stroke-width="1" opacity="0.5"></line>
                      <g transform="translate(22 -44)"><circle cx="-7.5" cy="0" r="2.5" fill="#e8a951"></circle><circle cx="-2.5" cy="0" r="2.5" fill="#d14859"></circle><circle cx="2.5" cy="0" r="2.5" fill="#6cc27d"></circle><circle cx="7.5" cy="0" r="2.5" fill="#e8a951"></circle></g>
                    </g>
  
    
                    <g opacity="1">
                      <!-- base of molecule -->
                      <path d="M 21 12 L 51 12 L 55 22 L 43 22 L 39 16 L 33 16 L 29 22 L 17 22 Z" fill="#e8a951" fill-opacity="0.75" stroke="#e8a951" stroke-width="1.4"></path>
                      <!-- groove indication: a small notch on top -->
                      <line x1="27" y1="11" x2="45" y2="11" stroke="#e8a951" stroke-width="1" opacity="0.5"></line>
                      <g transform="translate(36 0)"><circle cx="-7.5" cy="0" r="2.5" fill="#d14859"></circle><circle cx="-2.5" cy="0" r="2.5" fill="#4fb8a8"></circle><circle cx="2.5" cy="0" r="2.5" fill="#9370b9"></circle><circle cx="7.5" cy="0" r="2.5" fill="#d14859"></circle></g>
                    </g>
  
                  </g>

                  <text x="250" y="270" text-anchor="middle" style="fill:#b4becf;font:italic 10px Fraunces,serif">two people · two allele sets · two completely different self-peptide displays</text>

                  <!-- FOCUS · audio-aligned attention marker -->
                  <circle cx="360" cy="55" r="28" fill="none" stroke="#d14859" stroke-width="1.8" stroke-dasharray="3 2" opacity="0.85">
                    <animate attributeName="r" values="24;34;24" dur="2.4s" repeatCount="indefinite"/>
                    <animate attributeName="opacity" values="0.85;0.20;0.85" dur="2.4s" repeatCount="indefinite"/>
                  </circle>

                  <!-- FOCUS · audio-aligned attention marker -->
                  <circle cx="140" cy="55" r="20" fill="none" stroke="#d14859" stroke-width="1.8" stroke-dasharray="3 2" opacity="0.85">
                    <animate attributeName="r" values="16;26;16" dur="2.4s" repeatCount="indefinite"/>
                    <animate attributeName="opacity" values="0.85;0.20;0.85" dur="2.4s" repeatCount="indefinite"/>
                  </circle>
</svg>
