<?xml version="1.0" encoding="UTF-8"?>
<!--
  Auto-generated from the reference HTML by
  scripts/storymode-extraction/extract.mjs.
  Do not edit by hand — regenerate the file instead.
-->
<svg xmlns="http://www.w3.org/2000/svg" xmlns:xlink="http://www.w3.org/1999/xlink" viewBox="0 0 500 260" preserveAspectRatio="xMidYMid meet">
                  <text x="20" y="16" style="fill:#e8a951;font:600 9px Inter,sans-serif;letter-spacing:2px">STEP 05 · CLEARED · B CELLS NAIVE</text>

                  <!-- Opsonized RBC on left -->
                  <g transform="translate(110 145)">
                    <g transform="translate(0 0)" opacity="1"><ellipse cx="0" cy="0" rx="14" ry="9" fill="#d14859" fill-opacity="0.85" stroke="#d14859" stroke-width="1"></ellipse><ellipse cx="0" cy="0" rx="5.88" ry="3.78" fill="#1a2030" opacity="0.85"></ellipse><g stroke="#e8a951" stroke-width="1.4" fill="none" stroke-linecap="round"><g transform="translate(0 -13)"><path d="M -4 4 L 0 0 L 0 -4"></path><path d="M 0 -4 L 4 0"></path></g><g transform="translate(18 0) rotate(90)"><path d="M -4 4 L 0 0 L 0 -4"></path><path d="M 0 -4 L 4 0"></path></g><g transform="translate(0 13) rotate(180)"><path d="M -4 4 L 0 0 L 0 -4"></path><path d="M 0 -4 L 4 0"></path></g><g transform="translate(-18 0) rotate(270)"><path d="M -4 4 L 0 0 L 0 -4"></path><path d="M 0 -4 L 4 0"></path></g></g></g>
                    <text x="0" y="22" text-anchor="middle" style="fill:#e8a951;font:600 7px Inter,sans-serif;letter-spacing:1.2px">OPSONIZED</text>
                  </g>

                  <!-- Arrow → spleen -->
                  <path d="M 145 145 L 195 145" stroke="#e8a951" stroke-width="1.6" fill="none"></path>
                  <polygon points="195,145 188,141 188,149" fill="#e8a951"></polygon>

                  <!-- Spleen with macrophage clearing -->
                  <g transform="translate(245 145)">
                    <ellipse cx="0" cy="0" rx="40" ry="28" fill="#9370b9" fill-opacity="0.40" stroke="#9370b9" stroke-width="1.6"></ellipse>
                    <!-- macrophage inside engulfing -->
                    <path d="M -16 0 Q -16 -16 0 -16 Q 16 -16 16 0 Q 16 6 12 6 Q 10 -2 5 -2 Q -10 -2 -10 6 Q -16 6 -16 0 Z" fill="#9370b9" fill-opacity="0.65" stroke="#9370b9" stroke-width="1.2"></path>
                    <!-- engulfed RBC fragment -->
                    <ellipse cx="0" cy="-6" rx="6" ry="4" fill="#d14859" fill-opacity="0.55"></ellipse>
                    <text x="0" y="38" text-anchor="middle" style="fill:#9370b9;font:600 8px Inter,sans-serif;letter-spacing:1.5px">SPLEEN</text>
                  </g>

                  <!-- Naive B cell on right (still naive — never exposed) -->
                  <g transform="translate(390 145)">
                    <g transform="translate(0 0)" opacity="1"><circle cx="0" cy="0" r="22" fill="#9370b9" fill-opacity="0.20" stroke="#9370b9" stroke-width="1.4" stroke-dasharray="3 2"></circle><ellipse cx="-3" cy="-1" rx="6" ry="5" fill="#4a2d60" opacity="0.5"></ellipse><text x="0" y="3" text-anchor="middle" style="fill:#e8ecf3;font:700 8px Inter,sans-serif">B</text></g>
                    <text x="0" y="35" text-anchor="middle" style="fill:#9370b9;font:600 7px Inter,sans-serif;letter-spacing:1.2px">B CELL · NAIVE</text>
                    <text x="0" y="46" text-anchor="middle" style="fill:#b4becf;font:italic 7px Fraunces,serif">never saw Rh+</text>
                  </g>

                  <!-- Verdict -->
                  <g transform="translate(250 230)">
                    <rect x="-140" y="-10" width="280" height="20" rx="8" fill="#6cc27d" fill-opacity="0.30" stroke="#6cc27d" stroke-width="1.4"></rect>
                    <text x="0" y="3" text-anchor="middle" style="fill:#6cc27d;font:700 8px Inter,sans-serif;letter-spacing:1.5px">NO SENSITIZATION · NEXT PREGNANCY SAFE</text>
                  </g>

                  <text x="250" y="245" text-anchor="middle" style="fill:#b4becf;font:italic 7.5px Fraunces,serif">RhoGAM-coated RBCs cleared by splenic macrophages · mom's B cells never get primed</text>

                  <!-- FOCUS · audio-aligned attention marker -->
                  <circle cx="250" cy="228" r="40" fill="none" stroke="#d14859" stroke-width="1.8" stroke-dasharray="3 2" opacity="0.85">
                    <animate attributeName="r" values="36;46;36" dur="2.4s" repeatCount="indefinite"/>
                    <animate attributeName="opacity" values="0.85;0.20;0.85" dur="2.4s" repeatCount="indefinite"/>
                  </circle>

                  <!-- FOCUS · audio-aligned attention marker -->
                  <circle cx="390" cy="186" r="20" fill="none" stroke="#d14859" stroke-width="1.8" stroke-dasharray="3 2" opacity="0.85">
                    <animate attributeName="r" values="16;26;16" dur="2.4s" repeatCount="indefinite"/>
                    <animate attributeName="opacity" values="0.85;0.20;0.85" dur="2.4s" repeatCount="indefinite"/>
                  </circle>
</svg>
