<?xml version="1.0" encoding="UTF-8"?>
<!--
  Auto-generated from the reference HTML by
  scripts/storymode-extraction/extract.mjs.
  Do not edit by hand — regenerate the file instead.
-->
<svg xmlns="http://www.w3.org/2000/svg" xmlns:xlink="http://www.w3.org/1999/xlink" viewBox="0 0 500 260" preserveAspectRatio="xMidYMid meet">
                  <text x="20" y="22" style="fill:#e8a951;font:600 10px Inter,sans-serif;letter-spacing:2px">STEP 04 · AFFINITY MATURATION · THE PROCESS</text>

                  <!-- Germinal center container -->
                  <ellipse cx="250" cy="155" rx="200" ry="60" fill="#e8a951" fill-opacity="0.10" stroke="#e8a951" stroke-width="1.4" stroke-dasharray="3 2"></ellipse>
                  <text x="250" y="80" text-anchor="middle" style="fill:#e8a951;font:600 9px Inter,sans-serif;letter-spacing:1.5px">GERMINAL CENTER</text>

                  <!-- BCR affinity progression -->
                  <g transform="translate(120 155)">
                    <g transform="translate(0 0)" opacity="1"><g stroke="#9370b9" stroke-width="1.4" fill="none" stroke-linecap="round"><path d="M -10 -10 L -3 0 L 3 0 L 10 -10"></path><line x1="0" y1="0" x2="0" y2="14"></line></g><polygon points="0,-22 -8,-15 0,-8 8,-15" fill="#d14859" opacity="0.9" stroke="#d14859" stroke-width="1"></polygon><text x="0" y="32" text-anchor="middle" style="fill:#9370b9;font:700 8px Inter,sans-serif;letter-spacing:1.2px">LOW</text></g>
                  </g>

                  <g transform="translate(180 155)">
                    <text x="0" y="-15" text-anchor="middle" style="fill:#e8a951;font:600 7px Inter,sans-serif;letter-spacing:1.2px">AID</text>
                    <path d="M -15 0 L 15 0" stroke="#e8a951" stroke-width="1.5"></path>
                    <polygon points="15,0 8,-4 8,4" fill="#e8a951"></polygon>
                  </g>

                  <g transform="translate(240 155)">
                    <g transform="translate(0 0)" opacity="1"><g stroke="#e8a951" stroke-width="2" fill="none" stroke-linecap="round"><path d="M -10 -10 L -3 0 L 3 0 L 10 -10"></path><line x1="0" y1="0" x2="0" y2="14"></line></g><polygon points="0,-22 -8,-15 0,-8 8,-15" fill="#d14859" opacity="0.9" stroke="#d14859" stroke-width="1"></polygon><text x="0" y="32" text-anchor="middle" style="fill:#e8a951;font:700 8px Inter,sans-serif;letter-spacing:1.2px">MID</text></g>
                  </g>

                  <g transform="translate(305 155)">
                    <text x="0" y="-15" text-anchor="middle" style="fill:#e8a951;font:600 7px Inter,sans-serif;letter-spacing:1.2px">SELECTION</text>
                    <path d="M -25 0 L 25 0" stroke="#e8a951" stroke-width="1.5"></path>
                    <polygon points="25,0 18,-4 18,4" fill="#e8a951"></polygon>
                  </g>

                  <g transform="translate(380 155)">
                    <g transform="translate(0 0)" opacity="1"><g stroke="#6cc27d" stroke-width="2.6" fill="none" stroke-linecap="round"><path d="M -10 -10 L -3 0 L 3 0 L 10 -10"></path><line x1="0" y1="0" x2="0" y2="14"></line></g><polygon points="0,-22 -8,-15 0,-8 8,-15" fill="#d14859" opacity="0.9" stroke="#d14859" stroke-width="1"></polygon><text x="0" y="32" text-anchor="middle" style="fill:#6cc27d;font:700 8px Inter,sans-serif;letter-spacing:1.2px">HIGH · 1000×</text></g>
                  </g>

                  <text x="250" y="252" text-anchor="middle" style="fill:#b4becf;font:italic 10px Fraunces,serif">AID-driven hypermutation + selection · output is up to 1000× tighter binding</text>

                  <!-- FOCUS · audio-aligned attention marker -->
                  <circle cx="380" cy="182" r="20" fill="none" stroke="#d14859" stroke-width="1.8" stroke-dasharray="3 2" opacity="0.85">
                    <animate attributeName="r" values="16;26;16" dur="2.4s" repeatCount="indefinite"/>
                    <animate attributeName="opacity" values="0.85;0.20;0.85" dur="2.4s" repeatCount="indefinite"/>
                  </circle>
</svg>
