<?xml version="1.0" encoding="UTF-8"?>
<!--
  Auto-generated from the reference HTML by
  scripts/storymode-extraction/extract.mjs.
  Do not edit by hand — regenerate the file instead.
-->
<svg xmlns="http://www.w3.org/2000/svg" xmlns:xlink="http://www.w3.org/1999/xlink" viewBox="0 0 500 260" preserveAspectRatio="xMidYMid meet">
<text x="20" y="16" style="fill:#e8a951;font:600 9px Inter,sans-serif;letter-spacing:2px">STEP 03 · NON-CASEATING · NO PATHOGEN</text>

<g transform="translate(250 145)">
  <text x="0" y="-100" text-anchor="middle" style="fill:#6cc27d;font:700 9px Inter,sans-serif;letter-spacing:1.5px">NON-CASEATING · SARCOID</text>
  
  <!-- H&E slide -->
  <circle cx="0" cy="0" r="78" fill="rgba(245,235,225,0.95)" stroke="#3a4358" stroke-width="2"/>
  
  <!-- Same Th1 rim -->
  <g fill="rgba(108,194,125,0.85)" stroke="#3a8244" stroke-width="0.6">
    <circle cx="-58" cy="0" r="4"/>
    <circle cx="-50" cy="-30" r="4"/>
    <circle cx="-30" cy="-55" r="4"/>
    <circle cx="0" cy="-65" r="4"/>
    <circle cx="30" cy="-55" r="4"/>
    <circle cx="50" cy="-30" r="4"/>
    <circle cx="58" cy="0" r="4"/>
    <circle cx="50" cy="30" r="4"/>
    <circle cx="30" cy="55" r="4"/>
    <circle cx="0" cy="65" r="4"/>
    <circle cx="-30" cy="55" r="4"/>
    <circle cx="-50" cy="30" r="4"/>
  </g>
  
  <!-- Same epithelioid macs -->
  <g fill="rgba(232,169,81,0.65)" stroke="#a06a30" stroke-width="0.8">
    <ellipse cx="-30" cy="-15" rx="9" ry="6"/>
    <ellipse cx="-15" cy="-30" rx="9" ry="6"/>
    <ellipse cx="15" cy="-30" rx="9" ry="6"/>
    <ellipse cx="30" cy="-15" rx="9" ry="6"/>
    <ellipse cx="30" cy="15" rx="9" ry="6"/>
    <ellipse cx="15" cy="30" rx="9" ry="6"/>
    <ellipse cx="-15" cy="30" rx="9" ry="6"/>
    <ellipse cx="-30" cy="15" rx="9" ry="6"/>
  </g>
  
  <!-- Giant cells in center (NO necrosis) -->
  <g transform="translate(0 0)">
    <ellipse cx="0" cy="0" rx="20" ry="14" fill="rgba(209,72,89,0.45)" stroke="#a53343" stroke-width="1.4"/>
    <g fill="rgba(74,45,96,0.85)">
      <circle cx="-10" cy="-5" r="2"/>
      <circle cx="-5" cy="-7" r="2"/>
      <circle cx="0" cy="-8" r="2"/>
      <circle cx="5" cy="-7" r="2"/>
      <circle cx="10" cy="-5" r="2"/>
    </g>
  </g>
  
  <!-- Annotation: NO necrosis -->
  <line x1="0" y1="0" x2="100" y2="0" stroke="#6cc27d" stroke-width="0.8" stroke-dasharray="2 1"/>
  <text x="105" y="-2" style="fill:#3a8244;font:700 7px Inter,sans-serif">NO NECROSIS</text>
  <text x="105" y="8" style="fill:#3a8244;font:6px Inter,sans-serif">center clean</text>
</g>

<!-- Causes panel below -->
<g transform="translate(250 220)">
  <rect x="-220" y="-13" width="440" height="26" rx="6" fill="rgba(108,194,125,0.20)" stroke="#6cc27d" stroke-width="1.4"/>
  <text x="0" y="3" text-anchor="middle" style="fill:#6cc27d;font:700 8.5px Inter,sans-serif;letter-spacing:1.2px">SARCOID · HP · CROHN · FOREIGN BODY</text>
</g>

<text x="250" y="245" text-anchor="middle" style="fill:#6b7689;font:italic 7.5px Fraunces,serif">Same architecture · no replicating pathogen needing destruction = no necrosis</text>

                  <!-- FOCUS · audio-aligned attention marker -->
                  <circle cx="250" cy="218" r="40" fill="none" stroke="#d14859" stroke-width="1.8" stroke-dasharray="3 2" opacity="0.85">
                    <animate attributeName="r" values="36;46;36" dur="2.4s" repeatCount="indefinite"/>
                    <animate attributeName="opacity" values="0.85;0.20;0.85" dur="2.4s" repeatCount="indefinite"/>
                  </circle>

                  <!-- FOCUS · audio-aligned attention marker -->
                  <circle cx="250" cy="40" r="34" fill="none" stroke="#d14859" stroke-width="1.8" stroke-dasharray="3 2" opacity="0.85">
                    <animate attributeName="r" values="30;40;30" dur="2.4s" repeatCount="indefinite"/>
                    <animate attributeName="opacity" values="0.85;0.20;0.85" dur="2.4s" repeatCount="indefinite"/>
                  </circle>

                  <!-- FOCUS · audio-aligned attention marker -->
                  <circle cx="355" cy="138" r="20" fill="none" stroke="#d14859" stroke-width="1.8" stroke-dasharray="3 2" opacity="0.85">
                    <animate attributeName="r" values="16;26;16" dur="2.4s" repeatCount="indefinite"/>
                    <animate attributeName="opacity" values="0.85;0.20;0.85" dur="2.4s" repeatCount="indefinite"/>
                  </circle>
              </svg>
