<?xml version="1.0" encoding="UTF-8"?>
<!--
  Auto-generated from the reference HTML by
  scripts/storymode-extraction/extract.mjs.
  Do not edit by hand — regenerate the file instead.
-->
<svg xmlns="http://www.w3.org/2000/svg" xmlns:xlink="http://www.w3.org/1999/xlink" viewBox="0 0 500 280" preserveAspectRatio="xMidYMid meet">
                  <text x="20" y="22" style="fill:#e8a951;font:600 10px Inter,sans-serif;letter-spacing:2px">STEP 09 · WHICH ALLELES · WHICH DISEASES</text>

                  <!-- 6 rows of HLA → disease icon. Two columns. -->
                  <!-- Row 1: B27 -> spine -->
                  <g transform="translate(70 70)">
                    <rect x="-30" y="-12" width="60" height="24" rx="6" fill="#e8a951" opacity="0.30" stroke="#e8a951" stroke-width="1.3"></rect>
                    <text x="0" y="3" text-anchor="middle" style="fill:#e8a951;font:700 9px Inter,sans-serif">B27</text>
                    <text x="42" y="3" style="fill:#e8a951;font:700 13px Inter,sans-serif">→</text>
                    <!-- spine icon -->
                    <g transform="translate(75 0)">
                      <path d="M 0 -10 Q -3 -5 0 0 Q 3 5 0 10" stroke="#e8ecf3" stroke-width="2" fill="none"></path>
                      <circle cx="-2" cy="-7" r="2" fill="#e8ecf3"></circle>
                      <circle cx="2" cy="-2" r="2" fill="#e8ecf3"></circle>
                      <circle cx="-2" cy="3" r="2" fill="#e8ecf3"></circle>
                      <circle cx="2" cy="8" r="2" fill="#e8ecf3"></circle>
                    </g>
                    <text x="98" y="3" style="fill:#e8ecf3;font:9px Inter,sans-serif">ankylosing spondylitis</text>
                  </g>

                  <!-- Row 2: DR3/4 -> pancreas -->
                  <g transform="translate(70 110)">
                    <rect x="-30" y="-12" width="60" height="24" rx="6" fill="#e8a951" opacity="0.30" stroke="#e8a951" stroke-width="1.3"></rect>
                    <text x="0" y="3" text-anchor="middle" style="fill:#e8a951;font:700 9px Inter,sans-serif">DR3/DR4</text>
                    <text x="42" y="3" style="fill:#e8a951;font:700 13px Inter,sans-serif">→</text>
                    <!-- pancreas icon -->
                    <g transform="translate(75 0)">
                      <path d="M -10 0 Q -8 -7 0 -8 Q 9 -8 11 0 Q 12 6 6 7 Q 0 7 -3 5 Q -8 5 -10 0 Z" fill="#e8ecf3" opacity="0.9"></path>
                    </g>
                    <text x="98" y="3" style="fill:#e8ecf3;font:9px Inter,sans-serif">type 1 diabetes</text>
                  </g>

                  <!-- Row 3: DR4 -> joint (HIGHLIGHTED — sister has RA) -->
                  <g transform="translate(70 150)">
                    <rect x="-30" y="-12" width="60" height="24" rx="6" fill="#d14859" opacity="0.40" stroke="#d14859" stroke-width="2"></rect>
                    <text x="0" y="3" text-anchor="middle" style="fill:#d14859;font:700 9px Inter,sans-serif">DR4</text>
                    <text x="42" y="3" style="fill:#d14859;font:700 13px Inter,sans-serif">→</text>
                    <!-- joint/finger icon -->
                    <g transform="translate(75 0)">
                      <rect x="-3" y="-10" width="6" height="8" rx="1" fill="#e8ecf3"></rect>
                      <circle cx="0" cy="0" r="4" fill="#d14859" opacity="0.7" stroke="#d14859" stroke-width="1.4"></circle>
                      <rect x="-3" y="2" width="6" height="8" rx="1" fill="#e8ecf3"></rect>
                    </g>
                    <text x="98" y="3" style="fill:#e8ecf3;font:9px Inter,sans-serif">rheumatoid arthritis</text>
                    <text x="200" y="3" style="fill:#d14859;font:600 8px Inter,sans-serif">← sister</text>
                  </g>

                  <!-- Row 4: DQ2/8 -> villi/gut -->
                  <g transform="translate(70 190)">
                    <rect x="-30" y="-12" width="60" height="24" rx="6" fill="#e8a951" opacity="0.30" stroke="#e8a951" stroke-width="1.3"></rect>
                    <text x="0" y="3" text-anchor="middle" style="fill:#e8a951;font:700 9px Inter,sans-serif">DQ2/8</text>
                    <text x="42" y="3" style="fill:#e8a951;font:700 13px Inter,sans-serif">→</text>
                    <g transform="translate(75 0)">
                      <path d="M -10 8 Q -10 -8 -7 -8 Q -7 4 -4 4 Q -4 -8 -1 -8 Q -1 4 2 4 Q 2 -8 5 -8 Q 5 4 8 4 Q 8 -8 10 -8 Q 10 8 -10 8 Z" fill="#e8ecf3"></path>
                    </g>
                    <text x="98" y="3" style="fill:#e8ecf3;font:9px Inter,sans-serif">celiac disease</text>
                  </g>

                  <!-- Row 5: DR2 -> butterfly (HIGHLIGHTED — mom has SLE) -->
                  <g transform="translate(70 230)">
                    <rect x="-30" y="-12" width="60" height="24" rx="6" fill="#d14859" opacity="0.40" stroke="#d14859" stroke-width="2"></rect>
                    <text x="0" y="3" text-anchor="middle" style="fill:#d14859;font:700 9px Inter,sans-serif">DR2</text>
                    <text x="42" y="3" style="fill:#d14859;font:700 13px Inter,sans-serif">→</text>
                    <!-- butterfly/face icon -->
                    <g transform="translate(75 0)">
                      <ellipse cx="-5" cy="0" rx="6" ry="5" fill="#d14859" opacity="0.7"></ellipse>
                      <ellipse cx="5" cy="0" rx="6" ry="5" fill="#d14859" opacity="0.7"></ellipse>
                      <line x1="0" y1="-4" x2="0" y2="4" stroke="#e8ecf3" stroke-width="1"></line>
                    </g>
                    <text x="98" y="3" style="fill:#e8ecf3;font:9px Inter,sans-serif">SLE · MS · Goodpasture</text>
                    <text x="225" y="3" style="fill:#d14859;font:600 8px Inter,sans-serif">← mother</text>
                  </g>

                  <text x="250" y="270" text-anchor="middle" style="fill:#b4becf;font:italic 10px Fraunces,serif">red-bordered alleles match this family's diseases</text>

                  <!-- FOCUS · audio-aligned attention marker -->
                  <circle cx="270" cy="148" r="20" fill="none" stroke="#d14859" stroke-width="1.8" stroke-dasharray="3 2" opacity="0.85">
                    <animate attributeName="r" values="16;26;16" dur="2.4s" repeatCount="indefinite"/>
                    <animate attributeName="opacity" values="0.85;0.20;0.85" dur="2.4s" repeatCount="indefinite"/>
                  </circle>

                  <!-- FOCUS · audio-aligned attention marker -->
                  <circle cx="295" cy="228" r="20" fill="none" stroke="#d14859" stroke-width="1.8" stroke-dasharray="3 2" opacity="0.85">
                    <animate attributeName="r" values="16;26;16" dur="2.4s" repeatCount="indefinite"/>
                    <animate attributeName="opacity" values="0.85;0.20;0.85" dur="2.4s" repeatCount="indefinite"/>
                  </circle>
</svg>
