<?xml version="1.0" encoding="UTF-8"?>
<!--
  Auto-generated from the reference HTML by
  scripts/storymode-extraction/extract.mjs.
  Do not edit by hand — regenerate the file instead.
-->
<svg xmlns="http://www.w3.org/2000/svg" xmlns:xlink="http://www.w3.org/1999/xlink" viewBox="0 0 500 260" preserveAspectRatio="xMidYMid meet">
<text x="20" y="16" style="fill:#e8a951;font:600 9px Inter,sans-serif;letter-spacing:2px">STEP 01 · RETROVIRUS · RNA → DNA → INTEGRATED</text>

<!-- Stage 1: HIV with RNA inside -->
<g transform="translate(95 145)">
  <text x="0" y="-78" text-anchor="middle" style="fill:#d14859;font:700 9px Inter,sans-serif;letter-spacing:1.5px">HIV VIRION</text>
  
  <!-- Envelope -->
  <circle cx="0" cy="0" r="36" fill="rgba(180,190,207,0.20)" stroke="#b4becf" stroke-width="1.4"/>
  
  <!-- gp120/gp41 spikes -->
  <g stroke="#9370b9" stroke-width="1.4" fill="none" stroke-linecap="round">
    <g transform="translate(0 -36)">
      <line x1="0" y1="0" x2="0" y2="-8"/>
      <circle cx="0" cy="-12" r="3" fill="rgba(147,112,185,0.85)"/>
    </g>
    <g transform="translate(34 -12) rotate(70)">
      <line x1="0" y1="0" x2="0" y2="-8"/>
      <circle cx="0" cy="-12" r="3" fill="rgba(147,112,185,0.85)"/>
    </g>
    <g transform="translate(34 12) rotate(110)">
      <line x1="0" y1="0" x2="0" y2="-8"/>
      <circle cx="0" cy="-12" r="3" fill="rgba(147,112,185,0.85)"/>
    </g>
    <g transform="translate(0 36) rotate(180)">
      <line x1="0" y1="0" x2="0" y2="-8"/>
      <circle cx="0" cy="-12" r="3" fill="rgba(147,112,185,0.85)"/>
    </g>
    <g transform="translate(-34 12) rotate(250)">
      <line x1="0" y1="0" x2="0" y2="-8"/>
      <circle cx="0" cy="-12" r="3" fill="rgba(147,112,185,0.85)"/>
    </g>
    <g transform="translate(-34 -12) rotate(290)">
      <line x1="0" y1="0" x2="0" y2="-8"/>
      <circle cx="0" cy="-12" r="3" fill="rgba(147,112,185,0.85)"/>
    </g>
  </g>
  
  <!-- Conical capsid inside -->
  <path d="M -10 -20 L 10 -20 L 16 18 L -16 18 Z" fill="rgba(209,72,89,0.45)" stroke="#d14859" stroke-width="1.4"/>
  
  <!-- RNA strands inside capsid -->
  <g stroke="#e8a951" stroke-width="1.6" fill="none">
    <path d="M -8 -10 Q -3 -8 0 -10 Q 3 -12 7 -10"/>
    <path d="M -8 0 Q -3 -2 0 0 Q 3 2 7 0"/>
    <path d="M -8 10 Q -3 8 0 10 Q 3 12 7 10"/>
  </g>
  <text x="0" y="55" text-anchor="middle" style="fill:#e8a951;font:700 7.5px Inter,sans-serif">+ssRNA · ×2</text>
</g>

<!-- Big arrow with RT label -->
<g stroke="#e8a951" stroke-width="2.4" fill="none" marker-end="url(#arr14_1_1a)">
  <line x1="155" y1="145" x2="220" y2="145"/>
</g>
<defs>
  <marker id="arr14_1_1a" viewBox="0 0 10 10" refX="9" refY="5" markerWidth="7" markerHeight="7" orient="auto">
    <path d="M 0 0 L 10 5 L 0 10 z" fill="#e8a951"/>
  </marker>
</defs>
<text x="187" y="135" text-anchor="middle" style="fill:#e8a951;font:700 8px Inter,sans-serif;letter-spacing:1.2px">RT</text>

<!-- Middle: dsDNA -->
<g transform="translate(265 145)">
  <text x="0" y="-78" text-anchor="middle" style="fill:#9370b9;font:700 9px Inter,sans-serif;letter-spacing:1.5px">dsDNA</text>
  <g stroke="#9370b9" stroke-width="2" fill="none">
    <path d="M -28 -8 Q -22 -10 -16 -8 Q -10 -6 -4 -8 Q 2 -10 8 -8 Q 14 -6 20 -8 Q 26 -10 28 -8"/>
    <path d="M -28 8 Q -22 10 -16 8 Q -10 6 -4 8 Q 2 10 8 8 Q 14 6 20 8 Q 26 10 28 8"/>
  </g>
  <g stroke="#9370b9" stroke-width="0.8">
    <line x1="-22" y1="-9" x2="-22" y2="9"/>
    <line x1="-12" y1="-7" x2="-12" y2="9"/>
    <line x1="0" y1="-9" x2="0" y2="9"/>
    <line x1="12" y1="-7" x2="12" y2="9"/>
    <line x1="22" y1="-9" x2="22" y2="9"/>
  </g>
  <text x="0" y="32" text-anchor="middle" style="fill:#b4becf;font:7px Inter,sans-serif">in cytoplasm</text>
</g>

<!-- Arrow with integrase -->
<g stroke="#e8a951" stroke-width="2.4" fill="none" marker-end="url(#arr14_1_1a)">
  <line x1="305" y1="145" x2="365" y2="145"/>
</g>
<text x="335" y="135" text-anchor="middle" style="fill:#e8a951;font:700 8px Inter,sans-serif;letter-spacing:1.2px">IN</text>

<!-- Stage 3: Host genome with integrated provirus -->
<g transform="translate(415 145)">
  <text x="0" y="-78" text-anchor="middle" style="fill:#9370b9;font:700 9px Inter,sans-serif;letter-spacing:1.5px">HOST GENOME</text>
  <!-- Long DNA -->
  <g stroke="#b4becf" stroke-width="2" fill="none">
    <path d="M -40 -10 Q -32 -12 -24 -10 Q -16 -8 -8 -10 Q 0 -12 8 -10 Q 16 -8 24 -10 Q 32 -12 40 -10"/>
    <path d="M -40 10 Q -32 12 -24 10 Q -16 8 -8 10 Q 0 12 8 10 Q 16 8 24 10 Q 32 12 40 10"/>
  </g>
  <!-- Integrated provirus highlighted -->
  <rect x="-12" y="-13" width="24" height="26" fill="rgba(209,72,89,0.45)" stroke="#d14859" stroke-width="1.6"/>
  <text x="0" y="3" text-anchor="middle" style="fill:#fff;font:700 7px Inter,sans-serif">HIV</text>
  <text x="0" y="32" text-anchor="middle" style="fill:#d14859;font:italic 700 7px Fraunces,serif">PROVIRUS · permanent</text>
</g>

<text x="250" y="245" text-anchor="middle" style="fill:#6b7689;font:italic 7.5px Fraunces,serif">RNA → DNA → host genome integration · the defining retroviral feature</text>

                  <!-- FOCUS · audio-aligned attention marker -->
                  <circle cx="415" cy="172" r="30" fill="none" stroke="#d14859" stroke-width="1.8" stroke-dasharray="3 2" opacity="0.85">
                    <animate attributeName="r" values="26;36;26" dur="2.4s" repeatCount="indefinite"/>
                    <animate attributeName="opacity" values="0.85;0.20;0.85" dur="2.4s" repeatCount="indefinite"/>
                  </circle>
</svg>
