<?xml version="1.0" encoding="UTF-8"?>
<!--
  Auto-generated from the reference HTML by
  scripts/storymode-extraction/extract.mjs.
  Do not edit by hand — regenerate the file instead.
-->
<svg xmlns="http://www.w3.org/2000/svg" xmlns:xlink="http://www.w3.org/1999/xlink" viewBox="0 0 500 260" preserveAspectRatio="xMidYMid meet">
<text x="20" y="16" style="fill:#e8a951;font:600 9px Inter,sans-serif;letter-spacing:2px">STEP 03 · Th1 + APC · IFN-γ RELEASED</text>

<!-- APC presenting -->
<g transform="translate(120 145)">
  <text x="0" y="-72" text-anchor="middle" style="fill:#9370b9;font:700 9px Inter,sans-serif;letter-spacing:1.5px">DERMAL APC</text>
  <circle cx="0" cy="0" r="38" fill="rgba(147,112,185,0.30)" stroke="#9370b9" stroke-width="1.8"/>
  <ellipse cx="-5" cy="-2" rx="10" ry="8" fill="#4a2d60" opacity="0.7"/>
  <!-- MHC II + peptide -->
  <g transform="translate(40 -5)">
    <path d="M -10 8 L -10 -2 L -3 -2 L -3 -7 L 3 -7 L 3 -2 L 10 -2 L 10 8 Z" fill="#9370b9" fill-opacity="0.95" stroke="#9370b9" stroke-width="1.4"/>
    <rect x="-3" y="-6" width="6" height="3" fill="#e8a951"/>
    <text x="20" y="-8" style="fill:#9370b9;font:700 6.5px 'JetBrains Mono',monospace">MHC II</text>
    <text x="20" y="3" style="fill:#e8a951;font:700 6.5px 'JetBrains Mono',monospace">+ TB pep</text>
  </g>
</g>

<!-- TCR engagement (line) -->
<line x1="180" y1="135" x2="320" y2="135" stroke="#9370b9" stroke-width="2.2"/>

<!-- Memory Th1 cell -->
<g transform="translate(370 145)">
  <text x="0" y="-72" text-anchor="middle" style="fill:#6cc27d;font:700 9px Inter,sans-serif;letter-spacing:1.5px">MEMORY Th1</text>
  <circle cx="0" cy="0" r="36" fill="rgba(108,194,125,0.30)" stroke="#6cc27d" stroke-width="1.8"/>
  <ellipse cx="3" cy="-3" rx="9" ry="7" fill="#1d4422" opacity="0.7"/>
  <text x="0" y="3" text-anchor="middle" style="fill:#e8ecf3;font:700 9px Inter,sans-serif">Th1</text>
  
  <!-- TCR -->
  <g transform="translate(-36 -5)">
    <rect x="-7" y="-7" width="14" height="14" rx="2" fill="#9370b9" fill-opacity="0.85" stroke="#9370b9" stroke-width="1.2"/>
    <text x="14" y="-12" style="fill:#9370b9;font:700 6.5px 'JetBrains Mono',monospace">TCR</text>
  </g>
  
  <!-- IFN-gamma signaled out -->
  <g transform="translate(40 0)">
    <text x="0" y="-15" style="fill:#e8a951;font:700 9px Inter,sans-serif">IFN-γ</text>
    <g fill="#e8a951" fill-opacity="0.85">
      <circle cx="6" cy="0" r="2.5"/>
      <circle cx="12" cy="-6" r="2.5"/>
      <circle cx="14" cy="6" r="2.5"/>
      <circle cx="20" cy="-2" r="2.5"/>
      <circle cx="22" cy="10" r="2.5"/>
    </g>
  </g>
</g>

<text x="250" y="245" text-anchor="middle" style="fill:#6b7689;font:italic 7.5px Fraunces,serif">Same biology as poison ivy elicitation · IFN-γ is the signature Th1 cytokine</text>

                  <!-- FOCUS · audio-aligned attention marker -->
                  <circle cx="180" cy="138" r="20" fill="none" stroke="#d14859" stroke-width="1.8" stroke-dasharray="3 2" opacity="0.85">
                    <animate attributeName="r" values="16;26;16" dur="2.4s" repeatCount="indefinite"/>
                    <animate attributeName="opacity" values="0.85;0.20;0.85" dur="2.4s" repeatCount="indefinite"/>
                  </circle>
</svg>
