<?xml version="1.0" encoding="UTF-8"?>
<!--
  Auto-generated from the reference HTML by
  scripts/storymode-extraction/extract.mjs.
  Do not edit by hand — regenerate the file instead.
-->
<svg xmlns="http://www.w3.org/2000/svg" xmlns:xlink="http://www.w3.org/1999/xlink" viewBox="0 0 500 260" preserveAspectRatio="xMidYMid meet">
<text x="20" y="16" style="fill:#e8a951;font:600 9px Inter,sans-serif;letter-spacing:2px">STEP 04 · RT INCORPORATES NRTI-TP</text>

<!-- DNA strand being made by RT -->
<g transform="translate(250 145)">
  <text x="0" y="-95" text-anchor="middle" style="fill:#9370b9;font:700 9px Inter,sans-serif;letter-spacing:1.5px">RT ADDING NUCLEOTIDES</text>
  
  <!-- RT enzyme on left -->
  <g transform="translate(-150 0)">
    <ellipse cx="0" cy="0" rx="40" ry="28" fill="rgba(147,112,185,0.45)" stroke="#9370b9" stroke-width="1.6"/>
    <text x="0" y="3" text-anchor="middle" style="fill:#0a0e1a;font:700 11px Inter,sans-serif">RT</text>
    <text x="0" y="42" text-anchor="middle" style="fill:#9370b9;font:6.5px Inter,sans-serif">no proofreading</text>
  </g>
  
  <!-- Template strand on top -->
  <g transform="translate(0 -25)">
    <line x1="-90" y1="0" x2="120" y2="0" stroke="#e8a951" stroke-width="2"/>
    <g fill="rgba(232,169,81,0.85)">
      <circle cx="-80" cy="0" r="4"/>
      <circle cx="-60" cy="0" r="4"/>
      <circle cx="-40" cy="0" r="4"/>
      <circle cx="-20" cy="0" r="4"/>
      <circle cx="0" cy="0" r="4"/>
      <circle cx="20" cy="0" r="4"/>
      <circle cx="40" cy="0" r="4"/>
      <circle cx="60" cy="0" r="4"/>
      <circle cx="80" cy="0" r="4"/>
      <circle cx="100" cy="0" r="4"/>
    </g>
    <text x="-100" y="3" text-anchor="end" style="fill:#e8a951;font:6px Inter,sans-serif">RNA template</text>
  </g>
  
  <!-- Growing DNA strand below -->
  <g transform="translate(0 25)">
    <line x1="-90" y1="0" x2="0" y2="0" stroke="#9370b9" stroke-width="2"/>
    <g fill="rgba(147,112,185,0.85)">
      <circle cx="-80" cy="0" r="4"/>
      <circle cx="-60" cy="0" r="4"/>
      <circle cx="-40" cy="0" r="4"/>
      <circle cx="-20" cy="0" r="4"/>
      <circle cx="0" cy="0" r="4"/>
    </g>
    <text x="-100" y="3" text-anchor="end" style="fill:#9370b9;font:6px Inter,sans-serif">new DNA</text>
  </g>
  
  <!-- Vertical pairing lines -->
  <g stroke="#6b7689" stroke-width="0.6" stroke-dasharray="1.5 1">
    <line x1="-80" y1="-20" x2="-80" y2="20"/>
    <line x1="-60" y1="-20" x2="-60" y2="20"/>
    <line x1="-40" y1="-20" x2="-40" y2="20"/>
    <line x1="-20" y1="-20" x2="-20" y2="20"/>
    <line x1="0" y1="-20" x2="0" y2="20"/>
  </g>
  
  <!-- NRTI-TP being added (red, mistaken for natural) -->
  <g transform="translate(20 25)">
    <circle cx="0" cy="0" r="5" fill="rgba(209,72,89,0.95)" stroke="#d14859" stroke-width="1.4"/>
    <!-- Phosphate tail -->
    <g fill="#9370b9">
      <circle cx="6" cy="6" r="2.5"/>
      <circle cx="11" cy="10" r="2.5"/>
      <circle cx="16" cy="13" r="2.5"/>
    </g>
    <text x="0" y="-12" text-anchor="middle" style="fill:#d14859;font:700 7px Inter,sans-serif">NRTI</text>
  </g>
  
  <!-- Pairing with template position -->
  <line x1="20" y1="-20" x2="20" y2="20" stroke="#d14859" stroke-width="1" stroke-dasharray="2 1"/>
</g>

<text x="250" y="245" text-anchor="middle" style="fill:#6b7689;font:italic 7.5px Fraunces,serif">Without proofreading, RT can't tell analog from natural · NRTI added to chain</text>

                  <!-- FOCUS · audio-aligned attention marker -->
                  <circle cx="250" cy="45" r="32" fill="none" stroke="#d14859" stroke-width="1.8" stroke-dasharray="3 2" opacity="0.85">
                    <animate attributeName="r" values="28;38;28" dur="2.4s" repeatCount="indefinite"/>
                    <animate attributeName="opacity" values="0.85;0.20;0.85" dur="2.4s" repeatCount="indefinite"/>
                  </circle>

                  <!-- FOCUS · audio-aligned attention marker -->
                  <circle cx="100" cy="182" r="22" fill="none" stroke="#d14859" stroke-width="1.8" stroke-dasharray="3 2" opacity="0.85">
                    <animate attributeName="r" values="18;28;18" dur="2.4s" repeatCount="indefinite"/>
                    <animate attributeName="opacity" values="0.85;0.20;0.85" dur="2.4s" repeatCount="indefinite"/>
                  </circle>

                  <!-- FOCUS · audio-aligned attention marker -->
                  <circle cx="150" cy="168" r="20" fill="none" stroke="#d14859" stroke-width="1.8" stroke-dasharray="3 2" opacity="0.85">
                    <animate attributeName="r" values="16;26;16" dur="2.4s" repeatCount="indefinite"/>
                    <animate attributeName="opacity" values="0.85;0.20;0.85" dur="2.4s" repeatCount="indefinite"/>
                  </circle>
              </svg>
