<?xml version="1.0" encoding="UTF-8"?>
<!--
  Auto-generated from the reference HTML by
  scripts/storymode-extraction/extract.mjs.
  Do not edit by hand — regenerate the file instead.
-->
<svg xmlns="http://www.w3.org/2000/svg" xmlns:xlink="http://www.w3.org/1999/xlink" viewBox="0 0 500 260" preserveAspectRatio="xMidYMid meet">
<text x="20" y="16" style="fill:#e8a951;font:600 9px Inter,sans-serif;letter-spacing:2px">STEP 02 · LIVE VIRUS · HEALTHY vs SCID</text>

<!-- HEALTHY HOST -->
<g transform="translate(135 130)">
  <text x="0" y="-72" text-anchor="middle" style="fill:#6cc27d;font:700 9px Inter,sans-serif;letter-spacing:1.5px">HEALTHY</text>
  
  <!-- Host body silhouette -->
  <ellipse cx="0" cy="0" rx="60" ry="50" fill="rgba(108,194,125,0.10)" stroke="#6cc27d" stroke-width="1.6" stroke-dasharray="3 2"/>
  
  <!-- 2 viruses (faded, getting cleared) -->
  <g opacity="0.55">
    <g transform="translate(-20 -10)">
      <circle cx="0" cy="0" r="6" fill="#d14859" stroke="#d14859" stroke-width="0.8"/>
      <line x1="0" y1="-6" x2="0" y2="-9" stroke="#d14859" stroke-width="0.8"/>
      <line x1="6" y1="0" x2="9" y2="0" stroke="#d14859" stroke-width="0.8"/>
      <line x1="0" y1="6" x2="0" y2="9" stroke="#d14859" stroke-width="0.8"/>
      <line x1="-6" y1="0" x2="-9" y2="0" stroke="#d14859" stroke-width="0.8"/>
      <line x1="4.2" y1="-4.2" x2="6.4" y2="-6.4" stroke="#d14859" stroke-width="0.8"/>
      <line x1="-4.2" y1="-4.2" x2="-6.4" y2="-6.4" stroke="#d14859" stroke-width="0.8"/>
      <line x1="4.2" y1="4.2" x2="6.4" y2="6.4" stroke="#d14859" stroke-width="0.8"/>
      <line x1="-4.2" y1="4.2" x2="-6.4" y2="6.4" stroke="#d14859" stroke-width="0.8"/>
    </g>
  </g>
  
  <!-- T cells (active, multiple) -->
  <g>
    <circle cx="-8" cy="20" r="10" fill="rgba(108,194,125,0.85)" stroke="#6cc27d" stroke-width="1.4"/>
    <text x="-8" y="23" text-anchor="middle" style="fill:#0a0e1a;font:700 8px Inter,sans-serif">T</text>
    <circle cx="20" cy="0" r="10" fill="rgba(108,194,125,0.85)" stroke="#6cc27d" stroke-width="1.4"/>
    <text x="20" y="3" text-anchor="middle" style="fill:#0a0e1a;font:700 8px Inter,sans-serif">T</text>
    <circle cx="-25" cy="-15" r="10" fill="rgba(108,194,125,0.85)" stroke="#6cc27d" stroke-width="1.4"/>
    <text x="-25" y="-12" text-anchor="middle" style="fill:#0a0e1a;font:700 8px Inter,sans-serif">T</text>
  </g>
  <!-- Attack arrows from T to virus -->
  <g stroke="#6cc27d" stroke-width="1.4" fill="none" stroke-dasharray="2 2">
    <line x1="-15" y1="-7" x2="-22" y2="-12"/>
  </g>
  
  <text x="0" y="62" text-anchor="middle" style="fill:#6cc27d;font:700 8.5px Inter,sans-serif;letter-spacing:1.2px">VIRUS CLEARED ✓</text>
</g>

<!-- Vertical separator -->
<line x1="250" y1="55" x2="250" y2="220" stroke="#3a4358" stroke-width="1.4" stroke-dasharray="3 3"/>

<!-- SCID HOST -->
<g transform="translate(370 130)">
  <text x="0" y="-72" text-anchor="middle" style="fill:#d14859;font:700 9px Inter,sans-serif;letter-spacing:1.5px">SCID</text>
  
  <ellipse cx="0" cy="0" rx="60" ry="50" fill="rgba(209,72,89,0.08)" stroke="#d14859" stroke-width="1.6" stroke-dasharray="3 2"/>
  
  <!-- MANY viruses, full color -->
  <g fill="rgba(209,72,89,0.95)" stroke="#d14859" stroke-width="1">
    <g transform="translate(-30 -20)"><circle r="5"/><line x1="0" y1="-5" x2="0" y2="-8" stroke-width="1"/><line x1="5" y1="0" x2="8" y2="0" stroke-width="1"/><line x1="0" y1="5" x2="0" y2="8" stroke-width="1"/><line x1="-5" y1="0" x2="-8" y2="0" stroke-width="1"/></g>
    <g transform="translate(-10 -25)"><circle r="5"/><line x1="0" y1="-5" x2="0" y2="-8" stroke-width="1"/><line x1="5" y1="0" x2="8" y2="0" stroke-width="1"/><line x1="0" y1="5" x2="0" y2="8" stroke-width="1"/><line x1="-5" y1="0" x2="-8" y2="0" stroke-width="1"/></g>
    <g transform="translate(15 -22)"><circle r="5"/><line x1="0" y1="-5" x2="0" y2="-8" stroke-width="1"/><line x1="5" y1="0" x2="8" y2="0" stroke-width="1"/><line x1="0" y1="5" x2="0" y2="8" stroke-width="1"/><line x1="-5" y1="0" x2="-8" y2="0" stroke-width="1"/></g>
    <g transform="translate(30 -10)"><circle r="5"/><line x1="0" y1="-5" x2="0" y2="-8" stroke-width="1"/><line x1="5" y1="0" x2="8" y2="0" stroke-width="1"/><line x1="0" y1="5" x2="0" y2="8" stroke-width="1"/><line x1="-5" y1="0" x2="-8" y2="0" stroke-width="1"/></g>
    <g transform="translate(-25 0)"><circle r="5"/><line x1="0" y1="-5" x2="0" y2="-8" stroke-width="1"/><line x1="5" y1="0" x2="8" y2="0" stroke-width="1"/><line x1="0" y1="5" x2="0" y2="8" stroke-width="1"/><line x1="-5" y1="0" x2="-8" y2="0" stroke-width="1"/></g>
    <g transform="translate(0 0)"><circle r="5"/><line x1="0" y1="-5" x2="0" y2="-8" stroke-width="1"/><line x1="5" y1="0" x2="8" y2="0" stroke-width="1"/><line x1="0" y1="5" x2="0" y2="8" stroke-width="1"/><line x1="-5" y1="0" x2="-8" y2="0" stroke-width="1"/></g>
    <g transform="translate(20 5)"><circle r="5"/><line x1="0" y1="-5" x2="0" y2="-8" stroke-width="1"/><line x1="5" y1="0" x2="8" y2="0" stroke-width="1"/><line x1="0" y1="5" x2="0" y2="8" stroke-width="1"/><line x1="-5" y1="0" x2="-8" y2="0" stroke-width="1"/></g>
    <g transform="translate(-15 18)"><circle r="5"/><line x1="0" y1="-5" x2="0" y2="-8" stroke-width="1"/><line x1="5" y1="0" x2="8" y2="0" stroke-width="1"/><line x1="0" y1="5" x2="0" y2="8" stroke-width="1"/><line x1="-5" y1="0" x2="-8" y2="0" stroke-width="1"/></g>
    <g transform="translate(8 22)"><circle r="5"/><line x1="0" y1="-5" x2="0" y2="-8" stroke-width="1"/><line x1="5" y1="0" x2="8" y2="0" stroke-width="1"/><line x1="0" y1="5" x2="0" y2="8" stroke-width="1"/><line x1="-5" y1="0" x2="-8" y2="0" stroke-width="1"/></g>
    <g transform="translate(28 18)"><circle r="5"/><line x1="0" y1="-5" x2="0" y2="-8" stroke-width="1"/><line x1="5" y1="0" x2="8" y2="0" stroke-width="1"/><line x1="0" y1="5" x2="0" y2="8" stroke-width="1"/><line x1="-5" y1="0" x2="-8" y2="0" stroke-width="1"/></g>
  </g>
  
  <!-- Empty T cell with X -->
  <g transform="translate(-30 30)">
    <circle r="11" fill="rgba(107,118,137,0.20)" stroke="#6b7689" stroke-width="1.4" stroke-dasharray="2 2"/>
    <line x1="-7" y1="-7" x2="7" y2="7" stroke="#d14859" stroke-width="2.4" stroke-linecap="round"/>
    <line x1="-7" y1="7" x2="7" y2="-7" stroke="#d14859" stroke-width="2.4" stroke-linecap="round"/>
  </g>
  <text x="-30" y="55" text-anchor="middle" style="fill:#d14859;font:700 7px Inter,sans-serif">no T</text>
  
  <text x="0" y="62" text-anchor="middle" style="fill:#d14859;font:700 8.5px Inter,sans-serif;letter-spacing:1.2px">VIRUS UNCONTROLLED ✗</text>
</g>

<text x="250" y="245" text-anchor="middle" style="fill:#6b7689;font:italic 7.5px Fraunces,serif">No T cells = even attenuated vaccine virus replicates freely</text>

                  <!-- FOCUS · audio-aligned attention marker -->
                  <circle cx="201" cy="115" r="60" fill="none" stroke="#d14859" stroke-width="1.8" stroke-dasharray="3 2" opacity="0.85">
                    <animate attributeName="r" values="56;66;56" dur="2.4s" repeatCount="indefinite"/>
                    <animate attributeName="opacity" values="0.85;0.20;0.85" dur="2.4s" repeatCount="indefinite"/>
                  </circle>
</svg>
