<?xml version="1.0" encoding="UTF-8"?>
<!--
  Auto-generated from the reference HTML by
  scripts/storymode-extraction/extract.mjs.
  Do not edit by hand — regenerate the file instead.
-->
<svg xmlns="http://www.w3.org/2000/svg" xmlns:xlink="http://www.w3.org/1999/xlink" viewBox="0 0 500 260" preserveAspectRatio="xMidYMid meet">
                  <text x="20" y="22" style="fill:#e8a951;font:600 10px Inter,sans-serif;letter-spacing:2px">STEP 08 · THE REVEAL · DOWNEY CELL = REACTIVE CD8</text>

                  <g opacity="1"><circle cx="130" cy="145" r="42" fill="#9370b9" fill-opacity="0.35" stroke="#9370b9" stroke-width="1.8"></circle><ellipse cx="125" cy="140" rx="14" ry="11" fill="#4a2d60" opacity="0.75"></ellipse>
                      <g fill="#d14859">
                        <circle cx="115" cy="125" r="4" fill-opacity="0.85" stroke="#d14859" stroke-width="1"></circle>
                        <circle cx="148" cy="135" r="4" fill-opacity="0.85" stroke="#d14859" stroke-width="1"></circle>
                        <circle cx="120" cy="160" r="4" fill-opacity="0.85" stroke="#d14859" stroke-width="1"></circle>
                        <circle cx="145" cy="165" r="4" fill-opacity="0.85" stroke="#d14859" stroke-width="1"></circle>
                      </g>
    
                      <g transform="translate(168 155) rotate(90)">
                        <path d="M -12 0 L 12 0 L 14 8 L 7 8 L 5 4 L -5 4 L -7 8 L -14 8 Z" fill="#e8a951" fill-opacity="0.85" stroke="#e8a951" stroke-width="1.2"></path>
                        <circle cx="-3" cy="-2.5" r="2" fill="#d14859"></circle>
                        <circle cx="0" cy="-2.5" r="2" fill="#d14859"></circle>
                        <circle cx="3" cy="-2.5" r="2" fill="#d14859"></circle>
                      </g>
                    </g><text x="130" y="205" text-anchor="middle" style="fill:#9370b9;font:600 8px Inter,sans-serif;letter-spacing:1.2px">INFECTED B CELL</text><g opacity="1"><path d="M 370 100 Q 410 95 420 130 Q 425 165 410 185 Q 395 200 365 195 Q 345 200 332 195 Q 320 190 322 170 Q 320 152 335 145 Q 322 130 330 115 Q 345 100 370 100 Z" fill="#e8a951" fill-opacity="0.40" stroke="#e8a951" stroke-width="2"></path><ellipse cx="365" cy="140" rx="16" ry="13" fill="#4a2d60" opacity="0.8"></ellipse>
                      <g transform="translate(325 145)">
                        <path d="M 0 0 L 12 -8 L 12 8 Z" fill="#e8a951" opacity="0.95" transform="rotate(180)"></path>
                        <text x="-15" y="-8" style="fill:#e8a951;font:600 8px Inter,sans-serif">TCR</text>
                      </g>
    
                      <g>
                        <ellipse cx="335" cy="170" rx="10" ry="7" fill="#d14859" fill-opacity="0.85" stroke="#d14859" stroke-width="1"></ellipse>
                        <ellipse cx="335" cy="170" rx="4.5" ry="3" fill="#1a2030" opacity="0.85"></ellipse>
                      </g>
                      <g>
                        <ellipse cx="430" cy="155" rx="10" ry="7" fill="#d14859" fill-opacity="0.85" stroke="#d14859" stroke-width="1"></ellipse>
                        <ellipse cx="430" cy="155" rx="4.5" ry="3" fill="#1a2030" opacity="0.85"></ellipse>
                      </g>
                    <text x="370" y="220" text-anchor="middle" style="fill:#e8a951;font:600 8px Inter,sans-serif;letter-spacing:1.2px">DOWNEY CELL</text><text x="370" y="232" text-anchor="middle" style="fill:#b4becf;font:italic 7px Fraunces,serif">reactive CD8</text></g>

                  <!-- Big revelation arrow + label pointing at the Downey cell -->
                  <g transform="translate(370 70)">
                    <rect x="-70" y="-12" width="140" height="22" rx="11" fill="#e8a951" fill-opacity="0.30" stroke="#e8a951" stroke-width="1.6"></rect>
                    <text x="0" y="3" text-anchor="middle" style="fill:#e8a951;font:700 8px Inter,sans-serif;letter-spacing:1.5px">= ATYPICAL LYMPH</text>
                  </g>
                  <path d="M 370 84 L 370 100" stroke="#e8a951" stroke-width="1.4" fill="none"></path>
                  <polygon points="370,100 366,93 374,93" fill="#e8a951"></polygon>

                  <text x="250" y="252" text-anchor="middle" style="fill:#b4becf;font:italic 10px Fraunces,serif">the unusual cell on the smear is just an expanded, working CD8 — Downey cell</text>

                  <!-- FOCUS · audio-aligned attention marker -->
                  <circle cx="370" cy="215" r="20" fill="none" stroke="#d14859" stroke-width="1.8" stroke-dasharray="3 2" opacity="0.85">
                    <animate attributeName="r" values="16;26;16" dur="2.4s" repeatCount="indefinite"/>
                    <animate attributeName="opacity" values="0.85;0.20;0.85" dur="2.4s" repeatCount="indefinite"/>
                  </circle>
</svg>
