<?xml version="1.0" encoding="UTF-8"?>
<!--
  Auto-generated from the reference HTML by
  scripts/storymode-extraction/extract.mjs.
  Do not edit by hand — regenerate the file instead.
-->
<svg xmlns="http://www.w3.org/2000/svg" xmlns:xlink="http://www.w3.org/1999/xlink" viewBox="0 0 500 260" preserveAspectRatio="xMidYMid meet">
<text x="20" y="16" style="fill:#e8a951;font:600 9px Inter,sans-serif;letter-spacing:2px">STEP 04 · ADULT DM · CANCER SCREEN MANDATORY</text><g>
    <rect x="20" y="30" width="190" height="14" rx="7" fill="rgba(232, 169, 81, 0.18)" stroke="#e8a951" stroke-width="1"/>
    <text x="115" y="40" text-anchor="middle" style="fill:#e8a951;font:700 7.5px Inter,sans-serif;letter-spacing:1.2px">DM · CD4 · MICROVASCULOPATHY</text>
  </g><text x="30" y="62" style="fill:#b4becf;font:600 7px 'JetBrains Mono',monospace;letter-spacing:1.5px">PATIENT</text><text x="470" y="62" text-anchor="end" style="fill:#3a4358;font:600 7px 'JetBrains Mono',monospace;letter-spacing:1.5px">MUSCLE BIOPSY</text><g opacity="1">
    <g stroke="#b4becf" stroke-width="1.5" fill="#b4becf" fill-opacity="0.15">
      <circle cx="70" cy="80" r="11"/>
      <path d="M 60 92 Q 55 102 55 130 L 55 150 Q 60 158 70 158 Q 80 158 85 150 L 85 130 Q 85 102 80 92 Z"/>
      <path d="M 55 102 Q 39 112 35 138" fill="none"/>
      <path d="M 85 102 Q 101 112 105 138" fill="none"/>
      <path d="M 62 158 Q 60 168 60 178" fill="none"/>
      <path d="M 78 158 Q 80 168 80 178" fill="none"/>
    </g><g opacity="0.95">
      <!-- shoulder zigzag (weakness symbol) -->
      <g stroke="#d14859" stroke-width="1.2" fill="none">
        <path d="M 56 100 L 60 102 L 56 104 L 60 106"/>
        <path d="M 84 100 L 80 102 L 84 104 L 80 106"/>
      </g>
      <!-- hip zigzag -->
      <g stroke="#d14859" stroke-width="1.2" fill="none">
        <path d="M 60 152 L 64 154 L 60 156 L 64 158"/>
        <path d="M 80 152 L 76 154 L 80 156 L 76 158"/>
      </g>
    </g><g opacity="0.95">
      <circle cx="95" cy="100" r="6" fill="#0a0e1a" stroke="#d14859" stroke-width="1.3"/>
      <text x="95" y="103" text-anchor="middle" style="fill:#d14859;font:700 8px Inter,sans-serif">W</text>
    </g><g opacity="0.95">
      <ellipse cx="65" cy="78" rx="3" ry="1.5" fill="#9370b9" opacity="0.85"/>
      <ellipse cx="75" cy="78" rx="3" ry="1.5" fill="#9370b9" opacity="0.85"/>
    </g><g opacity="0.95">
      <circle cx="95" cy="75" r="6" fill="#0a0e1a" stroke="#d14859" stroke-width="1.3"/>
      <text x="95" y="78" text-anchor="middle" style="fill:#d14859;font:700 8px Inter,sans-serif">H</text>
    </g><g opacity="0.95">
      <!-- left hand papules -->
      <circle cx="33" cy="138" r="1.3" fill="#9370b9" opacity="0.9"/>
      <circle cx="37" cy="140" r="1.3" fill="#9370b9" opacity="0.9"/>
      <circle cx="35" cy="142" r="1.3" fill="#9370b9" opacity="0.9"/>
      <!-- right hand papules -->
      <circle cx="103" cy="138" r="1.3" fill="#9370b9" opacity="0.9"/>
      <circle cx="107" cy="140" r="1.3" fill="#9370b9" opacity="0.9"/>
      <circle cx="105" cy="142" r="1.3" fill="#9370b9" opacity="0.9"/>
    </g><g opacity="0.95">
      <circle cx="120" cy="140" r="6" fill="#0a0e1a" stroke="#d14859" stroke-width="1.3"/>
      <text x="120" y="143" text-anchor="middle" style="fill:#d14859;font:700 8px Inter,sans-serif">G</text>
    </g><g>
      <rect x="40" y="170" width="60" height="14" rx="7" fill="rgba(209, 72, 89, 0.18)" stroke="#d14859" stroke-width="0.9"/>
      <text x="70" y="180" text-anchor="middle" style="fill:#d14859;font:700 7.5px Inter,sans-serif;letter-spacing:0.8px">↑ CK</text>
    </g></g><g opacity="1"><g>
      <circle cx="170" cy="76" r="6" fill="#0a0e1a" stroke="#d14859" stroke-width="1.2"/>
      <text x="170" y="79" text-anchor="middle" style="fill:#d14859;font:700 8px Inter,sans-serif">W</text>
      <text x="182" y="79" style="fill:#b4becf;font:600 8px Inter,sans-serif">Weakness · proximal</text>
    </g><g>
      <circle cx="170" cy="93" r="6" fill="#0a0e1a" stroke="#d14859" stroke-width="1.2"/>
      <text x="170" y="96" text-anchor="middle" style="fill:#d14859;font:700 8px Inter,sans-serif">H</text>
      <text x="182" y="96" style="fill:#b4becf;font:600 8px Inter,sans-serif">Heliotrope rash</text>
    </g><g>
      <circle cx="170" cy="110" r="6" fill="#0a0e1a" stroke="#d14859" stroke-width="1.2"/>
      <text x="170" y="113" text-anchor="middle" style="fill:#d14859;font:700 8px Inter,sans-serif">G</text>
      <text x="182" y="113" style="fill:#b4becf;font:600 8px Inter,sans-serif">Gottron papules</text>
    </g><g opacity="1">
    <text x="170" y="138" style="fill:#6b7689;font:italic 7.5px Fraunces,serif">+ ↑ CK · myopathic EMG</text>
  </g></g><g transform="translate(355 115)">
    <rect x="-115" y="-50" width="230" height="100" rx="6" fill="rgba(209, 72, 89, 0.14)" stroke="#d14859" stroke-width="1.4"/>
    <text x="0" y="-32" text-anchor="middle" style="fill:#d14859;font:700 9px Inter,sans-serif;letter-spacing:1.5px">⚠ CANCER SCREEN · ADULT DM</text>
    <text x="0" y="-17" text-anchor="middle" style="fill:#e8a951;font:700 8.5px Inter,sans-serif">15-30% PARANEOPLASTIC</text>
    <g style="font:7.5px Inter,sans-serif;fill:#b4becf">
      <text x="-100" y="-2">most common targets:</text>
      <text x="-100" y="11">• ovarian · lung · breast</text>
      <text x="-100" y="22">• GI · lymphoma</text>
      <text x="0" y="36" text-anchor="middle" style="fill:#6b7689;font-style:italic">age-appropriate screen at diagnosis</text>
    </g>
  </g>
              
                  

                  

                  
              
                  <!-- FOCUS · audio-aligned attention marker -->
                  <circle cx="355" cy="146" r="40" fill="none" stroke="#d14859" stroke-width="1.8" stroke-dasharray="3 2" opacity="0.85">
                    <animate attributeName="r" values="36;46;36" dur="2.4s" repeatCount="indefinite"/>
                    <animate attributeName="opacity" values="0.85;0.20;0.85" dur="2.4s" repeatCount="indefinite"/>
                  </circle>

                  <!-- FOCUS · audio-aligned attention marker -->
                  <circle cx="355" cy="78" r="39" fill="none" stroke="#d14859" stroke-width="1.8" stroke-dasharray="3 2" opacity="0.85">
                    <animate attributeName="r" values="35;45;35" dur="2.4s" repeatCount="indefinite"/>
                    <animate attributeName="opacity" values="0.85;0.20;0.85" dur="2.4s" repeatCount="indefinite"/>
                  </circle>

                  <!-- FOCUS · audio-aligned attention marker -->
                  <circle cx="255" cy="121" r="38" fill="none" stroke="#d14859" stroke-width="1.8" stroke-dasharray="3 2" opacity="0.85">
                    <animate attributeName="r" values="34;44;34" dur="2.4s" repeatCount="indefinite"/>
                    <animate attributeName="opacity" values="0.85;0.20;0.85" dur="2.4s" repeatCount="indefinite"/>
                  </circle>
              </svg>
