<?xml version="1.0" encoding="UTF-8"?>
<!--
  Auto-generated from the reference HTML by
  scripts/storymode-extraction/extract.mjs.
  Do not edit by hand — regenerate the file instead.
-->
<svg xmlns="http://www.w3.org/2000/svg" xmlns:xlink="http://www.w3.org/1999/xlink" viewBox="0 0 500 260" preserveAspectRatio="xMidYMid meet">
<text x="20" y="16" style="fill:#e8a951;font:600 9px Inter,sans-serif;letter-spacing:2px">STEP 07 · ANSWER · B · GVHD · STEROIDS FIRST</text><g>
    <rect x="20" y="30" width="186" height="14" rx="7" fill="rgba(232, 169, 81, 0.18)" stroke="#e8a951" stroke-width="1"/>
    <text x="113" y="40" text-anchor="middle" style="fill:#e8a951;font:700 7.5px Inter,sans-serif;letter-spacing:1.2px">GVHD · DONOR T → HOST</text>
  </g><text x="30" y="62" style="fill:#b4becf;font:600 7px 'JetBrains Mono',monospace;letter-spacing:1.5px">BMT GRAFT</text><text x="470" y="62" text-anchor="end" style="fill:#b4becf;font:600 7px 'JetBrains Mono',monospace;letter-spacing:1.5px">HOST</text><g opacity="1">
    <path d="M 65 75 L 65 70 Q 65 67 68 67 L 122 67 Q 125 67 125 70 L 125 75 L 130 80 L 130 145 Q 130 155 120 155 L 70 155 Q 60 155 60 145 L 60 80 Z" 
          fill="#1a2030" stroke="#b4becf" stroke-width="1.4"/><circle cx="78" cy="92" r="2.5" fill="#d14859" opacity="0.85" stroke="#a53343" stroke-width="0.5"/><circle cx="95" cy="88" r="2.5" fill="#d14859" opacity="0.85" stroke="#a53343" stroke-width="0.5"/><circle cx="112" cy="94" r="2.5" fill="#d14859" opacity="0.85" stroke="#a53343" stroke-width="0.5"/><circle cx="82" cy="108" r="2.5" fill="#d14859" opacity="0.85" stroke="#a53343" stroke-width="0.5"/><circle cx="105" cy="110" r="2.5" fill="#d14859" opacity="0.85" stroke="#a53343" stroke-width="0.5"/><circle cx="90" cy="122" r="2.5" fill="#d14859" opacity="0.85" stroke="#a53343" stroke-width="0.5"/><circle cx="110" cy="125" r="2.5" fill="#d14859" opacity="0.85" stroke="#a53343" stroke-width="0.5"/><circle cx="85" cy="100" r="1.6" fill="#9370b9" opacity="0.95"/><circle cx="102" cy="102" r="1.6" fill="#9370b9" opacity="0.95"/><circle cx="75" cy="118" r="1.6" fill="#9370b9" opacity="0.95"/><circle cx="99" cy="119" r="1.6" fill="#9370b9" opacity="0.95"/><circle cx="118" cy="115" r="1.6" fill="#9370b9" opacity="0.95"/><circle cx="80" cy="138" r="1.6" fill="#9370b9" opacity="0.95"/><circle cx="98" cy="138" r="1.6" fill="#9370b9" opacity="0.95"/><circle cx="115" cy="140" r="1.6" fill="#9370b9" opacity="0.95"/><circle cx="78" cy="130" r="1.6" fill="#9370b9" opacity="0.95"/><circle cx="110" cy="132" r="1.6" fill="#9370b9" opacity="0.95"/><g transform="translate(95 168)">
    <circle cx="-30" cy="0" r="2.5" fill="#d14859" opacity="0.85"/>
    <text x="-25" y="2" style="fill:#b4becf;font:6px 'JetBrains Mono',monospace">HSC</text>
    <circle cx="3" cy="0" r="1.6" fill="#9370b9" opacity="0.95"/>
    <text x="8" y="2" style="fill:#9370b9;font:600 6px 'JetBrains Mono',monospace">donor T</text>
  </g></g><g opacity="1"><text x="225" y="78" text-anchor="middle" style="fill:#e8a951;font:600 7px Inter,sans-serif;letter-spacing:0.5px">CONDITIONING</text><text x="225" y="88" text-anchor="middle" style="fill:#6b7689;font:italic 6px Fraunces,serif">TBI + chemo · host immunity ablated</text><g>
    <line x1="155" y1="115" x2="270" y2="115" stroke="#9370b9" stroke-width="2.4" stroke-linecap="round"/>
    <polygon points="265,108 280,115 265,122" fill="#9370b9" opacity="0.95"/>
  </g><circle cx="175" cy="110" r="1.6" fill="#9370b9" opacity="0.95"/><circle cx="195" cy="118" r="1.6" fill="#9370b9" opacity="0.95"/><circle cx="215" cy="112" r="1.6" fill="#9370b9" opacity="0.95"/><circle cx="235" cy="119" r="1.6" fill="#9370b9" opacity="0.95"/><circle cx="252" cy="113" r="1.6" fill="#9370b9" opacity="0.95"/><text x="225" y="135" text-anchor="middle" style="fill:#9370b9;font:700 7.5px Inter,sans-serif;letter-spacing:1px">DONOR T → ATTACK</text></g><g opacity="1">
    <g stroke="#b4becf" stroke-width="1.4" fill="#b4becf" fill-opacity="0.10">
      <circle cx="380" cy="80" r="11"/>
      <path d="M 368 92 Q 362 102 362 130 L 362 155 Q 368 163 380 163 Q 392 163 398 155 L 398 130 Q 398 102 392 92 Z"/>
      <path d="M 362 102 Q 346 112 342 138" fill="none"/>
      <path d="M 398 102 Q 414 112 418 138" fill="none"/>
      <path d="M 372 163 Q 370 173 370 180" fill="none"/>
      <path d="M 388 163 Q 390 173 390 180" fill="none"/>
    </g><g opacity="0.95">
      <circle cx="370" cy="105" r="1.5" fill="#d14859" opacity="0.85"/>
      <circle cx="378" cy="115" r="1.5" fill="#d14859" opacity="0.85"/>
      <circle cx="390" cy="108" r="1.5" fill="#d14859" opacity="0.85"/>
      <circle cx="385" cy="125" r="1.5" fill="#d14859" opacity="0.85"/>
      <circle cx="342" cy="138" r="2" fill="#d14859" opacity="0.85"/>
      <circle cx="418" cy="138" r="2" fill="#d14859" opacity="0.85"/>
    </g><g opacity="0.95">
      <circle cx="440" cy="110" r="6" fill="#0a0e1a" stroke="#d14859" stroke-width="1.3"/>
      <text x="440" y="113" text-anchor="middle" style="fill:#d14859;font:700 8px Inter,sans-serif">S</text>
    </g><g opacity="0.95">
      <ellipse cx="380" cy="140" rx="8" ry="6" fill="#d14859" fill-opacity="0.55" stroke="#d14859" stroke-width="1"/>
      <text x="380" y="143" text-anchor="middle" style="fill:#0a0e1a;font:700 6px Inter,sans-serif">↓</text>
    </g><g opacity="0.95">
      <circle cx="440" cy="140" r="6" fill="#0a0e1a" stroke="#d14859" stroke-width="1.3"/>
      <text x="440" y="143" text-anchor="middle" style="fill:#d14859;font:700 8px Inter,sans-serif">G</text>
    </g><g opacity="0.95">
      <path d="M 388 113 Q 393 110 396 115 Q 397 120 393 122 Q 388 124 385 120 Q 384 116 388 113 Z" fill="#d14859" fill-opacity="0.55" stroke="#d14859" stroke-width="1"/>
    </g><g opacity="0.95">
      <circle cx="440" cy="125" r="6" fill="#0a0e1a" stroke="#d14859" stroke-width="1.3"/>
      <text x="440" y="128" text-anchor="middle" style="fill:#d14859;font:700 8px Inter,sans-serif">L</text>
    </g></g><g opacity="1">
    <text x="250" y="195" text-anchor="middle" style="fill:#d14859;font:700 8px Inter,sans-serif;letter-spacing:1.2px">GVHD TRIAD: SKIN · GUT · LIVER</text>
  </g><g transform="translate(17 220)">
      <rect x="0" y="0" width="90" height="26" rx="13" fill="transparent" stroke="#3a4358" stroke-width="1"/>
      <circle cx="13" cy="13" r="8" fill="transparent" stroke="#3a4358" stroke-width="1.2"/>
      <text x="13" y="16.5" text-anchor="middle" style="fill:#6b7689;font:700 9px Inter,sans-serif">A</text>
      <text x="26" y="17" style="fill:#6b7689;font:8.5px Inter,sans-serif">CMV reactiv.</text>
      <line x1="26" y1="13" x2="84" y2="13" stroke="#6b7689" stroke-width="0.7" opacity="0.7"/>
    </g><g transform="translate(111 220)">
      <rect x="0" y="0" width="90" height="26" rx="13" fill="rgba(232, 169, 81, 0.18)" stroke="#e8a951" stroke-width="1.8"/>
      <circle cx="13" cy="13" r="8" fill="#e8a951" stroke="#e8a951" stroke-width="1.2"/>
      <text x="13" y="16.5" text-anchor="middle" style="fill:#0a0e1a;font:700 9px Inter,sans-serif">B</text>
      <text x="26" y="17" style="fill:#e8a951;font:8.5px Inter,sans-serif">GVHD</text>
      
    </g><g transform="translate(205 220)">
      <rect x="0" y="0" width="90" height="26" rx="13" fill="transparent" stroke="#3a4358" stroke-width="1"/>
      <circle cx="13" cy="13" r="8" fill="transparent" stroke="#3a4358" stroke-width="1.2"/>
      <text x="13" y="16.5" text-anchor="middle" style="fill:#6b7689;font:700 9px Inter,sans-serif">C</text>
      <text x="26" y="17" style="fill:#6b7689;font:8.5px Inter,sans-serif">cond. toxicity</text>
      <line x1="26" y1="13" x2="84" y2="13" stroke="#6b7689" stroke-width="0.7" opacity="0.7"/>
    </g><g transform="translate(299 220)">
      <rect x="0" y="0" width="90" height="26" rx="13" fill="transparent" stroke="#3a4358" stroke-width="1"/>
      <circle cx="13" cy="13" r="8" fill="transparent" stroke="#3a4358" stroke-width="1.2"/>
      <text x="13" y="16.5" text-anchor="middle" style="fill:#6b7689;font:700 9px Inter,sans-serif">D</text>
      <text x="26" y="17" style="fill:#6b7689;font:8.5px Inter,sans-serif">graft reject.</text>
      <line x1="26" y1="13" x2="84" y2="13" stroke="#6b7689" stroke-width="0.7" opacity="0.7"/>
    </g><g transform="translate(393 220)">
      <rect x="0" y="0" width="90" height="26" rx="13" fill="transparent" stroke="#3a4358" stroke-width="1"/>
      <circle cx="13" cy="13" r="8" fill="transparent" stroke="#3a4358" stroke-width="1.2"/>
      <text x="13" y="16.5" text-anchor="middle" style="fill:#6b7689;font:700 9px Inter,sans-serif">E</text>
      <text x="26" y="17" style="fill:#6b7689;font:8.5px Inter,sans-serif">AML relapse</text>
      <line x1="26" y1="13" x2="84" y2="13" stroke="#6b7689" stroke-width="0.7" opacity="0.7"/>
    </g>
              
                  
              
                  <!-- FOCUS · audio-aligned attention marker -->
                  <circle cx="225" cy="83" r="40" fill="none" stroke="#d14859" stroke-width="1.8" stroke-dasharray="3 2" opacity="0.85">
                    <animate attributeName="r" values="36;46;36" dur="2.4s" repeatCount="indefinite"/>
                    <animate attributeName="opacity" values="0.85;0.20;0.85" dur="2.4s" repeatCount="indefinite"/>
                  </circle>

                  <!-- FOCUS · audio-aligned attention marker -->
                  <circle cx="250" cy="190" r="40" fill="none" stroke="#d14859" stroke-width="1.8" stroke-dasharray="3 2" opacity="0.85">
                    <animate attributeName="r" values="36;46;36" dur="2.4s" repeatCount="indefinite"/>
                    <animate attributeName="opacity" values="0.85;0.20;0.85" dur="2.4s" repeatCount="indefinite"/>
                  </circle>

                  <!-- FOCUS · audio-aligned attention marker -->
                  <circle cx="225" cy="130" r="24" fill="none" stroke="#d14859" stroke-width="1.8" stroke-dasharray="3 2" opacity="0.85">
                    <animate attributeName="r" values="20;30;20" dur="2.4s" repeatCount="indefinite"/>
                    <animate attributeName="opacity" values="0.85;0.20;0.85" dur="2.4s" repeatCount="indefinite"/>
                  </circle>
              </svg>
