<?xml version="1.0" encoding="UTF-8"?>
<!--
  Auto-generated from the reference HTML by
  scripts/storymode-extraction/extract.mjs.
  Do not edit by hand — regenerate the file instead.
-->
<svg xmlns="http://www.w3.org/2000/svg" xmlns:xlink="http://www.w3.org/1999/xlink" viewBox="0 0 500 260" preserveAspectRatio="xMidYMid meet">
<text x="20" y="16" style="fill:#e8a951;font:600 9px Inter,sans-serif;letter-spacing:2px">STEP 02 · PCP AT CD4 &lt; 200 · BILAT INTERSTITIAL + HIGH LDH</text>

<!-- CD4 threshold marker -->
<g transform="translate(125 75)">
  <rect x="-50" y="-15" width="100" height="30" rx="6" fill="rgba(209,72,89,0.18)" stroke="#d14859" stroke-width="1.4"/>
  <text x="0" y="3" text-anchor="middle" style="fill:#d14859;font:700 11px Inter,sans-serif;letter-spacing:1.5px">CD4 &lt; 200</text>
</g>

<!-- Lung CXR (right side) -->
<g transform="translate(360 145)">
  <ellipse cx="-30" cy="0" rx="32" ry="56" fill="rgba(232,169,81,0.10)" stroke="#e8a951" stroke-width="1"/>
  <ellipse cx="30" cy="0" rx="32" ry="56" fill="rgba(232,169,81,0.10)" stroke="#e8a951" stroke-width="1"/>
  
  <!-- Diffuse infiltrates dots -->
  <g fill="#e8a951" opacity="0.6">
    <circle cx="-30" cy="-30" r="2"/>
    <circle cx="-22" cy="-15" r="2"/>
    <circle cx="-38" cy="0" r="2"/>
    <circle cx="-25" cy="15" r="2"/>
    <circle cx="-32" cy="30" r="2"/>
    <circle cx="-15" cy="-25" r="2"/>
    <circle cx="-40" cy="-10" r="2"/>
    <circle cx="30" cy="-30" r="2"/>
    <circle cx="22" cy="-15" r="2"/>
    <circle cx="38" cy="0" r="2"/>
    <circle cx="25" cy="15" r="2"/>
    <circle cx="32" cy="30" r="2"/>
    <circle cx="15" cy="-25" r="2"/>
    <circle cx="40" cy="-10" r="2"/>
  </g>
  
  <text x="0" y="78" text-anchor="middle" style="fill:#e8a951;font:700 8px Inter,sans-serif;letter-spacing:1px">BILATERAL INTERSTITIAL</text>
</g>

<!-- Symptoms left side -->
<g transform="translate(80 130)">
  <text x="0" y="0" style="fill:#d14859;font:700 8px Inter,sans-serif">● Dry cough</text>
  <text x="0" y="20" style="fill:#d14859;font:700 8px Inter,sans-serif">● Dyspnea on exertion</text>
  <text x="0" y="40" style="fill:#d14859;font:700 8px Inter,sans-serif">● Hypoxia worse w/ ambulation</text>
  <text x="0" y="60" style="fill:#d14859;font:700 8px Inter,sans-serif">● ↑ Serum LDH</text>
  <text x="0" y="80" style="fill:#d14859;font:700 8px Inter,sans-serif">● Low-grade fever</text>
</g>

<text x="250" y="245" text-anchor="middle" style="fill:#e8a951;font:700 9px Inter,sans-serif;letter-spacing:1.2px">PCP = Pneumocystis jirovecii pneumonia</text>

                  <!-- FOCUS · audio-aligned attention marker -->
                  <circle cx="126" cy="159" r="60" fill="none" stroke="#d14859" stroke-width="1.8" stroke-dasharray="3 2" opacity="0.85">
                    <animate attributeName="r" values="56;66;56" dur="2.4s" repeatCount="indefinite"/>
                    <animate attributeName="opacity" values="0.85;0.20;0.85" dur="2.4s" repeatCount="indefinite"/>
                  </circle>
</svg>
