<?xml version="1.0" encoding="UTF-8"?>
<!--
  Auto-generated from the reference HTML by
  scripts/storymode-extraction/extract.mjs.
  Do not edit by hand — regenerate the file instead.
-->
<svg xmlns="http://www.w3.org/2000/svg" xmlns:xlink="http://www.w3.org/1999/xlink" viewBox="0 0 500 260" preserveAspectRatio="xMidYMid meet">
                  <text x="20" y="22" style="fill:#e8a951;font:600 10px Inter,sans-serif;letter-spacing:2px">STEP 07 · BRIDGE · OUTSIDE THE GROOVE</text>

                  <g opacity="1"><circle cx="130" cy="145" r="42" fill="#9370b9" fill-opacity="0.35" stroke="#9370b9" stroke-width="1.8"></circle><ellipse cx="123" cy="140" rx="11" ry="9" fill="#4a2d60" opacity="0.7"></ellipse>
                      <g transform="translate(172 145)">
                        <!-- Class II body — paired chains forming a groove -->
                        <path d="M -8 -10 L -8 4 L -2 4 L -2 -3 L 2 -3 L 2 4 L 8 4 L 8 -10 Z" fill="#4fb8a8" fill-opacity="0.85" stroke="#4fb8a8" stroke-width="1.4"></path>
    
                        <g fill="#6b7689" opacity="0.30">
                          <circle cx="-3" cy="-7" r="2.2"></circle>
                          <circle cx="0" cy="-7" r="2.2"></circle>
                          <circle cx="3" cy="-7" r="2.2"></circle>
                        </g>
                      </g><text x="130" y="205" text-anchor="middle" style="fill:#9370b9;font:600 8px Inter,sans-serif;letter-spacing:1.2px">APC</text></g><g opacity="1"><circle cx="370" cy="145" r="38" fill="#6cc27d" fill-opacity="0.35" stroke="#6cc27d" stroke-width="1.8"></circle><ellipse cx="375" cy="142" rx="9" ry="7" fill="#4a2d60" opacity="0.75"></ellipse>
                      <g transform="translate(330 145)">
                        <!-- TCR body -->
                        <path d="M 0 -8 L -14 -12 L -14 12 L 0 8 Z" fill="#e8a951" fill-opacity="0.85" stroke="#e8a951" stroke-width="1.5"></path>
                        <!-- Vβ region — outer edge -->
                        <text x="-22" y="-12" style="fill:#e8a951;font:600 7px Inter,sans-serif">Vβ</text>
                      </g>
                    <text x="370" y="200" text-anchor="middle" style="fill:#6cc27d;font:600 8px Inter,sans-serif;letter-spacing:1.2px">T CELL</text></g>
                      <g>
                        <!-- Wedge body (red, like a clamp) -->
                        <path d="M 175 158 Q 200 180 244 175 Q 285 175 320 158 L 320 132 Q 285 130 244 130 Q 200 130 175 132 Z" fill="#d14859" fill-opacity="0.55" stroke="#d14859" stroke-width="2"></path>
                        <text x="248" y="158" text-anchor="middle" style="fill:#e8ecf3;font:700 9px Inter,sans-serif;letter-spacing:1.5px">TSST-1</text>
                      </g>
                    <text x="248" y="100" text-anchor="middle" style="fill:#d14859;font:600 8px Inter,sans-serif;letter-spacing:1.5px">OUTSIDE THE GROOVE</text><path d="M 248 105 L 248 125" stroke="#d14859" stroke-width="1.2" fill="none" stroke-dasharray="2 2"></path><polygon points="248,125 245,118 251,118" fill="#d14859"></polygon>

                  <text x="250" y="252" text-anchor="middle" style="fill:#b4becf;font:italic 10px Fraunces,serif">toxin glues Class II to TCR Vβ from outside · whatever peptide is in the groove doesn't matter</text>

                  <!-- FOCUS · audio-aligned attention marker -->
                  <circle cx="248" cy="95" r="27" fill="none" stroke="#d14859" stroke-width="1.8" stroke-dasharray="3 2" opacity="0.85">
                    <animate attributeName="r" values="23;33;23" dur="2.4s" repeatCount="indefinite"/>
                    <animate attributeName="opacity" values="0.85;0.20;0.85" dur="2.4s" repeatCount="indefinite"/>
                  </circle>
</svg>
