<?xml version="1.0" encoding="UTF-8"?>
<!--
  Auto-generated from the reference HTML by
  scripts/storymode-extraction/extract.mjs.
  Do not edit by hand — regenerate the file instead.
-->
<svg xmlns="http://www.w3.org/2000/svg" xmlns:xlink="http://www.w3.org/1999/xlink" viewBox="0 0 500 260" preserveAspectRatio="xMidYMid meet">
<text x="20" y="16" style="fill:#e8a951;font:600 9px Inter,sans-serif;letter-spacing:2px">STEP 02 · NON-MHC GENOME STILL DIFFERS</text><g>
    <rect x="20" y="30" width="160" height="14" rx="7" fill="rgba(232, 169, 81, 0.18)" stroke="#e8a951" stroke-width="1"/>
    <text x="100" y="40" text-anchor="middle" style="fill:#e8a951;font:700 7.5px Inter,sans-serif;letter-spacing:1.2px">MHC + MINOR ANTIGENS</text>
  </g><text x="30" y="62" style="fill:#b4becf;font:600 7px 'JetBrains Mono',monospace;letter-spacing:1.5px">HAPLOTYPES</text><text x="252" y="62" text-anchor="middle" style="fill:#b4becf;font:600 7px 'JetBrains Mono',monospace;letter-spacing:1.5px">GENOME · NON-MHC</text><text x="470" y="62" text-anchor="end" style="fill:#3a4358;font:600 7px 'JetBrains Mono',monospace;letter-spacing:1.5px">T-CELL VIEW</text><g opacity="1"><g transform="translate(60 78)">
    <text x="0" y="-4" text-anchor="middle" style="fill:#6b7689;font:6.5px 'JetBrains Mono',monospace;letter-spacing:0.5px">FATHER</text>
    <rect x="-12" y="0" width="10" height="6" rx="2" fill="#e8a951" opacity="0.85"/>
    <rect x="2" y="0" width="10" height="6" rx="2" fill="#4fb8a8" opacity="0.85"/>
  </g><g transform="translate(140 78)">
    <text x="0" y="-4" text-anchor="middle" style="fill:#6b7689;font:6.5px 'JetBrains Mono',monospace;letter-spacing:0.5px">MOTHER</text>
    <rect x="-12" y="0" width="10" height="6" rx="2" fill="#9370b9" opacity="0.85"/>
    <rect x="2" y="0" width="10" height="6" rx="2" fill="#d14859" opacity="0.85"/>
  </g><g transform="translate(60 130)">
    <text x="0" y="-4" text-anchor="middle" style="fill:#b4becf;font:600 7px Inter,sans-serif;letter-spacing:0.5px">RECIPIENT</text>
    <text x="0" y="4" text-anchor="middle" style="fill:#6b7689;font:6px 'JetBrains Mono',monospace">(♂)</text>
    <rect x="-12" y="8" width="10" height="6" rx="2" fill="#e8a951" opacity="0.85"/>
    <rect x="2" y="8" width="10" height="6" rx="2" fill="#9370b9" opacity="0.85"/>
  </g><g transform="translate(140 130)">
    <text x="0" y="-4" text-anchor="middle" style="fill:#b4becf;font:600 7px Inter,sans-serif;letter-spacing:0.5px">DONOR</text>
    <text x="0" y="4" text-anchor="middle" style="fill:#6b7689;font:6px 'JetBrains Mono',monospace">(♀)</text>
    <rect x="-12" y="8" width="10" height="6" rx="2" fill="#e8a951" opacity="0.85"/>
    <rect x="2" y="8" width="10" height="6" rx="2" fill="#9370b9" opacity="0.85"/>
  </g><g stroke="#3a4358" stroke-width="0.6" opacity="0.6" stroke-dasharray="2 1.5">
    <line x1="48" y1="86" x2="48" y2="138"/>
    <line x1="68" y1="86" x2="128" y2="138"/>
    <line x1="128" y1="86" x2="68" y2="138"/>
    <line x1="148" y1="86" x2="148" y2="138"/>
  </g><g transform="translate(100 165)">
      <rect x="-50" y="-6" width="100" height="13" rx="6" fill="rgba(79, 184, 168, 0.18)" stroke="#4fb8a8" stroke-width="1"/>
      <text x="0" y="3" text-anchor="middle" style="fill:#4fb8a8;font:700 7.5px Inter,sans-serif;letter-spacing:0.8px">HLA-IDENTICAL ✓</text>
    </g>
    <text x="100" y="184" text-anchor="middle" style="fill:#6b7689;font:italic 6.5px Fraunces,serif">(25% chance between siblings)</text></g><g opacity="1"><g transform="translate(252 91)">
    <text x="-65" y="-5" style="fill:#b4becf;font:6.5px 'JetBrains Mono',monospace">RECIPIENT</text>
    <rect x="-65" y="0" width="130" height="8" rx="2" fill="#3a4358" stroke="#3a4358" stroke-width="0.5"/>
    <!-- HLA block (matching, gold) -->
    <rect x="-25" y="0" width="20" height="8" fill="#e8a951" opacity="0.65" stroke="#e8a951" stroke-width="0.6"/>
    <text x="-15" y="-1" text-anchor="middle" style="fill:#e8a951;font:600 5px 'JetBrains Mono',monospace">HLA</text>
    <!-- Non-MHC variants (small marks at different positions) -->
    <rect x="-50" y="0" width="3" height="8" fill="#9370b9" opacity="0.85"/>
    <rect x="-40" y="0" width="3" height="8" fill="#4fb8a8" opacity="0.85"/>
    <rect x="20" y="0" width="3" height="8" fill="#d14859" opacity="0.85"/>
    <rect x="40" y="0" width="3" height="8" fill="#4fb8a8" opacity="0.85"/>
  </g><g transform="translate(252 117)">
    <text x="-65" y="-5" style="fill:#b4becf;font:6.5px 'JetBrains Mono',monospace">DONOR</text>
    <rect x="-65" y="0" width="130" height="8" rx="2" fill="#3a4358" stroke="#3a4358" stroke-width="0.5"/>
    <!-- HLA block matches -->
    <rect x="-25" y="0" width="20" height="8" fill="#e8a951" opacity="0.65" stroke="#e8a951" stroke-width="0.6"/>
    <!-- Non-MHC variants - DIFFERENT positions/colors than recipient -->
    <rect x="-50" y="0" width="3" height="8" fill="#d14859" opacity="0.85"/>
    <rect x="-40" y="0" width="3" height="8" fill="#9370b9" opacity="0.85"/>
    <rect x="20" y="0" width="3" height="8" fill="#9370b9" opacity="0.85"/>
    <rect x="40" y="0" width="3" height="8" fill="#d14859" opacity="0.85"/>
  </g><g>
      <text x="252" y="76" text-anchor="middle" style="fill:#e8a951;font:600 7px Inter,sans-serif;letter-spacing:0.5px">HLA MATCH · NON-MHC DIFFERS</text>
      <!-- Markers for the differing loci - small red triangles between rows -->
      <g fill="#d14859">
        <polygon points="200,99 204,103 196,103"/>
        <polygon points="210,103 206,99 214,99"/>
        <polygon points="270,99 274,103 266,103"/>
        <polygon points="290,103 286,99 294,99"/>
      </g>
    </g><text x="252" y="148" text-anchor="middle" style="fill:#6b7689;font:italic 7px Fraunces,serif">polymorphic non-MHC peptides</text></g>

                  <!-- FOCUS · audio-aligned attention marker -->
                  <circle cx="252" cy="57" r="24" fill="none" stroke="#d14859" stroke-width="1.8" stroke-dasharray="3 2" opacity="0.85">
                    <animate attributeName="r" values="20;30;20" dur="2.4s" repeatCount="indefinite"/>
                    <animate attributeName="opacity" values="0.85;0.20;0.85" dur="2.4s" repeatCount="indefinite"/>
                  </circle>

                  <!-- FOCUS · audio-aligned attention marker -->
                  <circle cx="252" cy="143" r="40" fill="none" stroke="#d14859" stroke-width="1.8" stroke-dasharray="3 2" opacity="0.85">
                    <animate attributeName="r" values="36;46;36" dur="2.4s" repeatCount="indefinite"/>
                    <animate attributeName="opacity" values="0.85;0.20;0.85" dur="2.4s" repeatCount="indefinite"/>
                  </circle>
</svg>
