<?xml version="1.0" encoding="UTF-8"?>
<!--
  Auto-generated from the reference HTML by
  scripts/storymode-extraction/extract.mjs.
  Do not edit by hand — regenerate the file instead.
-->
<svg xmlns="http://www.w3.org/2000/svg" xmlns:xlink="http://www.w3.org/1999/xlink" viewBox="0 0 500 260" preserveAspectRatio="xMidYMid meet">
<text x="20" y="16" style="fill:#e8a951;font:600 9px Inter,sans-serif;letter-spacing:2px">STEP 04 · B CELL · SHORTER LOCUS · SMALLER BAND</text>

<!-- B-cell rearranged Ig locus -->
<text x="250" y="60" text-anchor="middle" style="fill:#9370b9;font:700 9px Inter,sans-serif;letter-spacing:1.5px">B-CELL DNA · REARRANGED Ig</text>

<g transform="translate(150 130)">
  <line x1="0" y1="0" x2="200" y2="0" stroke="#6b7689" stroke-width="1.8"/>
  
  <!-- Cut site LEFT -->
  <line x1="20" y1="-25" x2="20" y2="22" stroke="#d14859" stroke-width="2.4"/>
  <polygon points="20,-25 16,-32 24,-32" fill="#d14859"/>
  <text x="20" y="-37" text-anchor="middle" style="fill:#d14859;font:700 7.5px Inter,sans-serif">CUT</text>
  
  <!-- V -->
  <rect x="50" y="-8" width="16" height="16" rx="2" fill="#4fb8a8" fill-opacity="0.95" stroke="#4fb8a8" stroke-width="1.4"/>
  <text x="58" y="22" text-anchor="middle" style="fill:#4fb8a8;font:700 7px Inter,sans-serif">V</text>
  <!-- D -->
  <rect x="72" y="-8" width="14" height="16" rx="2" fill="#e8a951" fill-opacity="0.95" stroke="#e8a951" stroke-width="1.4"/>
  <text x="79" y="22" text-anchor="middle" style="fill:#e8a951;font:700 7px Inter,sans-serif">D</text>
  <!-- J (probe target) -->
  <rect x="92" y="-9" width="14" height="18" rx="2" fill="#9370b9" fill-opacity="0.95" stroke="#9370b9" stroke-width="1.6"/>
  <text x="99" y="22" text-anchor="middle" style="fill:#9370b9;font:700 7px Inter,sans-serif">J</text>
  
  <!-- Probe over J -->
  <g transform="translate(99 -32)">
    <path d="M -16 0 L 16 0 L 16 10 L 0 18 L -16 10 Z" fill="#e8a951" fill-opacity="0.9" stroke="#e8a951" stroke-width="1.4"/>
    <text x="0" y="9" text-anchor="middle" style="fill:#0a0e1a;font:700 7px Inter,sans-serif">J probe</text>
  </g>
  
  <!-- C -->
  <rect x="135" y="-10" width="44" height="20" rx="3" fill="#6b7689" fill-opacity="0.85"/>
  <text x="157" y="3" text-anchor="middle" style="fill:#e8ecf3;font:700 9px Inter,sans-serif">C</text>
  
  <!-- Cut site RIGHT -->
  <line x1="180" y1="-25" x2="180" y2="22" stroke="#d14859" stroke-width="2.4"/>
  <polygon points="180,-25 176,-32 184,-32" fill="#d14859"/>
  <text x="180" y="-37" text-anchor="middle" style="fill:#d14859;font:700 7.5px Inter,sans-serif">CUT</text>
  
  <!-- Fragment size measurement -->
  <line x1="20" y1="48" x2="180" y2="48" stroke="#9370b9" stroke-width="2"/>
  <line x1="20" y1="44" x2="20" y2="52" stroke="#9370b9" stroke-width="2"/>
  <line x1="180" y1="44" x2="180" y2="52" stroke="#9370b9" stroke-width="2"/>
  <text x="100" y="68" text-anchor="middle" style="fill:#9370b9;font:700 12px Inter,sans-serif;letter-spacing:1.2px">~1.5 kb</text>
</g>

<text x="250" y="225" text-anchor="middle" style="fill:#e8a951;font:700 9px Inter,sans-serif;letter-spacing:1.2px">SHORT LOCUS BETWEEN CUTS = SMALL FRAGMENT</text>
<text x="250" y="245" text-anchor="middle" style="fill:#6b7689;font:italic 7.5px Fraunces,serif">Smaller fragment migrates farther down the gel</text>

                  <!-- FOCUS · audio-aligned attention marker -->
                  <circle cx="250" cy="55" r="39" fill="none" stroke="#d14859" stroke-width="1.8" stroke-dasharray="3 2" opacity="0.85">
                    <animate attributeName="r" values="35;45;35" dur="2.4s" repeatCount="indefinite"/>
                    <animate attributeName="opacity" values="0.85;0.20;0.85" dur="2.4s" repeatCount="indefinite"/>
                  </circle>
</svg>
