<?xml version="1.0" encoding="UTF-8"?>
<!--
  Auto-generated from the reference HTML by
  scripts/storymode-extraction/extract.mjs.
  Do not edit by hand — regenerate the file instead.
-->
<svg xmlns="http://www.w3.org/2000/svg" xmlns:xlink="http://www.w3.org/1999/xlink" viewBox="0 0 500 260" preserveAspectRatio="xMidYMid meet">
<text x="20" y="16" style="fill:#e8a951;font:600 9px Inter,sans-serif;letter-spacing:2px">STEP 04 · NO TNF · GRANULOMA FALLS APART · TB ESCAPES</text><g>
    <rect x="20" y="30" width="220" height="14" rx="7" fill="rgba(232, 169, 81, 0.18)" stroke="#e8a951" stroke-width="1"/>
    <text x="130" y="40" text-anchor="middle" style="fill:#e8a951;font:700 7.5px Inter,sans-serif;letter-spacing:1.2px">ANTI-TNF · GRANULOMA MAINTENANCE</text>
  </g><g opacity="1"><circle cx="250" cy="115" r="58" fill="none" stroke="#4fb8a8" stroke-width="0.8" stroke-dasharray="2 2" opacity="0.2"/><circle cx="250" cy="115" r="42" fill="#4fb8a8" fill-opacity="0.024" stroke="#4fb8a8" stroke-width="0.6" opacity="0.16000000000000003"/><g transform="translate(302 115)" opacity="0.5">
      <circle cx="0" cy="0" r="4.5" fill="#4fb8a8" opacity="0.55" stroke="#4fb8a8" stroke-width="0.9"/>
      <ellipse cx="0" cy="0" rx="2" ry="1.7" fill="#4fb8a8" opacity="0.95"/>
    </g><g transform="translate(296.3323591024675 141.75)" opacity="0.5">
      <circle cx="0" cy="0" r="4.5" fill="#4fb8a8" opacity="0.55" stroke="#4fb8a8" stroke-width="0.9"/>
      <ellipse cx="0" cy="0" rx="2" ry="1.7" fill="#4fb8a8" opacity="0.95"/>
    </g><g transform="translate(277.5 162.6313972081441)" opacity="0.5">
      <circle cx="0" cy="0" r="4.5" fill="#4fb8a8" opacity="0.55" stroke="#4fb8a8" stroke-width="0.9"/>
      <ellipse cx="0" cy="0" rx="2" ry="1.7" fill="#4fb8a8" opacity="0.95"/>
    </g><g transform="translate(250 171.5)" opacity="0.5">
      <circle cx="0" cy="0" r="4.5" fill="#4fb8a8" opacity="0.55" stroke="#4fb8a8" stroke-width="0.9"/>
      <ellipse cx="0" cy="0" rx="2" ry="1.7" fill="#4fb8a8" opacity="0.95"/>
    </g><g transform="translate(221 165.22947341949745)" opacity="0.5">
      <circle cx="0" cy="0" r="4.5" fill="#4fb8a8" opacity="0.55" stroke="#4fb8a8" stroke-width="0.9"/>
      <ellipse cx="0" cy="0" rx="2" ry="1.7" fill="#4fb8a8" opacity="0.95"/>
    </g><g transform="translate(198.4714884748259 144.75)" opacity="0.5">
      <circle cx="0" cy="0" r="4.5" fill="#4fb8a8" opacity="0.55" stroke="#4fb8a8" stroke-width="0.9"/>
      <ellipse cx="0" cy="0" rx="2" ry="1.7" fill="#4fb8a8" opacity="0.95"/>
    </g><g transform="translate(189 115.00000000000001)" opacity="0.5">
      <circle cx="0" cy="0" r="4.5" fill="#4fb8a8" opacity="0.55" stroke="#4fb8a8" stroke-width="0.9"/>
      <ellipse cx="0" cy="0" rx="2" ry="1.7" fill="#4fb8a8" opacity="0.95"/>
    </g><g transform="translate(195.87341226347257 83.75)" opacity="0.5">
      <circle cx="0" cy="0" r="4.5" fill="#4fb8a8" opacity="0.55" stroke="#4fb8a8" stroke-width="0.9"/>
      <ellipse cx="0" cy="0" rx="2" ry="1.7" fill="#4fb8a8" opacity="0.95"/>
    </g><g transform="translate(217.99999999999997 59.57437415779594)" opacity="0.5">
      <circle cx="0" cy="0" r="4.5" fill="#4fb8a8" opacity="0.55" stroke="#4fb8a8" stroke-width="0.9"/>
      <ellipse cx="0" cy="0" rx="2" ry="1.7" fill="#4fb8a8" opacity="0.95"/>
    </g><g transform="translate(250 49.5)" opacity="0.5">
      <circle cx="0" cy="0" r="4.5" fill="#4fb8a8" opacity="0.55" stroke="#4fb8a8" stroke-width="0.9"/>
      <ellipse cx="0" cy="0" rx="2" ry="1.7" fill="#4fb8a8" opacity="0.95"/>
    </g><g transform="translate(283.5 56.976297946442614)" opacity="0.5">
      <circle cx="0" cy="0" r="4.5" fill="#4fb8a8" opacity="0.55" stroke="#4fb8a8" stroke-width="0.9"/>
      <ellipse cx="0" cy="0" rx="2" ry="1.7" fill="#4fb8a8" opacity="0.95"/>
    </g><g transform="translate(309.32274015923406 80.74999999999997)" opacity="0.5">
      <circle cx="0" cy="0" r="4.5" fill="#4fb8a8" opacity="0.55" stroke="#4fb8a8" stroke-width="0.9"/>
      <ellipse cx="0" cy="0" rx="2" ry="1.7" fill="#4fb8a8" opacity="0.95"/>
    </g><g transform="translate(274.24871130596426 129) rotate(120)" opacity="0.5">
        <ellipse cx="0" cy="0" rx="9" ry="4" fill="#4fb8a8" opacity="0.55" stroke="#4fb8a8" stroke-width="1"/>
        <ellipse cx="-2" cy="0" rx="2.5" ry="1.5" fill="#2d8a7c" opacity="0.85"/>
      </g><g transform="translate(250 145) rotate(180)" opacity="0.5">
        <ellipse cx="0" cy="0" rx="9" ry="4" fill="#4fb8a8" opacity="0.55" stroke="#4fb8a8" stroke-width="1"/>
        <ellipse cx="-2" cy="0" rx="2.5" ry="1.5" fill="#2d8a7c" opacity="0.85"/>
      </g><g transform="translate(222.28718707889797 131) rotate(240)" opacity="0.5">
        <ellipse cx="0" cy="0" rx="9" ry="4" fill="#4fb8a8" opacity="0.55" stroke="#4fb8a8" stroke-width="1"/>
        <ellipse cx="-2" cy="0" rx="2.5" ry="1.5" fill="#2d8a7c" opacity="0.85"/>
      </g><g transform="translate(220.55513627132908 98) rotate(300)" opacity="0.5">
        <ellipse cx="0" cy="0" rx="9" ry="4" fill="#4fb8a8" opacity="0.55" stroke="#4fb8a8" stroke-width="1"/>
        <ellipse cx="-2" cy="0" rx="2.5" ry="1.5" fill="#2d8a7c" opacity="0.85"/>
      </g><g transform="translate(250 79) rotate(360)" opacity="0.5">
        <ellipse cx="0" cy="0" rx="9" ry="4" fill="#4fb8a8" opacity="0.55" stroke="#4fb8a8" stroke-width="1"/>
        <ellipse cx="-2" cy="0" rx="2.5" ry="1.5" fill="#2d8a7c" opacity="0.85"/>
      </g><g transform="translate(282.90896534380863 95.99999999999999) rotate(420)" opacity="0.5">
        <ellipse cx="0" cy="0" rx="9" ry="4" fill="#4fb8a8" opacity="0.55" stroke="#4fb8a8" stroke-width="1"/>
        <ellipse cx="-2" cy="0" rx="2.5" ry="1.5" fill="#2d8a7c" opacity="0.85"/>
      </g><g transform="translate(248 115) rotate(30)">
        <ellipse cx="0" cy="0" rx="3" ry="1.2" fill="#d14859" opacity="0.95" stroke="#a53343" stroke-width="0.4"/>
      </g><g transform="translate(264 119) rotate(-30)">
        <ellipse cx="0" cy="0" rx="3" ry="1.2" fill="#d14859" opacity="0.95" stroke="#a53343" stroke-width="0.4"/>
      </g><g transform="translate(236 123) rotate(60)">
        <ellipse cx="0" cy="0" rx="3" ry="1.2" fill="#d14859" opacity="0.95" stroke="#a53343" stroke-width="0.4"/>
      </g><g transform="translate(254 101) rotate(120)">
        <ellipse cx="0" cy="0" rx="3" ry="1.2" fill="#d14859" opacity="0.95" stroke="#a53343" stroke-width="0.4"/>
      </g><text x="250" y="51" text-anchor="middle" style="fill:#d14859;font:700 7px Inter,sans-serif;letter-spacing:1.5px">DISSOLVING</text></g>

                  <!-- FOCUS · audio-aligned attention marker -->
                  <circle cx="130" cy="35" r="40" fill="none" stroke="#d14859" stroke-width="1.8" stroke-dasharray="3 2" opacity="0.85">
                    <animate attributeName="r" values="36;46;36" dur="2.4s" repeatCount="indefinite"/>
                    <animate attributeName="opacity" values="0.85;0.20;0.85" dur="2.4s" repeatCount="indefinite"/>
                  </circle>
</svg>
