<?xml version="1.0" encoding="UTF-8"?>
<!--
  Auto-generated from the reference HTML by
  scripts/storymode-extraction/extract.mjs.
  Do not edit by hand — regenerate the file instead.
-->
<svg xmlns="http://www.w3.org/2000/svg" xmlns:xlink="http://www.w3.org/1999/xlink" viewBox="0 0 500 280" preserveAspectRatio="xMidYMid meet">
                <text x="20" y="26" style="fill:#e8a951;font:600 10px Inter,sans-serif;letter-spacing:2px">STEP 04 · ENDOSOME · ACIDIC · PROTEOLYTIC</text>
                <rect x="40" y="70" width="420" height="180" rx="18" fill="#0e1422" stroke="#3a4358" stroke-width="1.2"/>
                <text x="50" y="64" style="fill:#6b7689;font:600 8px Inter,sans-serif;letter-spacing:1.5px">EXTRACELLULAR</text>
                <text x="50" y="246" style="fill:#6b7689;font:600 8px Inter,sans-serif;letter-spacing:1.5px">CYTOPLASM</text>
                <line x1="40" y1="70" x2="460" y2="70" stroke="#4fb8a8" stroke-width="1.5" opacity="0.7"/>
                <g opacity="0.18">
                  <path d="M 70 180 Q 60 200 80 215 Q 130 222 170 215 Q 195 210 200 195 Q 205 175 185 165 Q 130 158 70 180 Z" fill="#4fb8a8" stroke="#4fb8a8" stroke-width="1"/>
                  <text x="135" y="195" text-anchor="middle" style="fill:#4fb8a8;font:600 8px Inter,sans-serif">ER</text>
                </g>
                <path d="M 130 75 Q 175 110 230 140" stroke="#d14859" stroke-width="1" fill="none" stroke-dasharray="3 3" opacity="0.3"/>
                <ellipse cx="290" cy="170" rx="68" ry="48" fill="#e8a951" opacity="0.18" stroke="#e8a951" stroke-width="2.2" stroke-dasharray="5 3"/>
                <text x="290" y="118" text-anchor="middle" style="fill:#e8a951;font:700 11px Inter,sans-serif;letter-spacing:2px">ENDOSOME</text>
                <circle cx="270" cy="170" r="11" fill="#d14859" opacity="0.85" stroke="#d14859" stroke-width="1.3"/>
                <text x="270" y="173" text-anchor="middle" style="fill:#e8ecf3;font:700 8px Inter,sans-serif">V</text>
                <g fill="#e8a951" opacity="0.9">
                  <path d="M 305 145 L 312 150 L 310 158 L 303 153 Z"/>
                  <path d="M 325 175 L 332 180 L 330 188 L 323 183 Z"/>
                  <path d="M 300 195 L 307 200 L 305 208 L 298 203 Z"/>
                  <path d="M 250 195 L 257 200 L 255 208 L 248 203 Z"/>
                </g>
                <text x="345" y="135" style="fill:#e8a951;font:600 9px Inter,sans-serif">pH ↓</text>
                <text x="250" y="270" text-anchor="middle" style="fill:#b4becf;font:italic 10px Fraunces,serif">vesicle matures · pH drops · proteases activate</text>

                  <!-- FOCUS · audio-aligned attention marker -->
                  <circle cx="290" cy="113" r="20" fill="none" stroke="#d14859" stroke-width="1.8" stroke-dasharray="3 2" opacity="0.85">
                    <animate attributeName="r" values="16;26;16" dur="2.4s" repeatCount="indefinite"/>
                    <animate attributeName="opacity" values="0.85;0.20;0.85" dur="2.4s" repeatCount="indefinite"/>
                  </circle>
</svg>
