<?xml version="1.0" encoding="UTF-8"?>
<!--
  Auto-generated from the reference HTML by
  scripts/storymode-extraction/extract.mjs.
  Do not edit by hand — regenerate the file instead.
-->
<svg xmlns="http://www.w3.org/2000/svg" xmlns:xlink="http://www.w3.org/1999/xlink" viewBox="0 0 500 260" preserveAspectRatio="xMidYMid meet">
<text x="20" y="16" style="fill:#e8a951;font:600 9px Inter,sans-serif;letter-spacing:2px">STEP 05 · CELL INFILTRATE → INDURATION 48-72h</text>

<!-- Skin cross-section showing induration -->
<g transform="translate(250 145)">
  <!-- Epidermis -->
  <rect x="-180" y="-58" width="360" height="22" rx="3" fill="rgba(232,169,81,0.18)" stroke="#e8a951" stroke-width="1.2"/>
  <text x="-170" y="-43" style="fill:#e8a951;font:700 7px Inter,sans-serif;letter-spacing:1.2px">EPIDERMIS</text>
  
  <!-- Dermis with raised induration bump -->
  <path d="M -180 -32 L -50 -32 Q -30 -52 0 -52 Q 30 -52 50 -32 L 180 -32 L 180 18 L -180 18 Z" 
        fill="rgba(147,112,185,0.18)" stroke="#9370b9" stroke-width="1.4"/>
  <text x="-170" y="-15" style="fill:#9370b9;font:700 7px Inter,sans-serif;letter-spacing:1.2px">DERMIS</text>
  
  <!-- Indication arrow + label -->
  <g transform="translate(0 -64)">
    <line x1="-30" y1="0" x2="30" y2="0" stroke="#d14859" stroke-width="1.4"/>
    <line x1="-30" y1="-3" x2="-30" y2="3" stroke="#d14859" stroke-width="1.4"/>
    <line x1="30" y1="-3" x2="30" y2="3" stroke="#d14859" stroke-width="1.4"/>
    <text x="0" y="-5" text-anchor="middle" style="fill:#d14859;font:700 7.5px Inter,sans-serif;letter-spacing:1.2px">INDURATION</text>
  </g>
  
  <!-- Cells infiltrating: T cells (green) + macrophages (teal) -->
  <g>
    <circle cx="-30" cy="-30" r="6" fill="rgba(108,194,125,0.65)" stroke="#6cc27d" stroke-width="0.8"/>
    <circle cx="0" cy="-40" r="6" fill="rgba(108,194,125,0.65)" stroke="#6cc27d" stroke-width="0.8"/>
    <circle cx="20" cy="-30" r="6" fill="rgba(108,194,125,0.65)" stroke="#6cc27d" stroke-width="0.8"/>
    <circle cx="-15" cy="-15" r="6" fill="rgba(108,194,125,0.65)" stroke="#6cc27d" stroke-width="0.8"/>
    <circle cx="15" cy="-15" r="6" fill="rgba(108,194,125,0.65)" stroke="#6cc27d" stroke-width="0.8"/>
    
    <ellipse cx="-25" cy="0" rx="9" ry="7" fill="rgba(79,184,168,0.65)" stroke="#4fb8a8" stroke-width="0.8"/>
    <ellipse cx="0" cy="-5" rx="9" ry="7" fill="rgba(79,184,168,0.65)" stroke="#4fb8a8" stroke-width="0.8"/>
    <ellipse cx="25" cy="0" rx="9" ry="7" fill="rgba(79,184,168,0.65)" stroke="#4fb8a8" stroke-width="0.8"/>
    <ellipse cx="-10" cy="10" rx="9" ry="7" fill="rgba(79,184,168,0.65)" stroke="#4fb8a8" stroke-width="0.8"/>
    <ellipse cx="15" cy="12" rx="9" ry="7" fill="rgba(79,184,168,0.65)" stroke="#4fb8a8" stroke-width="0.8"/>
  </g>
  
  <!-- Legend -->
  <g transform="translate(-150 0)">
    <circle cx="0" cy="0" r="5" fill="rgba(108,194,125,0.65)" stroke="#6cc27d" stroke-width="0.8"/>
    <text x="9" y="3" style="fill:#6cc27d;font:700 7px Inter,sans-serif">T cells</text>
  </g>
  <g transform="translate(-150 16)">
    <ellipse cx="0" cy="0" rx="6" ry="4" fill="rgba(79,184,168,0.65)" stroke="#4fb8a8" stroke-width="0.8"/>
    <text x="11" y="3" style="fill:#4fb8a8;font:700 7px Inter,sans-serif">MΦ</text>
  </g>
  
  <text x="120" y="-45" style="fill:#d14859;font:700 8px Inter,sans-serif">FIRM BUMP</text>
  <text x="120" y="-32" style="fill:#b4becf;font:6.5px Inter,sans-serif">cells, not edema</text>
</g>

<text x="250" y="245" text-anchor="middle" style="fill:#6b7689;font:italic 7.5px Fraunces,serif">Induration = cellular infiltration · measure perpendicular to forearm axis</text>

                  <!-- FOCUS · audio-aligned attention marker -->
                  <circle cx="250" cy="71" r="20" fill="none" stroke="#d14859" stroke-width="1.8" stroke-dasharray="3 2" opacity="0.85">
                    <animate attributeName="r" values="16;26;16" dur="2.4s" repeatCount="indefinite"/>
                    <animate attributeName="opacity" values="0.85;0.20;0.85" dur="2.4s" repeatCount="indefinite"/>
                  </circle>
              </svg>
