<?xml version="1.0" encoding="UTF-8"?>
<!--
  Auto-generated from the reference HTML by
  scripts/storymode-extraction/extract.mjs.
  Do not edit by hand — regenerate the file instead.
-->
<svg xmlns="http://www.w3.org/2000/svg" xmlns:xlink="http://www.w3.org/1999/xlink" viewBox="0 0 500 260" preserveAspectRatio="xMidYMid meet">
<text x="20" y="16" style="fill:#e8a951;font:600 9px Inter,sans-serif;letter-spacing:2px">STEP 03 · IgA COMPLEX → ALTERNATIVE PATHWAY</text>

<!-- Step a: IgA-Ag complex forms -->
<g transform="translate(85 145)">
  <text x="0" y="-72" text-anchor="middle" style="fill:#e8a951;font:700 8px Inter,sans-serif;letter-spacing:1.2px">a · IgA COMPLEX</text>
  
  <!-- DNA strand with IgA antibodies bound -->
  <g stroke="#4fb8a8" stroke-width="1.6" fill="none">
    <path d="M -28 0 Q -22 -3 -16 0 Q -10 3 -4 0 Q 2 -3 8 0 Q 14 3 20 0 Q 26 -3 28 0"/>
  </g>
  <!-- IgA antibodies (Y-shaped, orange) attaching -->
  <g stroke="#e8a951" stroke-width="2" fill="none" stroke-linecap="round">
    <g transform="translate(-18 -8) rotate(180)">
      <line x1="0" y1="0" x2="0" y2="10"/>
      <line x1="-5" y1="-5" x2="0" y2="0"/>
      <line x1="5" y1="-5" x2="0" y2="0"/>
    </g>
    <g transform="translate(0 -10) rotate(180)">
      <line x1="0" y1="0" x2="0" y2="10"/>
      <line x1="-5" y1="-5" x2="0" y2="0"/>
      <line x1="5" y1="-5" x2="0" y2="0"/>
    </g>
    <g transform="translate(18 -8) rotate(180)">
      <line x1="0" y1="0" x2="0" y2="10"/>
      <line x1="-5" y1="-5" x2="0" y2="0"/>
      <line x1="5" y1="-5" x2="0" y2="0"/>
    </g>
  </g>
  <text x="0" y="32" text-anchor="middle" style="fill:#e8a951;font:700 7px Inter,sans-serif">IgA + antigen</text>
</g>

<!-- Arrow → -->
<g stroke="#e8a951" stroke-width="2" fill="none" marker-end="url(#arr11_6_3a)">
  <line x1="135" y1="145" x2="170" y2="145"/>
</g>
<defs>
  <marker id="arr11_6_3a" viewBox="0 0 10 10" refX="9" refY="5" markerWidth="7" markerHeight="7" orient="auto">
    <path d="M 0 0 L 10 5 L 0 10 z" fill="#e8a951"/>
  </marker>
</defs>

<!-- Step b: Deposit in small vessel -->
<g transform="translate(220 145)">
  <text x="0" y="-72" text-anchor="middle" style="fill:#9370b9;font:700 8px Inter,sans-serif;letter-spacing:1.2px">b · DEPOSITS IN VESSEL</text>
  
  <!-- Small vessel cross-section -->
  <circle cx="0" cy="0" r="32" fill="rgba(209,72,89,0.18)" stroke="#d14859" stroke-width="1.6"/>
  <circle cx="0" cy="0" r="12" fill="rgba(209,72,89,0.35)" stroke="#d14859" stroke-width="0.8"/>
  
  <!-- IgA deposits clinging to wall -->
  <g stroke="#e8a951" stroke-width="1.4" fill="none" stroke-linecap="round">
    <g transform="translate(-25 -10)">
      <line x1="0" y1="0" x2="0" y2="6"/>
      <line x1="-3" y1="-3" x2="0" y2="0"/>
      <line x1="3" y1="-3" x2="0" y2="0"/>
    </g>
    <g transform="translate(-22 13)">
      <line x1="0" y1="0" x2="0" y2="6"/>
      <line x1="-3" y1="-3" x2="0" y2="0"/>
      <line x1="3" y1="-3" x2="0" y2="0"/>
    </g>
    <g transform="translate(15 -22) rotate(45)">
      <line x1="0" y1="0" x2="0" y2="6"/>
      <line x1="-3" y1="-3" x2="0" y2="0"/>
      <line x1="3" y1="-3" x2="0" y2="0"/>
    </g>
    <g transform="translate(22 12) rotate(-45)">
      <line x1="0" y1="0" x2="0" y2="6"/>
      <line x1="-3" y1="-3" x2="0" y2="0"/>
      <line x1="3" y1="-3" x2="0" y2="0"/>
    </g>
  </g>
  <text x="0" y="48" text-anchor="middle" style="fill:#d14859;font:6.5px Inter,sans-serif">small vessel wall</text>
</g>

<!-- Arrow → -->
<g stroke="#e8a951" stroke-width="2" fill="none" marker-end="url(#arr11_6_3a)">
  <line x1="270" y1="145" x2="305" y2="145"/>
</g>

<!-- Step c: Alternative pathway activation (NOT classical) -->
<g transform="translate(370 145)">
  <text x="0" y="-72" text-anchor="middle" style="fill:#9370b9;font:700 8px Inter,sans-serif;letter-spacing:1.2px">c · ALTERNATIVE C'</text>
  
  <!-- Two columns: classical (X'd out) vs alternative (highlighted) -->
  <g transform="translate(-30 0)">
    <rect x="-22" y="-18" width="44" height="36" rx="4" fill="rgba(180,190,207,0.10)" stroke="#6b7689" stroke-width="1" stroke-dasharray="2 2"/>
    <text x="0" y="-5" text-anchor="middle" style="fill:#6b7689;font:700 6.5px Inter,sans-serif">CLASSICAL</text>
    <text x="0" y="6" text-anchor="middle" style="fill:#6b7689;font:6px Inter,sans-serif">C1q · IgG</text>
    <line x1="-18" y1="-15" x2="18" y2="14" stroke="#d14859" stroke-width="2.4" stroke-linecap="round"/>
    <line x1="-18" y1="14" x2="18" y2="-15" stroke="#d14859" stroke-width="2.4" stroke-linecap="round"/>
  </g>
  
  <g transform="translate(30 0)">
    <rect x="-22" y="-18" width="44" height="36" rx="4" fill="rgba(108,194,125,0.30)" stroke="#6cc27d" stroke-width="1.8"/>
    <text x="0" y="-5" text-anchor="middle" style="fill:#6cc27d;font:700 6.5px Inter,sans-serif">ALTERNATIVE</text>
    <text x="0" y="6" text-anchor="middle" style="fill:#6cc27d;font:6px Inter,sans-serif">C3 spontaneous</text>
    <text x="0" y="14" text-anchor="middle" style="fill:#6cc27d;font:700 6px Inter,sans-serif">✓</text>
  </g>
</g>

<text x="250" y="245" text-anchor="middle" style="fill:#6b7689;font:italic 7.5px Fraunces,serif">IgA can't bind C1q · uses alternative pathway · neutrophils still recruited</text>

                  <!-- FOCUS · audio-aligned attention marker -->
                  <circle cx="85" cy="68" r="22" fill="none" stroke="#d14859" stroke-width="1.8" stroke-dasharray="3 2" opacity="0.85">
                    <animate attributeName="r" values="18;28;18" dur="2.4s" repeatCount="indefinite"/>
                    <animate attributeName="opacity" values="0.85;0.20;0.85" dur="2.4s" repeatCount="indefinite"/>
                  </circle>

                  <!-- FOCUS · audio-aligned attention marker -->
                  <circle cx="85" cy="172" r="20" fill="none" stroke="#d14859" stroke-width="1.8" stroke-dasharray="3 2" opacity="0.85">
                    <animate attributeName="r" values="16;26;16" dur="2.4s" repeatCount="indefinite"/>
                    <animate attributeName="opacity" values="0.85;0.20;0.85" dur="2.4s" repeatCount="indefinite"/>
                  </circle>

                  <!-- FOCUS · audio-aligned attention marker -->
                  <circle cx="340" cy="146" r="20" fill="none" stroke="#d14859" stroke-width="1.8" stroke-dasharray="3 2" opacity="0.85">
                    <animate attributeName="r" values="16;26;16" dur="2.4s" repeatCount="indefinite"/>
                    <animate attributeName="opacity" values="0.85;0.20;0.85" dur="2.4s" repeatCount="indefinite"/>
                  </circle>
</svg>
