<?xml version="1.0" encoding="UTF-8"?>
<!--
  Auto-generated from the reference HTML by
  scripts/storymode-extraction/extract.mjs.
  Do not edit by hand — regenerate the file instead.
-->
<svg xmlns="http://www.w3.org/2000/svg" xmlns:xlink="http://www.w3.org/1999/xlink" viewBox="0 0 500 260" preserveAspectRatio="xMidYMid meet">
<text x="20" y="16" style="fill:#e8a951;font:600 9px Inter,sans-serif;letter-spacing:2px">STEP 08 · MATURATION · PROTEASE CLEAVES Gag-Pol</text>

<!-- Immature virion (left) -->
<g transform="translate(110 145)">
  <text x="0" y="-78" text-anchor="middle" style="fill:#6b7689;font:700 9px Inter,sans-serif;letter-spacing:1.5px">IMMATURE</text>
  
  <!-- Spherical envelope -->
  <circle cx="0" cy="0" r="36" fill="rgba(180,190,207,0.20)" stroke="#b4becf" stroke-width="1.4"/>
  
  <!-- gp spikes -->
  <g stroke="#9370b9" stroke-width="1.2" fill="none">
    <line x1="-25" y1="-25" x2="-32" y2="-32"/>
    <circle cx="-32" cy="-32" r="2" fill="rgba(147,112,185,0.85)"/>
    <line x1="25" y1="-25" x2="32" y2="-32"/>
    <circle cx="32" cy="-32" r="2" fill="rgba(147,112,185,0.85)"/>
    <line x1="0" y1="36" x2="0" y2="42"/>
    <circle cx="0" cy="42" r="2" fill="rgba(147,112,185,0.85)"/>
  </g>
  
  <!-- Doughnut-shaped immature core -->
  <circle cx="0" cy="0" r="22" fill="none" stroke="#e8a951" stroke-width="6" opacity="0.55"/>
  <text x="0" y="3" text-anchor="middle" style="fill:#e8a951;font:700 6.5px Inter,sans-serif">Gag-Pol</text>
  <text x="0" y="14" text-anchor="middle" style="fill:#e8a951;font:6px Inter,sans-serif">polyprotein ring</text>
  
  <text x="0" y="55" text-anchor="middle" style="fill:#6b7689;font:italic 7px Fraunces,serif">non-infectious</text>
</g>

<!-- Protease arrow -->
<g stroke="#d14859" stroke-width="2.4" fill="none" marker-end="url(#arr14_1_8a)">
  <line x1="170" y1="145" x2="270" y2="145"/>
</g>
<defs>
  <marker id="arr14_1_8a" viewBox="0 0 10 10" refX="9" refY="5" markerWidth="7" markerHeight="7" orient="auto">
    <path d="M 0 0 L 10 5 L 0 10 z" fill="#d14859"/>
  </marker>
</defs>
<g transform="translate(220 130)">
  <!-- Scissors icon -->
  <circle cx="-5" cy="-5" r="4" fill="none" stroke="#d14859" stroke-width="1.4"/>
  <circle cx="5" cy="-5" r="4" fill="none" stroke="#d14859" stroke-width="1.4"/>
  <line x1="-3" y1="-2" x2="6" y2="8" stroke="#d14859" stroke-width="1.4"/>
  <line x1="3" y1="-2" x2="-6" y2="8" stroke="#d14859" stroke-width="1.4"/>
</g>
<text x="220" y="115" text-anchor="middle" style="fill:#d14859;font:700 8px Inter,sans-serif;letter-spacing:1.5px">PROTEASE</text>

<!-- Mature virion (right) -->
<g transform="translate(390 145)">
  <text x="0" y="-78" text-anchor="middle" style="fill:#6cc27d;font:700 9px Inter,sans-serif;letter-spacing:1.5px">MATURE</text>
  
  <!-- Spherical envelope -->
  <circle cx="0" cy="0" r="36" fill="rgba(180,190,207,0.20)" stroke="#b4becf" stroke-width="1.4"/>
  
  <!-- gp spikes -->
  <g stroke="#9370b9" stroke-width="1.2" fill="none">
    <line x1="-25" y1="-25" x2="-32" y2="-32"/>
    <circle cx="-32" cy="-32" r="2" fill="rgba(147,112,185,0.85)"/>
    <line x1="25" y1="-25" x2="32" y2="-32"/>
    <circle cx="32" cy="-32" r="2" fill="rgba(147,112,185,0.85)"/>
    <line x1="0" y1="36" x2="0" y2="42"/>
    <circle cx="0" cy="42" r="2" fill="rgba(147,112,185,0.85)"/>
  </g>
  
  <!-- CONICAL capsid (mature) -->
  <path d="M -10 -22 L 10 -22 L 16 18 L -16 18 Z" fill="rgba(108,194,125,0.45)" stroke="#6cc27d" stroke-width="1.6"/>
  
  <!-- RNA inside -->
  <g stroke="#e8a951" stroke-width="1.4" fill="none">
    <path d="M -8 -10 Q -3 -8 0 -10 Q 3 -12 7 -10"/>
    <path d="M -8 0 Q -3 -2 0 0 Q 3 2 7 0"/>
    <path d="M -8 10 Q -3 8 0 10 Q 3 12 7 10"/>
  </g>
  
  <text x="0" y="55" text-anchor="middle" style="fill:#6cc27d;font:italic 700 7px Fraunces,serif">infectious · conical</text>
</g>

<text x="250" y="245" text-anchor="middle" style="fill:#6b7689;font:italic 7.5px Fraunces,serif">Cleavage = maturation step · drug target = protease inhibitors (Station 07)</text>

                  <!-- FOCUS · audio-aligned attention marker -->
                  <circle cx="110" cy="143" r="20" fill="none" stroke="#d14859" stroke-width="1.8" stroke-dasharray="3 2" opacity="0.85">
                    <animate attributeName="r" values="16;26;16" dur="2.4s" repeatCount="indefinite"/>
                    <animate attributeName="opacity" values="0.85;0.20;0.85" dur="2.4s" repeatCount="indefinite"/>
                  </circle>

                  <!-- FOCUS · audio-aligned attention marker -->
                  <circle cx="110" cy="154" r="24" fill="none" stroke="#d14859" stroke-width="1.8" stroke-dasharray="3 2" opacity="0.85">
                    <animate attributeName="r" values="20;30;20" dur="2.4s" repeatCount="indefinite"/>
                    <animate attributeName="opacity" values="0.85;0.20;0.85" dur="2.4s" repeatCount="indefinite"/>
                  </circle>
</svg>
