<?xml version="1.0" encoding="UTF-8"?>
<!--
  Auto-generated from the reference HTML by
  scripts/storymode-extraction/extract.mjs.
  Do not edit by hand — regenerate the file instead.
-->
<svg xmlns="http://www.w3.org/2000/svg" xmlns:xlink="http://www.w3.org/1999/xlink" viewBox="0 0 500 260" preserveAspectRatio="xMidYMid meet">
<text x="20" y="16" style="fill:#e8a951;font:600 9px Inter,sans-serif;letter-spacing:2px">STEP 06 · T CELL · GERMLINE Ig · BIGGER BAND</text>

<!-- T-cell germline Ig locus -->
<text x="250" y="58" text-anchor="middle" style="fill:#4fb8a8;font:700 9px Inter,sans-serif;letter-spacing:1.5px">T-CELL DNA · GERMLINE Ig (UNREARRANGED)</text>

<g transform="translate(60 130)">
  <line x1="0" y1="0" x2="380" y2="0" stroke="#6b7689" stroke-width="1.8"/>
  
  <!-- Cut site LEFT -->
  <line x1="20" y1="-25" x2="20" y2="22" stroke="#d14859" stroke-width="2.4"/>
  <polygon points="20,-25 16,-32 24,-32" fill="#d14859"/>
  <text x="20" y="-37" text-anchor="middle" style="fill:#d14859;font:700 7.5px Inter,sans-serif">CUT</text>
  
  <!-- V segments (~40) -->
  <g fill="#4fb8a8" fill-opacity="0.85">
    <rect x="40" y="-7" width="14" height="14" rx="2"/>
    <rect x="60" y="-7" width="14" height="14" rx="2"/>
    <rect x="80" y="-7" width="14" height="14" rx="2"/>
    <rect x="100" y="-7" width="14" height="14" rx="2"/>
    <rect x="120" y="-7" width="14" height="14" rx="2"/>
  </g>
  <text x="87" y="22" text-anchor="middle" style="fill:#4fb8a8;font:700 7px Inter,sans-serif">V (~40)</text>
  
  <!-- D segments -->
  <g fill="#e8a951" fill-opacity="0.85">
    <rect x="170" y="-7" width="12" height="14" rx="2"/>
    <rect x="186" y="-7" width="12" height="14" rx="2"/>
    <rect x="202" y="-7" width="12" height="14" rx="2"/>
  </g>
  <text x="195" y="22" text-anchor="middle" style="fill:#e8a951;font:700 7px Inter,sans-serif">D (~25)</text>
  
  <!-- J segments (probe target) -->
  <g fill="#9370b9" fill-opacity="0.95">
    <rect x="250" y="-9" width="14" height="18" rx="2"/>
    <rect x="270" y="-9" width="14" height="18" rx="2"/>
    <rect x="290" y="-9" width="14" height="18" rx="2"/>
  </g>
  <text x="277" y="22" text-anchor="middle" style="fill:#9370b9;font:700 7px Inter,sans-serif">J (~6)</text>
  
  <!-- Probe over J -->
  <g transform="translate(277 -32)">
    <path d="M -16 0 L 16 0 L 16 10 L 0 18 L -16 10 Z" fill="#e8a951" fill-opacity="0.9" stroke="#e8a951" stroke-width="1.4"/>
    <text x="0" y="9" text-anchor="middle" style="fill:#0a0e1a;font:700 7px Inter,sans-serif">J probe</text>
  </g>
  
  <!-- C -->
  <rect x="335" y="-10" width="34" height="20" rx="3" fill="#6b7689" fill-opacity="0.85"/>
  <text x="352" y="3" text-anchor="middle" style="fill:#e8ecf3;font:700 9px Inter,sans-serif">C</text>
  
  <!-- Cut site RIGHT (way far!) -->
  <line x1="365" y1="-25" x2="365" y2="22" stroke="#d14859" stroke-width="2.4"/>
  <polygon points="365,-25 361,-32 369,-32" fill="#d14859"/>
  <text x="365" y="-37" text-anchor="middle" style="fill:#d14859;font:700 7.5px Inter,sans-serif">CUT</text>
  
  <!-- Fragment measurement -->
  <line x1="20" y1="55" x2="365" y2="55" stroke="#4fb8a8" stroke-width="2"/>
  <line x1="20" y1="51" x2="20" y2="59" stroke="#4fb8a8" stroke-width="2"/>
  <line x1="365" y1="51" x2="365" y2="59" stroke="#4fb8a8" stroke-width="2"/>
  <text x="192" y="75" text-anchor="middle" style="fill:#4fb8a8;font:700 13px Inter,sans-serif;letter-spacing:1.5px">~6 kb</text>
</g>

<text x="250" y="240" text-anchor="middle" style="fill:#e8a951;font:700 9px Inter,sans-serif;letter-spacing:1.2px">FULL-LENGTH LOCUS = LARGE FRAGMENT BETWEEN CUTS</text>

                  <!-- FOCUS · audio-aligned attention marker -->
                  <circle cx="250" cy="53" r="40" fill="none" stroke="#d14859" stroke-width="1.8" stroke-dasharray="3 2" opacity="0.85">
                    <animate attributeName="r" values="36;46;36" dur="2.4s" repeatCount="indefinite"/>
                    <animate attributeName="opacity" values="0.85;0.20;0.85" dur="2.4s" repeatCount="indefinite"/>
                  </circle>
</svg>
