<?xml version="1.0" encoding="UTF-8"?>
<!--
  Auto-generated from the reference HTML by
  scripts/storymode-extraction/extract.mjs.
  Do not edit by hand — regenerate the file instead.
-->
<svg xmlns="http://www.w3.org/2000/svg" xmlns:xlink="http://www.w3.org/1999/xlink" viewBox="0 0 500 260" preserveAspectRatio="xMidYMid meet">
                  <text x="20" y="22" style="fill:#e8a951;font:600 10px Inter,sans-serif;letter-spacing:2px">STEP 01 · VACCINATED · RE-EXPOSED</text>

                  <!-- Patient on left -->
                  <g transform="translate(95 145)">
                    <circle cx="0" cy="-30" r="14" fill="#b4becf" fill-opacity="0.55" stroke="#b4becf" stroke-width="1.4"></circle>
                    <path d="M -22 -16 L 22 -16 L 30 50 L -30 50 Z" fill="#b4becf" fill-opacity="0.40" stroke="#b4becf" stroke-width="1.4"></path>
                    <text x="0" y="80" text-anchor="middle" style="fill:#b4becf;font:600 8px Inter,sans-serif">25 y/o · vaccinated 6 mo ago</text>
                  </g>

                  <!-- Serum antibodies cloud -->
                  <g transform="translate(240 110)">
                    <text x="0" y="-15" text-anchor="middle" style="fill:#e8a951;font:600 8px Inter,sans-serif;letter-spacing:1.5px">SERUM ANTIBODIES</text>
                    <g transform="translate(-30 0)" opacity="1"><g stroke="#e8a951" stroke-width="3" fill="none" stroke-linecap="round"><path d="M -16 -10 L -7 -2 L 7 -2 L 16 -10"></path><line x1="0" y1="-2" x2="0" y2="14"></line></g><circle cx="-16" cy="-10" r="3" fill="#d14859"></circle><circle cx="16" cy="-10" r="3" fill="#d14859"></circle></g>
                    <g transform="translate(0 -3)" opacity="1"><g stroke="#e8a951" stroke-width="3" fill="none" stroke-linecap="round"><path d="M -16 -10 L -7 -2 L 7 -2 L 16 -10"></path><line x1="0" y1="-2" x2="0" y2="14"></line></g><circle cx="-16" cy="-10" r="3" fill="#d14859"></circle><circle cx="16" cy="-10" r="3" fill="#d14859"></circle></g>
                    <g transform="translate(30 0)" opacity="1"><g stroke="#e8a951" stroke-width="3" fill="none" stroke-linecap="round"><path d="M -16 -10 L -7 -2 L 7 -2 L 16 -10"></path><line x1="0" y1="-2" x2="0" y2="14"></line></g><circle cx="-16" cy="-10" r="3" fill="#d14859"></circle><circle cx="16" cy="-10" r="3" fill="#d14859"></circle></g>
                  </g>

                  <!-- Virus re-exposure -->
                  <g transform="translate(420 145)">
                    <g transform="translate(0 0)" opacity="1"><circle cx="0" cy="0" r="18" fill="#d14859" fill-opacity="0.65" stroke="#d14859" stroke-width="1.5"></circle><line x1="18" y1="0" x2="25" y2="0" stroke="#e8a951" stroke-width="2" stroke-linecap="round"></line><circle cx="25" cy="0" r="2" fill="#e8a951" opacity="0.9"></circle><line x1="12.727922061357857" y1="12.727922061357855" x2="17.67766952966369" y2="17.677669529663685" stroke="#e8a951" stroke-width="2" stroke-linecap="round"></line><circle cx="17.67766952966369" cy="17.677669529663685" r="2" fill="#e8a951" opacity="0.9"></circle><line x1="1.102182119232618e-15" y1="18" x2="1.5308084989341915e-15" y2="25" stroke="#e8a951" stroke-width="2" stroke-linecap="round"></line><circle cx="1.5308084989341915e-15" cy="25" r="2" fill="#e8a951" opacity="0.9"></circle><line x1="-12.727922061357855" y1="12.727922061357857" x2="-17.677669529663685" y2="17.67766952966369" stroke="#e8a951" stroke-width="2" stroke-linecap="round"></line><circle cx="-17.677669529663685" cy="17.67766952966369" r="2" fill="#e8a951" opacity="0.9"></circle><line x1="-18" y1="2.204364238465236e-15" x2="-25" y2="3.061616997868383e-15" stroke="#e8a951" stroke-width="2" stroke-linecap="round"></line><circle cx="-25" cy="3.061616997868383e-15" r="2" fill="#e8a951" opacity="0.9"></circle><line x1="-12.727922061357859" y1="-12.727922061357855" x2="-17.677669529663692" y2="-17.677669529663685" stroke="#e8a951" stroke-width="2" stroke-linecap="round"></line><circle cx="-17.677669529663692" cy="-17.677669529663685" r="2" fill="#e8a951" opacity="0.9"></circle><line x1="-3.3065463576978533e-15" y1="-18" x2="-4.592425496802574e-15" y2="-25" stroke="#e8a951" stroke-width="2" stroke-linecap="round"></line><circle cx="-4.592425496802574e-15" cy="-25" r="2" fill="#e8a951" opacity="0.9"></circle><line x1="12.727922061357852" y1="-12.727922061357859" x2="17.677669529663685" y2="-17.677669529663692" stroke="#e8a951" stroke-width="2" stroke-linecap="round"></line><circle cx="17.677669529663685" cy="-17.677669529663692" r="2" fill="#e8a951" opacity="0.9"></circle></g>
                    <text x="0" y="40" text-anchor="middle" style="fill:#d14859;font:600 8px Inter,sans-serif;letter-spacing:1.5px">RE-EXPOSURE</text>
                  </g>

                  <!-- Question banner at bottom -->
                  <g transform="translate(250 215)">
                    <rect x="-150" y="-15" width="300" height="30" rx="6" fill="#e8a951" fill-opacity="0.20" stroke="#e8a951" stroke-width="1.5"></rect>
                    <text x="0" y="-2" text-anchor="middle" style="fill:#e8a951;font:700 9px Inter,sans-serif;letter-spacing:1.5px">WHAT DO ANTIBODIES DO FIRST?</text>
                    <text x="0" y="11" text-anchor="middle" style="fill:#b4becf;font:italic 7px Fraunces,serif">primary protective mechanism</text>
                  </g>

                  <text x="250" y="252" text-anchor="middle" style="fill:#b4becf;font:italic 10px Fraunces,serif">protection isn't only about killing pathogens — sometimes it's about preventing entry</text>

                  <!-- FOCUS · audio-aligned attention marker -->
                  <circle cx="240" cy="90" r="24" fill="none" stroke="#d14859" stroke-width="1.8" stroke-dasharray="3 2" opacity="0.85">
                    <animate attributeName="r" values="20;30;20" dur="2.4s" repeatCount="indefinite"/>
                    <animate attributeName="opacity" values="0.85;0.20;0.85" dur="2.4s" repeatCount="indefinite"/>
                  </circle>

                  <!-- FOCUS · audio-aligned attention marker -->
                  <circle cx="250" cy="208" r="40" fill="none" stroke="#d14859" stroke-width="1.8" stroke-dasharray="3 2" opacity="0.85">
                    <animate attributeName="r" values="36;46;36" dur="2.4s" repeatCount="indefinite"/>
                    <animate attributeName="opacity" values="0.85;0.20;0.85" dur="2.4s" repeatCount="indefinite"/>
                  </circle>
</svg>
