<?xml version="1.0" encoding="UTF-8"?>
<!--
  Auto-generated from the reference HTML by
  scripts/storymode-extraction/extract.mjs.
  Do not edit by hand — regenerate the file instead.
-->
<svg xmlns="http://www.w3.org/2000/svg" xmlns:xlink="http://www.w3.org/1999/xlink" viewBox="0 0 500 260" preserveAspectRatio="xMidYMid meet">
<text x="20" y="16" style="fill:#e8a951;font:600 9px Inter,sans-serif;letter-spacing:2px">STEP 04 · MATURE · CONICAL CAPSID</text>

<g transform="translate(125 145)">
  <text x="0" y="-90" text-anchor="middle" style="fill:#6b7689;font:700 9px Inter,sans-serif;letter-spacing:1.5px">IMMATURE</text>
  <circle cx="0" cy="0" r="50" fill="rgba(180,190,207,0.20)" stroke="#b4becf" stroke-width="1.4"/>
  <g stroke="#9370b9" stroke-width="1.2" fill="none">
    <line x1="-35" y1="-35" x2="-42" y2="-42"/>
    <circle cx="-42" cy="-42" r="2.5" fill="rgba(147,112,185,0.85)"/>
    <line x1="35" y1="-35" x2="42" y2="-42"/>
    <circle cx="42" cy="-42" r="2.5" fill="rgba(147,112,185,0.85)"/>
    <line x1="0" y1="-50" x2="0" y2="-58"/>
    <circle cx="0" cy="-58" r="2.5" fill="rgba(147,112,185,0.85)"/>
    <line x1="35" y1="35" x2="42" y2="42"/>
    <circle cx="42" cy="42" r="2.5" fill="rgba(147,112,185,0.85)"/>
    <line x1="-35" y1="35" x2="-42" y2="42"/>
    <circle cx="-42" cy="42" r="2.5" fill="rgba(147,112,185,0.85)"/>
  </g>
  <ellipse cx="0" cy="0" rx="32" ry="20" fill="none" stroke="#e8a951" stroke-width="8" opacity="0.55"/>
  <text x="0" y="3" text-anchor="middle" style="fill:#e8a951;font:700 7px Inter,sans-serif">doughnut</text>
  <text x="0" y="68" text-anchor="middle" style="fill:#6b7689;font:italic 700 7px Fraunces,serif">non-infectious</text>
</g>

<g stroke="#d14859" stroke-width="2.4" fill="none" marker-end="url(#arr14_7_4a)">
  <line x1="195" y1="145" x2="295" y2="145"/>
</g>
<defs>
  <marker id="arr14_7_4a" viewBox="0 0 10 10" refX="9" refY="5" markerWidth="7" markerHeight="7" orient="auto">
    <path d="M 0 0 L 10 5 L 0 10 z" fill="#d14859"/>
  </marker>
</defs>
<g transform="translate(245 130)">
  <circle cx="-5" cy="-5" r="4" fill="none" stroke="#d14859" stroke-width="1.4"/>
  <circle cx="5" cy="-5" r="4" fill="none" stroke="#d14859" stroke-width="1.4"/>
  <line x1="-3" y1="-2" x2="6" y2="8" stroke="#d14859" stroke-width="1.4"/>
  <line x1="3" y1="-2" x2="-6" y2="8" stroke="#d14859" stroke-width="1.4"/>
</g>
<text x="245" y="115" text-anchor="middle" style="fill:#d14859;font:700 8px Inter,sans-serif;letter-spacing:1.5px">PROTEASE</text>

<g transform="translate(375 145)">
  <text x="0" y="-90" text-anchor="middle" style="fill:#6cc27d;font:700 9px Inter,sans-serif;letter-spacing:1.5px">MATURE</text>
  <circle cx="0" cy="0" r="50" fill="rgba(180,190,207,0.20)" stroke="#b4becf" stroke-width="1.4"/>
  <g stroke="#9370b9" stroke-width="1.2" fill="none">
    <line x1="-35" y1="-35" x2="-42" y2="-42"/>
    <circle cx="-42" cy="-42" r="2.5" fill="rgba(147,112,185,0.85)"/>
    <line x1="35" y1="-35" x2="42" y2="-42"/>
    <circle cx="42" cy="-42" r="2.5" fill="rgba(147,112,185,0.85)"/>
    <line x1="0" y1="-50" x2="0" y2="-58"/>
    <circle cx="0" cy="-58" r="2.5" fill="rgba(147,112,185,0.85)"/>
    <line x1="35" y1="35" x2="42" y2="42"/>
    <circle cx="42" cy="42" r="2.5" fill="rgba(147,112,185,0.85)"/>
    <line x1="-35" y1="35" x2="-42" y2="42"/>
    <circle cx="-42" cy="42" r="2.5" fill="rgba(147,112,185,0.85)"/>
  </g>
  <path d="M -12 -28 L 12 -28 L 22 25 L -22 25 Z" fill="rgba(108,194,125,0.55)" stroke="#6cc27d" stroke-width="2"/>
  <g stroke="#e8a951" stroke-width="1.4" fill="none">
    <path d="M -10 -15 Q -5 -13 0 -15 Q 5 -17 10 -15"/>
    <path d="M -10 -5 Q -5 -7 0 -5 Q 5 -3 10 -5"/>
    <path d="M -12 5 Q -6 7 0 5 Q 6 3 12 5"/>
    <path d="M -14 15 Q -7 17 0 15 Q 7 13 14 15"/>
  </g>
  <text x="0" y="68" text-anchor="middle" style="fill:#6cc27d;font:italic 700 7px Fraunces,serif">infectious · conical</text>
</g>

<text x="250" y="245" text-anchor="middle" style="fill:#6b7689;font:italic 7.5px Fraunces,serif">Cleavage reorganizes proteins into conical capsid · the EM signature of mature HIV</text>

                  <!-- FOCUS · audio-aligned attention marker -->
                  <circle cx="375" cy="208" r="30" fill="none" stroke="#d14859" stroke-width="1.8" stroke-dasharray="3 2" opacity="0.85">
                    <animate attributeName="r" values="26;36;26" dur="2.4s" repeatCount="indefinite"/>
                    <animate attributeName="opacity" values="0.85;0.20;0.85" dur="2.4s" repeatCount="indefinite"/>
                  </circle>

                  <!-- FOCUS · audio-aligned attention marker -->
                  <circle cx="125" cy="208" r="21" fill="none" stroke="#d14859" stroke-width="1.8" stroke-dasharray="3 2" opacity="0.85">
                    <animate attributeName="r" values="17;27;17" dur="2.4s" repeatCount="indefinite"/>
                    <animate attributeName="opacity" values="0.85;0.20;0.85" dur="2.4s" repeatCount="indefinite"/>
                  </circle>

                  <!-- FOCUS · audio-aligned attention marker -->
                  <circle cx="125" cy="50" r="20" fill="none" stroke="#d14859" stroke-width="1.8" stroke-dasharray="3 2" opacity="0.85">
                    <animate attributeName="r" values="16;26;16" dur="2.4s" repeatCount="indefinite"/>
                    <animate attributeName="opacity" values="0.85;0.20;0.85" dur="2.4s" repeatCount="indefinite"/>
                  </circle>
</svg>
