<?xml version="1.0" encoding="UTF-8"?>
<!--
  Auto-generated from the reference HTML by
  scripts/storymode-extraction/extract.mjs.
  Do not edit by hand — regenerate the file instead.
-->
<svg xmlns="http://www.w3.org/2000/svg" xmlns:xlink="http://www.w3.org/1999/xlink" viewBox="0 0 500 260" preserveAspectRatio="xMidYMid meet">
<text x="20" y="16" style="fill:#e8a951;font:600 9px Inter,sans-serif;letter-spacing:2px">STEP 07 · ANSWER · C · HISTAMINE FROM MAST CELL</text>
    <g opacity="1">
      <line x1="20" y1="60"  x2="480" y2="60"  stroke="#b4becf" stroke-width="1" opacity="0.4"/>
      <line x1="20" y1="118" x2="480" y2="118" stroke="#b4becf" stroke-width="1" opacity="0.4"/>
      <rect x="20" y="60" width="460" height="58" fill="#b4becf" opacity="0.04"/>
      <text x="478" y="56" text-anchor="end" style="fill:#6b7689;font:600 7px 'JetBrains Mono',monospace;letter-spacing:1.5px">EPIDERMIS</text>
      <text x="478" y="129" text-anchor="end" style="fill:#6b7689;font:600 7px 'JetBrains Mono',monospace;letter-spacing:1.5px">DERMIS</text>
    </g><g transform="translate(105 89)" opacity="1">
    <ellipse cx="0" cy="0" rx="24" ry="20" fill="#d14859" opacity="0.32" stroke="#d14859" stroke-width="1.5"/><g fill="#d14859" opacity="0.12">
    <circle cx="-9" cy="-3" r="2"/><circle cx="-2" cy="5" r="2"/><circle cx="6" cy="-4" r="2"/>
    <circle cx="11" cy="3" r="2"/><circle cx="-11" cy="7" r="2"/><circle cx="0" cy="-9" r="2"/>
    <circle cx="-5" cy="-7" r="2"/><circle cx="9" cy="-9" r="2"/>
  </g><g transform="translate(-14 -22)">
      <rect x="-1.3" y="0" width="2.6" height="3.5" fill="#9370b9" opacity="0.95"/>
      <line x1="0" y1="0" x2="0" y2="-2.5" stroke="#e8a951" stroke-width="1.5"/>
      <line x1="0" y1="-2.5" x2="-3.5" y2="-7" stroke="#e8a951" stroke-width="1.5"/>
      <line x1="0" y1="-2.5" x2="3.5"  y2="-7" stroke="#e8a951" stroke-width="1.5"/>
    </g><g transform="translate(-4 -22)">
      <rect x="-1.3" y="0" width="2.6" height="3.5" fill="#9370b9" opacity="0.95"/>
      <line x1="0" y1="0" x2="0" y2="-2.5" stroke="#e8a951" stroke-width="1.5"/>
      <line x1="0" y1="-2.5" x2="-3.5" y2="-7" stroke="#e8a951" stroke-width="1.5"/>
      <line x1="0" y1="-2.5" x2="3.5"  y2="-7" stroke="#e8a951" stroke-width="1.5"/>
    </g><g transform="translate(4 -22)">
      <rect x="-1.3" y="0" width="2.6" height="3.5" fill="#9370b9" opacity="0.95"/>
      <line x1="0" y1="0" x2="0" y2="-2.5" stroke="#e8a951" stroke-width="1.5"/>
      <line x1="0" y1="-2.5" x2="-3.5" y2="-7" stroke="#e8a951" stroke-width="1.5"/>
      <line x1="0" y1="-2.5" x2="3.5"  y2="-7" stroke="#e8a951" stroke-width="1.5"/>
    </g><g transform="translate(14 -22)">
      <rect x="-1.3" y="0" width="2.6" height="3.5" fill="#9370b9" opacity="0.95"/>
      <line x1="0" y1="0" x2="0" y2="-2.5" stroke="#e8a951" stroke-width="1.5"/>
      <line x1="0" y1="-2.5" x2="-3.5" y2="-7" stroke="#e8a951" stroke-width="1.5"/>
      <line x1="0" y1="-2.5" x2="3.5"  y2="-7" stroke="#e8a951" stroke-width="1.5"/>
    </g><text x="0" y="35" text-anchor="middle" style="fill:#d14859;font:700 7.5px Inter,sans-serif;letter-spacing:1.2px">MAST CELL</text></g><g opacity="1">
    <g transform="translate(105 56)">
      <ellipse cx="0" cy="0" rx="8" ry="5" fill="#4fb8a8" opacity="0.9" stroke="#4fb8a8" stroke-width="1.2"/>
      <circle cx="-3" cy="0" r="1.3" fill="#0a0e1a"/>
      <circle cx="3" cy="0" r="1.3" fill="#0a0e1a"/>
    </g><text x="105" y="42" text-anchor="middle" style="fill:#4fb8a8;font:600 7.5px Inter,sans-serif">shrimp allergen</text><line x1="102" y1="60" x2="101" y2="60" stroke="#4fb8a8" stroke-width="1.1" stroke-dasharray="2 1.2" opacity="0.85"/>
            <line x1="108" y1="60" x2="109" y2="60" stroke="#4fb8a8" stroke-width="1.1" stroke-dasharray="2 1.2" opacity="0.85"/></g><g><circle cx="175" cy="88" r="2" fill="#e8a951"/>
            <circle cx="175" cy="88" r="3.6" fill="#e8a951" opacity="0.3"/><circle cx="195" cy="96" r="2" fill="#e8a951"/>
            <circle cx="195" cy="96" r="3.6" fill="#e8a951" opacity="0.3"/><circle cx="200" cy="80" r="2" fill="#e8a951"/>
            <circle cx="200" cy="80" r="3.6" fill="#e8a951" opacity="0.3"/><circle cx="185" cy="78" r="2" fill="#e8a951"/>
            <circle cx="185" cy="78" r="3.6" fill="#e8a951" opacity="0.3"/><line x1="135" y1="89" x2="210" y2="89" stroke="#e8a951" stroke-width="0.6" stroke-dasharray="1.5 2" opacity="0.45"/></g><g opacity="1"><line x1="215" y1="78" x2="465" y2="78" stroke="#d14859" stroke-width="1.6" opacity="0.85"/><line x1="215" y1="100" x2="465" y2="100" stroke="#d14859" stroke-width="1.6" opacity="0.85"/><rect x="215" y="78" width="250" height="22" fill="#d14859" opacity="0.12"/><circle cx="240" cy="89" r="2.6" fill="#d14859" opacity="0.85"/><circle cx="285" cy="89" r="2.6" fill="#d14859" opacity="0.85"/><circle cx="325" cy="89" r="2.6" fill="#d14859" opacity="0.85"/><circle cx="365" cy="89" r="2.6" fill="#d14859" opacity="0.85"/><circle cx="405" cy="89" r="2.6" fill="#d14859" opacity="0.85"/><circle cx="445" cy="89" r="2.6" fill="#d14859" opacity="0.85"/><text x="340" y="115" text-anchor="middle" style="fill:#d14859;font:700 7.5px Inter,sans-serif;letter-spacing:1.2px">DERMAL CAPILLARY</text><g opacity="0.6">
        <circle cx="245" cy="73" r="1.3" fill="#e8a951"/>
        <circle cx="248" cy="66" r="1.1" fill="#e8a951"/>
        <circle cx="243" cy="60" r="1" fill="#e8a951"/>
      </g><g opacity="0.6">
        <circle cx="295" cy="73" r="1.3" fill="#e8a951"/>
        <circle cx="298" cy="66" r="1.1" fill="#e8a951"/>
        <circle cx="293" cy="60" r="1" fill="#e8a951"/>
      </g><g opacity="0.6">
        <circle cx="345" cy="73" r="1.3" fill="#e8a951"/>
        <circle cx="348" cy="66" r="1.1" fill="#e8a951"/>
        <circle cx="343" cy="60" r="1" fill="#e8a951"/>
      </g><g opacity="0.6">
        <circle cx="395" cy="73" r="1.3" fill="#e8a951"/>
        <circle cx="398" cy="66" r="1.1" fill="#e8a951"/>
        <circle cx="393" cy="60" r="1" fill="#e8a951"/>
      </g><g opacity="0.6">
        <circle cx="445" cy="73" r="1.3" fill="#e8a951"/>
        <circle cx="448" cy="66" r="1.1" fill="#e8a951"/>
        <circle cx="443" cy="60" r="1" fill="#e8a951"/>
      </g><path d="M 220 60 Q 340 28 460 60" stroke="#d14859" stroke-width="1.8" fill="#d14859" fill-opacity="0.18"/>
            <text x="340" y="42" text-anchor="middle" style="fill:#d14859;font:italic 9px Fraunces,serif">wheal · raised + erythematous + itchy</text></g>
    <g transform="translate(340 152)">
      <text x="0" y="0" text-anchor="middle" style="fill:#e8a951;font:600 7.5px Inter,sans-serif;letter-spacing:1.2px">H1 RECEPTOR EFFECTS · SECONDS</text>
      <text x="0" y="14" text-anchor="middle" style="fill:#d14859;font:8.5px Inter,sans-serif">vasodilation · ↑ permeability · itch</text>
    </g><g transform="translate(23 220)">
      <rect x="0" y="0" width="86" height="26" rx="13" fill="transparent" stroke="#3a4358" stroke-width="1"/>
      <circle cx="13" cy="13" r="8" fill="transparent" stroke="#3a4358" stroke-width="1.2"/>
      <text x="13" y="16.5" text-anchor="middle" style="fill:#6b7689;font:700 9px Inter,sans-serif">A</text>
      <text x="26" y="17" style="fill:#6b7689;font:9px Inter,sans-serif">bradykinin</text>
      <line x1="26" y1="13" x2="80" y2="13" stroke="#6b7689" stroke-width="0.7" opacity="0.7"/>
    </g><g transform="translate(115 220)">
      <rect x="0" y="0" width="86" height="26" rx="13" fill="transparent" stroke="#3a4358" stroke-width="1"/>
      <circle cx="13" cy="13" r="8" fill="transparent" stroke="#3a4358" stroke-width="1.2"/>
      <text x="13" y="16.5" text-anchor="middle" style="fill:#6b7689;font:700 9px Inter,sans-serif">B</text>
      <text x="26" y="17" style="fill:#6b7689;font:9px Inter,sans-serif">C5a</text>
      <line x1="26" y1="13" x2="80" y2="13" stroke="#6b7689" stroke-width="0.7" opacity="0.7"/>
    </g><g transform="translate(207 220)">
      <rect x="0" y="0" width="86" height="26" rx="13" fill="rgba(232, 169, 81, 0.18)" stroke="#e8a951" stroke-width="1.8"/>
      <circle cx="13" cy="13" r="8" fill="#e8a951" stroke="#e8a951" stroke-width="1.2"/>
      <text x="13" y="16.5" text-anchor="middle" style="fill:#0a0e1a;font:700 9px Inter,sans-serif">C</text>
      <text x="26" y="17" style="fill:#e8a951;font:9px Inter,sans-serif">histamine</text>

    </g><g transform="translate(299 220)">
      <rect x="0" y="0" width="86" height="26" rx="13" fill="transparent" stroke="#3a4358" stroke-width="1"/>
      <circle cx="13" cy="13" r="8" fill="transparent" stroke="#3a4358" stroke-width="1.2"/>
      <text x="13" y="16.5" text-anchor="middle" style="fill:#6b7689;font:700 9px Inter,sans-serif">D</text>
      <text x="26" y="17" style="fill:#6b7689;font:9px Inter,sans-serif">IL-5</text>
      <line x1="26" y1="13" x2="80" y2="13" stroke="#6b7689" stroke-width="0.7" opacity="0.7"/>
    </g><g transform="translate(391 220)">
      <rect x="0" y="0" width="86" height="26" rx="13" fill="transparent" stroke="#3a4358" stroke-width="1"/>
      <circle cx="13" cy="13" r="8" fill="transparent" stroke="#3a4358" stroke-width="1.2"/>
      <text x="13" y="16.5" text-anchor="middle" style="fill:#6b7689;font:700 9px Inter,sans-serif">E</text>
      <text x="26" y="17" style="fill:#6b7689;font:9px Inter,sans-serif">TNF-α</text>
      <line x1="26" y1="13" x2="80" y2="13" stroke="#6b7689" stroke-width="0.7" opacity="0.7"/>
    </g>

                  <!-- FOCUS · audio-aligned attention marker -->
                  <circle cx="233" cy="232" r="20" fill="none" stroke="#d14859" stroke-width="1.8" stroke-dasharray="3 2" opacity="0.85">
                    <animate attributeName="r" values="16;26;16" dur="2.4s" repeatCount="indefinite"/>
                    <animate attributeName="opacity" values="0.85;0.20;0.85" dur="2.4s" repeatCount="indefinite"/>
                  </circle>
</svg>
