<?xml version="1.0" encoding="UTF-8"?>
<!--
  Auto-generated from the reference HTML by
  scripts/storymode-extraction/extract.mjs.
  Do not edit by hand — regenerate the file instead.
-->
<svg xmlns="http://www.w3.org/2000/svg" xmlns:xlink="http://www.w3.org/1999/xlink" viewBox="0 0 500 260" preserveAspectRatio="xMidYMid meet">
                  <text x="20" y="22" style="fill:#e8a951;font:600 10px Inter,sans-serif;letter-spacing:2px">STEP 13 · OSMOTIC LYSIS</text>

                  <g opacity="1"><ellipse cx="96" cy="145" rx="20" ry="24" fill="#d14859" fill-opacity="0.18" stroke="#d14859" stroke-width="1.4" stroke-dasharray="3 3"></ellipse><ellipse cx="124" cy="145" rx="20" ry="24" fill="#d14859" fill-opacity="0.18" stroke="#d14859" stroke-width="1.4" stroke-dasharray="3 3"></ellipse><g fill="#d14859" opacity="0.55">
                      <circle cx="75" cy="120" r="2.5"></circle>
                      <circle cx="148" cy="123" r="2"></circle>
                      <circle cx="82" cy="175" r="2"></circle>
                      <circle cx="142" cy="173" r="2.5"></circle>
                      <circle cx="110" cy="183" r="1.8"></circle>
                      <circle cx="115" cy="110" r="1.8"></circle>
                    </g></g>
                    <line x1="200" y1="155" x2="470" y2="155" stroke="#e8a951" stroke-width="2" opacity="0.75"></line>
                    <line x1="200" y1="175" x2="470" y2="175" stroke="#e8a951" stroke-width="2" opacity="0.75"></line>
                    <rect x="200" y="155" width="270" height="20" fill="#e8a951" fill-opacity="0.10"></rect>
                  <text x="205" y="100" style="fill:#b4becf;font:600 7px Inter,sans-serif;letter-spacing:1.5px">EXTRACELLULAR</text><text x="205" y="200" style="fill:#b4becf;font:600 7px Inter,sans-serif;letter-spacing:1.5px">BACTERIAL INTERIOR</text>
                    <g transform="translate(240 165)" opacity="1">
                      <ellipse cx="0" cy="-15" rx="7" ry="3" fill="#4fb8a8" fill-opacity="0.85" stroke="#4fb8a8" stroke-width="1.3"></ellipse>
                      <rect x="-7" y="-15" width="14" height="30" fill="#4fb8a8" fill-opacity="0.55" stroke="#4fb8a8" stroke-width="1.3"></rect>
                      <ellipse cx="0" cy="15" rx="7" ry="3" fill="#4fb8a8" fill-opacity="0.55" stroke="#4fb8a8" stroke-width="1.3"></ellipse>
                      <text x="0" y="2" text-anchor="middle" style="fill:#e8ecf3;font:700 7px Inter,sans-serif">C5b</text>
                    </g>
  
                    <g transform="translate(275 165)" opacity="1">
                      <ellipse cx="0" cy="-15" rx="7" ry="3" fill="#4fb8a8" fill-opacity="0.85" stroke="#4fb8a8" stroke-width="1.3"></ellipse>
                      <rect x="-7" y="-15" width="14" height="30" fill="#4fb8a8" fill-opacity="0.55" stroke="#4fb8a8" stroke-width="1.3"></rect>
                      <ellipse cx="0" cy="15" rx="7" ry="3" fill="#4fb8a8" fill-opacity="0.55" stroke="#4fb8a8" stroke-width="1.3"></ellipse>
                      <text x="0" y="2" text-anchor="middle" style="fill:#e8ecf3;font:700 7px Inter,sans-serif">C6</text>
                    </g>
  
                    <g transform="translate(305 165)" opacity="1">
                      <ellipse cx="0" cy="-15" rx="7" ry="3" fill="#4fb8a8" fill-opacity="0.85" stroke="#4fb8a8" stroke-width="1.3"></ellipse>
                      <rect x="-7" y="-15" width="14" height="30" fill="#4fb8a8" fill-opacity="0.55" stroke="#4fb8a8" stroke-width="1.3"></rect>
                      <ellipse cx="0" cy="15" rx="7" ry="3" fill="#4fb8a8" fill-opacity="0.55" stroke="#4fb8a8" stroke-width="1.3"></ellipse>
                      <text x="0" y="2" text-anchor="middle" style="fill:#e8ecf3;font:700 7px Inter,sans-serif">C7</text>
                    </g>
  
                    <g transform="translate(335 165)" opacity="1">
                      <ellipse cx="0" cy="-15" rx="7" ry="3" fill="#4fb8a8" fill-opacity="0.85" stroke="#4fb8a8" stroke-width="1.3"></ellipse>
                      <rect x="-7" y="-15" width="14" height="30" fill="#4fb8a8" fill-opacity="0.55" stroke="#4fb8a8" stroke-width="1.3"></rect>
                      <ellipse cx="0" cy="15" rx="7" ry="3" fill="#4fb8a8" fill-opacity="0.55" stroke="#4fb8a8" stroke-width="1.3"></ellipse>
                      <text x="0" y="2" text-anchor="middle" style="fill:#e8ecf3;font:700 7px Inter,sans-serif">C8</text>
                    </g>
  
                    <g transform="translate(370 165)" opacity="1">
                      <ellipse cx="0" cy="-15" rx="6" ry="3" fill="#9370b9" fill-opacity="0.85" stroke="#9370b9" stroke-width="1.3"></ellipse>
                      <rect x="-6" y="-15" width="12" height="30" fill="#9370b9" fill-opacity="0.55" stroke="#9370b9" stroke-width="1.3"></rect>
                      <ellipse cx="0" cy="15" rx="6" ry="3" fill="#9370b9" fill-opacity="0.55" stroke="#9370b9" stroke-width="1.3"></ellipse>
                      <text x="0" y="2" text-anchor="middle" style="fill:#e8ecf3;font:700 7px Inter,sans-serif">C9</text>
                    </g>
  
                    <g transform="translate(388 165)" opacity="1">
                      <ellipse cx="0" cy="-15" rx="6" ry="3" fill="#9370b9" fill-opacity="0.85" stroke="#9370b9" stroke-width="1.3"></ellipse>
                      <rect x="-6" y="-15" width="12" height="30" fill="#9370b9" fill-opacity="0.55" stroke="#9370b9" stroke-width="1.3"></rect>
                      <ellipse cx="0" cy="15" rx="6" ry="3" fill="#9370b9" fill-opacity="0.55" stroke="#9370b9" stroke-width="1.3"></ellipse>
                      <text x="0" y="2" text-anchor="middle" style="fill:#e8ecf3;font:700 7px Inter,sans-serif">C9</text>
                    </g>
  
                    <g transform="translate(406 165)" opacity="1">
                      <ellipse cx="0" cy="-15" rx="6" ry="3" fill="#9370b9" fill-opacity="0.85" stroke="#9370b9" stroke-width="1.3"></ellipse>
                      <rect x="-6" y="-15" width="12" height="30" fill="#9370b9" fill-opacity="0.55" stroke="#9370b9" stroke-width="1.3"></rect>
                      <ellipse cx="0" cy="15" rx="6" ry="3" fill="#9370b9" fill-opacity="0.55" stroke="#9370b9" stroke-width="1.3"></ellipse>
                      <text x="0" y="2" text-anchor="middle" style="fill:#e8ecf3;font:700 7px Inter,sans-serif">C9</text>
                    </g>
  
                    <g transform="translate(424 165)" opacity="1">
                      <ellipse cx="0" cy="-15" rx="6" ry="3" fill="#9370b9" fill-opacity="0.85" stroke="#9370b9" stroke-width="1.3"></ellipse>
                      <rect x="-6" y="-15" width="12" height="30" fill="#9370b9" fill-opacity="0.55" stroke="#9370b9" stroke-width="1.3"></rect>
                      <ellipse cx="0" cy="15" rx="6" ry="3" fill="#9370b9" fill-opacity="0.55" stroke="#9370b9" stroke-width="1.3"></ellipse>
                      <text x="0" y="2" text-anchor="middle" style="fill:#e8ecf3;font:700 7px Inter,sans-serif">C9</text>
                    </g>
  
                    <g transform="translate(442 165)" opacity="1">
                      <ellipse cx="0" cy="-15" rx="6" ry="3" fill="#9370b9" fill-opacity="0.85" stroke="#9370b9" stroke-width="1.3"></ellipse>
                      <rect x="-6" y="-15" width="12" height="30" fill="#9370b9" fill-opacity="0.55" stroke="#9370b9" stroke-width="1.3"></rect>
                      <ellipse cx="0" cy="15" rx="6" ry="3" fill="#9370b9" fill-opacity="0.55" stroke="#9370b9" stroke-width="1.3"></ellipse>
                      <text x="0" y="2" text-anchor="middle" style="fill:#e8ecf3;font:700 7px Inter,sans-serif">C9</text>
                    </g>
                  <path d="M 360 130 L 360 125 L 452 125 L 452 130" stroke="#9370b9" stroke-width="1.4" fill="none"></path>
                      <rect x="370" y="153" width="74" height="24" fill="#0a0e1a"></rect>
                      <line x1="370" y1="155" x2="370" y2="175" stroke="#d14859" stroke-width="1.5"></line>
                      <line x1="444" y1="155" x2="444" y2="175" stroke="#d14859" stroke-width="1.5"></line>
    
                    <g transform="translate(370 165)" opacity="1">
                      <ellipse cx="0" cy="-15" rx="6" ry="3" fill="#9370b9" fill-opacity="0.85" stroke="#9370b9" stroke-width="1.3"></ellipse>
                      <rect x="-6" y="-15" width="12" height="30" fill="#9370b9" fill-opacity="0.55" stroke="#9370b9" stroke-width="1.3"></rect>
                      <ellipse cx="0" cy="15" rx="6" ry="3" fill="#9370b9" fill-opacity="0.55" stroke="#9370b9" stroke-width="1.3"></ellipse>
                      <text x="0" y="2" text-anchor="middle" style="fill:#e8ecf3;font:700 7px Inter,sans-serif">C9</text>
                    </g>
  
                    <g transform="translate(388 165)" opacity="1">
                      <ellipse cx="0" cy="-15" rx="6" ry="3" fill="#9370b9" fill-opacity="0.85" stroke="#9370b9" stroke-width="1.3"></ellipse>
                      <rect x="-6" y="-15" width="12" height="30" fill="#9370b9" fill-opacity="0.55" stroke="#9370b9" stroke-width="1.3"></rect>
                      <ellipse cx="0" cy="15" rx="6" ry="3" fill="#9370b9" fill-opacity="0.55" stroke="#9370b9" stroke-width="1.3"></ellipse>
                      <text x="0" y="2" text-anchor="middle" style="fill:#e8ecf3;font:700 7px Inter,sans-serif">C9</text>
                    </g>
  
                    <g transform="translate(406 165)" opacity="1">
                      <ellipse cx="0" cy="-15" rx="6" ry="3" fill="#9370b9" fill-opacity="0.85" stroke="#9370b9" stroke-width="1.3"></ellipse>
                      <rect x="-6" y="-15" width="12" height="30" fill="#9370b9" fill-opacity="0.55" stroke="#9370b9" stroke-width="1.3"></rect>
                      <ellipse cx="0" cy="15" rx="6" ry="3" fill="#9370b9" fill-opacity="0.55" stroke="#9370b9" stroke-width="1.3"></ellipse>
                      <text x="0" y="2" text-anchor="middle" style="fill:#e8ecf3;font:700 7px Inter,sans-serif">C9</text>
                    </g>
  
                    <g transform="translate(424 165)" opacity="1">
                      <ellipse cx="0" cy="-15" rx="6" ry="3" fill="#9370b9" fill-opacity="0.85" stroke="#9370b9" stroke-width="1.3"></ellipse>
                      <rect x="-6" y="-15" width="12" height="30" fill="#9370b9" fill-opacity="0.55" stroke="#9370b9" stroke-width="1.3"></rect>
                      <ellipse cx="0" cy="15" rx="6" ry="3" fill="#9370b9" fill-opacity="0.55" stroke="#9370b9" stroke-width="1.3"></ellipse>
                      <text x="0" y="2" text-anchor="middle" style="fill:#e8ecf3;font:700 7px Inter,sans-serif">C9</text>
                    </g>
  
                    <g transform="translate(442 165)" opacity="1">
                      <ellipse cx="0" cy="-15" rx="6" ry="3" fill="#9370b9" fill-opacity="0.85" stroke="#9370b9" stroke-width="1.3"></ellipse>
                      <rect x="-6" y="-15" width="12" height="30" fill="#9370b9" fill-opacity="0.55" stroke="#9370b9" stroke-width="1.3"></rect>
                      <ellipse cx="0" cy="15" rx="6" ry="3" fill="#9370b9" fill-opacity="0.55" stroke="#9370b9" stroke-width="1.3"></ellipse>
                      <text x="0" y="2" text-anchor="middle" style="fill:#e8ecf3;font:700 7px Inter,sans-serif">C9</text>
                    </g>
  
                      <g stroke="#4fb8a8" stroke-width="1.6" fill="#4fb8a8" opacity="0.85">
                        <path d="M 385 130 L 385 152" fill="none"></path>
                        <polygon points="385,152 382,146 388,146"></polygon>
                        <path d="M 405 130 L 405 152" fill="none"></path>
                        <polygon points="405,152 402,146 408,146"></polygon>
                        <path d="M 425 130 L 425 152" fill="none"></path>
                        <polygon points="425,152 422,146 428,146"></polygon>
                      </g>
                      <text x="405" y="118" text-anchor="middle" style="fill:#4fb8a8;font:600 8px Inter,sans-serif;letter-spacing:1.2px">H₂O · IONS</text>
    
                      <g stroke="#4fb8a8" stroke-width="1.6" fill="#4fb8a8" opacity="0.85">
                        <path d="M 385 178 L 385 200" fill="none"></path>
                        <polygon points="385,200 382,194 388,194"></polygon>
                        <path d="M 405 178 L 405 200" fill="none"></path>
                        <polygon points="405,200 402,194 408,194"></polygon>
                        <path d="M 425 178 L 425 200" fill="none"></path>
                        <polygon points="425,200 422,194 428,194"></polygon>
                      </g>
    

                  <text x="250" y="252" text-anchor="middle" style="fill:#b4becf;font:italic 10px Fraunces,serif">water and ions flood in · the bacterium swells and bursts</text>

                  <!-- FOCUS · audio-aligned attention marker -->
                  <circle cx="405" cy="113" r="20" fill="none" stroke="#d14859" stroke-width="1.8" stroke-dasharray="3 2" opacity="0.85">
                    <animate attributeName="r" values="16;26;16" dur="2.4s" repeatCount="indefinite"/>
                    <animate attributeName="opacity" values="0.85;0.20;0.85" dur="2.4s" repeatCount="indefinite"/>
                  </circle>
</svg>
