<?xml version="1.0" encoding="UTF-8"?>
<!--
  Auto-generated from the reference HTML by
  scripts/storymode-extraction/extract.mjs.
  Do not edit by hand — regenerate the file instead.
-->
<svg xmlns="http://www.w3.org/2000/svg" xmlns:xlink="http://www.w3.org/1999/xlink" viewBox="0 0 500 260" preserveAspectRatio="xMidYMid meet">
                  <text x="20" y="16" style="fill:#e8a951;font:600 9px Inter,sans-serif;letter-spacing:2px">STEP 01 · BLOOD CONTAINS DONOR T LYMPHOCYTES</text>

                  <g transform="translate(155 145)">
                    <g transform="translate(0 0)" opacity="1"><rect x="-3" y="-63" width="6" height="6" fill="#6b7689" opacity="0.65"></rect><path d="M -35 -55 L 35 -55 L 31 55 L -31 55 Z" fill="#d14859" fill-opacity="0.55" stroke="#d14859" stroke-width="1.5"></path><g fill="#9c2937" fill-opacity="0.85"><ellipse cx="-12" cy="-25" rx="3" ry="2"></ellipse><ellipse cx="10" cy="-28" rx="3" ry="2"></ellipse><ellipse cx="0" cy="-10" rx="3" ry="2"></ellipse><ellipse cx="-10" cy="-5" rx="3" ry="2"></ellipse><ellipse cx="12" cy="-8" rx="3" ry="2"></ellipse><ellipse cx="-15" cy="8" rx="3" ry="2"></ellipse><ellipse cx="10" cy="12" rx="3" ry="2"></ellipse><ellipse cx="-5" cy="22" rx="3" ry="2"></ellipse><ellipse cx="12" cy="25" rx="3" ry="2"></ellipse><ellipse cx="-12" cy="28" rx="3" ry="2"></ellipse></g><g fill="#e8a951" fill-opacity="0.95" stroke="#e8a951" stroke-width="0.8"><circle cx="-10" cy="-15" r="4"></circle><circle cx="6" cy="0" r="4"></circle><circle cx="-3" cy="20" r="4"></circle></g></g>
                    <text x="0" y="78" text-anchor="middle" style="fill:#d14859;font:700 9px Inter,sans-serif;letter-spacing:1.5px">UNIT OF BLOOD</text>
                  </g>

                  <g transform="translate(330 145)">
                    <text x="0" y="-65" text-anchor="middle" style="fill:#9370b9;font:700 9px Inter,sans-serif;letter-spacing:1.5px">CONTENTS</text>
                    <rect x="-75" y="-50" width="150" height="100" rx="8" fill="#1a2030" stroke="#3a4358" stroke-width="1.4"></rect>
                    <g fill="#9c2937" fill-opacity="0.85">
<ellipse cx="-50" cy="-30" rx="6" ry="4"></ellipse>
<ellipse cx="-30" cy="-25" rx="6" ry="4"></ellipse>
<ellipse cx="-10" cy="-32" rx="6" ry="4"></ellipse>
<ellipse cx="-55" cy="-10" rx="6" ry="4"></ellipse>
<ellipse cx="-25" cy="-5" rx="6" ry="4"></ellipse>
<ellipse cx="-50" cy="15" rx="6" ry="4"></ellipse>
<ellipse cx="-30" cy="30" rx="6" ry="4"></ellipse>
<ellipse cx="-12" cy="20" rx="6" ry="4"></ellipse>
                    </g>
                    <g transform="translate(20 -25)" opacity="1"><circle cx="0" cy="0" r="9" fill="#e8a951" fill-opacity="0.55" stroke="#e8a951" stroke-width="1.2"></circle><ellipse cx="-2" cy="-1" rx="3.6" ry="3.15" fill="#4a2d60" opacity="0.85"></ellipse><text x="0" y="2" text-anchor="middle" style="fill:#e8ecf3;font:700 6px Inter,sans-serif">T</text></g>
                    <g transform="translate(45 0)" opacity="1"><circle cx="0" cy="0" r="9" fill="#e8a951" fill-opacity="0.55" stroke="#e8a951" stroke-width="1.2"></circle><ellipse cx="-2" cy="-1" rx="3.6" ry="3.15" fill="#4a2d60" opacity="0.85"></ellipse><text x="0" y="2" text-anchor="middle" style="fill:#e8ecf3;font:700 6px Inter,sans-serif">T</text></g>
                    <g transform="translate(20 25)" opacity="1"><circle cx="0" cy="0" r="9" fill="#e8a951" fill-opacity="0.55" stroke="#e8a951" stroke-width="1.2"></circle><ellipse cx="-2" cy="-1" rx="3.6" ry="3.15" fill="#4a2d60" opacity="0.85"></ellipse><text x="0" y="2" text-anchor="middle" style="fill:#e8ecf3;font:700 6px Inter,sans-serif">T</text></g>
                    <text x="-40" y="62" text-anchor="middle" style="fill:#9c2937;font:600 7px Inter,sans-serif;letter-spacing:1.2px">RBCs</text>
                    <text x="35" y="62" text-anchor="middle" style="fill:#e8a951;font:700 7px Inter,sans-serif;letter-spacing:1.2px">DONOR T CELLS</text>
                  </g>

                  <text x="250" y="245" text-anchor="middle" style="fill:#b4becf;font:italic 7.5px Fraunces,serif">every unit of blood carries living lymphocytes · standard processing does not remove them</text>

                  <!-- FOCUS · audio-aligned attention marker -->
                  <circle cx="365" cy="202" r="20" fill="none" stroke="#d14859" stroke-width="1.8" stroke-dasharray="3 2" opacity="0.85">
                    <animate attributeName="r" values="16;26;16" dur="2.4s" repeatCount="indefinite"/>
                    <animate attributeName="opacity" values="0.85;0.20;0.85" dur="2.4s" repeatCount="indefinite"/>
                  </circle>
</svg>
