<?xml version="1.0" encoding="UTF-8"?>
<!--
  Auto-generated from the reference HTML by
  scripts/storymode-extraction/extract.mjs.
  Do not edit by hand — regenerate the file instead.
-->
<svg xmlns="http://www.w3.org/2000/svg" xmlns:xlink="http://www.w3.org/1999/xlink" viewBox="0 0 500 260" preserveAspectRatio="xMidYMid meet">
<text x="20" y="16" style="fill:#e8a951;font:600 9px Inter,sans-serif;letter-spacing:2px">STEP 03 · ANTIBODY ESCAPE VIA SELECTION</text>

<text x="100" y="55" text-anchor="middle" style="fill:#b4becf;font:700 9px Inter,sans-serif;letter-spacing:1px">DAY 0</text>
<text x="250" y="55" text-anchor="middle" style="fill:#b4becf;font:700 9px Inter,sans-serif;letter-spacing:1px">+ ANTIBODY</text>
<text x="400" y="55" text-anchor="middle" style="fill:#b4becf;font:700 9px Inter,sans-serif;letter-spacing:1px">DAY 90</text>

<!-- DAY 0: many copies of dominant variant + a few minor variants -->
<g transform="translate(100 130)">
  <circle cx="0" cy="0" r="44" fill="rgba(232,169,81,0.06)" stroke="#e8a951" stroke-width="0.8" stroke-dasharray="2 2"/>
  <circle cx="-15" cy="-10" r="6" fill="#e8a951" opacity="0.9"/>
  <circle cx="-3" cy="-15" r="6" fill="#e8a951" opacity="0.9"/>
  <circle cx="10" cy="-10" r="6" fill="#e8a951" opacity="0.9"/>
  <circle cx="-15" cy="5" r="6" fill="#e8a951" opacity="0.9"/>
  <circle cx="-3" cy="0" r="6" fill="#e8a951" opacity="0.9"/>
  <circle cx="10" cy="5" r="6" fill="#e8a951" opacity="0.9"/>
  <circle cx="22" cy="-2" r="6" fill="#e8a951" opacity="0.9"/>
  <circle cx="-12" cy="20" r="6" fill="#e8a951" opacity="0.9"/>
  <circle cx="2" cy="18" r="6" fill="#9370b9" opacity="0.9"/>
  <circle cx="20" cy="18" r="6" fill="#d14859" opacity="0.9"/>
  
  <text x="0" y="55" text-anchor="middle" style="fill:#e8a951;font:700 7px Inter,sans-serif">DOMINANT</text>
  <text x="0" y="65" text-anchor="middle" style="fill:#6b7689;font:italic 6.5px Fraunces,serif">+ rare variants</text>
</g>

<!-- DAY 90: dominant cleared, resistant ones flourish -->
<g transform="translate(400 130)">
  <circle cx="0" cy="0" r="44" fill="rgba(232,169,81,0.06)" stroke="#e8a951" stroke-width="0.8" stroke-dasharray="2 2"/>
  <circle cx="-15" cy="-10" r="6" fill="#9370b9" opacity="0.9"/>
  <circle cx="-3" cy="-15" r="6" fill="#9370b9" opacity="0.9"/>
  <circle cx="10" cy="-10" r="6" fill="#d14859" opacity="0.9"/>
  <circle cx="-15" cy="5" r="6" fill="#9370b9" opacity="0.9"/>
  <circle cx="-3" cy="0" r="6" fill="#d14859" opacity="0.9"/>
  <circle cx="10" cy="5" r="6" fill="#9370b9" opacity="0.9"/>
  <circle cx="22" cy="-2" r="6" fill="#d14859" opacity="0.9"/>
  <circle cx="-12" cy="20" r="6" fill="#9370b9" opacity="0.9"/>
  <circle cx="2" cy="18" r="6" fill="#d14859" opacity="0.9"/>
  <circle cx="20" cy="18" r="6" fill="#9370b9" opacity="0.9"/>
  
  <text x="0" y="55" text-anchor="middle" style="fill:#d14859;font:700 7px Inter,sans-serif">RESISTANT VARIANTS</text>
</g>

<!-- Antibody attack arrow in the middle -->
<g transform="translate(250 130)">
  <rect x="-50" y="-22" width="100" height="44" rx="6" fill="rgba(79,184,168,0.10)" stroke="#4fb8a8" stroke-width="1.2"/>
  <text x="0" y="-5" text-anchor="middle" style="fill:#4fb8a8;font:700 9px Inter,sans-serif">anti-V3 Ab</text>
  <text x="0" y="9" text-anchor="middle" style="fill:#b4becf;font:6.5px 'JetBrains Mono',monospace">kills dominant</text>
</g>

<!-- Arrows -->
<g stroke="#e8a951" stroke-width="1.4" fill="none" marker-end="url(#arr14_2_3a)">
  <path d="M 150 130 L 200 130"/>
  <path d="M 300 130 L 350 130"/>
</g>
<defs>
  <marker id="arr14_2_3a" viewBox="0 0 10 10" refX="9" refY="5" markerWidth="6" markerHeight="6" orient="auto">
    <path d="M 0 0 L 10 5 L 0 10 z" fill="#e8a951"/>
  </marker>
</defs>

<text x="250" y="225" text-anchor="middle" style="fill:#d14859;font:700 9px Inter,sans-serif;letter-spacing:1.2px">Selection sweeps the population</text>

                  <!-- FOCUS · audio-aligned attention marker -->
                  <circle cx="250" cy="50" r="20" fill="none" stroke="#d14859" stroke-width="1.8" stroke-dasharray="3 2" opacity="0.85">
                    <animate attributeName="r" values="16;26;16" dur="2.4s" repeatCount="indefinite"/>
                    <animate attributeName="opacity" values="0.85;0.20;0.85" dur="2.4s" repeatCount="indefinite"/>
                  </circle>
</svg>
