<?xml version="1.0" encoding="UTF-8"?>
<!--
  Auto-generated from the reference HTML by
  scripts/storymode-extraction/extract.mjs.
  Do not edit by hand — regenerate the file instead.
-->
<svg xmlns="http://www.w3.org/2000/svg" xmlns:xlink="http://www.w3.org/1999/xlink" viewBox="0 0 500 260" preserveAspectRatio="xMidYMid meet">
                  <text x="20" y="22" style="fill:#e8a951;font:600 10px Inter,sans-serif;letter-spacing:2px">STEP 05 · TRANSCYTOSIS · MATERNAL → FETAL</text>

                  <g opacity="1"><rect x="40" y="55" width="420" height="60" rx="3" fill="#d14859" fill-opacity="0.10"></rect><text x="48" y="68" style="fill:#d14859;font:600 8px Inter,sans-serif;letter-spacing:1.5px">MATERNAL BLOOD</text><rect x="40" y="115" width="420" height="50" rx="3" fill="#e8a951" fill-opacity="0.20" stroke="#e8a951" stroke-width="1.4"></rect><text x="48" y="143" style="fill:#e8a951;font:600 8px Inter,sans-serif;letter-spacing:1.5px">SYNCYTIOTROPHOBLAST</text><rect x="40" y="165" width="420" height="60" rx="3" fill="#6cc27d" fill-opacity="0.10"></rect><text x="48" y="218" style="fill:#6cc27d;font:600 8px Inter,sans-serif;letter-spacing:1.5px">FETAL BLOOD</text><g transform="translate(110 115)"><path d="M -7 0 L -7 -7 L -3 -7 L -3 -3 L 3 -3 L 3 -7 L 7 -7 L 7 0 Z" fill="#9370b9" fill-opacity="0.85" stroke="#9370b9" stroke-width="1.2"></path></g><g transform="translate(175 115)"><path d="M -7 0 L -7 -7 L -3 -7 L -3 -3 L 3 -3 L 3 -7 L 7 -7 L 7 0 Z" fill="#9370b9" fill-opacity="0.85" stroke="#9370b9" stroke-width="1.2"></path></g><g transform="translate(240 115)"><path d="M -7 0 L -7 -7 L -3 -7 L -3 -3 L 3 -3 L 3 -7 L 7 -7 L 7 0 Z" fill="#9370b9" fill-opacity="0.85" stroke="#9370b9" stroke-width="1.2"></path></g><g transform="translate(305 115)"><path d="M -7 0 L -7 -7 L -3 -7 L -3 -3 L 3 -3 L 3 -7 L 7 -7 L 7 0 Z" fill="#9370b9" fill-opacity="0.85" stroke="#9370b9" stroke-width="1.2"></path></g><g transform="translate(370 115)"><path d="M -7 0 L -7 -7 L -3 -7 L -3 -3 L 3 -3 L 3 -7 L 7 -7 L 7 0 Z" fill="#9370b9" fill-opacity="0.85" stroke="#9370b9" stroke-width="1.2"></path></g><text x="430" y="108" text-anchor="end" style="fill:#9370b9;font:600 7px Inter,sans-serif;letter-spacing:1.2px">FcRn ↑</text></g>

                  <!-- IgG molecules in maternal blood (top) -->
                  <g transform="translate(110 80) scale(1.6)" opacity="1"><path d="M -7 -6 L -2 0 L 2 0 L 7 -6" stroke="#e8a951" stroke-width="2" fill="none" stroke-linecap="round"></path><line x1="0" y1="0" x2="0" y2="8" stroke="#e8a951" stroke-width="2" stroke-linecap="round"></line></g>
                  <g transform="translate(165 75) scale(1.6)" opacity="1"><path d="M -7 -6 L -2 0 L 2 0 L 7 -6" stroke="#e8a951" stroke-width="2" fill="none" stroke-linecap="round"></path><line x1="0" y1="0" x2="0" y2="8" stroke="#e8a951" stroke-width="2" stroke-linecap="round"></line></g>
                  <g transform="translate(220 80) scale(1.6)" opacity="1"><path d="M -7 -6 L -2 0 L 2 0 L 7 -6" stroke="#e8a951" stroke-width="2" fill="none" stroke-linecap="round"></path><line x1="0" y1="0" x2="0" y2="8" stroke="#e8a951" stroke-width="2" stroke-linecap="round"></line></g>
                  <g transform="translate(275 75) scale(1.6)" opacity="1"><path d="M -7 -6 L -2 0 L 2 0 L 7 -6" stroke="#e8a951" stroke-width="2" fill="none" stroke-linecap="round"></path><line x1="0" y1="0" x2="0" y2="8" stroke="#e8a951" stroke-width="2" stroke-linecap="round"></line></g>
                  <g transform="translate(330 80) scale(1.6)" opacity="1"><path d="M -7 -6 L -2 0 L 2 0 L 7 -6" stroke="#e8a951" stroke-width="2" fill="none" stroke-linecap="round"></path><line x1="0" y1="0" x2="0" y2="8" stroke="#e8a951" stroke-width="2" stroke-linecap="round"></line></g>
                  <g transform="translate(385 75) scale(1.6)" opacity="1"><path d="M -7 -6 L -2 0 L 2 0 L 7 -6" stroke="#e8a951" stroke-width="2" fill="none" stroke-linecap="round"></path><line x1="0" y1="0" x2="0" y2="8" stroke="#e8a951" stroke-width="2" stroke-linecap="round"></line></g>

                  <!-- Some IgG bound to FcRn (entering trophoblast) -->
                  <g transform="translate(110 105) scale(1.5)" opacity="1"><path d="M -7 -6 L -2 0 L 2 0 L 7 -6" stroke="#e8a951" stroke-width="2" fill="none" stroke-linecap="round"></path><line x1="0" y1="0" x2="0" y2="8" stroke="#e8a951" stroke-width="2" stroke-linecap="round"></line></g>
                  <g transform="translate(240 105) scale(1.5)" opacity="1"><path d="M -7 -6 L -2 0 L 2 0 L 7 -6" stroke="#e8a951" stroke-width="2" fill="none" stroke-linecap="round"></path><line x1="0" y1="0" x2="0" y2="8" stroke="#e8a951" stroke-width="2" stroke-linecap="round"></line></g>

                  <!-- IgG molecules emerging in fetal blood (bottom) -->
                  <g transform="translate(140 185) scale(1.6)" opacity="1"><path d="M -7 -6 L -2 0 L 2 0 L 7 -6" stroke="#e8a951" stroke-width="2" fill="none" stroke-linecap="round"></path><line x1="0" y1="0" x2="0" y2="8" stroke="#e8a951" stroke-width="2" stroke-linecap="round"></line></g>
                  <g transform="translate(200 195) scale(1.6)" opacity="1"><path d="M -7 -6 L -2 0 L 2 0 L 7 -6" stroke="#e8a951" stroke-width="2" fill="none" stroke-linecap="round"></path><line x1="0" y1="0" x2="0" y2="8" stroke="#e8a951" stroke-width="2" stroke-linecap="round"></line></g>
                  <g transform="translate(260 185) scale(1.6)" opacity="1"><path d="M -7 -6 L -2 0 L 2 0 L 7 -6" stroke="#e8a951" stroke-width="2" fill="none" stroke-linecap="round"></path><line x1="0" y1="0" x2="0" y2="8" stroke="#e8a951" stroke-width="2" stroke-linecap="round"></line></g>
                  <g transform="translate(330 195) scale(1.6)" opacity="1"><path d="M -7 -6 L -2 0 L 2 0 L 7 -6" stroke="#e8a951" stroke-width="2" fill="none" stroke-linecap="round"></path><line x1="0" y1="0" x2="0" y2="8" stroke="#e8a951" stroke-width="2" stroke-linecap="round"></line></g>

                  <!-- Transport arrows downward through barrier -->
                  <g stroke="#e8a951" stroke-width="1.4" fill="none" stroke-dasharray="2 2" opacity="0.85">
                    <path d="M 110 110 L 110 170"></path>
                    <path d="M 240 110 L 240 170"></path>
                    <path d="M 370 110 L 370 170"></path>
                  </g>
                  <g fill="#e8a951">
                    <polygon points="110,170 106,164 114,164"></polygon>
                    <polygon points="240,170 236,164 244,164"></polygon>
                    <polygon points="370,170 366,164 374,164"></polygon>
                  </g>

                  <!-- Transport label -->
                  <text x="438" y="145" text-anchor="end" style="fill:#e8a951;font:600 7px Inter,sans-serif;letter-spacing:1.5px">TRANSCYTOSIS</text>

                  <text x="250" y="252" text-anchor="middle" style="fill:#b4becf;font:italic 10px Fraunces,serif">FcRn binds IgG, ferries it through the trophoblast, releases it into fetal blood</text>

                  <!-- FOCUS · audio-aligned attention marker -->
                  <circle cx="48" cy="213" r="20" fill="none" stroke="#d14859" stroke-width="1.8" stroke-dasharray="3 2" opacity="0.85">
                    <animate attributeName="r" values="16;26;16" dur="2.4s" repeatCount="indefinite"/>
                    <animate attributeName="opacity" values="0.85;0.20;0.85" dur="2.4s" repeatCount="indefinite"/>
                  </circle>

                  <!-- FOCUS · audio-aligned attention marker -->
                  <circle cx="48" cy="63" r="21" fill="none" stroke="#d14859" stroke-width="1.8" stroke-dasharray="3 2" opacity="0.85">
                    <animate attributeName="r" values="17;27;17" dur="2.4s" repeatCount="indefinite"/>
                    <animate attributeName="opacity" values="0.85;0.20;0.85" dur="2.4s" repeatCount="indefinite"/>
                  </circle>
</svg>
