<?xml version="1.0" encoding="UTF-8"?>
<!--
  Auto-generated from the reference HTML by
  scripts/storymode-extraction/extract.mjs.
  Do not edit by hand — regenerate the file instead.
-->
<svg xmlns="http://www.w3.org/2000/svg" xmlns:xlink="http://www.w3.org/1999/xlink" viewBox="0 0 500 260" preserveAspectRatio="xMidYMid meet">
                  <text x="20" y="22" style="fill:#e8a951;font:600 10px Inter,sans-serif;letter-spacing:2px">STEP 03 · DRUG · PROTEASOME INHIBITOR</text>

  
                    <line x1="40" y1="58" x2="460" y2="58" stroke="#4fb8a8" stroke-width="2" opacity="0.6"></line>
                    <line x1="40" y1="62" x2="460" y2="62" stroke="#4fb8a8" stroke-width="2" opacity="0.6"></line>
                    <text x="44" y="52" style="fill:#b4becf;font:600 7px Inter,sans-serif;letter-spacing:1.5px">CELL SURFACE</text>
                  <rect x="40" y="62" width="420" height="170" rx="0" fill="#4fb8a8" fill-opacity="0.04"></rect><text x="44" y="78" style="fill:#b4becf;font:600 7px Inter,sans-serif;letter-spacing:1.5px">CYTOPLASM</text>
                    <rect x="290" y="145" width="120" height="55" rx="10" fill="#9370b9" fill-opacity="0.10" stroke="#9370b9" stroke-width="1.4"></rect>
                    <text x="296" y="158" style="fill:#9370b9;font:600 7px Inter,sans-serif;letter-spacing:1.5px">ER</text>
  
                      <g transform="translate(95 160)">
                        <path d="M 0 -22 Q -10 -10 -4 0 Q -12 10 0 20 Q 12 10 4 0 Q 10 -10 0 -22 Z" fill="#d14859" fill-opacity="0.55" stroke="#d14859" stroke-width="1.4"></path>
                        <text x="0" y="38" text-anchor="middle" style="fill:#d14859;font:600 8px Inter,sans-serif;letter-spacing:1.2px">VIRAL PROTEIN</text>
                      </g>
    
                      <path d="M 116 160 L 188 160" stroke="#e8a951" stroke-width="1.5" fill="none" stroke-dasharray="3 2"></path>
                      <polygon points="188,160 181,156 181,164" fill="#e8a951"></polygon>
    
                      <g stroke="#e8a951" stroke-width="1.4" fill="none" opacity="0.7">
                        <line x1="220" y1="148" x2="218" y2="142">
                          <animate attributeName="opacity" values="1;0.2;1" dur="0.6s" repeatCount="indefinite"></animate>
                        </line>
                        <line x1="222" y1="172" x2="226" y2="178">
                          <animate attributeName="opacity" values="0.2;1;0.2" dur="0.6s" repeatCount="indefinite"></animate>
                        </line>
                        <line x1="216" y1="160" x2="212" y2="160">
                          <animate attributeName="opacity" values="1;0.2;1" dur="0.5s" repeatCount="indefinite"></animate>
                        </line>
                      </g>
    
                    <g opacity="1">
                      <!-- barrel: top ring, body, bottom ring -->
                      <ellipse cx="220" cy="138" rx="22" ry="6" fill="#e8a951" fill-opacity="0.7" stroke="#e8a951" stroke-width="1.5"></ellipse>
                      <rect x="198" y="138" width="44" height="44" fill="#e8a951" fill-opacity="0.595" stroke="#e8a951" stroke-width="1.5"></rect>
                      <ellipse cx="220" cy="182" rx="22" ry="6" fill="#e8a951" fill-opacity="0.7" stroke="#e8a951" stroke-width="1.5"></ellipse>
                      <!-- horizontal lines suggesting subunits -->
                      <line x1="198" y1="152" x2="242" y2="152" stroke="#0a0e1a" stroke-width="0.8" opacity="0.5"></line>
                      <line x1="198" y1="168" x2="242" y2="168" stroke="#0a0e1a" stroke-width="0.8" opacity="0.5"></line>
                      <text x="220" y="200" text-anchor="middle" style="fill:#e8a951;font:600 9px Inter,sans-serif;letter-spacing:1.5px">PROTEASOME</text>
                    </g>
  
                    <g transform="translate(330 175)" opacity="0.5">
                      <path d="M -14 0 L 14 0 L 16 10 L 9 10 L 7 4 L -7 4 L -9 10 L -16 10 Z" fill="#e8a951" fill-opacity="0.3" stroke="#e8a951" stroke-width="1.3"></path>
                  </g>
                    <g transform="translate(370 175)" opacity="0.5">
                      <path d="M -14 0 L 14 0 L 16 10 L 9 10 L 7 4 L -7 4 L -9 10 L -16 10 Z" fill="#e8a951" fill-opacity="0.3" stroke="#e8a951" stroke-width="1.3"></path>
                  </g>
                    <g transform="translate(110 50)" opacity="1">
                      <path d="M -14 0 L 14 0 L 16 10 L 9 10 L 7 4 L -7 4 L -9 10 L -16 10 Z" fill="#e8a951" fill-opacity="0.85" stroke="#e8a951" stroke-width="1.3"></path>
                  <circle cx="-4" cy="-3" r="2.5" fill="#d14859"></circle><circle cx="0" cy="-3" r="2.5" fill="#d14859"></circle><circle cx="4" cy="-3" r="2.5" fill="#d14859"></circle></g>
                    <g transform="translate(200 50)" opacity="1">
                      <path d="M -14 0 L 14 0 L 16 10 L 9 10 L 7 4 L -7 4 L -9 10 L -16 10 Z" fill="#e8a951" fill-opacity="0.85" stroke="#e8a951" stroke-width="1.3"></path>
                  <circle cx="-4" cy="-3" r="2.5" fill="#d14859"></circle><circle cx="0" cy="-3" r="2.5" fill="#d14859"></circle><circle cx="4" cy="-3" r="2.5" fill="#d14859"></circle></g>
                    <g transform="translate(290 50)" opacity="1">
                      <path d="M -14 0 L 14 0 L 16 10 L 9 10 L 7 4 L -7 4 L -9 10 L -16 10 Z" fill="#e8a951" fill-opacity="0.85" stroke="#e8a951" stroke-width="1.3"></path>
                  <circle cx="-4" cy="-3" r="2.5" fill="#d14859"></circle><circle cx="0" cy="-3" r="2.5" fill="#d14859"></circle><circle cx="4" cy="-3" r="2.5" fill="#d14859"></circle></g>
                    <g transform="translate(380 50)" opacity="1">
                      <path d="M -14 0 L 14 0 L 16 10 L 9 10 L 7 4 L -7 4 L -9 10 L -16 10 Z" fill="#e8a951" fill-opacity="0.85" stroke="#e8a951" stroke-width="1.3"></path>
                  <circle cx="-4" cy="-3" r="2.5" fill="#d14859"></circle><circle cx="0" cy="-3" r="2.5" fill="#d14859"></circle><circle cx="4" cy="-3" r="2.5" fill="#d14859"></circle></g>

                  <!-- drug molecule approaching the proteasome -->
                  <g transform="translate(220 110)">
                    <rect x="-22" y="-10" width="44" height="20" rx="10" fill="#9370b9" fill-opacity="0.55" stroke="#9370b9" stroke-width="1.5"></rect>
                    <text x="0" y="3" text-anchor="middle" style="fill:#e8ecf3;font:700 9px Inter,sans-serif">DRUG</text>
                    <text x="0" y="-18" text-anchor="middle" style="fill:#9370b9;font:600 7px Inter,sans-serif;letter-spacing:1.5px">PROTEASOME INHIBITOR</text>
                  </g>
                  <!-- arrow from drug down to proteasome -->
                  <path d="M 220 124 L 220 134" stroke="#9370b9" stroke-width="1.5" fill="none"></path>
                  <polygon points="220,134 216,128 224,128" fill="#9370b9"></polygon>

                  <text x="250" y="252" text-anchor="middle" style="fill:#b4becf;font:italic 10px Fraunces,serif">a drug binds the proteasome · stops its catalytic activity</text>

                  <!-- FOCUS · audio-aligned attention marker -->
                  <circle cx="95" cy="193" r="20" fill="none" stroke="#d14859" stroke-width="1.8" stroke-dasharray="3 2" opacity="0.85">
                    <animate attributeName="r" values="16;26;16" dur="2.4s" repeatCount="indefinite"/>
                    <animate attributeName="opacity" values="0.85;0.20;0.85" dur="2.4s" repeatCount="indefinite"/>
                  </circle>
</svg>
