<?xml version="1.0" encoding="UTF-8"?>
<!--
  Auto-generated from the reference HTML by
  scripts/storymode-extraction/extract.mjs.
  Do not edit by hand — regenerate the file instead.
-->
<svg xmlns="http://www.w3.org/2000/svg" xmlns:xlink="http://www.w3.org/1999/xlink" viewBox="0 0 500 280" preserveAspectRatio="xMidYMid meet">
                <text x="20" y="26" style="fill:#e8a951;font:600 10px Inter,sans-serif;letter-spacing:2px">STEP 07 · CLASS II ROUTED TO ENDOSOME</text>
                <rect x="40" y="70" width="420" height="180" rx="18" fill="#0e1422" stroke="#3a4358" stroke-width="1.2"/>
                <text x="50" y="64" style="fill:#6b7689;font:600 8px Inter,sans-serif;letter-spacing:1.5px">EXTRACELLULAR</text>
                <text x="50" y="246" style="fill:#6b7689;font:600 8px Inter,sans-serif;letter-spacing:1.5px">CYTOPLASM</text>
                <line x1="40" y1="70" x2="460" y2="70" stroke="#4fb8a8" stroke-width="1.5" opacity="0.7"/>
                <path d="M 70 180 Q 55 205 80 220 Q 130 230 175 220 Q 200 215 205 198 Q 210 175 188 162 Q 130 154 70 180 Z" fill="#4fb8a8" opacity="0.22" stroke="#4fb8a8" stroke-width="1.6"/>
                <text x="135" y="245" text-anchor="middle" style="fill:#4fb8a8;font:600 9px Inter,sans-serif;letter-spacing:1.5px">ER</text>
                <g transform="translate(105 195)" opacity="0.55">
                  <path d="M -18 -5 L 18 -5 L 20 3 L 12 3 L 10 -2 L -10 -2 L -12 3 L -20 3 Z" fill="#4fb8a8" stroke="#4fb8a8" stroke-width="1"/>
                  <rect x="-7" y="-12" width="14" height="7" fill="#9370b9" opacity="0.9"/>
                </g>
                <ellipse cx="290" cy="170" rx="62" ry="44" fill="#e8a951" opacity="0.15" stroke="#e8a951" stroke-width="1.6" stroke-dasharray="4 3"/>
                <text x="290" y="120" text-anchor="middle" style="fill:#e8a951;font:600 10px Inter,sans-serif;letter-spacing:1.5px">ENDOSOME</text>
                <circle cx="270" cy="170" r="9" fill="#d14859" opacity="0.65"/>
                <g fill="#e8a951" opacity="0.6"><path d="M 305 155 L 311 159 L 309 165 L 303 161 Z"/><path d="M 285 195 L 291 199 L 289 205 L 283 201 Z"/></g>
                <path d="M 175 200 Q 215 175 240 175" stroke="#e8a951" stroke-width="2" fill="none" stroke-dasharray="5 3"/>
                <polygon points="240,175 232,170 232,180" fill="#e8a951"/>
                <g transform="translate(210 188)">
                  <circle cx="0" cy="0" r="13" fill="none" stroke="#e8a951" stroke-width="1.4" stroke-dasharray="2 2"/>
                  <path d="M -8 -2 L 8 -2 L 9 3 L 5 3 L 4 0 L -4 0 L -5 3 L -9 3 Z" fill="#4fb8a8" opacity="0.9"/>
                  <rect x="-4" y="-7" width="8" height="5" fill="#9370b9" opacity="0.9"/>
                </g>
                <text x="210" y="155" text-anchor="middle" style="fill:#e8a951;font:600 9px Inter,sans-serif;letter-spacing:1.5px">VESICLE</text>
                <text x="250" y="270" text-anchor="middle" style="fill:#b4becf;font:italic 10px Fraunces,serif">Ii is also the address tag · it directs Class II here</text>

                  <!-- FOCUS · audio-aligned attention marker -->
                  <circle cx="290" cy="115" r="20" fill="none" stroke="#d14859" stroke-width="1.8" stroke-dasharray="3 2" opacity="0.85">
                    <animate attributeName="r" values="16;26;16" dur="2.4s" repeatCount="indefinite"/>
                    <animate attributeName="opacity" values="0.85;0.20;0.85" dur="2.4s" repeatCount="indefinite"/>
                  </circle>
</svg>
