<?xml version="1.0" encoding="UTF-8"?>
<!--
  Auto-generated from the reference HTML by
  scripts/storymode-extraction/extract.mjs.
  Do not edit by hand — regenerate the file instead.
-->
<svg xmlns="http://www.w3.org/2000/svg" xmlns:xlink="http://www.w3.org/1999/xlink" viewBox="0 0 500 260" preserveAspectRatio="xMidYMid meet">
                  <text x="20" y="16" style="fill:#e8a951;font:600 9px Inter,sans-serif;letter-spacing:2px">STEP 05 · VIRUS REPLICATES IN GUT</text>

                  <g opacity="1"><rect x="80" y="80" width="340" height="35" rx="4" fill="#4fb8a8" fill-opacity="0.30" stroke="#4fb8a8" stroke-width="2" stroke-dasharray="0"></rect><text x="90" y="100" style="fill:#4fb8a8;font:600 8px Inter,sans-serif;letter-spacing:1.5px">GUT LUMEN</text><line x1="80" y1="118" x2="420" y2="118" stroke="#9370b9" stroke-width="1.4" stroke-dasharray="2 2" opacity="0.7"></line><rect x="80" y="125" width="340" height="50" rx="4" fill="#9370b9" fill-opacity="0.15" stroke="#9370b9" stroke-width="1.4" stroke-dasharray="3 2"></rect><text x="90" y="155" style="fill:#9370b9;font:600 8px Inter,sans-serif;letter-spacing:1.5px">SERUM / BLOODSTREAM</text><rect x="80" y="185" width="340" height="35" rx="4" fill="#e8a951" fill-opacity="0.15" stroke="#e8a951" stroke-width="1.4" stroke-dasharray="3 2"></rect><text x="90" y="205" style="fill:#e8a951;font:600 8px Inter,sans-serif;letter-spacing:1.5px">CNS · MOTOR NEURONS</text></g>

                  <!-- Virus replicating in gut lumen + attaching to epithelium -->
                  <g transform="translate(170 95)" opacity="1"><circle cx="0" cy="0" r="8" fill="#d14859" fill-opacity="0.85" stroke="#d14859" stroke-width="1"></circle><circle cx="7" cy="0" r="1.2" fill="#0a0e1a"></circle><circle cx="3.5" cy="6.1" r="1.2" fill="#0a0e1a"></circle><circle cx="-3.5" cy="6.1" r="1.2" fill="#0a0e1a"></circle><circle cx="-7" cy="0" r="1.2" fill="#0a0e1a"></circle><circle cx="-3.5" cy="-6.1" r="1.2" fill="#0a0e1a"></circle><circle cx="3.5" cy="-6.1" r="1.2" fill="#0a0e1a"></circle></g>
                  <g transform="translate(210 100)" opacity="1"><circle cx="0" cy="0" r="8" fill="#d14859" fill-opacity="0.85" stroke="#d14859" stroke-width="1"></circle><circle cx="7" cy="0" r="1.2" fill="#0a0e1a"></circle><circle cx="3.5" cy="6.1" r="1.2" fill="#0a0e1a"></circle><circle cx="-3.5" cy="6.1" r="1.2" fill="#0a0e1a"></circle><circle cx="-7" cy="0" r="1.2" fill="#0a0e1a"></circle><circle cx="-3.5" cy="-6.1" r="1.2" fill="#0a0e1a"></circle><circle cx="3.5" cy="-6.1" r="1.2" fill="#0a0e1a"></circle></g>
                  <g transform="translate(245 95)" opacity="1"><circle cx="0" cy="0" r="8" fill="#d14859" fill-opacity="0.85" stroke="#d14859" stroke-width="1"></circle><circle cx="7" cy="0" r="1.2" fill="#0a0e1a"></circle><circle cx="3.5" cy="6.1" r="1.2" fill="#0a0e1a"></circle><circle cx="-3.5" cy="6.1" r="1.2" fill="#0a0e1a"></circle><circle cx="-7" cy="0" r="1.2" fill="#0a0e1a"></circle><circle cx="-3.5" cy="-6.1" r="1.2" fill="#0a0e1a"></circle><circle cx="3.5" cy="-6.1" r="1.2" fill="#0a0e1a"></circle></g>
                  <g transform="translate(285 100)" opacity="1"><circle cx="0" cy="0" r="8" fill="#d14859" fill-opacity="0.85" stroke="#d14859" stroke-width="1"></circle><circle cx="7" cy="0" r="1.2" fill="#0a0e1a"></circle><circle cx="3.5" cy="6.1" r="1.2" fill="#0a0e1a"></circle><circle cx="-3.5" cy="6.1" r="1.2" fill="#0a0e1a"></circle><circle cx="-7" cy="0" r="1.2" fill="#0a0e1a"></circle><circle cx="-3.5" cy="-6.1" r="1.2" fill="#0a0e1a"></circle><circle cx="3.5" cy="-6.1" r="1.2" fill="#0a0e1a"></circle></g>
                  <g transform="translate(320 95)" opacity="1"><circle cx="0" cy="0" r="8" fill="#d14859" fill-opacity="0.85" stroke="#d14859" stroke-width="1"></circle><circle cx="7" cy="0" r="1.2" fill="#0a0e1a"></circle><circle cx="3.5" cy="6.1" r="1.2" fill="#0a0e1a"></circle><circle cx="-3.5" cy="6.1" r="1.2" fill="#0a0e1a"></circle><circle cx="-7" cy="0" r="1.2" fill="#0a0e1a"></circle><circle cx="-3.5" cy="-6.1" r="1.2" fill="#0a0e1a"></circle><circle cx="3.5" cy="-6.1" r="1.2" fill="#0a0e1a"></circle></g>
                  <g transform="translate(360 100)" opacity="1"><circle cx="0" cy="0" r="8" fill="#d14859" fill-opacity="0.85" stroke="#d14859" stroke-width="1"></circle><circle cx="7" cy="0" r="1.2" fill="#0a0e1a"></circle><circle cx="3.5" cy="6.1" r="1.2" fill="#0a0e1a"></circle><circle cx="-3.5" cy="6.1" r="1.2" fill="#0a0e1a"></circle><circle cx="-7" cy="0" r="1.2" fill="#0a0e1a"></circle><circle cx="-3.5" cy="-6.1" r="1.2" fill="#0a0e1a"></circle><circle cx="3.5" cy="-6.1" r="1.2" fill="#0a0e1a"></circle></g>
                  <g transform="translate(395 95)" opacity="1"><circle cx="0" cy="0" r="8" fill="#d14859" fill-opacity="0.85" stroke="#d14859" stroke-width="1"></circle><circle cx="7" cy="0" r="1.2" fill="#0a0e1a"></circle><circle cx="3.5" cy="6.1" r="1.2" fill="#0a0e1a"></circle><circle cx="-3.5" cy="6.1" r="1.2" fill="#0a0e1a"></circle><circle cx="-7" cy="0" r="1.2" fill="#0a0e1a"></circle><circle cx="-3.5" cy="-6.1" r="1.2" fill="#0a0e1a"></circle><circle cx="3.5" cy="-6.1" r="1.2" fill="#0a0e1a"></circle></g>

                  <!-- Attaching arrows -->
                  <g stroke="#d14859" stroke-width="1.4" fill="none" stroke-dasharray="2 2" opacity="0.7">
                    <line x1="210" y1="105" x2="210" y2="118"></line>
                    <line x1="285" y1="105" x2="285" y2="118"></line>
                    <line x1="360" y1="105" x2="360" y2="118"></line>
                  </g>

                  <!-- IgG in serum still present (ghosted) -->
                  <g opacity="0.4">
                    <g transform="translate(180 145)" opacity="1"><path d="M -5 -4 L -1 0 L 1 0 L 5 -4" stroke="#e8a951" stroke-width="1.8" fill="none" stroke-linecap="round"></path><line x1="0" y1="0" x2="0" y2="6" stroke="#e8a951" stroke-width="1.8" stroke-linecap="round"></line></g>
                    <g transform="translate(260 152)" opacity="1"><path d="M -5 -4 L -1 0 L 1 0 L 5 -4" stroke="#e8a951" stroke-width="1.8" fill="none" stroke-linecap="round"></path><line x1="0" y1="0" x2="0" y2="6" stroke="#e8a951" stroke-width="1.8" stroke-linecap="round"></line></g>
                    <g transform="translate(340 145)" opacity="1"><path d="M -5 -4 L -1 0 L 1 0 L 5 -4" stroke="#e8a951" stroke-width="1.8" fill="none" stroke-linecap="round"></path><line x1="0" y1="0" x2="0" y2="6" stroke="#e8a951" stroke-width="1.8" stroke-linecap="round"></line></g>
                  </g>

                  <!-- Annotation -->
                  <g transform="translate(450 100)">
                    <rect x="-32" y="-12" width="64" height="22" rx="11" fill="#d14859" fill-opacity="0.25" stroke="#d14859" stroke-width="1.4"></rect>
                    <text x="0" y="3" text-anchor="middle" style="fill:#d14859;font:700 7px Inter,sans-serif;letter-spacing:1.2px">SHEDDING</text>
                  </g>

                  <text x="250" y="245" text-anchor="middle" style="fill:#b4becf;font:italic 7.5px Fraunces,serif">no mucosal block → virus colonizes gut and is shed in stool</text>

                  <!-- FOCUS · audio-aligned attention marker -->
                  <circle cx="90" cy="95" r="20" fill="none" stroke="#d14859" stroke-width="1.8" stroke-dasharray="3 2" opacity="0.85">
                    <animate attributeName="r" values="16;26;16" dur="2.4s" repeatCount="indefinite"/>
                    <animate attributeName="opacity" values="0.85;0.20;0.85" dur="2.4s" repeatCount="indefinite"/>
                  </circle>
</svg>
