<?xml version="1.0" encoding="UTF-8"?>
<!--
  Auto-generated from the reference HTML by
  scripts/storymode-extraction/extract.mjs.
  Do not edit by hand — regenerate the file instead.
-->
<svg xmlns="http://www.w3.org/2000/svg" xmlns:xlink="http://www.w3.org/1999/xlink" viewBox="0 0 500 260" preserveAspectRatio="xMidYMid meet">
                  <text x="20" y="22" style="fill:#e8a951;font:600 10px Inter,sans-serif;letter-spacing:2px">STEP 07 · THE ANSWER</text>

                  <!-- Ghosted neutralization scene behind -->
                  <g opacity="0.30">
                    <g transform="translate(250 100)" opacity="1"><circle cx="0" cy="0" r="22" fill="#d14859" fill-opacity="0.65" stroke="#d14859" stroke-width="1.5"></circle><line x1="22" y1="0" x2="29" y2="0" stroke="#e8a951" stroke-width="2" stroke-linecap="round"></line><circle cx="29" cy="0" r="2" fill="#e8a951" opacity="0.9"></circle><line x1="15.556349186104047" y1="15.556349186104043" x2="20.50609665440988" y2="20.506096654409877" stroke="#e8a951" stroke-width="2" stroke-linecap="round"></line><circle cx="20.50609665440988" cy="20.506096654409877" r="2" fill="#e8a951" opacity="0.9"></circle><line x1="1.3471114790620886e-15" y1="22" x2="1.7757378587636622e-15" y2="29" stroke="#e8a951" stroke-width="2" stroke-linecap="round"></line><circle cx="1.7757378587636622e-15" cy="29" r="2" fill="#e8a951" opacity="0.9"></circle><line x1="-15.556349186104043" y1="15.556349186104047" x2="-20.506096654409877" y2="20.50609665440988" stroke="#e8a951" stroke-width="2" stroke-linecap="round"></line><circle cx="-20.506096654409877" cy="20.50609665440988" r="2" fill="#e8a951" opacity="0.9"></circle><line x1="-22" y1="2.6942229581241772e-15" x2="-29" y2="3.5514757175273244e-15" stroke="#e8a951" stroke-width="2" stroke-linecap="round"></line><circle cx="-29" cy="3.5514757175273244e-15" r="2" fill="#e8a951" opacity="0.9"></circle><line x1="-15.556349186104049" y1="-15.556349186104043" x2="-20.506096654409884" y2="-20.506096654409877" stroke="#e8a951" stroke-width="2" stroke-linecap="round"></line><circle cx="-20.506096654409884" cy="-20.506096654409877" r="2" fill="#e8a951" opacity="0.9"></circle><line x1="-4.0413344371862654e-15" y1="-22" x2="-5.327213576290986e-15" y2="-29" stroke="#e8a951" stroke-width="2" stroke-linecap="round"></line><circle cx="-5.327213576290986e-15" cy="-29" r="2" fill="#e8a951" opacity="0.9"></circle><line x1="15.556349186104041" y1="-15.556349186104049" x2="20.506096654409873" y2="-20.506096654409884" stroke="#e8a951" stroke-width="2" stroke-linecap="round"></line><circle cx="20.506096654409873" cy="-20.506096654409884" r="2" fill="#e8a951" opacity="0.9"></circle></g>
                    <g transform="translate(250 142)" opacity="1"><g stroke="#e8a951" stroke-width="3" fill="none" stroke-linecap="round"><path d="M -16 -10 L -7 -2 L 7 -2 L 16 -10"></path><line x1="0" y1="-2" x2="0" y2="14"></line></g><circle cx="-16" cy="-10" r="3" fill="#d14859"></circle><circle cx="16" cy="-10" r="3" fill="#d14859"></circle></g>
                    <g transform="translate(220 132)" opacity="1"><g stroke="#e8a951" stroke-width="3" fill="none" stroke-linecap="round"><path d="M -16 -10 L -7 -2 L 7 -2 L 16 -10"></path><line x1="0" y1="-2" x2="0" y2="14"></line></g><circle cx="-16" cy="-10" r="3" fill="#d14859"></circle><circle cx="16" cy="-10" r="3" fill="#d14859"></circle></g>
                    <g transform="translate(280 132)" opacity="1"><g stroke="#e8a951" stroke-width="3" fill="none" stroke-linecap="round"><path d="M -16 -10 L -7 -2 L 7 -2 L 16 -10"></path><line x1="0" y1="-2" x2="0" y2="14"></line></g><circle cx="-16" cy="-10" r="3" fill="#d14859"></circle><circle cx="16" cy="-10" r="3" fill="#d14859"></circle></g>
                    <g opacity="1"><rect x="40" y="190" width="420" height="30" rx="3" fill="#9370b9" fill-opacity="0.30" stroke="#9370b9" stroke-width="1.4"></rect><text x="48" y="210" style="fill:#9370b9;font:600 8px Inter,sans-serif;letter-spacing:1.5px">HOST CELL SURFACE</text>
                      <g transform="translate(250 188)">
                        <rect x="-7" y="-12" width="14" height="14" rx="2" fill="#e8a951" fill-opacity="0.95" stroke="#e8a951" stroke-width="1.4"></rect>
                        <text x="0" y="-3" text-anchor="middle" style="fill:#0a0e1a;font:700 6px Inter,sans-serif">R</text>
                      </g>
                    </g>
                  </g>

                  <!-- Distractors crossed out -->
                  <g opacity="0.45" font-family="Inter,sans-serif">
                    <text x="40" y="60" style="fill:#6b7689;font:9px Inter,sans-serif">A · complement</text>
                    <line x1="36" y1="56" x2="138" y2="56" stroke="#d14859" stroke-width="1" opacity="0.85"></line>
                    <text x="160" y="60" style="fill:#6b7689;font:9px Inter,sans-serif">C · cell killing</text>
                    <line x1="156" y1="56" x2="252" y2="56" stroke="#d14859" stroke-width="1" opacity="0.85"></line>
                    <text x="270" y="60" style="fill:#6b7689;font:9px Inter,sans-serif">D · phagocytosis</text>
                    <line x1="266" y1="56" x2="370" y2="56" stroke="#d14859" stroke-width="1" opacity="0.85"></line>
                    <text x="385" y="60" style="fill:#6b7689;font:9px Inter,sans-serif">E · cytokines</text>
                    <line x1="381" y1="56" x2="465" y2="56" stroke="#d14859" stroke-width="1" opacity="0.85"></line>
                  </g>

                  <!-- Hero answer banner -->
                  <g transform="translate(250 230)">
                    <rect x="-225" y="-22" width="450" height="44" rx="10" fill="#e8a951" fill-opacity="0.42" stroke="#e8a951" stroke-width="2.6"></rect>
                    <text x="0" y="6" text-anchor="middle" style="fill:#e8a951;font:700 12px Inter,sans-serif;letter-spacing:1.5px">B · BLOCK VIRAL ATTACHMENT</text>
                  </g>

                  <text x="250" y="252" text-anchor="middle" style="fill:#e8a951;font:italic 600 10px Fraunces,serif">neutralization · Fab covers the spike · receptor stays free · infection prevented</text>

                  <!-- FOCUS · audio-aligned attention marker -->
                  <circle cx="200" cy="119" r="60" fill="none" stroke="#d14859" stroke-width="1.8" stroke-dasharray="3 2" opacity="0.85">
                    <animate attributeName="r" values="56;66;56" dur="2.4s" repeatCount="indefinite"/>
                    <animate attributeName="opacity" values="0.85;0.20;0.85" dur="2.4s" repeatCount="indefinite"/>
                  </circle>
</svg>
