<?xml version="1.0" encoding="UTF-8"?>
<!--
  Auto-generated from the reference HTML by
  scripts/storymode-extraction/extract.mjs.
  Do not edit by hand — regenerate the file instead.
-->
<svg xmlns="http://www.w3.org/2000/svg" xmlns:xlink="http://www.w3.org/1999/xlink" viewBox="0 0 500 260" preserveAspectRatio="xMidYMid meet">
                <text x="20" y="26" style="fill:#e8a951;font:600 10px Inter,sans-serif;letter-spacing:2px">SELECTIVE BINDING</text>
                <g transform="translate(140 140)">
                  <path d="M -25 -8 L 25 -8 L 28 4 L 18 4 L 14 -2 L -14 -2 L -18 4 L -28 4 Z" fill="#4fb8a8" opacity="0.7" stroke="#4fb8a8" stroke-width="1.5"/>
                  <g transform="translate(0 -10)" fill="#6cc27d">
                    <circle cx="-7" cy="0" r="2.5"/><circle cx="0" cy="0" r="2.5"/><circle cx="7" cy="0" r="2.5"/>
                  </g>
                  <text x="0" y="30" text-anchor="middle" style="fill:#6cc27d;font:italic 600 10px Fraunces,serif">fits · peptide A</text>
                </g>
                <g transform="translate(360 140)">
                  <path d="M -25 -8 L 25 -8 L 28 4 L 18 4 L 14 -2 L -14 -2 L -18 4 L -28 4 Z" fill="#4fb8a8" opacity="0.7" stroke="#4fb8a8" stroke-width="1.5"/>
                  <g transform="translate(0 -16)" fill="#d14859">
                    <circle cx="-7" cy="0" r="3.5"/><circle cx="0" cy="0" r="3.5"/><circle cx="7" cy="0" r="3.5"/>
                  </g>
                  <line x1="-13" y1="-18" x2="13" y2="-5" stroke="#d14859" stroke-width="2.2"/>
                  <line x1="-13" y1="-5" x2="13" y2="-18" stroke="#d14859" stroke-width="2.2"/>
                  <text x="0" y="30" text-anchor="middle" style="fill:#d14859;font:italic 600 10px Fraunces,serif">won't fit · peptide B</text>
                </g>

                  <!-- FOCUS · audio-aligned attention marker -->
                  <circle cx="140" cy="165" r="24" fill="none" stroke="#d14859" stroke-width="1.8" stroke-dasharray="3 2" opacity="0.85">
                    <animate attributeName="r" values="20;30;20" dur="2.4s" repeatCount="indefinite"/>
                    <animate attributeName="opacity" values="0.85;0.20;0.85" dur="2.4s" repeatCount="indefinite"/>
                  </circle>
</svg>
