<?xml version="1.0" encoding="UTF-8"?>
<!--
  Auto-generated from the reference HTML by
  scripts/storymode-extraction/extract.mjs.
  Do not edit by hand — regenerate the file instead.
-->
<svg xmlns="http://www.w3.org/2000/svg" xmlns:xlink="http://www.w3.org/1999/xlink" viewBox="0 0 500 260" preserveAspectRatio="xMidYMid meet">
                  <text x="20" y="16" style="fill:#e8a951;font:600 9px Inter,sans-serif;letter-spacing:2px">STEP 04 · LTR ENHANCER → ADJACENT PROTO-ONCOGENE</text>

                  <!-- Chromosome with vector + adjacent proto-oncogene + enhancer arrow -->
                  <text x="250" y="100" text-anchor="middle" style="fill:#9370b9;font:700 9px Inter,sans-serif;letter-spacing:1.5px">UNLUCKY INSERTION SITE</text>

                  <g transform="translate(250 145)" opacity="1"><line x1="-180" y1="-1" x2="180" y2="-1" stroke="#9370b9" stroke-width="1.4" opacity="0.6"></line><line x1="-180" y1="3" x2="180" y2="3" stroke="#9370b9" stroke-width="1.4" opacity="0.6"></line><g stroke="#9370b9" stroke-width="0.6" opacity="0.4"><line x1="-176" y1="-1" x2="-176" y2="3"></line><line x1="-164" y1="-1" x2="-164" y2="3"></line><line x1="-152" y1="-1" x2="-152" y2="3"></line><line x1="-140" y1="-1" x2="-140" y2="3"></line><line x1="-128" y1="-1" x2="-128" y2="3"></line><line x1="-116" y1="-1" x2="-116" y2="3"></line><line x1="-104" y1="-1" x2="-104" y2="3"></line><line x1="-92" y1="-1" x2="-92" y2="3"></line><line x1="-80" y1="-1" x2="-80" y2="3"></line><line x1="-68" y1="-1" x2="-68" y2="3"></line><line x1="-56" y1="-1" x2="-56" y2="3"></line><line x1="-44" y1="-1" x2="-44" y2="3"></line><line x1="-32" y1="-1" x2="-32" y2="3"></line><line x1="-20" y1="-1" x2="-20" y2="3"></line><line x1="-8" y1="-1" x2="-8" y2="3"></line><line x1="4" y1="-1" x2="4" y2="3"></line><line x1="16" y1="-1" x2="16" y2="3"></line><line x1="28" y1="-1" x2="28" y2="3"></line><line x1="40" y1="-1" x2="40" y2="3"></line><line x1="52" y1="-1" x2="52" y2="3"></line><line x1="64" y1="-1" x2="64" y2="3"></line><line x1="76" y1="-1" x2="76" y2="3"></line><line x1="88" y1="-1" x2="88" y2="3"></line><line x1="100" y1="-1" x2="100" y2="3"></line><line x1="112" y1="-1" x2="112" y2="3"></line><line x1="124" y1="-1" x2="124" y2="3"></line><line x1="136" y1="-1" x2="136" y2="3"></line><line x1="148" y1="-1" x2="148" y2="3"></line><line x1="160" y1="-1" x2="160" y2="3"></line><line x1="172" y1="-1" x2="172" y2="3"></line></g><rect x="-128" y="-6" width="16" height="14" rx="1.5" fill="#6b7689" fill-opacity="0.65" stroke="#6b7689" stroke-width="0.8"></rect><rect x="-68" y="-6" width="16" height="14" rx="1.5" fill="#6b7689" fill-opacity="0.65" stroke="#6b7689" stroke-width="0.8"></rect><rect x="112" y="-6" width="16" height="14" rx="1.5" fill="#6b7689" fill-opacity="0.65" stroke="#6b7689" stroke-width="0.8"></rect><rect x="-28" y="-9" width="14" height="20" rx="2" fill="#e8a951" fill-opacity="0.70" stroke="#e8a951" stroke-width="1.4"></rect><text x="-21" y="3" text-anchor="middle" style="fill:#0a0e1a;font:700 6px Inter,sans-serif">LTR</text><rect x="-13" y="-7" width="26" height="16" rx="2" fill="#4fb8a8" fill-opacity="0.70" stroke="#4fb8a8" stroke-width="1.4"></rect><text x="0" y="3" text-anchor="middle" style="fill:#0a0e1a;font:700 7px Inter,sans-serif">ADA</text><rect x="14" y="-9" width="14" height="20" rx="2" fill="#e8a951" fill-opacity="0.70" stroke="#e8a951" stroke-width="1.4"></rect><text x="21" y="3" text-anchor="middle" style="fill:#0a0e1a;font:700 6px Inter,sans-serif">LTR</text><rect x="42" y="-9" width="36" height="20" rx="2.5" fill="#d14859" fill-opacity="0.55" stroke="#d14859" stroke-width="2"></rect><text x="60" y="3" text-anchor="middle" style="fill:#e8ecf3;font:700 7px Inter,sans-serif">proto-oncogene</text><text x="60" y="22" text-anchor="middle" style="fill:#d14859;font:700 7px Inter,sans-serif;letter-spacing:1.2px">ACTIVATED</text><path d="M 22 -10 Q 35 -22 50 -14" stroke="#e8a951" stroke-width="1.6" fill="none"></path><polygon points="50,-14 47,-19 53,-19" fill="#e8a951"></polygon><text x="36" y="-26" text-anchor="middle" style="fill:#e8a951;font:700 6px Inter,sans-serif;letter-spacing:1px">ENHANCER →</text></g>

                  <!-- Annotation: LTR contains strong viral enhancers -->
                  <g transform="translate(250 200)">
                    <rect x="-180" y="-12" width="360" height="22" rx="11" fill="#e8a951" fill-opacity="0.25" stroke="#e8a951" stroke-width="1.5"></rect>
                    <text x="0" y="3" text-anchor="middle" style="fill:#e8a951;font:700 8px Inter,sans-serif;letter-spacing:1.5px">LTR CONTAINS STRONG VIRAL ENHANCER</text>
                  </g>

                  <!-- Verdict -->
                  <g transform="translate(250 230)">
                    <rect x="-150" y="-10" width="300" height="20" rx="8" fill="#d14859" fill-opacity="0.25" stroke="#d14859" stroke-width="1.4"></rect>
                    <text x="0" y="3" text-anchor="middle" style="fill:#d14859;font:700 8px Inter,sans-serif;letter-spacing:1.5px">NEIGHBORING GENE TURNED ON</text>
                  </g>

                  <text x="250" y="245" text-anchor="middle" style="fill:#b4becf;font:italic 7.5px Fraunces,serif">the strong promoter from the vector LTR can act on neighboring DNA · cis-activates whatever's close</text>

                  <!-- FOCUS · audio-aligned attention marker -->
                  <circle cx="310" cy="162" r="20" fill="none" stroke="#d14859" stroke-width="1.8" stroke-dasharray="3 2" opacity="0.85">
                    <animate attributeName="r" values="16;26;16" dur="2.4s" repeatCount="indefinite"/>
                    <animate attributeName="opacity" values="0.85;0.20;0.85" dur="2.4s" repeatCount="indefinite"/>
                  </circle>
</svg>
