<?xml version="1.0" encoding="UTF-8"?>
<!--
  Auto-generated from the reference HTML by
  scripts/storymode-extraction/extract.mjs.
  Do not edit by hand — regenerate the file instead.
-->
<svg xmlns="http://www.w3.org/2000/svg" xmlns:xlink="http://www.w3.org/1999/xlink" viewBox="0 0 500 260" preserveAspectRatio="xMidYMid meet">
<text x="20" y="16" style="fill:#e8a951;font:600 9px Inter,sans-serif;letter-spacing:2px">STEP 01 · 5-MO GIRL · CLASSIC SCID PICTURE</text>

<!-- Infant on left with three findings drawn -->
<g transform="translate(120 145)">
  <text x="0" y="-100" text-anchor="middle" style="fill:#9370b9;font:700 9px Inter,sans-serif;letter-spacing:1.5px">5-MO GIRL</text>
  
  <!-- Head -->
  <circle cx="0" cy="-72" r="20" fill="rgba(180,190,207,0.55)" stroke="#b4becf" stroke-width="1.4"/>
  <!-- Mouth showing thrush (white patches inside lips) -->
  <ellipse cx="0" cy="-58" rx="8" ry="3" fill="rgba(209,72,89,0.55)" stroke="#d14859" stroke-width="0.8"/>
  <g fill="#fff" opacity="0.95">
    <circle cx="-4" cy="-58" r="1.2"/>
    <circle cx="0" cy="-58" r="1.2"/>
    <circle cx="4" cy="-58" r="1.2"/>
  </g>
  <line x1="-12" y1="-55" x2="-22" y2="-55" stroke="#fff" stroke-width="0.6"/>
  <text x="-26" y="-53" text-anchor="end" style="fill:#fff;font:700 6.5px Inter,sans-serif">thrush</text>
  
  <!-- Body - thin/small (FTT) -->
  <path d="M -22 -50 Q -25 -38 -25 -25 L -25 50 L 25 50 L 25 -25 Q 25 -38 22 -50 Z" 
        fill="rgba(180,190,207,0.20)" stroke="#b4becf" stroke-width="1.4"/>
  
  <!-- FTT growth chart icon next to body -->
  <g transform="translate(35 -10)">
    <rect x="-2" y="-20" width="4" height="40" fill="#3a4358"/>
    <line x1="-5" y1="-15" x2="5" y2="-15" stroke="#6b7689" stroke-width="0.6"/>
    <line x1="-5" y1="-5" x2="5" y2="-5" stroke="#6b7689" stroke-width="0.6"/>
    <line x1="-5" y1="5" x2="5" y2="5" stroke="#6b7689" stroke-width="0.6"/>
    <line x1="-5" y1="15" x2="5" y2="15" stroke="#6b7689" stroke-width="0.6"/>
    <!-- Patient bar - tiny -->
    <rect x="0" y="10" width="14" height="10" fill="rgba(209,72,89,0.85)"/>
    <text x="20" y="6" style="fill:#d14859;font:700 6.5px Inter,sans-serif">FTT</text>
    <text x="20" y="15" style="fill:#b4becf;font:6px Inter,sans-serif">&lt; 3rd</text>
  </g>
  
  <!-- Diaper area marked (severe diarrhea) -->
  <g transform="translate(0 35)">
    <rect x="-22" y="-3" width="44" height="14" rx="2" fill="rgba(79,184,168,0.45)" stroke="#4fb8a8" stroke-width="1"/>
    <text x="0" y="6" text-anchor="middle" style="fill:#0a0e1a;font:700 6px Inter,sans-serif">diarrhea</text>
  </g>
</g>

<!-- TREC lab card on right -->
<g transform="translate(345 145)">
  <text x="0" y="-100" text-anchor="middle" style="fill:#9370b9;font:700 9px Inter,sans-serif;letter-spacing:1.5px">NEWBORN SCREEN</text>
  
  <!-- Lab card -->
  <rect x="-110" y="-80" width="220" height="160" rx="8" fill="rgba(20,24,40,0.85)" stroke="#3a4358" stroke-width="1.4"/>
  <!-- Header strip -->
  <rect x="-110" y="-80" width="220" height="22" rx="8" fill="rgba(147,112,185,0.40)" stroke="none"/>
  <text x="0" y="-65" text-anchor="middle" style="fill:#9370b9;font:700 8.5px Inter,sans-serif;letter-spacing:1.5px">TREC qPCR</text>
  
  <!-- Reference range bar -->
  <text x="-95" y="-40" style="fill:#b4becf;font:700 7px Inter,sans-serif">REFERENCE</text>
  <rect x="-95" y="-32" width="190" height="6" rx="2" fill="#3a4358"/>
  <rect x="0" y="-32" width="95" height="6" rx="2" fill="rgba(108,194,125,0.65)"/>
  <text x="48" y="-22" text-anchor="middle" style="fill:#6cc27d;font:6.5px Inter,sans-serif">normal</text>
  
  <!-- Patient result -->
  <text x="-95" y="-5" style="fill:#b4becf;font:700 7px Inter,sans-serif">PATIENT</text>
  <rect x="-95" y="3" width="190" height="6" rx="2" fill="#3a4358"/>
  <rect x="-95" y="3" width="15" height="6" rx="2" fill="rgba(209,72,89,0.95)"/>
  <text x="-87" y="20" style="fill:#d14859;font:700 8px Inter,sans-serif">↓↓ LOW</text>
  
  <!-- Diagnosis chip -->
  <line x1="-100" y1="36" x2="100" y2="36" stroke="#3a4358" stroke-width="0.6"/>
  <text x="0" y="50" text-anchor="middle" style="fill:#d14859;font:700 11px Inter,sans-serif;letter-spacing:1.5px">SCID PHENOTYPE</text>
  <text x="0" y="64" text-anchor="middle" style="fill:#b4becf;font:7px Inter,sans-serif">cause: many genes possible</text>
</g>

<text x="250" y="245" text-anchor="middle" style="fill:#6b7689;font:italic 7.5px Fraunces,serif">Same SCID picture · this question asks the molecular MECHANISM of one specific cause</text>

                  <!-- FOCUS · audio-aligned attention marker -->
                  <circle cx="345" cy="204" r="39" fill="none" stroke="#d14859" stroke-width="1.8" stroke-dasharray="3 2" opacity="0.85">
                    <animate attributeName="r" values="35;45;35" dur="2.4s" repeatCount="indefinite"/>
                    <animate attributeName="opacity" values="0.85;0.20;0.85" dur="2.4s" repeatCount="indefinite"/>
                  </circle>
</svg>
