<?xml version="1.0" encoding="UTF-8"?>
<!--
  Auto-generated from the reference HTML by
  scripts/storymode-extraction/extract.mjs.
  Do not edit by hand — regenerate the file instead.
-->
<svg xmlns="http://www.w3.org/2000/svg" xmlns:xlink="http://www.w3.org/1999/xlink" viewBox="0 0 500 260" preserveAspectRatio="xMidYMid meet">
                  <text x="20" y="16" style="fill:#e8a951;font:600 9px Inter,sans-serif;letter-spacing:2px">STEP 03 · NEXT PREGNANCY · HEMOLYTIC DISEASE</text>

                  <!-- Three zones: maternal blood (top), placenta (middle), fetal blood (bottom) -->
                  <!-- Maternal blood -->
                  <rect x="40" y="60" width="420" height="40" rx="3" fill="#9370b9" fill-opacity="0.15" stroke="#9370b9" stroke-width="1.4" stroke-dasharray="3 2"></rect>
                  <text x="48" y="78" style="fill:#9370b9;font:600 7px Inter,sans-serif;letter-spacing:1.5px">MATERNAL BLOOD</text>

                  <!-- Placenta -->
                  <rect x="40" y="105" width="420" height="40" rx="3" fill="#e8a951" fill-opacity="0.18" stroke="#e8a951" stroke-width="1.4"></rect>
                  <text x="48" y="128" style="fill:#e8a951;font:600 7px Inter,sans-serif;letter-spacing:1.5px">PLACENTA · FcRn</text>

                  <!-- Fetal blood -->
                  <rect x="40" y="150" width="420" height="55" rx="3" fill="#6cc27d" fill-opacity="0.15" stroke="#6cc27d" stroke-width="1.4" stroke-dasharray="3 2"></rect>
                  <text x="48" y="200" style="fill:#6cc27d;font:600 7px Inter,sans-serif;letter-spacing:1.5px">FETAL BLOOD · Rh+</text>

                  <!-- Anti-D antibodies in maternal blood -->
                  <g transform="translate(140 78) scale(1.2)" opacity="1"><g stroke="#e8a951" stroke-width="2" fill="none" stroke-linecap="round"><path d="M -7 -6 L -2 0 L 2 0 L 7 -6"></path><line x1="0" y1="0" x2="0" y2="9"></line></g></g>
                  <g transform="translate(190 82) scale(1.2)" opacity="1"><g stroke="#e8a951" stroke-width="2" fill="none" stroke-linecap="round"><path d="M -7 -6 L -2 0 L 2 0 L 7 -6"></path><line x1="0" y1="0" x2="0" y2="9"></line></g></g>
                  <g transform="translate(240 78) scale(1.2)" opacity="1"><g stroke="#e8a951" stroke-width="2" fill="none" stroke-linecap="round"><path d="M -7 -6 L -2 0 L 2 0 L 7 -6"></path><line x1="0" y1="0" x2="0" y2="9"></line></g></g>
                  <g transform="translate(290 82) scale(1.2)" opacity="1"><g stroke="#e8a951" stroke-width="2" fill="none" stroke-linecap="round"><path d="M -7 -6 L -2 0 L 2 0 L 7 -6"></path><line x1="0" y1="0" x2="0" y2="9"></line></g></g>
                  <g transform="translate(345 78) scale(1.2)" opacity="1"><g stroke="#e8a951" stroke-width="2" fill="none" stroke-linecap="round"><path d="M -7 -6 L -2 0 L 2 0 L 7 -6"></path><line x1="0" y1="0" x2="0" y2="9"></line></g></g>
                  <g transform="translate(400 82) scale(1.2)" opacity="1"><g stroke="#e8a951" stroke-width="2" fill="none" stroke-linecap="round"><path d="M -7 -6 L -2 0 L 2 0 L 7 -6"></path><line x1="0" y1="0" x2="0" y2="9"></line></g></g>

                  <!-- Transcytosis arrows down -->
                  <g stroke="#d14859" stroke-width="1.4" fill="none" stroke-dasharray="3 2" opacity="0.85">
                    <path d="M 190 95 L 190 150"></path>
                    <path d="M 290 95 L 290 150"></path>
                    <path d="M 400 95 L 400 150"></path>
                  </g>
                  <g fill="#d14859">
                    <polygon points="190,150 186,144 194,144"></polygon>
                    <polygon points="290,150 286,144 294,144"></polygon>
                    <polygon points="400,150 396,144 404,144"></polygon>
                  </g>

                  <!-- Fetal Rh+ RBCs being attacked -->
                  <g transform="translate(140 175)" opacity="1"><ellipse cx="0" cy="0" rx="14" ry="9" fill="#d14859" fill-opacity="0.85" stroke="#d14859" stroke-width="1"></ellipse><ellipse cx="0" cy="0" rx="5.88" ry="3.78" fill="#1a2030" opacity="0.85"></ellipse><g stroke="#e8a951" stroke-width="1.4" fill="none" stroke-linecap="round"><g transform="translate(0 -13)"><path d="M -4 4 L 0 0 L 0 -4"></path><path d="M 0 -4 L 4 0"></path></g><g transform="translate(18 0) rotate(90)"><path d="M -4 4 L 0 0 L 0 -4"></path><path d="M 0 -4 L 4 0"></path></g><g transform="translate(0 13) rotate(180)"><path d="M -4 4 L 0 0 L 0 -4"></path><path d="M 0 -4 L 4 0"></path></g><g transform="translate(-18 0) rotate(270)"><path d="M -4 4 L 0 0 L 0 -4"></path><path d="M 0 -4 L 4 0"></path></g></g></g>
                  <g transform="translate(220 180)" opacity="1"><ellipse cx="0" cy="0" rx="14" ry="9" fill="#d14859" fill-opacity="0.85" stroke="#d14859" stroke-width="1"></ellipse><ellipse cx="0" cy="0" rx="5.88" ry="3.78" fill="#1a2030" opacity="0.85"></ellipse><g stroke="#e8a951" stroke-width="1.4" fill="none" stroke-linecap="round"><g transform="translate(0 -13)"><path d="M -4 4 L 0 0 L 0 -4"></path><path d="M 0 -4 L 4 0"></path></g><g transform="translate(18 0) rotate(90)"><path d="M -4 4 L 0 0 L 0 -4"></path><path d="M 0 -4 L 4 0"></path></g><g transform="translate(0 13) rotate(180)"><path d="M -4 4 L 0 0 L 0 -4"></path><path d="M 0 -4 L 4 0"></path></g><g transform="translate(-18 0) rotate(270)"><path d="M -4 4 L 0 0 L 0 -4"></path><path d="M 0 -4 L 4 0"></path></g></g></g>
                  <g transform="translate(300 175)" opacity="1"><ellipse cx="0" cy="0" rx="14" ry="9" fill="#d14859" fill-opacity="0.85" stroke="#d14859" stroke-width="1"></ellipse><ellipse cx="0" cy="0" rx="5.88" ry="3.78" fill="#1a2030" opacity="0.85"></ellipse><g stroke="#e8a951" stroke-width="1.4" fill="none" stroke-linecap="round"><g transform="translate(0 -13)"><path d="M -4 4 L 0 0 L 0 -4"></path><path d="M 0 -4 L 4 0"></path></g><g transform="translate(18 0) rotate(90)"><path d="M -4 4 L 0 0 L 0 -4"></path><path d="M 0 -4 L 4 0"></path></g><g transform="translate(0 13) rotate(180)"><path d="M -4 4 L 0 0 L 0 -4"></path><path d="M 0 -4 L 4 0"></path></g><g transform="translate(-18 0) rotate(270)"><path d="M -4 4 L 0 0 L 0 -4"></path><path d="M 0 -4 L 4 0"></path></g></g></g>
                  <g transform="translate(380 180)" opacity="1"><ellipse cx="0" cy="0" rx="14" ry="9" fill="#d14859" fill-opacity="0.85" stroke="#d14859" stroke-width="1"></ellipse><ellipse cx="0" cy="0" rx="5.88" ry="3.78" fill="#1a2030" opacity="0.85"></ellipse><g stroke="#e8a951" stroke-width="1.4" fill="none" stroke-linecap="round"><g transform="translate(0 -13)"><path d="M -4 4 L 0 0 L 0 -4"></path><path d="M 0 -4 L 4 0"></path></g><g transform="translate(18 0) rotate(90)"><path d="M -4 4 L 0 0 L 0 -4"></path><path d="M 0 -4 L 4 0"></path></g><g transform="translate(0 13) rotate(180)"><path d="M -4 4 L 0 0 L 0 -4"></path><path d="M 0 -4 L 4 0"></path></g><g transform="translate(-18 0) rotate(270)"><path d="M -4 4 L 0 0 L 0 -4"></path><path d="M 0 -4 L 4 0"></path></g></g></g>

                  <!-- Verdict -->
                  <g transform="translate(250 214)">
                    <rect x="-160" y="-10" width="320" height="20" rx="8" fill="#d14859" fill-opacity="0.20" stroke="#d14859" stroke-width="1.4"></rect>
                    <text x="0" y="3" text-anchor="middle" style="fill:#d14859;font:700 8px Inter,sans-serif;letter-spacing:1.5px">HEMOLYTIC DISEASE OF THE NEWBORN</text>
                  </g>

                  <text x="250" y="245" text-anchor="middle" style="fill:#b4becf;font:italic 7.5px Fraunces,serif">maternal anti-D IgG crosses placenta · binds fetal Rh+ RBCs · destroys them in fetus</text>

                  <!-- FOCUS · audio-aligned attention marker -->
                  <circle cx="48" cy="73" r="21" fill="none" stroke="#d14859" stroke-width="1.8" stroke-dasharray="3 2" opacity="0.85">
                    <animate attributeName="r" values="17;27;17" dur="2.4s" repeatCount="indefinite"/>
                    <animate attributeName="opacity" values="0.85;0.20;0.85" dur="2.4s" repeatCount="indefinite"/>
                  </circle>
</svg>
