<?xml version="1.0" encoding="UTF-8"?>
<!--
  Auto-generated from the reference HTML by
  scripts/storymode-extraction/extract.mjs.
  Do not edit by hand — regenerate the file instead.
-->
<svg xmlns="http://www.w3.org/2000/svg" xmlns:xlink="http://www.w3.org/1999/xlink" viewBox="0 0 500 260" preserveAspectRatio="xMidYMid meet">
<text x="20" y="16" style="fill:#e8a951;font:600 9px Inter,sans-serif;letter-spacing:2px">STEP 05 · ~1 MUTATION / GENOME / CYCLE</text>

<!-- Math equation visual -->
<g transform="translate(250 90)">
  <!-- Genome size -->
  <g transform="translate(-130 0)">
    <rect x="-50" y="-22" width="100" height="44" rx="8" fill="rgba(232,169,81,0.30)" stroke="#e8a951" stroke-width="1.6"/>
    <text x="0" y="-5" text-anchor="middle" style="fill:#e8a951;font:700 9px 'JetBrains Mono',monospace">10⁴ nt</text>
    <text x="0" y="11" text-anchor="middle" style="fill:#b4becf;font:6.5px Inter,sans-serif">HIV genome</text>
  </g>
  
  <!-- × -->
  <text x="-65" y="3" text-anchor="middle" style="fill:#b4becf;font:700 14px Inter,sans-serif">×</text>
  
  <!-- Error rate -->
  <g transform="translate(0 0)">
    <rect x="-50" y="-22" width="100" height="44" rx="8" fill="rgba(209,72,89,0.30)" stroke="#d14859" stroke-width="1.6"/>
    <text x="0" y="-5" text-anchor="middle" style="fill:#d14859;font:700 9px 'JetBrains Mono',monospace">10⁻⁴/nt</text>
    <text x="0" y="11" text-anchor="middle" style="fill:#b4becf;font:6.5px Inter,sans-serif">RT error rate</text>
  </g>
  
  <!-- = -->
  <text x="65" y="3" text-anchor="middle" style="fill:#b4becf;font:700 14px Inter,sans-serif">=</text>
  
  <!-- Result -->
  <g transform="translate(130 0)">
    <rect x="-50" y="-22" width="100" height="44" rx="8" fill="rgba(108,194,125,0.30)" stroke="#6cc27d" stroke-width="2"/>
    <text x="0" y="-5" text-anchor="middle" style="fill:#6cc27d;font:700 9px 'JetBrains Mono',monospace">~1 mut</text>
    <text x="0" y="11" text-anchor="middle" style="fill:#b4becf;font:6.5px Inter,sans-serif">per cycle</text>
  </g>
</g>

<!-- Multiplied by virion production rate -->
<g transform="translate(250 175)">
  <text x="0" y="-32" text-anchor="middle" style="fill:#9370b9;font:700 8.5px Inter,sans-serif;letter-spacing:1.2px">× 10⁹–10¹⁰ VIRIONS / DAY</text>
  
  <!-- Visual: many virions -->
  <g fill="rgba(147,112,185,0.65)" stroke="#9370b9" stroke-width="0.6">
    <circle cx="-150" cy="0" r="6"/>
    <circle cx="-130" cy="-5" r="6"/>
    <circle cx="-110" cy="2" r="6"/>
    <circle cx="-90" cy="-3" r="6"/>
    <circle cx="-70" cy="0" r="6"/>
    <circle cx="-50" cy="-4" r="6"/>
    <circle cx="-30" cy="2" r="6"/>
    <circle cx="-10" cy="-5" r="6"/>
    <circle cx="10" cy="0" r="6"/>
    <circle cx="30" cy="-3" r="6"/>
    <circle cx="50" cy="2" r="6"/>
    <circle cx="70" cy="-4" r="6"/>
    <circle cx="90" cy="0" r="6"/>
    <circle cx="110" cy="-5" r="6"/>
    <circle cx="130" cy="2" r="6"/>
    <circle cx="150" cy="-3" r="6"/>
  </g>
  <text x="170" y="3" style="fill:#9370b9;font:700 12px Inter,sans-serif">…</text>
  
  <!-- Result -->
  <g transform="translate(0 30)">
    <rect x="-130" y="-12" width="260" height="26" rx="6" fill="rgba(232,169,81,0.20)" stroke="#e8a951" stroke-width="1.6"/>
    <text x="0" y="3" text-anchor="middle" style="fill:#e8a951;font:700 9px Inter,sans-serif;letter-spacing:1.2px">MASSIVE VIRAL DIVERSITY</text>
  </g>
</g>

<text x="250" y="245" text-anchor="middle" style="fill:#6b7689;font:italic 7.5px Fraunces,serif">Same genetic diversity that lets virus survive · drives resistance + immune escape</text>

                  <!-- FOCUS · audio-aligned attention marker -->
                  <circle cx="250" cy="96" r="20" fill="none" stroke="#d14859" stroke-width="1.8" stroke-dasharray="3 2" opacity="0.85">
                    <animate attributeName="r" values="16;26;16" dur="2.4s" repeatCount="indefinite"/>
                    <animate attributeName="opacity" values="0.85;0.20;0.85" dur="2.4s" repeatCount="indefinite"/>
                  </circle>
</svg>
