<?xml version="1.0" encoding="UTF-8"?>
<!--
  Auto-generated from the reference HTML by
  scripts/storymode-extraction/extract.mjs.
  Do not edit by hand — regenerate the file instead.
-->
<svg xmlns="http://www.w3.org/2000/svg" xmlns:xlink="http://www.w3.org/1999/xlink" viewBox="0 0 500 260" preserveAspectRatio="xMidYMid meet">
                  <text x="20" y="16" style="fill:#e8a951;font:600 9px Inter,sans-serif;letter-spacing:2px">STEP 02 · NORMAL RECIPIENT · HVG REJECTS DONOR T CELLS</text>

                  <g transform="translate(80 145)">
                    <g transform="translate(0 0) scale(0.85)" opacity="1"><circle cx="0" cy="-30" r="14" fill="#6cc27d" fill-opacity="0.55" stroke="#6cc27d" stroke-width="1.4"></circle><path d="M -22 -16 L 22 -16 L 30 50 L -30 50 Z" fill="#6cc27d" fill-opacity="0.40" stroke="#6cc27d" stroke-width="1.4"></path></g>
                    <text x="0" y="62" text-anchor="middle" style="fill:#6cc27d;font:700 8px Inter,sans-serif;letter-spacing:1.5px">NORMAL HOST</text>
                  </g>

                  <g transform="translate(180 110)" opacity="1"><rect x="-3" y="-38" width="6" height="6" fill="#6b7689" opacity="0.65"></rect><path d="M -19 -30 L 19 -30 L 15 30 L -15 30 Z" fill="#d14859" fill-opacity="0.55" stroke="#d14859" stroke-width="1.5"></path><g fill="#9c2937" fill-opacity="0.85"><ellipse cx="-12" cy="-25" rx="3" ry="2"></ellipse><ellipse cx="10" cy="-28" rx="3" ry="2"></ellipse><ellipse cx="0" cy="-10" rx="3" ry="2"></ellipse><ellipse cx="-10" cy="-5" rx="3" ry="2"></ellipse><ellipse cx="12" cy="-8" rx="3" ry="2"></ellipse><ellipse cx="-15" cy="8" rx="3" ry="2"></ellipse><ellipse cx="10" cy="12" rx="3" ry="2"></ellipse><ellipse cx="-5" cy="22" rx="3" ry="2"></ellipse><ellipse cx="12" cy="25" rx="3" ry="2"></ellipse><ellipse cx="-12" cy="28" rx="3" ry="2"></ellipse></g><g fill="#e8a951" fill-opacity="0.95" stroke="#e8a951" stroke-width="0.8"><circle cx="-10" cy="-15" r="4"></circle><circle cx="6" cy="0" r="4"></circle><circle cx="-3" cy="20" r="4"></circle></g></g>
                  <line x1="180" y1="142" x2="180" y2="170" stroke="#d14859" stroke-width="1.4"></line>
                  <polygon points="180,170 176,164 184,164" fill="#d14859"></polygon>

                  <g transform="translate(310 145)">
                    <rect x="-65" y="-50" width="130" height="100" rx="8" fill="#6cc27d" fill-opacity="0.10" stroke="#6cc27d" stroke-width="1.4"></rect>
                    <text x="0" y="-38" text-anchor="middle" style="fill:#6cc27d;font:700 7px Inter,sans-serif;letter-spacing:1.2px">HOST IMMUNE SYSTEM</text>
                    <g transform="translate(-35 -10)" opacity="1"><circle cx="0" cy="0" r="9" fill="#6cc27d" fill-opacity="0.55" stroke="#6cc27d" stroke-width="1.2"></circle><ellipse cx="-2" cy="-1" rx="3.6" ry="3.15" fill="#4a2d60" opacity="0.85"></ellipse><text x="0" y="2" text-anchor="middle" style="fill:#e8ecf3;font:700 6px Inter,sans-serif">T</text></g>
                    <g transform="translate(35 5)" opacity="1"><circle cx="0" cy="0" r="9" fill="#6cc27d" fill-opacity="0.55" stroke="#6cc27d" stroke-width="1.2"></circle><ellipse cx="-2" cy="-1" rx="3.6" ry="3.15" fill="#4a2d60" opacity="0.85"></ellipse><text x="0" y="2" text-anchor="middle" style="fill:#e8ecf3;font:700 6px Inter,sans-serif">T</text></g>
                    <g transform="translate(-30 25)" opacity="1"><circle cx="0" cy="0" r="9" fill="#6cc27d" fill-opacity="0.55" stroke="#6cc27d" stroke-width="1.2"></circle><ellipse cx="-2" cy="-1" rx="3.6" ry="3.15" fill="#4a2d60" opacity="0.85"></ellipse><text x="0" y="2" text-anchor="middle" style="fill:#e8ecf3;font:700 6px Inter,sans-serif">T</text></g>
                    <g transform="translate(40 30)" opacity="1"><circle cx="0" cy="0" r="9" fill="#6cc27d" fill-opacity="0.55" stroke="#6cc27d" stroke-width="1.2"></circle><ellipse cx="-2" cy="-1" rx="3.6" ry="3.15" fill="#4a2d60" opacity="0.85"></ellipse><text x="0" y="2" text-anchor="middle" style="fill:#e8ecf3;font:700 6px Inter,sans-serif">T</text></g>
                    <g transform="translate(-5 -10)" opacity="1"><circle cx="0" cy="0" r="8" fill="#e8a951" fill-opacity="0.3" stroke="#e8a951" stroke-width="1.2" stroke-dasharray="2 2"></circle><ellipse cx="-2" cy="-1" rx="3.2" ry="2.8" fill="#4a2d60" opacity="0.4"></ellipse><text x="0" y="2" text-anchor="middle" style="fill:#e8ecf3;font:700 6px Inter,sans-serif">T</text><line x1="-6" y1="-6" x2="6" y2="6" stroke="#d14859" stroke-width="1.6" stroke-linecap="round"></line><line x1="-6" y1="6" x2="6" y2="-6" stroke="#d14859" stroke-width="1.6" stroke-linecap="round"></line></g>
                    <g transform="translate(5 15)" opacity="1"><circle cx="0" cy="0" r="8" fill="#e8a951" fill-opacity="0.3" stroke="#e8a951" stroke-width="1.2" stroke-dasharray="2 2"></circle><ellipse cx="-2" cy="-1" rx="3.2" ry="2.8" fill="#4a2d60" opacity="0.4"></ellipse><text x="0" y="2" text-anchor="middle" style="fill:#e8ecf3;font:700 6px Inter,sans-serif">T</text><line x1="-6" y1="-6" x2="6" y2="6" stroke="#d14859" stroke-width="1.6" stroke-linecap="round"></line><line x1="-6" y1="6" x2="6" y2="-6" stroke="#d14859" stroke-width="1.6" stroke-linecap="round"></line></g>
                    <g stroke="#d14859" stroke-width="1.2" fill="none" stroke-linecap="round">
<path d="M -22 -8 L -10 -10"></path>
<path d="M 25 5 L 13 -8"></path>
                    </g>
                  </g>

                  <g transform="translate(440 145)">
                    <rect x="-40" y="-22" width="80" height="44" rx="6" fill="#6cc27d" fill-opacity="0.30" stroke="#6cc27d" stroke-width="1.6"></rect>
                    <text x="0" y="-3" text-anchor="middle" style="fill:#6cc27d;font:700 8px Inter,sans-serif;letter-spacing:1.2px">SAFE</text>
                    <text x="0" y="11" text-anchor="middle" style="fill:#b4becf;font:italic 7px Fraunces,serif">no engraft</text>
                  </g>

                  <text x="250" y="245" text-anchor="middle" style="fill:#b4becf;font:italic 7.5px Fraunces,serif">recipient T cells recognize donor HLA as foreign and eliminate them · standard transfusion safety</text>

                  <!-- FOCUS · audio-aligned attention marker -->
                  <circle cx="440" cy="151" r="20" fill="none" stroke="#d14859" stroke-width="1.8" stroke-dasharray="3 2" opacity="0.85">
                    <animate attributeName="r" values="16;26;16" dur="2.4s" repeatCount="indefinite"/>
                    <animate attributeName="opacity" values="0.85;0.20;0.85" dur="2.4s" repeatCount="indefinite"/>
                  </circle>
</svg>
