<?xml version="1.0" encoding="UTF-8"?>
<!--
  Auto-generated from the reference HTML by
  scripts/storymode-extraction/extract.mjs.
  Do not edit by hand — regenerate the file instead.
-->
<svg xmlns="http://www.w3.org/2000/svg" xmlns:xlink="http://www.w3.org/1999/xlink" viewBox="0 0 500 260" preserveAspectRatio="xMidYMid meet">
<text x="20" y="16" style="fill:#e8a951;font:600 9px Inter,sans-serif;letter-spacing:2px">STEP 02 · CHLOROQUINE · BLOOD STAGE ONLY</text>

<!-- Blood stage RBCs (left, killed) -->
<g transform="translate(125 145)">
  <text x="0" y="-90" text-anchor="middle" style="fill:#6cc27d;font:700 9px Inter,sans-serif;letter-spacing:1.5px">BLOOD STAGE · CLEARED</text>
  
  <!-- RBCs with parasites -->
  <g>
    <!-- Infected RBCs (with parasite ring inside) -->
    <g>
      <circle cx="-25" cy="-15" r="13" fill="rgba(209,72,89,0.55)" stroke="#a53343" stroke-width="1"/>
      <circle cx="-25" cy="-15" r="5" fill="rgba(74,45,96,0.85)"/>
      <line x1="-30" y1="-25" x2="-15" y2="-5" stroke="#d14859" stroke-width="2" stroke-linecap="round"/>
      <line x1="-30" y1="-5" x2="-15" y2="-25" stroke="#d14859" stroke-width="2" stroke-linecap="round"/>
      
      <circle cx="20" cy="-15" r="13" fill="rgba(209,72,89,0.55)" stroke="#a53343" stroke-width="1"/>
      <circle cx="20" cy="-15" r="5" fill="rgba(74,45,96,0.85)"/>
      <line x1="15" y1="-25" x2="30" y2="-5" stroke="#d14859" stroke-width="2" stroke-linecap="round"/>
      <line x1="15" y1="-5" x2="30" y2="-25" stroke="#d14859" stroke-width="2" stroke-linecap="round"/>
      
      <circle cx="0" cy="15" r="13" fill="rgba(209,72,89,0.55)" stroke="#a53343" stroke-width="1"/>
      <circle cx="0" cy="15" r="5" fill="rgba(74,45,96,0.85)"/>
      <line x1="-5" y1="5" x2="10" y2="25" stroke="#d14859" stroke-width="2" stroke-linecap="round"/>
      <line x1="-5" y1="25" x2="10" y2="5" stroke="#d14859" stroke-width="2" stroke-linecap="round"/>
    </g>
  </g>
  
  <text x="0" y="40" text-anchor="middle" style="fill:#6cc27d;font:700 7.5px Inter,sans-serif">PATIENT FEELS BETTER</text>
</g>

<!-- Liver hypnozoites (right, untouched) -->
<g transform="translate(375 145)">
  <text x="0" y="-90" text-anchor="middle" style="fill:#d14859;font:700 9px Inter,sans-serif;letter-spacing:1.5px">LIVER STAGE · UNTOUCHED</text>
  
  <!-- Liver chunk -->
  <path d="M -45 -40 Q -55 -25 -50 0 Q -45 20 -25 30 Q 0 35 25 30 Q 45 20 50 0 Q 55 -25 45 -40 Q 0 -45 -45 -40" 
        fill="rgba(180,130,80,0.30)" stroke="#a06a30" stroke-width="1.4"/>
  
  <!-- Hypnozoites (untouched, prominent) -->
  <g fill="rgba(209,72,89,0.95)" stroke="#a53343" stroke-width="1">
    <circle cx="-15" cy="-10" r="5"/>
    <circle cx="10" cy="-5" r="5"/>
    <circle cx="-5" cy="15" r="5"/>
    <circle cx="20" cy="20" r="5"/>
  </g>
  
  <text x="0" y="55" text-anchor="middle" style="fill:#d14859;font:700 7.5px Inter,sans-serif">DORMANT · WAITING</text>
</g>

<!-- Banner -->
<g transform="translate(250 215)">
  <rect x="-200" y="-13" width="400" height="26" rx="6" fill="rgba(232,169,81,0.20)" stroke="#e8a951" stroke-width="1.4"/>
  <text x="0" y="3" text-anchor="middle" style="fill:#e8a951;font:700 8.5px Inter,sans-serif;letter-spacing:1.2px">RELAPSE INEVITABLE WITHOUT LIVER COVERAGE</text>
</g>

<text x="250" y="245" text-anchor="middle" style="fill:#6b7689;font:italic 7.5px Fraunces,serif">Symptoms resolve as RBC parasites die · hypnozoites in liver still there</text>

                  <!-- FOCUS · audio-aligned attention marker -->
                  <circle cx="375" cy="50" r="34" fill="none" stroke="#d14859" stroke-width="1.8" stroke-dasharray="3 2" opacity="0.85">
                    <animate attributeName="r" values="30;40;30" dur="2.4s" repeatCount="indefinite"/>
                    <animate attributeName="opacity" values="0.85;0.20;0.85" dur="2.4s" repeatCount="indefinite"/>
                  </circle>

                  <!-- FOCUS · audio-aligned attention marker -->
                  <circle cx="250" cy="213" r="40" fill="none" stroke="#d14859" stroke-width="1.8" stroke-dasharray="3 2" opacity="0.85">
                    <animate attributeName="r" values="36;46;36" dur="2.4s" repeatCount="indefinite"/>
                    <animate attributeName="opacity" values="0.85;0.20;0.85" dur="2.4s" repeatCount="indefinite"/>
                  </circle>
</svg>
