<?xml version="1.0" encoding="UTF-8"?>
<!--
  Auto-generated from the reference HTML by
  scripts/storymode-extraction/extract.mjs.
  Do not edit by hand — regenerate the file instead.
-->
<svg xmlns="http://www.w3.org/2000/svg" xmlns:xlink="http://www.w3.org/1999/xlink" viewBox="0 0 500 260" preserveAspectRatio="xMidYMid meet">
<text x="20" y="16" style="fill:#e8a951;font:600 9px Inter,sans-serif;letter-spacing:2px">STEP 05 · C3a/C5a → NEUTROPHILS → DAMAGE</text>

<!-- C3a/C5a cloud on left -->
<g transform="translate(95 145)">
  <text x="0" y="-78" text-anchor="middle" style="fill:#d14859;font:700 8.5px Inter,sans-serif;letter-spacing:1.2px">ANAPHYLATOXINS</text>
  
  <!-- C5a / C3a small molecules -->
  <g fill="rgba(209,72,89,0.85)" stroke="#d14859" stroke-width="0.8">
    <circle cx="-15" cy="-15" r="5"/>
    <circle cx="0" cy="-20" r="5"/>
    <circle cx="15" cy="-12" r="5"/>
    <circle cx="-20" cy="-2" r="5"/>
    <circle cx="-5" cy="5" r="5"/>
    <circle cx="10" cy="0" r="5"/>
    <circle cx="20" cy="10" r="5"/>
    <circle cx="-10" cy="18" r="5"/>
    <circle cx="5" cy="20" r="5"/>
  </g>
  <!-- Labels inside -->
  <text x="-15" y="-13" text-anchor="middle" style="fill:#0a0e1a;font:700 5.5px Inter,sans-serif">C5a</text>
  <text x="0" y="-18" text-anchor="middle" style="fill:#0a0e1a;font:700 5.5px Inter,sans-serif">C3a</text>
  <text x="15" y="-10" text-anchor="middle" style="fill:#0a0e1a;font:700 5.5px Inter,sans-serif">C5a</text>
  <text x="-20" y="0" text-anchor="middle" style="fill:#0a0e1a;font:700 5.5px Inter,sans-serif">C3a</text>
  <text x="-5" y="7" text-anchor="middle" style="fill:#0a0e1a;font:700 5.5px Inter,sans-serif">C5a</text>
  <text x="10" y="2" text-anchor="middle" style="fill:#0a0e1a;font:700 5.5px Inter,sans-serif">C3a</text>
</g>

<!-- Chemotaxis arrow → -->
<g stroke="#e8a951" stroke-width="2.4" fill="none" marker-end="url(#arr11_5_5a)" stroke-dasharray="3 2">
  <line x1="155" y1="145" x2="225" y2="145"/>
</g>
<defs>
  <marker id="arr11_5_5a" viewBox="0 0 10 10" refX="9" refY="5" markerWidth="7" markerHeight="7" orient="auto">
    <path d="M 0 0 L 10 5 L 0 10 z" fill="#e8a951"/>
  </marker>
</defs>
<text x="190" y="135" text-anchor="middle" style="fill:#e8a951;font:700 7px Inter,sans-serif;letter-spacing:1.2px">CHEMOTAXIS</text>

<!-- Neutrophils swarming the deposit -->
<g transform="translate(290 145)">
  <text x="0" y="-78" text-anchor="middle" style="fill:#9370b9;font:700 8.5px Inter,sans-serif;letter-spacing:1.2px">NEUTROPHIL SWARM</text>
  
  <!-- The deposit being attacked -->
  <ellipse cx="0" cy="0" rx="20" ry="12" fill="rgba(232,169,81,0.35)" stroke="#e8a951" stroke-width="1.4"/>
  
  <!-- Neutrophils with multilobed nuclei surrounding -->
  <g>
    <g transform="translate(-30 -20)">
      <circle cx="0" cy="0" r="9" fill="rgba(147,112,185,0.45)" stroke="#9370b9" stroke-width="1.2"/>
      <ellipse cx="-2" cy="-2" rx="2" ry="1.5" fill="#4a2d60"/>
      <ellipse cx="2" cy="-1" rx="2" ry="1.5" fill="#4a2d60"/>
      <ellipse cx="0" cy="3" rx="2" ry="1.5" fill="#4a2d60"/>
    </g>
    <g transform="translate(30 -18)">
      <circle cx="0" cy="0" r="9" fill="rgba(147,112,185,0.45)" stroke="#9370b9" stroke-width="1.2"/>
      <ellipse cx="-2" cy="-2" rx="2" ry="1.5" fill="#4a2d60"/>
      <ellipse cx="2" cy="-1" rx="2" ry="1.5" fill="#4a2d60"/>
      <ellipse cx="0" cy="3" rx="2" ry="1.5" fill="#4a2d60"/>
    </g>
    <g transform="translate(-32 18)">
      <circle cx="0" cy="0" r="9" fill="rgba(147,112,185,0.45)" stroke="#9370b9" stroke-width="1.2"/>
      <ellipse cx="-2" cy="-2" rx="2" ry="1.5" fill="#4a2d60"/>
      <ellipse cx="2" cy="-1" rx="2" ry="1.5" fill="#4a2d60"/>
      <ellipse cx="0" cy="3" rx="2" ry="1.5" fill="#4a2d60"/>
    </g>
    <g transform="translate(28 22)">
      <circle cx="0" cy="0" r="9" fill="rgba(147,112,185,0.45)" stroke="#9370b9" stroke-width="1.2"/>
      <ellipse cx="-2" cy="-2" rx="2" ry="1.5" fill="#4a2d60"/>
      <ellipse cx="2" cy="-1" rx="2" ry="1.5" fill="#4a2d60"/>
      <ellipse cx="0" cy="3" rx="2" ry="1.5" fill="#4a2d60"/>
    </g>
  </g>
  
  <!-- ROS/enzyme bursts -->
  <g stroke="#d14859" stroke-width="1.4" fill="none" stroke-linecap="round">
    <line x1="-20" y1="-12" x2="-12" y2="-5"/>
    <line x1="20" y1="-10" x2="12" y2="-3"/>
    <line x1="-20" y1="12" x2="-12" y2="5"/>
    <line x1="20" y1="14" x2="12" y2="7"/>
  </g>
  <text x="0" y="46" text-anchor="middle" style="fill:#d14859;font:700 6.5px Inter,sans-serif">ROS · enzymes · NETs</text>
</g>

<!-- Damage outcomes on right -->
<g transform="translate(440 100)">
  <rect x="-50" y="-15" width="100" height="30" rx="6" fill="rgba(209,72,89,0.25)" stroke="#d14859" stroke-width="1.4"/>
  <text x="0" y="-2" text-anchor="middle" style="fill:#d14859;font:700 7.5px Inter,sans-serif;letter-spacing:1.2px">PROLIF GN</text>
  <text x="0" y="9" text-anchor="middle" style="fill:#b4becf;font:6.5px Inter,sans-serif">endocapillary</text>
</g>
<g transform="translate(440 145)">
  <rect x="-50" y="-15" width="100" height="30" rx="6" fill="rgba(209,72,89,0.25)" stroke="#d14859" stroke-width="1.4"/>
  <text x="0" y="-2" text-anchor="middle" style="fill:#d14859;font:700 7.5px Inter,sans-serif;letter-spacing:1.2px">PROTEINURIA</text>
  <text x="0" y="9" text-anchor="middle" style="fill:#b4becf;font:6.5px Inter,sans-serif">leaky filter</text>
</g>
<g transform="translate(440 190)">
  <rect x="-50" y="-15" width="100" height="30" rx="6" fill="rgba(209,72,89,0.25)" stroke="#d14859" stroke-width="1.4"/>
  <text x="0" y="-2" text-anchor="middle" style="fill:#d14859;font:700 7.5px Inter,sans-serif;letter-spacing:1.2px">HEMATURIA</text>
  <text x="0" y="9" text-anchor="middle" style="fill:#b4becf;font:6.5px Inter,sans-serif">dysmorphic RBC</text>
</g>

<text x="250" y="245" text-anchor="middle" style="fill:#6b7689;font:italic 7.5px Fraunces,serif">Anaphylatoxins drive neutrophil chemotaxis · neutrophils damage glomerulus</text>

                  <!-- FOCUS · audio-aligned attention marker -->
                  <circle cx="0" cy="41" r="30" fill="none" stroke="#d14859" stroke-width="1.8" stroke-dasharray="3 2" opacity="0.85">
                    <animate attributeName="r" values="26;36;26" dur="2.4s" repeatCount="indefinite"/>
                    <animate attributeName="opacity" values="0.85;0.20;0.85" dur="2.4s" repeatCount="indefinite"/>
                  </circle>

                  <!-- FOCUS · audio-aligned attention marker -->
                  <circle cx="290" cy="62" r="24" fill="none" stroke="#d14859" stroke-width="1.8" stroke-dasharray="3 2" opacity="0.85">
                    <animate attributeName="r" values="20;30;20" dur="2.4s" repeatCount="indefinite"/>
                    <animate attributeName="opacity" values="0.85;0.20;0.85" dur="2.4s" repeatCount="indefinite"/>
                  </circle>

                  <!-- FOCUS · audio-aligned attention marker -->
                  <circle cx="95" cy="62" r="21" fill="none" stroke="#d14859" stroke-width="1.8" stroke-dasharray="3 2" opacity="0.85">
                    <animate attributeName="r" values="17;27;17" dur="2.4s" repeatCount="indefinite"/>
                    <animate attributeName="opacity" values="0.85;0.20;0.85" dur="2.4s" repeatCount="indefinite"/>
                  </circle>
              </svg>
