<?xml version="1.0" encoding="UTF-8"?>
<!--
  Auto-generated from the reference HTML by
  scripts/storymode-extraction/extract.mjs.
  Do not edit by hand — regenerate the file instead.
-->
<svg xmlns="http://www.w3.org/2000/svg" xmlns:xlink="http://www.w3.org/1999/xlink" viewBox="0 0 500 260" preserveAspectRatio="xMidYMid meet">
<text x="20" y="16" style="fill:#e8a951;font:600 9px Inter,sans-serif;letter-spacing:2px">STEP 02 · ATYPICAL LYMPHS + NEG MONOSPOT</text>

<!-- Smear with atypical lymphocytes -->
<g transform="translate(125 145)">
  <text x="0" y="-90" text-anchor="middle" style="fill:#9370b9;font:700 9px Inter,sans-serif;letter-spacing:1.5px">PERIPHERAL SMEAR</text>
  
  <!-- Microscope view -->
  <circle cx="0" cy="0" r="68" fill="rgba(245,235,225,0.95)" stroke="#3a4358" stroke-width="2"/>
  
  <!-- RBCs (smaller, biconcave) -->
  <g fill="rgba(209,72,89,0.55)" stroke="#a53343" stroke-width="0.6">
    <circle cx="-30" cy="-30" r="9"/>
    <circle cx="-30" cy="-30" r="3.5" fill="rgba(245,235,225,0.95)" stroke="none"/>
    <circle cx="25" cy="-25" r="9"/>
    <circle cx="25" cy="-25" r="3.5" fill="rgba(245,235,225,0.95)" stroke="none"/>
    <circle cx="-30" cy="30" r="9"/>
    <circle cx="-30" cy="30" r="3.5" fill="rgba(245,235,225,0.95)" stroke="none"/>
    <circle cx="30" cy="30" r="9"/>
    <circle cx="30" cy="30" r="3.5" fill="rgba(245,235,225,0.95)" stroke="none"/>
  </g>
  
  <!-- Atypical lymphs (large, irregular nucleus) -->
  <g>
    <ellipse cx="0" cy="-5" rx="14" ry="11" fill="rgba(147,112,185,0.65)" stroke="#9370b9" stroke-width="1"/>
    <path d="M -8 -8 Q -4 -10 -2 -6 Q 2 -2 6 -6 Q 10 -10 8 -2 Q 4 4 0 0 Q -4 -4 -8 -8" fill="rgba(74,45,96,0.85)"/>
    
    <ellipse cx="-5" cy="20" rx="13" ry="10" fill="rgba(147,112,185,0.65)" stroke="#9370b9" stroke-width="1"/>
    <path d="M -10 17 Q -7 15 -3 18 Q 0 21 4 17 Q 7 13 5 21 Q 0 24 -10 17" fill="rgba(74,45,96,0.85)"/>
  </g>
  
  <!-- Annotation -->
  <line x1="-13" y1="-5" x2="-30" y2="-50" stroke="#9370b9" stroke-width="1" stroke-dasharray="2 2"/>
  <text x="-30" y="-55" text-anchor="middle" style="fill:#9370b9;font:700 6.5px Inter,sans-serif">atypical lymph</text>
</g>

<!-- Test results on right -->
<g transform="translate(355 100)">
  <text x="0" y="-22" text-anchor="middle" style="fill:#9370b9;font:700 8.5px Inter,sans-serif;letter-spacing:1.2px">MONOSPOT TEST</text>
  
  <!-- Test card with NEG result -->
  <rect x="-65" y="-15" width="130" height="50" rx="5" fill="rgba(20,24,40,0.85)" stroke="#3a4358" stroke-width="1.4"/>
  <!-- Bands area -->
  <rect x="-50" y="-5" width="100" height="22" rx="2" fill="rgba(180,190,207,0.20)"/>
  <!-- Just one line (control), no test line = NEG -->
  <rect x="-45" y="-3" width="6" height="18" fill="#6cc27d"/>
  <text x="-42" y="29" text-anchor="middle" style="fill:#6cc27d;font:6px Inter,sans-serif">control</text>
  <!-- Empty test position -->
  <rect x="35" y="-3" width="6" height="18" fill="none" stroke="#6b7689" stroke-width="0.6" stroke-dasharray="2 1"/>
  <text x="38" y="29" text-anchor="middle" style="fill:#6b7689;font:6px Inter,sans-serif">test</text>
  
  <text x="0" y="50" text-anchor="middle" style="fill:#d14859;font:700 11px Inter,sans-serif;letter-spacing:1.5px">NEGATIVE</text>
</g>

<!-- Expand DDx -->
<g transform="translate(355 195)">
  <rect x="-100" y="-15" width="200" height="48" rx="6" fill="rgba(232,169,81,0.20)" stroke="#e8a951" stroke-width="1.4"/>
  <text x="0" y="-2" text-anchor="middle" style="fill:#e8a951;font:700 8.5px Inter,sans-serif;letter-spacing:1.2px">EXPAND DDx</text>
  <text x="0" y="9" text-anchor="middle" style="fill:#b4becf;font:6.5px Inter,sans-serif">HIV ARS · CMV · acute toxo</text>
  <text x="0" y="20" text-anchor="middle" style="fill:#b4becf;font:6.5px Inter,sans-serif">primary syphilis</text>
</g>

<text x="250" y="245" text-anchor="middle" style="fill:#6b7689;font:italic 7.5px Fraunces,serif">Mono-like syndrome + negative monospot = look for HIV ARS</text>

                  <!-- FOCUS · audio-aligned attention marker -->
                  <circle cx="355" cy="145" r="20" fill="none" stroke="#d14859" stroke-width="1.8" stroke-dasharray="3 2" opacity="0.85">
                    <animate attributeName="r" values="16;26;16" dur="2.4s" repeatCount="indefinite"/>
                    <animate attributeName="opacity" values="0.85;0.20;0.85" dur="2.4s" repeatCount="indefinite"/>
                  </circle>
</svg>
