<?xml version="1.0" encoding="UTF-8"?>
<!--
  Auto-generated from the reference HTML by
  scripts/storymode-extraction/extract.mjs.
  Do not edit by hand — regenerate the file instead.
-->
<svg xmlns="http://www.w3.org/2000/svg" xmlns:xlink="http://www.w3.org/1999/xlink" viewBox="0 0 500 260" preserveAspectRatio="xMidYMid meet">
<text x="20" y="16" style="fill:#e8a951;font:600 9px Inter,sans-serif;letter-spacing:2px">STEP 04 · MACROPHAGES + EOSINOPHILS · IL-1/IL-6/TNF + MBP/ECP</text><g opacity="1">
    <!-- early phase band -->
    <rect x="20" y="38" width="180" height="8" fill="#d14859" opacity="0.18"/>
    <!-- late phase band -->
    <rect x="200" y="38" width="280" height="8" fill="#9370b9" opacity="0.18"/>
    <!-- inline phase tags inside colored bands -->
    <text x="22" y="44.5" style="fill:#d14859;font:700 6px 'JetBrains Mono',monospace;letter-spacing:1.2px">EARLY ►</text>
    <text x="478" y="44.5" text-anchor="end" style="fill:#9370b9;font:700 6px 'JetBrains Mono',monospace;letter-spacing:1.2px">◄ LATE</text>
    <!-- axis baseline -->
    <line x1="20" y1="42" x2="480" y2="42" stroke="#3a4358" stroke-width="1" opacity="0.6"/>
    <!-- ticks + labels (above axis) -->
    <g style="font:6.5px 'JetBrains Mono',monospace;letter-spacing:1px;fill:#6b7689">
      <line x1="50"  y1="38" x2="50"  y2="46" stroke="#6b7689" stroke-width="0.8"/>
      <text x="50"  y="34" text-anchor="middle">TRIGGER</text>
      <line x1="110"  y1="38" x2="110"  y2="46" stroke="#6b7689" stroke-width="0.8"/>
      <text x="110"  y="34" text-anchor="middle">5 MIN</text>
      <line x1="200"  y1="38" x2="200"  y2="46" stroke="#6b7689" stroke-width="0.8"/>
      <text x="200"  y="34" text-anchor="middle">1 H</text>
      <line x1="320"    y1="38" x2="320"    y2="46" stroke="#6b7689" stroke-width="0.8"/>
      <text x="320"    y="34" text-anchor="middle">6 H</text>
      <line x1="430" y1="38" x2="430" y2="46" stroke="#6b7689" stroke-width="0.8"/>
      <text x="430" y="34" text-anchor="middle">12 H</text>
    </g>
    <!-- current marker -->
    <circle cx="380" cy="42" r="3.5" fill="#e8a951"/>
    <circle cx="380" cy="42" r="6" fill="#e8a951" opacity="0.3"/>
  </g><g opacity="1"><circle cx="250" cy="128" r="56" fill="none" stroke="#b4becf" stroke-width="0.8" opacity="0.4" stroke-dasharray="3 2"/><circle cx="250" cy="128" r="52" fill="#9370b9" fill-opacity="0.2" stroke="#9370b9" stroke-width="1.6"/><circle cx="250" cy="128" r="24" fill="#0a0e1a"/><circle cx="250" cy="128" r="24" fill="none" stroke="#9370b9" stroke-width="1" opacity="0.85"/><g>
      <circle cx="250" cy="128" r="20" fill="#e8a951" opacity="0.35"/>
      <text x="250" y="130" text-anchor="middle" style="fill:#e8a951;font:italic 7.5px Fraunces,serif">mucus</text>
    </g><text x="250" y="192" text-anchor="middle" style="fill:#9370b9;font:italic 8.5px Fraunces,serif">inflamed wall + mucus plug</text></g><g transform="translate(80 128)" opacity="1">
    <ellipse cx="0" cy="0" rx="18" ry="15" fill="#d14859" opacity="0.32" stroke="#d14859" stroke-width="1.4"/><g fill="#d14859" opacity="0.15">
    <circle cx="-7" cy="-2" r="1.6"/><circle cx="-2" cy="4" r="1.6"/>
    <circle cx="5" cy="-3" r="1.6"/><circle cx="8" cy="2" r="1.6"/>
    <circle cx="-8" cy="5" r="1.6"/><circle cx="0" cy="-7" r="1.6"/>
  </g><g transform="translate(-10 -17)">
      <rect x="-1" y="0" width="2" height="3" fill="#9370b9" opacity="0.95"/>
      <line x1="0" y1="0" x2="0" y2="-2" stroke="#e8a951" stroke-width="1.3"/>
      <line x1="0" y1="-2" x2="-3" y2="-6" stroke="#e8a951" stroke-width="1.3"/>
      <line x1="0" y1="-2" x2="3" y2="-6" stroke="#e8a951" stroke-width="1.3"/>
    </g><g transform="translate(0 -17)">
      <rect x="-1" y="0" width="2" height="3" fill="#9370b9" opacity="0.95"/>
      <line x1="0" y1="0" x2="0" y2="-2" stroke="#e8a951" stroke-width="1.3"/>
      <line x1="0" y1="-2" x2="-3" y2="-6" stroke="#e8a951" stroke-width="1.3"/>
      <line x1="0" y1="-2" x2="3" y2="-6" stroke="#e8a951" stroke-width="1.3"/>
    </g><g transform="translate(10 -17)">
      <rect x="-1" y="0" width="2" height="3" fill="#9370b9" opacity="0.95"/>
      <line x1="0" y1="0" x2="0" y2="-2" stroke="#e8a951" stroke-width="1.3"/>
      <line x1="0" y1="-2" x2="-3" y2="-6" stroke="#e8a951" stroke-width="1.3"/>
      <line x1="0" y1="-2" x2="3" y2="-6" stroke="#e8a951" stroke-width="1.3"/>
    </g><text x="0" y="28" text-anchor="middle" style="fill:#d14859;font:700 7px Inter,sans-serif;letter-spacing:1px">MAST CELL</text></g><g><g transform="translate(191.9762979464426 94.5)">
      <ellipse cx="0" cy="0" rx="6" ry="5" fill="#9370b9" opacity="0.4" stroke="#9370b9" stroke-width="0.9"/>
      <ellipse cx="-1.8" cy="0" rx="1.7" ry="2.2" fill="#9370b9" opacity="0.85"/>
      <ellipse cx="1.8" cy="0" rx="1.7" ry="2.2" fill="#9370b9" opacity="0.85"/>
      <circle cx="-3" cy="-3" r="0.6" fill="#9370b9"/>
      <circle cx="3" cy="-3" r="0.6" fill="#9370b9"/>
      <circle cx="-3" cy="3" r="0.6" fill="#9370b9"/>
    </g><g transform="translate(238.36557209631567 62.01788054818206)">
      <ellipse cx="0" cy="0" rx="6" ry="5" fill="#9370b9" opacity="0.4" stroke="#9370b9" stroke-width="0.9"/>
      <ellipse cx="-1.8" cy="0" rx="1.7" ry="2.2" fill="#9370b9" opacity="0.85"/>
      <ellipse cx="1.8" cy="0" rx="1.7" ry="2.2" fill="#9370b9" opacity="0.85"/>
      <circle cx="-3" cy="-3" r="0.6" fill="#9370b9"/>
      <circle cx="3" cy="-3" r="0.6" fill="#9370b9"/>
      <circle cx="-3" cy="3" r="0.6" fill="#9370b9"/>
    </g><g transform="translate(288.4296212355201 73.11681303263755)">
      <ellipse cx="0" cy="0" rx="6" ry="5" fill="#9370b9" opacity="0.4" stroke="#9370b9" stroke-width="0.9"/>
      <ellipse cx="-1.8" cy="0" rx="1.7" ry="2.2" fill="#9370b9" opacity="0.85"/>
      <ellipse cx="1.8" cy="0" rx="1.7" ry="2.2" fill="#9370b9" opacity="0.85"/>
      <circle cx="-3" cy="-3" r="0.6" fill="#9370b9"/>
      <circle cx="3" cy="-3" r="0.6" fill="#9370b9"/>
      <circle cx="-3" cy="3" r="0.6" fill="#9370b9"/>
    </g><g transform="translate(308.0237020535574 161.5)">
      <ellipse cx="0" cy="0" rx="6" ry="5" fill="#9370b9" opacity="0.4" stroke="#9370b9" stroke-width="0.9"/>
      <ellipse cx="-1.8" cy="0" rx="1.7" ry="2.2" fill="#9370b9" opacity="0.85"/>
      <ellipse cx="1.8" cy="0" rx="1.7" ry="2.2" fill="#9370b9" opacity="0.85"/>
      <circle cx="-3" cy="-3" r="0.6" fill="#9370b9"/>
      <circle cx="3" cy="-3" r="0.6" fill="#9370b9"/>
      <circle cx="-3" cy="3" r="0.6" fill="#9370b9"/>
    </g><g transform="translate(261.63442790368435 193.98211945181794)">
      <ellipse cx="0" cy="0" rx="6" ry="5" fill="#9370b9" opacity="0.4" stroke="#9370b9" stroke-width="0.9"/>
      <ellipse cx="-1.8" cy="0" rx="1.7" ry="2.2" fill="#9370b9" opacity="0.85"/>
      <ellipse cx="1.8" cy="0" rx="1.7" ry="2.2" fill="#9370b9" opacity="0.85"/>
      <circle cx="-3" cy="-3" r="0.6" fill="#9370b9"/>
      <circle cx="3" cy="-3" r="0.6" fill="#9370b9"/>
      <circle cx="-3" cy="3" r="0.6" fill="#9370b9"/>
    </g><g transform="translate(206.93323015100185 179.32497768897153)">
      <ellipse cx="0" cy="0" rx="6" ry="5" fill="#9370b9" opacity="0.4" stroke="#9370b9" stroke-width="0.9"/>
      <ellipse cx="-1.8" cy="0" rx="1.7" ry="2.2" fill="#9370b9" opacity="0.85"/>
      <ellipse cx="1.8" cy="0" rx="1.7" ry="2.2" fill="#9370b9" opacity="0.85"/>
      <circle cx="-3" cy="-3" r="0.6" fill="#9370b9"/>
      <circle cx="3" cy="-3" r="0.6" fill="#9370b9"/>
      <circle cx="-3" cy="3" r="0.6" fill="#9370b9"/>
    </g></g><g><g transform="translate(198.57699122507685 66.71644455048175)">
      <path d="M -9 -4 Q -11 0 -7 5 Q -2 9 4 7 Q 10 3 8 -2 Q 4 -9 -2 -8 Q -7 -9 -9 -4 Z" fill="#4fb8a8" opacity="0.5" stroke="#4fb8a8" stroke-width="0.9"/>
      <ellipse cx="-1" cy="0" rx="2.5" ry="1.7" fill="#2d8a7c" opacity="0.85"/>
    </g><g transform="translate(319.2820323027551 88)">
      <path d="M -9 -4 Q -11 0 -7 5 Q -2 9 4 7 Q 10 3 8 -2 Q 4 -9 -2 -8 Q -7 -9 -9 -4 Z" fill="#4fb8a8" opacity="0.5" stroke="#4fb8a8" stroke-width="0.9"/>
      <ellipse cx="-1" cy="0" rx="2.5" ry="1.7" fill="#2d8a7c" opacity="0.85"/>
    </g><g transform="translate(236.10814578664557 206.78462024097664)">
      <path d="M -9 -4 Q -11 0 -7 5 Q -2 9 4 7 Q 10 3 8 -2 Q 4 -9 -2 -8 Q -7 -9 -9 -4 Z" fill="#4fb8a8" opacity="0.5" stroke="#4fb8a8" stroke-width="0.9"/>
      <ellipse cx="-1" cy="0" rx="2.5" ry="1.7" fill="#2d8a7c" opacity="0.85"/>
    </g></g><g>
    <text x="170" y="180" text-anchor="end" style="fill:#e8a951;font:600 8px Inter,sans-serif">IL-1 · IL-6 · TNF-α</text>
    <text x="170" y="190" text-anchor="end" style="fill:#6b7689;font:italic 7.5px Fraunces,serif">sustained inflammation</text>
    <text x="330" y="180" style="fill:#e8a951;font:600 8px Inter,sans-serif">MBP · ECP</text>
    <text x="330" y="190" style="fill:#6b7689;font:italic 7.5px Fraunces,serif">epithelial toxins</text>
  </g>

                  <!-- FOCUS · audio-aligned attention marker -->
                  <circle cx="170" cy="175" r="28" fill="none" stroke="#d14859" stroke-width="1.8" stroke-dasharray="3 2" opacity="0.85">
                    <animate attributeName="r" values="24;34;24" dur="2.4s" repeatCount="indefinite"/>
                    <animate attributeName="opacity" values="0.85;0.20;0.85" dur="2.4s" repeatCount="indefinite"/>
                  </circle>
</svg>
