<?xml version="1.0" encoding="UTF-8"?>
<!--
  Auto-generated from the reference HTML by
  scripts/storymode-extraction/extract.mjs.
  Do not edit by hand — regenerate the file instead.
-->
<svg xmlns="http://www.w3.org/2000/svg" xmlns:xlink="http://www.w3.org/1999/xlink" viewBox="0 0 500 260" preserveAspectRatio="xMidYMid meet">
<text x="20" y="16" style="fill:#e8a951;font:600 9px Inter,sans-serif;letter-spacing:2px">STEP 04 · CHECK G6PD BEFORE PRIMAQUINE</text>

<!-- G6PD test result -->
<g transform="translate(135 145)">
  <text x="0" y="-100" text-anchor="middle" style="fill:#9370b9;font:700 9px Inter,sans-serif;letter-spacing:1.5px">G6PD ASSAY</text>
  
  <!-- Lab card -->
  <rect x="-65" y="-78" width="130" height="120" rx="6" fill="rgba(20,24,40,0.85)" stroke="#3a4358" stroke-width="1.4"/>
  <rect x="-65" y="-78" width="130" height="22" rx="6" fill="rgba(147,112,185,0.40)"/>
  <text x="0" y="-63" text-anchor="middle" style="fill:#9370b9;font:700 8px Inter,sans-serif;letter-spacing:1.5px">G6PD ENZYME</text>
  
  <!-- Reference range -->
  <text x="-55" y="-40" style="fill:#b4becf;font:700 7px Inter,sans-serif">REFERENCE</text>
  <rect x="-55" y="-30" width="110" height="6" rx="2" fill="#3a4358"/>
  <rect x="0" y="-30" width="55" height="6" rx="2" fill="rgba(108,194,125,0.65)"/>
  
  <!-- Patient -->
  <text x="-55" y="-5" style="fill:#b4becf;font:700 7px Inter,sans-serif">PATIENT</text>
  <rect x="-55" y="5" width="110" height="6" rx="2" fill="#3a4358"/>
  <rect x="-55" y="5" width="20" height="6" rx="2" fill="rgba(209,72,89,0.95)"/>
  <text x="-25" y="22" style="fill:#d14859;font:700 8px Inter,sans-serif">DEFICIENT</text>
</g>

<!-- Mechanism: oxidative hemolysis -->
<g transform="translate(365 145)">
  <text x="0" y="-100" text-anchor="middle" style="fill:#d14859;font:700 9px Inter,sans-serif;letter-spacing:1.5px">OXIDATIVE HEMOLYSIS</text>
  
  <!-- Heinz body RBC -->
  <g transform="translate(0 -45)">
    <circle cx="0" cy="0" r="22" fill="rgba(209,72,89,0.65)" stroke="#a53343" stroke-width="1.4"/>
    <circle cx="0" cy="0" r="9" fill="rgba(209,72,89,0.30)"/>
    <!-- Heinz body (denatured Hb) -->
    <circle cx="-12" cy="-8" r="3" fill="rgba(74,45,96,0.85)"/>
    <text x="-25" y="-5" text-anchor="end" style="fill:#9370b9;font:6px Inter,sans-serif">Heinz body</text>
  </g>
  
  <!-- Bite cell -->
  <g transform="translate(0 5)">
    <path d="M 0 -10 A 12 12 0 1 1 -8 8 L 0 8 L 0 -10" fill="rgba(209,72,89,0.65)" stroke="#a53343" stroke-width="1.4"/>
    <text x="-30" y="0" text-anchor="end" style="fill:#a53343;font:6px Inter,sans-serif">bite cell</text>
  </g>
  
  <!-- Hemolysis result -->
  <g transform="translate(0 45)">
    <rect x="-50" y="-13" width="100" height="26" rx="5" fill="rgba(209,72,89,0.30)" stroke="#d14859" stroke-width="1.4"/>
    <text x="0" y="3" text-anchor="middle" style="fill:#d14859;font:700 7.5px Inter,sans-serif">SEVERE HEMOLYSIS</text>
  </g>
</g>

<g transform="translate(250 220)">
  <rect x="-200" y="-13" width="400" height="26" rx="6" fill="rgba(232,169,81,0.30)" stroke="#e8a951" stroke-width="1.8"/>
  <text x="0" y="3" text-anchor="middle" style="fill:#e8a951;font:700 9px Inter,sans-serif;letter-spacing:1.5px">NEVER GIVE PRIMAQUINE EMPIRICALLY</text>
</g>

<text x="250" y="245" text-anchor="middle" style="fill:#6b7689;font:italic 7.5px Fraunces,serif">G6PD-deficient patients lack NADPH/glutathione defense against oxidative damage</text>

                  <!-- FOCUS · audio-aligned attention marker -->
                  <circle cx="220" cy="120" r="60" fill="none" stroke="#d14859" stroke-width="1.8" stroke-dasharray="3 2" opacity="0.85">
                    <animate attributeName="r" values="56;66;56" dur="2.4s" repeatCount="indefinite"/>
                    <animate attributeName="opacity" values="0.85;0.20;0.85" dur="2.4s" repeatCount="indefinite"/>
                  </circle>
</svg>
