<?xml version="1.0" encoding="UTF-8"?>
<!--
  Auto-generated from the reference HTML by
  scripts/storymode-extraction/extract.mjs.
  Do not edit by hand — regenerate the file instead.
-->
<svg xmlns="http://www.w3.org/2000/svg" xmlns:xlink="http://www.w3.org/1999/xlink" viewBox="0 0 500 260" preserveAspectRatio="xMidYMid meet">
<text x="20" y="16" style="fill:#e8a951;font:600 9px Inter,sans-serif;letter-spacing:2px">STEP 04 · NO THYMUS · NO T CELLS · CD3 ↓↓</text>

<!-- Normal vs DiGeorge anatomical comparison -->

<!-- NORMAL (left) -->
<g transform="translate(120 130)">
  <text x="0" y="-78" text-anchor="middle" style="fill:#6cc27d;font:700 9px Inter,sans-serif;letter-spacing:1.5px">NORMAL</text>
  
  <!-- Chest outline -->
  <path d="M -45 -55 Q -55 -40 -55 -10 L -55 50 L 55 50 L 55 -10 Q 55 -40 45 -55 Z" 
        fill="rgba(180,190,207,0.10)" stroke="#b4becf" stroke-width="1.4"/>
  
  <!-- Thymus (butterfly shape, anatomical position - upper anterior mediastinum) -->
  <g transform="translate(0 -25)">
    <path d="M -18 -8 Q -25 0 -18 12 Q -8 14 0 6 Q 8 14 18 12 Q 25 0 18 -8 Q 8 -12 0 -3 Q -8 -12 -18 -8 Z" 
          fill="rgba(79,184,168,0.55)" stroke="#4fb8a8" stroke-width="1.6"/>
    <text x="0" y="3" text-anchor="middle" style="fill:#0a0e1a;font:700 8px Inter,sans-serif">THYMUS</text>
  </g>
  
  <!-- T cells flowing out (multiple) -->
  <g>
    <circle cx="-25" cy="20" r="7" fill="rgba(108,194,125,0.85)" stroke="#6cc27d" stroke-width="1.2"/>
    <text x="-25" y="23" text-anchor="middle" style="fill:#0a0e1a;font:700 7px Inter,sans-serif">T</text>
    <circle cx="-5" cy="28" r="7" fill="rgba(108,194,125,0.85)" stroke="#6cc27d" stroke-width="1.2"/>
    <text x="-5" y="31" text-anchor="middle" style="fill:#0a0e1a;font:700 7px Inter,sans-serif">T</text>
    <circle cx="15" cy="22" r="7" fill="rgba(108,194,125,0.85)" stroke="#6cc27d" stroke-width="1.2"/>
    <text x="15" y="25" text-anchor="middle" style="fill:#0a0e1a;font:700 7px Inter,sans-serif">T</text>
    <circle cx="30" cy="35" r="7" fill="rgba(108,194,125,0.85)" stroke="#6cc27d" stroke-width="1.2"/>
    <text x="30" y="38" text-anchor="middle" style="fill:#0a0e1a;font:700 7px Inter,sans-serif">T</text>
  </g>
  
  <text x="0" y="68" text-anchor="middle" style="fill:#6cc27d;font:700 7.5px Inter,sans-serif;letter-spacing:1.2px">CD3+ T cells ✓</text>
</g>

<!-- Vertical separator -->
<line x1="250" y1="55" x2="250" y2="220" stroke="#3a4358" stroke-width="1" stroke-dasharray="3 3"/>

<!-- DiGeorge (right) -->
<g transform="translate(380 130)">
  <text x="0" y="-78" text-anchor="middle" style="fill:#d14859;font:700 9px Inter,sans-serif;letter-spacing:1.5px">DiGEORGE</text>
  
  <!-- Chest outline -->
  <path d="M -45 -55 Q -55 -40 -55 -10 L -55 50 L 55 50 L 55 -10 Q 55 -40 45 -55 Z" 
        fill="rgba(180,190,207,0.10)" stroke="#b4becf" stroke-width="1.4"/>
  
  <!-- Thymus ABSENT (faint outline + big X) -->
  <g transform="translate(0 -25)">
    <path d="M -18 -8 Q -25 0 -18 12 Q -8 14 0 6 Q 8 14 18 12 Q 25 0 18 -8 Q 8 -12 0 -3 Q -8 -12 -18 -8 Z" 
          fill="none" stroke="#4fb8a8" stroke-width="1.4" stroke-dasharray="2 2" opacity="0.4"/>
    <line x1="-22" y1="-12" x2="22" y2="14" stroke="#d14859" stroke-width="3" stroke-linecap="round"/>
    <line x1="-22" y1="14" x2="22" y2="-12" stroke="#d14859" stroke-width="3" stroke-linecap="round"/>
    <text x="0" y="30" text-anchor="middle" style="fill:#d14859;font:700 7.5px Inter,sans-serif">APLASIA</text>
  </g>
  
  <!-- No T cells (just empty space + X markers) -->
  <g>
    <g transform="translate(-25 35)">
      <circle r="7" fill="none" stroke="#6cc27d" stroke-width="1" opacity="0.3" stroke-dasharray="2 2"/>
      <line x1="-5" y1="-5" x2="5" y2="5" stroke="#d14859" stroke-width="1.6"/>
      <line x1="-5" y1="5" x2="5" y2="-5" stroke="#d14859" stroke-width="1.6"/>
    </g>
    <g transform="translate(15 30)">
      <circle r="7" fill="none" stroke="#6cc27d" stroke-width="1" opacity="0.3" stroke-dasharray="2 2"/>
      <line x1="-5" y1="-5" x2="5" y2="5" stroke="#d14859" stroke-width="1.6"/>
      <line x1="-5" y1="5" x2="5" y2="-5" stroke="#d14859" stroke-width="1.6"/>
    </g>
  </g>
  
  <text x="0" y="68" text-anchor="middle" style="fill:#d14859;font:700 7.5px Inter,sans-serif;letter-spacing:1.2px">CD3+ T cells ✗</text>
</g>

<!-- Lab finding banner at bottom -->
<g transform="translate(250 215)">
  <rect x="-110" y="-13" width="220" height="26" rx="6" fill="rgba(209,72,89,0.30)" stroke="#d14859" stroke-width="1.8"/>
  <text x="0" y="3" text-anchor="middle" style="fill:#d14859;font:700 9px Inter,sans-serif;letter-spacing:1.5px">FLOW · CD3 ↓↓ · B CELLS NORMAL</text>
</g>

<text x="250" y="245" text-anchor="middle" style="fill:#6b7689;font:italic 7.5px Fraunces,serif">T-cell precursors arrive but die · no thymic education = severe T-cell deficit</text>

                  <!-- FOCUS · audio-aligned attention marker -->
                  <circle cx="250" cy="213" r="40" fill="none" stroke="#d14859" stroke-width="1.8" stroke-dasharray="3 2" opacity="0.85">
                    <animate attributeName="r" values="36;46;36" dur="2.4s" repeatCount="indefinite"/>
                    <animate attributeName="opacity" values="0.85;0.20;0.85" dur="2.4s" repeatCount="indefinite"/>
                  </circle>

                  <!-- FOCUS · audio-aligned attention marker -->
                  <circle cx="0" cy="63" r="21" fill="none" stroke="#d14859" stroke-width="1.8" stroke-dasharray="3 2" opacity="0.85">
                    <animate attributeName="r" values="17;27;17" dur="2.4s" repeatCount="indefinite"/>
                    <animate attributeName="opacity" values="0.85;0.20;0.85" dur="2.4s" repeatCount="indefinite"/>
                  </circle>

                  <!-- FOCUS · audio-aligned attention marker -->
                  <circle cx="0" cy="63" r="21" fill="none" stroke="#d14859" stroke-width="1.8" stroke-dasharray="3 2" opacity="0.85">
                    <animate attributeName="r" values="17;27;17" dur="2.4s" repeatCount="indefinite"/>
                    <animate attributeName="opacity" values="0.85;0.20;0.85" dur="2.4s" repeatCount="indefinite"/>
                  </circle>
</svg>
