<?xml version="1.0" encoding="UTF-8"?>
<!--
  Auto-generated from the reference HTML by
  scripts/storymode-extraction/extract.mjs.
  Do not edit by hand — regenerate the file instead.
-->
<svg xmlns="http://www.w3.org/2000/svg" xmlns:xlink="http://www.w3.org/1999/xlink" viewBox="0 0 500 260" preserveAspectRatio="xMidYMid meet">
<text x="20" y="16" style="fill:#e8a951;font:600 9px Inter,sans-serif;letter-spacing:2px">STEP 10 · IgM HALLMARK · COMPLEMENT ACTIVATION</text>

<!-- IgM pentamer on left -->
<g transform="translate(135 145)">
  <text x="0" y="-72" text-anchor="middle" style="fill:#9370b9;font:700 9px Inter,sans-serif;letter-spacing:1.5px">IgM PENTAMER</text>
  
  <!-- 5 Y-shaped antibodies arranged radially -->
  <g stroke="#9370b9" stroke-width="2.6" fill="none" stroke-linecap="round" opacity="0.95">
    <g transform="rotate(0)">
      <line x1="0" y1="0" x2="0" y2="34"/>
      <path d="M -8 30 L 0 34 L 8 30"/>
    </g>
    <g transform="rotate(72)">
      <line x1="0" y1="0" x2="0" y2="34"/>
      <path d="M -8 30 L 0 34 L 8 30"/>
    </g>
    <g transform="rotate(144)">
      <line x1="0" y1="0" x2="0" y2="34"/>
      <path d="M -8 30 L 0 34 L 8 30"/>
    </g>
    <g transform="rotate(216)">
      <line x1="0" y1="0" x2="0" y2="34"/>
      <path d="M -8 30 L 0 34 L 8 30"/>
    </g>
    <g transform="rotate(288)">
      <line x1="0" y1="0" x2="0" y2="34"/>
      <path d="M -8 30 L 0 34 L 8 30"/>
    </g>
  </g>
  <!-- J chain center -->
  <circle cx="0" cy="0" r="8" fill="#e8a951" fill-opacity="0.95" stroke="#e8a951" stroke-width="1.6"/>
  <text x="0" y="58" text-anchor="middle" style="fill:#b4becf;font:italic 7.5px Fraunces,serif">10 binding sites</text>
</g>

<!-- Bridge to C1q -->
<g stroke="#e8a951" stroke-width="2" fill="none" marker-end="url(#arr8_7_10b)">
  <line x1="200" y1="145" x2="280" y2="145"/>
</g>
<defs>
  <marker id="arr8_7_10b" viewBox="0 0 10 10" refX="9" refY="5" markerWidth="7" markerHeight="7" orient="auto">
    <path d="M 0 0 L 10 5 L 0 10 z" fill="#e8a951"/>
  </marker>
</defs>
<text x="240" y="135" text-anchor="middle" style="fill:#e8a951;font:700 8.5px Inter,sans-serif;letter-spacing:1.2px">BINDS C1q</text>

<!-- Classical pathway cascade -->
<g transform="translate(380 145)">
  <text x="0" y="-72" text-anchor="middle" style="fill:#4fb8a8;font:700 9px Inter,sans-serif;letter-spacing:1.5px">CLASSICAL PATHWAY</text>
  
  <g transform="translate(0 -40)">
    <rect x="-55" y="-13" width="110" height="26" rx="6" fill="rgba(79,184,168,0.25)" stroke="#4fb8a8" stroke-width="1.4"/>
    <text x="0" y="3" text-anchor="middle" style="fill:#4fb8a8;font:700 9px Inter,sans-serif">C1 → C3</text>
  </g>
  <g transform="translate(0 -8)">
    <rect x="-55" y="-13" width="110" height="26" rx="6" fill="rgba(232,169,81,0.25)" stroke="#e8a951" stroke-width="1.4"/>
    <text x="0" y="3" text-anchor="middle" style="fill:#e8a951;font:700 9px Inter,sans-serif">OPSONIZE</text>
  </g>
  <g transform="translate(0 25)">
    <rect x="-55" y="-13" width="110" height="26" rx="6" fill="rgba(209,72,89,0.25)" stroke="#d14859" stroke-width="1.4"/>
    <text x="0" y="3" text-anchor="middle" style="fill:#d14859;font:700 9px Inter,sans-serif">C5b-9 MAC</text>
  </g>
</g>

<text x="250" y="240" text-anchor="middle" style="fill:#6b7689;font:italic 7.5px Fraunces,serif">Pentameric IgM is the most efficient C1q activator</text>

                  <!-- FOCUS · audio-aligned attention marker -->
                  <circle cx="135" cy="68" r="20" fill="none" stroke="#d14859" stroke-width="1.8" stroke-dasharray="3 2" opacity="0.85">
                    <animate attributeName="r" values="16;26;16" dur="2.4s" repeatCount="indefinite"/>
                    <animate attributeName="opacity" values="0.85;0.20;0.85" dur="2.4s" repeatCount="indefinite"/>
                  </circle>

                  <!-- FOCUS · audio-aligned attention marker -->
                  <circle cx="380" cy="103" r="20" fill="none" stroke="#d14859" stroke-width="1.8" stroke-dasharray="3 2" opacity="0.85">
                    <animate attributeName="r" values="16;26;16" dur="2.4s" repeatCount="indefinite"/>
                    <animate attributeName="opacity" values="0.85;0.20;0.85" dur="2.4s" repeatCount="indefinite"/>
                  </circle>

                  <!-- FOCUS · audio-aligned attention marker -->
                  <circle cx="380" cy="168" r="20" fill="none" stroke="#d14859" stroke-width="1.8" stroke-dasharray="3 2" opacity="0.85">
                    <animate attributeName="r" values="16;26;16" dur="2.4s" repeatCount="indefinite"/>
                    <animate attributeName="opacity" values="0.85;0.20;0.85" dur="2.4s" repeatCount="indefinite"/>
                  </circle>
</svg>
