<?xml version="1.0" encoding="UTF-8"?>
<!--
  Auto-generated from the reference HTML by
  scripts/storymode-extraction/extract.mjs.
  Do not edit by hand — regenerate the file instead.
-->
<svg xmlns="http://www.w3.org/2000/svg" xmlns:xlink="http://www.w3.org/1999/xlink" viewBox="0 0 500 260" preserveAspectRatio="xMidYMid meet">
                  <text x="20" y="22" style="fill:#e8a951;font:600 10px Inter,sans-serif;letter-spacing:2px">STEP 04 · OUTER MEMBRANE · HARD TO PENETRATE</text>

                  <g opacity="1"><ellipse cx="96" cy="145" rx="22" ry="26" fill="#d14859" fill-opacity="0.55" stroke="#d14859" stroke-width="1.8"></ellipse><ellipse cx="124" cy="145" rx="22" ry="26" fill="#d14859" fill-opacity="0.55" stroke="#d14859" stroke-width="1.8"></ellipse></g><text x="110" y="200" text-anchor="middle" style="fill:#d14859;font:600 9px Inter,sans-serif;letter-spacing:1.2px">NEISSERIA</text><text x="110" y="213" text-anchor="middle" style="fill:#b4becf;font:italic 8px Fraunces,serif">gram-negative diplococcus</text>
                    <line x1="200" y1="155" x2="470" y2="155" stroke="#e8a951" stroke-width="2" opacity="0.75"></line>
                    <line x1="200" y1="175" x2="470" y2="175" stroke="#e8a951" stroke-width="2" opacity="0.75"></line>
                    <rect x="200" y="155" width="270" height="20" fill="#e8a951" fill-opacity="0.10"></rect>
                  <text x="205" y="100" style="fill:#b4becf;font:600 7px Inter,sans-serif;letter-spacing:1.5px">EXTRACELLULAR</text><text x="205" y="200" style="fill:#b4becf;font:600 7px Inter,sans-serif;letter-spacing:1.5px">BACTERIAL INTERIOR</text>
                    <g transform="translate(245 130)" stroke="#e8a951" stroke-width="1.5" fill="none" opacity="0.85" stroke-linecap="round">
                      <path d="M -7 6 L -2 0 L 2 0 L 7 6"></path>
                      <path d="M 0 0 L 0 -10"></path>
                    </g>
  
                    <g transform="translate(295 122)" stroke="#e8a951" stroke-width="1.5" fill="none" opacity="0.85" stroke-linecap="round">
                      <path d="M -7 6 L -2 0 L 2 0 L 7 6"></path>
                      <path d="M 0 0 L 0 -10"></path>
                    </g>
  
                    <g transform="translate(355 128)" stroke="#e8a951" stroke-width="1.5" fill="none" opacity="0.85" stroke-linecap="round">
                      <path d="M -7 6 L -2 0 L 2 0 L 7 6"></path>
                      <path d="M 0 0 L 0 -10"></path>
                    </g>
  
                    <g transform="translate(415 124)" stroke="#e8a951" stroke-width="1.5" fill="none" opacity="0.85" stroke-linecap="round">
                      <path d="M -7 6 L -2 0 L 2 0 L 7 6"></path>
                      <path d="M 0 0 L 0 -10"></path>
                    </g>
  
                      <g transform="translate(335 128)" opacity="0.85">
                        <line x1="-50" y1="-12" x2="50" y2="12" stroke="#d14859" stroke-width="2.4" stroke-linecap="round"></line>
                        <line x1="-50" y1="12" x2="50" y2="-12" stroke="#d14859" stroke-width="2.4" stroke-linecap="round"></line>
                      </g>
                      <text x="400" y="85" text-anchor="end" style="fill:#d14859;font:600 7px Inter,sans-serif;letter-spacing:1.5px">ANTIBODIES BOUNCE OFF</text>
    

                  <text x="250" y="252" text-anchor="middle" style="fill:#b4becf;font:italic 10px Fraunces,serif">antibodies and phagocytes alone struggle · the membrane is a barrier</text>

                  <!-- FOCUS · audio-aligned attention marker -->
                  <circle cx="206" cy="155" r="60" fill="none" stroke="#d14859" stroke-width="1.8" stroke-dasharray="3 2" opacity="0.85">
                    <animate attributeName="r" values="56;66;56" dur="2.4s" repeatCount="indefinite"/>
                    <animate attributeName="opacity" values="0.85;0.20;0.85" dur="2.4s" repeatCount="indefinite"/>
                  </circle>
</svg>
