<?xml version="1.0" encoding="UTF-8"?>
<!--
  Auto-generated from the reference HTML by
  scripts/storymode-extraction/extract.mjs.
  Do not edit by hand — regenerate the file instead.
-->
<svg xmlns="http://www.w3.org/2000/svg" xmlns:xlink="http://www.w3.org/1999/xlink" viewBox="0 0 500 260" preserveAspectRatio="xMidYMid meet">
<text x="20" y="16" style="fill:#e8a951;font:600 9px Inter,sans-serif;letter-spacing:2px">STEP 03 · REPETITIVE EPITOPES CROSSLINK BCRs</text>

<!-- Polysaccharide chain at top with many identical sugars -->
<g transform="translate(250 75)">
  <line x1="-160" y1="0" x2="160" y2="0" stroke="#4fb8a8" stroke-width="2.5" opacity="0.7"/>
  <g fill="#4fb8a8" fill-opacity="0.95" stroke="#4fb8a8" stroke-width="1.4">
    <circle cx="-150" cy="0" r="7"/>
    <circle cx="-125" cy="0" r="7"/>
    <circle cx="-100" cy="0" r="7"/>
    <circle cx="-75" cy="0" r="7"/>
    <circle cx="-50" cy="0" r="7"/>
    <circle cx="-25" cy="0" r="7"/>
    <circle cx="0" cy="0" r="7"/>
    <circle cx="25" cy="0" r="7"/>
    <circle cx="50" cy="0" r="7"/>
    <circle cx="75" cy="0" r="7"/>
    <circle cx="100" cy="0" r="7"/>
    <circle cx="125" cy="0" r="7"/>
    <circle cx="150" cy="0" r="7"/>
  </g>
  <text x="0" y="-15" text-anchor="middle" style="fill:#4fb8a8;font:700 8.5px Inter,sans-serif;letter-spacing:1.5px">REPEATING POLYSACCHARIDE</text>
</g>

<!-- B cell with multiple BCRs -->
<g transform="translate(250 175)">
  <circle cx="0" cy="0" r="44" fill="rgba(147,112,185,0.30)" stroke="#9370b9" stroke-width="2"/>
  <ellipse cx="-3" cy="3" rx="12" ry="9" fill="#4a2d60" opacity="0.7"/>
  <text x="0" y="60" text-anchor="middle" style="fill:#9370b9;font:700 9px Inter,sans-serif;letter-spacing:1.2px">B CELL</text>
  
  <!-- BCRs along the top edge (Y-shaped) -->
  <g stroke="#e8a951" stroke-width="2" fill="none" stroke-linecap="round">
    <g transform="translate(-32 -36)">
      <line x1="0" y1="0" x2="0" y2="-8"/>
      <line x1="-4" y1="-12" x2="0" y2="-8"/>
      <line x1="4" y1="-12" x2="0" y2="-8"/>
    </g>
    <g transform="translate(-16 -42)">
      <line x1="0" y1="0" x2="0" y2="-8"/>
      <line x1="-4" y1="-12" x2="0" y2="-8"/>
      <line x1="4" y1="-12" x2="0" y2="-8"/>
    </g>
    <g transform="translate(0 -44)">
      <line x1="0" y1="0" x2="0" y2="-8"/>
      <line x1="-4" y1="-12" x2="0" y2="-8"/>
      <line x1="4" y1="-12" x2="0" y2="-8"/>
    </g>
    <g transform="translate(16 -42)">
      <line x1="0" y1="0" x2="0" y2="-8"/>
      <line x1="-4" y1="-12" x2="0" y2="-8"/>
      <line x1="4" y1="-12" x2="0" y2="-8"/>
    </g>
    <g transform="translate(32 -36)">
      <line x1="0" y1="0" x2="0" y2="-8"/>
      <line x1="-4" y1="-12" x2="0" y2="-8"/>
      <line x1="4" y1="-12" x2="0" y2="-8"/>
    </g>
  </g>
  
  <!-- Crosslink dashed lines from BCRs up to polysaccharide -->
  <g stroke="#e8a951" stroke-width="1.4" stroke-dasharray="3 2" opacity="0.85" fill="none">
    <line x1="-32" y1="-48" x2="-50" y2="-95"/>
    <line x1="-16" y1="-54" x2="-25" y2="-95"/>
    <line x1="0" y1="-56" x2="0" y2="-95"/>
    <line x1="16" y1="-54" x2="25" y2="-95"/>
    <line x1="32" y1="-48" x2="50" y2="-95"/>
  </g>
</g>

<!-- "no T cell needed" badge -->
<g transform="translate(420 175)">
  <rect x="-55" y="-15" width="110" height="30" rx="6" fill="rgba(108,194,125,0.25)" stroke="#6cc27d" stroke-width="1.6"/>
  <text x="0" y="-2" text-anchor="middle" style="fill:#6cc27d;font:700 8px Inter,sans-serif;letter-spacing:1.2px">NO T CELL</text>
  <text x="0" y="11" text-anchor="middle" style="fill:#b4becf;font:italic 7px Fraunces,serif">crosslink alone</text>
</g>

<text x="250" y="245" text-anchor="middle" style="fill:#6b7689;font:italic 7.5px Fraunces,serif">Many identical sugars engage many BCRs at once · enough signal for IgM</text>

                  <!-- FOCUS · audio-aligned attention marker -->
                  <circle cx="335" cy="158" r="60" fill="none" stroke="#d14859" stroke-width="1.8" stroke-dasharray="3 2" opacity="0.85">
                    <animate attributeName="r" values="56;66;56" dur="2.4s" repeatCount="indefinite"/>
                    <animate attributeName="opacity" values="0.85;0.20;0.85" dur="2.4s" repeatCount="indefinite"/>
                  </circle>
</svg>
