<?xml version="1.0" encoding="UTF-8"?>
<!--
  Auto-generated from the reference HTML by
  scripts/storymode-extraction/extract.mjs.
  Do not edit by hand — regenerate the file instead.
-->
<svg xmlns="http://www.w3.org/2000/svg" xmlns:xlink="http://www.w3.org/1999/xlink" viewBox="0 0 500 260" preserveAspectRatio="xMidYMid meet">
                  <text x="20" y="16" style="fill:#e8a951;font:600 9px Inter,sans-serif;letter-spacing:2px">STEP 04 · CROSSLINK → DEGRANULATION → ANAPHYLAXIS</text>

                  <!-- Donor IgA arriving on left -->
                  <g transform="translate(75 100)">
                    <text x="0" y="-25" text-anchor="middle" style="fill:#4fb8a8;font:700 8px Inter,sans-serif;letter-spacing:1.5px">DONOR IgA</text>
                    <g transform="translate(0 0) scale(1.4)" opacity="1"><g stroke="#4fb8a8" stroke-width="2" fill="none" stroke-linecap="round"><g transform="translate(-9 0)"><path d="M -5 -5 L -1 0 L 1 0 L 5 -5"></path><line x1="0" y1="0" x2="0" y2="6"></line></g><g transform="translate(9 0) scale(-1 1)"><path d="M -5 -5 L -1 0 L 1 0 L 5 -5"></path><line x1="0" y1="0" x2="0" y2="6"></line></g></g><rect x="-3" y="4" width="6" height="3" rx="0.5" fill="#9370b9" opacity="0.95"></rect></g>
                    <g transform="translate(-15 18) scale(1.2)" opacity="1"><g stroke="#4fb8a8" stroke-width="2" fill="none" stroke-linecap="round"><g transform="translate(-9 0)"><path d="M -5 -5 L -1 0 L 1 0 L 5 -5"></path><line x1="0" y1="0" x2="0" y2="6"></line></g><g transform="translate(9 0) scale(-1 1)"><path d="M -5 -5 L -1 0 L 1 0 L 5 -5"></path><line x1="0" y1="0" x2="0" y2="6"></line></g></g><rect x="-3" y="4" width="6" height="3" rx="0.5" fill="#9370b9" opacity="0.95"></rect></g>
                    <g transform="translate(15 18) scale(1.2)" opacity="1"><g stroke="#4fb8a8" stroke-width="2" fill="none" stroke-linecap="round"><g transform="translate(-9 0)"><path d="M -5 -5 L -1 0 L 1 0 L 5 -5"></path><line x1="0" y1="0" x2="0" y2="6"></line></g><g transform="translate(9 0) scale(-1 1)"><path d="M -5 -5 L -1 0 L 1 0 L 5 -5"></path><line x1="0" y1="0" x2="0" y2="6"></line></g></g><rect x="-3" y="4" width="6" height="3" rx="0.5" fill="#9370b9" opacity="0.95"></rect></g>
                  </g>

                  <!-- Arrow → mast cell -->
                  <path d="M 110 150 L 145 150" stroke="#e8a951" stroke-width="1.6" fill="none"></path>
                  <polygon points="145,150 138,146 138,154" fill="#e8a951"></polygon>

                  <!-- Mast cell DEGRANULATING -->
                  <g transform="translate(225 150)">
                    <g transform="translate(0 0)" opacity="1"><circle cx="0" cy="0" r="38" fill="#d14859" fill-opacity="0.30" stroke="#d14859" stroke-width="1.6"></circle><ellipse cx="-3" cy="-2" rx="8.36" ry="6.84" fill="#4a2d60" fill-opacity="0.7"></ellipse><g fill="#9370b9" fill-opacity="0.6"><circle cx="-5" cy="3" r="2"></circle><circle cx="6" cy="-3" r="2"></circle></g><g fill="#9370b9" fill-opacity="0.95"><circle cx="-46" cy="-8" r="2.3"></circle><circle cx="-43" cy="12" r="2.3"></circle><circle cx="46" cy="-10" r="2.3"></circle><circle cx="43" cy="12" r="2.3"></circle><circle cx="-12" cy="-46" r="2.3"></circle><circle cx="12" cy="-43" r="2.3"></circle><circle cx="-15" cy="46" r="2.3"></circle><circle cx="10" cy="48" r="2.3"></circle><circle cx="-50" cy="0" r="2.3"></circle><circle cx="50" cy="-2" r="2.3"></circle><circle cx="0" cy="-50" r="2.3"></circle><circle cx="-3" cy="51" r="2.3"></circle></g><rect x="-3" y="-41" width="6" height="6" fill="#6b7689" stroke="#6b7689" stroke-width="0.8" transform="rotate(0 2.326828918379971e-15 -38)"></rect><line x1="0" y1="-38" x2="0" y2="-46.4" stroke="#e8a951" stroke-width="2.2" stroke-linecap="round"></line><line x1="0" y1="-46.4" x2="-22" y2="-47.1" stroke="#e8a951" stroke-width="2.2" stroke-linecap="round"></line><line x1="0" y1="-46.4" x2="22" y2="-47.1" stroke="#e8a951" stroke-width="2.2" stroke-linecap="round"></line><rect x="21.4" y="-32.1" width="6" height="6" fill="#6b7689" stroke="#6b7689" stroke-width="0.8" transform="rotate(40 24.425929168088494 -29.109688838521166)"></rect><line x1="24.4" y1="-29.1" x2="29.8" y2="-35.5" stroke="#e8a951" stroke-width="2.2" stroke-linecap="round"></line><line x1="29.8" y1="-35.5" x2="13.5" y2="-50.2" stroke="#e8a951" stroke-width="2.2" stroke-linecap="round"></line><line x1="29.8" y1="-35.5" x2="47.1" y2="-22" stroke="#e8a951" stroke-width="2.2" stroke-linecap="round"></line><rect x="-27.4" y="-32.1" width="6" height="6" fill="#6b7689" stroke="#6b7689" stroke-width="0.8" transform="rotate(-40 -24.425929168088494 -29.109688838521166)"></rect><line x1="-24.4" y1="-29.1" x2="-29.8" y2="-35.5" stroke="#e8a951" stroke-width="2.2" stroke-linecap="round"></line><line x1="-29.8" y1="-35.5" x2="-47.1" y2="-22" stroke="#e8a951" stroke-width="2.2" stroke-linecap="round"></line><line x1="-29.8" y1="-35.5" x2="-13.5" y2="-50.2" stroke="#e8a951" stroke-width="2.2" stroke-linecap="round"></line><rect x="21.4" y="26.1" width="6" height="6" fill="#6b7689" stroke="#6b7689" stroke-width="0.8" transform="rotate(140 24.425929168088494 29.109688838521166)"></rect><line x1="24.4" y1="29.1" x2="29.8" y2="35.5" stroke="#e8a951" stroke-width="2.2" stroke-linecap="round"></line><line x1="29.8" y1="35.5" x2="47.1" y2="22" stroke="#e8a951" stroke-width="2.2" stroke-linecap="round"></line><line x1="29.8" y1="35.5" x2="13.5" y2="50.2" stroke="#e8a951" stroke-width="2.2" stroke-linecap="round"></line><rect x="-27.4" y="26.1" width="6" height="6" fill="#6b7689" stroke="#6b7689" stroke-width="0.8" transform="rotate(220 -24.425929168088494 29.109688838521166)"></rect><line x1="-24.4" y1="29.1" x2="-29.8" y2="35.5" stroke="#e8a951" stroke-width="2.2" stroke-linecap="round"></line><line x1="-29.8" y1="35.5" x2="-13.5" y2="50.2" stroke="#e8a951" stroke-width="2.2" stroke-linecap="round"></line><line x1="-29.8" y1="35.5" x2="-47.1" y2="22" stroke="#e8a951" stroke-width="2.2" stroke-linecap="round"></line></g>
                    <text x="0" y="68" text-anchor="middle" style="fill:#d14859;font:700 9px Inter,sans-serif;letter-spacing:1.5px">DEGRANULATION</text>
                  </g>

                  <!-- Released mediators on right -->
                  <g transform="translate(390 145)" font-family="Inter,sans-serif">
                    <text x="0" y="-50" text-anchor="middle" style="fill:#9370b9;font:700 8px Inter,sans-serif;letter-spacing:1.5px">MEDIATORS</text>
                    <g transform="translate(0 -28)">
<rect x="-50" y="-9" width="100" height="18" rx="9" fill="#9370b9" fill-opacity="0.25" stroke="#9370b9" stroke-width="1.2"></rect>
<text x="0" y="3" text-anchor="middle" style="fill:#9370b9;font:600 7px Inter,sans-serif;letter-spacing:1.2px">HISTAMINE</text>
                    </g>
                    <g transform="translate(0 -5)">
<rect x="-50" y="-9" width="100" height="18" rx="9" fill="#9370b9" fill-opacity="0.25" stroke="#9370b9" stroke-width="1.2"></rect>
<text x="0" y="3" text-anchor="middle" style="fill:#9370b9;font:600 7px Inter,sans-serif;letter-spacing:1.2px">TRYPTASE</text>
                    </g>
                    <g transform="translate(0 18)">
<rect x="-50" y="-9" width="100" height="18" rx="9" fill="#9370b9" fill-opacity="0.25" stroke="#9370b9" stroke-width="1.2"></rect>
<text x="0" y="3" text-anchor="middle" style="fill:#9370b9;font:600 7px Inter,sans-serif;letter-spacing:1.2px">LEUKOTRIENES</text>
                    </g>
                    <g transform="translate(0 50)">
<rect x="-55" y="-15" width="110" height="30" rx="6" fill="#d14859" fill-opacity="0.25" stroke="#d14859" stroke-width="1.5"></rect>
<text x="0" y="-2" text-anchor="middle" style="fill:#d14859;font:700 8px Inter,sans-serif;letter-spacing:1.2px">ANAPHYLAXIS</text>
<text x="0" y="10" text-anchor="middle" style="fill:#b4becf;font:italic 6px Fraunces,serif">vasodilation · bronchospasm</text>
                    </g>
                  </g>

                  <text x="250" y="245" text-anchor="middle" style="fill:#b4becf;font:italic 7.5px Fraunces,serif">donor IgA bridges adjacent FcεRI-bound IgE molecules · cell dumps preformed mediators</text>

                  <!-- FOCUS · audio-aligned attention marker -->
                  <circle cx="330" cy="147" r="60" fill="none" stroke="#d14859" stroke-width="1.8" stroke-dasharray="3 2" opacity="0.85">
                    <animate attributeName="r" values="56;66;56" dur="2.4s" repeatCount="indefinite"/>
                    <animate attributeName="opacity" values="0.85;0.20;0.85" dur="2.4s" repeatCount="indefinite"/>
                  </circle>
</svg>
