<?xml version="1.0" encoding="UTF-8"?>
<!--
  Auto-generated from the reference HTML by
  scripts/storymode-extraction/extract.mjs.
  Do not edit by hand — regenerate the file instead.
-->
<svg xmlns="http://www.w3.org/2000/svg" xmlns:xlink="http://www.w3.org/1999/xlink" viewBox="0 0 500 260" preserveAspectRatio="xMidYMid meet">
<text x="20" y="16" style="fill:#e8a951;font:600 9px Inter,sans-serif;letter-spacing:2px">STEP 02 · FQ · GYRASE + TOPO IV BLOCK</text>

<g transform="translate(135 130)">
  <text x="0" y="-78" text-anchor="middle" style="fill:#6cc27d;font:700 9px Inter,sans-serif;letter-spacing:1.5px">DNA GYRASE (TOPO II)</text>
  <g stroke="#9370b9" stroke-width="1.6" fill="none">
    <path d="M -50 -10 Q -45 -5 -40 -10 Q -35 -15 -30 -10 Q -25 -5 -20 -10"/>
    <path d="M -50 -5 Q -45 0 -40 -5 Q -35 -10 -30 -5 Q -25 0 -20 -5"/>
    <path d="M -50 0 Q -45 5 -40 0 Q -35 -5 -30 0 Q -25 5 -20 0"/>
  </g>
  <ellipse cx="0" cy="-3" rx="15" ry="11" fill="rgba(108,194,125,0.85)" stroke="#6cc27d" stroke-width="1.4"/>
  <text x="0" y="0" text-anchor="middle" style="fill:#fff;font:700 7px Inter,sans-serif">GYRASE</text>
  <line x1="20" y1="-3" x2="50" y2="-3" stroke="#9370b9" stroke-width="1.6"/>
  <text x="0" y="22" text-anchor="middle" style="fill:#b4becf;font:6.5px Inter,sans-serif">manages supercoiling</text>
</g>

<g transform="translate(365 130)">
  <text x="0" y="-78" text-anchor="middle" style="fill:#d14859;font:700 9px Inter,sans-serif;letter-spacing:1.5px">+ FLUOROQUINOLONE</text>
  <ellipse cx="0" cy="-3" rx="15" ry="11" fill="rgba(108,194,125,0.45)" stroke="#6cc27d" stroke-width="1.2"/>
  <rect x="-7" y="-7" width="14" height="8" rx="2" fill="rgba(232,169,81,0.85)" stroke="#e8a951" stroke-width="1"/>
  <text x="0" y="0" text-anchor="middle" style="fill:#0a0e1a;font:700 5px Inter,sans-serif">FQ</text>
  <line x1="-50" y1="-3" x2="-22" y2="-3" stroke="#9370b9" stroke-width="1.6"/>
  <line x1="22" y1="-3" x2="50" y2="-3" stroke="#9370b9" stroke-width="1.6"/>
  <line x1="-25" y1="-8" x2="-19" y2="2" stroke="#d14859" stroke-width="2.4" stroke-linecap="round"/>
  <line x1="-25" y1="2" x2="-19" y2="-8" stroke="#d14859" stroke-width="2.4" stroke-linecap="round"/>
  <line x1="19" y1="-8" x2="25" y2="2" stroke="#d14859" stroke-width="2.4" stroke-linecap="round"/>
  <line x1="19" y1="2" x2="25" y2="-8" stroke="#d14859" stroke-width="2.4" stroke-linecap="round"/>
  <text x="0" y="22" text-anchor="middle" style="fill:#d14859;font:700 7px Inter,sans-serif">DNA FRAGMENTATION</text>
</g>

<g transform="translate(250 215)">
  <rect x="-200" y="-13" width="400" height="26" rx="6" fill="rgba(209,72,89,0.30)" stroke="#d14859" stroke-width="1.6"/>
  <text x="0" y="3" text-anchor="middle" style="fill:#d14859;font:700 9px Inter,sans-serif;letter-spacing:1.2px">BACTERICIDAL · CONCENTRATION-DEPENDENT</text>
</g>

<text x="250" y="245" text-anchor="middle" style="fill:#6b7689;font:italic 7.5px Fraunces,serif">FQ traps gyrase + topo IV on DNA · halts replication and triggers double-strand breaks</text>

                  <!-- FOCUS · audio-aligned attention marker -->
                  <circle cx="365" cy="47" r="26" fill="none" stroke="#d14859" stroke-width="1.8" stroke-dasharray="3 2" opacity="0.85">
                    <animate attributeName="r" values="22;32;22" dur="2.4s" repeatCount="indefinite"/>
                    <animate attributeName="opacity" values="0.85;0.20;0.85" dur="2.4s" repeatCount="indefinite"/>
                  </circle>

                  <!-- FOCUS · audio-aligned attention marker -->
                  <circle cx="365" cy="125" r="20" fill="none" stroke="#d14859" stroke-width="1.8" stroke-dasharray="3 2" opacity="0.85">
                    <animate attributeName="r" values="16;26;16" dur="2.4s" repeatCount="indefinite"/>
                    <animate attributeName="opacity" values="0.85;0.20;0.85" dur="2.4s" repeatCount="indefinite"/>
                  </circle>
</svg>
