<?xml version="1.0" encoding="UTF-8"?>
<!--
  Auto-generated from the reference HTML by
  scripts/storymode-extraction/extract.mjs.
  Do not edit by hand — regenerate the file instead.
-->
<svg xmlns="http://www.w3.org/2000/svg" xmlns:xlink="http://www.w3.org/1999/xlink" viewBox="0 0 500 260" preserveAspectRatio="xMidYMid meet">
                  <text x="20" y="22" style="fill:#e8a951;font:600 10px Inter,sans-serif;letter-spacing:2px">STEP 12 · LEGIONELLA KILLED IN ITS HIDEOUT</text>

                  <g opacity="1"><circle cx="140" cy="145" r="50" fill="#9370b9" fill-opacity="0.30" stroke="#9370b9" stroke-width="1.8"></circle><path d="M 110 130 Q 105 140 110 155 Q 120 165 135 160 Q 130 145 135 130 Q 120 122 110 130 Z" fill="#4a2d60" opacity="0.70"></path>
                      <g fill="#6b7689" opacity="0.5">
                        <circle cx="160" cy="138" r="2"></circle>
                        <circle cx="166" cy="160" r="2"></circle>
                        <circle cx="158" cy="172" r="2"></circle>
                        <circle cx="148" cy="180" r="2"></circle>
                      </g>
    
                      <g transform="translate(190 130) rotate(90)">
                        <path d="M -12 0 L 12 0 L 14 8 L 7 8 L 5 4 L -5 4 L -7 8 L -14 8 Z" fill="#4fb8a8" fill-opacity="0.85" stroke="#4fb8a8" stroke-width="1.2"></path>
                        <circle cx="-3" cy="-2.5" r="2" fill="#d14859"></circle>
                        <circle cx="0" cy="-2.5" r="2" fill="#d14859"></circle>
                        <circle cx="3" cy="-2.5" r="2" fill="#d14859"></circle>
                      </g>
                    </g><text x="140" y="210" text-anchor="middle" style="fill:#9370b9;font:600 8px Inter,sans-serif;letter-spacing:1.2px">CLEARED MACROPHAGE</text><g opacity="1"><circle cx="380" cy="145" r="38" fill="#6cc27d" fill-opacity="0.35" stroke="#6cc27d" stroke-width="1.8"></circle><ellipse cx="375" cy="142" rx="10" ry="8" fill="#4a2d60" opacity="0.75"></ellipse><text x="383" y="146" text-anchor="middle" style="fill:#e8ecf3;font:600 9px Inter,sans-serif">CD4</text>
                      <g transform="translate(342 145)">
                        <path d="M 0 0 L 12 -8 L 12 8 Z" fill="#4fb8a8" opacity="0.95" transform="rotate(180)"></path>
                        <text x="-3" y="-12" text-anchor="end" style="fill:#4fb8a8;font:600 8px Inter,sans-serif">TCR</text>
                      </g>
                    <text x="380" y="200" text-anchor="middle" style="fill:#6cc27d;font:600 8px Inter,sans-serif;letter-spacing:1.2px">CD4 Th1</text></g>

                  <text x="250" y="252" text-anchor="middle" style="fill:#b4becf;font:italic 10px Fraunces,serif">bacteria broken down · the same macrophage that hosted them now kills them</text>

                  <!-- FOCUS · audio-aligned attention marker -->
                  <circle cx="140" cy="205" r="27" fill="none" stroke="#d14859" stroke-width="1.8" stroke-dasharray="3 2" opacity="0.85">
                    <animate attributeName="r" values="23;33;23" dur="2.4s" repeatCount="indefinite"/>
                    <animate attributeName="opacity" values="0.85;0.20;0.85" dur="2.4s" repeatCount="indefinite"/>
                  </circle>
</svg>
