<?xml version="1.0" encoding="UTF-8"?>
<!--
  Auto-generated from the reference HTML by
  scripts/storymode-extraction/extract.mjs.
  Do not edit by hand — regenerate the file instead.
-->
<svg xmlns="http://www.w3.org/2000/svg" xmlns:xlink="http://www.w3.org/1999/xlink" viewBox="0 0 500 260" preserveAspectRatio="xMidYMid meet">
                  <text x="20" y="22" style="fill:#e8a951;font:600 10px Inter,sans-serif;letter-spacing:2px">STEP 02 · FIVE ANTIBODY ISOTYPES</text>

                  <!-- IgG monomer -->
                  <g transform="translate(95 145)">
                    <text x="0" y="-50" text-anchor="middle" style="fill:#e8a951;font:700 10px Inter,sans-serif;letter-spacing:1.5px">IgG</text>
                    <g transform="translate(0 0) scale(2.4)" opacity="1"><path d="M -7 -6 L -2 0 L 2 0 L 7 -6" stroke="#e8a951" stroke-width="2" fill="none" stroke-linecap="round"></path><line x1="0" y1="0" x2="0" y2="8" stroke="#e8a951" stroke-width="2" stroke-linecap="round"></line></g>
                    <text x="0" y="40" text-anchor="middle" style="fill:#b4becf;font:italic 7px Fraunces,serif">monomer</text>
                  </g>

                  <!-- IgA dimer -->
                  <g transform="translate(190 145)">
                    <text x="0" y="-50" text-anchor="middle" style="fill:#4fb8a8;font:700 10px Inter,sans-serif;letter-spacing:1.5px">IgA</text>
                    <g transform="translate(0 0)" opacity="1"><g transform="translate(-12 0)"><path d="M -7 -7 L -2 -1 L 2 -1 L 7 -7" stroke="#4fb8a8" stroke-width="2.2" fill="none" stroke-linecap="round" opacity="0.9"></path><line x1="0" y1="-1" x2="0" y2="9" stroke="#4fb8a8" stroke-width="2.2" stroke-linecap="round" opacity="0.9"></line></g><g transform="translate(12 0) scale(-1 1)"><path d="M -7 -7 L -2 -1 L 2 -1 L 7 -7" stroke="#4fb8a8" stroke-width="2.2" fill="none" stroke-linecap="round" opacity="0.9"></path><line x1="0" y1="-1" x2="0" y2="9" stroke="#4fb8a8" stroke-width="2.2" stroke-linecap="round" opacity="0.9"></line></g><circle cx="0" cy="9" r="3" fill="#d14859" fill-opacity="0.85" stroke="#d14859" stroke-width="1"></circle></g>
                    <text x="0" y="40" text-anchor="middle" style="fill:#b4becf;font:italic 7px Fraunces,serif">dimer</text>
                  </g>

                  <!-- IgM pentamer -->
                  <g transform="translate(285 145)">
                    <text x="0" y="-50" text-anchor="middle" style="fill:#9370b9;font:700 10px Inter,sans-serif;letter-spacing:1.5px">IgM</text>
                    <g transform="translate(0 0)" opacity="1"><g transform="translate(1.102182119232618e-15 -18) rotate(180)"><path d="M -7 -6 L -2 0 L 2 0 L 7 -6" stroke="#9370b9" stroke-width="2.4" fill="none" stroke-linecap="round" opacity="0.9"></path><line x1="0" y1="0" x2="0" y2="10" stroke="#9370b9" stroke-width="2.4" stroke-linecap="round" opacity="0.9"></line></g><g transform="translate(17.119017293312762 -5.562305898749053) rotate(252)"><path d="M -7 -6 L -2 0 L 2 0 L 7 -6" stroke="#9370b9" stroke-width="2.4" fill="none" stroke-linecap="round" opacity="0.9"></path><line x1="0" y1="0" x2="0" y2="10" stroke="#9370b9" stroke-width="2.4" stroke-linecap="round" opacity="0.9"></line></g><g transform="translate(10.580134541264517 14.562305898749054) rotate(324)"><path d="M -7 -6 L -2 0 L 2 0 L 7 -6" stroke="#9370b9" stroke-width="2.4" fill="none" stroke-linecap="round" opacity="0.9"></path><line x1="0" y1="0" x2="0" y2="10" stroke="#9370b9" stroke-width="2.4" stroke-linecap="round" opacity="0.9"></line></g><g transform="translate(-10.580134541264515 14.562305898749054) rotate(396)"><path d="M -7 -6 L -2 0 L 2 0 L 7 -6" stroke="#9370b9" stroke-width="2.4" fill="none" stroke-linecap="round" opacity="0.9"></path><line x1="0" y1="0" x2="0" y2="10" stroke="#9370b9" stroke-width="2.4" stroke-linecap="round" opacity="0.9"></line></g><g transform="translate(-17.119017293312762 -5.5623058987490595) rotate(468)"><path d="M -7 -6 L -2 0 L 2 0 L 7 -6" stroke="#9370b9" stroke-width="2.4" fill="none" stroke-linecap="round" opacity="0.9"></path><line x1="0" y1="0" x2="0" y2="10" stroke="#9370b9" stroke-width="2.4" stroke-linecap="round" opacity="0.9"></line></g><circle cx="0" cy="0" r="6" fill="#d14859" fill-opacity="0.85" stroke="#d14859" stroke-width="1.4"></circle><text x="0" y="2" text-anchor="middle" style="fill:#0a0e1a;font:700 6px Inter,sans-serif">J</text></g>
                    <text x="0" y="40" text-anchor="middle" style="fill:#b4becf;font:italic 7px Fraunces,serif">pentamer</text>
                  </g>

                  <!-- IgD monomer -->
                  <g transform="translate(380 145)">
                    <text x="0" y="-50" text-anchor="middle" style="fill:#6cc27d;font:700 10px Inter,sans-serif;letter-spacing:1.5px">IgD</text>
                    <g transform="translate(0 0) scale(2.4)" opacity="1"><path d="M -7 -6 L -2 0 L 2 0 L 7 -6" stroke="#6cc27d" stroke-width="2" fill="none" stroke-linecap="round"></path><line x1="0" y1="0" x2="0" y2="8" stroke="#6cc27d" stroke-width="2" stroke-linecap="round"></line></g>
                    <text x="0" y="40" text-anchor="middle" style="fill:#b4becf;font:italic 7px Fraunces,serif">B-cell surface</text>
                  </g>

                  <!-- IgE monomer -->
                  <g transform="translate(450 145)">
                    <text x="0" y="-50" text-anchor="middle" style="fill:#d14859;font:700 10px Inter,sans-serif;letter-spacing:1.5px">IgE</text>
                    <g transform="translate(0 0) scale(2.4)" opacity="1"><path d="M -7 -6 L -2 0 L 2 0 L 7 -6" stroke="#d14859" stroke-width="2" fill="none" stroke-linecap="round"></path><line x1="0" y1="0" x2="0" y2="8" stroke="#d14859" stroke-width="2" stroke-linecap="round"></line></g>
                    <text x="0" y="40" text-anchor="middle" style="fill:#b4becf;font:italic 7px Fraunces,serif">on mast cells</text>
                  </g>

                  <text x="250" y="252" text-anchor="middle" style="fill:#b4becf;font:italic 10px Fraunces,serif">five isotypes · different sizes, different roles · only one crosses the placenta</text>

                  <!-- FOCUS · audio-aligned attention marker -->
                  <circle cx="95" cy="90" r="20" fill="none" stroke="#d14859" stroke-width="1.8" stroke-dasharray="3 2" opacity="0.85">
                    <animate attributeName="r" values="16;26;16" dur="2.4s" repeatCount="indefinite"/>
                    <animate attributeName="opacity" values="0.85;0.20;0.85" dur="2.4s" repeatCount="indefinite"/>
                  </circle>

                  <!-- FOCUS · audio-aligned attention marker -->
                  <circle cx="190" cy="90" r="20" fill="none" stroke="#d14859" stroke-width="1.8" stroke-dasharray="3 2" opacity="0.85">
                    <animate attributeName="r" values="16;26;16" dur="2.4s" repeatCount="indefinite"/>
                    <animate attributeName="opacity" values="0.85;0.20;0.85" dur="2.4s" repeatCount="indefinite"/>
                  </circle>

                  <!-- FOCUS · audio-aligned attention marker -->
                  <circle cx="285" cy="90" r="20" fill="none" stroke="#d14859" stroke-width="1.8" stroke-dasharray="3 2" opacity="0.85">
                    <animate attributeName="r" values="16;26;16" dur="2.4s" repeatCount="indefinite"/>
                    <animate attributeName="opacity" values="0.85;0.20;0.85" dur="2.4s" repeatCount="indefinite"/>
                  </circle>
</svg>
