<?xml version="1.0" encoding="UTF-8"?>
<!--
  Auto-generated from the reference HTML by
  scripts/storymode-extraction/extract.mjs.
  Do not edit by hand — regenerate the file instead.
-->
<svg xmlns="http://www.w3.org/2000/svg" xmlns:xlink="http://www.w3.org/1999/xlink" viewBox="0 0 500 260" preserveAspectRatio="xMidYMid meet">
<text x="20" y="16" style="fill:#e8a951;font:600 9px Inter,sans-serif;letter-spacing:2px">STEP 01 · HYPNOZOITES · DORMANT LIVER STAGE</text>

<!-- Liver anatomical view -->
<g transform="translate(250 145)">
  <text x="0" y="-100" text-anchor="middle" style="fill:#9370b9;font:700 9px Inter,sans-serif;letter-spacing:1.5px">HEPATOCYTE WITH HYPNOZOITES</text>
  
  <!-- Liver outline -->
  <path d="M -150 -50 Q -160 -30 -150 0 Q -140 30 -100 45 Q -50 50 0 45 Q 60 50 110 40 Q 150 30 150 0 Q 140 -30 110 -45 Q 50 -55 0 -50 Q -80 -55 -150 -50" 
        fill="rgba(180,130,80,0.30)" stroke="#a06a30" stroke-width="1.8"/>
  <text x="-130" y="-30" style="fill:#a06a30;font:700 8px Inter,sans-serif;letter-spacing:1.2px">LIVER</text>
  
  <!-- Multiple hepatocytes (hexagonal cells) -->
  <g fill="rgba(232,169,81,0.45)" stroke="#a06a30" stroke-width="0.8">
    <polygon points="-90,-15 -75,-25 -55,-15 -55,5 -75,15 -90,5"/>
    <polygon points="-50,-15 -35,-25 -15,-15 -15,5 -35,15 -50,5"/>
    <polygon points="-10,-15 5,-25 25,-15 25,5 5,15 -10,5"/>
    <polygon points="30,-15 45,-25 65,-15 65,5 45,15 30,5"/>
    <polygon points="70,-15 85,-25 105,-15 105,5 85,15 70,5"/>
    
    <polygon points="-110,15 -95,5 -75,15 -75,35 -95,45 -110,35"/>
    <polygon points="-70,15 -55,5 -35,15 -35,35 -55,45 -70,35"/>
    <polygon points="-30,15 -15,5 5,15 5,35 -15,45 -30,35"/>
    <polygon points="10,15 25,5 45,15 45,35 25,45 10,35"/>
    <polygon points="50,15 65,5 85,15 85,35 65,45 50,35"/>
  </g>
  
  <!-- Hepatocyte nuclei -->
  <g fill="rgba(74,45,96,0.65)">
    <circle cx="-72" cy="-5" r="3"/>
    <circle cx="-32" cy="-5" r="3"/>
    <circle cx="8" cy="-5" r="3"/>
    <circle cx="48" cy="-5" r="3"/>
    <circle cx="88" cy="-5" r="3"/>
    <circle cx="-92" cy="25" r="3"/>
    <circle cx="-52" cy="25" r="3"/>
    <circle cx="68" cy="25" r="3"/>
  </g>
  
  <!-- Hypnozoites (small dormant parasites in some cells) -->
  <g fill="rgba(209,72,89,0.95)" stroke="#a53343" stroke-width="0.8">
    <circle cx="-12" cy="25" r="4"/>
    <circle cx="28" cy="25" r="4"/>
  </g>
  
  <!-- Annotations -->
  <line x1="-12" y1="25" x2="-30" y2="60" stroke="#d14859" stroke-width="1" stroke-dasharray="2 1"/>
  <text x="-30" y="70" text-anchor="middle" style="fill:#d14859;font:700 7px Inter,sans-serif">HYPNOZOITE</text>
  <text x="-30" y="80" text-anchor="middle" style="fill:#d14859;font:6.5px Inter,sans-serif">dormant · months-years</text>
</g>

<!-- Species panel -->
<g transform="translate(250 215)">
  <rect x="-200" y="-13" width="400" height="26" rx="6" fill="rgba(209,72,89,0.20)" stroke="#d14859" stroke-width="1.4"/>
  <text x="0" y="3" text-anchor="middle" style="fill:#d14859;font:700 9px Inter,sans-serif;letter-spacing:1.5px">P. VIVAX + P. OVALE = HYPNOZOITE FORMERS</text>
</g>

<text x="250" y="245" text-anchor="middle" style="fill:#6b7689;font:italic 7.5px Fraunces,serif">Sporozoites enter hepatocytes · some replicate · others stay dormant for months-years</text>

                  <!-- FOCUS · audio-aligned attention marker -->
                  <circle cx="220" cy="220" r="33" fill="none" stroke="#d14859" stroke-width="1.8" stroke-dasharray="3 2" opacity="0.85">
                    <animate attributeName="r" values="29;39;29" dur="2.4s" repeatCount="indefinite"/>
                    <animate attributeName="opacity" values="0.85;0.20;0.85" dur="2.4s" repeatCount="indefinite"/>
                  </circle>

                  <!-- FOCUS · audio-aligned attention marker -->
                  <circle cx="250" cy="40" r="40" fill="none" stroke="#d14859" stroke-width="1.8" stroke-dasharray="3 2" opacity="0.85">
                    <animate attributeName="r" values="36;46;36" dur="2.4s" repeatCount="indefinite"/>
                    <animate attributeName="opacity" values="0.85;0.20;0.85" dur="2.4s" repeatCount="indefinite"/>
                  </circle>
</svg>
