<?xml version="1.0" encoding="UTF-8"?>
<!--
  Auto-generated from the reference HTML by
  scripts/storymode-extraction/extract.mjs.
  Do not edit by hand — regenerate the file instead.
-->
<svg xmlns="http://www.w3.org/2000/svg" xmlns:xlink="http://www.w3.org/1999/xlink" viewBox="0 0 500 260" preserveAspectRatio="xMidYMid meet">
                  <text x="20" y="22" style="fill:#e8a951;font:600 10px Inter,sans-serif;letter-spacing:2px">STEP 05 · CD8 · NOTHING TO RECOGNIZE</text>

  
                    <line x1="40" y1="58" x2="460" y2="58" stroke="#4fb8a8" stroke-width="2" opacity="0.6"></line>
                    <line x1="40" y1="62" x2="460" y2="62" stroke="#4fb8a8" stroke-width="2" opacity="0.6"></line>
                    <text x="44" y="52" style="fill:#b4becf;font:600 7px Inter,sans-serif;letter-spacing:1.5px">CELL SURFACE</text>
                  <rect x="40" y="62" width="420" height="170" rx="0" fill="#4fb8a8" fill-opacity="0.04"></rect><text x="44" y="78" style="fill:#b4becf;font:600 7px Inter,sans-serif;letter-spacing:1.5px">CYTOPLASM</text>
                    <rect x="290" y="145" width="120" height="55" rx="10" fill="#9370b9" fill-opacity="0.10" stroke="#9370b9" stroke-width="1.4"></rect>
                    <text x="296" y="158" style="fill:#9370b9;font:600 7px Inter,sans-serif;letter-spacing:1.5px">ER</text>
  
                    <g opacity="1">
                      <!-- barrel: top ring, body, bottom ring -->
                      <ellipse cx="220" cy="138" rx="22" ry="6" fill="#6b7689" fill-opacity="0.3" stroke="#6b7689" stroke-width="1.5"></ellipse>
                      <rect x="198" y="138" width="44" height="44" fill="#6b7689" fill-opacity="0.255" stroke="#6b7689" stroke-width="1.5"></rect>
                      <ellipse cx="220" cy="182" rx="22" ry="6" fill="#6b7689" fill-opacity="0.3" stroke="#6b7689" stroke-width="1.5"></ellipse>
                      <!-- horizontal lines suggesting subunits -->
                      <line x1="198" y1="152" x2="242" y2="152" stroke="#3a4358" stroke-width="0.8" opacity="0.5"></line>
                      <line x1="198" y1="168" x2="242" y2="168" stroke="#3a4358" stroke-width="0.8" opacity="0.5"></line>
                      <text x="220" y="200" text-anchor="middle" style="fill:#6b7689;font:600 9px Inter,sans-serif;letter-spacing:1.5px">PROTEASOME</text>
                    </g>
  
                    <g transform="translate(330 175)" opacity="0.5">
                      <path d="M -14 0 L 14 0 L 16 10 L 9 10 L 7 4 L -7 4 L -9 10 L -16 10 Z" fill="#e8a951" fill-opacity="0.3" stroke="#e8a951" stroke-width="1.3"></path>
                  </g>
                    <g transform="translate(370 175)" opacity="0.5">
                      <path d="M -14 0 L 14 0 L 16 10 L 9 10 L 7 4 L -7 4 L -9 10 L -16 10 Z" fill="#e8a951" fill-opacity="0.3" stroke="#e8a951" stroke-width="1.3"></path>
                  </g>
                    <g transform="translate(110 50)" opacity="0.5">
                      <path d="M -14 0 L 14 0 L 16 10 L 9 10 L 7 4 L -7 4 L -9 10 L -16 10 Z" fill="none" stroke="#6b7689" stroke-width="1" stroke-dasharray="2 2"></path>
                    </g>
  
                    <g transform="translate(200 50)" opacity="0.5">
                      <path d="M -14 0 L 14 0 L 16 10 L 9 10 L 7 4 L -7 4 L -9 10 L -16 10 Z" fill="none" stroke="#6b7689" stroke-width="1" stroke-dasharray="2 2"></path>
                    </g>
  
                    <g transform="translate(290 50)" opacity="0.5">
                      <path d="M -14 0 L 14 0 L 16 10 L 9 10 L 7 4 L -7 4 L -9 10 L -16 10 Z" fill="none" stroke="#6b7689" stroke-width="1" stroke-dasharray="2 2"></path>
                    </g>
  
                    <g transform="translate(380 50)" opacity="0.5">
                      <path d="M -14 0 L 14 0 L 16 10 L 9 10 L 7 4 L -7 4 L -9 10 L -16 10 Z" fill="none" stroke="#6b7689" stroke-width="1" stroke-dasharray="2 2"></path>
                    </g>
  
                      <g transform="translate(420 30)" opacity="0.65">
                        <circle cx="0" cy="0" r="20" fill="#6cc27d" fill-opacity="0.32" stroke="#6cc27d" stroke-width="1.5"></circle>
                        <ellipse cx="-3" cy="-2" rx="5" ry="4" fill="#1a2030" opacity="0.7"></ellipse>
                        <text x="0" y="34" text-anchor="middle" style="fill:#6cc27d;font:600 8px Inter,sans-serif;letter-spacing:1.5px">CD8</text>
                        <!-- TCR pointing down -->
                        <path d="M 0 20 L -7 28 L 7 28 Z" fill="#e8a951" opacity="0.4"></path>
                      </g>
                    <text x="385" y="38" style="fill:#d14859;font:700 12px Inter,sans-serif">?</text>

                  <!-- drug bound -->
                  <g transform="translate(220 145)">
                    <rect x="-15" y="-7" width="30" height="14" rx="7" fill="#9370b9" fill-opacity="0.65" stroke="#9370b9" stroke-width="1.5"></rect>
                    <text x="0" y="3" text-anchor="middle" style="fill:#e8ecf3;font:700 7px Inter,sans-serif">DRUG</text>
                  </g>

                  <text x="250" y="252" text-anchor="middle" style="fill:#b4becf;font:italic 10px Fraunces,serif">CD8 cells are intact · but they have no display to read</text>

                  <!-- FOCUS · audio-aligned attention marker -->
                  <circle cx="420" cy="59" r="20" fill="none" stroke="#d14859" stroke-width="1.8" stroke-dasharray="3 2" opacity="0.85">
                    <animate attributeName="r" values="16;26;16" dur="2.4s" repeatCount="indefinite"/>
                    <animate attributeName="opacity" values="0.85;0.20;0.85" dur="2.4s" repeatCount="indefinite"/>
                  </circle>
</svg>
