<?xml version="1.0" encoding="UTF-8"?>
<!--
  Auto-generated from the reference HTML by
  scripts/storymode-extraction/extract.mjs.
  Do not edit by hand — regenerate the file instead.
-->
<svg xmlns="http://www.w3.org/2000/svg" xmlns:xlink="http://www.w3.org/1999/xlink" viewBox="0 0 500 260" preserveAspectRatio="xMidYMid meet">
                  <text x="20" y="16" style="fill:#e8a951;font:600 9px Inter,sans-serif;letter-spacing:2px">STEP 01 · IPV · PARALYSIS PREVENTED · GUT NOT</text>

                  <g opacity="1"><rect x="80" y="80" width="340" height="35" rx="4" fill="#4fb8a8" fill-opacity="0.15" stroke="#4fb8a8" stroke-width="1.4" stroke-dasharray="3 2"></rect><text x="90" y="100" style="fill:#4fb8a8;font:600 8px Inter,sans-serif;letter-spacing:1.5px">GUT LUMEN</text><line x1="80" y1="118" x2="420" y2="118" stroke="#9370b9" stroke-width="1.4" stroke-dasharray="2 2" opacity="0.7"></line><rect x="80" y="125" width="340" height="50" rx="4" fill="#9370b9" fill-opacity="0.15" stroke="#9370b9" stroke-width="1.4" stroke-dasharray="3 2"></rect><text x="90" y="155" style="fill:#9370b9;font:600 8px Inter,sans-serif;letter-spacing:1.5px">SERUM / BLOODSTREAM</text><rect x="80" y="185" width="340" height="35" rx="4" fill="#e8a951" fill-opacity="0.15" stroke="#e8a951" stroke-width="1.4" stroke-dasharray="3 2"></rect><text x="90" y="205" style="fill:#e8a951;font:600 8px Inter,sans-serif;letter-spacing:1.5px">CNS · MOTOR NEURONS</text></g>

                  <!-- IPV syringe entering from left side -->
                  <g transform="translate(45 145)">
                    <rect x="-10" y="-3" width="20" height="6" rx="1" fill="#9370b9" fill-opacity="0.85" stroke="#9370b9" stroke-width="1"></rect>
                    <line x1="10" y1="0" x2="25" y2="0" stroke="#b4becf" stroke-width="1.4"></line>
                    <text x="0" y="-10" text-anchor="middle" style="fill:#9370b9;font:700 7px Inter,sans-serif;letter-spacing:1.5px">IPV</text>
                    <text x="0" y="-19" text-anchor="middle" style="fill:#b4becf;font:italic 6px Fraunces,serif">injected</text>
                  </g>
                  <path d="M 70 145 L 80 145" stroke="#9370b9" stroke-width="1.6" fill="none"></path>
                  <polygon points="80,145 73,141 73,149" fill="#9370b9"></polygon>

                  <!-- Result chips on right -->
                  <g transform="translate(450 145)" font-family="Inter,sans-serif">
                    <g transform="translate(0 -55)">
<rect x="-30" y="-9" width="60" height="18" rx="9" fill="#6cc27d" fill-opacity="0.30" stroke="#6cc27d" stroke-width="1.3"></rect>
<text x="0" y="3" text-anchor="middle" style="fill:#6cc27d;font:600 7px Inter,sans-serif">✓ NO PARALYSIS</text>
                    </g>
                    <g transform="translate(0 55)">
<rect x="-30" y="-9" width="60" height="18" rx="9" fill="#d14859" fill-opacity="0.20" stroke="#d14859" stroke-width="1.3"></rect>
<text x="0" y="3" text-anchor="middle" style="fill:#d14859;font:600 7px Inter,sans-serif">✗ STILL SHEDS</text>
                    </g>
                  </g>

                  <!-- Virus still in gut -->
                  <g transform="translate(180 97)" opacity="1"><circle cx="0" cy="0" r="8" fill="#d14859" fill-opacity="0.85" stroke="#d14859" stroke-width="1"></circle><circle cx="7" cy="0" r="1.2" fill="#0a0e1a"></circle><circle cx="3.5" cy="6.1" r="1.2" fill="#0a0e1a"></circle><circle cx="-3.5" cy="6.1" r="1.2" fill="#0a0e1a"></circle><circle cx="-7" cy="0" r="1.2" fill="#0a0e1a"></circle><circle cx="-3.5" cy="-6.1" r="1.2" fill="#0a0e1a"></circle><circle cx="3.5" cy="-6.1" r="1.2" fill="#0a0e1a"></circle></g>
                  <g transform="translate(240 95)" opacity="1"><circle cx="0" cy="0" r="8" fill="#d14859" fill-opacity="0.85" stroke="#d14859" stroke-width="1"></circle><circle cx="7" cy="0" r="1.2" fill="#0a0e1a"></circle><circle cx="3.5" cy="6.1" r="1.2" fill="#0a0e1a"></circle><circle cx="-3.5" cy="6.1" r="1.2" fill="#0a0e1a"></circle><circle cx="-7" cy="0" r="1.2" fill="#0a0e1a"></circle><circle cx="-3.5" cy="-6.1" r="1.2" fill="#0a0e1a"></circle><circle cx="3.5" cy="-6.1" r="1.2" fill="#0a0e1a"></circle></g>
                  <g transform="translate(300 100)" opacity="1"><circle cx="0" cy="0" r="8" fill="#d14859" fill-opacity="0.85" stroke="#d14859" stroke-width="1"></circle><circle cx="7" cy="0" r="1.2" fill="#0a0e1a"></circle><circle cx="3.5" cy="6.1" r="1.2" fill="#0a0e1a"></circle><circle cx="-3.5" cy="6.1" r="1.2" fill="#0a0e1a"></circle><circle cx="-7" cy="0" r="1.2" fill="#0a0e1a"></circle><circle cx="-3.5" cy="-6.1" r="1.2" fill="#0a0e1a"></circle><circle cx="3.5" cy="-6.1" r="1.2" fill="#0a0e1a"></circle></g>
                  <g transform="translate(360 95)" opacity="1"><circle cx="0" cy="0" r="8" fill="#d14859" fill-opacity="0.85" stroke="#d14859" stroke-width="1"></circle><circle cx="7" cy="0" r="1.2" fill="#0a0e1a"></circle><circle cx="3.5" cy="6.1" r="1.2" fill="#0a0e1a"></circle><circle cx="-3.5" cy="6.1" r="1.2" fill="#0a0e1a"></circle><circle cx="-7" cy="0" r="1.2" fill="#0a0e1a"></circle><circle cx="-3.5" cy="-6.1" r="1.2" fill="#0a0e1a"></circle><circle cx="3.5" cy="-6.1" r="1.2" fill="#0a0e1a"></circle></g>

                  <text x="250" y="245" text-anchor="middle" style="fill:#b4becf;font:italic 7.5px Fraunces,serif">two outcomes from one vaccine · paralysis blocked but virus keeps replicating in stool</text>

                  <!-- FOCUS · audio-aligned attention marker -->
                  <circle cx="45" cy="121" r="20" fill="none" stroke="#d14859" stroke-width="1.8" stroke-dasharray="3 2" opacity="0.85">
                    <animate attributeName="r" values="16;26;16" dur="2.4s" repeatCount="indefinite"/>
                    <animate attributeName="opacity" values="0.85;0.20;0.85" dur="2.4s" repeatCount="indefinite"/>
                  </circle>
</svg>
