<?xml version="1.0" encoding="UTF-8"?>
<!--
  Auto-generated from the reference HTML by
  scripts/storymode-extraction/extract.mjs.
  Do not edit by hand — regenerate the file instead.
-->
<svg xmlns="http://www.w3.org/2000/svg" xmlns:xlink="http://www.w3.org/1999/xlink" viewBox="0 0 500 260" preserveAspectRatio="xMidYMid meet">
                  <text x="20" y="16" style="fill:#e8a951;font:600 9px Inter,sans-serif;letter-spacing:2px">STEP 03 · CROSS-REACTIVE ANTIBODIES NEUTRALIZE</text>

                  <!-- Vaccinia primes the immune system -->
                  <g transform="translate(95 145)">
                    <text x="0" y="-65" text-anchor="middle" style="fill:#4fb8a8;font:700 9px Inter,sans-serif;letter-spacing:1.5px">VACCINIA TRAINS</text>
                    <g transform="translate(0 0)" opacity="1"><rect x="-25" y="-16" width="50" height="32" rx="6" fill="#4fb8a8" fill-opacity="0.65" stroke="#4fb8a8" stroke-width="1.5"></rect><g stroke="#4fb8a8" stroke-width="1.4" fill="none" opacity="0.4"><rect x="-19" y="-10" width="38" height="20" rx="4"></rect></g><g fill="#9370b9" fill-opacity="0.95" stroke="#9370b9" stroke-width="0.8"><rect x="-20.5" y="-22" width="6" height="8" rx="1"></rect><rect x="-9" y="-22" width="6" height="8" rx="1"></rect><rect x="3" y="-22" width="6" height="8" rx="1"></rect><rect x="14.5" y="-22" width="6" height="8" rx="1"></rect></g></g>
                    <g transform="translate(0 -32) scale(0.85)" opacity="1"><g stroke="#e8a951" stroke-width="2.2" fill="none" stroke-linecap="round"><path d="M -8 -8 L -2 0 L 2 0 L 8 -8"></path><line x1="0" y1="0" x2="0" y2="10"></line></g><circle cx="-8" cy="-8" r="2.5" fill="#9370b9" stroke="none"></circle><circle cx="8" cy="-8" r="2.5" fill="#9370b9" stroke="none"></circle></g>
                    <g transform="translate(-22 -22) scale(0.75)" opacity="1"><g stroke="#e8a951" stroke-width="2.2" fill="none" stroke-linecap="round"><path d="M -8 -8 L -2 0 L 2 0 L 8 -8"></path><line x1="0" y1="0" x2="0" y2="10"></line></g><circle cx="-8" cy="-8" r="2.5" fill="#9370b9" stroke="none"></circle><circle cx="8" cy="-8" r="2.5" fill="#9370b9" stroke="none"></circle></g>
                    <g transform="translate(22 -22) scale(0.75)" opacity="1"><g stroke="#e8a951" stroke-width="2.2" fill="none" stroke-linecap="round"><path d="M -8 -8 L -2 0 L 2 0 L 8 -8"></path><line x1="0" y1="0" x2="0" y2="10"></line></g><circle cx="-8" cy="-8" r="2.5" fill="#9370b9" stroke="none"></circle><circle cx="8" cy="-8" r="2.5" fill="#9370b9" stroke="none"></circle></g>
                  </g>

                  <!-- Arrow showing cross-reactive antibodies move to variola -->
                  <g transform="translate(225 145)">
                    <g transform="translate(0 0) scale(1.3)" opacity="1"><g stroke="#e8a951" stroke-width="2.2" fill="none" stroke-linecap="round"><path d="M -8 -8 L -2 0 L 2 0 L 8 -8"></path><line x1="0" y1="0" x2="0" y2="10"></line></g><circle cx="-8" cy="-8" r="2.5" fill="#9370b9" stroke="none"></circle><circle cx="8" cy="-8" r="2.5" fill="#9370b9" stroke="none"></circle></g>
                    <text x="0" y="22" text-anchor="middle" style="fill:#e8a951;font:600 7px Inter,sans-serif;letter-spacing:1.2px">ANTI-POXVIRUS Ab</text>
                    <text x="0" y="32" text-anchor="middle" style="fill:#b4becf;font:italic 7px Fraunces,serif">recognizes both</text>
                  </g>

                  <!-- Arrow -->
                  <path d="M 255 145 L 290 145" stroke="#e8a951" stroke-width="1.6" fill="none"></path>
                  <polygon points="290,145 283,141 283,149" fill="#e8a951"></polygon>

                  <!-- Variola covered with same antibodies -->
                  <g transform="translate(380 145)">
                    <text x="0" y="-65" text-anchor="middle" style="fill:#d14859;font:700 9px Inter,sans-serif;letter-spacing:1.5px">VARIOLA NEUTRALIZED</text>
                    <g transform="translate(0 0)" opacity="1"><rect x="-25" y="-16" width="50" height="32" rx="6" fill="#d14859" fill-opacity="0.65" stroke="#d14859" stroke-width="1.5"></rect><g stroke="#d14859" stroke-width="1.4" fill="none" opacity="0.4"><rect x="-19" y="-10" width="38" height="20" rx="4"></rect></g><g fill="#9370b9" fill-opacity="0.95" stroke="#9370b9" stroke-width="0.8"><rect x="-20.5" y="-22" width="6" height="8" rx="1"></rect><rect x="-9" y="-22" width="6" height="8" rx="1"></rect><rect x="3" y="-22" width="6" height="8" rx="1"></rect><rect x="14.5" y="-22" width="6" height="8" rx="1"></rect></g></g>
                    <g transform="translate(0 -32) scale(0.85)" opacity="1"><g stroke="#e8a951" stroke-width="2.2" fill="none" stroke-linecap="round"><path d="M -8 -8 L -2 0 L 2 0 L 8 -8"></path><line x1="0" y1="0" x2="0" y2="10"></line></g><circle cx="-8" cy="-8" r="2.5" fill="#9370b9" stroke="none"></circle><circle cx="8" cy="-8" r="2.5" fill="#9370b9" stroke="none"></circle></g>
                    <g transform="translate(-22 -22) scale(0.75)" opacity="1"><g stroke="#e8a951" stroke-width="2.2" fill="none" stroke-linecap="round"><path d="M -8 -8 L -2 0 L 2 0 L 8 -8"></path><line x1="0" y1="0" x2="0" y2="10"></line></g><circle cx="-8" cy="-8" r="2.5" fill="#9370b9" stroke="none"></circle><circle cx="8" cy="-8" r="2.5" fill="#9370b9" stroke="none"></circle></g>
                    <g transform="translate(22 -22) scale(0.75)" opacity="1"><g stroke="#e8a951" stroke-width="2.2" fill="none" stroke-linecap="round"><path d="M -8 -8 L -2 0 L 2 0 L 8 -8"></path><line x1="0" y1="0" x2="0" y2="10"></line></g><circle cx="-8" cy="-8" r="2.5" fill="#9370b9" stroke="none"></circle><circle cx="8" cy="-8" r="2.5" fill="#9370b9" stroke="none"></circle></g>
                    <text x="0" y="40" text-anchor="middle" style="fill:#b4becf;font:italic 7px Fraunces,serif">infection blocked</text>
                  </g>

                  <text x="250" y="245" text-anchor="middle" style="fill:#b4becf;font:italic 7.5px Fraunces,serif">Fab arms see shared epitopes · same antibody binds either virus · neutralizes both</text>

                  <!-- FOCUS · audio-aligned attention marker -->
                  <circle cx="95" cy="75" r="22" fill="none" stroke="#d14859" stroke-width="1.8" stroke-dasharray="3 2" opacity="0.85">
                    <animate attributeName="r" values="18;28;18" dur="2.4s" repeatCount="indefinite"/>
                    <animate attributeName="opacity" values="0.85;0.20;0.85" dur="2.4s" repeatCount="indefinite"/>
                  </circle>

                  <!-- FOCUS · audio-aligned attention marker -->
                  <circle cx="380" cy="75" r="28" fill="none" stroke="#d14859" stroke-width="1.8" stroke-dasharray="3 2" opacity="0.85">
                    <animate attributeName="r" values="24;34;24" dur="2.4s" repeatCount="indefinite"/>
                    <animate attributeName="opacity" values="0.85;0.20;0.85" dur="2.4s" repeatCount="indefinite"/>
                  </circle>
</svg>
