<?xml version="1.0" encoding="UTF-8"?>
<!--
  Auto-generated from the reference HTML by
  scripts/storymode-extraction/extract.mjs.
  Do not edit by hand — regenerate the file instead.
-->
<svg xmlns="http://www.w3.org/2000/svg" xmlns:xlink="http://www.w3.org/1999/xlink" viewBox="0 0 500 260" preserveAspectRatio="xMidYMid meet">
<text x="20" y="16" style="fill:#e8a951;font:600 9px Inter,sans-serif;letter-spacing:2px">STEP 02 · 3RD + 4TH PHARYNGEAL POUCHES</text>

<!-- Embryo with pouches drawn properly -->
<g transform="translate(135 140)">
  <text x="0" y="-90" text-anchor="middle" style="fill:#9370b9;font:700 8.5px Inter,sans-serif;letter-spacing:1.2px">EMBRYO · PHARYNGEAL ARCHES</text>
  
  <!-- Embryo head/neck profile -->
  <path d="M -45 -75 Q -55 -50 -50 -25 Q -55 -10 -50 5 Q -45 25 -38 35 L 35 35 L 40 -75 Z" 
        fill="rgba(180,190,207,0.15)" stroke="#b4becf" stroke-width="1.4"/>
  
  <!-- Primitive gut tube (vertical) -->
  <line x1="-35" y1="-65" x2="-35" y2="30" stroke="#9370b9" stroke-width="2.4" opacity="0.5"/>
  
  <!-- Pouch 1 (faded, given) -->
  <g transform="translate(-25 -55)">
    <ellipse cx="0" cy="0" rx="20" ry="6" fill="rgba(108,194,125,0.30)" stroke="#6cc27d" stroke-width="1" opacity="0.5"/>
    <text x="0" y="2" text-anchor="middle" style="fill:#6cc27d;font:700 7px Inter,sans-serif" opacity="0.5">1</text>
  </g>
  
  <!-- Pouch 2 (faded) -->
  <g transform="translate(-25 -38)">
    <ellipse cx="0" cy="0" rx="20" ry="6" fill="rgba(108,194,125,0.30)" stroke="#6cc27d" stroke-width="1" opacity="0.5"/>
    <text x="0" y="2" text-anchor="middle" style="fill:#6cc27d;font:700 7px Inter,sans-serif" opacity="0.5">2</text>
  </g>
  
  <!-- Pouch 3 - HIGHLIGHTED -->
  <g transform="translate(-25 -18)">
    <ellipse cx="0" cy="0" rx="22" ry="7" fill="rgba(232,169,81,0.55)" stroke="#e8a951" stroke-width="2"/>
    <text x="0" y="3" text-anchor="middle" style="fill:#0a0e1a;font:700 9px Inter,sans-serif">3</text>
  </g>
  
  <!-- Pouch 4 - HIGHLIGHTED -->
  <g transform="translate(-25 5)">
    <ellipse cx="0" cy="0" rx="22" ry="7" fill="rgba(232,169,81,0.55)" stroke="#e8a951" stroke-width="2"/>
    <text x="0" y="3" text-anchor="middle" style="fill:#0a0e1a;font:700 9px Inter,sans-serif">4</text>
  </g>
  
  <!-- Cardiac neural crest cells (purple dots migrating from above) -->
  <g fill="rgba(147,112,185,0.85)">
    <circle cx="-5" cy="-65" r="2.5"/>
    <circle cx="0" cy="-58" r="2.5"/>
    <circle cx="5" cy="-50" r="2.5"/>
    <circle cx="0" cy="-43" r="2.5"/>
    <circle cx="-5" cy="-35" r="2.5"/>
  </g>
  <text x="20" y="-58" style="fill:#9370b9;font:600 7px Inter,sans-serif">neural crest</text>
  
  <!-- Heart primordium below -->
  <g transform="translate(0 18)">
    <path d="M -8 -5 Q -16 -10 -16 0 Q -16 8 0 14 Q 16 8 16 0 Q 16 -10 8 -5 Z" 
          fill="rgba(209,72,89,0.55)" stroke="#d14859" stroke-width="1.4"/>
    <text x="0" y="3" text-anchor="middle" style="fill:#0a0e1a;font:700 7.5px Inter,sans-serif">HEART</text>
  </g>
</g>

<!-- Three derivatives on right with arrows -->
<g stroke="#e8a951" stroke-width="1.4" fill="none" stroke-dasharray="3 2" opacity="0.85">
  <!-- Pouch 3 → thymus + inf parathyroids -->
  <path d="M 165 122 L 280 95"/>
  <polygon points="280,95 274,90 273,98" fill="#e8a951"/>
  <path d="M 165 122 L 280 145"/>
  <polygon points="280,145 274,142 273,150" fill="#e8a951"/>
  <!-- Pouch 4 → sup parathyroids -->
  <path d="M 165 145 L 280 195"/>
  <polygon points="280,195 274,192 273,200" fill="#e8a951"/>
</g>

<!-- Derivatives panel -->
<g transform="translate(390 95)">
  <rect x="-100" y="-15" width="200" height="30" rx="6" fill="rgba(79,184,168,0.20)" stroke="#4fb8a8" stroke-width="1.4"/>
  <text x="0" y="-2" text-anchor="middle" style="fill:#4fb8a8;font:700 9px Inter,sans-serif;letter-spacing:1.2px">THYMUS</text>
  <text x="0" y="10" text-anchor="middle" style="fill:#b4becf;font:6.5px Inter,sans-serif">pouch 3 · T-cell maturation</text>
</g>

<g transform="translate(390 145)">
  <rect x="-100" y="-15" width="200" height="30" rx="6" fill="rgba(147,112,185,0.20)" stroke="#9370b9" stroke-width="1.4"/>
  <text x="0" y="-2" text-anchor="middle" style="fill:#9370b9;font:700 9px Inter,sans-serif;letter-spacing:1.2px">INFERIOR PARATHYROIDS</text>
  <text x="0" y="10" text-anchor="middle" style="fill:#b4becf;font:6.5px Inter,sans-serif">pouch 3 · PTH source</text>
</g>

<g transform="translate(390 195)">
  <rect x="-100" y="-15" width="200" height="30" rx="6" fill="rgba(147,112,185,0.20)" stroke="#9370b9" stroke-width="1.4"/>
  <text x="0" y="-2" text-anchor="middle" style="fill:#9370b9;font:700 9px Inter,sans-serif;letter-spacing:1.2px">SUPERIOR PARATHYROIDS</text>
  <text x="0" y="10" text-anchor="middle" style="fill:#b4becf;font:6.5px Inter,sans-serif">pouch 4 · PTH source</text>
</g>

<text x="250" y="245" text-anchor="middle" style="fill:#6b7689;font:italic 7.5px Fraunces,serif">Pouches 3+4 → thymus + parathyroids · neural crest from same region → heart outflow</text>

                  <!-- FOCUS · audio-aligned attention marker -->
                  <circle cx="135" cy="45" r="39" fill="none" stroke="#d14859" stroke-width="1.8" stroke-dasharray="3 2" opacity="0.85">
                    <animate attributeName="r" values="35;45;35" dur="2.4s" repeatCount="indefinite"/>
                    <animate attributeName="opacity" values="0.85;0.20;0.85" dur="2.4s" repeatCount="indefinite"/>
                  </circle>
</svg>
