<?xml version="1.0" encoding="UTF-8"?>
<!--
  Auto-generated from the reference HTML by
  scripts/storymode-extraction/extract.mjs.
  Do not edit by hand — regenerate the file instead.
-->
<svg xmlns="http://www.w3.org/2000/svg" xmlns:xlink="http://www.w3.org/1999/xlink" viewBox="0 0 500 260" preserveAspectRatio="xMidYMid meet">
                  <text x="20" y="16" style="fill:#e8a951;font:600 9px Inter,sans-serif;letter-spacing:2px">STEP 01 · VACCINE = VACCINIA · TARGET = VARIOLA</text>

                  <!-- Vaccinia (vaccine) on left -->
                  <g transform="translate(140 145)">
                    <text x="0" y="-65" text-anchor="middle" style="fill:#4fb8a8;font:700 10px Inter,sans-serif;letter-spacing:1.5px">VACCINIA · vaccine</text>
                    <g transform="translate(0 0)" opacity="1"><rect x="-30" y="-19" width="60" height="38" rx="6" fill="#4fb8a8" fill-opacity="0.65" stroke="#4fb8a8" stroke-width="1.5"></rect><g stroke="#4fb8a8" stroke-width="1.4" fill="none" opacity="0.4"><rect x="-24" y="-13" width="48" height="26" rx="4"></rect></g><g fill="#9370b9" fill-opacity="0.95" stroke="#9370b9" stroke-width="0.8"><rect x="-24" y="-25" width="6" height="8" rx="1"></rect><rect x="-10.2" y="-25" width="6" height="8" rx="1"></rect><rect x="4.2" y="-25" width="6" height="8" rx="1"></rect><rect x="18" y="-25" width="6" height="8" rx="1"></rect></g></g>
                    <text x="0" y="40" text-anchor="middle" style="fill:#b4becf;font:italic 7px Fraunces,serif">live virus given to patient</text>
                  </g>

                  <!-- Divider with question mark -->
                  <line x1="250" y1="80" x2="250" y2="200" stroke="#3a4358" stroke-width="0.8" stroke-dasharray="3 3"></line>

                  <!-- Variola (target) on right -->
                  <g transform="translate(360 145)">
                    <text x="0" y="-65" text-anchor="middle" style="fill:#d14859;font:700 10px Inter,sans-serif;letter-spacing:1.5px">VARIOLA · smallpox</text>
                    <g transform="translate(0 0)" opacity="1"><rect x="-30" y="-19" width="60" height="38" rx="6" fill="#d14859" fill-opacity="0.65" stroke="#d14859" stroke-width="1.5"></rect><g stroke="#d14859" stroke-width="1.4" fill="none" opacity="0.4"><rect x="-24" y="-13" width="48" height="26" rx="4"></rect></g><g fill="#9370b9" fill-opacity="0.95" stroke="#9370b9" stroke-width="0.8"><rect x="-24" y="-25" width="6" height="8" rx="1"></rect><rect x="-10.2" y="-25" width="6" height="8" rx="1"></rect><rect x="4.2" y="-25" width="6" height="8" rx="1"></rect><rect x="18" y="-25" width="6" height="8" rx="1"></rect></g></g>
                    <text x="0" y="40" text-anchor="middle" style="fill:#b4becf;font:italic 7px Fraunces,serif">the actual threat</text>
                  </g>

                  <text x="250" y="245" text-anchor="middle" style="fill:#b4becf;font:italic 7.5px Fraunces,serif">two different viruses · how does immunity to one protect against the other?</text>

                  <!-- FOCUS · audio-aligned attention marker -->
                  <circle cx="140" cy="180" r="40" fill="none" stroke="#d14859" stroke-width="1.8" stroke-dasharray="3 2" opacity="0.85">
                    <animate attributeName="r" values="36;46;36" dur="2.4s" repeatCount="indefinite"/>
                    <animate attributeName="opacity" values="0.85;0.20;0.85" dur="2.4s" repeatCount="indefinite"/>
                  </circle>
</svg>
