<?xml version="1.0" encoding="UTF-8"?>
<!--
  Auto-generated from the reference HTML by
  scripts/storymode-extraction/extract.mjs.
  Do not edit by hand — regenerate the file instead.
-->
<svg xmlns="http://www.w3.org/2000/svg" xmlns:xlink="http://www.w3.org/1999/xlink" viewBox="0 0 500 260" preserveAspectRatio="xMidYMid meet">
<text x="20" y="16" style="fill:#e8a951;font:600 9px Inter,sans-serif;letter-spacing:2px">STEP 02 · TYPE I · IgE CROSSLINK → DEGRANULATION</text>

<!-- Mast cell pre-armed (left) -->
<g transform="translate(120 145)">
  <text x="0" y="-72" text-anchor="middle" style="fill:#d14859;font:700 9px Inter,sans-serif;letter-spacing:1.5px">PRE-ARMED MAST CELL</text>
  
  <!-- Big mast cell -->
  <ellipse cx="0" cy="0" rx="42" ry="35" fill="rgba(209,72,89,0.30)" stroke="#d14859" stroke-width="1.8"/>
  <!-- Granules inside -->
  <g fill="#d14859" fill-opacity="0.85">
    <circle cx="-15" cy="-8" r="3"/>
    <circle cx="-5" cy="3" r="3"/>
    <circle cx="8" cy="-5" r="3"/>
    <circle cx="15" cy="8" r="3"/>
    <circle cx="-18" cy="10" r="3"/>
    <circle cx="0" cy="-15" r="3"/>
    <circle cx="20" cy="-8" r="3"/>
    <circle cx="-10" cy="15" r="3"/>
    <circle cx="10" cy="18" r="3"/>
  </g>
  <!-- FcεRI receptors with IgE pre-bound -->
  <g stroke="#e8a951" stroke-width="1.6" fill="none" stroke-linecap="round">
    <g transform="translate(-25 -25) rotate(-45)">
      <rect x="-3" y="-1" width="6" height="6" fill="rgba(147,112,185,0.95)" stroke="#9370b9" stroke-width="0.8" rx="1"/>
      <line x1="0" y1="-5" x2="0" y2="-1"/>
      <line x1="-3" y1="-9" x2="0" y2="-5"/>
      <line x1="3" y1="-9" x2="0" y2="-5"/>
    </g>
    <g transform="translate(0 -36)">
      <rect x="-3" y="-1" width="6" height="6" fill="rgba(147,112,185,0.95)" stroke="#9370b9" stroke-width="0.8" rx="1"/>
      <line x1="0" y1="-5" x2="0" y2="-1"/>
      <line x1="-3" y1="-9" x2="0" y2="-5"/>
      <line x1="3" y1="-9" x2="0" y2="-5"/>
    </g>
    <g transform="translate(25 -25) rotate(45)">
      <rect x="-3" y="-1" width="6" height="6" fill="rgba(147,112,185,0.95)" stroke="#9370b9" stroke-width="0.8" rx="1"/>
      <line x1="0" y1="-5" x2="0" y2="-1"/>
      <line x1="-3" y1="-9" x2="0" y2="-5"/>
      <line x1="3" y1="-9" x2="0" y2="-5"/>
    </g>
  </g>
  <text x="50" y="-20" style="fill:#9370b9;font:700 6.5px 'JetBrains Mono',monospace">FcεRI</text>
</g>

<!-- Allergen + crosslink -->
<g transform="translate(280 145)">
  <text x="0" y="-72" text-anchor="middle" style="fill:#e8a951;font:700 9px Inter,sans-serif;letter-spacing:1.5px">ALLERGEN CROSSLINKS</text>
  
  <!-- Two IgEs binding the same allergen -->
  <g stroke="#e8a951" stroke-width="1.8" fill="none" stroke-linecap="round">
    <g transform="translate(-15 0)">
      <line x1="-6" y1="-10" x2="-2" y2="0"/>
      <line x1="6" y1="-10" x2="2" y2="0"/>
      <line x1="0" y1="0" x2="0" y2="14"/>
    </g>
    <g transform="translate(15 0)">
      <line x1="-6" y1="-10" x2="-2" y2="0"/>
      <line x1="6" y1="-10" x2="2" y2="0"/>
      <line x1="0" y1="0" x2="0" y2="14"/>
    </g>
  </g>
  <!-- Allergen on top -->
  <ellipse cx="0" cy="-15" rx="22" ry="6" fill="rgba(209,72,89,0.85)" stroke="#d14859" stroke-width="1.4"/>
  <text x="0" y="-13" text-anchor="middle" style="fill:#0a0e1a;font:700 7px Inter,sans-serif">PEANUT</text>
</g>

<!-- Degranulation arrow -->
<g stroke="#e8a951" stroke-width="2.4" fill="none" marker-end="url(#arr11_1_2a)">
  <line x1="350" y1="145" x2="395" y2="145"/>
</g>
<defs>
  <marker id="arr11_1_2a" viewBox="0 0 10 10" refX="9" refY="5" markerWidth="7" markerHeight="7" orient="auto">
    <path d="M 0 0 L 10 5 L 0 10 z" fill="#e8a951"/>
  </marker>
</defs>

<!-- Released mediators -->
<g transform="translate(440 145)">
  <text x="0" y="-72" text-anchor="middle" style="fill:#d14859;font:700 9px Inter,sans-serif;letter-spacing:1.5px">DEGRANULATION</text>
  <g fill="#d14859" fill-opacity="0.85">
    <circle cx="0" cy="-15" r="3.5"/>
    <circle cx="-12" cy="-5" r="3.5"/>
    <circle cx="12" cy="-5" r="3.5"/>
    <circle cx="-8" cy="8" r="3.5"/>
    <circle cx="8" cy="8" r="3.5"/>
    <circle cx="0" cy="20" r="3.5"/>
  </g>
  <text x="0" y="40" text-anchor="middle" style="fill:#d14859;font:700 7.5px Inter,sans-serif;letter-spacing:1.2px">HISTAMINE</text>
  <text x="0" y="52" text-anchor="middle" style="fill:#b4becf;font:7px Inter,sans-serif">tryptase · LTs</text>
</g>

<text x="250" y="245" text-anchor="middle" style="fill:#6b7689;font:italic 7.5px Fraunces,serif">Pre-bound IgE + 1 allergen molecule = bridges 2 IgEs = signal</text>

                  <!-- FOCUS · audio-aligned attention marker -->
                  <circle cx="280" cy="68" r="28" fill="none" stroke="#d14859" stroke-width="1.8" stroke-dasharray="3 2" opacity="0.85">
                    <animate attributeName="r" values="24;34;24" dur="2.4s" repeatCount="indefinite"/>
                    <animate attributeName="opacity" values="0.85;0.20;0.85" dur="2.4s" repeatCount="indefinite"/>
                  </circle>
</svg>
