<?xml version="1.0" encoding="UTF-8"?>
<!--
  Auto-generated from the reference HTML by
  scripts/storymode-extraction/extract.mjs.
  Do not edit by hand — regenerate the file instead.
-->
<svg xmlns="http://www.w3.org/2000/svg" xmlns:xlink="http://www.w3.org/1999/xlink" viewBox="0 0 500 260" preserveAspectRatio="xMidYMid meet">
                  <text x="20" y="22" style="fill:#e8a951;font:600 10px Inter,sans-serif;letter-spacing:2px">STEP 09 · Th1 TCR RECOGNIZES</text>

                  <g opacity="1"><circle cx="140" cy="145" r="50" fill="#9370b9" fill-opacity="0.30" stroke="#9370b9" stroke-width="1.8"></circle><path d="M 110 130 Q 105 140 110 155 Q 120 165 135 160 Q 130 145 135 130 Q 120 122 110 130 Z" fill="#4a2d60" opacity="0.70"></path>
                      <g fill="#d14859" opacity="0.9" stroke="#d14859" stroke-width="1">
                        <rect x="155" y="135" width="14" height="6" rx="2"></rect>
                        <rect x="160" y="160" width="14" height="6" rx="2"></rect>
                        <rect x="148" y="170" width="14" height="6" rx="2"></rect>
                        <rect x="135" y="180" width="14" height="6" rx="2"></rect>
                      </g>
                    <ellipse cx="162" cy="138" rx="14" ry="9" fill="none" stroke="#9370b9" stroke-width="1" stroke-dasharray="2 2" opacity="0.7"></ellipse>
                      <g transform="translate(190 130) rotate(90)">
                        <path d="M -12 0 L 12 0 L 14 8 L 7 8 L 5 4 L -5 4 L -7 8 L -14 8 Z" fill="#4fb8a8" fill-opacity="0.85" stroke="#4fb8a8" stroke-width="1.2"></path>
                        <circle cx="-3" cy="-2.5" r="2" fill="#d14859"></circle>
                        <circle cx="0" cy="-2.5" r="2" fill="#d14859"></circle>
                        <circle cx="3" cy="-2.5" r="2" fill="#d14859"></circle>
                      </g>
                    </g><text x="140" y="210" text-anchor="middle" style="fill:#9370b9;font:600 8px Inter,sans-serif;letter-spacing:1.2px">INFECTED MACROPHAGE</text><g opacity="1"><circle cx="380" cy="145" r="38" fill="#6cc27d" fill-opacity="0.35" stroke="#6cc27d" stroke-width="1.8"></circle><ellipse cx="375" cy="142" rx="10" ry="8" fill="#4a2d60" opacity="0.75"></ellipse><text x="383" y="146" text-anchor="middle" style="fill:#e8ecf3;font:600 9px Inter,sans-serif">CD4</text>
                      <g transform="translate(342 145)">
                        <path d="M 0 0 L 12 -8 L 12 8 Z" fill="#4fb8a8" opacity="0.95" transform="rotate(180)"></path>
                        <text x="-3" y="-12" text-anchor="end" style="fill:#4fb8a8;font:600 8px Inter,sans-serif">TCR</text>
                      </g>
                    <text x="380" y="200" text-anchor="middle" style="fill:#6cc27d;font:600 8px Inter,sans-serif;letter-spacing:1.2px">CD4 Th1</text></g>
                      <path d="M 200 135 L 340 140" stroke="#4fb8a8" stroke-width="1.4" fill="none" stroke-dasharray="3 2"></path>
                      <text x="270" y="125" text-anchor="middle" style="fill:#4fb8a8;font:600 7px Inter,sans-serif;letter-spacing:1.5px">TCR ↔ CLASS II</text>
    

                  <text x="250" y="252" text-anchor="middle" style="fill:#b4becf;font:italic 10px Fraunces,serif">Th1 TCR + Class II + bacterial peptide = engagement</text>

                  <!-- FOCUS · audio-aligned attention marker -->
                  <circle cx="380" cy="195" r="20" fill="none" stroke="#d14859" stroke-width="1.8" stroke-dasharray="3 2" opacity="0.85">
                    <animate attributeName="r" values="16;26;16" dur="2.4s" repeatCount="indefinite"/>
                    <animate attributeName="opacity" values="0.85;0.20;0.85" dur="2.4s" repeatCount="indefinite"/>
                  </circle>
</svg>
