<?xml version="1.0" encoding="UTF-8"?>
<!--
  Auto-generated from the reference HTML by
  scripts/storymode-extraction/extract.mjs.
  Do not edit by hand — regenerate the file instead.
-->
<svg xmlns="http://www.w3.org/2000/svg" xmlns:xlink="http://www.w3.org/1999/xlink" viewBox="0 0 500 260" preserveAspectRatio="xMidYMid meet">
                  <text x="20" y="22" style="fill:#e8a951;font:600 10px Inter,sans-serif;letter-spacing:2px">STEP 14 · DIAGNOSIS · BARE LYMPHOCYTE SYNDROME I</text>

                  <!-- ghosted canvas -->
                  <g opacity="0.40">
    
                    <line x1="40" y1="58" x2="460" y2="58" stroke="#4fb8a8" stroke-width="2" opacity="0.6"></line>
                    <line x1="40" y1="62" x2="460" y2="62" stroke="#4fb8a8" stroke-width="2" opacity="0.6"></line>
                    <text x="44" y="52" style="fill:#b4becf;font:600 7px Inter,sans-serif;letter-spacing:1.5px">CELL SURFACE</text>
                  <rect x="40" y="62" width="420" height="170" rx="0" fill="#4fb8a8" fill-opacity="0.04"></rect><text x="44" y="78" style="fill:#b4becf;font:600 7px Inter,sans-serif;letter-spacing:1.5px">CYTOPLASM</text>
                    <rect x="140" y="140" width="220" height="80" rx="14" fill="#9370b9" fill-opacity="0.10" stroke="#9370b9" stroke-width="1.4"></rect>
                    <text x="148" y="156" style="fill:#9370b9;font:600 7px Inter,sans-serif;letter-spacing:1.5px">ER LUMEN</text>
  
                      <g transform="translate(80 105)">
                        <!-- proteasome as stacked rings -->
                        <rect x="-12" y="-10" width="24" height="6" rx="2" fill="#6cc27d" opacity="0.55" stroke="#6cc27d" stroke-width="1"></rect>
                        <rect x="-12" y="-3" width="24" height="6" rx="2" fill="#6cc27d" opacity="0.65" stroke="#6cc27d" stroke-width="1"></rect>
                        <rect x="-12" y="4" width="24" height="6" rx="2" fill="#6cc27d" opacity="0.55" stroke="#6cc27d" stroke-width="1"></rect>
                        <text x="0" y="22" text-anchor="middle" style="fill:#6cc27d;font:600 7px Inter,sans-serif;letter-spacing:1px">PROTEASOME</text>
                      </g>
    
                      <g transform="translate(250 140)">
                        <!-- transporter body: barrel shape spanning the membrane -->
                        <rect x="-14" y="-14" width="28" height="28" rx="4" fill="#6b7689" fill-opacity="0.4" stroke="#6b7689" stroke-width="1.6"></rect>
                        <!-- internal channel -->
                        <rect x="-3" y="-12" width="6" height="24" fill="#0a0e1a" opacity="0.5"></rect>
                        <text x="0" y="3" text-anchor="middle" style="fill:#e8ecf3;font:700 8px Inter,sans-serif">TAP</text>
                      </g>
    
                        <g transform="translate(250 140)">
                          <line x1="-18" y1="-18" x2="18" y2="18" stroke="#d14859" stroke-width="3" stroke-linecap="round"></line>
                          <line x1="-18" y1="18" x2="18" y2="-18" stroke="#d14859" stroke-width="3" stroke-linecap="round"></line>
                        </g>
      
                      <g transform="translate(120 50)" opacity="0.5">
                        <path d="M -14 0 L 14 0 L 16 10 L 9 10 L 7 4 L -7 4 L -9 10 L -16 10 Z" fill="none" stroke="#6b7689" stroke-width="1" stroke-dasharray="2 2"></path>
                      </g>
    
                      <g transform="translate(210 50)" opacity="0.5">
                        <path d="M -14 0 L 14 0 L 16 10 L 9 10 L 7 4 L -7 4 L -9 10 L -16 10 Z" fill="none" stroke="#6b7689" stroke-width="1" stroke-dasharray="2 2"></path>
                      </g>
    
                      <g transform="translate(290 50)" opacity="0.5">
                        <path d="M -14 0 L 14 0 L 16 10 L 9 10 L 7 4 L -7 4 L -9 10 L -16 10 Z" fill="none" stroke="#6b7689" stroke-width="1" stroke-dasharray="2 2"></path>
                      </g>
    
                      <g transform="translate(380 50)" opacity="0.5">
                        <path d="M -14 0 L 14 0 L 16 10 L 9 10 L 7 4 L -7 4 L -9 10 L -16 10 Z" fill="none" stroke="#6b7689" stroke-width="1" stroke-dasharray="2 2"></path>
                      </g>
    
                      <g transform="translate(420 30)" opacity="0.6">
                        <circle cx="0" cy="0" r="22" fill="#6cc27d" fill-opacity="0.32" stroke="#6cc27d" stroke-width="1.6"></circle>
                        <ellipse cx="-3" cy="-2" rx="6" ry="4" fill="#1a2030" opacity="0.7"></ellipse>
                        <text x="0" y="35" text-anchor="middle" style="fill:#6cc27d;font:600 8px Inter,sans-serif;letter-spacing:1.5px">CD8</text>
                        <!-- TCR pointing down toward surface -->
                        <path d="M 0 22 L -7 30 L 7 30 Z" fill="#e8a951" opacity="0.4"></path>
                      </g>
                    <text x="385" y="38" style="fill:#d14859;font:700 12px Inter,sans-serif">?</text>
                  </g>

                  <!-- BLS-I diagnosis pill -->
                  <g transform="translate(250 145)">
                    <rect x="-145" y="-22" width="290" height="44" rx="10" fill="#e8a951" fill-opacity="0.32" stroke="#e8a951" stroke-width="2.4"></rect>
                    <text x="0" y="3" text-anchor="middle" style="fill:#e8a951;font:700 13px Inter,sans-serif;letter-spacing:2px">BARE LYMPHOCYTE SYNDROME I</text>
                    <text x="0" y="18" text-anchor="middle" style="fill:#b4becf;font:italic 9px Fraunces,serif">TAP1 / TAP2 mutation</text>
                  </g>

                  <text x="250" y="252" text-anchor="middle" style="fill:#b4becf;font:italic 10px Fraunces,serif">a named syndrome — the cell surface goes "bare" of Class I</text>
              
                  
              
                  <!-- FOCUS · audio-aligned attention marker -->
                  <circle cx="250" cy="143" r="39" fill="none" stroke="#d14859" stroke-width="1.8" stroke-dasharray="3 2" opacity="0.85">
                    <animate attributeName="r" values="35;45;35" dur="2.4s" repeatCount="indefinite"/>
                    <animate attributeName="opacity" values="0.85;0.20;0.85" dur="2.4s" repeatCount="indefinite"/>
                  </circle>

                  <!-- FOCUS · audio-aligned attention marker -->
                  <circle cx="250" cy="158" r="30" fill="none" stroke="#d14859" stroke-width="1.8" stroke-dasharray="3 2" opacity="0.85">
                    <animate attributeName="r" values="26;36;26" dur="2.4s" repeatCount="indefinite"/>
                    <animate attributeName="opacity" values="0.85;0.20;0.85" dur="2.4s" repeatCount="indefinite"/>
                  </circle>
              </svg>
