<?xml version="1.0" encoding="UTF-8"?>
<!--
  Auto-generated from the reference HTML by
  scripts/storymode-extraction/extract.mjs.
  Do not edit by hand — regenerate the file instead.
-->
<svg xmlns="http://www.w3.org/2000/svg" xmlns:xlink="http://www.w3.org/1999/xlink" viewBox="0 0 500 260" preserveAspectRatio="xMidYMid meet">
<text x="20" y="16" style="fill:#e8a951;font:600 9px Inter,sans-serif;letter-spacing:2px">STEP 06 · B BINDS PRP · INTERNALIZES · MHC II</text>

<!-- Step a: BCR binds PRP -->
<g transform="translate(95 145)">
  <text x="0" y="-72" text-anchor="middle" style="fill:#b4becf;font:700 8px Inter,sans-serif;letter-spacing:1.2px">a · BCR BINDS PRP</text>
  <g transform="translate(0 -45)">
    <ellipse cx="0" cy="0" rx="14" ry="9" fill="rgba(147,112,185,0.65)" stroke="#9370b9" stroke-width="1.2"/>
    <g fill="#4fb8a8" fill-opacity="0.95">
      <circle cx="-12" cy="-9" r="3"/>
      <circle cx="0" cy="-13" r="3"/>
      <circle cx="12" cy="-9" r="3"/>
    </g>
  </g>
  <circle cx="0" cy="0" r="32" fill="rgba(147,112,185,0.30)" stroke="#9370b9" stroke-width="1.6"/>
  <ellipse cx="-3" cy="-1" rx="8" ry="6" fill="#4a2d60" opacity="0.7"/>
  <text x="0" y="3" text-anchor="middle" style="fill:#e8ecf3;font:700 9px Inter,sans-serif">B</text>
  <g stroke="#e8a951" stroke-width="2" fill="none" stroke-linecap="round">
    <line x1="0" y1="-32" x2="0" y2="-40"/>
    <line x1="-5" y1="-44" x2="0" y2="-40"/>
    <line x1="5" y1="-44" x2="0" y2="-40"/>
  </g>
</g>

<g stroke="#e8a951" stroke-width="2" fill="none" marker-end="url(#arr9_2_6a)">
  <line x1="148" y1="145" x2="195" y2="145"/>
</g>
<defs>
  <marker id="arr9_2_6a" viewBox="0 0 10 10" refX="9" refY="5" markerWidth="7" markerHeight="7" orient="auto">
    <path d="M 0 0 L 10 5 L 0 10 z" fill="#e8a951"/>
  </marker>
</defs>

<!-- Step b: Internalize + process -->
<g transform="translate(250 145)">
  <text x="0" y="-72" text-anchor="middle" style="fill:#b4becf;font:700 8px Inter,sans-serif;letter-spacing:1.2px">b · PROCESS</text>
  <circle cx="0" cy="0" r="38" fill="rgba(147,112,185,0.30)" stroke="#9370b9" stroke-width="1.6"/>
  <ellipse cx="-5" cy="-2" rx="10" ry="8" fill="#4a2d60" opacity="0.7"/>
  <!-- Conjugate inside being chopped -->
  <g transform="translate(12 6)">
    <ellipse cx="0" cy="0" rx="10" ry="6" fill="rgba(147,112,185,0.65)"/>
    <line x1="-12" y1="0" x2="-7" y2="-5" stroke="#d14859" stroke-width="1.5"/>
    <line x1="-12" y1="3" x2="-7" y2="-2" stroke="#d14859" stroke-width="1.5"/>
    <line x1="12" y1="0" x2="7" y2="-5" stroke="#d14859" stroke-width="1.5"/>
    <line x1="12" y1="3" x2="7" y2="-2" stroke="#d14859" stroke-width="1.5"/>
    <rect x="-3" y="-12" width="6" height="3" fill="#e8a951"/>
  </g>
</g>

<g stroke="#e8a951" stroke-width="2" fill="none" marker-end="url(#arr9_2_6a)">
  <line x1="305" y1="145" x2="350" y2="145"/>
</g>

<!-- Step c: Display peptide on MHC II -->
<g transform="translate(405 145)">
  <text x="0" y="-72" text-anchor="middle" style="fill:#b4becf;font:700 8px Inter,sans-serif;letter-spacing:1.2px">c · MHC II DISPLAY</text>
  <circle cx="0" cy="0" r="36" fill="rgba(147,112,185,0.30)" stroke="#9370b9" stroke-width="1.6"/>
  <ellipse cx="-5" cy="-2" rx="10" ry="8" fill="#4a2d60" opacity="0.7"/>
  <!-- MHC II + peptide on top -->
  <g transform="translate(0 -36)">
    <path d="M -10 8 L -10 -2 L -3 -2 L -3 -7 L 3 -7 L 3 -2 L 10 -2 L 10 8 Z" fill="#9370b9" fill-opacity="0.95" stroke="#9370b9" stroke-width="1.4"/>
    <rect x="-3" y="-6" width="6" height="3" fill="#e8a951" stroke="#e8a951"/>
    <text x="20" y="-6" style="fill:#9370b9;font:700 6.5px 'JetBrains Mono',monospace">MHC II</text>
    <text x="20" y="4" style="fill:#e8a951;font:700 6.5px 'JetBrains Mono',monospace">+ peptide</text>
  </g>
</g>

<text x="250" y="240" text-anchor="middle" style="fill:#6b7689;font:italic 7.5px Fraunces,serif">B cell shows CARRIER peptide on MHC II — even though BCR is PRP-specific</text>

                  <!-- FOCUS · audio-aligned attention marker -->
                  <circle cx="425" cy="108" r="20" fill="none" stroke="#d14859" stroke-width="1.8" stroke-dasharray="3 2" opacity="0.85">
                    <animate attributeName="r" values="16;26;16" dur="2.4s" repeatCount="indefinite"/>
                    <animate attributeName="opacity" values="0.85;0.20;0.85" dur="2.4s" repeatCount="indefinite"/>
                  </circle>

                  <!-- FOCUS · audio-aligned attention marker -->
                  <circle cx="425" cy="98" r="20" fill="none" stroke="#d14859" stroke-width="1.8" stroke-dasharray="3 2" opacity="0.85">
                    <animate attributeName="r" values="16;26;16" dur="2.4s" repeatCount="indefinite"/>
                    <animate attributeName="opacity" values="0.85;0.20;0.85" dur="2.4s" repeatCount="indefinite"/>
                  </circle>
</svg>
