<?xml version="1.0" encoding="UTF-8"?>
<!--
  Auto-generated from the reference HTML by
  scripts/storymode-extraction/extract.mjs.
  Do not edit by hand — regenerate the file instead.
-->
<svg xmlns="http://www.w3.org/2000/svg" xmlns:xlink="http://www.w3.org/1999/xlink" viewBox="0 0 500 260" preserveAspectRatio="xMidYMid meet">
                <text x="20" y="26" style="fill:#e8a951;font:600 10px Inter,sans-serif;letter-spacing:2px">CD4 RECOGNITION REQUIREMENT</text>
                <line x1="40" y1="95" x2="220" y2="95" stroke="#4fb8a8" stroke-width="2" opacity="0.5"/>
                <text x="40" y="85" style="fill:#b4becf;font:10px Inter,sans-serif">APC</text>
                <g transform="translate(130 95)">
                  <path d="M -22 8 L 22 8 L 24 20 L 14 20 L 11 14 L -11 14 L -14 20 L -22 20 Z" fill="#4fb8a8" opacity="0.75" stroke="#4fb8a8" stroke-width="1.5"/>
                  <g transform="translate(0 6)" fill="#d14859"><circle cx="-7" cy="0" r="2.5"/><circle cx="0" cy="0" r="2.5"/><circle cx="7" cy="0" r="2.5"/></g>
                </g>
                <g transform="translate(330 170)">
                  <circle cx="0" cy="0" r="32" fill="#6cc27d" opacity="0.35" stroke="#6cc27d" stroke-width="1.5"/>
                  <text x="0" y="3" text-anchor="middle" style="fill:#e8ecf3;font:600 10px Inter,sans-serif">CD4</text>
                  <g transform="translate(-32 -10)"><path d="M 0 -6 L -14 -10 L -14 10 L 0 6 Z" fill="#e8a951" opacity="0.8"/></g>
                </g>
                <path d="M 295 158 L 160 115" stroke="#e8a951" stroke-width="1.3" stroke-dasharray="3 2" fill="none"/>
                <text x="250" y="240" text-anchor="middle" style="fill:#b4becf;font:italic 11px Fraunces,serif">requires a peptide in the Class II groove</text>

                  <!-- FOCUS · audio-aligned attention marker -->
                  <circle cx="40" cy="80" r="20" fill="none" stroke="#d14859" stroke-width="1.8" stroke-dasharray="3 2" opacity="0.85">
                    <animate attributeName="r" values="16;26;16" dur="2.4s" repeatCount="indefinite"/>
                    <animate attributeName="opacity" values="0.85;0.20;0.85" dur="2.4s" repeatCount="indefinite"/>
                  </circle>
</svg>
