<?xml version="1.0" encoding="UTF-8"?>
<!--
  Auto-generated from the reference HTML by
  scripts/storymode-extraction/extract.mjs.
  Do not edit by hand — regenerate the file instead.
-->
<svg xmlns="http://www.w3.org/2000/svg" xmlns:xlink="http://www.w3.org/1999/xlink" viewBox="0 0 500 260" preserveAspectRatio="xMidYMid meet">
                  <text x="20" y="22" style="fill:#e8a951;font:600 10px Inter,sans-serif;letter-spacing:2px">STEP 06 · WHY NOT D · MUCOCILIARY ESCALATOR</text>

                  <!-- Bronchial epithelium with cilia + alveolus below -->
                  <g transform="translate(250 90)">
                    <text x="0" y="-15" text-anchor="middle" style="fill:#b4becf;font:600 8px Inter,sans-serif;letter-spacing:1.5px">AIRWAY (BRONCHUS)</text>
                    <!-- Epithelium row — series of vertical rectangles -->
                    <g fill="#b4becf" fill-opacity="0.40" stroke="#b4becf" stroke-width="1">
                      <rect x="-100" y="0" width="20" height="35" rx="2"></rect>
                      <rect x="-78" y="0" width="20" height="35" rx="2"></rect>
                      <rect x="-56" y="0" width="20" height="35" rx="2"></rect>
                      <rect x="-34" y="0" width="20" height="35" rx="2"></rect>
                      <rect x="-12" y="0" width="20" height="35" rx="2"></rect>
                      <rect x="10" y="0" width="20" height="35" rx="2"></rect>
                      <rect x="32" y="0" width="20" height="35" rx="2"></rect>
                      <rect x="54" y="0" width="20" height="35" rx="2"></rect>
                      <rect x="76" y="0" width="20" height="35" rx="2"></rect>
                    </g>
                    <!-- Cilia (small lines on top) -->
                    <g stroke="#e8a951" stroke-width="1.2" fill="none">
                      <line x1="-92" y1="0" x2="-92" y2="-8"></line>
                      <line x1="-86" y1="0" x2="-86" y2="-7"></line>
                      <line x1="-70" y1="0" x2="-70" y2="-8"></line>
                      <line x1="-64" y1="0" x2="-64" y2="-7"></line>
                      <line x1="-48" y1="0" x2="-48" y2="-8"></line>
                      <line x1="-42" y1="0" x2="-42" y2="-7"></line>
                      <line x1="-26" y1="0" x2="-26" y2="-8"></line>
                      <line x1="-20" y1="0" x2="-20" y2="-7"></line>
                      <line x1="-4" y1="0" x2="-4" y2="-8"></line>
                      <line x1="2" y1="0" x2="2" y2="-7"></line>
                      <line x1="18" y1="0" x2="18" y2="-8"></line>
                      <line x1="24" y1="0" x2="24" y2="-7"></line>
                      <line x1="40" y1="0" x2="40" y2="-8"></line>
                      <line x1="46" y1="0" x2="46" y2="-7"></line>
                      <line x1="62" y1="0" x2="62" y2="-8"></line>
                      <line x1="68" y1="0" x2="68" y2="-7"></line>
                      <line x1="84" y1="0" x2="84" y2="-8"></line>
                      <line x1="90" y1="0" x2="90" y2="-7"></line>
                    </g>
                    <!-- mucus arrow (clears upward / outward) -->
                    <path d="M -110 -22 L 110 -22" stroke="#6cc27d" stroke-width="1.6" fill="none" stroke-dasharray="4 3"></path>
                    <polygon points="110,-22 102,-26 102,-18" fill="#6cc27d"></polygon>
                    <text x="0" y="-30" text-anchor="middle" style="fill:#6cc27d;font:italic 7px Fraunces,serif">mucus + debris cleared up and out</text>
                  </g>

                  <!-- Alveolus below — where Legionella is -->
                  <g transform="translate(250 195)">
                    <circle cx="0" cy="0" r="32" fill="#9370b9" fill-opacity="0.15" stroke="#9370b9" stroke-width="1.5" stroke-dasharray="3 2"></circle>
                    <text x="0" y="-40" text-anchor="middle" style="fill:#9370b9;font:600 8px Inter,sans-serif;letter-spacing:1.5px">ALVEOLUS</text>
                    <!-- Legionella inside alveolus -->
                    <g fill="#d14859" opacity="0.85">
                      <rect x="-10" y="-3" width="14" height="6" rx="2"></rect>
                      <rect x="-2" y="6" width="14" height="6" rx="2"></rect>
                    </g>
                  </g>

                  <!-- Cilia don't reach the alveolus — visualize a barrier -->
                  <line x1="100" y1="160" x2="400" y2="160" stroke="#3a4358" stroke-width="1" stroke-dasharray="3 2"></line>
                  <text x="450" y="158" text-anchor="end" style="fill:#3a4358;font:italic 7px Fraunces,serif">no cilia below</text>

                  <text x="250" y="252" text-anchor="middle" style="fill:#b4becf;font:italic 10px Fraunces,serif">cilia clear airways · bacteria deep in alveoli are out of reach</text>

                  <!-- FOCUS · audio-aligned attention marker -->
                  <circle cx="250" cy="55" r="40" fill="none" stroke="#d14859" stroke-width="1.8" stroke-dasharray="3 2" opacity="0.85">
                    <animate attributeName="r" values="36;46;36" dur="2.4s" repeatCount="indefinite"/>
                    <animate attributeName="opacity" values="0.85;0.20;0.85" dur="2.4s" repeatCount="indefinite"/>
                  </circle>

                  <!-- FOCUS · audio-aligned attention marker -->
                  <circle cx="250" cy="70" r="26" fill="none" stroke="#d14859" stroke-width="1.8" stroke-dasharray="3 2" opacity="0.85">
                    <animate attributeName="r" values="22;32;22" dur="2.4s" repeatCount="indefinite"/>
                    <animate attributeName="opacity" values="0.85;0.20;0.85" dur="2.4s" repeatCount="indefinite"/>
                  </circle>

                  <!-- FOCUS · audio-aligned attention marker -->
                  <circle cx="450" cy="153" r="21" fill="none" stroke="#d14859" stroke-width="1.8" stroke-dasharray="3 2" opacity="0.85">
                    <animate attributeName="r" values="17;27;17" dur="2.4s" repeatCount="indefinite"/>
                    <animate attributeName="opacity" values="0.85;0.20;0.85" dur="2.4s" repeatCount="indefinite"/>
                  </circle>
</svg>
