<?xml version="1.0" encoding="UTF-8"?>
<!--
  Auto-generated from the reference HTML by
  scripts/storymode-extraction/extract.mjs.
  Do not edit by hand — regenerate the file instead.
-->
<svg xmlns="http://www.w3.org/2000/svg" xmlns:xlink="http://www.w3.org/1999/xlink" viewBox="0 0 500 260" preserveAspectRatio="xMidYMid meet">
                  <text x="20" y="16" style="fill:#e8a951;font:600 9px Inter,sans-serif;letter-spacing:2px">STEP 02 · STABLE INTEGRATION · DURABLE CURE</text>

                  <!-- Single chromosome at center with vector inserted -->
                  <text x="250" y="65" text-anchor="middle" style="fill:#9370b9;font:700 9px Inter,sans-serif;letter-spacing:1.5px">HOST CHROMOSOME</text>

                  <g transform="translate(250 110)" opacity="1"><line x1="-180" y1="-1" x2="180" y2="-1" stroke="#9370b9" stroke-width="1.4" opacity="0.6"></line><line x1="-180" y1="3" x2="180" y2="3" stroke="#9370b9" stroke-width="1.4" opacity="0.6"></line><g stroke="#9370b9" stroke-width="0.6" opacity="0.4"><line x1="-176" y1="-1" x2="-176" y2="3"></line><line x1="-164" y1="-1" x2="-164" y2="3"></line><line x1="-152" y1="-1" x2="-152" y2="3"></line><line x1="-140" y1="-1" x2="-140" y2="3"></line><line x1="-128" y1="-1" x2="-128" y2="3"></line><line x1="-116" y1="-1" x2="-116" y2="3"></line><line x1="-104" y1="-1" x2="-104" y2="3"></line><line x1="-92" y1="-1" x2="-92" y2="3"></line><line x1="-80" y1="-1" x2="-80" y2="3"></line><line x1="-68" y1="-1" x2="-68" y2="3"></line><line x1="-56" y1="-1" x2="-56" y2="3"></line><line x1="-44" y1="-1" x2="-44" y2="3"></line><line x1="-32" y1="-1" x2="-32" y2="3"></line><line x1="-20" y1="-1" x2="-20" y2="3"></line><line x1="-8" y1="-1" x2="-8" y2="3"></line><line x1="4" y1="-1" x2="4" y2="3"></line><line x1="16" y1="-1" x2="16" y2="3"></line><line x1="28" y1="-1" x2="28" y2="3"></line><line x1="40" y1="-1" x2="40" y2="3"></line><line x1="52" y1="-1" x2="52" y2="3"></line><line x1="64" y1="-1" x2="64" y2="3"></line><line x1="76" y1="-1" x2="76" y2="3"></line><line x1="88" y1="-1" x2="88" y2="3"></line><line x1="100" y1="-1" x2="100" y2="3"></line><line x1="112" y1="-1" x2="112" y2="3"></line><line x1="124" y1="-1" x2="124" y2="3"></line><line x1="136" y1="-1" x2="136" y2="3"></line><line x1="148" y1="-1" x2="148" y2="3"></line><line x1="160" y1="-1" x2="160" y2="3"></line><line x1="172" y1="-1" x2="172" y2="3"></line></g><rect x="-128" y="-6" width="16" height="14" rx="1.5" fill="#6b7689" fill-opacity="0.65" stroke="#6b7689" stroke-width="0.8"></rect><rect x="-68" y="-6" width="16" height="14" rx="1.5" fill="#6b7689" fill-opacity="0.65" stroke="#6b7689" stroke-width="0.8"></rect><rect x="52" y="-6" width="16" height="14" rx="1.5" fill="#6b7689" fill-opacity="0.65" stroke="#6b7689" stroke-width="0.8"></rect><rect x="112" y="-6" width="16" height="14" rx="1.5" fill="#6b7689" fill-opacity="0.65" stroke="#6b7689" stroke-width="0.8"></rect><rect x="-28" y="-9" width="14" height="20" rx="2" fill="#e8a951" fill-opacity="0.70" stroke="#e8a951" stroke-width="1.4"></rect><text x="-21" y="3" text-anchor="middle" style="fill:#0a0e1a;font:700 6px Inter,sans-serif">LTR</text><rect x="-13" y="-7" width="26" height="16" rx="2" fill="#4fb8a8" fill-opacity="0.70" stroke="#4fb8a8" stroke-width="1.4"></rect><text x="0" y="3" text-anchor="middle" style="fill:#0a0e1a;font:700 7px Inter,sans-serif">ADA</text><rect x="14" y="-9" width="14" height="20" rx="2" fill="#e8a951" fill-opacity="0.70" stroke="#e8a951" stroke-width="1.4"></rect><text x="21" y="3" text-anchor="middle" style="fill:#0a0e1a;font:700 6px Inter,sans-serif">LTR</text></g>

                  <!-- Down arrow showing inheritance -->
                  <g transform="translate(250 145)">
                    <line x1="0" y1="0" x2="0" y2="20" stroke="#e8a951" stroke-width="1.6"></line>
                    <polygon points="0,20 -4,13 4,13" fill="#e8a951"></polygon>
                    <text x="55" y="14" style="fill:#e8a951;font:600 7px Inter,sans-serif;letter-spacing:1.2px">CELL DIVISION</text>
                  </g>

                  <!-- Two daughter chromosomes both carrying the integrated vector -->
                  <g transform="translate(140 195)" opacity="1"><line x1="-100" y1="-1" x2="100" y2="-1" stroke="#9370b9" stroke-width="1.4" opacity="0.6"></line><line x1="-100" y1="3" x2="100" y2="3" stroke="#9370b9" stroke-width="1.4" opacity="0.6"></line><g stroke="#9370b9" stroke-width="0.6" opacity="0.4"><line x1="-96" y1="-1" x2="-96" y2="3"></line><line x1="-89.3" y1="-1" x2="-89.3" y2="3"></line><line x1="-82.7" y1="-1" x2="-82.7" y2="3"></line><line x1="-76" y1="-1" x2="-76" y2="3"></line><line x1="-69.3" y1="-1" x2="-69.3" y2="3"></line><line x1="-62.7" y1="-1" x2="-62.7" y2="3"></line><line x1="-56" y1="-1" x2="-56" y2="3"></line><line x1="-49.3" y1="-1" x2="-49.3" y2="3"></line><line x1="-42.7" y1="-1" x2="-42.7" y2="3"></line><line x1="-36" y1="-1" x2="-36" y2="3"></line><line x1="-29.3" y1="-1" x2="-29.3" y2="3"></line><line x1="-22.7" y1="-1" x2="-22.7" y2="3"></line><line x1="-16" y1="-1" x2="-16" y2="3"></line><line x1="-9.3" y1="-1" x2="-9.3" y2="3"></line><line x1="-2.7" y1="-1" x2="-2.7" y2="3"></line><line x1="4" y1="-1" x2="4" y2="3"></line><line x1="10.7" y1="-1" x2="10.7" y2="3"></line><line x1="17.3" y1="-1" x2="17.3" y2="3"></line><line x1="24" y1="-1" x2="24" y2="3"></line><line x1="30.7" y1="-1" x2="30.7" y2="3"></line><line x1="37.3" y1="-1" x2="37.3" y2="3"></line><line x1="44" y1="-1" x2="44" y2="3"></line><line x1="50.7" y1="-1" x2="50.7" y2="3"></line><line x1="57.3" y1="-1" x2="57.3" y2="3"></line><line x1="64" y1="-1" x2="64" y2="3"></line><line x1="70.7" y1="-1" x2="70.7" y2="3"></line><line x1="77.3" y1="-1" x2="77.3" y2="3"></line><line x1="84" y1="-1" x2="84" y2="3"></line><line x1="90.7" y1="-1" x2="90.7" y2="3"></line><line x1="97.3" y1="-1" x2="97.3" y2="3"></line></g><rect x="-68" y="-6" width="16" height="14" rx="1.5" fill="#6b7689" fill-opacity="0.65" stroke="#6b7689" stroke-width="0.8"></rect><rect x="52" y="-6" width="16" height="14" rx="1.5" fill="#6b7689" fill-opacity="0.65" stroke="#6b7689" stroke-width="0.8"></rect><rect x="-28" y="-9" width="14" height="20" rx="2" fill="#e8a951" fill-opacity="0.70" stroke="#e8a951" stroke-width="1.4"></rect><text x="-21" y="3" text-anchor="middle" style="fill:#0a0e1a;font:700 6px Inter,sans-serif">LTR</text><rect x="-13" y="-7" width="26" height="16" rx="2" fill="#4fb8a8" fill-opacity="0.70" stroke="#4fb8a8" stroke-width="1.4"></rect><text x="0" y="3" text-anchor="middle" style="fill:#0a0e1a;font:700 7px Inter,sans-serif">ADA</text><rect x="14" y="-9" width="14" height="20" rx="2" fill="#e8a951" fill-opacity="0.70" stroke="#e8a951" stroke-width="1.4"></rect><text x="21" y="3" text-anchor="middle" style="fill:#0a0e1a;font:700 6px Inter,sans-serif">LTR</text></g>
                  <g transform="translate(360 195)" opacity="1"><line x1="-100" y1="-1" x2="100" y2="-1" stroke="#9370b9" stroke-width="1.4" opacity="0.6"></line><line x1="-100" y1="3" x2="100" y2="3" stroke="#9370b9" stroke-width="1.4" opacity="0.6"></line><g stroke="#9370b9" stroke-width="0.6" opacity="0.4"><line x1="-96" y1="-1" x2="-96" y2="3"></line><line x1="-89.3" y1="-1" x2="-89.3" y2="3"></line><line x1="-82.7" y1="-1" x2="-82.7" y2="3"></line><line x1="-76" y1="-1" x2="-76" y2="3"></line><line x1="-69.3" y1="-1" x2="-69.3" y2="3"></line><line x1="-62.7" y1="-1" x2="-62.7" y2="3"></line><line x1="-56" y1="-1" x2="-56" y2="3"></line><line x1="-49.3" y1="-1" x2="-49.3" y2="3"></line><line x1="-42.7" y1="-1" x2="-42.7" y2="3"></line><line x1="-36" y1="-1" x2="-36" y2="3"></line><line x1="-29.3" y1="-1" x2="-29.3" y2="3"></line><line x1="-22.7" y1="-1" x2="-22.7" y2="3"></line><line x1="-16" y1="-1" x2="-16" y2="3"></line><line x1="-9.3" y1="-1" x2="-9.3" y2="3"></line><line x1="-2.7" y1="-1" x2="-2.7" y2="3"></line><line x1="4" y1="-1" x2="4" y2="3"></line><line x1="10.7" y1="-1" x2="10.7" y2="3"></line><line x1="17.3" y1="-1" x2="17.3" y2="3"></line><line x1="24" y1="-1" x2="24" y2="3"></line><line x1="30.7" y1="-1" x2="30.7" y2="3"></line><line x1="37.3" y1="-1" x2="37.3" y2="3"></line><line x1="44" y1="-1" x2="44" y2="3"></line><line x1="50.7" y1="-1" x2="50.7" y2="3"></line><line x1="57.3" y1="-1" x2="57.3" y2="3"></line><line x1="64" y1="-1" x2="64" y2="3"></line><line x1="70.7" y1="-1" x2="70.7" y2="3"></line><line x1="77.3" y1="-1" x2="77.3" y2="3"></line><line x1="84" y1="-1" x2="84" y2="3"></line><line x1="90.7" y1="-1" x2="90.7" y2="3"></line><line x1="97.3" y1="-1" x2="97.3" y2="3"></line></g><rect x="-68" y="-6" width="16" height="14" rx="1.5" fill="#6b7689" fill-opacity="0.65" stroke="#6b7689" stroke-width="0.8"></rect><rect x="52" y="-6" width="16" height="14" rx="1.5" fill="#6b7689" fill-opacity="0.65" stroke="#6b7689" stroke-width="0.8"></rect><rect x="-28" y="-9" width="14" height="20" rx="2" fill="#e8a951" fill-opacity="0.70" stroke="#e8a951" stroke-width="1.4"></rect><text x="-21" y="3" text-anchor="middle" style="fill:#0a0e1a;font:700 6px Inter,sans-serif">LTR</text><rect x="-13" y="-7" width="26" height="16" rx="2" fill="#4fb8a8" fill-opacity="0.70" stroke="#4fb8a8" stroke-width="1.4"></rect><text x="0" y="3" text-anchor="middle" style="fill:#0a0e1a;font:700 7px Inter,sans-serif">ADA</text><rect x="14" y="-9" width="14" height="20" rx="2" fill="#e8a951" fill-opacity="0.70" stroke="#e8a951" stroke-width="1.4"></rect><text x="21" y="3" text-anchor="middle" style="fill:#0a0e1a;font:700 6px Inter,sans-serif">LTR</text></g>

                  <!-- Verdict -->
                  <g transform="translate(250 220)">
                    <rect x="-130" y="-10" width="260" height="20" rx="8" fill="#6cc27d" fill-opacity="0.30" stroke="#6cc27d" stroke-width="1.4"></rect>
                    <text x="0" y="3" text-anchor="middle" style="fill:#6cc27d;font:700 8px Inter,sans-serif;letter-spacing:1.5px">PASSED TO ALL DAUGHTER CELLS</text>
                  </g>

                  <text x="250" y="245" text-anchor="middle" style="fill:#b4becf;font:italic 7.5px Fraunces,serif">retrovirus integrates the ADA gene into the genome · the cure is heritable across cell divisions</text>

                  <!-- FOCUS · audio-aligned attention marker -->
                  <circle cx="250" cy="60" r="22" fill="none" stroke="#d14859" stroke-width="1.8" stroke-dasharray="3 2" opacity="0.85">
                    <animate attributeName="r" values="18;28;18" dur="2.4s" repeatCount="indefinite"/>
                    <animate attributeName="opacity" values="0.85;0.20;0.85" dur="2.4s" repeatCount="indefinite"/>
                  </circle>
</svg>
