<?xml version="1.0" encoding="UTF-8"?>
<!--
  Auto-generated from the reference HTML by
  scripts/storymode-extraction/extract.mjs.
  Do not edit by hand — regenerate the file instead.
-->
<svg xmlns="http://www.w3.org/2000/svg" xmlns:xlink="http://www.w3.org/1999/xlink" viewBox="0 0 500 260" preserveAspectRatio="xMidYMid meet">
<text x="20" y="16" style="fill:#e8a951;font:600 9px Inter,sans-serif;letter-spacing:2px">STEP 02 · ANTI-PRP IgG → OPSONIZE → SPLEEN</text>

<g transform="translate(125 145)">
  <text x="0" y="-72" text-anchor="middle" style="fill:#4fb8a8;font:700 8.5px Inter,sans-serif;letter-spacing:1.2px">Hib · OPSONIZED</text>
  <circle cx="0" cy="0" r="34" fill="rgba(79,184,168,0.20)" stroke="#4fb8a8" stroke-width="1.4" stroke-dasharray="3 2"/>
  <ellipse cx="0" cy="0" rx="18" ry="13" fill="rgba(209,72,89,0.85)" stroke="#d14859" stroke-width="1.4"/>
  <g stroke="#e8a951" stroke-width="2" fill="none" stroke-linecap="round">
    <g transform="translate(0 -38)">
      <line x1="0" y1="0" x2="0" y2="-10"/>
      <line x1="-5" y1="-15" x2="0" y2="-10"/>
      <line x1="5" y1="-15" x2="0" y2="-10"/>
    </g>
    <g transform="translate(27 -27) rotate(45)">
      <line x1="0" y1="0" x2="0" y2="-10"/>
      <line x1="-5" y1="-15" x2="0" y2="-10"/>
      <line x1="5" y1="-15" x2="0" y2="-10"/>
    </g>
    <g transform="translate(38 0) rotate(90)">
      <line x1="0" y1="0" x2="0" y2="-10"/>
      <line x1="-5" y1="-15" x2="0" y2="-10"/>
      <line x1="5" y1="-15" x2="0" y2="-10"/>
    </g>
    <g transform="translate(-27 -27) rotate(-45)">
      <line x1="0" y1="0" x2="0" y2="-10"/>
      <line x1="-5" y1="-15" x2="0" y2="-10"/>
      <line x1="5" y1="-15" x2="0" y2="-10"/>
    </g>
    <g transform="translate(-38 0) rotate(-90)">
      <line x1="0" y1="0" x2="0" y2="-10"/>
      <line x1="-5" y1="-15" x2="0" y2="-10"/>
      <line x1="5" y1="-15" x2="0" y2="-10"/>
    </g>
  </g>
  <text x="0" y="62" text-anchor="middle" style="fill:#e8a951;font:italic 7px Fraunces,serif">IgG coats PRP capsule</text>
</g>

<g stroke="#6cc27d" stroke-width="2.4" fill="none" marker-end="url(#arr9_2_2a)">
  <line x1="195" y1="145" x2="290" y2="145"/>
</g>
<defs>
  <marker id="arr9_2_2a" viewBox="0 0 10 10" refX="9" refY="5" markerWidth="7" markerHeight="7" orient="auto">
    <path d="M 0 0 L 10 5 L 0 10 z" fill="#6cc27d"/>
  </marker>
</defs>
<text x="242" y="135" text-anchor="middle" style="fill:#6cc27d;font:700 8px Inter,sans-serif;letter-spacing:1.2px">PHAGOCYTOSED</text>

<g transform="translate(380 145)">
  <text x="0" y="-72" text-anchor="middle" style="fill:#9370b9;font:700 8.5px Inter,sans-serif;letter-spacing:1.2px">SPLENIC MACROPHAGE</text>
  <ellipse cx="0" cy="0" rx="44" ry="34" fill="rgba(147,112,185,0.30)" stroke="#9370b9" stroke-width="1.8"/>
  <ellipse cx="-5" cy="-3" rx="10" ry="8" fill="#4a2d60" opacity="0.7"/>
  <text x="0" y="3" text-anchor="middle" style="fill:#e8ecf3;font:700 11px Inter,sans-serif">MΦ</text>
  <g transform="translate(-44 -10)">
    <rect x="-7" y="-6" width="14" height="12" rx="2" fill="#e8a951" fill-opacity="0.85"/>
    <text x="-12" y="-10" text-anchor="end" style="fill:#e8a951;font:700 6.5px 'JetBrains Mono',monospace">FcγR</text>
  </g>
  <text x="0" y="62" text-anchor="middle" style="fill:#b4becf;font:italic 7px Fraunces,serif">cleared via Fc + complement</text>
</g>

<text x="250" y="245" text-anchor="middle" style="fill:#6b7689;font:italic 7.5px Fraunces,serif">Spleen + opsonization → protection from invasive Hib</text>

                  <!-- FOCUS · audio-aligned attention marker -->
                  <circle cx="380" cy="202" r="40" fill="none" stroke="#d14859" stroke-width="1.8" stroke-dasharray="3 2" opacity="0.85">
                    <animate attributeName="r" values="36;46;36" dur="2.4s" repeatCount="indefinite"/>
                    <animate attributeName="opacity" values="0.85;0.20;0.85" dur="2.4s" repeatCount="indefinite"/>
                  </circle>

                  <!-- FOCUS · audio-aligned attention marker -->
                  <circle cx="380" cy="68" r="27" fill="none" stroke="#d14859" stroke-width="1.8" stroke-dasharray="3 2" opacity="0.85">
                    <animate attributeName="r" values="23;33;23" dur="2.4s" repeatCount="indefinite"/>
                    <animate attributeName="opacity" values="0.85;0.20;0.85" dur="2.4s" repeatCount="indefinite"/>
                  </circle>

                  <!-- FOCUS · audio-aligned attention marker -->
                  <circle cx="380" cy="143" r="20" fill="none" stroke="#d14859" stroke-width="1.8" stroke-dasharray="3 2" opacity="0.85">
                    <animate attributeName="r" values="16;26;16" dur="2.4s" repeatCount="indefinite"/>
                    <animate attributeName="opacity" values="0.85;0.20;0.85" dur="2.4s" repeatCount="indefinite"/>
                  </circle>
</svg>
