<?xml version="1.0" encoding="UTF-8"?>
<!--
  Auto-generated from the reference HTML by
  scripts/storymode-extraction/extract.mjs.
  Do not edit by hand — regenerate the file instead.
-->
<svg xmlns="http://www.w3.org/2000/svg" xmlns:xlink="http://www.w3.org/1999/xlink" viewBox="0 0 500 260" preserveAspectRatio="xMidYMid meet">
<text x="20" y="16" style="fill:#e8a951;font:600 9px Inter,sans-serif;letter-spacing:2px">STEP 07 · CROMOLYN · MAST CELL STABILIZER · PROPHYLACTIC</text>

<!-- Mast cell intact -->
<g transform="translate(80 130)">
  <ellipse cx="0" cy="0" rx="40" ry="30" fill="rgba(232,169,81,0.18)" stroke="#e8a951" stroke-width="1.4"/>
  <g fill="#e8a951">
    <circle cx="-15" cy="-8" r="3"/>
    <circle cx="0" cy="-12" r="3"/>
    <circle cx="15" cy="-8" r="3"/>
    <circle cx="-12" cy="8" r="3"/>
    <circle cx="0" cy="12" r="3"/>
    <circle cx="12" cy="8" r="3"/>
  </g>
  <text x="0" y="50" text-anchor="middle" style="fill:#e8a951;font:700 8px Inter,sans-serif">MAST CELL</text>
</g>

<g stroke="#6cc27d" stroke-width="1.6" fill="none" marker-end="url(#arr16_7_7a)">
  <line x1="135" y1="130" x2="200" y2="130"/>
</g>
<defs>
  <marker id="arr16_7_7a" viewBox="0 0 10 10" refX="9" refY="5" markerWidth="6" markerHeight="6" orient="auto">
    <path d="M 0 0 L 10 5 L 0 10 z" fill="#6cc27d"/>
  </marker>
</defs>
<text x="167" y="120" text-anchor="middle" style="fill:#6cc27d;font:700 7px Inter,sans-serif">CROMOLYN</text>

<g transform="translate(280 130)">
  <ellipse cx="0" cy="0" rx="40" ry="30" fill="rgba(108,194,125,0.18)" stroke="#6cc27d" stroke-width="1.6"/>
  <g fill="#6cc27d">
    <circle cx="-15" cy="-8" r="3"/>
    <circle cx="0" cy="-12" r="3"/>
    <circle cx="15" cy="-8" r="3"/>
    <circle cx="-12" cy="8" r="3"/>
    <circle cx="0" cy="12" r="3"/>
    <circle cx="12" cy="8" r="3"/>
  </g>
  <text x="0" y="50" text-anchor="middle" style="fill:#6cc27d;font:700 8px Inter,sans-serif">STABILIZED</text>
</g>

<text x="385" y="125" style="fill:#d14859;font:700 7px Inter,sans-serif">→ no</text>
<text x="385" y="138" style="fill:#d14859;font:700 7px Inter,sans-serif">degranulation</text>

<g transform="translate(250 220)">
  <rect x="-200" y="-15" width="400" height="34" rx="6" fill="rgba(232,169,81,0.10)" stroke="#e8a951" stroke-width="0.8" stroke-dasharray="3 2"/>
  <text x="0" y="-1" text-anchor="middle" style="fill:#e8a951;font:700 8px Inter,sans-serif;letter-spacing:1.2px">PROPHYLACTIC ONLY · NOT FOR ACUTE ANAPHYLAXIS</text>
  <text x="0" y="14" text-anchor="middle" style="fill:#b4becf;font:7px Inter,sans-serif">inhaled (asthma) · ophthalmic (allergic conjunctivitis)</text>
</g>

                  <!-- FOCUS · audio-aligned attention marker -->
                  <circle cx="257" cy="166" r="60" fill="none" stroke="#d14859" stroke-width="1.8" stroke-dasharray="3 2" opacity="0.85">
                    <animate attributeName="r" values="56;66;56" dur="2.4s" repeatCount="indefinite"/>
                    <animate attributeName="opacity" values="0.85;0.20;0.85" dur="2.4s" repeatCount="indefinite"/>
                  </circle>
</svg>
