<?xml version="1.0" encoding="UTF-8"?>
<!--
  Auto-generated from the reference HTML by
  scripts/storymode-extraction/extract.mjs.
  Do not edit by hand — regenerate the file instead.
-->
<svg xmlns="http://www.w3.org/2000/svg" xmlns:xlink="http://www.w3.org/1999/xlink" viewBox="0 0 500 260" preserveAspectRatio="xMidYMid meet">
                  <text x="20" y="16" style="fill:#e8a951;font:600 9px Inter,sans-serif;letter-spacing:2px">STEP 05 · ATTENUATION CAN'T REMOVE INTEGRATION</text>

                  <!-- Attenuated HBV (faded) -->
                  <g transform="translate(95 145)">
                    <text x="0" y="-65" text-anchor="middle" style="fill:#9370b9;font:700 9px Inter,sans-serif;letter-spacing:1.5px">ATTENUATED HBV</text>
                    <g transform="translate(0 0)" opacity="0.55"><circle cx="0" cy="0" r="22" fill="#4fb8a8" fill-opacity="0.40" stroke="#4fb8a8" stroke-width="1.4"></circle><g stroke="#4fb8a8" stroke-width="1.4" fill="none" stroke-linecap="round"><line x1="22" y1="0" x2="25" y2="0"></line><line x1="11" y1="19.1" x2="12.5" y2="21.7"></line><line x1="-11" y1="19.1" x2="-12.5" y2="21.7"></line><line x1="-22" y1="0" x2="-25" y2="0"></line><line x1="-11" y1="-19.1" x2="-12.5" y2="-21.7"></line><line x1="11" y1="-19.1" x2="12.5" y2="-21.7"></line></g><circle cx="0" cy="0" r="9.9" fill="#9370b9" fill-opacity="0.85"></circle><path d="M -4 -1 Q -1 -3 1 -1 Q 3 1 -1 2" stroke="#e8a951" stroke-width="1" fill="none"></path></g>
                    <text x="0" y="40" text-anchor="middle" style="fill:#b4becf;font:italic 7px Fraunces,serif">replicates less...</text>
                  </g>

                  <!-- Arrow -->
                  <path d="M 140 145 L 175 145" stroke="#d14859" stroke-width="1.6" fill="none"></path>
                  <polygon points="175,145 168,141 168,149" fill="#d14859"></polygon>

                  <!-- Hepatocyte with both integration and cccDNA -->
                  <g transform="translate(265 145)" opacity="1"><ellipse cx="0" cy="0" rx="75" ry="55" fill="#9370b9" fill-opacity="0.18" stroke="#9370b9" stroke-width="1.6"></ellipse><ellipse cx="0" cy="0" rx="41.25" ry="30.3" fill="#4a2d60" fill-opacity="0.55" stroke="#4a2d60" stroke-width="1.4"></ellipse><g stroke="#e8ecf3" stroke-width="1.2" stroke-linecap="round" opacity="0.75"><line x1="-28.9" y1="-15.1" x2="28.9" y2="-15.1"></line><line x1="-24.75" y1="12.1" x2="24.75" y2="12.1"></line></g><rect x="-6.1875" y="-16.6" width="12.375" height="4" rx="1" fill="#d14859" stroke="#d14859" stroke-width="0.8"></rect><circle cx="18.5625" cy="1.5" r="6" fill="none" stroke="#d14859" stroke-width="2"></circle></g>

                  <!-- Verdict -->
                  <g transform="translate(425 145)">
                    <rect x="-50" y="-25" width="100" height="50" rx="6" fill="#d14859" fill-opacity="0.22" stroke="#d14859" stroke-width="1.6"></rect>
                    <text x="0" y="-8" text-anchor="middle" style="fill:#d14859;font:700 8px Inter,sans-serif;letter-spacing:1.2px">STILL</text>
                    <text x="0" y="4" text-anchor="middle" style="fill:#d14859;font:700 8px Inter,sans-serif;letter-spacing:1.2px">INTEGRATES</text>
                    <text x="0" y="16" text-anchor="middle" style="fill:#d14859;font:700 8px Inter,sans-serif;letter-spacing:1.2px">+ PERSISTS</text>
                  </g>

                  <text x="250" y="245" text-anchor="middle" style="fill:#b4becf;font:italic 7.5px Fraunces,serif">reduced replication doesn't change the lifecycle · integration + cccDNA still happen</text>

                  <!-- FOCUS · audio-aligned attention marker -->
                  <circle cx="95" cy="180" r="27" fill="none" stroke="#d14859" stroke-width="1.8" stroke-dasharray="3 2" opacity="0.85">
                    <animate attributeName="r" values="23;33;23" dur="2.4s" repeatCount="indefinite"/>
                    <animate attributeName="opacity" values="0.85;0.20;0.85" dur="2.4s" repeatCount="indefinite"/>
                  </circle>
</svg>
