<?xml version="1.0" encoding="UTF-8"?>
<!--
  Auto-generated from the reference HTML by
  scripts/storymode-extraction/extract.mjs.
  Do not edit by hand — regenerate the file instead.
-->
<svg xmlns="http://www.w3.org/2000/svg" xmlns:xlink="http://www.w3.org/1999/xlink" viewBox="0 0 500 280" preserveAspectRatio="xMidYMid meet">
                <text x="20" y="26" style="fill:#e8a951;font:600 10px Inter,sans-serif;letter-spacing:2px">STEP 06 · Ii PLUGS THE GROOVE</text>
                <rect x="40" y="70" width="420" height="180" rx="18" fill="#0e1422" stroke="#3a4358" stroke-width="1.2"/>
                <text x="50" y="64" style="fill:#6b7689;font:600 8px Inter,sans-serif;letter-spacing:1.5px">EXTRACELLULAR</text>
                <text x="50" y="246" style="fill:#6b7689;font:600 8px Inter,sans-serif;letter-spacing:1.5px">CYTOPLASM</text>
                <line x1="40" y1="70" x2="460" y2="70" stroke="#4fb8a8" stroke-width="1.5" opacity="0.7"/>
                <g opacity="0.30">
                  <ellipse cx="290" cy="170" rx="68" ry="48" fill="none" stroke="#e8a951" stroke-width="1.3" stroke-dasharray="4 3"/>
                  <text x="290" y="120" text-anchor="middle" style="fill:#e8a951;font:600 9px Inter,sans-serif">endosome</text>
                  <circle cx="270" cy="170" r="9" fill="#d14859" opacity="0.7"/>
                </g>
                <path d="M 70 180 Q 55 205 80 220 Q 130 230 175 220 Q 200 215 205 198 Q 210 175 188 162 Q 130 154 70 180 Z" fill="#4fb8a8" opacity="0.18" stroke="#4fb8a8" stroke-width="1.6"/>
                <text x="135" y="245" text-anchor="middle" style="fill:#4fb8a8;font:600 9px Inter,sans-serif;letter-spacing:1.5px">ER</text>
                <g transform="translate(135 195)">
                  <path d="M -36 -10 L 36 -10 L 38 6 L 24 6 L 20 -3 L -20 -3 L -24 6 L -38 6 Z" fill="#4fb8a8" opacity="0.85" stroke="#4fb8a8" stroke-width="1.6"/>
                  <rect x="-16" y="-22" width="32" height="14" rx="3" fill="#9370b9" opacity="0.9" stroke="#9370b9" stroke-width="1.3"/>
                  <text x="0" y="-12" text-anchor="middle" style="fill:#e8ecf3;font:700 9px Inter,sans-serif">Ii</text>
                  <path d="M 0 -28 L 20 -52" stroke="#9370b9" stroke-width="1" opacity="0.7" stroke-dasharray="2 2"/>
                  <text x="55" y="-50" style="fill:#9370b9;font:600 9px Inter,sans-serif">groove blocked</text>
                </g>
                <g fill="#6b7689" opacity="0.55">
                  <circle cx="80" cy="175" r="2"/><circle cx="170" cy="170" r="2"/>
                  <circle cx="190" cy="190" r="2"/><circle cx="100" cy="215" r="2"/>
                </g>
                <text x="195" y="170" style="fill:#6b7689;font:italic 8px Fraunces,serif">(Class I peptides drift here)</text>
                <text x="250" y="270" text-anchor="middle" style="fill:#b4becf;font:italic 10px Fraunces,serif">Ii prevents accidental loading in the ER</text>

                  <!-- FOCUS · audio-aligned attention marker -->
                  <circle cx="195" cy="165" r="40" fill="none" stroke="#d14859" stroke-width="1.8" stroke-dasharray="3 2" opacity="0.85">
                    <animate attributeName="r" values="36;46;36" dur="2.4s" repeatCount="indefinite"/>
                    <animate attributeName="opacity" values="0.85;0.20;0.85" dur="2.4s" repeatCount="indefinite"/>
                  </circle>
</svg>
