<?xml version="1.0" encoding="UTF-8"?>
<!--
  Auto-generated from the reference HTML by
  scripts/storymode-extraction/extract.mjs.
  Do not edit by hand — regenerate the file instead.
-->
<svg xmlns="http://www.w3.org/2000/svg" xmlns:xlink="http://www.w3.org/1999/xlink" viewBox="0 0 500 260" preserveAspectRatio="xMidYMid meet">
<text x="20" y="16" style="fill:#e8a951;font:600 9px Inter,sans-serif;letter-spacing:2px">STEP 02 · BIOPSY · LEUKOCYTOCLASIS + IgA</text>

<!-- H&E view on left: vessel wall destruction with neutrophil debris -->
<g transform="translate(125 145)">
  <text x="0" y="-90" text-anchor="middle" style="fill:#d14859;font:700 8.5px Inter,sans-serif;letter-spacing:1.2px">H&amp;E · LEUKOCYTOCLASIS</text>
  
  <!-- Round microscope view -->
  <circle cx="0" cy="0" r="68" fill="rgba(245,235,225,0.95)" stroke="#3a4358" stroke-width="2"/>
  
  <!-- Damaged small vessel cross-section -->
  <circle cx="0" cy="0" r="32" fill="rgba(209,72,89,0.18)" stroke="#d14859" stroke-width="2.4" stroke-dasharray="3 2"/>
  <circle cx="0" cy="0" r="12" fill="rgba(209,72,89,0.35)" stroke="#d14859" stroke-width="0.8"/>
  
  <!-- Intact neutrophils -->
  <g>
    <g transform="translate(-22 -10)">
      <circle r="6" fill="rgba(147,112,185,0.65)" stroke="#9370b9" stroke-width="1"/>
      <ellipse cx="-1" cy="-1" rx="1.5" ry="1" fill="#4a2d60"/>
      <ellipse cx="1" cy="0" rx="1.5" ry="1" fill="#4a2d60"/>
      <ellipse cx="0" cy="2" rx="1.5" ry="1" fill="#4a2d60"/>
    </g>
    <g transform="translate(20 8)">
      <circle r="6" fill="rgba(147,112,185,0.65)" stroke="#9370b9" stroke-width="1"/>
      <ellipse cx="-1" cy="-1" rx="1.5" ry="1" fill="#4a2d60"/>
      <ellipse cx="1" cy="0" rx="1.5" ry="1" fill="#4a2d60"/>
      <ellipse cx="0" cy="2" rx="1.5" ry="1" fill="#4a2d60"/>
    </g>
  </g>
  
  <!-- Nuclear debris (dust) - the key feature -->
  <g fill="#4a2d60" opacity="0.85">
    <circle cx="-12" cy="20" r="1.2"/>
    <circle cx="-8" cy="18" r="0.8"/>
    <circle cx="-5" cy="22" r="1"/>
    <circle cx="-10" cy="25" r="1.2"/>
    <circle cx="0" cy="22" r="0.9"/>
    <circle cx="3" cy="25" r="1.1"/>
    <circle cx="8" cy="20" r="0.8"/>
    <circle cx="-15" cy="-18" r="1"/>
    <circle cx="-10" cy="-22" r="1.2"/>
    <circle cx="-5" cy="-18" r="0.9"/>
    <circle cx="5" cy="-20" r="1"/>
    <circle cx="10" cy="-18" r="0.8"/>
    <circle cx="22" cy="-22" r="1.1"/>
    <circle cx="25" cy="-15" r="0.9"/>
  </g>
  
  <text x="0" y="62" text-anchor="middle" style="fill:#9370b9;font:700 7px Inter,sans-serif">vessel wall · neutrophils · NUCLEAR DEBRIS</text>
</g>

<!-- VS divider -->
<text x="250" y="135" text-anchor="middle" style="fill:#b4becf;font:italic 700 11px Fraunces,serif">+</text>

<!-- IF view on right: IgA-dominant deposition -->
<g transform="translate(375 145)">
  <text x="0" y="-90" text-anchor="middle" style="fill:#e8a951;font:700 8.5px Inter,sans-serif;letter-spacing:1.2px">IF · IgA-DOMINANT</text>
  
  <!-- Round microscope view (dark IF background) -->
  <circle cx="0" cy="0" r="68" fill="rgba(10,14,26,0.95)" stroke="#3a4358" stroke-width="2"/>
  
  <!-- Vessel as faint outline -->
  <circle cx="0" cy="0" r="32" fill="none" stroke="#b4becf" stroke-width="1" opacity="0.3" stroke-dasharray="2 2"/>
  
  <!-- Bright IgA deposits along vessel wall -->
  <g fill="rgba(108,194,125,0.95)">
    <circle cx="-30" cy="0" r="3.5"/>
    <circle cx="-26" cy="-15" r="3"/>
    <circle cx="-15" cy="-26" r="3.5"/>
    <circle cx="0" cy="-30" r="3"/>
    <circle cx="15" cy="-26" r="3.5"/>
    <circle cx="26" cy="-15" r="3"/>
    <circle cx="30" cy="0" r="3.5"/>
    <circle cx="26" cy="15" r="3"/>
    <circle cx="15" cy="26" r="3.5"/>
    <circle cx="0" cy="30" r="3"/>
    <circle cx="-15" cy="26" r="3.5"/>
    <circle cx="-26" cy="15" r="3"/>
  </g>
  
  <!-- Label -->
  <text x="0" y="62" text-anchor="middle" style="fill:#6cc27d;font:700 8px Inter,sans-serif;letter-spacing:1.2px">IgA + C3 deposits</text>
</g>

<text x="250" y="245" text-anchor="middle" style="fill:#6b7689;font:italic 7.5px Fraunces,serif">Leukocytoclastic vasculitis (debris) + IgA-dominant IF = HSP signature</text>

                  <!-- FOCUS · audio-aligned attention marker -->
                  <circle cx="0" cy="57" r="40" fill="none" stroke="#d14859" stroke-width="1.8" stroke-dasharray="3 2" opacity="0.85">
                    <animate attributeName="r" values="36;46;36" dur="2.4s" repeatCount="indefinite"/>
                    <animate attributeName="opacity" values="0.85;0.20;0.85" dur="2.4s" repeatCount="indefinite"/>
                  </circle>

                  <!-- FOCUS · audio-aligned attention marker -->
                  <circle cx="125" cy="50" r="38" fill="none" stroke="#d14859" stroke-width="1.8" stroke-dasharray="3 2" opacity="0.85">
                    <animate attributeName="r" values="34;44;34" dur="2.4s" repeatCount="indefinite"/>
                    <animate attributeName="opacity" values="0.85;0.20;0.85" dur="2.4s" repeatCount="indefinite"/>
                  </circle>

                  <!-- FOCUS · audio-aligned attention marker -->
                  <circle cx="375" cy="50" r="26" fill="none" stroke="#d14859" stroke-width="1.8" stroke-dasharray="3 2" opacity="0.85">
                    <animate attributeName="r" values="22;32;22" dur="2.4s" repeatCount="indefinite"/>
                    <animate attributeName="opacity" values="0.85;0.20;0.85" dur="2.4s" repeatCount="indefinite"/>
                  </circle>
              </svg>
