<?xml version="1.0" encoding="UTF-8"?>
<!--
  Auto-generated from the reference HTML by
  scripts/storymode-extraction/extract.mjs.
  Do not edit by hand — regenerate the file instead.
-->
<svg xmlns="http://www.w3.org/2000/svg" xmlns:xlink="http://www.w3.org/1999/xlink" viewBox="0 0 500 260" preserveAspectRatio="xMidYMid meet">
<text x="20" y="16" style="fill:#e8a951;font:600 9px Inter,sans-serif;letter-spacing:2px">STEP 05 · BROADLY NEUTRALIZING ANTIBODIES (bnAbs) ARE RARE</text>

<text x="250" y="44" text-anchor="middle" style="fill:#b4becf;font:700 9px Inter,sans-serif;letter-spacing:1.2px">100 HIV+ PATIENTS</text>

<circle cx="60" cy="80" r="3" fill="#3a4358"/><circle cx="98" cy="80" r="3" fill="#3a4358"/><circle cx="136" cy="80" r="3" fill="#3a4358"/><circle cx="174" cy="80" r="3" fill="#3a4358"/><circle cx="212" cy="80" r="3" fill="#3a4358"/><circle cx="250" cy="80" r="3" fill="#3a4358"/><circle cx="288" cy="80" r="3" fill="#3a4358"/><circle cx="326" cy="80" r="3" fill="#6cc27d"/><circle cx="364" cy="80" r="3" fill="#3a4358"/><circle cx="402" cy="80" r="3" fill="#3a4358"/><circle cx="60" cy="94" r="3" fill="#3a4358"/><circle cx="98" cy="94" r="3" fill="#3a4358"/><circle cx="136" cy="94" r="3" fill="#3a4358"/><circle cx="174" cy="94" r="3" fill="#6cc27d"/><circle cx="212" cy="94" r="3" fill="#3a4358"/><circle cx="250" cy="94" r="3" fill="#3a4358"/><circle cx="288" cy="94" r="3" fill="#3a4358"/><circle cx="326" cy="94" r="3" fill="#3a4358"/><circle cx="364" cy="94" r="3" fill="#3a4358"/><circle cx="402" cy="94" r="3" fill="#3a4358"/><circle cx="60" cy="108" r="3" fill="#3a4358"/><circle cx="98" cy="108" r="3" fill="#3a4358"/><circle cx="136" cy="108" r="3" fill="#6cc27d"/><circle cx="174" cy="108" r="3" fill="#3a4358"/><circle cx="212" cy="108" r="3" fill="#3a4358"/><circle cx="250" cy="108" r="3" fill="#3a4358"/><circle cx="288" cy="108" r="3" fill="#3a4358"/><circle cx="326" cy="108" r="3" fill="#3a4358"/><circle cx="364" cy="108" r="3" fill="#3a4358"/><circle cx="402" cy="108" r="3" fill="#6cc27d"/><circle cx="60" cy="122" r="3" fill="#3a4358"/><circle cx="98" cy="122" r="3" fill="#3a4358"/><circle cx="136" cy="122" r="3" fill="#3a4358"/><circle cx="174" cy="122" r="3" fill="#3a4358"/><circle cx="212" cy="122" r="3" fill="#3a4358"/><circle cx="250" cy="122" r="3" fill="#6cc27d"/><circle cx="288" cy="122" r="3" fill="#3a4358"/><circle cx="326" cy="122" r="3" fill="#3a4358"/><circle cx="364" cy="122" r="3" fill="#3a4358"/><circle cx="402" cy="122" r="3" fill="#3a4358"/><circle cx="60" cy="136" r="3" fill="#3a4358"/><circle cx="98" cy="136" r="3" fill="#6cc27d"/><circle cx="136" cy="136" r="3" fill="#3a4358"/><circle cx="174" cy="136" r="3" fill="#3a4358"/><circle cx="212" cy="136" r="3" fill="#3a4358"/><circle cx="250" cy="136" r="3" fill="#3a4358"/><circle cx="288" cy="136" r="3" fill="#3a4358"/><circle cx="326" cy="136" r="3" fill="#3a4358"/><circle cx="364" cy="136" r="3" fill="#6cc27d"/><circle cx="402" cy="136" r="3" fill="#3a4358"/><circle cx="60" cy="150" r="3" fill="#3a4358"/><circle cx="98" cy="150" r="3" fill="#3a4358"/><circle cx="136" cy="150" r="3" fill="#3a4358"/><circle cx="174" cy="150" r="3" fill="#3a4358"/><circle cx="212" cy="150" r="3" fill="#3a4358"/><circle cx="250" cy="150" r="3" fill="#6cc27d"/><circle cx="288" cy="150" r="3" fill="#3a4358"/><circle cx="326" cy="150" r="3" fill="#3a4358"/><circle cx="364" cy="150" r="3" fill="#3a4358"/><circle cx="402" cy="150" r="3" fill="#3a4358"/><circle cx="60" cy="164" r="3" fill="#3a4358"/><circle cx="98" cy="164" r="3" fill="#3a4358"/><circle cx="136" cy="164" r="3" fill="#6cc27d"/><circle cx="174" cy="164" r="3" fill="#3a4358"/><circle cx="212" cy="164" r="3" fill="#3a4358"/><circle cx="250" cy="164" r="3" fill="#3a4358"/><circle cx="288" cy="164" r="3" fill="#3a4358"/><circle cx="326" cy="164" r="3" fill="#3a4358"/><circle cx="364" cy="164" r="3" fill="#3a4358"/><circle cx="402" cy="164" r="3" fill="#6cc27d"/><circle cx="60" cy="178" r="3" fill="#3a4358"/><circle cx="98" cy="178" r="3" fill="#3a4358"/><circle cx="136" cy="178" r="3" fill="#3a4358"/><circle cx="174" cy="178" r="3" fill="#3a4358"/><circle cx="212" cy="178" r="3" fill="#3a4358"/><circle cx="250" cy="178" r="3" fill="#3a4358"/><circle cx="288" cy="178" r="3" fill="#6cc27d"/><circle cx="326" cy="178" r="3" fill="#3a4358"/><circle cx="364" cy="178" r="3" fill="#3a4358"/><circle cx="402" cy="178" r="3" fill="#3a4358"/><circle cx="60" cy="192" r="3" fill="#3a4358"/><circle cx="98" cy="192" r="3" fill="#3a4358"/><circle cx="136" cy="192" r="3" fill="#3a4358"/><circle cx="174" cy="192" r="3" fill="#6cc27d"/><circle cx="212" cy="192" r="3" fill="#3a4358"/><circle cx="250" cy="192" r="3" fill="#3a4358"/><circle cx="288" cy="192" r="3" fill="#3a4358"/><circle cx="326" cy="192" r="3" fill="#3a4358"/><circle cx="364" cy="192" r="3" fill="#6cc27d"/><circle cx="402" cy="192" r="3" fill="#3a4358"/><circle cx="60" cy="206" r="3" fill="#3a4358"/><circle cx="98" cy="206" r="3" fill="#6cc27d"/><circle cx="136" cy="206" r="3" fill="#3a4358"/><circle cx="174" cy="206" r="3" fill="#3a4358"/><circle cx="212" cy="206" r="3" fill="#3a4358"/><circle cx="250" cy="206" r="3" fill="#6cc27d"/><circle cx="288" cy="206" r="3" fill="#3a4358"/><circle cx="326" cy="206" r="3" fill="#3a4358"/><circle cx="364" cy="206" r="3" fill="#3a4358"/><circle cx="402" cy="206" r="3" fill="#3a4358"/>

<g transform="translate(80 240)">
  <circle cx="0" cy="0" r="4" fill="#6cc27d"/>
  <text x="10" y="3" style="fill:#6cc27d;font:700 8px Inter,sans-serif">bnAb developed (~15%)</text>
</g>

<g transform="translate(280 240)">
  <circle cx="0" cy="0" r="4" fill="#3a4358"/>
  <text x="10" y="3" style="fill:#b4becf;font:700 8px Inter,sans-serif">strain-specific Ab only (~85%)</text>
</g>

<text x="250" y="225" text-anchor="middle" style="fill:#d14859;font:700 8px Inter,sans-serif;letter-spacing:1px">bnAbs take YEARS of chronic infection to develop</text>

                  <!-- FOCUS · audio-aligned attention marker -->
                  <circle cx="250" cy="220" r="40" fill="none" stroke="#d14859" stroke-width="1.8" stroke-dasharray="3 2" opacity="0.85">
                    <animate attributeName="r" values="36;46;36" dur="2.4s" repeatCount="indefinite"/>
                    <animate attributeName="opacity" values="0.85;0.20;0.85" dur="2.4s" repeatCount="indefinite"/>
                  </circle>
</svg>
