<?xml version="1.0" encoding="UTF-8"?>
<!--
  Auto-generated from the reference HTML by
  scripts/storymode-extraction/extract.mjs.
  Do not edit by hand — regenerate the file instead.
-->
<svg xmlns="http://www.w3.org/2000/svg" xmlns:xlink="http://www.w3.org/1999/xlink" viewBox="0 0 500 260" preserveAspectRatio="xMidYMid meet">
<text x="20" y="16" style="fill:#e8a951;font:600 9px Inter,sans-serif;letter-spacing:2px">STEP 04 · CASE 2 · ACUTE CELLULAR · 2 WEEKS</text>

<!-- Histology slide center: tubule with T cell infiltration -->
<g transform="translate(250 130)">
  <text x="0" y="-90" text-anchor="middle" style="fill:#9370b9;font:700 9px Inter,sans-serif;letter-spacing:1.2px">RENAL TUBULE · TUBULITIS</text>
  
  <!-- H&E bg -->
  <rect x="-150" y="-72" width="300" height="120" rx="8" fill="rgba(245,235,225,0.95)" stroke="#3a4358" stroke-width="1.6"/>
  
  <!-- Multiple tubules -->
  <g>
    <!-- Tubule 1 (left, healthy) -->
    <g transform="translate(-90 -5)">
      <ellipse cx="0" cy="0" rx="32" ry="22" fill="rgba(232,169,81,0.30)" stroke="#a06a30" stroke-width="1.4"/>
      <!-- Tubular cells lining (cuboidal pattern) -->
      <g fill="rgba(147,112,185,0.65)">
        <circle cx="-22" cy="-15" r="2.5"/>
        <circle cx="-10" cy="-19" r="2.5"/>
        <circle cx="2" cy="-19" r="2.5"/>
        <circle cx="14" cy="-19" r="2.5"/>
        <circle cx="22" cy="-15" r="2.5"/>
        <circle cx="22" cy="15" r="2.5"/>
        <circle cx="14" cy="19" r="2.5"/>
        <circle cx="2" cy="19" r="2.5"/>
        <circle cx="-10" cy="19" r="2.5"/>
        <circle cx="-22" cy="15" r="2.5"/>
        <circle cx="-25" cy="0" r="2.5"/>
        <circle cx="25" cy="0" r="2.5"/>
      </g>
    </g>
    
    <!-- Tubule 2 (middle/right, INFILTRATED) -->
    <g transform="translate(20 -5)">
      <ellipse cx="0" cy="0" rx="40" ry="28" fill="rgba(232,169,81,0.20)" stroke="#a06a30" stroke-width="1.4"/>
      <!-- Tubular cells lining (still there) -->
      <g fill="rgba(147,112,185,0.65)">
        <circle cx="-30" cy="-18" r="2.5"/>
        <circle cx="-15" cy="-24" r="2.5"/>
        <circle cx="15" cy="-24" r="2.5"/>
        <circle cx="30" cy="-18" r="2.5"/>
        <circle cx="30" cy="18" r="2.5"/>
        <circle cx="15" cy="24" r="2.5"/>
        <circle cx="-15" cy="24" r="2.5"/>
        <circle cx="-30" cy="18" r="2.5"/>
      </g>
      <!-- T cells INSIDE the tubular epithelium and around -->
      <g fill="rgba(108,194,125,0.95)" stroke="#3a8244" stroke-width="0.6">
        <!-- T cells crossing into epithelium -->
        <circle cx="-22" cy="-2" r="4"/>
        <circle cx="-10" cy="-8" r="4"/>
        <circle cx="-3" cy="0" r="4"/>
        <circle cx="8" cy="-7" r="4"/>
        <circle cx="20" cy="-3" r="4"/>
        <circle cx="-15" cy="8" r="4"/>
        <circle cx="0" cy="10" r="4"/>
        <circle cx="14" cy="6" r="4"/>
        <!-- Surrounding T cells -->
        <circle cx="-45" cy="-5" r="4"/>
        <circle cx="-50" cy="10" r="4"/>
        <circle cx="48" cy="-10" r="4"/>
        <circle cx="50" cy="8" r="4"/>
        <circle cx="40" cy="22" r="4"/>
        <circle cx="-40" cy="22" r="4"/>
      </g>
      <!-- Annotation arrow -->
      <line x1="-25" y1="-5" x2="-65" y2="-30" stroke="#d14859" stroke-width="1" stroke-dasharray="2 2"/>
      <text x="-67" y="-32" text-anchor="end" style="fill:#d14859;font:700 7px Inter,sans-serif">tubulitis</text>
    </g>
  </g>
  
  <!-- Legend below slide -->
  <g transform="translate(-130 35)">
    <circle r="3" fill="rgba(108,194,125,0.95)"/>
    <text x="6" y="3" style="fill:#3a8244;font:700 6.5px Inter,sans-serif">CD8 T cells</text>
  </g>
  <g transform="translate(-50 35)">
    <ellipse cx="0" cy="0" rx="6" ry="4" fill="rgba(232,169,81,0.30)" stroke="#a06a30" stroke-width="0.8"/>
    <text x="10" y="3" style="fill:#a06a30;font:700 6.5px Inter,sans-serif">tubule</text>
  </g>
</g>

<!-- Verdict at bottom -->
<g transform="translate(250 215)">
  <rect x="-180" y="-13" width="360" height="26" rx="6" fill="rgba(147,112,185,0.30)" stroke="#9370b9" stroke-width="1.8"/>
  <text x="0" y="3" text-anchor="middle" style="fill:#9370b9;font:700 9px Inter,sans-serif;letter-spacing:1.5px">ACUTE CELLULAR · DAYS-WEEKS</text>
</g>

<text x="250" y="245" text-anchor="middle" style="fill:#6b7689;font:italic 7.5px Fraunces,serif">Recipient T cells cross tubular basement membrane = tubulitis (pathognomonic)</text>

                  <!-- FOCUS · audio-aligned attention marker -->
                  <circle cx="250" cy="213" r="40" fill="none" stroke="#d14859" stroke-width="1.8" stroke-dasharray="3 2" opacity="0.85">
                    <animate attributeName="r" values="36;46;36" dur="2.4s" repeatCount="indefinite"/>
                    <animate attributeName="opacity" values="0.85;0.20;0.85" dur="2.4s" repeatCount="indefinite"/>
                  </circle>
</svg>
