<?xml version="1.0" encoding="UTF-8"?>
<!--
  Auto-generated from the reference HTML by
  scripts/storymode-extraction/extract.mjs.
  Do not edit by hand — regenerate the file instead.
-->
<svg xmlns="http://www.w3.org/2000/svg" xmlns:xlink="http://www.w3.org/1999/xlink" viewBox="0 0 500 280" preserveAspectRatio="xMidYMid meet">
                <text x="20" y="26" style="fill:#e8a951;font:600 10px Inter,sans-serif;letter-spacing:2px">STEP 09 · ANTIGEN SHREDDED</text>
                <rect x="40" y="70" width="420" height="180" rx="18" fill="#0e1422" stroke="#3a4358" stroke-width="1.2"/>
                <text x="50" y="64" style="fill:#6b7689;font:600 8px Inter,sans-serif;letter-spacing:1.5px">EXTRACELLULAR</text>
                <text x="50" y="246" style="fill:#6b7689;font:600 8px Inter,sans-serif;letter-spacing:1.5px">CYTOPLASM</text>
                <line x1="40" y1="70" x2="460" y2="70" stroke="#4fb8a8" stroke-width="1.5" opacity="0.7"/>
                <g opacity="0.20">
                  <path d="M 70 180 Q 55 205 80 220 Q 130 230 175 220 Q 200 215 205 198 Q 210 175 188 162 Q 130 154 70 180 Z" fill="#4fb8a8" stroke="#4fb8a8" stroke-width="1"/>
                  <text x="135" y="245" text-anchor="middle" style="fill:#4fb8a8;font:600 8px Inter,sans-serif">ER</text>
                </g>
                <ellipse cx="270" cy="170" rx="120" ry="70" fill="#e8a951" opacity="0.16" stroke="#e8a951" stroke-width="2.2" stroke-dasharray="5 3"/>
                <text x="270" y="100" text-anchor="middle" style="fill:#e8a951;font:700 11px Inter,sans-serif;letter-spacing:2px">ENDOSOME</text>
                <g transform="translate(345 175)" opacity="0.45">
                  <path d="M -22 -6 L 22 -6 L 24 4 L 14 4 L 11 -2 L -11 -2 L -14 4 L -24 4 Z" fill="#4fb8a8" stroke="#4fb8a8" stroke-width="1.2"/>
                  <rect x="-7" y="-10" width="14" height="6" rx="2" fill="#9370b9"/>
                  <text x="0" y="-5" text-anchor="middle" style="fill:#e8ecf3;font:700 6px Inter,sans-serif">CLIP</text>
                </g>
                <g transform="translate(190 175)">
                  <circle cx="0" cy="0" r="13" fill="#d14859" opacity="0.85" stroke="#d14859" stroke-width="1.3"/>
                  <text x="0" y="3" text-anchor="middle" style="fill:#e8ecf3;font:700 8px Inter,sans-serif">V</text>
                </g>
                <path d="M 210 175 L 250 175" stroke="#d14859" stroke-width="1.5"/>
                <polygon points="250,175 243,171 243,179" fill="#d14859"/>
                <text x="230" y="166" text-anchor="middle" style="fill:#d14859;font:600 8px Inter,sans-serif;letter-spacing:1.5px">SHREDDED</text>
                <g transform="translate(280 175)" fill="#d14859">
                  <circle cx="-5" cy="-7" r="2.5"/><circle cx="3" cy="-7" r="2.5"/>
                  <circle cx="-8" cy="0" r="2.5"/><circle cx="0" cy="0" r="2.5"/>
                  <circle cx="8" cy="0" r="2.5"/><circle cx="-3" cy="7" r="2.5"/>
                  <circle cx="5" cy="7" r="2.5"/>
                </g>
                <g fill="#e8a951" opacity="0.85">
                  <path d="M 200 130 L 206 134 L 204 141 L 198 137 Z"/>
                  <path d="M 320 145 L 326 149 L 324 156 L 318 152 Z"/>
                  <path d="M 200 215 L 206 219 L 204 226 L 198 222 Z"/>
                </g>
                <text x="250" y="270" text-anchor="middle" style="fill:#d14859;font:italic 600 10px Fraunces,serif">free peptides · ready to load · same compartment as Class II</text>

                  <!-- FOCUS · audio-aligned attention marker -->
                  <circle cx="230" cy="161" r="20" fill="none" stroke="#d14859" stroke-width="1.8" stroke-dasharray="3 2" opacity="0.85">
                    <animate attributeName="r" values="16;26;16" dur="2.4s" repeatCount="indefinite"/>
                    <animate attributeName="opacity" values="0.85;0.20;0.85" dur="2.4s" repeatCount="indefinite"/>
                  </circle>

                  <!-- FOCUS · audio-aligned attention marker -->
                  <circle cx="270" cy="95" r="20" fill="none" stroke="#d14859" stroke-width="1.8" stroke-dasharray="3 2" opacity="0.85">
                    <animate attributeName="r" values="16;26;16" dur="2.4s" repeatCount="indefinite"/>
                    <animate attributeName="opacity" values="0.85;0.20;0.85" dur="2.4s" repeatCount="indefinite"/>
                  </circle>
</svg>
