<?xml version="1.0" encoding="UTF-8"?>
<!--
  Auto-generated from the reference HTML by
  scripts/storymode-extraction/extract.mjs.
  Do not edit by hand — regenerate the file instead.
-->
<svg xmlns="http://www.w3.org/2000/svg" xmlns:xlink="http://www.w3.org/1999/xlink" viewBox="0 0 500 260" preserveAspectRatio="xMidYMid meet">
<text x="20" y="16" style="fill:#e8a951;font:600 9px Inter,sans-serif;letter-spacing:2px">STEP 07 · HELMINTHS · Th2 / IgE / EOS</text>

<!-- Helminth on left -->
<g transform="translate(110 145)">
  <text x="0" y="-78" text-anchor="middle" style="fill:#9370b9;font:700 9px Inter,sans-serif;letter-spacing:1.5px">HELMINTH</text>
  
  <!-- Worm (long, segmented) -->
  <g transform="translate(0 0)">
    <path d="M -45 0 Q -35 -5 -25 0 Q -15 5 -5 0 Q 5 -5 15 0 Q 25 5 35 0 Q 40 -3 45 0" 
          stroke="#9370b9" stroke-width="6" fill="none" stroke-linecap="round"/>
    <!-- Segmentation marks -->
    <g stroke="#fff" stroke-width="0.6">
      <line x1="-30" y1="-3" x2="-30" y2="3"/>
      <line x1="-15" y1="-3" x2="-15" y2="3"/>
      <line x1="0" y1="-3" x2="0" y2="3"/>
      <line x1="15" y1="-3" x2="15" y2="3"/>
      <line x1="30" y1="-3" x2="30" y2="3"/>
    </g>
    <!-- Head -->
    <circle cx="-45" cy="0" r="4" fill="#9370b9"/>
    <circle cx="-46" cy="-1" r="0.8" fill="#fff"/>
  </g>
</g>

<!-- Th2 + cytokines middle -->
<g transform="translate(250 145)">
  <text x="0" y="-78" text-anchor="middle" style="fill:#e8a951;font:700 9px Inter,sans-serif;letter-spacing:1.5px">Th2 RESPONSE</text>
  
  <!-- Th2 cell -->
  <circle cx="0" cy="-30" r="14" fill="rgba(232,169,81,0.85)" stroke="#e8a951" stroke-width="1.4"/>
  <ellipse cx="-2" cy="-31" rx="5" ry="4" fill="rgba(20,24,40,0.55)"/>
  <text x="0" y="-27" text-anchor="middle" style="fill:#fff;font:700 7px Inter,sans-serif">Th2</text>
  
  <!-- 3 cytokines -->
  <g transform="translate(0 5)">
    <rect x="-50" y="-7" width="32" height="14" rx="3" fill="rgba(232,169,81,0.45)" stroke="#e8a951"/>
    <text x="-34" y="3" text-anchor="middle" style="fill:#e8a951;font:700 7px Inter,sans-serif">IL-4</text>
    <rect x="-15" y="-7" width="32" height="14" rx="3" fill="rgba(232,169,81,0.45)" stroke="#e8a951"/>
    <text x="1" y="3" text-anchor="middle" style="fill:#e8a951;font:700 7px Inter,sans-serif">IL-5</text>
    <rect x="20" y="-7" width="36" height="14" rx="3" fill="rgba(232,169,81,0.45)" stroke="#e8a951"/>
    <text x="38" y="3" text-anchor="middle" style="fill:#e8a951;font:700 7px Inter,sans-serif">IL-13</text>
  </g>
</g>

<!-- Eosinophil + IgE on right -->
<g transform="translate(395 145)">
  <text x="0" y="-78" text-anchor="middle" style="fill:#d14859;font:700 9px Inter,sans-serif;letter-spacing:1.5px">EOS + IgE</text>
  
  <!-- Eosinophil with bilobed nucleus + bright pink granules -->
  <g transform="translate(0 -20)">
    <circle cx="0" cy="0" r="14" fill="rgba(248,140,160,0.85)" stroke="#d14859" stroke-width="1.4"/>
    <!-- Bilobed nucleus -->
    <ellipse cx="-5" cy="0" rx="4" ry="3" fill="rgba(74,45,96,0.85)"/>
    <ellipse cx="5" cy="0" rx="4" ry="3" fill="rgba(74,45,96,0.85)"/>
    <!-- Granules (orange-red) -->
    <g fill="rgba(232,100,80,0.95)">
      <circle cx="-9" cy="-7" r="1.2"/>
      <circle cx="-7" cy="-9" r="1.2"/>
      <circle cx="0" cy="-10" r="1.2"/>
      <circle cx="7" cy="-9" r="1.2"/>
      <circle cx="9" cy="-7" r="1.2"/>
      <circle cx="-9" cy="7" r="1.2"/>
      <circle cx="0" cy="10" r="1.2"/>
      <circle cx="9" cy="7" r="1.2"/>
    </g>
  </g>
  
  <!-- IgE antibody -->
  <g transform="translate(0 15)">
    <g stroke="#d14859" stroke-width="1.6" fill="none" stroke-linecap="round">
      <line x1="0" y1="0" x2="0" y2="10"/>
      <line x1="-5" y1="-5" x2="0" y2="0"/>
      <line x1="5" y1="-5" x2="0" y2="0"/>
    </g>
    <text x="0" y="22" text-anchor="middle" style="fill:#d14859;font:700 7px Inter,sans-serif">IgE</text>
  </g>
</g>

<text x="250" y="245" text-anchor="middle" style="fill:#6b7689;font:italic 7.5px Fraunces,serif">Same Th2/IgE/eos axis as allergy · MBP/ECP damages worm tegument</text>

                  <!-- FOCUS · audio-aligned attention marker -->
                  <circle cx="250" cy="62" r="20" fill="none" stroke="#d14859" stroke-width="1.8" stroke-dasharray="3 2" opacity="0.85">
                    <animate attributeName="r" values="16;26;16" dur="2.4s" repeatCount="indefinite"/>
                    <animate attributeName="opacity" values="0.85;0.20;0.85" dur="2.4s" repeatCount="indefinite"/>
                  </circle>

                  <!-- FOCUS · audio-aligned attention marker -->
                  <circle cx="395" cy="62" r="20" fill="none" stroke="#d14859" stroke-width="1.8" stroke-dasharray="3 2" opacity="0.85">
                    <animate attributeName="r" values="16;26;16" dur="2.4s" repeatCount="indefinite"/>
                    <animate attributeName="opacity" values="0.85;0.20;0.85" dur="2.4s" repeatCount="indefinite"/>
                  </circle>

                  <!-- FOCUS · audio-aligned attention marker -->
                  <circle cx="110" cy="62" r="20" fill="none" stroke="#d14859" stroke-width="1.8" stroke-dasharray="3 2" opacity="0.85">
                    <animate attributeName="r" values="16;26;16" dur="2.4s" repeatCount="indefinite"/>
                    <animate attributeName="opacity" values="0.85;0.20;0.85" dur="2.4s" repeatCount="indefinite"/>
                  </circle>
              </svg>
