<?xml version="1.0" encoding="UTF-8"?>
<!--
  Auto-generated from the reference HTML by
  scripts/storymode-extraction/extract.mjs.
  Do not edit by hand — regenerate the file instead.
-->
<svg xmlns="http://www.w3.org/2000/svg" xmlns:xlink="http://www.w3.org/1999/xlink" viewBox="0 0 500 260" preserveAspectRatio="xMidYMid meet">
<text x="20" y="16" style="fill:#e8a951;font:600 9px Inter,sans-serif;letter-spacing:2px">STEP 01 · J-REGION PROBE · THE TOOL</text>

<!-- DNA strand with J segments highlighted -->
<g transform="translate(60 145)">
  <line x1="0" y1="0" x2="380" y2="0" stroke="#6b7689" stroke-width="2"/>
  
  <!-- V segments (faded) -->
  <g fill="#4fb8a8" fill-opacity="0.40" stroke="#4fb8a8" stroke-width="1.2">
    <rect x="20" y="-7" width="14" height="14" rx="2"/>
    <rect x="40" y="-7" width="14" height="14" rx="2"/>
    <rect x="60" y="-7" width="14" height="14" rx="2"/>
  </g>
  <text x="47" y="28" text-anchor="middle" style="fill:#4fb8a8;font:700 7px 'JetBrains Mono',monospace">V</text>
  
  <!-- D segments (faded) -->
  <g fill="#e8a951" fill-opacity="0.40" stroke="#e8a951" stroke-width="1.2">
    <rect x="115" y="-7" width="12" height="14" rx="2"/>
    <rect x="132" y="-7" width="12" height="14" rx="2"/>
  </g>
  <text x="132" y="28" text-anchor="middle" style="fill:#e8a951;font:700 7px 'JetBrains Mono',monospace">D</text>
  
  <!-- J segments (BRIGHT — what the probe targets) -->
  <g fill="#9370b9" fill-opacity="0.95" stroke="#9370b9" stroke-width="1.6">
    <rect x="190" y="-10" width="16" height="20" rx="2"/>
    <rect x="212" y="-10" width="16" height="20" rx="2"/>
    <rect x="234" y="-10" width="16" height="20" rx="2"/>
  </g>
  <text x="220" y="32" text-anchor="middle" style="fill:#9370b9;font:700 9px 'JetBrains Mono',monospace">J</text>
  
  <!-- C region -->
  <rect x="300" y="-10" width="44" height="20" rx="3" fill="#6b7689" fill-opacity="0.40" stroke="#6b7689" stroke-width="1"/>
  <text x="322" y="3" text-anchor="middle" style="fill:#b4becf;font:700 8px Inter,sans-serif">C</text>
</g>

<!-- Probe descending onto J -->
<g transform="translate(280 100)">
  <path d="M -28 0 L 28 0 L 28 14 L 0 28 L -28 14 Z" fill="#e8a951" fill-opacity="0.85" stroke="#e8a951" stroke-width="1.8"/>
  <text x="0" y="11" text-anchor="middle" style="fill:#0a0e1a;font:700 9px Inter,sans-serif">J PROBE</text>
</g>
<line x1="280" y1="128" x2="280" y2="135" stroke="#e8a951" stroke-width="1.6" stroke-dasharray="2 2"/>
<polygon points="280,138 275,131 285,131" fill="#e8a951"/>

<text x="250" y="225" text-anchor="middle" style="fill:#e8a951;font:700 9px Inter,sans-serif;letter-spacing:1.2px">PROBE BINDS WHEREVER J SITS IN THE GENOME</text>
<text x="250" y="245" text-anchor="middle" style="fill:#6b7689;font:italic 7.5px Fraunces,serif">Then we measure the fragment size on the gel</text>

                  <!-- FOCUS · audio-aligned attention marker -->
                  <circle cx="250" cy="220" r="40" fill="none" stroke="#d14859" stroke-width="1.8" stroke-dasharray="3 2" opacity="0.85">
                    <animate attributeName="r" values="36;46;36" dur="2.4s" repeatCount="indefinite"/>
                    <animate attributeName="opacity" values="0.85;0.20;0.85" dur="2.4s" repeatCount="indefinite"/>
                  </circle>
</svg>
