<?xml version="1.0" encoding="UTF-8"?>
<!--
  Auto-generated from the reference HTML by
  scripts/storymode-extraction/extract.mjs.
  Do not edit by hand — regenerate the file instead.
-->
<svg xmlns="http://www.w3.org/2000/svg" xmlns:xlink="http://www.w3.org/1999/xlink" viewBox="0 0 500 260" preserveAspectRatio="xMidYMid meet">
                  <text x="20" y="22" style="fill:#e8a951;font:600 10px Inter,sans-serif;letter-spacing:2px">STEP 06 · LOCAL · DIMERIC IgA SECRETION</text>

                  <g opacity="1"><ellipse cx="250" cy="215" rx="65" ry="22" fill="#d14859" fill-opacity="0.30" stroke="#d14859" stroke-width="2"></ellipse><text x="250" y="244" text-anchor="middle" style="fill:#d14859;font:600 8px Inter,sans-serif;letter-spacing:1.5px">VAGINAL MUCOSA</text>
                      <g fill="#9370b9" fill-opacity="0.85" stroke="#9370b9" stroke-width="1">
                        <circle cx="225" cy="218" r="6"></circle>
                        <circle cx="245" cy="212" r="6"></circle>
                        <circle cx="265" cy="218" r="6"></circle>
                        <circle cx="285" cy="213" r="6"></circle>
                      </g>
                    </g>

                  <!-- Zoom on a plasma cell secreting IgA dimers -->
                  <g transform="translate(250 130)">
                    <circle cx="0" cy="0" r="30" fill="#9370b9" fill-opacity="0.35" stroke="#9370b9" stroke-width="1.8"></circle>
                    <ellipse cx="-4" cy="-3" rx="9" ry="7" fill="#4a2d60" opacity="0.7"></ellipse>
                    <!-- expanded ER (depicted as small dots) -->
                    <g fill="#4fb8a8" fill-opacity="0.4">
                      <circle cx="8" cy="-2" r="2"></circle>
                      <circle cx="6" cy="8" r="2"></circle>
                      <circle cx="-2" cy="10" r="2"></circle>
                    </g>
                    <text x="0" y="50" text-anchor="middle" style="fill:#9370b9;font:600 8px Inter,sans-serif;letter-spacing:1.2px">PLASMA CELL</text>
                  </g>

                  <!-- IgA dimers being secreted around the cell -->
                  <g transform="translate(290 110)" opacity="1"><g transform="translate(-15 0)"><path d="M -9 -10 L -3 -2 L 3 -2 L 9 -10" stroke="#4fb8a8" stroke-width="3" fill="none" stroke-linecap="round"></path><line x1="0" y1="-2" x2="0" y2="10" stroke="#4fb8a8" stroke-width="3" stroke-linecap="round"></line></g><g transform="translate(15 0)"><path d="M -9 -10 L -3 -2 L 3 -2 L 9 -10" stroke="#4fb8a8" stroke-width="3" fill="none" stroke-linecap="round"></path><line x1="0" y1="-2" x2="0" y2="10" stroke="#4fb8a8" stroke-width="3" stroke-linecap="round"></line></g><rect x="-5" y="6" width="10" height="6" rx="1" fill="#e8a951" fill-opacity="0.95" stroke="#e8a951" stroke-width="1"></rect><text x="0" y="11" text-anchor="middle" style="fill:#0a0e1a;font:700 5px Inter,sans-serif">J</text></g>
                  <g transform="translate(310 130)" opacity="1"><g transform="translate(-15 0)"><path d="M -9 -10 L -3 -2 L 3 -2 L 9 -10" stroke="#4fb8a8" stroke-width="3" fill="none" stroke-linecap="round"></path><line x1="0" y1="-2" x2="0" y2="10" stroke="#4fb8a8" stroke-width="3" stroke-linecap="round"></line></g><g transform="translate(15 0)"><path d="M -9 -10 L -3 -2 L 3 -2 L 9 -10" stroke="#4fb8a8" stroke-width="3" fill="none" stroke-linecap="round"></path><line x1="0" y1="-2" x2="0" y2="10" stroke="#4fb8a8" stroke-width="3" stroke-linecap="round"></line></g><rect x="-5" y="6" width="10" height="6" rx="1" fill="#e8a951" fill-opacity="0.95" stroke="#e8a951" stroke-width="1"></rect><text x="0" y="11" text-anchor="middle" style="fill:#0a0e1a;font:700 5px Inter,sans-serif">J</text></g>
                  <g transform="translate(295 155)" opacity="1"><g transform="translate(-15 0)"><path d="M -9 -10 L -3 -2 L 3 -2 L 9 -10" stroke="#4fb8a8" stroke-width="3" fill="none" stroke-linecap="round"></path><line x1="0" y1="-2" x2="0" y2="10" stroke="#4fb8a8" stroke-width="3" stroke-linecap="round"></line></g><g transform="translate(15 0)"><path d="M -9 -10 L -3 -2 L 3 -2 L 9 -10" stroke="#4fb8a8" stroke-width="3" fill="none" stroke-linecap="round"></path><line x1="0" y1="-2" x2="0" y2="10" stroke="#4fb8a8" stroke-width="3" stroke-linecap="round"></line></g><rect x="-5" y="6" width="10" height="6" rx="1" fill="#e8a951" fill-opacity="0.95" stroke="#e8a951" stroke-width="1"></rect><text x="0" y="11" text-anchor="middle" style="fill:#0a0e1a;font:700 5px Inter,sans-serif">J</text></g>
                  <g transform="translate(205 110)" opacity="1"><g transform="translate(-15 0)"><path d="M -9 -10 L -3 -2 L 3 -2 L 9 -10" stroke="#4fb8a8" stroke-width="3" fill="none" stroke-linecap="round"></path><line x1="0" y1="-2" x2="0" y2="10" stroke="#4fb8a8" stroke-width="3" stroke-linecap="round"></line></g><g transform="translate(15 0)"><path d="M -9 -10 L -3 -2 L 3 -2 L 9 -10" stroke="#4fb8a8" stroke-width="3" fill="none" stroke-linecap="round"></path><line x1="0" y1="-2" x2="0" y2="10" stroke="#4fb8a8" stroke-width="3" stroke-linecap="round"></line></g><rect x="-5" y="6" width="10" height="6" rx="1" fill="#e8a951" fill-opacity="0.95" stroke="#e8a951" stroke-width="1"></rect><text x="0" y="11" text-anchor="middle" style="fill:#0a0e1a;font:700 5px Inter,sans-serif">J</text></g>
                  <g transform="translate(190 130)" opacity="1"><g transform="translate(-15 0)"><path d="M -9 -10 L -3 -2 L 3 -2 L 9 -10" stroke="#4fb8a8" stroke-width="3" fill="none" stroke-linecap="round"></path><line x1="0" y1="-2" x2="0" y2="10" stroke="#4fb8a8" stroke-width="3" stroke-linecap="round"></line></g><g transform="translate(15 0)"><path d="M -9 -10 L -3 -2 L 3 -2 L 9 -10" stroke="#4fb8a8" stroke-width="3" fill="none" stroke-linecap="round"></path><line x1="0" y1="-2" x2="0" y2="10" stroke="#4fb8a8" stroke-width="3" stroke-linecap="round"></line></g><rect x="-5" y="6" width="10" height="6" rx="1" fill="#e8a951" fill-opacity="0.95" stroke="#e8a951" stroke-width="1"></rect><text x="0" y="11" text-anchor="middle" style="fill:#0a0e1a;font:700 5px Inter,sans-serif">J</text></g>
                  <g transform="translate(210 155)" opacity="1"><g transform="translate(-15 0)"><path d="M -9 -10 L -3 -2 L 3 -2 L 9 -10" stroke="#4fb8a8" stroke-width="3" fill="none" stroke-linecap="round"></path><line x1="0" y1="-2" x2="0" y2="10" stroke="#4fb8a8" stroke-width="3" stroke-linecap="round"></line></g><g transform="translate(15 0)"><path d="M -9 -10 L -3 -2 L 3 -2 L 9 -10" stroke="#4fb8a8" stroke-width="3" fill="none" stroke-linecap="round"></path><line x1="0" y1="-2" x2="0" y2="10" stroke="#4fb8a8" stroke-width="3" stroke-linecap="round"></line></g><rect x="-5" y="6" width="10" height="6" rx="1" fill="#e8a951" fill-opacity="0.95" stroke="#e8a951" stroke-width="1"></rect><text x="0" y="11" text-anchor="middle" style="fill:#0a0e1a;font:700 5px Inter,sans-serif">J</text></g>

                  <!-- IgA dimer label -->
                  <g transform="translate(380 105)">
                    <rect x="-50" y="-12" width="100" height="22" rx="11" fill="#4fb8a8" fill-opacity="0.30" stroke="#4fb8a8" stroke-width="1.4"></rect>
                    <text x="0" y="3" text-anchor="middle" style="fill:#4fb8a8;font:700 8px Inter,sans-serif;letter-spacing:1.2px">DIMERIC IgA</text>
                  </g>

                  <text x="250" y="252" text-anchor="middle" style="fill:#b4becf;font:italic 10px Fraunces,serif">seeded plasma cells secrete IgA dimers · linked by a J chain</text>

                  <!-- FOCUS · audio-aligned attention marker -->
                  <circle cx="380" cy="103" r="20" fill="none" stroke="#d14859" stroke-width="1.8" stroke-dasharray="3 2" opacity="0.85">
                    <animate attributeName="r" values="16;26;16" dur="2.4s" repeatCount="indefinite"/>
                    <animate attributeName="opacity" values="0.85;0.20;0.85" dur="2.4s" repeatCount="indefinite"/>
                  </circle>
</svg>
