<?xml version="1.0" encoding="UTF-8"?>
<!--
  Auto-generated from the reference HTML by
  scripts/storymode-extraction/extract.mjs.
  Do not edit by hand — regenerate the file instead.
-->
<svg xmlns="http://www.w3.org/2000/svg" xmlns:xlink="http://www.w3.org/1999/xlink" viewBox="0 0 500 280" preserveAspectRatio="xMidYMid meet">
                <text x="20" y="26" style="fill:#e8a951;font:600 10px Inter,sans-serif;letter-spacing:2px">STEP 03 · ENDOCYTOSIS</text>
                <rect x="40" y="70" width="420" height="180" rx="18" fill="#0e1422" stroke="#3a4358" stroke-width="1.2"/>
                <text x="50" y="64" style="fill:#6b7689;font:600 8px Inter,sans-serif;letter-spacing:1.5px">EXTRACELLULAR</text>
                <text x="50" y="246" style="fill:#6b7689;font:600 8px Inter,sans-serif;letter-spacing:1.5px">CYTOPLASM</text>
                <g opacity="0.18">
                  <path d="M 70 180 Q 60 200 80 215 Q 130 222 170 215 Q 195 210 200 195 Q 205 175 185 165 Q 130 158 70 180 Z" fill="#4fb8a8" stroke="#4fb8a8" stroke-width="1"/>
                  <text x="135" y="195" text-anchor="middle" style="fill:#4fb8a8;font:600 8px Inter,sans-serif">ER</text>
                </g>
                <ellipse cx="295" cy="170" rx="55" ry="40" fill="none" stroke="#e8a951" stroke-width="1" stroke-dasharray="3 4" opacity="0.25"/>
                <text x="295" y="173" text-anchor="middle" style="fill:#e8a951;font:600 8px Inter,sans-serif" opacity="0.35">endosome</text>
                <g>
                  <circle cx="120" cy="45" r="7" fill="#d14859" opacity="0.85"/>
                  <circle cx="200" cy="38" r="6" fill="#d14859" opacity="0.8"/>
                  <circle cx="290" cy="48" r="7" fill="#d14859" opacity="0.85"/>
                  <circle cx="370" cy="40" r="6" fill="#d14859" opacity="0.8"/>
                </g>
                <path d="M 40 70 L 95 70 Q 105 70 110 90 Q 115 105 130 105 Q 145 105 150 90 Q 155 70 165 70 L 460 70" stroke="#4fb8a8" stroke-width="2" fill="none" opacity="0.85"/>
                <circle cx="130" cy="92" r="6.5" fill="#d14859" opacity="0.95" stroke="#d14859" stroke-width="1.2"/>
                <path d="M 130 100 Q 140 130 165 150" stroke="#e8a951" stroke-width="1.6" fill="none" stroke-dasharray="4 3"/>
                <polygon points="165,150 158,144 161,153" fill="#e8a951"/>
                <text x="180" y="118" style="fill:#e8a951;font:600 8px Inter,sans-serif;letter-spacing:1.5px">ENDOCYTOSIS</text>
                <text x="250" y="270" text-anchor="middle" style="fill:#d14859;font:italic 600 10px Fraunces,serif">cargo enters the cell · destined for the endosome</text>

                  <!-- FOCUS · audio-aligned attention marker -->
                  <circle cx="50" cy="59" r="20" fill="none" stroke="#d14859" stroke-width="1.8" stroke-dasharray="3 2" opacity="0.85">
                    <animate attributeName="r" values="16;26;16" dur="2.4s" repeatCount="indefinite"/>
                    <animate attributeName="opacity" values="0.85;0.20;0.85" dur="2.4s" repeatCount="indefinite"/>
                  </circle>

                  <!-- FOCUS · audio-aligned attention marker -->
                  <circle cx="180" cy="113" r="20" fill="none" stroke="#d14859" stroke-width="1.8" stroke-dasharray="3 2" opacity="0.85">
                    <animate attributeName="r" values="16;26;16" dur="2.4s" repeatCount="indefinite"/>
                    <animate attributeName="opacity" values="0.85;0.20;0.85" dur="2.4s" repeatCount="indefinite"/>
                  </circle>
</svg>
