<?xml version="1.0" encoding="UTF-8"?>
<!--
  Auto-generated from the reference HTML by
  scripts/storymode-extraction/extract.mjs.
  Do not edit by hand — regenerate the file instead.
-->
<svg xmlns="http://www.w3.org/2000/svg" xmlns:xlink="http://www.w3.org/1999/xlink" viewBox="0 0 500 260" preserveAspectRatio="xMidYMid meet">
<text x="20" y="16" style="fill:#e8a951;font:600 9px Inter,sans-serif;letter-spacing:2px">STEP 08 · ANSWER · D · ROTAVIRUS</text>

<!-- Big rotavirus vial center-left, struck through -->
<g transform="translate(125 130)">
  <rect x="-26" y="-65" width="52" height="120" rx="8" fill="rgba(209,72,89,0.15)" stroke="#d14859" stroke-width="2.2"/>
  <!-- Vial cap -->
  <rect x="-15" y="-58" width="30" height="10" rx="2" fill="#3a4358"/>
  <rect x="-12" y="-50" width="24" height="5" fill="#6b7689"/>
  <!-- Vial body -->
  <path d="M -18 -45 L -18 38 Q -18 46 -10 46 L 10 46 Q 18 46 18 38 L 18 -45 Z" fill="rgba(209,72,89,0.30)" stroke="#d14859" stroke-width="1.8"/>
  <!-- Live viruses inside -->
  <g fill="rgba(209,72,89,0.95)" stroke="#d14859" stroke-width="1">
    <g transform="translate(-5 -25)"><circle r="5"/><line x1="0" y1="-5" x2="0" y2="-8" stroke-width="1"/><line x1="5" y1="0" x2="8" y2="0" stroke-width="1"/><line x1="0" y1="5" x2="0" y2="8" stroke-width="1"/><line x1="-5" y1="0" x2="-8" y2="0" stroke-width="1"/></g>
    <g transform="translate(5 -5)"><circle r="5"/><line x1="0" y1="-5" x2="0" y2="-8" stroke-width="1"/><line x1="5" y1="0" x2="8" y2="0" stroke-width="1"/><line x1="0" y1="5" x2="0" y2="8" stroke-width="1"/><line x1="-5" y1="0" x2="-8" y2="0" stroke-width="1"/></g>
    <g transform="translate(-4 18)"><circle r="5"/><line x1="0" y1="-5" x2="0" y2="-8" stroke-width="1"/><line x1="5" y1="0" x2="8" y2="0" stroke-width="1"/><line x1="0" y1="5" x2="0" y2="8" stroke-width="1"/><line x1="-5" y1="0" x2="-8" y2="0" stroke-width="1"/></g>
    <g transform="translate(6 32)"><circle r="5"/><line x1="0" y1="-5" x2="0" y2="-8" stroke-width="1"/><line x1="5" y1="0" x2="8" y2="0" stroke-width="1"/><line x1="0" y1="5" x2="0" y2="8" stroke-width="1"/><line x1="-5" y1="0" x2="-8" y2="0" stroke-width="1"/></g>
  </g>
  <!-- Big diagonal red strike -->
  <line x1="-30" y1="55" x2="30" y2="-55" stroke="#d14859" stroke-width="4" stroke-linecap="round"/>
  
  <text x="0" y="68" text-anchor="middle" style="fill:#d14859;font:700 9px Inter,sans-serif;letter-spacing:1.5px">ROTAVIRUS</text>
</g>

<!-- Right side: SCID symbol + all live vaccines listed pictorially -->
<g transform="translate(345 130)">
  <text x="0" y="-72" text-anchor="middle" style="fill:#d14859;font:700 9px Inter,sans-serif;letter-spacing:1.5px">ALL LIVE VACCINES → AVOID</text>
  
  <!-- 5 mini-vials for live vaccines -->
  <g transform="translate(-72 -20)">
    <rect x="-9" y="-15" width="18" height="30" rx="3" fill="rgba(209,72,89,0.20)" stroke="#d14859" stroke-width="1"/>
    <text x="0" y="32" text-anchor="middle" style="fill:#d14859;font:700 7px Inter,sans-serif">MMR</text>
  </g>
  
  <g transform="translate(-36 -20)">
    <rect x="-9" y="-15" width="18" height="30" rx="3" fill="rgba(209,72,89,0.20)" stroke="#d14859" stroke-width="1"/>
    <text x="0" y="32" text-anchor="middle" style="fill:#d14859;font:700 7px Inter,sans-serif">VZV</text>
  </g>
  
  <g transform="translate(0 -20)">
    <rect x="-9" y="-15" width="18" height="30" rx="3" fill="rgba(209,72,89,0.20)" stroke="#d14859" stroke-width="1"/>
    <text x="0" y="32" text-anchor="middle" style="fill:#d14859;font:700 7px Inter,sans-serif">BCG</text>
  </g>
  
  <g transform="translate(36 -20)">
    <rect x="-9" y="-15" width="18" height="30" rx="3" fill="rgba(209,72,89,0.20)" stroke="#d14859" stroke-width="1"/>
    <text x="0" y="32" text-anchor="middle" style="fill:#d14859;font:700 7px Inter,sans-serif">OPV</text>
  </g>
  
  <g transform="translate(72 -20)">
    <rect x="-9" y="-15" width="18" height="30" rx="3" fill="rgba(209,72,89,0.20)" stroke="#d14859" stroke-width="1"/>
    <text x="0" y="32" text-anchor="middle" style="fill:#d14859;font:700 7px Inter,sans-serif">YF</text>
  </g>
  
  <!-- Defer banner below -->
  <g transform="translate(0 65)">
    <rect x="-90" y="-15" width="180" height="30" rx="6" fill="rgba(108,194,125,0.25)" stroke="#6cc27d" stroke-width="1.6"/>
    <text x="0" y="3" text-anchor="middle" style="fill:#6cc27d;font:700 8.5px Inter,sans-serif;letter-spacing:1.2px">DEFER UNTIL SCID RULED OUT</text>
  </g>
</g>

<text x="250" y="245" text-anchor="middle" style="fill:#6b7689;font:italic 7.5px Fraunces,serif">SCID + live virus = potentially fatal</text>

                  <!-- FOCUS · audio-aligned attention marker -->
                  <circle cx="345" cy="193" r="39" fill="none" stroke="#d14859" stroke-width="1.8" stroke-dasharray="3 2" opacity="0.85">
                    <animate attributeName="r" values="35;45;35" dur="2.4s" repeatCount="indefinite"/>
                    <animate attributeName="opacity" values="0.85;0.20;0.85" dur="2.4s" repeatCount="indefinite"/>
                  </circle>

                  <!-- FOCUS · audio-aligned attention marker -->
                  <circle cx="345" cy="53" r="38" fill="none" stroke="#d14859" stroke-width="1.8" stroke-dasharray="3 2" opacity="0.85">
                    <animate attributeName="r" values="34;44;34" dur="2.4s" repeatCount="indefinite"/>
                    <animate attributeName="opacity" values="0.85;0.20;0.85" dur="2.4s" repeatCount="indefinite"/>
                  </circle>

                  <!-- FOCUS · audio-aligned attention marker -->
                  <circle cx="125" cy="193" r="20" fill="none" stroke="#d14859" stroke-width="1.8" stroke-dasharray="3 2" opacity="0.85">
                    <animate attributeName="r" values="16;26;16" dur="2.4s" repeatCount="indefinite"/>
                    <animate attributeName="opacity" values="0.85;0.20;0.85" dur="2.4s" repeatCount="indefinite"/>
                  </circle>
              </svg>
