<?xml version="1.0" encoding="UTF-8"?>
<!--
  Auto-generated from the reference HTML by
  scripts/storymode-extraction/extract.mjs.
  Do not edit by hand — regenerate the file instead.
-->
<svg xmlns="http://www.w3.org/2000/svg" xmlns:xlink="http://www.w3.org/1999/xlink" viewBox="0 0 500 260" preserveAspectRatio="xMidYMid meet">
<text x="20" y="16" style="fill:#e8a951;font:600 9px Inter,sans-serif;letter-spacing:2px">STEP 07 · DRUG-SPECIFIC SIDE EFFECTS</text>

<!-- Cyclosporine on left -->
<g transform="translate(135 145)">
  <text x="0" y="-90" text-anchor="middle" style="fill:#9370b9;font:700 9px Inter,sans-serif;letter-spacing:1.5px">CYCLOSPORINE</text>
  <text x="0" y="-78" text-anchor="middle" style="fill:#9370b9;font:7px Inter,sans-serif">cosmetic effects</text>
  
  <!-- Mouth with gingival hyperplasia -->
  <g transform="translate(0 -45)">
    <text x="-50" y="3" style="fill:#b4becf;font:700 7px Inter,sans-serif">GINGIVAL</text>
    <text x="-50" y="13" style="fill:#b4becf;font:700 7px Inter,sans-serif">HYPERPLASIA</text>
    <!-- Mouth icon -->
    <ellipse cx="40" cy="5" rx="20" ry="8" fill="rgba(209,72,89,0.55)" stroke="#d14859" stroke-width="1.2"/>
    <!-- Swollen gums -->
    <path d="M 22 1 L 26 -3 L 32 -1 L 38 -3 L 44 -1 L 50 -3 L 56 -1 L 60 1" fill="rgba(232,169,81,0.85)" stroke="#e8a951" stroke-width="0.8"/>
    <text x="40" y="22" text-anchor="middle" style="fill:#d14859;font:6.5px Inter,sans-serif">overgrown gums</text>
  </g>
  
  <!-- Hair / hypertrichosis -->
  <g transform="translate(0 25)">
    <text x="-50" y="3" style="fill:#b4becf;font:700 7px Inter,sans-serif">HYPER-</text>
    <text x="-50" y="13" style="fill:#b4becf;font:700 7px Inter,sans-serif">TRICHOSIS</text>
    <!-- Skin with hairs -->
    <rect x="20" y="-5" width="40" height="14" rx="2" fill="rgba(232,169,81,0.45)" stroke="#e8a951" stroke-width="1"/>
    <g stroke="#3a4358" stroke-width="0.9">
      <line x1="24" y1="-5" x2="22" y2="-12"/>
      <line x1="29" y1="-5" x2="28" y2="-13"/>
      <line x1="34" y1="-5" x2="36" y2="-12"/>
      <line x1="39" y1="-5" x2="38" y2="-13"/>
      <line x1="44" y1="-5" x2="46" y2="-12"/>
      <line x1="49" y1="-5" x2="48" y2="-13"/>
      <line x1="54" y1="-5" x2="55" y2="-12"/>
    </g>
    <text x="40" y="22" text-anchor="middle" style="fill:#e8a951;font:6.5px Inter,sans-serif">excess hair</text>
  </g>
</g>

<!-- VS divider -->
<line x1="250" y1="55" x2="250" y2="220" stroke="#3a4358" stroke-width="1" stroke-dasharray="3 3"/>

<!-- Tacrolimus on right -->
<g transform="translate(365 145)">
  <text x="0" y="-90" text-anchor="middle" style="fill:#9370b9;font:700 9px Inter,sans-serif;letter-spacing:1.5px">TACROLIMUS</text>
  <text x="0" y="-78" text-anchor="middle" style="fill:#9370b9;font:7px Inter,sans-serif">more potent · more diabetogenic</text>
  
  <!-- Glucose icon -->
  <g transform="translate(0 -45)">
    <text x="-50" y="3" style="fill:#b4becf;font:700 7px Inter,sans-serif">↑ DIABETES</text>
    <text x="-50" y="13" style="fill:#b4becf;font:700 7px Inter,sans-serif">RISK</text>
    <!-- Glucose meter -->
    <rect x="20" y="-10" width="40" height="20" rx="3" fill="rgba(20,24,40,0.85)" stroke="#3a4358" stroke-width="1"/>
    <text x="40" y="3" text-anchor="middle" style="fill:#d14859;font:700 9px 'JetBrains Mono',monospace">240</text>
    <text x="40" y="22" text-anchor="middle" style="fill:#d14859;font:6.5px Inter,sans-serif">β-cell tox</text>
  </g>
  
  <!-- Brain / neuro -->
  <g transform="translate(0 25)">
    <text x="-50" y="3" style="fill:#b4becf;font:700 7px Inter,sans-serif">↑ NEURO</text>
    <text x="-50" y="13" style="fill:#b4becf;font:700 7px Inter,sans-serif">TOX</text>
    <!-- Brain icon -->
    <ellipse cx="40" cy="0" rx="14" ry="11" fill="rgba(147,112,185,0.55)" stroke="#9370b9" stroke-width="1.2"/>
    <path d="M 33 -3 Q 36 -6 40 -4 Q 44 -2 47 -5" stroke="#fff" stroke-width="0.8" fill="none"/>
    <path d="M 33 3 Q 36 6 40 4 Q 44 2 47 5" stroke="#fff" stroke-width="0.8" fill="none"/>
    <text x="40" y="22" text-anchor="middle" style="fill:#9370b9;font:6.5px Inter,sans-serif">tremor · HA · seizure</text>
  </g>
</g>

<!-- Bottom: First line indicator -->
<g transform="translate(250 215)">
  <rect x="-180" y="-13" width="360" height="26" rx="6" fill="rgba(108,194,125,0.25)" stroke="#6cc27d" stroke-width="1.4"/>
  <text x="0" y="3" text-anchor="middle" style="fill:#6cc27d;font:700 8.5px Inter,sans-serif;letter-spacing:1.2px">TACROLIMUS = FIRST LINE TODAY (more potent · no cosmetic AEs)</text>
</g>

<text x="250" y="245" text-anchor="middle" style="fill:#6b7689;font:italic 7.5px Fraunces,serif">Cosmetic AEs limit CsA · diabetes risk limits Tac</text>

                  <!-- FOCUS · audio-aligned attention marker -->
                  <circle cx="250" cy="213" r="40" fill="none" stroke="#d14859" stroke-width="1.8" stroke-dasharray="3 2" opacity="0.85">
                    <animate attributeName="r" values="36;46;36" dur="2.4s" repeatCount="indefinite"/>
                    <animate attributeName="opacity" values="0.85;0.20;0.85" dur="2.4s" repeatCount="indefinite"/>
                  </circle>

                  <!-- FOCUS · audio-aligned attention marker -->
                  <circle cx="365" cy="62" r="40" fill="none" stroke="#d14859" stroke-width="1.8" stroke-dasharray="3 2" opacity="0.85">
                    <animate attributeName="r" values="36;46;36" dur="2.4s" repeatCount="indefinite"/>
                    <animate attributeName="opacity" values="0.85;0.20;0.85" dur="2.4s" repeatCount="indefinite"/>
                  </circle>

                  <!-- FOCUS · audio-aligned attention marker -->
                  <circle cx="405" cy="187" r="32" fill="none" stroke="#d14859" stroke-width="1.8" stroke-dasharray="3 2" opacity="0.85">
                    <animate attributeName="r" values="28;38;28" dur="2.4s" repeatCount="indefinite"/>
                    <animate attributeName="opacity" values="0.85;0.20;0.85" dur="2.4s" repeatCount="indefinite"/>
                  </circle>
</svg>
