<?xml version="1.0" encoding="UTF-8"?>
<!--
  Auto-generated from the reference HTML by
  scripts/storymode-extraction/extract.mjs.
  Do not edit by hand — regenerate the file instead.
-->
<svg xmlns="http://www.w3.org/2000/svg" xmlns:xlink="http://www.w3.org/1999/xlink" viewBox="0 0 500 260" preserveAspectRatio="xMidYMid meet">
<text x="20" y="16" style="fill:#e8a951;font:600 9px Inter,sans-serif;letter-spacing:2px">STEP 02 · CASEATING · INTRACELLULAR PATHOGEN</text>

<g transform="translate(250 145)">
  <text x="0" y="-100" text-anchor="middle" style="fill:#d14859;font:700 9px Inter,sans-serif;letter-spacing:1.5px">CASEATING GRANULOMA · TB</text>
  
  <!-- H&E slide -->
  <circle cx="0" cy="0" r="78" fill="rgba(245,235,225,0.95)" stroke="#3a4358" stroke-width="2"/>
  
  <!-- Outer rim Th1 -->
  <g fill="rgba(108,194,125,0.85)" stroke="#3a8244" stroke-width="0.6">
    <circle cx="-58" cy="0" r="4"/>
    <circle cx="-50" cy="-30" r="4"/>
    <circle cx="-30" cy="-55" r="4"/>
    <circle cx="0" cy="-65" r="4"/>
    <circle cx="30" cy="-55" r="4"/>
    <circle cx="50" cy="-30" r="4"/>
    <circle cx="58" cy="0" r="4"/>
    <circle cx="50" cy="30" r="4"/>
    <circle cx="30" cy="55" r="4"/>
    <circle cx="0" cy="65" r="4"/>
    <circle cx="-30" cy="55" r="4"/>
    <circle cx="-50" cy="30" r="4"/>
  </g>
  
  <!-- Epithelioid macs -->
  <g fill="rgba(232,169,81,0.55)" stroke="#a06a30" stroke-width="0.6">
    <ellipse cx="-30" cy="-15" rx="8" ry="5"/>
    <ellipse cx="-15" cy="-30" rx="8" ry="5"/>
    <ellipse cx="15" cy="-30" rx="8" ry="5"/>
    <ellipse cx="30" cy="-15" rx="8" ry="5"/>
    <ellipse cx="30" cy="15" rx="8" ry="5"/>
    <ellipse cx="15" cy="30" rx="8" ry="5"/>
    <ellipse cx="-15" cy="30" rx="8" ry="5"/>
    <ellipse cx="-30" cy="15" rx="8" ry="5"/>
  </g>
  
  <!-- CASEATING NECROSIS center (cheese-like, amorphous pink) -->
  <g transform="translate(0 0)">
    <circle cx="0" cy="0" r="26" fill="rgba(232,169,81,0.85)" stroke="#a06a30" stroke-width="1.4" stroke-dasharray="3 2"/>
    <!-- Pink amorphous texture inside -->
    <g fill="rgba(248,200,170,0.95)">
      <circle cx="-8" cy="-5" r="3"/>
      <circle cx="3" cy="-8" r="3"/>
      <circle cx="10" cy="0" r="3"/>
      <circle cx="0" cy="6" r="3"/>
      <circle cx="-6" cy="9" r="3"/>
      <circle cx="8" cy="10" r="3"/>
    </g>
    <text x="0" y="2" text-anchor="middle" style="fill:#a53343;font:700 7px Inter,sans-serif">CASEATION</text>
  </g>
  
  <!-- Annotations -->
  <line x1="0" y1="0" x2="100" y2="0" stroke="#a53343" stroke-width="0.8" stroke-dasharray="2 1"/>
  <text x="105" y="-2" style="fill:#a53343;font:700 7px Inter,sans-serif">CHEESY NECROSIS</text>
  <text x="105" y="8" style="fill:#a53343;font:6px Inter,sans-serif">cell death from</text>
  <text x="105" y="16" style="fill:#a53343;font:6px Inter,sans-serif">intracellular bug</text>
</g>

<!-- Causes panel below -->
<g transform="translate(250 220)">
  <rect x="-200" y="-13" width="400" height="26" rx="6" fill="rgba(209,72,89,0.20)" stroke="#d14859" stroke-width="1.4"/>
  <text x="0" y="3" text-anchor="middle" style="fill:#d14859;font:700 8.5px Inter,sans-serif;letter-spacing:1.2px">TB · HISTO · COCCI · BLASTO</text>
</g>

<text x="250" y="245" text-anchor="middle" style="fill:#6b7689;font:italic 7.5px Fraunces,serif">Caseation reflects accumulated cell death from intracellular pathogen burden</text>

                  <!-- FOCUS · audio-aligned attention marker -->
                  <circle cx="302" cy="140" r="60" fill="none" stroke="#d14859" stroke-width="1.8" stroke-dasharray="3 2" opacity="0.85">
                    <animate attributeName="r" values="56;66;56" dur="2.4s" repeatCount="indefinite"/>
                    <animate attributeName="opacity" values="0.85;0.20;0.85" dur="2.4s" repeatCount="indefinite"/>
                  </circle>
</svg>
