<?xml version="1.0" encoding="UTF-8"?>
<!--
  Auto-generated from the reference HTML by
  scripts/storymode-extraction/extract.mjs.
  Do not edit by hand — regenerate the file instead.
-->
<svg xmlns="http://www.w3.org/2000/svg" xmlns:xlink="http://www.w3.org/1999/xlink" viewBox="0 0 500 260" preserveAspectRatio="xMidYMid meet">
                  <text x="20" y="16" style="fill:#e8a951;font:600 9px Inter,sans-serif;letter-spacing:2px">STEP 09 · THE ANSWER</text>

                  <!-- Ghosted body map behind -->
                  <g opacity="0.30">
                    <g opacity="1"><rect x="80" y="80" width="340" height="35" rx="4" fill="#4fb8a8" fill-opacity="0.15" stroke="#4fb8a8" stroke-width="1.4" stroke-dasharray="3 2"></rect><text x="90" y="100" style="fill:#4fb8a8;font:600 8px Inter,sans-serif;letter-spacing:1.5px">GUT LUMEN</text><line x1="80" y1="118" x2="420" y2="118" stroke="#9370b9" stroke-width="1.4" stroke-dasharray="2 2" opacity="0.7"></line><rect x="80" y="125" width="340" height="50" rx="4" fill="#9370b9" fill-opacity="0.15" stroke="#9370b9" stroke-width="1.4" stroke-dasharray="3 2"></rect><text x="90" y="155" style="fill:#9370b9;font:600 8px Inter,sans-serif;letter-spacing:1.5px">SERUM / BLOODSTREAM</text><rect x="80" y="185" width="340" height="35" rx="4" fill="#e8a951" fill-opacity="0.15" stroke="#e8a951" stroke-width="1.4" stroke-dasharray="3 2"></rect><text x="90" y="205" style="fill:#e8a951;font:600 8px Inter,sans-serif;letter-spacing:1.5px">CNS · MOTOR NEURONS</text></g>
                    <g transform="translate(180 145)" opacity="1"><path d="M -5 -4 L -1 0 L 1 0 L 5 -4" stroke="#e8a951" stroke-width="1.8" fill="none" stroke-linecap="round"></path><line x1="0" y1="0" x2="0" y2="6" stroke="#e8a951" stroke-width="1.8" stroke-linecap="round"></line></g>
                    <g transform="translate(240 152)" opacity="1"><path d="M -5 -4 L -1 0 L 1 0 L 5 -4" stroke="#e8a951" stroke-width="1.8" fill="none" stroke-linecap="round"></path><line x1="0" y1="0" x2="0" y2="6" stroke="#e8a951" stroke-width="1.8" stroke-linecap="round"></line></g>
                    <g transform="translate(300 145)" opacity="1"><path d="M -5 -4 L -1 0 L 1 0 L 5 -4" stroke="#e8a951" stroke-width="1.8" fill="none" stroke-linecap="round"></path><line x1="0" y1="0" x2="0" y2="6" stroke="#e8a951" stroke-width="1.8" stroke-linecap="round"></line></g>
                    <g transform="translate(180 97)" opacity="1"><circle cx="0" cy="0" r="8" fill="#d14859" fill-opacity="0.85" stroke="#d14859" stroke-width="1"></circle><circle cx="7" cy="0" r="1.2" fill="#0a0e1a"></circle><circle cx="3.5" cy="6.1" r="1.2" fill="#0a0e1a"></circle><circle cx="-3.5" cy="6.1" r="1.2" fill="#0a0e1a"></circle><circle cx="-7" cy="0" r="1.2" fill="#0a0e1a"></circle><circle cx="-3.5" cy="-6.1" r="1.2" fill="#0a0e1a"></circle><circle cx="3.5" cy="-6.1" r="1.2" fill="#0a0e1a"></circle></g>
                    <g transform="translate(280 95)" opacity="1"><circle cx="0" cy="0" r="8" fill="#d14859" fill-opacity="0.85" stroke="#d14859" stroke-width="1"></circle><circle cx="7" cy="0" r="1.2" fill="#0a0e1a"></circle><circle cx="3.5" cy="6.1" r="1.2" fill="#0a0e1a"></circle><circle cx="-3.5" cy="6.1" r="1.2" fill="#0a0e1a"></circle><circle cx="-7" cy="0" r="1.2" fill="#0a0e1a"></circle><circle cx="-3.5" cy="-6.1" r="1.2" fill="#0a0e1a"></circle><circle cx="3.5" cy="-6.1" r="1.2" fill="#0a0e1a"></circle></g>
                  </g>

                  <!-- Distractors crossed out -->
                  <g opacity="0.45" font-family="Inter,sans-serif">
                    <text x="44" y="50" style="fill:#6b7689;font:8px Inter,sans-serif">A · no nAb</text>
                    <line x1="40" y1="46" x2="115" y2="46" stroke="#d14859" stroke-width="1" opacity="0.85"></line>
                    <text x="135" y="50" style="fill:#6b7689;font:8px Inter,sans-serif">C · IgM only</text>
                    <line x1="131" y1="46" x2="220" y2="46" stroke="#d14859" stroke-width="1" opacity="0.85"></line>
                    <text x="240" y="50" style="fill:#6b7689;font:8px Inter,sans-serif">D · T-cell only</text>
                    <line x1="236" y1="46" x2="335" y2="46" stroke="#d14859" stroke-width="1" opacity="0.85"></line>
                    <text x="355" y="50" style="fill:#6b7689;font:8px Inter,sans-serif">E · diff antigen</text>
                    <line x1="351" y1="46" x2="455" y2="46" stroke="#d14859" stroke-width="1" opacity="0.85"></line>
                  </g>

                  <!-- Hero answer banner (below the body map) -->
                  <g transform="translate(250 214)">
                    <rect x="-225" y="-10" width="450" height="20" rx="8" fill="#e8a951" fill-opacity="0.42" stroke="#e8a951" stroke-width="2.2"></rect>
                    <text x="0" y="3" text-anchor="middle" style="fill:#e8a951;font:700 9px Inter,sans-serif;letter-spacing:1.5px">B · IPV MAKES SERUM IgG · NOT MUCOSAL IgA</text>
                  </g>

                  <text x="250" y="245" text-anchor="middle" style="fill:#e8a951;font:italic 600 7.5px Fraunces,serif">route picks the compartment · injection → IgG · oral → IgA</text>

                  <!-- FOCUS · audio-aligned attention marker -->
                  <circle cx="250" cy="212" r="40" fill="none" stroke="#d14859" stroke-width="1.8" stroke-dasharray="3 2" opacity="0.85">
                    <animate attributeName="r" values="36;46;36" dur="2.4s" repeatCount="indefinite"/>
                    <animate attributeName="opacity" values="0.85;0.20;0.85" dur="2.4s" repeatCount="indefinite"/>
                  </circle>

                  <!-- FOCUS · audio-aligned attention marker -->
                  <circle cx="135" cy="45" r="20" fill="none" stroke="#d14859" stroke-width="1.8" stroke-dasharray="3 2" opacity="0.85">
                    <animate attributeName="r" values="16;26;16" dur="2.4s" repeatCount="indefinite"/>
                    <animate attributeName="opacity" values="0.85;0.20;0.85" dur="2.4s" repeatCount="indefinite"/>
                  </circle>
</svg>
