<?xml version="1.0" encoding="UTF-8"?>
<!--
  Auto-generated from the reference HTML by
  scripts/storymode-extraction/extract.mjs.
  Do not edit by hand — regenerate the file instead.
-->
<svg xmlns="http://www.w3.org/2000/svg" xmlns:xlink="http://www.w3.org/1999/xlink" viewBox="0 0 500 260" preserveAspectRatio="xMidYMid meet">
                  <text x="20" y="22" style="fill:#e8a951;font:600 10px Inter,sans-serif;letter-spacing:2px">STEP 03 · NEUTRALIZATION · BLOCK ATTACHMENT</text>

                  <!-- Side-by-side: without Ab vs with Ab -->
                  <!-- Without antibody: virus binds receptor -->
                  <g transform="translate(135 0)">
                    <text x="0" y="55" text-anchor="middle" style="fill:#d14859;font:600 9px Inter,sans-serif;letter-spacing:1.5px">WITHOUT Ab · INFECTS</text>
                    <g transform="translate(0 100)" opacity="1"><circle cx="0" cy="0" r="18" fill="#d14859" fill-opacity="0.65" stroke="#d14859" stroke-width="1.5"></circle><line x1="18" y1="0" x2="25" y2="0" stroke="#e8a951" stroke-width="2" stroke-linecap="round"></line><circle cx="25" cy="0" r="2" fill="#e8a951" opacity="0.9"></circle><line x1="12.727922061357857" y1="12.727922061357855" x2="17.67766952966369" y2="17.677669529663685" stroke="#e8a951" stroke-width="2" stroke-linecap="round"></line><circle cx="17.67766952966369" cy="17.677669529663685" r="2" fill="#e8a951" opacity="0.9"></circle><line x1="1.102182119232618e-15" y1="18" x2="1.5308084989341915e-15" y2="25" stroke="#e8a951" stroke-width="2" stroke-linecap="round"></line><circle cx="1.5308084989341915e-15" cy="25" r="2" fill="#e8a951" opacity="0.9"></circle><line x1="-12.727922061357855" y1="12.727922061357857" x2="-17.677669529663685" y2="17.67766952966369" stroke="#e8a951" stroke-width="2" stroke-linecap="round"></line><circle cx="-17.677669529663685" cy="17.67766952966369" r="2" fill="#e8a951" opacity="0.9"></circle><line x1="-18" y1="2.204364238465236e-15" x2="-25" y2="3.061616997868383e-15" stroke="#e8a951" stroke-width="2" stroke-linecap="round"></line><circle cx="-25" cy="3.061616997868383e-15" r="2" fill="#e8a951" opacity="0.9"></circle><line x1="-12.727922061357859" y1="-12.727922061357855" x2="-17.677669529663692" y2="-17.677669529663685" stroke="#e8a951" stroke-width="2" stroke-linecap="round"></line><circle cx="-17.677669529663692" cy="-17.677669529663685" r="2" fill="#e8a951" opacity="0.9"></circle><line x1="-3.3065463576978533e-15" y1="-18" x2="-4.592425496802574e-15" y2="-25" stroke="#e8a951" stroke-width="2" stroke-linecap="round"></line><circle cx="-4.592425496802574e-15" cy="-25" r="2" fill="#e8a951" opacity="0.9"></circle><line x1="12.727922061357852" y1="-12.727922061357859" x2="17.677669529663685" y2="-17.677669529663692" stroke="#e8a951" stroke-width="2" stroke-linecap="round"></line><circle cx="17.677669529663685" cy="-17.677669529663692" r="2" fill="#e8a951" opacity="0.9"></circle></g>
                    <!-- host membrane -->
                    <rect x="-65" y="190" width="130" height="20" rx="2" fill="#9370b9" fill-opacity="0.30" stroke="#9370b9" stroke-width="1.2"></rect>
                    <!-- receptor -->
                    <rect x="-7" y="178" width="14" height="14" rx="2" fill="#e8a951" fill-opacity="0.95" stroke="#e8a951" stroke-width="1.2"></rect>
                    <!-- spike attaching -->
                    <line x1="0" y1="118" x2="0" y2="178" stroke="#d14859" stroke-width="1.6" stroke-dasharray="3 2"></line>
                    <text x="0" y="220" text-anchor="middle" style="fill:#b4becf;font:italic 7px Fraunces,serif">spike → receptor</text>
                  </g>

                  <line x1="250" y1="60" x2="250" y2="220" stroke="#3a4358" stroke-width="0.8" stroke-dasharray="3 3"></line>

                  <!-- With neutralizing antibody: blocked -->
                  <g transform="translate(370 0)">
                    <text x="0" y="55" text-anchor="middle" style="fill:#6cc27d;font:600 9px Inter,sans-serif;letter-spacing:1.5px">WITH Ab · BLOCKED</text>
                    <g transform="translate(0 100)" opacity="1"><circle cx="0" cy="0" r="18" fill="#d14859" fill-opacity="0.65" stroke="#d14859" stroke-width="1.5"></circle><line x1="18" y1="0" x2="25" y2="0" stroke="#e8a951" stroke-width="2" stroke-linecap="round"></line><circle cx="25" cy="0" r="2" fill="#e8a951" opacity="0.9"></circle><line x1="12.727922061357857" y1="12.727922061357855" x2="17.67766952966369" y2="17.677669529663685" stroke="#e8a951" stroke-width="2" stroke-linecap="round"></line><circle cx="17.67766952966369" cy="17.677669529663685" r="2" fill="#e8a951" opacity="0.9"></circle><line x1="1.102182119232618e-15" y1="18" x2="1.5308084989341915e-15" y2="25" stroke="#e8a951" stroke-width="2" stroke-linecap="round"></line><circle cx="1.5308084989341915e-15" cy="25" r="2" fill="#e8a951" opacity="0.9"></circle><line x1="-12.727922061357855" y1="12.727922061357857" x2="-17.677669529663685" y2="17.67766952966369" stroke="#e8a951" stroke-width="2" stroke-linecap="round"></line><circle cx="-17.677669529663685" cy="17.67766952966369" r="2" fill="#e8a951" opacity="0.9"></circle><line x1="-18" y1="2.204364238465236e-15" x2="-25" y2="3.061616997868383e-15" stroke="#e8a951" stroke-width="2" stroke-linecap="round"></line><circle cx="-25" cy="3.061616997868383e-15" r="2" fill="#e8a951" opacity="0.9"></circle><line x1="-12.727922061357859" y1="-12.727922061357855" x2="-17.677669529663692" y2="-17.677669529663685" stroke="#e8a951" stroke-width="2" stroke-linecap="round"></line><circle cx="-17.677669529663692" cy="-17.677669529663685" r="2" fill="#e8a951" opacity="0.9"></circle><line x1="-3.3065463576978533e-15" y1="-18" x2="-4.592425496802574e-15" y2="-25" stroke="#e8a951" stroke-width="2" stroke-linecap="round"></line><circle cx="-4.592425496802574e-15" cy="-25" r="2" fill="#e8a951" opacity="0.9"></circle><line x1="12.727922061357852" y1="-12.727922061357859" x2="17.677669529663685" y2="-17.677669529663692" stroke="#e8a951" stroke-width="2" stroke-linecap="round"></line><circle cx="17.677669529663685" cy="-17.677669529663692" r="2" fill="#e8a951" opacity="0.9"></circle></g>
                    <!-- antibodies covering spikes -->
                    <g transform="translate(0 142)" opacity="1"><g stroke="#e8a951" stroke-width="3" fill="none" stroke-linecap="round"><path d="M -16 -10 L -7 -2 L 7 -2 L 16 -10"></path><line x1="0" y1="-2" x2="0" y2="14"></line></g><circle cx="-16" cy="-10" r="3" fill="#d14859"></circle><circle cx="16" cy="-10" r="3" fill="#d14859"></circle></g>
                    <g transform="translate(-22 130)" opacity="1"><g stroke="#e8a951" stroke-width="3" fill="none" stroke-linecap="round"><path d="M -16 -10 L -7 -2 L 7 -2 L 16 -10"></path><line x1="0" y1="-2" x2="0" y2="14"></line></g><circle cx="-16" cy="-10" r="3" fill="#d14859"></circle><circle cx="16" cy="-10" r="3" fill="#d14859"></circle></g>
                    <g transform="translate(22 130)" opacity="1"><g stroke="#e8a951" stroke-width="3" fill="none" stroke-linecap="round"><path d="M -16 -10 L -7 -2 L 7 -2 L 16 -10"></path><line x1="0" y1="-2" x2="0" y2="14"></line></g><circle cx="-16" cy="-10" r="3" fill="#d14859"></circle><circle cx="16" cy="-10" r="3" fill="#d14859"></circle></g>
                    <!-- host membrane -->
                    <rect x="-65" y="190" width="130" height="20" rx="2" fill="#9370b9" fill-opacity="0.30" stroke="#9370b9" stroke-width="1.2"></rect>
                    <!-- receptor (free, unbound) -->
                    <rect x="-7" y="178" width="14" height="14" rx="2" fill="#e8a951" fill-opacity="0.95" stroke="#e8a951" stroke-width="1.2"></rect>
                    <!-- X over the would-be attachment line -->
                    <g transform="translate(0 165)">
                      <line x1="-6" y1="-6" x2="6" y2="6" stroke="#d14859" stroke-width="2.4" stroke-linecap="round"></line>
                      <line x1="-6" y1="6" x2="6" y2="-6" stroke="#d14859" stroke-width="2.4" stroke-linecap="round"></line>
                    </g>
                    <text x="0" y="220" text-anchor="middle" style="fill:#b4becf;font:italic 7px Fraunces,serif">Fab covers spike</text>
                  </g>

                  <text x="250" y="252" text-anchor="middle" style="fill:#b4becf;font:italic 10px Fraunces,serif">antibody tips physically occupy the docking site · virus can't reach the receptor</text>

                  <!-- FOCUS · audio-aligned attention marker -->
                  <circle cx="370" cy="215" r="24" fill="none" stroke="#d14859" stroke-width="1.8" stroke-dasharray="3 2" opacity="0.85">
                    <animate attributeName="r" values="20;30;20" dur="2.4s" repeatCount="indefinite"/>
                    <animate attributeName="opacity" values="0.85;0.20;0.85" dur="2.4s" repeatCount="indefinite"/>
                  </circle>
</svg>
