<?xml version="1.0" encoding="UTF-8"?>
<!--
  Auto-generated from the reference HTML by
  scripts/storymode-extraction/extract.mjs.
  Do not edit by hand — regenerate the file instead.
-->
<svg xmlns="http://www.w3.org/2000/svg" xmlns:xlink="http://www.w3.org/1999/xlink" viewBox="0 0 500 260" preserveAspectRatio="xMidYMid meet">
                  <text x="20" y="16" style="fill:#e8a951;font:600 9px Inter,sans-serif;letter-spacing:2px">STEP 02 · VACCINATED · MAKES ANTI-HBs</text>

                  <!-- HBsAg subunits on left -->
                  <g transform="translate(110 145)">
                    <text x="0" y="-65" text-anchor="middle" style="fill:#4fb8a8;font:700 9px Inter,sans-serif;letter-spacing:1.5px">HBsAg (vaccine)</text>
                    <g transform="translate(-15 0)" opacity="1"><g stroke="#4fb8a8" stroke-width="2.4" fill="none" stroke-linecap="round"><line x1="0" y1="-12" x2="0" y2="8"></line><circle cx="0" cy="-12" r="4" fill="#4fb8a8" stroke="none"></circle><rect x="-12" y="6" width="24" height="6" rx="1" fill="#4fb8a8" fill-opacity="0.55" stroke="none"></rect></g></g>
                    <g transform="translate(0 -3)" opacity="1"><g stroke="#4fb8a8" stroke-width="2.4" fill="none" stroke-linecap="round"><line x1="0" y1="-12" x2="0" y2="8"></line><circle cx="0" cy="-12" r="4" fill="#4fb8a8" stroke="none"></circle><rect x="-12" y="6" width="24" height="6" rx="1" fill="#4fb8a8" fill-opacity="0.55" stroke="none"></rect></g></g>
                    <g transform="translate(15 0)" opacity="1"><g stroke="#4fb8a8" stroke-width="2.4" fill="none" stroke-linecap="round"><line x1="0" y1="-12" x2="0" y2="8"></line><circle cx="0" cy="-12" r="4" fill="#4fb8a8" stroke="none"></circle><rect x="-12" y="6" width="24" height="6" rx="1" fill="#4fb8a8" fill-opacity="0.55" stroke="none"></rect></g></g>
                  </g>

                  <!-- Arrow -->
                  <path d="M 165 145 L 215 145" stroke="#e8a951" stroke-width="1.6" fill="none"></path>
                  <polygon points="215,145 208,141 208,149" fill="#e8a951"></polygon>

                  <!-- B + T cells -->
                  <g transform="translate(265 145)">
                    <text x="0" y="-65" text-anchor="middle" style="fill:#9370b9;font:700 9px Inter,sans-serif;letter-spacing:1.5px">B + T HELP</text>
                    <circle cx="-12" cy="0" r="20" fill="#9370b9" fill-opacity="0.35" stroke="#9370b9" stroke-width="1.5"></circle>
                    <text x="-12" y="3" text-anchor="middle" style="fill:#e8ecf3;font:700 8px Inter,sans-serif">B</text>
                    <circle cx="14" cy="0" r="16" fill="#6cc27d" fill-opacity="0.35" stroke="#6cc27d" stroke-width="1.4"></circle>
                    <text x="14" y="3" text-anchor="middle" style="fill:#e8ecf3;font:700 7px Inter,sans-serif">T</text>
                    <line x1="3" y1="0" x2="6" y2="0" stroke="#e8a951" stroke-width="2"></line>
                  </g>

                  <!-- Arrow -->
                  <path d="M 320 145 L 365 145" stroke="#e8a951" stroke-width="1.6" fill="none"></path>
                  <polygon points="365,145 358,141 358,149" fill="#e8a951"></polygon>

                  <!-- Anti-HBs antibodies (teal Ys) -->
                  <g transform="translate(420 145)">
                    <text x="0" y="-65" text-anchor="middle" style="fill:#4fb8a8;font:700 9px Inter,sans-serif;letter-spacing:1.5px">ANTI-HBs IgG</text>
                    <g transform="translate(0 0) scale(1.4)" opacity="1"><g stroke="#4fb8a8" stroke-width="2" fill="none" stroke-linecap="round"><path d="M -7 -6 L -2 0 L 2 0 L 7 -6"></path><line x1="0" y1="0" x2="0" y2="9"></line></g></g>
                    <g transform="translate(-22 -8) scale(1.2)" opacity="1"><g stroke="#4fb8a8" stroke-width="2" fill="none" stroke-linecap="round"><path d="M -7 -6 L -2 0 L 2 0 L 7 -6"></path><line x1="0" y1="0" x2="0" y2="9"></line></g></g>
                    <g transform="translate(22 -8) scale(1.2)" opacity="1"><g stroke="#4fb8a8" stroke-width="2" fill="none" stroke-linecap="round"><path d="M -7 -6 L -2 0 L 2 0 L 7 -6"></path><line x1="0" y1="0" x2="0" y2="9"></line></g></g>
                    <g transform="translate(-12 14) scale(1.2)" opacity="1"><g stroke="#4fb8a8" stroke-width="2" fill="none" stroke-linecap="round"><path d="M -7 -6 L -2 0 L 2 0 L 7 -6"></path><line x1="0" y1="0" x2="0" y2="9"></line></g></g>
                    <g transform="translate(12 14) scale(1.2)" opacity="1"><g stroke="#4fb8a8" stroke-width="2" fill="none" stroke-linecap="round"><path d="M -7 -6 L -2 0 L 2 0 L 7 -6"></path><line x1="0" y1="0" x2="0" y2="9"></line></g></g>
                    <text x="0" y="40" text-anchor="middle" style="fill:#b4becf;font:italic 7px Fraunces,serif">protective antibody</text>
                  </g>

                  <text x="250" y="245" text-anchor="middle" style="fill:#b4becf;font:italic 7.5px Fraunces,serif">protein antigen · T-dependent · IgG with memory · this is the only Ab response</text>

                  <!-- FOCUS · audio-aligned attention marker -->
                  <circle cx="110" cy="75" r="22" fill="none" stroke="#d14859" stroke-width="1.8" stroke-dasharray="3 2" opacity="0.85">
                    <animate attributeName="r" values="18;28;18" dur="2.4s" repeatCount="indefinite"/>
                    <animate attributeName="opacity" values="0.85;0.20;0.85" dur="2.4s" repeatCount="indefinite"/>
                  </circle>
</svg>
