<?xml version="1.0" encoding="UTF-8"?>
<!--
  Auto-generated from the reference HTML by
  scripts/storymode-extraction/extract.mjs.
  Do not edit by hand — regenerate the file instead.
-->
<svg xmlns="http://www.w3.org/2000/svg" xmlns:xlink="http://www.w3.org/1999/xlink" viewBox="0 0 500 260" preserveAspectRatio="xMidYMid meet">
                  <text x="20" y="16" style="fill:#e8a951;font:600 9px Inter,sans-serif;letter-spacing:2px">STEP 07 · THE ANSWER</text>

                  <!-- Ghosted neutralization scene behind -->
                  <g opacity="0.30">
                    <g opacity="1"><rect x="60" y="195" width="380" height="30" rx="3" fill="#9370b9" fill-opacity="0.30" stroke="#9370b9" stroke-width="1.4"></rect><text x="68" y="214" style="fill:#9370b9;font:600 8px Inter,sans-serif;letter-spacing:1.5px">HOST CELL</text><g transform="translate(250 193)"><rect x="-7" y="-12" width="14" height="14" rx="2" fill="#e8a951" fill-opacity="0.95" stroke="#e8a951" stroke-width="1.4"></rect></g></g>
                    <g transform="translate(250 130)" opacity="1"><ellipse cx="0" cy="12" rx="22" ry="14" fill="#9370b9" fill-opacity="0.85" stroke="#9370b9" stroke-width="1.4"></ellipse><text x="0" y="15" text-anchor="middle" style="fill:#0a0e1a;font:700 8px Inter,sans-serif">B</text><line x1="0" y1="-2" x2="0" y2="2" stroke="#6b7689" stroke-width="2"></line><circle cx="0" cy="-12" r="11" fill="#d14859" fill-opacity="0.85" stroke="#d14859" stroke-width="1.4"></circle><text x="0" y="-10" text-anchor="middle" style="fill:#0a0e1a;font:700 8px Inter,sans-serif">A</text></g>
                    <g transform="translate(250 105) scale(1)" opacity="1"><g stroke="#e8a951" stroke-width="2.4" fill="none" stroke-linecap="round"><path d="M -12 -8 L -3 0 L 3 0 L 12 -8"></path><line x1="0" y1="0" x2="0" y2="14"></line></g><circle cx="-12" cy="-8" r="3" fill="#d14859"></circle><circle cx="12" cy="-8" r="3" fill="#d14859"></circle></g>
                    <g transform="translate(225 115) scale(1)" opacity="1"><g stroke="#e8a951" stroke-width="2.4" fill="none" stroke-linecap="round"><path d="M -12 -8 L -3 0 L 3 0 L 12 -8"></path><line x1="0" y1="0" x2="0" y2="14"></line></g><circle cx="-12" cy="-8" r="3" fill="#d14859"></circle><circle cx="12" cy="-8" r="3" fill="#d14859"></circle></g>
                    <g transform="translate(275 115) scale(1)" opacity="1"><g stroke="#e8a951" stroke-width="2.4" fill="none" stroke-linecap="round"><path d="M -12 -8 L -3 0 L 3 0 L 12 -8"></path><line x1="0" y1="0" x2="0" y2="14"></line></g><circle cx="-12" cy="-8" r="3" fill="#d14859"></circle><circle cx="12" cy="-8" r="3" fill="#d14859"></circle></g>
                  </g>

                  <!-- Distractors crossed out -->
                  <g opacity="0.45" font-family="Inter,sans-serif">
                    <text x="40" y="65" style="fill:#6b7689;font:9px Inter,sans-serif">A · live attenuated</text>
                    <line x1="36" y1="61" x2="155" y2="61" stroke="#d14859" stroke-width="1" opacity="0.85"></line>
                    <text x="175" y="65" style="fill:#6b7689;font:9px Inter,sans-serif">C · CTLs</text>
                    <line x1="171" y1="61" x2="240" y2="61" stroke="#d14859" stroke-width="1" opacity="0.85"></line>
                    <text x="260" y="65" style="fill:#6b7689;font:9px Inter,sans-serif">D · mucosal IgA</text>
                    <line x1="256" y1="61" x2="355" y2="61" stroke="#d14859" stroke-width="1" opacity="0.85"></line>
                    <text x="375" y="65" style="fill:#6b7689;font:9px Inter,sans-serif">E · capsule</text>
                    <line x1="371" y1="61" x2="455" y2="61" stroke="#d14859" stroke-width="1" opacity="0.85"></line>
                  </g>

                  <!-- Hero answer banner -->
                  <g transform="translate(250 214)">
                    <rect x="-225" y="-10" width="450" height="20" rx="8" fill="#e8a951" fill-opacity="0.42" stroke="#e8a951" stroke-width="2.2"></rect>
                    <text x="0" y="3" text-anchor="middle" style="fill:#e8a951;font:700 9px Inter,sans-serif;letter-spacing:1.5px">B · ANTIBODIES NEUTRALIZE DIPHTHERIA TOXIN</text>
                  </g>

                  <text x="250" y="245" text-anchor="middle" style="fill:#e8a951;font:italic 600 7.5px Fraunces,serif">toxoid → antitoxin IgG · IgG covers the B domain · toxin can't reach receptor · cell safe</text>

                  <!-- FOCUS · audio-aligned attention marker -->
                  <circle cx="250" cy="212" r="40" fill="none" stroke="#d14859" stroke-width="1.8" stroke-dasharray="3 2" opacity="0.85">
                    <animate attributeName="r" values="36;46;36" dur="2.4s" repeatCount="indefinite"/>
                    <animate attributeName="opacity" values="0.85;0.20;0.85" dur="2.4s" repeatCount="indefinite"/>
                  </circle>
</svg>
