<?xml version="1.0" encoding="UTF-8"?>
<!--
  Auto-generated from the reference HTML by
  scripts/storymode-extraction/extract.mjs.
  Do not edit by hand — regenerate the file instead.
-->
<svg xmlns="http://www.w3.org/2000/svg" xmlns:xlink="http://www.w3.org/1999/xlink" viewBox="0 0 500 260" preserveAspectRatio="xMidYMid meet">
                  <text x="20" y="16" style="fill:#e8a951;font:600 9px Inter,sans-serif;letter-spacing:2px">STEP 05 · NEUTRALIZATION · TOXIN BLOCKED</text>

                  <g opacity="1"><rect x="60" y="195" width="380" height="30" rx="3" fill="#9370b9" fill-opacity="0.30" stroke="#9370b9" stroke-width="1.4"></rect><text x="68" y="214" style="fill:#9370b9;font:600 8px Inter,sans-serif;letter-spacing:1.5px">HOST CELL</text><g transform="translate(250 193)"><rect x="-7" y="-12" width="14" height="14" rx="2" fill="#e8a951" fill-opacity="0.95" stroke="#e8a951" stroke-width="1.4"></rect></g><g transform="translate(250 230)"><ellipse cx="0" cy="0" rx="14" ry="6" fill="#4fb8a8" fill-opacity="0.85"></ellipse><text x="0" y="2" text-anchor="middle" style="fill:#0a0e1a;font:700 6px Inter,sans-serif">EF-2</text></g></g>

                  <!-- Active toxin floating, with antibodies bound to it -->
                  <g transform="translate(250 130)">
                    <g transform="translate(0 0)" opacity="1"><ellipse cx="0" cy="12" rx="22" ry="14" fill="#9370b9" fill-opacity="0.85" stroke="#9370b9" stroke-width="1.4"></ellipse><text x="0" y="15" text-anchor="middle" style="fill:#0a0e1a;font:700 8px Inter,sans-serif">B</text><line x1="0" y1="-2" x2="0" y2="2" stroke="#6b7689" stroke-width="2"></line><circle cx="0" cy="-12" r="11" fill="#d14859" fill-opacity="0.85" stroke="#d14859" stroke-width="1.4"></circle><text x="0" y="-10" text-anchor="middle" style="fill:#0a0e1a;font:700 8px Inter,sans-serif">A</text></g>
                    <!-- Antibodies covering the toxin -->
                    <g transform="translate(0 -25) scale(1)" opacity="1"><g stroke="#e8a951" stroke-width="2.4" fill="none" stroke-linecap="round"><path d="M -12 -8 L -3 0 L 3 0 L 12 -8"></path><line x1="0" y1="0" x2="0" y2="14"></line></g><circle cx="-12" cy="-8" r="3" fill="#d14859"></circle><circle cx="12" cy="-8" r="3" fill="#d14859"></circle></g>
                    <g transform="translate(-22 -15) scale(0.85)" opacity="1"><g stroke="#e8a951" stroke-width="2.4" fill="none" stroke-linecap="round"><path d="M -12 -8 L -3 0 L 3 0 L 12 -8"></path><line x1="0" y1="0" x2="0" y2="14"></line></g><circle cx="-12" cy="-8" r="3" fill="#d14859"></circle><circle cx="12" cy="-8" r="3" fill="#d14859"></circle></g>
                    <g transform="translate(22 -15) scale(0.85)" opacity="1"><g stroke="#e8a951" stroke-width="2.4" fill="none" stroke-linecap="round"><path d="M -12 -8 L -3 0 L 3 0 L 12 -8"></path><line x1="0" y1="0" x2="0" y2="14"></line></g><circle cx="-12" cy="-8" r="3" fill="#d14859"></circle><circle cx="12" cy="-8" r="3" fill="#d14859"></circle></g>
                    <g transform="translate(-18 22) scale(0.85)" opacity="1"><g stroke="#e8a951" stroke-width="2.4" fill="none" stroke-linecap="round"><path d="M -12 -8 L -3 0 L 3 0 L 12 -8"></path><line x1="0" y1="0" x2="0" y2="14"></line></g><circle cx="-12" cy="-8" r="3" fill="#d14859"></circle><circle cx="12" cy="-8" r="3" fill="#d14859"></circle></g>
                    <g transform="translate(18 22) scale(0.85)" opacity="1"><g stroke="#e8a951" stroke-width="2.4" fill="none" stroke-linecap="round"><path d="M -12 -8 L -3 0 L 3 0 L 12 -8"></path><line x1="0" y1="0" x2="0" y2="14"></line></g><circle cx="-12" cy="-8" r="3" fill="#d14859"></circle><circle cx="12" cy="-8" r="3" fill="#d14859"></circle></g>
                  </g>

                  <!-- X over the receptor docking line -->
                  <g transform="translate(250 175)">
                    <line x1="-7" y1="-7" x2="7" y2="7" stroke="#d14859" stroke-width="2.6" stroke-linecap="round"></line>
                    <line x1="-7" y1="7" x2="7" y2="-7" stroke="#d14859" stroke-width="2.6" stroke-linecap="round"></line>
                  </g>

                  <!-- Outcome -->
                  <g transform="translate(420 100)">
                    <rect x="-50" y="-15" width="100" height="30" rx="6" fill="#6cc27d" fill-opacity="0.30" stroke="#6cc27d" stroke-width="1.6"></rect>
                    <text x="0" y="-2" text-anchor="middle" style="fill:#6cc27d;font:700 8px Inter,sans-serif;letter-spacing:1.2px">CELL SAFE</text>
                    <text x="0" y="11" text-anchor="middle" style="fill:#b4becf;font:italic 7px Fraunces,serif">no toxin entry</text>
                  </g>

                  <text x="250" y="245" text-anchor="middle" style="fill:#b4becf;font:italic 7.5px Fraunces,serif">antitoxin Ab binds B domain · toxin can't dock · A never enters · cell survives</text>

                  <!-- FOCUS · audio-aligned attention marker -->
                  <circle cx="420" cy="106" r="21" fill="none" stroke="#d14859" stroke-width="1.8" stroke-dasharray="3 2" opacity="0.85">
                    <animate attributeName="r" values="17;27;17" dur="2.4s" repeatCount="indefinite"/>
                    <animate attributeName="opacity" values="0.85;0.20;0.85" dur="2.4s" repeatCount="indefinite"/>
                  </circle>
</svg>
