<?xml version="1.0" encoding="UTF-8"?>
<!--
  Auto-generated from the reference HTML by
  scripts/storymode-extraction/extract.mjs.
  Do not edit by hand — regenerate the file instead.
-->
<svg xmlns="http://www.w3.org/2000/svg" xmlns:xlink="http://www.w3.org/1999/xlink" viewBox="0 0 500 260" preserveAspectRatio="xMidYMid meet">
                  <text x="20" y="22" style="fill:#e8a951;font:600 10px Inter,sans-serif;letter-spacing:2px">STEP 09 · HPV VACCINE · NEUTRALIZATION → CANCER PREVENTED</text>

                  <!-- HPV virus -->
                  <g transform="translate(125 140)">
                    <text x="0" y="-65" text-anchor="middle" style="fill:#d14859;font:700 9px Inter,sans-serif;letter-spacing:1.5px">HPV (oncogenic)</text>
                    <g transform="translate(0 0)" opacity="1"><circle cx="0" cy="0" r="22" fill="#d14859" fill-opacity="0.65" stroke="#d14859" stroke-width="1.5"></circle><line x1="22" y1="0" x2="29" y2="0" stroke="#e8a951" stroke-width="2" stroke-linecap="round"></line><circle cx="29" cy="0" r="2" fill="#e8a951" opacity="0.9"></circle><line x1="15.556349186104047" y1="15.556349186104043" x2="20.50609665440988" y2="20.506096654409877" stroke="#e8a951" stroke-width="2" stroke-linecap="round"></line><circle cx="20.50609665440988" cy="20.506096654409877" r="2" fill="#e8a951" opacity="0.9"></circle><line x1="1.3471114790620886e-15" y1="22" x2="1.7757378587636622e-15" y2="29" stroke="#e8a951" stroke-width="2" stroke-linecap="round"></line><circle cx="1.7757378587636622e-15" cy="29" r="2" fill="#e8a951" opacity="0.9"></circle><line x1="-15.556349186104043" y1="15.556349186104047" x2="-20.506096654409877" y2="20.50609665440988" stroke="#e8a951" stroke-width="2" stroke-linecap="round"></line><circle cx="-20.506096654409877" cy="20.50609665440988" r="2" fill="#e8a951" opacity="0.9"></circle><line x1="-22" y1="2.6942229581241772e-15" x2="-29" y2="3.5514757175273244e-15" stroke="#e8a951" stroke-width="2" stroke-linecap="round"></line><circle cx="-29" cy="3.5514757175273244e-15" r="2" fill="#e8a951" opacity="0.9"></circle><line x1="-15.556349186104049" y1="-15.556349186104043" x2="-20.506096654409884" y2="-20.506096654409877" stroke="#e8a951" stroke-width="2" stroke-linecap="round"></line><circle cx="-20.506096654409884" cy="-20.506096654409877" r="2" fill="#e8a951" opacity="0.9"></circle><line x1="-4.0413344371862654e-15" y1="-22" x2="-5.327213576290986e-15" y2="-29" stroke="#e8a951" stroke-width="2" stroke-linecap="round"></line><circle cx="-5.327213576290986e-15" cy="-29" r="2" fill="#e8a951" opacity="0.9"></circle><line x1="15.556349186104041" y1="-15.556349186104049" x2="20.506096654409873" y2="-20.506096654409884" stroke="#e8a951" stroke-width="2" stroke-linecap="round"></line><circle cx="20.506096654409873" cy="-20.506096654409884" r="2" fill="#e8a951" opacity="0.9"></circle></g>
                    <text x="0" y="40" text-anchor="middle" style="fill:#b4becf;font:italic 7px Fraunces,serif">L1 capsid</text>
                  </g>

                  <!-- arrow -->
                  <path d="M 175 140 L 225 140" stroke="#e8a951" stroke-width="1.6" fill="none"></path>
                  <polygon points="225,140 218,136 218,144" fill="#e8a951"></polygon>
                  <text x="200" y="130" text-anchor="middle" style="fill:#e8a951;font:600 7px Inter,sans-serif;letter-spacing:1.2px">BLOCKED</text>

                  <!-- Vaccine + high titer antibodies -->
                  <g transform="translate(290 140)">
                    <text x="0" y="-65" text-anchor="middle" style="fill:#e8a951;font:700 9px Inter,sans-serif;letter-spacing:1.5px">VACCINE Ab</text>
                    <g transform="translate(0 0)" opacity="1"><g stroke="#e8a951" stroke-width="3" fill="none" stroke-linecap="round"><path d="M -16 -10 L -7 -2 L 7 -2 L 16 -10"></path><line x1="0" y1="-2" x2="0" y2="14"></line></g><circle cx="-16" cy="-10" r="3" fill="#d14859"></circle><circle cx="16" cy="-10" r="3" fill="#d14859"></circle></g>
                    <g transform="translate(-22 -10)" opacity="1"><g stroke="#e8a951" stroke-width="3" fill="none" stroke-linecap="round"><path d="M -16 -10 L -7 -2 L 7 -2 L 16 -10"></path><line x1="0" y1="-2" x2="0" y2="14"></line></g><circle cx="-16" cy="-10" r="3" fill="#d14859"></circle><circle cx="16" cy="-10" r="3" fill="#d14859"></circle></g>
                    <g transform="translate(22 -10)" opacity="1"><g stroke="#e8a951" stroke-width="3" fill="none" stroke-linecap="round"><path d="M -16 -10 L -7 -2 L 7 -2 L 16 -10"></path><line x1="0" y1="-2" x2="0" y2="14"></line></g><circle cx="-16" cy="-10" r="3" fill="#d14859"></circle><circle cx="16" cy="-10" r="3" fill="#d14859"></circle></g>
                    <g transform="translate(0 12)" opacity="1"><g stroke="#e8a951" stroke-width="3" fill="none" stroke-linecap="round"><path d="M -16 -10 L -7 -2 L 7 -2 L 16 -10"></path><line x1="0" y1="-2" x2="0" y2="14"></line></g><circle cx="-16" cy="-10" r="3" fill="#d14859"></circle><circle cx="16" cy="-10" r="3" fill="#d14859"></circle></g>
                    <g transform="translate(-22 6)" opacity="1"><g stroke="#e8a951" stroke-width="3" fill="none" stroke-linecap="round"><path d="M -16 -10 L -7 -2 L 7 -2 L 16 -10"></path><line x1="0" y1="-2" x2="0" y2="14"></line></g><circle cx="-16" cy="-10" r="3" fill="#d14859"></circle><circle cx="16" cy="-10" r="3" fill="#d14859"></circle></g>
                    <g transform="translate(22 6)" opacity="1"><g stroke="#e8a951" stroke-width="3" fill="none" stroke-linecap="round"><path d="M -16 -10 L -7 -2 L 7 -2 L 16 -10"></path><line x1="0" y1="-2" x2="0" y2="14"></line></g><circle cx="-16" cy="-10" r="3" fill="#d14859"></circle><circle cx="16" cy="-10" r="3" fill="#d14859"></circle></g>
                    <text x="0" y="40" text-anchor="middle" style="fill:#b4becf;font:italic 7px Fraunces,serif">high titer</text>
                  </g>

                  <!-- Cervix protected -->
                  <g transform="translate(415 140)">
                    <text x="0" y="-65" text-anchor="middle" style="fill:#6cc27d;font:700 9px Inter,sans-serif;letter-spacing:1.5px">CERVIX</text>
                    <ellipse cx="0" cy="0" rx="32" ry="22" fill="#6cc27d" fill-opacity="0.30" stroke="#6cc27d" stroke-width="1.6">
                      <animate attributeName="fill-opacity" values="0.30;0.50;0.30" dur="2.4s" repeatCount="indefinite"></animate>
                    </ellipse>
                    <text x="0" y="3" text-anchor="middle" style="fill:#6cc27d;font:700 9px Inter,sans-serif">PROTECTED</text>
                    <text x="0" y="40" text-anchor="middle" style="fill:#b4becf;font:italic 7px Fraunces,serif">no infection · no cancer</text>
                  </g>

                  <text x="250" y="252" text-anchor="middle" style="fill:#b4becf;font:italic 10px Fraunces,serif">stop the virus from infecting epithelium · stop the oncogenic cascade entirely</text>

                  <!-- FOCUS · audio-aligned attention marker -->
                  <circle cx="415" cy="175" r="36" fill="none" stroke="#d14859" stroke-width="1.8" stroke-dasharray="3 2" opacity="0.85">
                    <animate attributeName="r" values="32;42;32" dur="2.4s" repeatCount="indefinite"/>
                    <animate attributeName="opacity" values="0.85;0.20;0.85" dur="2.4s" repeatCount="indefinite"/>
                  </circle>
</svg>
