<?xml version="1.0" encoding="UTF-8"?>
<!--
  Auto-generated from the reference HTML by
  scripts/storymode-extraction/extract.mjs.
  Do not edit by hand — regenerate the file instead.
-->
<svg xmlns="http://www.w3.org/2000/svg" xmlns:xlink="http://www.w3.org/1999/xlink" viewBox="0 0 500 260" preserveAspectRatio="xMidYMid meet">
<text x="20" y="16" style="fill:#e8a951;font:600 9px Inter,sans-serif;letter-spacing:2px">STEP 05 · AMPHO B · ERGOSTEROL PORES</text>

<!-- Membrane bilayer with ampho B inserting -->
<g transform="translate(250 145)">
  <text x="0" y="-95" text-anchor="middle" style="fill:#9370b9;font:700 9px Inter,sans-serif;letter-spacing:1.5px">FUNGAL MEMBRANE</text>
  
  <!-- Bilayer outer leaflet -->
  <g fill="rgba(180,190,207,0.85)" stroke="#b4becf" stroke-width="0.6">
    <circle cx="-130" cy="-15" r="4"/>
    <circle cx="-105" cy="-15" r="4"/>
    <circle cx="-80" cy="-15" r="4"/>
    <circle cx="-55" cy="-15" r="4"/>
    <circle cx="55" cy="-15" r="4"/>
    <circle cx="80" cy="-15" r="4"/>
    <circle cx="105" cy="-15" r="4"/>
    <circle cx="130" cy="-15" r="4"/>
  </g>
  
  <!-- Tails -->
  <g stroke="#9370b9" stroke-width="1" fill="none" stroke-linecap="round">
    <path d="M -130 -11 L -130 0"/>
    <path d="M -105 -11 L -105 0"/>
    <path d="M -80 -11 L -80 0"/>
    <path d="M -55 -11 L -55 0"/>
    <path d="M 55 -11 L 55 0"/>
    <path d="M 80 -11 L 80 0"/>
    <path d="M 105 -11 L 105 0"/>
    <path d="M 130 -11 L 130 0"/>
    <path d="M -130 0 L -130 11"/>
    <path d="M -105 0 L -105 11"/>
    <path d="M -80 0 L -80 11"/>
    <path d="M -55 0 L -55 11"/>
    <path d="M 55 0 L 55 11"/>
    <path d="M 80 0 L 80 11"/>
    <path d="M 105 0 L 105 11"/>
    <path d="M 130 0 L 130 11"/>
  </g>
  
  <!-- Inner leaflet -->
  <g fill="rgba(180,190,207,0.85)" stroke="#b4becf" stroke-width="0.6">
    <circle cx="-130" cy="15" r="4"/>
    <circle cx="-105" cy="15" r="4"/>
    <circle cx="-80" cy="15" r="4"/>
    <circle cx="-55" cy="15" r="4"/>
    <circle cx="55" cy="15" r="4"/>
    <circle cx="80" cy="15" r="4"/>
    <circle cx="105" cy="15" r="4"/>
    <circle cx="130" cy="15" r="4"/>
  </g>
  
  <!-- Ergosterol molecules in membrane (green) -->
  <g fill="rgba(108,194,125,0.85)" stroke="#6cc27d" stroke-width="0.6">
    <ellipse cx="-92" cy="0" rx="3" ry="10"/>
    <ellipse cx="-67" cy="0" rx="3" ry="10"/>
    <ellipse cx="68" cy="0" rx="3" ry="10"/>
    <ellipse cx="92" cy="0" rx="3" ry="10"/>
  </g>
  
  <!-- Ampho B forming pore in middle -->
  <g transform="translate(0 0)">
    <!-- Pore opening -->
    <ellipse cx="0" cy="0" rx="18" ry="22" fill="rgba(20,24,40,0.95)" stroke="#d14859" stroke-width="1.6"/>
    <!-- Ampho B molecules around pore -->
    <g fill="rgba(232,169,81,0.85)" stroke="#e8a951" stroke-width="0.6">
      <ellipse cx="-15" cy="0" rx="3" ry="14"/>
      <ellipse cx="15" cy="0" rx="3" ry="14"/>
      <ellipse cx="-7" cy="-12" rx="3" ry="6" transform="rotate(45 -7 -12)"/>
      <ellipse cx="7" cy="-12" rx="3" ry="6" transform="rotate(-45 7 -12)"/>
      <ellipse cx="-7" cy="12" rx="3" ry="6" transform="rotate(-45 -7 12)"/>
      <ellipse cx="7" cy="12" rx="3" ry="6" transform="rotate(45 7 12)"/>
    </g>
    <text x="0" y="3" text-anchor="middle" style="fill:#fff;font:700 7px Inter,sans-serif">PORE</text>
  </g>
  
  <text x="40" y="-32" style="fill:#e8a951;font:6.5px Inter,sans-serif">AMP-B binds ergosterol</text>
  <text x="40" y="-22" style="fill:#e8a951;font:6.5px Inter,sans-serif">→ pore → cell death</text>
</g>

<!-- Toxicity bottom -->
<g transform="translate(250 215)">
  <rect x="-200" y="-13" width="400" height="26" rx="6" fill="rgba(209,72,89,0.30)" stroke="#d14859" stroke-width="1.6"/>
  <text x="0" y="3" text-anchor="middle" style="fill:#d14859;font:700 9px Inter,sans-serif;letter-spacing:1.2px">NEPHROTOXIC · "AMPHO-TERRIBLE"</text>
</g>

<text x="250" y="245" text-anchor="middle" style="fill:#6b7689;font:italic 7.5px Fraunces,serif">Broadest spectrum · liposomal forms safer · cryptococcal mening + mucor</text>

                  <!-- FOCUS · audio-aligned attention marker -->
                  <circle cx="290" cy="108" r="33" fill="none" stroke="#d14859" stroke-width="1.8" stroke-dasharray="3 2" opacity="0.85">
                    <animate attributeName="r" values="29;39;29" dur="2.4s" repeatCount="indefinite"/>
                    <animate attributeName="opacity" values="0.85;0.20;0.85" dur="2.4s" repeatCount="indefinite"/>
                  </circle>

                  <!-- FOCUS · audio-aligned attention marker -->
                  <circle cx="290" cy="118" r="28" fill="none" stroke="#d14859" stroke-width="1.8" stroke-dasharray="3 2" opacity="0.85">
                    <animate attributeName="r" values="24;34;24" dur="2.4s" repeatCount="indefinite"/>
                    <animate attributeName="opacity" values="0.85;0.20;0.85" dur="2.4s" repeatCount="indefinite"/>
                  </circle>

                  <!-- FOCUS · audio-aligned attention marker -->
                  <circle cx="250" cy="45" r="22" fill="none" stroke="#d14859" stroke-width="1.8" stroke-dasharray="3 2" opacity="0.85">
                    <animate attributeName="r" values="18;28;18" dur="2.4s" repeatCount="indefinite"/>
                    <animate attributeName="opacity" values="0.85;0.20;0.85" dur="2.4s" repeatCount="indefinite"/>
                  </circle>
              </svg>
