<?xml version="1.0" encoding="UTF-8"?>
<!--
  Auto-generated from the reference HTML by
  scripts/storymode-extraction/extract.mjs.
  Do not edit by hand — regenerate the file instead.
-->
<svg xmlns="http://www.w3.org/2000/svg" xmlns:xlink="http://www.w3.org/1999/xlink" viewBox="0 0 500 260" preserveAspectRatio="xMidYMid meet">
<text x="20" y="16" style="fill:#e8a951;font:600 9px Inter,sans-serif;letter-spacing:2px">STEP 04 · CHRONIC ACTIVATION · Mφ → EPITHELIOID + GIANT</text><g>
    <rect x="20" y="30" width="180" height="16" rx="8" fill="rgba(232, 169, 81, 0.18)" stroke="#e8a951" stroke-width="1"/>
    <text x="110" y="41" text-anchor="middle" style="fill:#e8a951;font:700 8px Inter,sans-serif;letter-spacing:1.2px">TYPE IV · GRANULOMATOUS</text>
  </g><g opacity="1"><circle cx="250" cy="115" r="58" fill="none" stroke="#4fb8a8" stroke-width="0.8" stroke-dasharray="2 2" opacity="0.5"/><circle cx="250" cy="115" r="42" fill="#4fb8a8" fill-opacity="0.06" stroke="#4fb8a8" stroke-width="0.6" opacity="0.4"/><g transform="translate(302 115)">
      <circle cx="0" cy="0" r="4.5" fill="#4fb8a8" opacity="0.55" stroke="#4fb8a8" stroke-width="0.9"/>
      <ellipse cx="0" cy="0" rx="2" ry="1.7" fill="#4fb8a8" opacity="0.95"/>
    </g><g transform="translate(295.0333209967908 141)">
      <circle cx="0" cy="0" r="4.5" fill="#4fb8a8" opacity="0.55" stroke="#4fb8a8" stroke-width="0.9"/>
      <ellipse cx="0" cy="0" rx="2" ry="1.7" fill="#4fb8a8" opacity="0.95"/>
    </g><g transform="translate(276 160.0333209967908)">
      <circle cx="0" cy="0" r="4.5" fill="#4fb8a8" opacity="0.55" stroke="#4fb8a8" stroke-width="0.9"/>
      <ellipse cx="0" cy="0" rx="2" ry="1.7" fill="#4fb8a8" opacity="0.95"/>
    </g><g transform="translate(250 167)">
      <circle cx="0" cy="0" r="4.5" fill="#4fb8a8" opacity="0.55" stroke="#4fb8a8" stroke-width="0.9"/>
      <ellipse cx="0" cy="0" rx="2" ry="1.7" fill="#4fb8a8" opacity="0.95"/>
    </g><g transform="translate(224 160.03332099679082)">
      <circle cx="0" cy="0" r="4.5" fill="#4fb8a8" opacity="0.55" stroke="#4fb8a8" stroke-width="0.9"/>
      <ellipse cx="0" cy="0" rx="2" ry="1.7" fill="#4fb8a8" opacity="0.95"/>
    </g><g transform="translate(204.96667900320918 141)">
      <circle cx="0" cy="0" r="4.5" fill="#4fb8a8" opacity="0.55" stroke="#4fb8a8" stroke-width="0.9"/>
      <ellipse cx="0" cy="0" rx="2" ry="1.7" fill="#4fb8a8" opacity="0.95"/>
    </g><g transform="translate(198 115)">
      <circle cx="0" cy="0" r="4.5" fill="#4fb8a8" opacity="0.55" stroke="#4fb8a8" stroke-width="0.9"/>
      <ellipse cx="0" cy="0" rx="2" ry="1.7" fill="#4fb8a8" opacity="0.95"/>
    </g><g transform="translate(204.9666790032092 89)">
      <circle cx="0" cy="0" r="4.5" fill="#4fb8a8" opacity="0.55" stroke="#4fb8a8" stroke-width="0.9"/>
      <ellipse cx="0" cy="0" rx="2" ry="1.7" fill="#4fb8a8" opacity="0.95"/>
    </g><g transform="translate(223.99999999999997 69.96667900320921)">
      <circle cx="0" cy="0" r="4.5" fill="#4fb8a8" opacity="0.55" stroke="#4fb8a8" stroke-width="0.9"/>
      <ellipse cx="0" cy="0" rx="2" ry="1.7" fill="#4fb8a8" opacity="0.95"/>
    </g><g transform="translate(250 63)">
      <circle cx="0" cy="0" r="4.5" fill="#4fb8a8" opacity="0.55" stroke="#4fb8a8" stroke-width="0.9"/>
      <ellipse cx="0" cy="0" rx="2" ry="1.7" fill="#4fb8a8" opacity="0.95"/>
    </g><g transform="translate(276 69.9666790032092)">
      <circle cx="0" cy="0" r="4.5" fill="#4fb8a8" opacity="0.55" stroke="#4fb8a8" stroke-width="0.9"/>
      <ellipse cx="0" cy="0" rx="2" ry="1.7" fill="#4fb8a8" opacity="0.95"/>
    </g><g transform="translate(295.0333209967908 88.99999999999997)">
      <circle cx="0" cy="0" r="4.5" fill="#4fb8a8" opacity="0.55" stroke="#4fb8a8" stroke-width="0.9"/>
      <ellipse cx="0" cy="0" rx="2" ry="1.7" fill="#4fb8a8" opacity="0.95"/>
    </g><g transform="translate(274.24871130596426 129) rotate(120)">
        <ellipse cx="0" cy="0" rx="9" ry="4" fill="#4fb8a8" opacity="0.55" stroke="#4fb8a8" stroke-width="1"/>
        <ellipse cx="-2" cy="0" rx="2.5" ry="1.5" fill="#2d8a7c" opacity="0.85"/>
      </g><g transform="translate(250 143) rotate(180)">
        <ellipse cx="0" cy="0" rx="9" ry="4" fill="#4fb8a8" opacity="0.55" stroke="#4fb8a8" stroke-width="1"/>
        <ellipse cx="-2" cy="0" rx="2.5" ry="1.5" fill="#2d8a7c" opacity="0.85"/>
      </g><g transform="translate(225.7512886940357 129) rotate(240)">
        <ellipse cx="0" cy="0" rx="9" ry="4" fill="#4fb8a8" opacity="0.55" stroke="#4fb8a8" stroke-width="1"/>
        <ellipse cx="-2" cy="0" rx="2.5" ry="1.5" fill="#2d8a7c" opacity="0.85"/>
      </g><g transform="translate(225.7512886940357 101) rotate(300)">
        <ellipse cx="0" cy="0" rx="9" ry="4" fill="#4fb8a8" opacity="0.55" stroke="#4fb8a8" stroke-width="1"/>
        <ellipse cx="-2" cy="0" rx="2.5" ry="1.5" fill="#2d8a7c" opacity="0.85"/>
      </g><g transform="translate(250 87) rotate(360)">
        <ellipse cx="0" cy="0" rx="9" ry="4" fill="#4fb8a8" opacity="0.55" stroke="#4fb8a8" stroke-width="1"/>
        <ellipse cx="-2" cy="0" rx="2.5" ry="1.5" fill="#2d8a7c" opacity="0.85"/>
      </g><g transform="translate(274.24871130596426 100.99999999999999) rotate(420)">
        <ellipse cx="0" cy="0" rx="9" ry="4" fill="#4fb8a8" opacity="0.55" stroke="#4fb8a8" stroke-width="1"/>
        <ellipse cx="-2" cy="0" rx="2.5" ry="1.5" fill="#2d8a7c" opacity="0.85"/>
      </g><g transform="translate(238 109)">
      <ellipse cx="0" cy="0" rx="11" ry="8" fill="#4fb8a8" opacity="0.65" stroke="#4fb8a8" stroke-width="1.2"/>
      <circle cx="-5" cy="-1" r="1.5" fill="#2d8a7c" opacity="0.9"/>
      <circle cx="0" cy="-2" r="1.5" fill="#2d8a7c" opacity="0.9"/>
      <circle cx="5" cy="-1" r="1.5" fill="#2d8a7c" opacity="0.9"/>
      <circle cx="-3" cy="3" r="1.4" fill="#2d8a7c" opacity="0.9"/>
      <circle cx="4" cy="3" r="1.4" fill="#2d8a7c" opacity="0.9"/>
    </g><g transform="translate(264 121)">
      <ellipse cx="0" cy="0" rx="9" ry="7" fill="#4fb8a8" opacity="0.65" stroke="#4fb8a8" stroke-width="1.2"/>
      <circle cx="-3" cy="-1" r="1.4" fill="#2d8a7c" opacity="0.9"/>
      <circle cx="3" cy="-1" r="1.4" fill="#2d8a7c" opacity="0.9"/>
      <circle cx="0" cy="2.5" r="1.4" fill="#2d8a7c" opacity="0.9"/>
    </g><text x="250" y="51" text-anchor="middle" style="fill:#4fb8a8;font:700 7px Inter,sans-serif;letter-spacing:1.5px">GRANULOMA</text><g>
        <line x1="180" y1="115" x2="200" y2="115" stroke="#4fb8a8" stroke-width="0.6" opacity="0.6"/>
        <text x="178" y="106" text-anchor="end" style="fill:#4fb8a8;font:600 7px Inter,sans-serif">CD4 Th1 rim</text>
        <text x="178" y="116" text-anchor="end" style="fill:#6b7689;font:italic 6.5px Fraunces,serif">IFN-γ source</text>
      </g><g>
        <line x1="200" y1="143" x2="220" y2="135" stroke="#4fb8a8" stroke-width="0.6" opacity="0.6"/>
        <text x="198" y="146" text-anchor="end" style="fill:#4fb8a8;font:600 7px Inter,sans-serif">epithelioid Mφ</text>
      </g><g>
        <line x1="320" y1="115" x2="300" y2="115" stroke="#4fb8a8" stroke-width="0.6" opacity="0.6"/>
        <text x="322" y="113" style="fill:#4fb8a8;font:600 7px Inter,sans-serif">giant cells</text>
        <text x="322" y="123" style="fill:#6b7689;font:italic 6.5px Fraunces,serif">multinucleated</text>
      </g></g>

                  <!-- FOCUS · audio-aligned attention marker -->
                  <circle cx="223" cy="94" r="60" fill="none" stroke="#d14859" stroke-width="1.8" stroke-dasharray="3 2" opacity="0.85">
                    <animate attributeName="r" values="56;66;56" dur="2.4s" repeatCount="indefinite"/>
                    <animate attributeName="opacity" values="0.85;0.20;0.85" dur="2.4s" repeatCount="indefinite"/>
                  </circle>
</svg>
