<?xml version="1.0" encoding="UTF-8"?>
<!--
  Auto-generated from the reference HTML by
  scripts/storymode-extraction/extract.mjs.
  Do not edit by hand — regenerate the file instead.
-->
<svg xmlns="http://www.w3.org/2000/svg" xmlns:xlink="http://www.w3.org/1999/xlink" viewBox="0 0 500 260" preserveAspectRatio="xMidYMid meet">
<text x="20" y="16" style="fill:#e8a951;font:600 9px Inter,sans-serif;letter-spacing:2px">STEP 01 · COOMBS-GELL · 4 TYPES · 4 MECHANISMS</text>

<!-- Type I -->
<g transform="translate(75 130)">
  <rect x="-50" y="-72" width="100" height="148" rx="8" fill="rgba(232,169,81,0.15)" stroke="#e8a951" stroke-width="1.6"/>
  <text x="0" y="-58" text-anchor="middle" style="fill:#e8a951;font:700 11px Inter,sans-serif;letter-spacing:1.5px">TYPE I</text>
  <text x="0" y="-46" text-anchor="middle" style="fill:#b4becf;font:6.5px Inter,sans-serif">IMMEDIATE</text>
  
  <!-- Mechanism: Mast cell with IgE -->
  <g transform="translate(0 -15)">
    <ellipse cx="0" cy="0" rx="18" ry="14" fill="rgba(209,72,89,0.45)" stroke="#d14859" stroke-width="1.4"/>
    <g fill="#d14859" fill-opacity="0.85">
      <circle cx="-7" cy="-3" r="1.5"/>
      <circle cx="3" cy="2" r="1.5"/>
      <circle cx="-2" cy="6" r="1.5"/>
      <circle cx="7" cy="-4" r="1.5"/>
      <circle cx="-9" cy="3" r="1.5"/>
    </g>
    <!-- IgE Ys on top -->
    <g stroke="#e8a951" stroke-width="1.4" fill="none" stroke-linecap="round">
      <g transform="translate(-9 -16)">
        <line x1="0" y1="0" x2="0" y2="6"/>
        <line x1="-3" y1="-3" x2="0" y2="0"/>
        <line x1="3" y1="-3" x2="0" y2="0"/>
      </g>
      <g transform="translate(0 -18)">
        <line x1="0" y1="0" x2="0" y2="6"/>
        <line x1="-3" y1="-3" x2="0" y2="0"/>
        <line x1="3" y1="-3" x2="0" y2="0"/>
      </g>
      <g transform="translate(9 -16)">
        <line x1="0" y1="0" x2="0" y2="6"/>
        <line x1="-3" y1="-3" x2="0" y2="0"/>
        <line x1="3" y1="-3" x2="0" y2="0"/>
      </g>
    </g>
  </g>
  
  <text x="0" y="20" text-anchor="middle" style="fill:#e8a951;font:700 7.5px Inter,sans-serif">IgE + mast cell</text>
  <text x="0" y="33" text-anchor="middle" style="fill:#d14859;font:700 8px Inter,sans-serif">MINUTES</text>
  <line x1="-40" y1="40" x2="40" y2="40" stroke="#3a4358" stroke-width="0.8"/>
  <text x="0" y="52" text-anchor="middle" style="fill:#b4becf;font:6px Inter,sans-serif">anaphylaxis</text>
  <text x="0" y="62" text-anchor="middle" style="fill:#b4becf;font:6px Inter,sans-serif">asthma · atopy</text>
  <text x="0" y="72" text-anchor="middle" style="fill:#b4becf;font:6px Inter,sans-serif">urticaria</text>
</g>

<!-- Type II -->
<g transform="translate(190 130)">
  <rect x="-50" y="-72" width="100" height="148" rx="8" fill="rgba(209,72,89,0.15)" stroke="#d14859" stroke-width="1.6"/>
  <text x="0" y="-58" text-anchor="middle" style="fill:#d14859;font:700 11px Inter,sans-serif;letter-spacing:1.5px">TYPE II</text>
  <text x="0" y="-46" text-anchor="middle" style="fill:#b4becf;font:6.5px Inter,sans-serif">CYTOTOXIC</text>
  
  <!-- Mechanism: RBC with antibodies bound + complement attacking -->
  <g transform="translate(0 -15)">
    <ellipse cx="0" cy="0" rx="18" ry="13" fill="rgba(209,72,89,0.65)" stroke="#d14859" stroke-width="1.4"/>
    <ellipse cx="0" cy="0" rx="7" ry="5" fill="#0a0e1a" opacity="0.45"/>
    <!-- Antibodies on surface -->
    <g stroke="#e8a951" stroke-width="1.4" fill="none" stroke-linecap="round">
      <g transform="translate(0 -16)">
        <line x1="0" y1="0" x2="0" y2="6"/>
        <line x1="-3" y1="-3" x2="0" y2="0"/>
        <line x1="3" y1="-3" x2="0" y2="0"/>
      </g>
      <g transform="translate(15 5) rotate(45)">
        <line x1="0" y1="0" x2="0" y2="6"/>
        <line x1="-3" y1="-3" x2="0" y2="0"/>
        <line x1="3" y1="-3" x2="0" y2="0"/>
      </g>
      <g transform="translate(-15 5) rotate(-45)">
        <line x1="0" y1="0" x2="0" y2="6"/>
        <line x1="-3" y1="-3" x2="0" y2="0"/>
        <line x1="3" y1="-3" x2="0" y2="0"/>
      </g>
    </g>
  </g>
  
  <text x="0" y="20" text-anchor="middle" style="fill:#d14859;font:700 7.5px Inter,sans-serif">IgG/IgM vs cell</text>
  <text x="0" y="33" text-anchor="middle" style="fill:#d14859;font:700 8px Inter,sans-serif">HOURS-DAYS</text>
  <line x1="-40" y1="40" x2="40" y2="40" stroke="#3a4358" stroke-width="0.8"/>
  <text x="0" y="52" text-anchor="middle" style="fill:#b4becf;font:6px Inter,sans-serif">HDN · AIHA</text>
  <text x="0" y="62" text-anchor="middle" style="fill:#b4becf;font:6px Inter,sans-serif">ITP · MG</text>
  <text x="0" y="72" text-anchor="middle" style="fill:#b4becf;font:6px Inter,sans-serif">Goodpasture</text>
</g>

<!-- Type III -->
<g transform="translate(305 130)">
  <rect x="-50" y="-72" width="100" height="148" rx="8" fill="rgba(147,112,185,0.15)" stroke="#9370b9" stroke-width="1.6"/>
  <text x="0" y="-58" text-anchor="middle" style="fill:#9370b9;font:700 11px Inter,sans-serif;letter-spacing:1.5px">TYPE III</text>
  <text x="0" y="-46" text-anchor="middle" style="fill:#b4becf;font:6.5px Inter,sans-serif">IMMUNE COMPLEX</text>
  
  <!-- Mechanism: Ag-Ab lattice deposits -->
  <g transform="translate(0 -15)">
    <!-- Antigen circles + antibodies forming lattice -->
    <g stroke="#9370b9" stroke-width="1.2" fill="none" stroke-linecap="round">
      <g transform="translate(-10 -8)"><circle r="3" fill="rgba(232,169,81,0.85)"/></g>
      <g transform="translate(10 -8)"><circle r="3" fill="rgba(232,169,81,0.85)"/></g>
      <g transform="translate(-10 8)"><circle r="3" fill="rgba(232,169,81,0.85)"/></g>
      <g transform="translate(10 8)"><circle r="3" fill="rgba(232,169,81,0.85)"/></g>
      <g transform="translate(0 0)"><circle r="3" fill="rgba(232,169,81,0.85)"/></g>
      <line x1="-7" y1="-8" x2="-3" y2="-3"/>
      <line x1="7" y1="-8" x2="3" y2="-3"/>
      <line x1="-7" y1="8" x2="-3" y2="3"/>
      <line x1="7" y1="8" x2="3" y2="3"/>
    </g>
    <!-- Vessel wall -->
    <line x1="-22" y1="14" x2="22" y2="14" stroke="#d14859" stroke-width="1.6"/>
    <line x1="-22" y1="18" x2="22" y2="18" stroke="#d14859" stroke-width="1.6"/>
  </g>
  
  <text x="0" y="20" text-anchor="middle" style="fill:#9370b9;font:700 7.5px Inter,sans-serif">Ag-Ab deposits</text>
  <text x="0" y="33" text-anchor="middle" style="fill:#d14859;font:700 8px Inter,sans-serif">DAYS-WEEKS</text>
  <line x1="-40" y1="40" x2="40" y2="40" stroke="#3a4358" stroke-width="0.8"/>
  <text x="0" y="52" text-anchor="middle" style="fill:#b4becf;font:6px Inter,sans-serif">SLE · PSGN</text>
  <text x="0" y="62" text-anchor="middle" style="fill:#b4becf;font:6px Inter,sans-serif">serum sickness</text>
  <text x="0" y="72" text-anchor="middle" style="fill:#b4becf;font:6px Inter,sans-serif">vasculitis</text>
</g>

<!-- Type IV -->
<g transform="translate(420 130)">
  <rect x="-50" y="-72" width="100" height="148" rx="8" fill="rgba(108,194,125,0.15)" stroke="#6cc27d" stroke-width="1.6"/>
  <text x="0" y="-58" text-anchor="middle" style="fill:#6cc27d;font:700 11px Inter,sans-serif;letter-spacing:1.5px">TYPE IV</text>
  <text x="0" y="-46" text-anchor="middle" style="fill:#b4becf;font:6.5px Inter,sans-serif">DELAYED · CELL</text>
  
  <!-- Mechanism: Th1 + macrophage -->
  <g transform="translate(0 -15)">
    <!-- T cell -->
    <circle cx="-9" cy="0" r="9" fill="rgba(108,194,125,0.55)" stroke="#6cc27d" stroke-width="1.2"/>
    <text x="-9" y="3" text-anchor="middle" style="fill:#e8ecf3;font:700 7px Inter,sans-serif">T</text>
    <!-- Macrophage -->
    <circle cx="9" cy="0" r="11" fill="rgba(79,184,168,0.45)" stroke="#4fb8a8" stroke-width="1.2"/>
    <text x="9" y="3" text-anchor="middle" style="fill:#e8ecf3;font:700 7px Inter,sans-serif">MΦ</text>
    <!-- IFN-gamma arrow -->
    <line x1="-1" y1="-2" x2="2" y2="-2" stroke="#e8a951" stroke-width="1.4"/>
    <text x="0" y="-12" text-anchor="middle" style="fill:#e8a951;font:700 6.5px Inter,sans-serif">IFN-γ</text>
  </g>
  
  <text x="0" y="20" text-anchor="middle" style="fill:#6cc27d;font:700 7.5px Inter,sans-serif">Th1 + MΦ + IFN-γ</text>
  <text x="0" y="33" text-anchor="middle" style="fill:#d14859;font:700 8px Inter,sans-serif">48-72 H</text>
  <line x1="-40" y1="40" x2="40" y2="40" stroke="#3a4358" stroke-width="0.8"/>
  <text x="0" y="52" text-anchor="middle" style="fill:#b4becf;font:6px Inter,sans-serif">contact derm</text>
  <text x="0" y="62" text-anchor="middle" style="fill:#b4becf;font:6px Inter,sans-serif">PPD · TB</text>
  <text x="0" y="72" text-anchor="middle" style="fill:#b4becf;font:6px Inter,sans-serif">granuloma</text>
</g>

<text x="250" y="245" text-anchor="middle" style="fill:#6b7689;font:italic 7.5px Fraunces,serif">Coombs-Gell · 4 mechanisms · timing tells you which</text>

                  <!-- FOCUS · audio-aligned attention marker -->
                  <circle cx="75" cy="145" r="22" fill="none" stroke="#d14859" stroke-width="1.8" stroke-dasharray="3 2" opacity="0.85">
                    <animate attributeName="r" values="18;28;18" dur="2.4s" repeatCount="indefinite"/>
                    <animate attributeName="opacity" values="0.85;0.20;0.85" dur="2.4s" repeatCount="indefinite"/>
                  </circle>
</svg>
