<?xml version="1.0" encoding="UTF-8"?>
<!--
  Auto-generated from the reference HTML by
  scripts/storymode-extraction/extract.mjs.
  Do not edit by hand — regenerate the file instead.
-->
<svg xmlns="http://www.w3.org/2000/svg" xmlns:xlink="http://www.w3.org/1999/xlink" viewBox="0 0 500 260" preserveAspectRatio="xMidYMid meet">
<text x="20" y="16" style="fill:#e8a951;font:600 9px Inter,sans-serif;letter-spacing:2px">STEP 02 · HIV PREFERENTIALLY DEPLETES CD4</text>

<!-- Healthy lymph node (left) -->
<g transform="translate(125 145)">
  <ellipse cx="0" cy="0" rx="55" ry="50" fill="rgba(79,184,168,0.10)" stroke="#4fb8a8" stroke-width="1.2"/>
  <text x="0" y="-58" text-anchor="middle" style="fill:#4fb8a8;font:700 9px Inter,sans-serif">HEALTHY</text>
  
  <!-- Many CD4 cells -->
  <g fill="#4fb8a8" opacity="0.85">
    <circle cx="-25" cy="-15" r="5"/>
    <circle cx="-12" cy="-25" r="5"/>
    <circle cx="0" cy="-15" r="5"/>
    <circle cx="13" cy="-25" r="5"/>
    <circle cx="25" cy="-15" r="5"/>
    <circle cx="-25" cy="0" r="5"/>
    <circle cx="-12" cy="-5" r="5"/>
    <circle cx="2" cy="0" r="5"/>
    <circle cx="13" cy="-5" r="5"/>
    <circle cx="25" cy="0" r="5"/>
    <circle cx="-25" cy="15" r="5"/>
    <circle cx="-12" cy="20" r="5"/>
    <circle cx="0" cy="15" r="5"/>
    <circle cx="13" cy="20" r="5"/>
    <circle cx="25" cy="15" r="5"/>
  </g>
  <text x="0" y="65" text-anchor="middle" style="fill:#b4becf;font:7px 'JetBrains Mono',monospace">CD4 ~ 1000</text>
</g>

<!-- HIV+ lymph node (right) -->
<g transform="translate(375 145)">
  <ellipse cx="0" cy="0" rx="55" ry="50" fill="rgba(209,72,89,0.10)" stroke="#d14859" stroke-width="1.2"/>
  <text x="0" y="-58" text-anchor="middle" style="fill:#d14859;font:700 9px Inter,sans-serif">HIV INFECTION</text>
  
  <!-- Few CD4 left -->
  <g fill="#4fb8a8" opacity="0.40">
    <circle cx="-12" cy="-25" r="5"/>
    <circle cx="13" cy="-15" r="5"/>
    <circle cx="-25" cy="0" r="5"/>
  </g>
  <!-- HIV virions -->
  <g fill="#d14859" opacity="0.85">
    <circle cx="0" cy="-10" r="3.5"/>
    <circle cx="-15" cy="5" r="3.5"/>
    <circle cx="15" cy="0" r="3.5"/>
    <circle cx="22" cy="15" r="3.5"/>
    <circle cx="-22" cy="-12" r="3.5"/>
    <circle cx="5" cy="20" r="3.5"/>
    <circle cx="-8" cy="22" r="3.5"/>
  </g>
  <text x="0" y="65" text-anchor="middle" style="fill:#b4becf;font:7px 'JetBrains Mono',monospace">CD4 = 80</text>
</g>

<!-- Arrow -->
<g stroke="#d14859" stroke-width="1.5" fill="none" marker-end="url(#arr14_5_2a)">
  <path d="M 195 145 L 305 145"/>
</g>
<defs>
  <marker id="arr14_5_2a" viewBox="0 0 10 10" refX="9" refY="5" markerWidth="6" markerHeight="6" orient="auto">
    <path d="M 0 0 L 10 5 L 0 10 z" fill="#d14859"/>
  </marker>
</defs>
<text x="250" y="135" text-anchor="middle" style="fill:#d14859;font:700 8px Inter,sans-serif">CD4 destroyed</text>
<text x="250" y="160" text-anchor="middle" style="fill:#6b7689;font:italic 7px Fraunces,serif">incl. Th1 memory</text>

                  <!-- FOCUS · audio-aligned attention marker -->
                  <circle cx="125" cy="205" r="20" fill="none" stroke="#d14859" stroke-width="1.8" stroke-dasharray="3 2" opacity="0.85">
                    <animate attributeName="r" values="16;26;16" dur="2.4s" repeatCount="indefinite"/>
                    <animate attributeName="opacity" values="0.85;0.20;0.85" dur="2.4s" repeatCount="indefinite"/>
                  </circle>

                  <!-- FOCUS · audio-aligned attention marker -->
                  <circle cx="375" cy="205" r="20" fill="none" stroke="#d14859" stroke-width="1.8" stroke-dasharray="3 2" opacity="0.85">
                    <animate attributeName="r" values="16;26;16" dur="2.4s" repeatCount="indefinite"/>
                    <animate attributeName="opacity" values="0.85;0.20;0.85" dur="2.4s" repeatCount="indefinite"/>
                  </circle>

                  <!-- FOCUS · audio-aligned attention marker -->
                  <circle cx="250" cy="130" r="20" fill="none" stroke="#d14859" stroke-width="1.8" stroke-dasharray="3 2" opacity="0.85">
                    <animate attributeName="r" values="16;26;16" dur="2.4s" repeatCount="indefinite"/>
                    <animate attributeName="opacity" values="0.85;0.20;0.85" dur="2.4s" repeatCount="indefinite"/>
                  </circle>
</svg>
