<?xml version="1.0" encoding="UTF-8"?>
<!--
  Auto-generated from the reference HTML by
  scripts/storymode-extraction/extract.mjs.
  Do not edit by hand — regenerate the file instead.
-->
<svg xmlns="http://www.w3.org/2000/svg" xmlns:xlink="http://www.w3.org/1999/xlink" viewBox="0 0 500 260" preserveAspectRatio="xMidYMid meet">
<text x="20" y="16" style="fill:#e8a951;font:600 9px Inter,sans-serif;letter-spacing:2px">STEP 06 · OTHER MAJOR PARASITES</text>

<!-- Leishmania (sandfly + macrophage) -->
<g transform="translate(125 130)">
  <rect x="-65" y="-50" width="130" height="100" rx="6" fill="rgba(232,169,81,0.18)" stroke="#e8a951" stroke-width="1.4"/>
  <text x="0" y="-32" text-anchor="middle" style="fill:#e8a951;font:700 8.5px Inter,sans-serif;letter-spacing:1.2px">LEISHMANIA</text>
  
  <!-- Sandfly icon -->
  <g transform="translate(-30 -10)">
    <ellipse cx="0" cy="0" rx="10" ry="4" fill="rgba(232,169,81,0.85)" stroke="#e8a951"/>
    <path d="M -8 -3 Q -12 -8 -10 -10" fill="none" stroke="#e8a951" stroke-width="0.8"/>
    <path d="M 8 -3 Q 12 -8 10 -10" fill="none" stroke="#e8a951" stroke-width="0.8"/>
  </g>
  
  <!-- Arrow → -->
  <line x1="-15" y1="-10" x2="0" y2="-10" stroke="#3a4358" stroke-width="1"/>
  <polygon points="0,-10 -3,-13 -3,-7" fill="#3a4358"/>
  
  <!-- Macrophage with amastigotes inside -->
  <g transform="translate(20 -10)">
    <ellipse cx="0" cy="0" rx="14" ry="11" fill="rgba(147,112,185,0.55)" stroke="#9370b9" stroke-width="1.2"/>
    <g fill="rgba(74,45,96,0.85)">
      <circle cx="-4" cy="-2" r="2"/>
      <circle cx="3" cy="-3" r="2"/>
      <circle cx="-1" cy="3" r="2"/>
      <circle cx="6" cy="3" r="2"/>
    </g>
  </g>
  
  <text x="0" y="22" text-anchor="middle" style="fill:#b4becf;font:6.5px Inter,sans-serif">visceral · liposomal ampho B</text>
  <text x="0" y="32" text-anchor="middle" style="fill:#b4becf;font:6.5px Inter,sans-serif">cutaneous · sodium stibo.</text>
</g>

<!-- Schistosoma -->
<g transform="translate(255 130)">
  <rect x="-65" y="-50" width="130" height="100" rx="6" fill="rgba(79,184,168,0.18)" stroke="#4fb8a8" stroke-width="1.4"/>
  <text x="0" y="-32" text-anchor="middle" style="fill:#4fb8a8;font:700 8.5px Inter,sans-serif;letter-spacing:1.2px">SCHISTOSOMA</text>
  
  <!-- Schistosome adult worm pair -->
  <g transform="translate(0 -8)">
    <path d="M -25 0 Q -10 -3 5 0 Q 20 3 30 0" stroke="#4fb8a8" stroke-width="3" fill="none" stroke-linecap="round"/>
    <path d="M -25 4 Q -10 1 5 4 Q 20 7 30 4" stroke="#4fb8a8" stroke-width="2" fill="none" stroke-linecap="round" opacity="0.7"/>
    <circle cx="-25" cy="2" r="3" fill="#4fb8a8"/>
  </g>
  
  <text x="0" y="20" text-anchor="middle" style="fill:#4fb8a8;font:700 7.5px Inter,sans-serif">PRAZIQUANTEL</text>
  <text x="0" y="32" text-anchor="middle" style="fill:#b4becf;font:6.5px Inter,sans-serif">↑ Ca²⁺ in tegument</text>
</g>

<!-- Toxoplasma -->
<g transform="translate(385 130)">
  <rect x="-65" y="-50" width="130" height="100" rx="6" fill="rgba(108,194,125,0.18)" stroke="#6cc27d" stroke-width="1.4"/>
  <text x="0" y="-32" text-anchor="middle" style="fill:#6cc27d;font:700 8.5px Inter,sans-serif;letter-spacing:1.2px">TOXOPLASMA</text>
  
  <!-- Cat icon -->
  <g transform="translate(-25 -5)">
    <circle cx="0" cy="0" r="9" fill="rgba(108,194,125,0.55)" stroke="#6cc27d" stroke-width="1.2"/>
    <polygon points="-7,-7 -10,-12 -5,-9" fill="rgba(108,194,125,0.55)" stroke="#6cc27d" stroke-width="0.6"/>
    <polygon points="7,-7 10,-12 5,-9" fill="rgba(108,194,125,0.55)" stroke="#6cc27d" stroke-width="0.6"/>
    <circle cx="-3" cy="-1" r="1" fill="#0a0e1a"/>
    <circle cx="3" cy="-1" r="1" fill="#0a0e1a"/>
  </g>
  <text x="-25" y="13" text-anchor="middle" style="fill:#6cc27d;font:6px Inter,sans-serif">cats</text>
  
  <!-- Cyst icon -->
  <g transform="translate(20 -5)">
    <circle cx="0" cy="0" r="11" fill="rgba(108,194,125,0.55)" stroke="#6cc27d" stroke-width="1.2"/>
    <g fill="rgba(74,45,96,0.85)">
      <circle cx="-3" cy="-2" r="1.5"/>
      <circle cx="3" cy="-2" r="1.5"/>
      <circle cx="0" cy="3" r="1.5"/>
    </g>
  </g>
  <text x="20" y="13" text-anchor="middle" style="fill:#6cc27d;font:6px Inter,sans-serif">undercooked</text>
  
  <text x="0" y="32" text-anchor="middle" style="fill:#b4becf;font:6.5px Inter,sans-serif">pyrim. + sulfa</text>
</g>

<text x="250" y="245" text-anchor="middle" style="fill:#6b7689;font:italic 7.5px Fraunces,serif">Major non-malarial parasites · each has signature transmission + treatment</text>

                  <!-- FOCUS · audio-aligned attention marker -->
                  <circle cx="125" cy="147" r="40" fill="none" stroke="#d14859" stroke-width="1.8" stroke-dasharray="3 2" opacity="0.85">
                    <animate attributeName="r" values="36;46;36" dur="2.4s" repeatCount="indefinite"/>
                    <animate attributeName="opacity" values="0.85;0.20;0.85" dur="2.4s" repeatCount="indefinite"/>
                  </circle>

                  <!-- FOCUS · audio-aligned attention marker -->
                  <circle cx="125" cy="157" r="38" fill="none" stroke="#d14859" stroke-width="1.8" stroke-dasharray="3 2" opacity="0.85">
                    <animate attributeName="r" values="34;44;34" dur="2.4s" repeatCount="indefinite"/>
                    <animate attributeName="opacity" values="0.85;0.20;0.85" dur="2.4s" repeatCount="indefinite"/>
                  </circle>

                  <!-- FOCUS · audio-aligned attention marker -->
                  <circle cx="255" cy="157" r="27" fill="none" stroke="#d14859" stroke-width="1.8" stroke-dasharray="3 2" opacity="0.85">
                    <animate attributeName="r" values="23;33;23" dur="2.4s" repeatCount="indefinite"/>
                    <animate attributeName="opacity" values="0.85;0.20;0.85" dur="2.4s" repeatCount="indefinite"/>
                  </circle>
</svg>
