<?xml version="1.0" encoding="UTF-8"?>
<!--
  Auto-generated from the reference HTML by
  scripts/storymode-extraction/extract.mjs.
  Do not edit by hand — regenerate the file instead.
-->
<svg xmlns="http://www.w3.org/2000/svg" xmlns:xlink="http://www.w3.org/1999/xlink" viewBox="0 0 500 260" preserveAspectRatio="xMidYMid meet">
                  <text x="20" y="22" style="fill:#e8a951;font:600 10px Inter,sans-serif;letter-spacing:2px">STEP 08 · JOB 1 · ANAPHYLATOXIN</text>

  
                      <line x1="40" y1="70" x2="460" y2="70" stroke="#d14859" stroke-width="2" opacity="0.7"></line>
                      <line x1="40" y1="100" x2="460" y2="100" stroke="#d14859" stroke-width="2" opacity="0.7"></line>
                      <rect x="40" y="70" width="420" height="30" fill="#d14859" fill-opacity="0.10"></rect>
                    <text x="44" y="62" style="fill:#b4becf;font:600 7px Inter,sans-serif;letter-spacing:1.5px">VESSEL</text><text x="44" y="118" style="fill:#b4becf;font:600 7px Inter,sans-serif;letter-spacing:1.5px">TISSUE</text><g transform="translate(100 85)" opacity="1"><circle cx="0" cy="0" r="9" fill="#e8ecf3" fill-opacity="0.55" stroke="#e8ecf3" stroke-width="1.2"></circle><g fill="#9370b9" opacity="0.85">
                      <circle cx="-3" cy="-2" r="2.2"></circle>
                      <circle cx="3" cy="-2" r="2.2"></circle>
                      <circle cx="0" cy="3" r="2.2"></circle>
                    </g></g><g transform="translate(200 85)" opacity="1"><circle cx="0" cy="0" r="11" fill="#4fb8a8" fill-opacity="0.40" stroke="#4fb8a8" stroke-width="1.2"></circle><path d="M -5 -3 Q 0 -7 5 -3 Q 7 0 5 3 Q 0 7 -5 3 Z" fill="#1a2030" opacity="0.7"></path></g><g transform="translate(300 85)" opacity="1"><circle cx="0" cy="0" r="9" fill="#d14859" fill-opacity="0.40" stroke="#d14859" stroke-width="1.2"></circle><g fill="#1a2030" opacity="0.8">
                      <ellipse cx="-3" cy="-1" rx="2.2" ry="2.4"></ellipse>
                      <ellipse cx="3" cy="-1" rx="2.2" ry="2.4"></ellipse>
                    </g></g><g transform="translate(400 85)" opacity="1"><circle cx="0" cy="0" r="9" fill="#9370b9" fill-opacity="0.55" stroke="#9370b9" stroke-width="1.2"></circle><g fill="#0a0e1a" opacity="0.9">
                      <circle cx="-3" cy="-2" r="1.5"></circle>
                      <circle cx="3" cy="-2" r="1.5"></circle>
                      <circle cx="0" cy="2" r="1.5"></circle>
                      <circle cx="-2" cy="3" r="1.5"></circle>
                    </g></g>
                      <g transform="translate(220 138)">
                        <circle cx="0" cy="0" r="13" fill="#e8a951" fill-opacity="0.85" stroke="#e8a951" stroke-width="1.6"></circle>
                        <text x="0" y="3" text-anchor="middle" style="fill:#0a0e1a;font:700 11px Inter,sans-serif">C5a</text>
                      </g>
                    <g opacity="1"><circle cx="380" cy="170" r="22" fill="#d14859" fill-opacity="0.30" stroke="#d14859" stroke-width="1.6"></circle><ellipse cx="377" cy="168" rx="6" ry="5" fill="#4a2d60" opacity="0.7"></ellipse><g fill="#e8a951" opacity="0.85">
                      <circle cx="410" cy="158" r="2"></circle>
                      <circle cx="414" cy="175" r="2"></circle>
                      <circle cx="408" cy="192" r="2"></circle>
                      <circle cx="354" cy="158" r="2"></circle>
                      <circle cx="350" cy="175" r="2"></circle>
                      <circle cx="385" cy="142" r="2"></circle>
                      <circle cx="375" cy="200" r="2"></circle>
                    </g></g><text x="380" y="205" text-anchor="middle" style="fill:#d14859;font:600 8px Inter,sans-serif;letter-spacing:1.5px">MAST CELL</text>
                      <g transform="translate(425 155)">
                        <rect x="-22" y="-9" width="44" height="18" rx="3" fill="#e8a951" fill-opacity="0.30" stroke="#e8a951" stroke-width="1.3"></rect>
                        <text x="0" y="3" text-anchor="middle" style="fill:#e8a951;font:700 8px Inter,sans-serif;letter-spacing:1.2px">HISTAMINE</text>
                      </g>
    

                  <!-- arrow from C5a to mast cell -->
                  <path d="M 233 138 Q 305 155 358 168" stroke="#e8a951" stroke-width="1.4" fill="none" stroke-dasharray="3 2"></path>
                  <polygon points="358,168 350,165 351,172" fill="#e8a951"></polygon>

                  <text x="250" y="252" text-anchor="middle" style="fill:#b4becf;font:italic 10px Fraunces,serif">C5a fires mast cells · histamine pours out · same as C3a from Station 02</text>

                  <!-- FOCUS · audio-aligned attention marker -->
                  <circle cx="425" cy="153" r="20" fill="none" stroke="#d14859" stroke-width="1.8" stroke-dasharray="3 2" opacity="0.85">
                    <animate attributeName="r" values="16;26;16" dur="2.4s" repeatCount="indefinite"/>
                    <animate attributeName="opacity" values="0.85;0.20;0.85" dur="2.4s" repeatCount="indefinite"/>
                  </circle>

                  <!-- FOCUS · audio-aligned attention marker -->
                  <circle cx="220" cy="136" r="20" fill="none" stroke="#d14859" stroke-width="1.8" stroke-dasharray="3 2" opacity="0.85">
                    <animate attributeName="r" values="16;26;16" dur="2.4s" repeatCount="indefinite"/>
                    <animate attributeName="opacity" values="0.85;0.20;0.85" dur="2.4s" repeatCount="indefinite"/>
                  </circle>

                  <!-- FOCUS · audio-aligned attention marker -->
                  <circle cx="380" cy="200" r="20" fill="none" stroke="#d14859" stroke-width="1.8" stroke-dasharray="3 2" opacity="0.85">
                    <animate attributeName="r" values="16;26;16" dur="2.4s" repeatCount="indefinite"/>
                    <animate attributeName="opacity" values="0.85;0.20;0.85" dur="2.4s" repeatCount="indefinite"/>
                  </circle>
</svg>
