<?xml version="1.0" encoding="UTF-8"?>
<!--
  Auto-generated from the reference HTML by
  scripts/storymode-extraction/extract.mjs.
  Do not edit by hand — regenerate the file instead.
-->
<svg xmlns="http://www.w3.org/2000/svg" xmlns:xlink="http://www.w3.org/1999/xlink" viewBox="0 0 500 280" preserveAspectRatio="xMidYMid meet">
                <text x="20" y="26" style="fill:#e8a951;font:600 10px Inter,sans-serif;letter-spacing:2px">STEP 13 · THE RENDEZVOUS</text>
                <rect x="40" y="70" width="420" height="180" rx="18" fill="#0e1422" stroke="#3a4358" stroke-width="1.2"/>
                <text x="50" y="64" style="fill:#6b7689;font:600 8px Inter,sans-serif;letter-spacing:1.5px">EXTRACELLULAR</text>
                <text x="50" y="246" style="fill:#6b7689;font:600 8px Inter,sans-serif;letter-spacing:1.5px">CYTOPLASM</text>
                <line x1="40" y1="70" x2="460" y2="70" stroke="#4fb8a8" stroke-width="1.5" opacity="0.7"/>
                <g opacity="0.55">
                  <path d="M 70 180 Q 55 205 80 220 Q 130 230 175 220 Q 200 215 205 198 Q 210 175 188 162 Q 130 154 70 180 Z" fill="#4fb8a8" opacity="0.5" stroke="#4fb8a8" stroke-width="1.2"/>
                  <text x="135" y="245" text-anchor="middle" style="fill:#4fb8a8;font:600 9px Inter,sans-serif">ER</text>
                  <g transform="translate(105 195)">
                    <path d="M -15 -4 L 15 -4 L 17 3 L 10 3 L 8 -1 L -8 -1 L -10 3 L -17 3 Z" fill="#4fb8a8"/>
                    <rect x="-5" y="-9" width="10" height="5" fill="#9370b9"/>
                  </g>
                </g>
                <g opacity="0.55">
                  <circle cx="120" cy="50" r="6" fill="#d14859"/>
                  <path d="M 122 56 Q 200 90 240 150" stroke="#d14859" stroke-width="1.2" fill="none" stroke-dasharray="3 2"/>
                </g>
                <path d="M 175 200 Q 215 190 240 180" stroke="#4fb8a8" stroke-width="2" fill="none"/>
                <polygon points="240,180 232,176 232,184" fill="#4fb8a8"/>
                <text x="180" y="178" style="fill:#4fb8a8;font:600 8px Inter,sans-serif;letter-spacing:1.5px">stream 1</text>
                <path d="M 145 60 Q 220 130 250 165" stroke="#d14859" stroke-width="2" fill="none"/>
                <polygon points="250,165 248,156 256,160" fill="#d14859"/>
                <text x="170" y="100" style="fill:#d14859;font:600 8px Inter,sans-serif;letter-spacing:1.5px">stream 2</text>
                <ellipse cx="320" cy="170" rx="100" ry="62" fill="#e8a951" opacity="0.28" stroke="#e8a951" stroke-width="3" stroke-dasharray="5 3"/>
                <text x="320" y="100" text-anchor="middle" style="fill:#e8a951;font:700 13px Inter,sans-serif;letter-spacing:2.5px">ENDOSOME</text>
                <g transform="translate(320 175)">
                  <path d="M -25 -7 L 25 -7 L 28 5 L 16 5 L 13 -2 L -13 -2 L -16 5 L -28 5 Z" fill="#4fb8a8" opacity="0.95" stroke="#4fb8a8" stroke-width="1.5"/>
                  <g transform="translate(0 -12)" fill="#d14859">
                    <circle cx="-8" cy="0" r="2.6"/><circle cx="-3" cy="0" r="2.6"/>
                    <circle cx="2" cy="0" r="2.6"/><circle cx="7" cy="0" r="2.6"/>
                  </g>
                  <text x="0" y="22" text-anchor="middle" style="fill:#e8a951;font:italic 600 9px Fraunces,serif">where they meet</text>
                </g>
                <text x="250" y="270" text-anchor="middle" style="fill:#b4becf;font:italic 10px Fraunces,serif">not the ER · not the cytosol · here</text>

                  <!-- FOCUS · audio-aligned attention marker -->
                  <circle cx="208" cy="123" r="60" fill="none" stroke="#d14859" stroke-width="1.8" stroke-dasharray="3 2" opacity="0.85">
                    <animate attributeName="r" values="56;66;56" dur="2.4s" repeatCount="indefinite"/>
                    <animate attributeName="opacity" values="0.85;0.20;0.85" dur="2.4s" repeatCount="indefinite"/>
                  </circle>
</svg>
