<?xml version="1.0" encoding="UTF-8"?>
<!--
  Auto-generated from the reference HTML by
  scripts/storymode-extraction/extract.mjs.
  Do not edit by hand — regenerate the file instead.
-->
<svg xmlns="http://www.w3.org/2000/svg" xmlns:xlink="http://www.w3.org/1999/xlink" viewBox="0 0 500 260" preserveAspectRatio="xMidYMid meet">
                  <text x="20" y="22" style="fill:#e8a951;font:600 10px Inter,sans-serif;letter-spacing:2px">STEP 03 · SOLUTION · REARRANGE DNA</text>

                  <!-- Locus appears (just backbone + V/D/J labels, no segments yet shown) -->
                  <g opacity="1" transform="translate(0 0)"><line x1="40" y1="145" x2="475" y2="145" stroke="#6b7689" stroke-width="1.4" opacity="0.7"></line><rect x="50" y="138" width="14" height="14" rx="1.5" fill="#4fb8a8" fill-opacity="0.95" stroke="#4fb8a8" stroke-width="1.2"></rect><rect x="68" y="138" width="14" height="14" rx="1.5" fill="#4fb8a8" fill-opacity="0.95" stroke="#4fb8a8" stroke-width="1.2"></rect><rect x="86" y="138" width="14" height="14" rx="1.5" fill="#4fb8a8" fill-opacity="0.95" stroke="#4fb8a8" stroke-width="1.2"></rect><rect x="104" y="138" width="14" height="14" rx="1.5" fill="#4fb8a8" fill-opacity="0.95" stroke="#4fb8a8" stroke-width="1.2"></rect><rect x="122" y="138" width="14" height="14" rx="1.5" fill="#4fb8a8" fill-opacity="0.95" stroke="#4fb8a8" stroke-width="1.2"></rect><rect x="140" y="138" width="14" height="14" rx="1.5" fill="#4fb8a8" fill-opacity="0.95" stroke="#4fb8a8" stroke-width="1.2"></rect><rect x="158" y="138" width="14" height="14" rx="1.5" fill="#4fb8a8" fill-opacity="0.95" stroke="#4fb8a8" stroke-width="1.2"></rect><text x="105" y="125" text-anchor="middle" style="fill:#4fb8a8;font:600 8px Inter,sans-serif;letter-spacing:1.2px">V</text><text x="105" y="170" text-anchor="middle" style="fill:#b4becf;font:italic 6px Fraunces,serif">~40 segments</text><rect x="200" y="138" width="14" height="14" rx="1.5" fill="#e8a951" fill-opacity="0.95" stroke="#e8a951" stroke-width="1.2"></rect><rect x="218" y="138" width="14" height="14" rx="1.5" fill="#e8a951" fill-opacity="0.95" stroke="#e8a951" stroke-width="1.2"></rect><rect x="236" y="138" width="14" height="14" rx="1.5" fill="#e8a951" fill-opacity="0.95" stroke="#e8a951" stroke-width="1.2"></rect><rect x="254" y="138" width="14" height="14" rx="1.5" fill="#e8a951" fill-opacity="0.95" stroke="#e8a951" stroke-width="1.2"></rect><rect x="272" y="138" width="14" height="14" rx="1.5" fill="#e8a951" fill-opacity="0.95" stroke="#e8a951" stroke-width="1.2"></rect><text x="240" y="125" text-anchor="middle" style="fill:#e8a951;font:600 8px Inter,sans-serif;letter-spacing:1.2px">D</text><text x="240" y="170" text-anchor="middle" style="fill:#b4becf;font:italic 6px Fraunces,serif">~25 segments</text><rect x="310" y="138" width="14" height="14" rx="1.5" fill="#9370b9" fill-opacity="0.95" stroke="#9370b9" stroke-width="1.2"></rect><rect x="328" y="138" width="14" height="14" rx="1.5" fill="#9370b9" fill-opacity="0.95" stroke="#9370b9" stroke-width="1.2"></rect><rect x="346" y="138" width="14" height="14" rx="1.5" fill="#9370b9" fill-opacity="0.95" stroke="#9370b9" stroke-width="1.2"></rect><rect x="364" y="138" width="14" height="14" rx="1.5" fill="#9370b9" fill-opacity="0.95" stroke="#9370b9" stroke-width="1.2"></rect><rect x="382" y="138" width="14" height="14" rx="1.5" fill="#9370b9" fill-opacity="0.95" stroke="#9370b9" stroke-width="1.2"></rect><text x="350" y="125" text-anchor="middle" style="fill:#9370b9;font:600 8px Inter,sans-serif;letter-spacing:1.2px">J</text><text x="350" y="170" text-anchor="middle" style="fill:#b4becf;font:italic 6px Fraunces,serif">~6 segments</text><rect x="425" y="135" width="40" height="20" rx="2" fill="#6b7689" fill-opacity="0.85" stroke="#6b7689" stroke-width="1.2"></rect><text x="445" y="148" text-anchor="middle" style="fill:#e8ecf3;font:700 8px Inter,sans-serif">C</text><text x="445" y="125" text-anchor="middle" style="fill:#b4becf;font:600 8px Inter,sans-serif;letter-spacing:1.2px">C</text><text x="445" y="170" text-anchor="middle" style="fill:#b4becf;font:italic 6px Fraunces,serif">constant</text></g>

                  <!-- Annotation chip above -->
                  <g transform="translate(250 90)">
                    <rect x="-110" y="-12" width="220" height="22" rx="11" fill="#e8a951" fill-opacity="0.20" stroke="#e8a951" stroke-width="1.5"></rect>
                    <text x="0" y="3" text-anchor="middle" style="fill:#e8a951;font:600 9px Inter,sans-serif;letter-spacing:1.5px">CUT AND REJOIN DNA SEGMENTS</text>
                  </g>
                  <path d="M 250 104 L 250 120" stroke="#e8a951" stroke-width="1.3" fill="none"></path>
                  <polygon points="250,120 247,113 253,113" fill="#e8a951"></polygon>

                  <text x="250" y="252" text-anchor="middle" style="fill:#b4becf;font:italic 10px Fraunces,serif">build receptors combinatorially from a small library of segments</text>

                  <!-- FOCUS · audio-aligned attention marker -->
                  <circle cx="250" cy="88" r="40" fill="none" stroke="#d14859" stroke-width="1.8" stroke-dasharray="3 2" opacity="0.85">
                    <animate attributeName="r" values="36;46;36" dur="2.4s" repeatCount="indefinite"/>
                    <animate attributeName="opacity" values="0.85;0.20;0.85" dur="2.4s" repeatCount="indefinite"/>
                  </circle>
</svg>
