<?xml version="1.0" encoding="UTF-8"?>
<!--
  Auto-generated from the reference HTML by
  scripts/storymode-extraction/extract.mjs.
  Do not edit by hand — regenerate the file instead.
-->
<svg xmlns="http://www.w3.org/2000/svg" xmlns:xlink="http://www.w3.org/1999/xlink" viewBox="0 0 500 260" preserveAspectRatio="xMidYMid meet">
<text x="20" y="16" style="fill:#e8a951;font:600 9px Inter,sans-serif;letter-spacing:2px">STEP 01 · PRE-SENSITIZED · MAST CELL ARMED WITH IgE</text>
    <g opacity="1">
      <line x1="20" y1="60"  x2="480" y2="60"  stroke="#b4becf" stroke-width="1" opacity="0.4"/>
      <line x1="20" y1="118" x2="480" y2="118" stroke="#b4becf" stroke-width="1" opacity="0.4"/>
      <rect x="20" y="60" width="460" height="58" fill="#b4becf" opacity="0.04"/>
      <text x="478" y="56" text-anchor="end" style="fill:#6b7689;font:600 7px 'JetBrains Mono',monospace;letter-spacing:1.5px">EPIDERMIS</text>
      <text x="478" y="129" text-anchor="end" style="fill:#6b7689;font:600 7px 'JetBrains Mono',monospace;letter-spacing:1.5px">DERMIS</text>
    </g><g transform="translate(105 89)" opacity="1">
    <ellipse cx="0" cy="0" rx="24" ry="20" fill="#d14859" opacity="0.32" stroke="#d14859" stroke-width="1.5"/><g fill="#d14859" opacity="0.95">
    <circle cx="-9" cy="-3" r="2"/><circle cx="-2" cy="5" r="2"/><circle cx="6" cy="-4" r="2"/>
    <circle cx="11" cy="3" r="2"/><circle cx="-11" cy="7" r="2"/><circle cx="0" cy="-9" r="2"/>
    <circle cx="-5" cy="-7" r="2"/><circle cx="9" cy="-9" r="2"/>
  </g><g transform="translate(-14 -22)">
      <rect x="-1.3" y="0" width="2.6" height="3.5" fill="#9370b9" opacity="0.95"/>
      <line x1="0" y1="0" x2="0" y2="-2.5" stroke="#e8a951" stroke-width="1.5"/>
      <line x1="0" y1="-2.5" x2="-3.5" y2="-7" stroke="#e8a951" stroke-width="1.5"/>
      <line x1="0" y1="-2.5" x2="3.5"  y2="-7" stroke="#e8a951" stroke-width="1.5"/>
    </g><g transform="translate(0 -22)">
      <rect x="-1.3" y="0" width="2.6" height="3.5" fill="#9370b9" opacity="0.95"/>
      <line x1="0" y1="0" x2="0" y2="-2.5" stroke="#e8a951" stroke-width="1.5"/>
      <line x1="0" y1="-2.5" x2="-3.5" y2="-7" stroke="#e8a951" stroke-width="1.5"/>
      <line x1="0" y1="-2.5" x2="3.5"  y2="-7" stroke="#e8a951" stroke-width="1.5"/>
    </g><g transform="translate(14 -22)">
      <rect x="-1.3" y="0" width="2.6" height="3.5" fill="#9370b9" opacity="0.95"/>
      <line x1="0" y1="0" x2="0" y2="-2.5" stroke="#e8a951" stroke-width="1.5"/>
      <line x1="0" y1="-2.5" x2="-3.5" y2="-7" stroke="#e8a951" stroke-width="1.5"/>
      <line x1="0" y1="-2.5" x2="3.5"  y2="-7" stroke="#e8a951" stroke-width="1.5"/>
    </g><text x="0" y="-35" text-anchor="middle" style="fill:#e8a951;font:600 7px Inter,sans-serif;letter-spacing:0.5px">IgE on FcεRI</text><text x="0" y="35" text-anchor="middle" style="fill:#d14859;font:700 7.5px Inter,sans-serif;letter-spacing:1.2px">MAST CELL</text></g><g opacity="1"><line x1="215" y1="84" x2="465" y2="84" stroke="#d14859" stroke-width="1.6" opacity="0.85"/><line x1="215" y1="94" x2="465" y2="94" stroke="#d14859" stroke-width="1.6" opacity="0.85"/><rect x="215" y="84" width="250" height="10" fill="#d14859" opacity="0.12"/><circle cx="240" cy="89" r="2.6" fill="#d14859" opacity="0.85"/><circle cx="285" cy="89" r="2.6" fill="#d14859" opacity="0.85"/><circle cx="325" cy="89" r="2.6" fill="#d14859" opacity="0.85"/><circle cx="365" cy="89" r="2.6" fill="#d14859" opacity="0.85"/><circle cx="405" cy="89" r="2.6" fill="#d14859" opacity="0.85"/><circle cx="445" cy="89" r="2.6" fill="#d14859" opacity="0.85"/><text x="340" y="109" text-anchor="middle" style="fill:#d14859;font:700 7.5px Inter,sans-serif;letter-spacing:1.2px">DERMAL CAPILLARY</text></g>

                  <!-- FOCUS · audio-aligned attention marker -->
                  <circle cx="105" cy="49" r="20" fill="none" stroke="#d14859" stroke-width="1.8" stroke-dasharray="3 2" opacity="0.85">
                    <animate attributeName="r" values="16;26;16" dur="2.4s" repeatCount="indefinite"/>
                    <animate attributeName="opacity" values="0.85;0.20;0.85" dur="2.4s" repeatCount="indefinite"/>
                  </circle>
</svg>
