<?xml version="1.0" encoding="UTF-8"?>
<!--
  Auto-generated from the reference HTML by
  scripts/storymode-extraction/extract.mjs.
  Do not edit by hand — regenerate the file instead.
-->
<svg xmlns="http://www.w3.org/2000/svg" xmlns:xlink="http://www.w3.org/1999/xlink" viewBox="0 0 500 260" preserveAspectRatio="xMidYMid meet">
<text x="20" y="16" style="fill:#e8a951;font:600 9px Inter,sans-serif;letter-spacing:2px">STEP 06 · HYDROPS FETALIS · JAUNDICE · KERNICTERUS</text><g>
    <rect x="20" y="30" width="170" height="16" rx="8" fill="rgba(209, 72, 89, 0.18)" stroke="#d14859" stroke-width="1"/>
    <text x="105" y="41" text-anchor="middle" style="fill:#d14859;font:700 8px Inter,sans-serif;letter-spacing:1.5px">PREGNANCY 2 · attack</text>
  </g><g opacity="0.32">
    <!-- Maternal label -->
    <text x="20" y="62" style="fill:#b4becf;font:600 7px 'JetBrains Mono',monospace;letter-spacing:1.5px">MATERNAL</text>
    <!-- vessel band -->
    <line x1="20" y1="78" x2="480" y2="78" stroke="#d14859" stroke-width="1.3" opacity="0.85"/>
    <line x1="20" y1="105" x2="480" y2="105" stroke="#d14859" stroke-width="1.3" opacity="0.85"/>
    <rect x="20" y="78" width="460" height="27" fill="#d14859" opacity="0.08"/></g><g opacity="0.32">
    <!-- placenta band — striped pattern -->
    <line x1="20" y1="113" x2="480" y2="113" stroke="#b4becf" stroke-width="0.8" opacity="0.45" stroke-dasharray="3 2"/>
    <line x1="20" y1="119" x2="480" y2="119" stroke="#b4becf" stroke-width="0.8" opacity="0.45" stroke-dasharray="3 2"/>
    <text x="250" y="118" text-anchor="middle" style="fill:#6b7689;font:600 6.5px 'JetBrains Mono',monospace;letter-spacing:1.5px">PLACENTA</text></g><g opacity="1">
    <text x="20" y="135" style="fill:#b4becf;font:600 7px 'JetBrains Mono',monospace;letter-spacing:1.5px">FETAL</text>
    <!-- vessel band -->
    <line x1="20" y1="148" x2="480" y2="148" stroke="#d14859" stroke-width="1.3" opacity="0.85"/>
    <line x1="20" y1="175" x2="480" y2="175" stroke="#d14859" stroke-width="1.3" opacity="0.85"/>
    <rect x="20" y="148" width="460" height="27" fill="#d14859" opacity="0.08"/><g transform="translate(60 161)">
      <path d="M -12 -7 Q -14 1 -10 8 Q 0 12 10 8 Q 14 1 12 -7 Q 6 -13 0 -11 Q -6 -13 -12 -7 Z" fill="#4fb8a8" opacity="0.55" stroke="#4fb8a8" stroke-width="1.4"/>
      <ellipse cx="-1" cy="0" rx="3" ry="2.5" fill="#2d8a7c" opacity="0.95"/>
      <text x="0" y="24" text-anchor="middle" style="fill:#4fb8a8;font:600 6.5px Inter,sans-serif;letter-spacing:0.8px">FETAL SPLEEN · Mφ</text>
    </g></g><g><circle cx="160" cy="158" r="4.5" fill="#d14859" opacity="0.85" stroke="#a53343" stroke-width="0.6"/><circle cx="160" cy="158" r="2" fill="#a53343" opacity="0.5"/><line x1="160" y1="153.5" x2="160" y2="150.5" stroke="#e8a951" stroke-width="1"/><line x1="163.9" y1="155.75" x2="166.5" y2="154.25" stroke="#e8a951" stroke-width="1"/><line x1="163.9" y1="160.25" x2="166.5" y2="161.75" stroke="#e8a951" stroke-width="1"/><line x1="160" y1="162.5" x2="160" y2="165.5" stroke="#e8a951" stroke-width="1"/><line x1="156.1" y1="160.25" x2="153.5" y2="161.75" stroke="#e8a951" stroke-width="1"/><line x1="156.1" y1="155.75" x2="153.5" y2="154.25" stroke="#e8a951" stroke-width="1"/><circle cx="200" cy="166" r="4.5" fill="#d14859" opacity="0.85" stroke="#a53343" stroke-width="0.6"/><circle cx="200" cy="166" r="2" fill="#a53343" opacity="0.5"/><line x1="200" y1="161.5" x2="200" y2="158.5" stroke="#e8a951" stroke-width="1"/><line x1="203.9" y1="163.75" x2="206.5" y2="162.25" stroke="#e8a951" stroke-width="1"/><line x1="203.9" y1="168.25" x2="206.5" y2="169.75" stroke="#e8a951" stroke-width="1"/><line x1="200" y1="170.5" x2="200" y2="173.5" stroke="#e8a951" stroke-width="1"/><line x1="196.1" y1="168.25" x2="193.5" y2="169.75" stroke="#e8a951" stroke-width="1"/><line x1="196.1" y1="163.75" x2="193.5" y2="162.25" stroke="#e8a951" stroke-width="1"/></g><g>
    <text x="250" y="200" text-anchor="middle" style="fill:#e8a951;font:600 8px Inter,sans-serif;letter-spacing:1.5px">CLINICAL · HEMOLYTIC DISEASE OF THE NEWBORN</text>
    <g style="font:8.5px Inter,sans-serif" text-anchor="middle">
      <text x="115" y="216" style="fill:#d14859">anemia</text>
      <text x="115" y="228" style="fill:#6b7689;font:italic 7px Fraunces,serif">→ hydrops fetalis</text>
      <text x="250" y="216" style="fill:#d14859">unconj. bilirubin ↑</text>
      <text x="250" y="228" style="fill:#6b7689;font:italic 7px Fraunces,serif">→ neonatal jaundice</text>
      <text x="385" y="216" style="fill:#d14859">crosses BBB</text>
      <text x="385" y="228" style="fill:#6b7689;font:italic 7px Fraunces,serif">→ kernicterus</text>
    </g>
  </g>

                  <!-- FOCUS · audio-aligned attention marker -->
                  <circle cx="20" cy="57" r="20" fill="none" stroke="#d14859" stroke-width="1.8" stroke-dasharray="3 2" opacity="0.85">
                    <animate attributeName="r" values="16;26;16" dur="2.4s" repeatCount="indefinite"/>
                    <animate attributeName="opacity" values="0.85;0.20;0.85" dur="2.4s" repeatCount="indefinite"/>
                  </circle>
</svg>
