<?xml version="1.0" encoding="UTF-8"?>
<!--
  Auto-generated from the reference HTML by
  scripts/storymode-extraction/extract.mjs.
  Do not edit by hand — regenerate the file instead.
-->
<svg xmlns="http://www.w3.org/2000/svg" xmlns:xlink="http://www.w3.org/1999/xlink" viewBox="0 0 500 260" preserveAspectRatio="xMidYMid meet">
<text x="20" y="16" style="fill:#e8a951;font:600 9px Inter,sans-serif;letter-spacing:2px">STEP 02 · 6H · SYMPTOMS RECUR WITH MUCUS</text><g opacity="1">
    <!-- early phase band -->
    <rect x="20" y="38" width="180" height="8" fill="#d14859" opacity="0.18"/>
    <!-- late phase band -->
    <rect x="200" y="38" width="280" height="8" fill="#9370b9" opacity="0.18"/>
    <!-- inline phase tags inside colored bands -->
    <text x="22" y="44.5" style="fill:#d14859;font:700 6px 'JetBrains Mono',monospace;letter-spacing:1.2px">EARLY ►</text>
    <text x="478" y="44.5" text-anchor="end" style="fill:#9370b9;font:700 6px 'JetBrains Mono',monospace;letter-spacing:1.2px">◄ LATE</text>
    <!-- axis baseline -->
    <line x1="20" y1="42" x2="480" y2="42" stroke="#3a4358" stroke-width="1" opacity="0.6"/>
    <!-- ticks + labels (above axis) -->
    <g style="font:6.5px 'JetBrains Mono',monospace;letter-spacing:1px;fill:#6b7689">
      <line x1="50"  y1="38" x2="50"  y2="46" stroke="#6b7689" stroke-width="0.8"/>
      <text x="50"  y="34" text-anchor="middle">TRIGGER</text>
      <line x1="110"  y1="38" x2="110"  y2="46" stroke="#6b7689" stroke-width="0.8"/>
      <text x="110"  y="34" text-anchor="middle">5 MIN</text>
      <line x1="200"  y1="38" x2="200"  y2="46" stroke="#6b7689" stroke-width="0.8"/>
      <text x="200"  y="34" text-anchor="middle">1 H</text>
      <line x1="320"    y1="38" x2="320"    y2="46" stroke="#6b7689" stroke-width="0.8"/>
      <text x="320"    y="34" text-anchor="middle">6 H</text>
      <line x1="430" y1="38" x2="430" y2="46" stroke="#6b7689" stroke-width="0.8"/>
      <text x="430" y="34" text-anchor="middle">12 H</text>
    </g>
    <!-- current marker -->
    <circle cx="320" cy="42" r="3.5" fill="#e8a951"/>
    <circle cx="320" cy="42" r="6" fill="#e8a951" opacity="0.3"/>
  </g><g opacity="1"><circle cx="250" cy="128" r="56" fill="none" stroke="#b4becf" stroke-width="0.8" opacity="0.4" stroke-dasharray="3 2"/><circle cx="250" cy="128" r="52" fill="#9370b9" fill-opacity="0.2" stroke="#9370b9" stroke-width="1.6"/><circle cx="250" cy="128" r="24" fill="#0a0e1a"/><circle cx="250" cy="128" r="24" fill="none" stroke="#9370b9" stroke-width="1" opacity="0.85"/><g>
      <circle cx="250" cy="128" r="20" fill="#e8a951" opacity="0.35"/>
      <text x="250" y="130" text-anchor="middle" style="fill:#e8a951;font:italic 7.5px Fraunces,serif">mucus</text>
    </g><text x="250" y="192" text-anchor="middle" style="fill:#9370b9;font:italic 8.5px Fraunces,serif">inflamed wall + mucus plug</text></g><g transform="translate(80 128)" opacity="1">
    <ellipse cx="0" cy="0" rx="18" ry="15" fill="#d14859" opacity="0.32" stroke="#d14859" stroke-width="1.4"/><g fill="#d14859" opacity="0.15">
    <circle cx="-7" cy="-2" r="1.6"/><circle cx="-2" cy="4" r="1.6"/>
    <circle cx="5" cy="-3" r="1.6"/><circle cx="8" cy="2" r="1.6"/>
    <circle cx="-8" cy="5" r="1.6"/><circle cx="0" cy="-7" r="1.6"/>
  </g><g transform="translate(-10 -17)">
      <rect x="-1" y="0" width="2" height="3" fill="#9370b9" opacity="0.95"/>
      <line x1="0" y1="0" x2="0" y2="-2" stroke="#e8a951" stroke-width="1.3"/>
      <line x1="0" y1="-2" x2="-3" y2="-6" stroke="#e8a951" stroke-width="1.3"/>
      <line x1="0" y1="-2" x2="3" y2="-6" stroke="#e8a951" stroke-width="1.3"/>
    </g><g transform="translate(0 -17)">
      <rect x="-1" y="0" width="2" height="3" fill="#9370b9" opacity="0.95"/>
      <line x1="0" y1="0" x2="0" y2="-2" stroke="#e8a951" stroke-width="1.3"/>
      <line x1="0" y1="-2" x2="-3" y2="-6" stroke="#e8a951" stroke-width="1.3"/>
      <line x1="0" y1="-2" x2="3" y2="-6" stroke="#e8a951" stroke-width="1.3"/>
    </g><g transform="translate(10 -17)">
      <rect x="-1" y="0" width="2" height="3" fill="#9370b9" opacity="0.95"/>
      <line x1="0" y1="0" x2="0" y2="-2" stroke="#e8a951" stroke-width="1.3"/>
      <line x1="0" y1="-2" x2="-3" y2="-6" stroke="#e8a951" stroke-width="1.3"/>
      <line x1="0" y1="-2" x2="3" y2="-6" stroke="#e8a951" stroke-width="1.3"/>
    </g><text x="0" y="28" text-anchor="middle" style="fill:#d14859;font:700 7px Inter,sans-serif;letter-spacing:1px">MAST CELL</text></g>

                  <!-- FOCUS · audio-aligned attention marker -->
                  <circle cx="80" cy="151" r="20" fill="none" stroke="#d14859" stroke-width="1.8" stroke-dasharray="3 2" opacity="0.85">
                    <animate attributeName="r" values="16;26;16" dur="2.4s" repeatCount="indefinite"/>
                    <animate attributeName="opacity" values="0.85;0.20;0.85" dur="2.4s" repeatCount="indefinite"/>
                  </circle>
</svg>
