<?xml version="1.0" encoding="UTF-8"?>
<!--
  Auto-generated from the reference HTML by
  scripts/storymode-extraction/extract.mjs.
  Do not edit by hand — regenerate the file instead.
-->
<svg xmlns="http://www.w3.org/2000/svg" xmlns:xlink="http://www.w3.org/1999/xlink" viewBox="0 0 500 260" preserveAspectRatio="xMidYMid meet">
<text x="20" y="16" style="fill:#e8a951;font:600 9px Inter,sans-serif;letter-spacing:2px">STEP 03 · 6-TGN · CYTOTOXIC METABOLITE</text>

<g transform="translate(110 145)">
  <text x="0" y="-78" text-anchor="middle" style="fill:#d14859;font:700 9px Inter,sans-serif;letter-spacing:1.5px">6-TGN</text>
  <text x="0" y="-65" text-anchor="middle" style="fill:#b4becf;font:7px Inter,sans-serif">6-thioguanine nucleotide</text>
  <g transform="translate(0 0)">
    <ellipse cx="0" cy="-20" rx="14" ry="11" fill="rgba(209,72,89,0.65)" stroke="#d14859" stroke-width="1.4"/>
    <text x="0" y="-17" text-anchor="middle" style="fill:#0a0e1a;font:700 7px Inter,sans-serif">6-TG</text>
    <line x1="0" y1="-9" x2="0" y2="-3" stroke="#d14859" stroke-width="1.4"/>
    <polygon points="0,0 -10,5 -7,15 7,15 10,5" fill="rgba(232,169,81,0.65)" stroke="#e8a951" stroke-width="1.2"/>
    <text x="0" y="11" text-anchor="middle" style="fill:#0a0e1a;font:6.5px Inter,sans-serif">sugar</text>
    <line x1="10" y1="9" x2="16" y2="14" stroke="#e8a951" stroke-width="1.4"/>
    <circle cx="22" cy="20" r="6" fill="#9370b9"/>
    <text x="22" y="23" text-anchor="middle" style="fill:#fff;font:700 7px Inter,sans-serif">P</text>
  </g>
</g>

<g transform="translate(310 90)">
  <text x="0" y="-22" text-anchor="middle" style="fill:#9370b9;font:700 8px Inter,sans-serif;letter-spacing:1.2px">DNA INCORPORATION</text>
  <g stroke="#9370b9" stroke-width="1.6" fill="none">
    <path d="M -65 0 Q -55 -3 -45 0 Q -35 3 -25 0 Q -15 -3 -5 0 Q 5 3 15 0 Q 25 -3 35 0 Q 45 3 55 0 Q 60 -1 65 0"/>
    <path d="M -65 6 Q -55 3 -45 6 Q -35 9 -25 6 Q -15 3 -5 6 Q 5 9 15 6 Q 25 3 35 6 Q 45 9 55 6 Q 60 7 65 6"/>
  </g>
  <circle cx="-15" cy="3" r="5" fill="rgba(209,72,89,0.85)" stroke="#d14859" stroke-width="1.4"/>
  <text x="-15" y="-10" text-anchor="middle" style="fill:#d14859;font:700 6px Inter,sans-serif">6-TGN</text>
  <line x1="20" y1="-3" x2="30" y2="9" stroke="#d14859" stroke-width="2.4" stroke-linecap="round"/>
  <text x="38" y="6" style="fill:#d14859;font:700 7px Inter,sans-serif">break</text>
</g>

<g transform="translate(310 145)">
  <text x="0" y="-12" text-anchor="middle" style="fill:#d14859;font:700 8px Inter,sans-serif;letter-spacing:1.2px">APOPTOSIS</text>
  <g transform="translate(0 5)">
    <circle cx="-50" cy="0" r="12" fill="rgba(108,194,125,0.55)" stroke="#6cc27d" stroke-width="1.2"/>
    <ellipse cx="-50" cy="0" rx="5" ry="4" fill="rgba(20,24,40,0.6)"/>
    <line x1="-32" y1="0" x2="-12" y2="0" stroke="#d14859" stroke-width="1.6" marker-end="url(#arr13_8_3a)"/>
    <g>
      <circle cx="20" cy="0" r="10" fill="rgba(209,72,89,0.40)" stroke="#d14859" stroke-width="1.2" stroke-dasharray="2 2"/>
      <circle cx="38" cy="-5" r="3" fill="rgba(209,72,89,0.55)"/>
      <circle cx="42" cy="6" r="2.5" fill="rgba(209,72,89,0.55)"/>
      <circle cx="48" cy="-2" r="2" fill="rgba(209,72,89,0.55)"/>
    </g>
  </g>
  <defs>
    <marker id="arr13_8_3a" viewBox="0 0 10 10" refX="9" refY="5" markerWidth="7" markerHeight="7" orient="auto">
      <path d="M 0 0 L 10 5 L 0 10 z" fill="#d14859"/>
    </marker>
  </defs>
</g>

<g transform="translate(310 198)">
  <text x="0" y="-12" text-anchor="middle" style="fill:#9370b9;font:700 8px Inter,sans-serif;letter-spacing:1.2px">BLOCKS DE NOVO SYNTH</text>
  <g transform="translate(0 0)">
    <rect x="-50" y="-7" width="60" height="14" rx="3" fill="rgba(232,169,81,0.20)" stroke="#e8a951" stroke-width="1"/>
    <text x="-20" y="3" text-anchor="middle" style="fill:#e8a951;font:700 6.5px Inter,sans-serif">PRPP synth</text>
    <line x1="20" y1="0" x2="35" y2="0" stroke="#6b7689" stroke-width="1.4" stroke-dasharray="2 2"/>
    <line x1="22" y1="-5" x2="32" y2="5" stroke="#d14859" stroke-width="2" stroke-linecap="round"/>
    <line x1="22" y1="5" x2="32" y2="-5" stroke="#d14859" stroke-width="2" stroke-linecap="round"/>
    <rect x="40" y="-7" width="55" height="14" rx="3" fill="rgba(108,194,125,0.20)" stroke="#6cc27d" stroke-width="1"/>
    <text x="68" y="3" text-anchor="middle" style="fill:#6cc27d;font:700 6.5px Inter,sans-serif">purines</text>
  </g>
</g>

<text x="250" y="245" text-anchor="middle" style="fill:#6b7689;font:italic 7.5px Fraunces,serif">Both DNA damage AND purine starvation kill proliferating cells</text>

                  <!-- FOCUS · audio-aligned attention marker -->
                  <circle cx="110" cy="62" r="20" fill="none" stroke="#d14859" stroke-width="1.8" stroke-dasharray="3 2" opacity="0.85">
                    <animate attributeName="r" values="16;26;16" dur="2.4s" repeatCount="indefinite"/>
                    <animate attributeName="opacity" values="0.85;0.20;0.85" dur="2.4s" repeatCount="indefinite"/>
                  </circle>

                  <!-- FOCUS · audio-aligned attention marker -->
                  <circle cx="295" cy="75" r="20" fill="none" stroke="#d14859" stroke-width="1.8" stroke-dasharray="3 2" opacity="0.85">
                    <animate attributeName="r" values="16;26;16" dur="2.4s" repeatCount="indefinite"/>
                    <animate attributeName="opacity" values="0.85;0.20;0.85" dur="2.4s" repeatCount="indefinite"/>
                  </circle>
</svg>
