<?xml version="1.0" encoding="UTF-8"?>
<!--
  Auto-generated from the reference HTML by
  scripts/storymode-extraction/extract.mjs.
  Do not edit by hand — regenerate the file instead.
-->
<svg xmlns="http://www.w3.org/2000/svg" xmlns:xlink="http://www.w3.org/1999/xlink" viewBox="0 0 500 260" preserveAspectRatio="xMidYMid meet">
                  <text x="20" y="22" style="fill:#e8a951;font:600 10px Inter,sans-serif;letter-spacing:2px">STEP 14 · THE ANSWER</text>

                  <!-- ghosted canvas: dead cell + CD8 -->
                  <g opacity="0.35">
    
                    <g opacity="0.55">
                      <path d="M 95 100 Q 80 130 90 165 Q 105 195 145 200 Q 200 205 240 195 Q 275 185 280 155 Q 285 125 270 100 Q 245 80 195 78 Q 140 76 95 100 Z" fill="#4fb8a8" fill-opacity="0.18" stroke="#4fb8a8" stroke-width="1.6"></path>
                  <text x="180" y="240" text-anchor="middle" style="fill:#4fb8a8;font:600 8px Inter,sans-serif;letter-spacing:1.2px">EPITHELIAL CELL</text></g>
                      <circle cx="120" cy="220" r="6" fill="#4fb8a8" fill-opacity="0.30" stroke="#4fb8a8" stroke-width="1"></circle>
                      <circle cx="290" cy="225" r="5" fill="#4fb8a8" fill-opacity="0.28" stroke="#4fb8a8" stroke-width="1"></circle>
                      <circle cx="305" cy="115" r="5" fill="#4fb8a8" fill-opacity="0.26" stroke="#4fb8a8" stroke-width="1"></circle>
    
                    <g transform="translate(75 110) rotate(-90)" opacity="0.3">
                      <path d="M -12 0 L 12 0 L 14 8 L 8 8 L 6 4 L -6 4 L -8 8 L -14 8 Z" fill="#e8a951" fill-opacity="0.85" stroke="#e8a951" stroke-width="1.2"></path>
                  <circle cx="-3" cy="-2.5" r="2" fill="#6cc27d"></circle><circle cx="0" cy="-2.5" r="2" fill="#6cc27d"></circle><circle cx="3" cy="-2.5" r="2" fill="#6cc27d"></circle></g>
                    <g transform="translate(290 105) rotate(90)" opacity="0.3">
                      <path d="M -12 0 L 12 0 L 14 8 L 8 8 L 6 4 L -6 4 L -8 8 L -14 8 Z" fill="#e8a951" fill-opacity="0.85" stroke="#e8a951" stroke-width="1.2"></path>
                  <circle cx="-3" cy="-2.5" r="2" fill="#d14859"></circle><circle cx="0" cy="-2.5" r="2" fill="#d14859"></circle><circle cx="3" cy="-2.5" r="2" fill="#d14859"></circle></g>
                    <g transform="translate(295 145) rotate(90)" opacity="0.3">
                      <path d="M -12 0 L 12 0 L 14 8 L 8 8 L 6 4 L -6 4 L -8 8 L -14 8 Z" fill="#e8a951" fill-opacity="0.85" stroke="#e8a951" stroke-width="1.2"></path>
                  <circle cx="-3" cy="-2.5" r="2" fill="#6cc27d"></circle><circle cx="0" cy="-2.5" r="2" fill="#6cc27d"></circle><circle cx="3" cy="-2.5" r="2" fill="#6cc27d"></circle></g>
                    <g transform="translate(290 185) rotate(90)" opacity="0.3">
                      <path d="M -12 0 L 12 0 L 14 8 L 8 8 L 6 4 L -6 4 L -8 8 L -14 8 Z" fill="#e8a951" fill-opacity="0.85" stroke="#e8a951" stroke-width="1.2"></path>
                  <circle cx="-3" cy="-2.5" r="2" fill="#d14859"></circle><circle cx="0" cy="-2.5" r="2" fill="#d14859"></circle><circle cx="3" cy="-2.5" r="2" fill="#d14859"></circle></g>
                    <g transform="translate(95 195) rotate(-90)" opacity="0.3">
                      <path d="M -12 0 L 12 0 L 14 8 L 8 8 L 6 4 L -6 4 L -8 8 L -14 8 Z" fill="#e8a951" fill-opacity="0.85" stroke="#e8a951" stroke-width="1.2"></path>
                  <circle cx="-3" cy="-2.5" r="2" fill="#6cc27d"></circle><circle cx="0" cy="-2.5" r="2" fill="#6cc27d"></circle><circle cx="3" cy="-2.5" r="2" fill="#6cc27d"></circle></g>
                      <g transform="translate(410 145)" opacity="1">
                        <circle cx="0" cy="0" r="38" fill="#6cc27d" fill-opacity="0.32" stroke="#6cc27d" stroke-width="1.8"></circle>
                        <ellipse cx="-5" cy="-3" rx="10" ry="8" fill="#1a2030" opacity="0.7"></ellipse>
                        <!-- cytotoxic granules inside -->
                        <g fill="#e8a951" opacity="0.85">
                          <circle cx="10" cy="6" r="2.5"></circle>
                          <circle cx="6" cy="14" r="2.2"></circle>
                          <circle cx="14" cy="-4" r="2.2"></circle>
                          <circle cx="10" cy="-12" r="2"></circle>
                        </g>
                        <text x="0" y="55" text-anchor="middle" style="fill:#6cc27d;font:600 9px Inter,sans-serif;letter-spacing:1.5px">CD8 T CELL</text>
                        <!-- TCR pointing left toward the cell -->
                        <g transform="translate(-38 0)">
                          <path d="M 0 0 L 12 -7 L 12 7 Z" fill="#e8a951" opacity="0.85" transform="rotate(180)"></path>
                          <text x="6" y="-12" text-anchor="middle" style="fill:#e8a951;font:600 8px Inter,sans-serif">TCR</text>
                        </g>
                      </g>
    
                  </g>

                  <!-- distractors crossed out at top -->
                  <g opacity="0.45">
                    <text x="44" y="80" style="fill:#6b7689;font:9px Inter,sans-serif">A · macrophages</text>
                    <line x1="40" y1="76" x2="120" y2="76" stroke="#d14859" stroke-width="1" opacity="0.85"></line>
                    <text x="148" y="80" style="fill:#6b7689;font:9px Inter,sans-serif">C · Class II</text>
                    <line x1="144" y1="76" x2="206" y2="76" stroke="#d14859" stroke-width="1" opacity="0.85"></line>
                    <text x="240" y="80" style="fill:#6b7689;font:9px Inter,sans-serif">D · CD8 phagocytosis</text>
                    <line x1="236" y1="76" x2="350" y2="76" stroke="#d14859" stroke-width="1" opacity="0.85"></line>
                    <text x="380" y="80" style="fill:#6b7689;font:9px Inter,sans-serif">E · memory B</text>
                    <line x1="376" y1="76" x2="448" y2="76" stroke="#d14859" stroke-width="1" opacity="0.85"></line>
                  </g>

                  <!-- hero answer banner -->
                  <g transform="translate(250 145)">
                    <rect x="-220" y="-26" width="440" height="52" rx="10" fill="#e8a951" fill-opacity="0.42" stroke="#e8a951" stroke-width="2.6"></rect>
                    <text x="0" y="6" text-anchor="middle" style="fill:#e8a951;font:700 12px Inter,sans-serif;letter-spacing:2px">B · CLASS I MHC–VIRAL PEPTIDE COMPLEX</text>
                  </g>

                  <text x="250" y="252" text-anchor="middle" style="fill:#e8a951;font:italic 600 10px Fraunces,serif">a window into every cell · CD8 reads the cytoplasm from outside</text>

                  <!-- FOCUS · audio-aligned attention marker -->
                  <circle cx="250" cy="146" r="40" fill="none" stroke="#d14859" stroke-width="1.8" stroke-dasharray="3 2" opacity="0.85">
                    <animate attributeName="r" values="36;46;36" dur="2.4s" repeatCount="indefinite"/>
                    <animate attributeName="opacity" values="0.85;0.20;0.85" dur="2.4s" repeatCount="indefinite"/>
                  </circle>
</svg>
