<?xml version="1.0" encoding="UTF-8"?>
<!--
  Auto-generated from the reference HTML by
  scripts/storymode-extraction/extract.mjs.
  Do not edit by hand — regenerate the file instead.
-->
<svg xmlns="http://www.w3.org/2000/svg" xmlns:xlink="http://www.w3.org/1999/xlink" viewBox="0 0 500 260" preserveAspectRatio="xMidYMid meet">
<text x="20" y="16" style="fill:#e8a951;font:600 9px Inter,sans-serif;letter-spacing:2px">STEP 09 · OTHER CONTRAINDICATION · PREGNANCY</text>

<!-- Pregnant patient (more anatomical) -->
<g transform="translate(120 145)">
  <text x="0" y="-78" text-anchor="middle" style="fill:#9370b9;font:700 9px Inter,sans-serif;letter-spacing:1.5px">PREGNANT</text>
  <!-- Head -->
  <circle cx="0" cy="-50" r="16" fill="rgba(147,112,185,0.55)" stroke="#9370b9" stroke-width="1.6"/>
  <!-- Hair indicator -->
  <path d="M -14 -58 Q 0 -68 14 -58" stroke="#9370b9" stroke-width="2.5" fill="none"/>
  <!-- Pregnant body silhouette -->
  <path d="M -22 -38 Q -28 -28 -32 -10 Q -38 12 -36 30 L -34 60 L 34 60 L 36 30 Q 38 12 32 -10 Q 28 -28 22 -38 Z" fill="rgba(147,112,185,0.30)" stroke="#9370b9" stroke-width="1.6"/>
  <!-- Belly outline -->
  <ellipse cx="0" cy="20" rx="32" ry="28" fill="rgba(147,112,185,0.18)" stroke="#9370b9" stroke-width="1" stroke-dasharray="2 2"/>
  <!-- Fetus inside -->
  <g transform="translate(0 22)">
    <path d="M 0 -14 Q 8 -14 12 -8 Q 14 0 12 6 Q 14 12 8 12 Q 0 16 -6 12 Q -10 8 -8 0 Q -10 -8 -4 -12 Z" fill="rgba(108,194,125,0.85)" stroke="#6cc27d" stroke-width="1.4"/>
    <text x="0" y="2" text-anchor="middle" style="fill:#0a0e1a;font:italic 700 6.5px Fraunces,serif">fetus</text>
  </g>
</g>

<!-- Placenta as transmission barrier -->
<g transform="translate(220 145)">
  <text x="0" y="-72" text-anchor="middle" style="fill:#e8a951;font:700 8px Inter,sans-serif;letter-spacing:1.2px">PLACENTA</text>
  <rect x="-15" y="-55" width="30" height="115" rx="3" fill="rgba(232,169,81,0.18)" stroke="#e8a951" stroke-width="1.4" stroke-dasharray="3 2"/>
  <!-- Crossing virus icon -->
  <g transform="translate(0 0)" fill="rgba(209,72,89,0.95)" stroke="#d14859" stroke-width="1">
    <circle r="6"/>
    <line x1="0" y1="-6" x2="0" y2="-9" stroke-width="1"/>
    <line x1="6" y1="0" x2="9" y2="0" stroke-width="1"/>
    <line x1="0" y1="6" x2="0" y2="9" stroke-width="1"/>
    <line x1="-6" y1="0" x2="-9" y2="0" stroke-width="1"/>
  </g>
  <!-- arrow showing crossing -->
  <line x1="20" y1="0" x2="35" y2="0" stroke="#d14859" stroke-width="1.6" stroke-dasharray="3 2"/>
  <polygon points="35,0 30,-3 30,3" fill="#d14859"/>
</g>

<!-- Big NO LIVE VACCINES banner -->
<g transform="translate(380 110)">
  <rect x="-90" y="-32" width="180" height="64" rx="10" fill="rgba(209,72,89,0.30)" stroke="#d14859" stroke-width="2.4"/>
  <!-- Big circle slash -->
  <circle cx="-60" cy="0" r="18" fill="none" stroke="#d14859" stroke-width="3"/>
  <line x1="-72" y1="-12" x2="-48" y2="12" stroke="#d14859" stroke-width="3" stroke-linecap="round"/>
  <text x="20" y="-5" text-anchor="middle" style="fill:#d14859;font:700 10px Inter,sans-serif;letter-spacing:1.5px">NO LIVE</text>
  <text x="20" y="9" text-anchor="middle" style="fill:#d14859;font:700 10px Inter,sans-serif;letter-spacing:1.5px">VACCINES</text>
</g>

<!-- OK below -->
<g transform="translate(380 195)">
  <rect x="-90" y="-15" width="180" height="30" rx="6" fill="rgba(108,194,125,0.18)" stroke="#6cc27d" stroke-width="1.4"/>
  <text x="0" y="-2" text-anchor="middle" style="fill:#6cc27d;font:700 8px Inter,sans-serif">✓ Tdap · flu · COVID · RSV</text>
  <text x="0" y="11" text-anchor="middle" style="fill:#b4becf;font:6.5px Inter,sans-serif">inactivated only</text>
</g>

<text x="250" y="245" text-anchor="middle" style="fill:#6b7689;font:italic 7.5px Fraunces,serif">Live virus may cross placenta · MMR · varicella · YF deferred</text>

                  <!-- FOCUS · audio-aligned attention marker -->
                  <circle cx="380" cy="188" r="39" fill="none" stroke="#d14859" stroke-width="1.8" stroke-dasharray="3 2" opacity="0.85">
                    <animate attributeName="r" values="35;45;35" dur="2.4s" repeatCount="indefinite"/>
                    <animate attributeName="opacity" values="0.85;0.20;0.85" dur="2.4s" repeatCount="indefinite"/>
                  </circle>

                  <!-- FOCUS · audio-aligned attention marker -->
                  <circle cx="380" cy="201" r="24" fill="none" stroke="#d14859" stroke-width="1.8" stroke-dasharray="3 2" opacity="0.85">
                    <animate attributeName="r" values="20;30;20" dur="2.4s" repeatCount="indefinite"/>
                    <animate attributeName="opacity" values="0.85;0.20;0.85" dur="2.4s" repeatCount="indefinite"/>
                  </circle>

                  <!-- FOCUS · audio-aligned attention marker -->
                  <circle cx="400" cy="114" r="20" fill="none" stroke="#d14859" stroke-width="1.8" stroke-dasharray="3 2" opacity="0.85">
                    <animate attributeName="r" values="16;26;16" dur="2.4s" repeatCount="indefinite"/>
                    <animate attributeName="opacity" values="0.85;0.20;0.85" dur="2.4s" repeatCount="indefinite"/>
                  </circle>
              </svg>
