<?xml version="1.0" encoding="UTF-8"?>
<!--
  Auto-generated from the reference HTML by
  scripts/storymode-extraction/extract.mjs.
  Do not edit by hand — regenerate the file instead.
-->
<svg xmlns="http://www.w3.org/2000/svg" xmlns:xlink="http://www.w3.org/1999/xlink" viewBox="0 0 500 260" preserveAspectRatio="xMidYMid meet">
                  <text x="20" y="16" style="fill:#e8a951;font:600 9px Inter,sans-serif;letter-spacing:2px">STEP 02 · SPEP · FLAT GAMMA · ALL Ig LOW</text>

                  <!-- SPEP curve on left -->
                  <g transform="translate(150 130)" opacity="1"><rect x="-125" y="-49" width="250" height="100" rx="6" fill="#1a2030" stroke="#3a4358" stroke-width="1.4"></rect><text x="0" y="-37" text-anchor="middle" style="fill:#9370b9;font:700 8px Inter,sans-serif;letter-spacing:1.5px">SPEP · serum protein electrophoresis</text><line x1="-115" y1="31" x2="115" y2="31" stroke="#3a4358" stroke-width="0.8"></line><path d="M -115 31 Q -105.8 19.1, -87.4 -28.5 Q -69 13.150000000000002, -59.800000000000004 23.44 Q -50.599999999999994 18.4, -46 18.4 Q -32.2 23.44, -9.199999999999989 10 Q 11.500000000000014 20.5, 34.5 6.5 Q 57.5 21.2, 80.5 27.5 Q 103.5 29.95, 115 31" fill="#d14859" fill-opacity="0.30" stroke="#d14859" stroke-width="1.5"></path><rect x="64.4" y="-4" width="41.4" height="35" rx="2" fill="#d14859" fill-opacity="0.10" stroke="#d14859" stroke-width="1" stroke-dasharray="2 2"></rect><text x="80.5" y="-10.5" text-anchor="middle" style="fill:#d14859;font:700 7px Inter,sans-serif;letter-spacing:1.2px">FLAT</text><g style="font:600 6px Inter,sans-serif;fill:#b4becf"><text x="-87.4" y="40" text-anchor="middle">albumin</text><text x="-46" y="40" text-anchor="middle">α1</text><text x="-9.2" y="40" text-anchor="middle">α2</text><text x="34.5" y="40" text-anchor="middle">β</text><text x="80.5" y="40" text-anchor="middle">γ</text></g></g>

                  <!-- Antibody profile on right -->
                  <g transform="translate(385 130)" opacity="1"><rect x="-90" y="-48" width="180" height="96" rx="6" fill="#1a2030" stroke="#3a4358" stroke-width="1.4"></rect><text x="0" y="-34" text-anchor="middle" style="fill:#d14859;font:700 8px Inter,sans-serif;letter-spacing:1.5px">PATIENT</text><text x="-82" y="-18" style="fill:#e8ecf3;font:600 9px Inter,sans-serif">IgG</text><rect x="-52" y="-26" width="98" height="10" rx="2" fill="#0a0e1a" stroke="#3a4358" stroke-width="0.8"></rect><line x1="-3" y1="-28" x2="-3" y2="-16" stroke="#6b7689" stroke-width="0.7" stroke-dasharray="1.5 1"></line><rect x="-52" y="-26" width="3.92" height="10" rx="2" fill="#d14859" fill-opacity="0.85"></rect><text x="50" y="-18" style="fill:#d14859;font:700 7px Inter,sans-serif">ABSENT</text><text x="-82" y="4" style="fill:#e8ecf3;font:600 9px Inter,sans-serif">IgM</text><rect x="-52" y="-4" width="98" height="10" rx="2" fill="#0a0e1a" stroke="#3a4358" stroke-width="0.8"></rect><line x1="-3" y1="-6" x2="-3" y2="6" stroke="#6b7689" stroke-width="0.7" stroke-dasharray="1.5 1"></line><rect x="-52" y="-4" width="3.92" height="10" rx="2" fill="#d14859" fill-opacity="0.85"></rect><text x="50" y="4" style="fill:#d14859;font:700 7px Inter,sans-serif">ABSENT</text><text x="-82" y="26" style="fill:#e8ecf3;font:600 9px Inter,sans-serif">IgA</text><rect x="-52" y="18" width="98" height="10" rx="2" fill="#0a0e1a" stroke="#3a4358" stroke-width="0.8"></rect><line x1="-3" y1="16" x2="-3" y2="28" stroke="#6b7689" stroke-width="0.7" stroke-dasharray="1.5 1"></line><rect x="-52" y="18" width="3.92" height="10" rx="2" fill="#d14859" fill-opacity="0.85"></rect><text x="50" y="26" style="fill:#d14859;font:700 7px Inter,sans-serif">ABSENT</text></g>

                  <text x="250" y="245" text-anchor="middle" style="fill:#b4becf;font:italic 7.5px Fraunces,serif">flat gamma globulin region · all three isotypes essentially absent on quantitative testing</text>

                  <!-- FOCUS · audio-aligned attention marker -->
                  <circle cx="303" cy="107" r="20" fill="none" stroke="#d14859" stroke-width="1.8" stroke-dasharray="3 2" opacity="0.85">
                    <animate attributeName="r" values="16;26;16" dur="2.4s" repeatCount="indefinite"/>
                    <animate attributeName="opacity" values="0.85;0.20;0.85" dur="2.4s" repeatCount="indefinite"/>
                  </circle>

                  <!-- FOCUS · audio-aligned attention marker -->
                  <circle cx="303" cy="129" r="20" fill="none" stroke="#d14859" stroke-width="1.8" stroke-dasharray="3 2" opacity="0.85">
                    <animate attributeName="r" values="16;26;16" dur="2.4s" repeatCount="indefinite"/>
                    <animate attributeName="opacity" values="0.85;0.20;0.85" dur="2.4s" repeatCount="indefinite"/>
                  </circle>

                  <!-- FOCUS · audio-aligned attention marker -->
                  <circle cx="303" cy="151" r="20" fill="none" stroke="#d14859" stroke-width="1.8" stroke-dasharray="3 2" opacity="0.85">
                    <animate attributeName="r" values="16;26;16" dur="2.4s" repeatCount="indefinite"/>
                    <animate attributeName="opacity" values="0.85;0.20;0.85" dur="2.4s" repeatCount="indefinite"/>
                  </circle>
</svg>
