<?xml version="1.0" encoding="UTF-8"?>
<!--
  Auto-generated from the reference HTML by
  scripts/storymode-extraction/extract.mjs.
  Do not edit by hand — regenerate the file instead.
-->
<svg xmlns="http://www.w3.org/2000/svg" xmlns:xlink="http://www.w3.org/1999/xlink" viewBox="0 0 500 260" preserveAspectRatio="xMidYMid meet">
                  <text x="20" y="22" style="fill:#e8a951;font:600 10px Inter,sans-serif;letter-spacing:2px">STEP 04 · PLACENTA · FcRn RECEPTORS</text>

                  <g opacity="1"><rect x="40" y="55" width="420" height="60" rx="3" fill="#d14859" fill-opacity="0.10"></rect><text x="48" y="68" style="fill:#d14859;font:600 8px Inter,sans-serif;letter-spacing:1.5px">MATERNAL BLOOD</text><rect x="40" y="115" width="420" height="50" rx="3" fill="#e8a951" fill-opacity="0.20" stroke="#e8a951" stroke-width="1.4"></rect><text x="48" y="143" style="fill:#e8a951;font:600 8px Inter,sans-serif;letter-spacing:1.5px">SYNCYTIOTROPHOBLAST</text><rect x="40" y="165" width="420" height="60" rx="3" fill="#6cc27d" fill-opacity="0.10"></rect><text x="48" y="218" style="fill:#6cc27d;font:600 8px Inter,sans-serif;letter-spacing:1.5px">FETAL BLOOD</text><g transform="translate(110 115)"><path d="M -7 0 L -7 -7 L -3 -7 L -3 -3 L 3 -3 L 3 -7 L 7 -7 L 7 0 Z" fill="#9370b9" fill-opacity="0.85" stroke="#9370b9" stroke-width="1.2"></path></g><g transform="translate(175 115)"><path d="M -7 0 L -7 -7 L -3 -7 L -3 -3 L 3 -3 L 3 -7 L 7 -7 L 7 0 Z" fill="#9370b9" fill-opacity="0.85" stroke="#9370b9" stroke-width="1.2"></path></g><g transform="translate(240 115)"><path d="M -7 0 L -7 -7 L -3 -7 L -3 -3 L 3 -3 L 3 -7 L 7 -7 L 7 0 Z" fill="#9370b9" fill-opacity="0.85" stroke="#9370b9" stroke-width="1.2"></path></g><g transform="translate(305 115)"><path d="M -7 0 L -7 -7 L -3 -7 L -3 -3 L 3 -3 L 3 -7 L 7 -7 L 7 0 Z" fill="#9370b9" fill-opacity="0.85" stroke="#9370b9" stroke-width="1.2"></path></g><g transform="translate(370 115)"><path d="M -7 0 L -7 -7 L -3 -7 L -3 -3 L 3 -3 L 3 -7 L 7 -7 L 7 0 Z" fill="#9370b9" fill-opacity="0.85" stroke="#9370b9" stroke-width="1.2"></path></g><text x="430" y="108" text-anchor="end" style="fill:#9370b9;font:600 7px Inter,sans-serif;letter-spacing:1.2px">FcRn ↑</text></g>

                  <!-- annotation -->
                  <g transform="translate(250 248)">
                    <text x="0" y="0" text-anchor="middle" style="fill:#9370b9;font:600 8px Inter,sans-serif;letter-spacing:1.5px">FcRn (NEONATAL Fc RECEPTOR) · BINDS Fc TAIL OF IgG</text>
                  </g>

                  <text x="250" y="40" text-anchor="middle" style="fill:#b4becf;font:italic 10px Fraunces,serif">the placental barrier is selective · FcRn receptors bind only IgG</text>

                  <!-- FOCUS · audio-aligned attention marker -->
                  <circle cx="250" cy="35" r="40" fill="none" stroke="#d14859" stroke-width="1.8" stroke-dasharray="3 2" opacity="0.85">
                    <animate attributeName="r" values="36;46;36" dur="2.4s" repeatCount="indefinite"/>
                    <animate attributeName="opacity" values="0.85;0.20;0.85" dur="2.4s" repeatCount="indefinite"/>
                  </circle>
</svg>
