<?xml version="1.0" encoding="UTF-8"?>
<!--
  Auto-generated from the reference HTML by
  scripts/storymode-extraction/extract.mjs.
  Do not edit by hand — regenerate the file instead.
-->
<svg xmlns="http://www.w3.org/2000/svg" xmlns:xlink="http://www.w3.org/1999/xlink" viewBox="0 0 500 260" preserveAspectRatio="xMidYMid meet">
                  <text x="20" y="16" style="fill:#e8a951;font:600 9px Inter,sans-serif;letter-spacing:2px">STEP 07 · THE ANSWER</text>

                  <g opacity="0.30">
                    <g transform="translate(140 130)" opacity="1"><rect x="-3" y="-38" width="6" height="6" fill="#6b7689" opacity="0.65"></rect><path d="M -19 -30 L 19 -30 L 15 30 L -15 30 Z" fill="#d14859" fill-opacity="0.55" stroke="#d14859" stroke-width="1.5"></path><g fill="#9c2937" fill-opacity="0.85"><ellipse cx="-12" cy="-25" rx="3" ry="2"></ellipse><ellipse cx="10" cy="-28" rx="3" ry="2"></ellipse><ellipse cx="0" cy="-10" rx="3" ry="2"></ellipse><ellipse cx="-10" cy="-5" rx="3" ry="2"></ellipse><ellipse cx="12" cy="-8" rx="3" ry="2"></ellipse><ellipse cx="-15" cy="8" rx="3" ry="2"></ellipse><ellipse cx="10" cy="12" rx="3" ry="2"></ellipse><ellipse cx="-5" cy="22" rx="3" ry="2"></ellipse><ellipse cx="12" cy="25" rx="3" ry="2"></ellipse><ellipse cx="-12" cy="28" rx="3" ry="2"></ellipse></g><g fill="#e8a951" fill-opacity="0.95" stroke="#e8a951" stroke-width="0.8"><circle cx="-10" cy="-15" r="4"></circle><circle cx="6" cy="0" r="4"></circle><circle cx="-3" cy="20" r="4"></circle></g></g>
                    <g transform="translate(220 130)">
<g stroke="#e8a951" stroke-width="2" fill="#e8a951" stroke-linejoin="round">
<polygon points="-9,-22 -1,-7 -6,-7 0,11 -7,-3 -1,-3"></polygon>
<polygon points="9,-22 17,-7 12,-7 18,11 11,-3 17,-3"></polygon>
</g>
<text x="5" y="22" text-anchor="middle" style="fill:#e8a951;font:700 7px Inter,sans-serif;letter-spacing:1.2px">25 Gy γ</text>
                    </g>
                    <line x1="270" y1="130" x2="305" y2="130" stroke="#e8a951" stroke-width="1.4"></line>
                    <polygon points="305,130 298,126 298,134" fill="#e8a951"></polygon>
                    <g transform="translate(355 130)" opacity="1"><rect x="-3" y="-38" width="6" height="6" fill="#6b7689" opacity="0.65"></rect><path d="M -19 -30 L 19 -30 L 15 30 L -15 30 Z" fill="#d14859" fill-opacity="0.55" stroke="#d14859" stroke-width="1.5"></path><g fill="#9c2937" fill-opacity="0.85"><ellipse cx="-12" cy="-25" rx="3" ry="2"></ellipse><ellipse cx="10" cy="-28" rx="3" ry="2"></ellipse><ellipse cx="0" cy="-10" rx="3" ry="2"></ellipse><ellipse cx="-10" cy="-5" rx="3" ry="2"></ellipse><ellipse cx="12" cy="-8" rx="3" ry="2"></ellipse><ellipse cx="-15" cy="8" rx="3" ry="2"></ellipse><ellipse cx="10" cy="12" rx="3" ry="2"></ellipse><ellipse cx="-5" cy="22" rx="3" ry="2"></ellipse><ellipse cx="12" cy="25" rx="3" ry="2"></ellipse><ellipse cx="-12" cy="28" rx="3" ry="2"></ellipse></g><g fill="#6b7689" fill-opacity="0.45" stroke="#6b7689" stroke-width="0.8"><circle cx="-10" cy="-15" r="4"></circle><circle cx="6" cy="0" r="4"></circle><circle cx="-3" cy="20" r="4"></circle></g><g stroke="#d14859" stroke-width="1.2" stroke-linecap="round"><line x1="-13" y1="-18" x2="-7" y2="-12"></line><line x1="-13" y1="-12" x2="-7" y2="-18"></line><line x1="3" y1="-3" x2="9" y2="3"></line><line x1="3" y1="3" x2="9" y2="-3"></line><line x1="-6" y1="17" x2="0" y2="23"></line><line x1="-6" y1="23" x2="0" y2="17"></line></g></g>
                  </g>

                  <g opacity="0.45" font-family="Inter,sans-serif">
                    <text x="40" y="65" style="fill:#6b7689;font:9px Inter,sans-serif">A · ABO only</text>
                    <line x1="36" y1="61" x2="135" y2="61" stroke="#d14859" stroke-width="1" opacity="0.85"></line>
                    <text x="155" y="65" style="fill:#6b7689;font:9px Inter,sans-serif">B · leukoreduce</text>
                    <line x1="151" y1="61" x2="260" y2="61" stroke="#d14859" stroke-width="1" opacity="0.85"></line>
                    <text x="280" y="65" style="fill:#6b7689;font:9px Inter,sans-serif">D · cyclosporine</text>
                    <line x1="276" y1="61" x2="385" y2="61" stroke="#d14859" stroke-width="1" opacity="0.85"></line>
                    <text x="405" y="65" style="fill:#6b7689;font:9px Inter,sans-serif">E · washed</text>
                    <line x1="401" y1="61" x2="475" y2="61" stroke="#d14859" stroke-width="1" opacity="0.85"></line>
                  </g>

                  <g transform="translate(250 215)">
                    <rect x="-235" y="-22" width="470" height="44" rx="10" fill="#e8a951" fill-opacity="0.42" stroke="#e8a951" stroke-width="2.6"></rect>
                    <text x="0" y="0" text-anchor="middle" style="fill:#e8a951;font:700 11px Inter,sans-serif;letter-spacing:1.5px">C · GAMMA IRRADIATION OF BLOOD</text>
                    <text x="0" y="14" text-anchor="middle" style="fill:#e8a951;font:600 9px Inter,sans-serif;letter-spacing:1.5px">prevents transfusion-associated GVHD</text>
                  </g>

                  <text x="250" y="245" text-anchor="middle" style="fill:#e8a951;font:italic 600 7.5px Fraunces,serif">SCID + non-irradiated blood = TA-GVHD · always irradiate for severely T-cell-deficient hosts</text>

                  <!-- FOCUS · audio-aligned attention marker -->
                  <circle cx="250" cy="224" r="40" fill="none" stroke="#d14859" stroke-width="1.8" stroke-dasharray="3 2" opacity="0.85">
                    <animate attributeName="r" values="36;46;36" dur="2.4s" repeatCount="indefinite"/>
                    <animate attributeName="opacity" values="0.85;0.20;0.85" dur="2.4s" repeatCount="indefinite"/>
                  </circle>

                  <!-- FOCUS · audio-aligned attention marker -->
                  <circle cx="250" cy="210" r="40" fill="none" stroke="#d14859" stroke-width="1.8" stroke-dasharray="3 2" opacity="0.85">
                    <animate attributeName="r" values="36;46;36" dur="2.4s" repeatCount="indefinite"/>
                    <animate attributeName="opacity" values="0.85;0.20;0.85" dur="2.4s" repeatCount="indefinite"/>
                  </circle>
</svg>
