<?xml version="1.0" encoding="UTF-8"?>
<!--
  Auto-generated from the reference HTML by
  scripts/storymode-extraction/extract.mjs.
  Do not edit by hand — regenerate the file instead.
-->
<svg xmlns="http://www.w3.org/2000/svg" xmlns:xlink="http://www.w3.org/1999/xlink" viewBox="0 0 500 260" preserveAspectRatio="xMidYMid meet">
<text x="20" y="16" style="fill:#e8a951;font:600 9px Inter,sans-serif;letter-spacing:2px">STEP 04 · PT 2 · anti-VGCC · PRESYNAPTIC Ca²⁺ BLOCKER</text><g>
    <rect x="20" y="30" width="220" height="14" rx="7" fill="rgba(232, 169, 81, 0.18)" stroke="#e8a951" stroke-width="1"/>
    <text x="130" y="40" text-anchor="middle" style="fill:#e8a951;font:700 7.5px Inter,sans-serif;letter-spacing:1.2px">TYPE II · RECEPTOR-TARGETED Ab</text>
  </g><g opacity="0.35">
    <text x="100" y="58" text-anchor="middle" style="fill:#6b7689;font:600 6.5px 'JetBrains Mono',monospace;letter-spacing:1.2px">PATIENT 1</text>
    <text x="100" y="70" text-anchor="middle" style="fill:#3a4358;font:700 8.5px Inter,sans-serif;letter-spacing:1px">MG</text>
  </g><g opacity="1">
    <text x="252" y="58" text-anchor="middle" style="fill:#6b7689;font:600 6.5px 'JetBrains Mono',monospace;letter-spacing:1.2px">PATIENT 2</text>
    <text x="252" y="70" text-anchor="middle" style="fill:#e8a951;font:700 8.5px Inter,sans-serif;letter-spacing:1px">LEMS</text>
  </g><g opacity="0.35">
    <text x="405" y="58" text-anchor="middle" style="fill:#6b7689;font:600 6.5px 'JetBrains Mono',monospace;letter-spacing:1.2px">PATIENT 3</text>
    <text x="405" y="70" text-anchor="middle" style="fill:#3a4358;font:700 8.5px Inter,sans-serif;letter-spacing:1px">?</text>
  </g><g opacity="1"><g transform="translate(100 88)">
    <circle cx="0" cy="0" r="9" fill="#b4becf" fill-opacity="0.10" stroke="#b4becf" stroke-width="1.2"/>
    <!-- Droopy eyelid (ptosis) - half-closed eye -->
    <ellipse cx="-3" cy="-1" rx="2" ry="0.6" fill="#d14859" opacity="0.9"/>
    <ellipse cx="3" cy="-1" rx="2" ry="0.6" fill="#d14859" opacity="0.9"/>
    <!-- mouth flat -->
    <line x1="-3" y1="4" x2="3" y2="4" stroke="#b4becf" stroke-width="0.8" opacity="0.6"/>
  </g>
  <!-- Symptom tag below face -->
  <text x="100" y="108" text-anchor="middle" style="fill:#d14859;font:600 7px Inter,sans-serif;letter-spacing:0.5px">fatigable ptosis</text>
  <text x="100" y="118" text-anchor="middle" style="fill:#6b7689;font:italic 6.5px Fraunces,serif">+ diplopia + dysphagia</text><g>
      <ellipse cx="100" cy="131" rx="22" ry="6" fill="#b4becf" fill-opacity="0.15" stroke="#b4becf" stroke-width="0.9"/>
      <!-- ACh release as small dots between -->
      <circle cx="92" cy="139" r="1" fill="#4fb8a8" opacity="0.85"/>
      <circle cx="105" cy="138" r="1" fill="#4fb8a8" opacity="0.85"/>
      <circle cx="98" cy="141" r="1" fill="#4fb8a8" opacity="0.85"/>
    </g><line x1="70" y1="145" x2="130" y2="145" stroke="#b4becf" stroke-width="1.2"/><rect x="75.5" y="145" width="5" height="6" rx="1" fill="#6b7689" opacity="0.75" stroke="#6b7689" stroke-width="0.7"/><rect x="89.5" y="145" width="5" height="6" rx="1" fill="#6b7689" opacity="0.75" stroke="#6b7689" stroke-width="0.7"/><rect x="103.5" y="145" width="5" height="6" rx="1" fill="#6b7689" opacity="0.75" stroke="#6b7689" stroke-width="0.7"/><rect x="117.5" y="145" width="5" height="6" rx="1" fill="#6b7689" opacity="0.75" stroke="#6b7689" stroke-width="0.7"/><g transform="translate(78 151)">
          <line x1="0" y1="0" x2="0" y2="3" stroke="#9370b9" stroke-width="1.4"/>
          <line x1="0" y1="3" x2="-3" y2="6" stroke="#9370b9" stroke-width="1.4"/>
          <line x1="0" y1="3" x2="3" y2="6" stroke="#9370b9" stroke-width="1.4"/>
        </g><g transform="translate(92 151)">
          <line x1="0" y1="0" x2="0" y2="3" stroke="#9370b9" stroke-width="1.4"/>
          <line x1="0" y1="3" x2="-3" y2="6" stroke="#9370b9" stroke-width="1.4"/>
          <line x1="0" y1="3" x2="3" y2="6" stroke="#9370b9" stroke-width="1.4"/>
        </g><g transform="translate(106 151)">
          <line x1="0" y1="0" x2="0" y2="3" stroke="#9370b9" stroke-width="1.4"/>
          <line x1="0" y1="3" x2="-3" y2="6" stroke="#9370b9" stroke-width="1.4"/>
          <line x1="0" y1="3" x2="3" y2="6" stroke="#9370b9" stroke-width="1.4"/>
        </g><g transform="translate(120 151)">
          <line x1="0" y1="0" x2="0" y2="3" stroke="#9370b9" stroke-width="1.4"/>
          <line x1="0" y1="3" x2="-3" y2="6" stroke="#9370b9" stroke-width="1.4"/>
          <line x1="0" y1="3" x2="3" y2="6" stroke="#9370b9" stroke-width="1.4"/>
        </g><text x="100" y="167" text-anchor="middle" style="fill:#9370b9;font:700 7px Inter,sans-serif;letter-spacing:0.5px">anti-AChR</text><text x="100" y="176" text-anchor="middle" style="fill:#6b7689;font:italic 6.5px Fraunces,serif">blocks postsynaptic</text></g><g opacity="1"><g transform="translate(252 88)">
    <!-- chest with SCLC indicator -->
    <rect x="-12" y="-9" width="24" height="18" rx="3" fill="#b4becf" fill-opacity="0.10" stroke="#b4becf" stroke-width="1"/>
    <!-- SCLC tumor mass -->
    <circle cx="-3" cy="-2" r="3" fill="#d14859" opacity="0.7"/>
    <text x="9" y="2" style="fill:#d14859;font:700 6px Inter,sans-serif;letter-spacing:0.5px">SCLC</text>
  </g>
  <!-- Symptom tag -->
  <text x="252" y="108" text-anchor="middle" style="fill:#d14859;font:600 7px Inter,sans-serif;letter-spacing:0.5px">prox weakness</text>
  <text x="252" y="118" text-anchor="middle" style="fill:#4fb8a8;font:italic 6.5px Fraunces,serif">↑ with use ← key</text><g>
      <ellipse cx="252" cy="140" rx="26" ry="9" fill="#b4becf" fill-opacity="0.15" stroke="#b4becf" stroke-width="0.9"/>
    </g><rect x="231.5" y="145" width="5" height="5" rx="1" fill="#6b7689" opacity="0.85" stroke="#6b7689" stroke-width="0.6"/><rect x="243.5" y="145" width="5" height="5" rx="1" fill="#6b7689" opacity="0.85" stroke="#6b7689" stroke-width="0.6"/><rect x="255.5" y="145" width="5" height="5" rx="1" fill="#6b7689" opacity="0.85" stroke="#6b7689" stroke-width="0.6"/><rect x="267.5" y="145" width="5" height="5" rx="1" fill="#6b7689" opacity="0.85" stroke="#6b7689" stroke-width="0.6"/><line x1="222" y1="163" x2="282" y2="163" stroke="#b4becf" stroke-width="1.2"/><g transform="translate(234 140)">
          <line x1="0" y1="0" x2="0" y2="-3" stroke="#9370b9" stroke-width="1.4"/>
          <line x1="0" y1="-3" x2="-3" y2="-6" stroke="#9370b9" stroke-width="1.4"/>
          <line x1="0" y1="-3" x2="3" y2="-6" stroke="#9370b9" stroke-width="1.4"/>
        </g><g transform="translate(246 140)">
          <line x1="0" y1="0" x2="0" y2="-3" stroke="#9370b9" stroke-width="1.4"/>
          <line x1="0" y1="-3" x2="-3" y2="-6" stroke="#9370b9" stroke-width="1.4"/>
          <line x1="0" y1="-3" x2="3" y2="-6" stroke="#9370b9" stroke-width="1.4"/>
        </g><g transform="translate(258 140)">
          <line x1="0" y1="0" x2="0" y2="-3" stroke="#9370b9" stroke-width="1.4"/>
          <line x1="0" y1="-3" x2="-3" y2="-6" stroke="#9370b9" stroke-width="1.4"/>
          <line x1="0" y1="-3" x2="3" y2="-6" stroke="#9370b9" stroke-width="1.4"/>
        </g><g transform="translate(270 140)">
          <line x1="0" y1="0" x2="0" y2="-3" stroke="#9370b9" stroke-width="1.4"/>
          <line x1="0" y1="-3" x2="-3" y2="-6" stroke="#9370b9" stroke-width="1.4"/>
          <line x1="0" y1="-3" x2="3" y2="-6" stroke="#9370b9" stroke-width="1.4"/>
        </g><circle cx="252" cy="156" r="1" fill="#4fb8a8" opacity="0.5"/><text x="252" y="177" text-anchor="middle" style="fill:#9370b9;font:700 7px Inter,sans-serif;letter-spacing:0.5px">anti-VGCC</text><text x="252" y="186" text-anchor="middle" style="fill:#6b7689;font:italic 6.5px Fraunces,serif">↓ Ca²⁺ → ↓ ACh release</text><rect x="180" y="50" width="145" height="148" rx="6" fill="none" stroke="#e8a951" stroke-width="1.4" stroke-dasharray="3 2" opacity="0.7"/></g>

                  <!-- FOCUS · audio-aligned attention marker -->
                  <circle cx="100" cy="162" r="20" fill="none" stroke="#d14859" stroke-width="1.8" stroke-dasharray="3 2" opacity="0.85">
                    <animate attributeName="r" values="16;26;16" dur="2.4s" repeatCount="indefinite"/>
                    <animate attributeName="opacity" values="0.85;0.20;0.85" dur="2.4s" repeatCount="indefinite"/>
                  </circle>

                  <!-- FOCUS · audio-aligned attention marker -->
                  <circle cx="252" cy="172" r="20" fill="none" stroke="#d14859" stroke-width="1.8" stroke-dasharray="3 2" opacity="0.85">
                    <animate attributeName="r" values="16;26;16" dur="2.4s" repeatCount="indefinite"/>
                    <animate attributeName="opacity" values="0.85;0.20;0.85" dur="2.4s" repeatCount="indefinite"/>
                  </circle>
</svg>
