<?xml version="1.0" encoding="UTF-8"?>
<!--
  Auto-generated from the reference HTML by
  scripts/storymode-extraction/extract.mjs.
  Do not edit by hand — regenerate the file instead.
-->
<svg xmlns="http://www.w3.org/2000/svg" xmlns:xlink="http://www.w3.org/1999/xlink" viewBox="0 0 500 260" preserveAspectRatio="xMidYMid meet">
<text x="20" y="16" style="fill:#e8a951;font:600 9px Inter,sans-serif;letter-spacing:2px">STEP 01 · DERMATOMAL VESICLES + PRIOR VARICELLA = ZOSTER</text>

<!-- Patient torso with T5 dermatome -->
<g transform="translate(150 130)">
  <!-- Torso silhouette -->
  <path d="M -50 -60 Q -55 -30 -55 0 L -55 60 L 55 60 L 55 0 Q 55 -30 50 -60 Z" 
        fill="rgba(232,169,81,0.06)" stroke="#3a4358" stroke-width="1"/>
  <!-- Spine -->
  <line x1="0" y1="-60" x2="0" y2="60" stroke="#3a4358" stroke-width="0.6" stroke-dasharray="2 2"/>
  
  <!-- T5 dermatome — only one side -->
  <g fill="#d14859" opacity="0.85">
    <circle cx="-15" cy="-30" r="2.5"/>
    <circle cx="-22" cy="-25" r="2.5"/>
    <circle cx="-30" cy="-25" r="2.5"/>
    <circle cx="-38" cy="-22" r="2.5"/>
    <circle cx="-45" cy="-20" r="2.5"/>
    <circle cx="-50" cy="-25" r="2.5"/>
    <circle cx="-25" cy="-32" r="2.5"/>
    <circle cx="-32" cy="-30" r="2.5"/>
    <circle cx="-40" cy="-28" r="2.5"/>
    <circle cx="-18" cy="-26" r="2.5"/>
  </g>
  
  <!-- Midline marker -->
  <text x="0" y="-66" text-anchor="middle" style="fill:#6b7689;font:italic 7px Fraunces,serif">midline</text>
  <text x="-30" y="-46" text-anchor="middle" style="fill:#d14859;font:700 8px Inter,sans-serif">T5</text>
</g>

<text x="280" y="80" style="fill:#d14859;font:700 8px Inter,sans-serif;letter-spacing:1px">UNILATERAL · DERMATOMAL</text>
<text x="280" y="95" style="fill:#b4becf;font:7.5px Inter,sans-serif">does not cross midline</text>

<text x="280" y="125" style="fill:#d14859;font:700 8px Inter,sans-serif;letter-spacing:1px">PAINFUL VESICLES</text>
<text x="280" y="140" style="fill:#b4becf;font:7.5px Inter,sans-serif">on erythematous base</text>

<text x="280" y="170" style="fill:#d14859;font:700 8px Inter,sans-serif;letter-spacing:1px">TZANCK +</text>
<text x="280" y="185" style="fill:#b4becf;font:7.5px Inter,sans-serif">multinucleated giant cells</text>

<g transform="translate(280 220)">
  <rect x="0" y="0" width="180" height="22" rx="4" fill="rgba(232,169,81,0.18)" stroke="#e8a951" stroke-width="1.4"/>
  <text x="90" y="14" text-anchor="middle" style="fill:#e8a951;font:700 9px Inter,sans-serif;letter-spacing:1.2px">= VZV REACTIVATION</text>
</g>

                  <!-- FOCUS · audio-aligned attention marker -->
                  <circle cx="280" cy="180" r="39" fill="none" stroke="#d14859" stroke-width="1.8" stroke-dasharray="3 2" opacity="0.85">
                    <animate attributeName="r" values="35;45;35" dur="2.4s" repeatCount="indefinite"/>
                    <animate attributeName="opacity" values="0.85;0.20;0.85" dur="2.4s" repeatCount="indefinite"/>
                  </circle>
</svg>
