<?xml version="1.0" encoding="UTF-8"?>
<!--
  Auto-generated from the reference HTML by
  scripts/storymode-extraction/extract.mjs.
  Do not edit by hand — regenerate the file instead.
-->
<svg xmlns="http://www.w3.org/2000/svg" xmlns:xlink="http://www.w3.org/1999/xlink" viewBox="0 0 500 260" preserveAspectRatio="xMidYMid meet">
<text x="20" y="16" style="fill:#e8a951;font:600 9px Inter,sans-serif;letter-spacing:2px">STEP 04 · CLASSICAL PATHWAY · C3/C4 CONSUMED</text>

<!-- Deposit on left with C1q docking -->
<g transform="translate(120 145)">
  <text x="0" y="-78" text-anchor="middle" style="fill:#e8a951;font:700 8.5px Inter,sans-serif;letter-spacing:1.2px">DEPOSIT + C1q</text>
  
  <!-- IgG cluster (the deposit) -->
  <ellipse cx="0" cy="10" rx="55" ry="25" fill="rgba(232,169,81,0.30)" stroke="#e8a951" stroke-width="1.4"/>
  <g stroke="#e8a951" stroke-width="2" fill="none" stroke-linecap="round">
    <g transform="translate(-25 5)">
      <line x1="0" y1="0" x2="0" y2="10"/>
      <line x1="-5" y1="-5" x2="0" y2="0"/>
      <line x1="5" y1="-5" x2="0" y2="0"/>
    </g>
    <g transform="translate(0 12)">
      <line x1="0" y1="0" x2="0" y2="10"/>
      <line x1="-5" y1="-5" x2="0" y2="0"/>
      <line x1="5" y1="-5" x2="0" y2="0"/>
    </g>
    <g transform="translate(25 5)">
      <line x1="0" y1="0" x2="0" y2="10"/>
      <line x1="-5" y1="-5" x2="0" y2="0"/>
      <line x1="5" y1="-5" x2="0" y2="0"/>
    </g>
  </g>
  
  <!-- C1q dock (umbrella shape) -->
  <g transform="translate(0 -15)">
    <!-- Stalks -->
    <line x1="-15" y1="0" x2="-12" y2="14" stroke="#9370b9" stroke-width="2"/>
    <line x1="-7" y1="0" x2="-6" y2="14" stroke="#9370b9" stroke-width="2"/>
    <line x1="0" y1="0" x2="0" y2="14" stroke="#9370b9" stroke-width="2"/>
    <line x1="7" y1="0" x2="6" y2="14" stroke="#9370b9" stroke-width="2"/>
    <line x1="15" y1="0" x2="12" y2="14" stroke="#9370b9" stroke-width="2"/>
    <!-- Heads -->
    <circle cx="-15" cy="-3" r="4" fill="rgba(147,112,185,0.85)" stroke="#9370b9" stroke-width="1"/>
    <circle cx="-7" cy="-3" r="4" fill="rgba(147,112,185,0.85)" stroke="#9370b9" stroke-width="1"/>
    <circle cx="0" cy="-3" r="4" fill="rgba(147,112,185,0.85)" stroke="#9370b9" stroke-width="1"/>
    <circle cx="7" cy="-3" r="4" fill="rgba(147,112,185,0.85)" stroke="#9370b9" stroke-width="1"/>
    <circle cx="15" cy="-3" r="4" fill="rgba(147,112,185,0.85)" stroke="#9370b9" stroke-width="1"/>
    <text x="25" y="0" style="fill:#9370b9;font:700 7px 'JetBrains Mono',monospace">C1q</text>
  </g>
</g>

<!-- Cascade arrow → -->
<g stroke="#e8a951" stroke-width="2.4" fill="none" marker-end="url(#arr11_5_4a)">
  <line x1="190" y1="145" x2="240" y2="145"/>
</g>
<defs>
  <marker id="arr11_5_4a" viewBox="0 0 10 10" refX="9" refY="5" markerWidth="7" markerHeight="7" orient="auto">
    <path d="M 0 0 L 10 5 L 0 10 z" fill="#e8a951"/>
  </marker>
</defs>
<text x="215" y="135" text-anchor="middle" style="fill:#e8a951;font:700 7px Inter,sans-serif;letter-spacing:1.2px">CASCADE</text>

<!-- C3/C4 cleavage on right -->
<g transform="translate(330 145)">
  <text x="0" y="-78" text-anchor="middle" style="fill:#9370b9;font:700 8.5px Inter,sans-serif;letter-spacing:1.2px">C3 + C4 CLEAVED</text>
  
  <!-- C4 cleavage -->
  <g transform="translate(-50 -20)">
    <rect x="-22" y="-10" width="44" height="20" rx="3" fill="rgba(147,112,185,0.85)"/>
    <text x="0" y="3" text-anchor="middle" style="fill:#0a0e1a;font:700 9px Inter,sans-serif">C4</text>
    <line x1="0" y1="0" x2="0" y2="0"/>
  </g>
  <!-- Arrow → -->
  <line x1="-25" y1="-20" x2="-5" y2="-20" stroke="#d14859" stroke-width="1.6" marker-end="url(#arr11_5_4a)"/>
  <g transform="translate(20 -20)">
    <rect x="-15" y="-8" width="14" height="16" rx="2" fill="rgba(147,112,185,0.55)"/>
    <text x="-8" y="3" text-anchor="middle" style="fill:#0a0e1a;font:700 6.5px Inter,sans-serif">C4a</text>
    <rect x="2" y="-8" width="14" height="16" rx="2" fill="rgba(147,112,185,0.85)"/>
    <text x="9" y="3" text-anchor="middle" style="fill:#0a0e1a;font:700 6.5px Inter,sans-serif">C4b</text>
  </g>
  
  <!-- C3 cleavage -->
  <g transform="translate(-50 20)">
    <rect x="-22" y="-10" width="44" height="20" rx="3" fill="rgba(209,72,89,0.85)"/>
    <text x="0" y="3" text-anchor="middle" style="fill:#0a0e1a;font:700 9px Inter,sans-serif">C3</text>
  </g>
  <line x1="-25" y1="20" x2="-5" y2="20" stroke="#d14859" stroke-width="1.6" marker-end="url(#arr11_5_4a)"/>
  <g transform="translate(20 20)">
    <rect x="-15" y="-8" width="14" height="16" rx="2" fill="rgba(209,72,89,0.55)"/>
    <text x="-8" y="3" text-anchor="middle" style="fill:#0a0e1a;font:700 6.5px Inter,sans-serif">C3a</text>
    <rect x="2" y="-8" width="14" height="16" rx="2" fill="rgba(209,72,89,0.85)"/>
    <text x="9" y="3" text-anchor="middle" style="fill:#0a0e1a;font:700 6.5px Inter,sans-serif">C3b</text>
  </g>
</g>

<!-- Lab finding banner on far right -->
<g transform="translate(440 145)">
  <rect x="-45" y="-32" width="90" height="64" rx="8" fill="rgba(209,72,89,0.25)" stroke="#d14859" stroke-width="1.8"/>
  <text x="0" y="-12" text-anchor="middle" style="fill:#d14859;font:700 12px Inter,sans-serif;letter-spacing:1.5px">↓ C3</text>
  <text x="0" y="6" text-anchor="middle" style="fill:#d14859;font:700 12px Inter,sans-serif;letter-spacing:1.5px">↓ C4</text>
  <text x="0" y="22" text-anchor="middle" style="fill:#b4becf;font:italic 7px Fraunces,serif">in serum</text>
</g>

<text x="250" y="245" text-anchor="middle" style="fill:#6b7689;font:italic 7.5px Fraunces,serif">C1q binds IgG Fc · cascade fires · C3/C4 consumed = useful activity marker</text>

                  <!-- FOCUS · audio-aligned attention marker -->
                  <circle cx="330" cy="62" r="22" fill="none" stroke="#d14859" stroke-width="1.8" stroke-dasharray="3 2" opacity="0.85">
                    <animate attributeName="r" values="18;28;18" dur="2.4s" repeatCount="indefinite"/>
                    <animate attributeName="opacity" values="0.85;0.20;0.85" dur="2.4s" repeatCount="indefinite"/>
                  </circle>

                  <!-- FOCUS · audio-aligned attention marker -->
                  <circle cx="120" cy="62" r="20" fill="none" stroke="#d14859" stroke-width="1.8" stroke-dasharray="3 2" opacity="0.85">
                    <animate attributeName="r" values="16;26;16" dur="2.4s" repeatCount="indefinite"/>
                    <animate attributeName="opacity" values="0.85;0.20;0.85" dur="2.4s" repeatCount="indefinite"/>
                  </circle>

                  <!-- FOCUS · audio-aligned attention marker -->
                  <circle cx="440" cy="162" r="20" fill="none" stroke="#d14859" stroke-width="1.8" stroke-dasharray="3 2" opacity="0.85">
                    <animate attributeName="r" values="16;26;16" dur="2.4s" repeatCount="indefinite"/>
                    <animate attributeName="opacity" values="0.85;0.20;0.85" dur="2.4s" repeatCount="indefinite"/>
                  </circle>
              </svg>
