<?xml version="1.0" encoding="UTF-8"?>
<!--
  Auto-generated from the reference HTML by
  scripts/storymode-extraction/extract.mjs.
  Do not edit by hand — regenerate the file instead.
-->
<svg xmlns="http://www.w3.org/2000/svg" xmlns:xlink="http://www.w3.org/1999/xlink" viewBox="0 0 500 260" preserveAspectRatio="xMidYMid meet">
<text x="20" y="16" style="fill:#e8a951;font:600 9px Inter,sans-serif;letter-spacing:2px">STEP 06 · OFF-TARGET · MARROW + mtDNA</text>

<!-- Bone marrow on left -->
<g transform="translate(135 145)">
  <text x="0" y="-90" text-anchor="middle" style="fill:#d14859;font:700 9px Inter,sans-serif;letter-spacing:1.5px">BONE MARROW HIT</text>
  
  <!-- Femur with marrow cavity -->
  <g transform="translate(0 0)">
    <!-- Bone -->
    <ellipse cx="0" cy="-30" rx="22" ry="13" fill="rgba(180,190,207,0.30)" stroke="#b4becf" stroke-width="1.2"/>
    <rect x="-13" y="-30" width="26" height="55" fill="rgba(180,190,207,0.30)" stroke="#b4becf" stroke-width="1.2"/>
    <ellipse cx="0" cy="25" rx="22" ry="13" fill="rgba(180,190,207,0.30)" stroke="#b4becf" stroke-width="1.2"/>
    <!-- Marrow cavity -->
    <rect x="-9" y="-28" width="18" height="50" fill="rgba(209,72,89,0.30)" stroke="#d14859" stroke-width="1"/>
    <!-- Affected RBC precursors (with X) -->
    <g>
      <circle cx="-3" cy="-15" r="3" fill="rgba(209,72,89,0.85)"/>
      <circle cx="3" cy="-5" r="3" fill="rgba(209,72,89,0.85)"/>
      <circle cx="-3" cy="5" r="3" fill="rgba(209,72,89,0.85)"/>
      <circle cx="3" cy="15" r="3" fill="rgba(209,72,89,0.85)"/>
    </g>
    <line x1="-12" y1="-25" x2="12" y2="22" stroke="#d14859" stroke-width="2" stroke-linecap="round"/>
    <line x1="-12" y1="22" x2="12" y2="-25" stroke="#d14859" stroke-width="2" stroke-linecap="round"/>
  </g>
</g>

<!-- Mitochondria on right -->
<g transform="translate(365 145)">
  <text x="0" y="-90" text-anchor="middle" style="fill:#9370b9;font:700 9px Inter,sans-serif;letter-spacing:1.5px">mtDNA Pol γ HIT</text>
  
  <!-- Mitochondrion shape -->
  <ellipse cx="0" cy="0" rx="40" ry="22" fill="rgba(147,112,185,0.30)" stroke="#9370b9" stroke-width="1.6"/>
  <!-- Cristae -->
  <g stroke="#9370b9" stroke-width="1" fill="none">
    <path d="M -30 -8 Q -25 -2 -20 -8"/>
    <path d="M -10 -8 Q -5 -2 0 -8"/>
    <path d="M 10 -8 Q 15 -2 20 -8"/>
    <path d="M -30 8 Q -25 2 -20 8"/>
    <path d="M -10 8 Q -5 2 0 8"/>
    <path d="M 10 8 Q 15 2 20 8"/>
  </g>
  <!-- mtDNA inside (small circle) -->
  <circle cx="0" cy="0" r="6" fill="none" stroke="#d14859" stroke-width="1.4"/>
  <text x="0" y="3" text-anchor="middle" style="fill:#d14859;font:700 6px Inter,sans-serif">mtDNA</text>
</g>

<!-- Toxicities at bottom -->
<g transform="translate(140 215)">
  <rect x="-65" y="-13" width="130" height="26" rx="6" fill="rgba(209,72,89,0.25)" stroke="#d14859" stroke-width="1.4"/>
  <text x="0" y="3" text-anchor="middle" style="fill:#d14859;font:700 8px Inter,sans-serif;letter-spacing:1.2px">ANEMIA · NEUTROPENIA</text>
</g>
<g transform="translate(355 215)">
  <rect x="-65" y="-13" width="130" height="26" rx="6" fill="rgba(147,112,185,0.25)" stroke="#9370b9" stroke-width="1.4"/>
  <text x="0" y="3" text-anchor="middle" style="fill:#9370b9;font:700 8px Inter,sans-serif;letter-spacing:1.2px">LACTIC ACIDOSIS</text>
</g>

<text x="250" y="245" text-anchor="middle" style="fill:#6b7689;font:italic 7.5px Fraunces,serif">Selectivity imperfect · AZT classically causes anemia (often macrocytic)</text>

                  <!-- FOCUS · audio-aligned attention marker -->
                  <circle cx="140" cy="213" r="30" fill="none" stroke="#d14859" stroke-width="1.8" stroke-dasharray="3 2" opacity="0.85">
                    <animate attributeName="r" values="26;36;26" dur="2.4s" repeatCount="indefinite"/>
                    <animate attributeName="opacity" values="0.85;0.20;0.85" dur="2.4s" repeatCount="indefinite"/>
                  </circle>

                  <!-- FOCUS · audio-aligned attention marker -->
                  <circle cx="135" cy="50" r="22" fill="none" stroke="#d14859" stroke-width="1.8" stroke-dasharray="3 2" opacity="0.85">
                    <animate attributeName="r" values="18;28;18" dur="2.4s" repeatCount="indefinite"/>
                    <animate attributeName="opacity" values="0.85;0.20;0.85" dur="2.4s" repeatCount="indefinite"/>
                  </circle>

                  <!-- FOCUS · audio-aligned attention marker -->
                  <circle cx="365" cy="50" r="22" fill="none" stroke="#d14859" stroke-width="1.8" stroke-dasharray="3 2" opacity="0.85">
                    <animate attributeName="r" values="18;28;18" dur="2.4s" repeatCount="indefinite"/>
                    <animate attributeName="opacity" values="0.85;0.20;0.85" dur="2.4s" repeatCount="indefinite"/>
                  </circle>
              </svg>
