<?xml version="1.0" encoding="UTF-8"?>
<!--
  Auto-generated from the reference HTML by
  scripts/storymode-extraction/extract.mjs.
  Do not edit by hand — regenerate the file instead.
-->
<svg xmlns="http://www.w3.org/2000/svg" xmlns:xlink="http://www.w3.org/1999/xlink" viewBox="0 0 500 260" preserveAspectRatio="xMidYMid meet">
                  <text x="20" y="16" style="fill:#e8a951;font:600 9px Inter,sans-serif;letter-spacing:2px">STEP 04 · RhoGAM · PRE-FORMED ANTI-D WITHIN 72h</text>

                  <!-- Maternal circulation zone -->
                  <rect x="40" y="80" width="420" height="135" rx="6" fill="#9370b9" fill-opacity="0.10" stroke="#9370b9" stroke-width="1.4" stroke-dasharray="3 2"></rect>
                  <text x="50" y="98" style="fill:#9370b9;font:600 8px Inter,sans-serif;letter-spacing:1.5px">MATERNAL CIRCULATION</text>

                  <!-- Syringe entering with RhoGAM -->
                  <g transform="translate(60 150)">
                    <rect x="-12" y="-3" width="24" height="6" rx="1" fill="#e8a951" fill-opacity="0.85" stroke="#e8a951" stroke-width="1"></rect>
                    <line x1="12" y1="0" x2="28" y2="0" stroke="#b4becf" stroke-width="1.4"></line>
                    <text x="0" y="-10" text-anchor="middle" style="fill:#e8a951;font:700 7px Inter,sans-serif;letter-spacing:1.5px">RhoGAM</text>
                    <text x="0" y="20" text-anchor="middle" style="fill:#b4becf;font:italic 6px Fraunces,serif">within 72h</text>
                  </g>

                  <!-- Fetal Rh+ RBCs with anti-D bound (opsonized) -->
                  <g transform="translate(180 140)" opacity="1"><ellipse cx="0" cy="0" rx="14" ry="9" fill="#d14859" fill-opacity="0.85" stroke="#d14859" stroke-width="1"></ellipse><ellipse cx="0" cy="0" rx="5.88" ry="3.78" fill="#1a2030" opacity="0.85"></ellipse><text x="0" y="18" text-anchor="middle" style="fill:#d14859;font:700 6px Inter,sans-serif;letter-spacing:1px">Rh+</text><g stroke="#e8a951" stroke-width="1.4" fill="none" stroke-linecap="round"><g transform="translate(0 -13)"><path d="M -4 4 L 0 0 L 0 -4"></path><path d="M 0 -4 L 4 0"></path></g><g transform="translate(18 0) rotate(90)"><path d="M -4 4 L 0 0 L 0 -4"></path><path d="M 0 -4 L 4 0"></path></g><g transform="translate(0 13) rotate(180)"><path d="M -4 4 L 0 0 L 0 -4"></path><path d="M 0 -4 L 4 0"></path></g><g transform="translate(-18 0) rotate(270)"><path d="M -4 4 L 0 0 L 0 -4"></path><path d="M 0 -4 L 4 0"></path></g></g></g>
                  <g transform="translate(240 155)" opacity="1"><ellipse cx="0" cy="0" rx="14" ry="9" fill="#d14859" fill-opacity="0.85" stroke="#d14859" stroke-width="1"></ellipse><ellipse cx="0" cy="0" rx="5.88" ry="3.78" fill="#1a2030" opacity="0.85"></ellipse><text x="0" y="18" text-anchor="middle" style="fill:#d14859;font:700 6px Inter,sans-serif;letter-spacing:1px">Rh+</text><g stroke="#e8a951" stroke-width="1.4" fill="none" stroke-linecap="round"><g transform="translate(0 -13)"><path d="M -4 4 L 0 0 L 0 -4"></path><path d="M 0 -4 L 4 0"></path></g><g transform="translate(18 0) rotate(90)"><path d="M -4 4 L 0 0 L 0 -4"></path><path d="M 0 -4 L 4 0"></path></g><g transform="translate(0 13) rotate(180)"><path d="M -4 4 L 0 0 L 0 -4"></path><path d="M 0 -4 L 4 0"></path></g><g transform="translate(-18 0) rotate(270)"><path d="M -4 4 L 0 0 L 0 -4"></path><path d="M 0 -4 L 4 0"></path></g></g></g>
                  <g transform="translate(300 140)" opacity="1"><ellipse cx="0" cy="0" rx="14" ry="9" fill="#d14859" fill-opacity="0.85" stroke="#d14859" stroke-width="1"></ellipse><ellipse cx="0" cy="0" rx="5.88" ry="3.78" fill="#1a2030" opacity="0.85"></ellipse><text x="0" y="18" text-anchor="middle" style="fill:#d14859;font:700 6px Inter,sans-serif;letter-spacing:1px">Rh+</text><g stroke="#e8a951" stroke-width="1.4" fill="none" stroke-linecap="round"><g transform="translate(0 -13)"><path d="M -4 4 L 0 0 L 0 -4"></path><path d="M 0 -4 L 4 0"></path></g><g transform="translate(18 0) rotate(90)"><path d="M -4 4 L 0 0 L 0 -4"></path><path d="M 0 -4 L 4 0"></path></g><g transform="translate(0 13) rotate(180)"><path d="M -4 4 L 0 0 L 0 -4"></path><path d="M 0 -4 L 4 0"></path></g><g transform="translate(-18 0) rotate(270)"><path d="M -4 4 L 0 0 L 0 -4"></path><path d="M 0 -4 L 4 0"></path></g></g></g>
                  <g transform="translate(360 155)" opacity="1"><ellipse cx="0" cy="0" rx="14" ry="9" fill="#d14859" fill-opacity="0.85" stroke="#d14859" stroke-width="1"></ellipse><ellipse cx="0" cy="0" rx="5.88" ry="3.78" fill="#1a2030" opacity="0.85"></ellipse><text x="0" y="18" text-anchor="middle" style="fill:#d14859;font:700 6px Inter,sans-serif;letter-spacing:1px">Rh+</text><g stroke="#e8a951" stroke-width="1.4" fill="none" stroke-linecap="round"><g transform="translate(0 -13)"><path d="M -4 4 L 0 0 L 0 -4"></path><path d="M 0 -4 L 4 0"></path></g><g transform="translate(18 0) rotate(90)"><path d="M -4 4 L 0 0 L 0 -4"></path><path d="M 0 -4 L 4 0"></path></g><g transform="translate(0 13) rotate(180)"><path d="M -4 4 L 0 0 L 0 -4"></path><path d="M 0 -4 L 4 0"></path></g><g transform="translate(-18 0) rotate(270)"><path d="M -4 4 L 0 0 L 0 -4"></path><path d="M 0 -4 L 4 0"></path></g></g></g>

                  <!-- Free anti-D Y in circulation around -->
                  <g transform="translate(160 110) scale(1.1)" opacity="1"><g stroke="#e8a951" stroke-width="2" fill="none" stroke-linecap="round"><path d="M -7 -6 L -2 0 L 2 0 L 7 -6"></path><line x1="0" y1="0" x2="0" y2="9"></line></g></g>
                  <g transform="translate(220 105) scale(1.1)" opacity="1"><g stroke="#e8a951" stroke-width="2" fill="none" stroke-linecap="round"><path d="M -7 -6 L -2 0 L 2 0 L 7 -6"></path><line x1="0" y1="0" x2="0" y2="9"></line></g></g>
                  <g transform="translate(280 110) scale(1.1)" opacity="1"><g stroke="#e8a951" stroke-width="2" fill="none" stroke-linecap="round"><path d="M -7 -6 L -2 0 L 2 0 L 7 -6"></path><line x1="0" y1="0" x2="0" y2="9"></line></g></g>
                  <g transform="translate(340 105) scale(1.1)" opacity="1"><g stroke="#e8a951" stroke-width="2" fill="none" stroke-linecap="round"><path d="M -7 -6 L -2 0 L 2 0 L 7 -6"></path><line x1="0" y1="0" x2="0" y2="9"></line></g></g>
                  <g transform="translate(400 110) scale(1.1)" opacity="1"><g stroke="#e8a951" stroke-width="2" fill="none" stroke-linecap="round"><path d="M -7 -6 L -2 0 L 2 0 L 7 -6"></path><line x1="0" y1="0" x2="0" y2="9"></line></g></g>

                  <text x="250" y="245" text-anchor="middle" style="fill:#b4becf;font:italic 7.5px Fraunces,serif">pre-formed anti-D IgG injected · grabs fetal Rh+ RBCs as fast as they appear</text>

                  <!-- FOCUS · audio-aligned attention marker -->
                  <circle cx="180" cy="153" r="20" fill="none" stroke="#d14859" stroke-width="1.8" stroke-dasharray="3 2" opacity="0.85">
                    <animate attributeName="r" values="16;26;16" dur="2.4s" repeatCount="indefinite"/>
                    <animate attributeName="opacity" values="0.85;0.20;0.85" dur="2.4s" repeatCount="indefinite"/>
                  </circle>

                  <!-- FOCUS · audio-aligned attention marker -->
                  <circle cx="240" cy="168" r="20" fill="none" stroke="#d14859" stroke-width="1.8" stroke-dasharray="3 2" opacity="0.85">
                    <animate attributeName="r" values="16;26;16" dur="2.4s" repeatCount="indefinite"/>
                    <animate attributeName="opacity" values="0.85;0.20;0.85" dur="2.4s" repeatCount="indefinite"/>
                  </circle>

                  <!-- FOCUS · audio-aligned attention marker -->
                  <circle cx="300" cy="153" r="20" fill="none" stroke="#d14859" stroke-width="1.8" stroke-dasharray="3 2" opacity="0.85">
                    <animate attributeName="r" values="16;26;16" dur="2.4s" repeatCount="indefinite"/>
                    <animate attributeName="opacity" values="0.85;0.20;0.85" dur="2.4s" repeatCount="indefinite"/>
                  </circle>
</svg>
