<?xml version="1.0" encoding="UTF-8"?>
<!--
  Auto-generated from the reference HTML by
  scripts/storymode-extraction/extract.mjs.
  Do not edit by hand — regenerate the file instead.
-->
<svg xmlns="http://www.w3.org/2000/svg" xmlns:xlink="http://www.w3.org/1999/xlink" viewBox="0 0 500 260" preserveAspectRatio="xMidYMid meet">
<text x="20" y="16" style="fill:#e8a951;font:600 9px Inter,sans-serif;letter-spacing:2px">STEP 03 · SUB-ENDOTHELIAL · WIRE-LOOP DEPOSIT</text>

<!-- Glomerular capillary loop labeled with all anatomical layers -->
<g transform="translate(250 145)">
  <text x="0" y="-90" text-anchor="middle" style="fill:#b4becf;font:700 8px Inter,sans-serif;letter-spacing:1.2px">GLOMERULAR CAPILLARY · CROSS SECTION</text>
  
  <!-- CAPILLARY LUMEN (top, blood side) -->
  <rect x="-180" y="-72" width="360" height="22" fill="rgba(209,72,89,0.10)" stroke="#d14859" stroke-width="0.8" stroke-dasharray="2 2"/>
  <text x="-170" y="-58" style="fill:#d14859;font:700 7px Inter,sans-serif;letter-spacing:1.2px">CAPILLARY LUMEN</text>
  <!-- RBC in lumen -->
  <ellipse cx="-30" cy="-60" rx="9" ry="5" fill="rgba(209,72,89,0.45)" stroke="#d14859" stroke-width="0.8"/>
  <ellipse cx="50" cy="-62" rx="9" ry="5" fill="rgba(209,72,89,0.45)" stroke="#d14859" stroke-width="0.8"/>
  
  <!-- ENDOTHELIUM (fenestrated) -->
  <g>
    <line x1="-180" y1="-50" x2="-15" y2="-50" stroke="#9370b9" stroke-width="2.4"/>
    <line x1="15" y1="-50" x2="180" y2="-50" stroke="#9370b9" stroke-width="2.4"/>
    <line x1="-180" y1="-44" x2="-15" y2="-44" stroke="#9370b9" stroke-width="2.4"/>
    <line x1="15" y1="-44" x2="180" y2="-44" stroke="#9370b9" stroke-width="2.4"/>
    <!-- More fenestrations -->
    <line x1="-105" y1="-50" x2="-95" y2="-50" stroke="rgba(10,14,26,1)" stroke-width="3"/>
    <line x1="-65" y1="-50" x2="-55" y2="-50" stroke="rgba(10,14,26,1)" stroke-width="3"/>
    <line x1="55" y1="-50" x2="65" y2="-50" stroke="rgba(10,14,26,1)" stroke-width="3"/>
    <line x1="105" y1="-50" x2="115" y2="-50" stroke="rgba(10,14,26,1)" stroke-width="3"/>
  </g>
  <text x="-170" y="-32" style="fill:#9370b9;font:700 7px Inter,sans-serif;letter-spacing:1.2px">ENDOTHELIUM</text>
  
  <!-- WIRE-LOOP DEPOSIT (sub-endothelial position - between endo and GBM) -->
  <!-- Big bulging deposit between endothelium and GBM -->
  <path d="M -30 -42 Q -30 -8 0 -8 Q 30 -8 30 -42 Z" fill="rgba(232,169,81,0.55)" stroke="#e8a951" stroke-width="1.8"/>
  <!-- IgG arms inside -->
  <g stroke="#fff" stroke-width="1" fill="none" stroke-linecap="round" opacity="0.85">
    <g transform="translate(-12 -22)">
      <line x1="0" y1="0" x2="0" y2="6"/>
      <line x1="-3" y1="-3" x2="0" y2="0"/>
      <line x1="3" y1="-3" x2="0" y2="0"/>
    </g>
    <g transform="translate(8 -28)">
      <line x1="0" y1="0" x2="0" y2="6"/>
      <line x1="-3" y1="-3" x2="0" y2="0"/>
      <line x1="3" y1="-3" x2="0" y2="0"/>
    </g>
    <g transform="translate(-3 -15)">
      <line x1="0" y1="0" x2="0" y2="6"/>
      <line x1="-3" y1="-3" x2="0" y2="0"/>
      <line x1="3" y1="-3" x2="0" y2="0"/>
    </g>
  </g>
  
  <!-- GBM -->
  <rect x="-180" y="-8" width="360" height="6" fill="rgba(180,190,207,0.65)" stroke="#b4becf" stroke-width="0.8"/>
  <text x="-170" y="3" style="fill:#b4becf;font:700 7px Inter,sans-serif;letter-spacing:1.2px">GBM</text>
  
  <!-- PODOCYTES with foot processes -->
  <g transform="translate(0 30)">
    <!-- Cell bodies -->
    <ellipse cx="-100" cy="0" rx="22" ry="14" fill="rgba(79,184,168,0.40)" stroke="#4fb8a8" stroke-width="1.4"/>
    <ellipse cx="-30" cy="0" rx="22" ry="14" fill="rgba(79,184,168,0.40)" stroke="#4fb8a8" stroke-width="1.4"/>
    <ellipse cx="40" cy="0" rx="22" ry="14" fill="rgba(79,184,168,0.40)" stroke="#4fb8a8" stroke-width="1.4"/>
    <ellipse cx="110" cy="0" rx="22" ry="14" fill="rgba(79,184,168,0.40)" stroke="#4fb8a8" stroke-width="1.4"/>
    <!-- Nuclei -->
    <ellipse cx="-100" cy="0" rx="6" ry="4" fill="#1a4d4a"/>
    <ellipse cx="-30" cy="0" rx="6" ry="4" fill="#1a4d4a"/>
    <ellipse cx="40" cy="0" rx="6" ry="4" fill="#1a4d4a"/>
    <ellipse cx="110" cy="0" rx="6" ry="4" fill="#1a4d4a"/>
    <!-- Foot processes interdigitating up to GBM -->
    <g stroke="#4fb8a8" stroke-width="1.4" fill="none">
      <line x1="-115" y1="-12" x2="-118" y2="-22"/>
      <line x1="-105" y1="-13" x2="-108" y2="-22"/>
      <line x1="-95" y1="-13" x2="-98" y2="-22"/>
      <line x1="-85" y1="-13" x2="-88" y2="-22"/>
      <line x1="-45" y1="-13" x2="-48" y2="-22"/>
      <line x1="-35" y1="-13" x2="-38" y2="-22"/>
      <line x1="-25" y1="-13" x2="-28" y2="-22"/>
      <line x1="-15" y1="-13" x2="-18" y2="-22"/>
      <line x1="25" y1="-13" x2="22" y2="-22"/>
      <line x1="35" y1="-13" x2="32" y2="-22"/>
      <line x1="45" y1="-13" x2="42" y2="-22"/>
      <line x1="55" y1="-13" x2="52" y2="-22"/>
      <line x1="95" y1="-13" x2="92" y2="-22"/>
      <line x1="105" y1="-13" x2="102" y2="-22"/>
      <line x1="115" y1="-13" x2="112" y2="-22"/>
      <line x1="125" y1="-13" x2="122" y2="-22"/>
    </g>
  </g>
  <text x="-170" y="48" style="fill:#4fb8a8;font:700 7px Inter,sans-serif;letter-spacing:1.2px">PODOCYTES</text>
  
  <!-- Arrow + label pointing to deposit -->
  <line x1="50" y1="-30" x2="115" y2="-50" stroke="#e8a951" stroke-width="1.4" stroke-dasharray="2 2"/>
  <text x="135" y="-50" text-anchor="start" style="fill:#e8a951;font:700 8px Inter,sans-serif;letter-spacing:1.2px">"WIRE LOOP"</text>
  <text x="135" y="-38" text-anchor="start" style="fill:#b4becf;font:6.5px Inter,sans-serif">sub-endothelial</text>
  <text x="135" y="-28" text-anchor="start" style="fill:#b4becf;font:6.5px Inter,sans-serif">immune complex</text>
</g>

<text x="250" y="245" text-anchor="middle" style="fill:#6b7689;font:italic 7.5px Fraunces,serif">Wire loops = bulky deposits between endo + GBM · classic lupus nephritis</text>

                  <!-- FOCUS · audio-aligned attention marker -->
                  <circle cx="250" cy="50" r="40" fill="none" stroke="#d14859" stroke-width="1.8" stroke-dasharray="3 2" opacity="0.85">
                    <animate attributeName="r" values="36;46;36" dur="2.4s" repeatCount="indefinite"/>
                    <animate attributeName="opacity" values="0.85;0.20;0.85" dur="2.4s" repeatCount="indefinite"/>
                  </circle>
</svg>
