<?xml version="1.0" encoding="UTF-8"?>
<!--
  Auto-generated from the reference HTML by
  scripts/storymode-extraction/extract.mjs.
  Do not edit by hand — regenerate the file instead.
-->
<svg xmlns="http://www.w3.org/2000/svg" xmlns:xlink="http://www.w3.org/1999/xlink" viewBox="0 0 500 260" preserveAspectRatio="xMidYMid meet">
                <text x="20" y="26" style="fill:#e8a951;font:600 10px Inter,sans-serif;letter-spacing:2px">ALL FRAGMENTS · NONE FIT</text>
                <g transform="translate(250 140)">
                  <path d="M -32 -10 L 32 -10 L 35 4 L 22 4 L 18 -4 L -18 -4 L -22 4 L -35 4 Z" fill="#4fb8a8" opacity="0.7" stroke="#4fb8a8" stroke-width="1.8"/>
                  <text x="0" y="30" text-anchor="middle" style="fill:#4fb8a8;font:600 10px Inter,sans-serif">non-responder's Class II</text>
                </g>
                <g fill="#d14859">
                  <circle cx="100" cy="80" r="3"/><circle cx="130" cy="100" r="3"/>
                  <circle cx="160" cy="75" r="3"/><circle cx="190" cy="95" r="3"/>
                  <circle cx="370" cy="80" r="3"/><circle cx="340" cy="100" r="3"/>
                  <circle cx="300" cy="75" r="3"/><circle cx="410" cy="95" r="3"/>
                </g>
                <g stroke="#d14859" stroke-width="1.3" opacity="0.6" fill="none" stroke-dasharray="2 2">
                  <path d="M 105 85 Q 180 95 220 130"/>
                  <path d="M 165 80 Q 200 100 230 130"/>
                  <path d="M 365 85 Q 300 95 270 130"/>
                  <path d="M 335 105 Q 290 115 265 130"/>
                </g>
                <g transform="translate(250 120)">
                  <line x1="-18" y1="-6" x2="18" y2="8" stroke="#d14859" stroke-width="3"/>
                  <line x1="-18" y1="8" x2="18" y2="-6" stroke="#d14859" stroke-width="3"/>
                </g>
                <text x="250" y="225" text-anchor="middle" style="fill:#d14859;font:italic 600 11px Fraunces,serif">every possible fragment · bounces off</text>

                  <!-- FOCUS · audio-aligned attention marker -->
                  <circle cx="250" cy="220" r="40" fill="none" stroke="#d14859" stroke-width="1.8" stroke-dasharray="3 2" opacity="0.85">
                    <animate attributeName="r" values="36;46;36" dur="2.4s" repeatCount="indefinite"/>
                    <animate attributeName="opacity" values="0.85;0.20;0.85" dur="2.4s" repeatCount="indefinite"/>
                  </circle>

                  <!-- FOCUS · audio-aligned attention marker -->
                  <circle cx="250" cy="165" r="36" fill="none" stroke="#d14859" stroke-width="1.8" stroke-dasharray="3 2" opacity="0.85">
                    <animate attributeName="r" values="32;42;32" dur="2.4s" repeatCount="indefinite"/>
                    <animate attributeName="opacity" values="0.85;0.20;0.85" dur="2.4s" repeatCount="indefinite"/>
                  </circle>
</svg>
