<?xml version="1.0" encoding="UTF-8"?>
<!--
  Auto-generated from the reference HTML by
  scripts/storymode-extraction/extract.mjs.
  Do not edit by hand — regenerate the file instead.
-->
<svg xmlns="http://www.w3.org/2000/svg" xmlns:xlink="http://www.w3.org/1999/xlink" viewBox="0 0 500 260" preserveAspectRatio="xMidYMid meet">
                  <text x="20" y="22" style="fill:#e8a951;font:600 10px Inter,sans-serif;letter-spacing:2px">STEP 08 · THE ANSWER</text>

                  <!-- Ghosted IgM agglutination scene behind -->
                  <g opacity="0.30">
                    <g transform="translate(250 145)" opacity="1"><g transform="rotate(-90)"><line x1="0" y1="0" x2="0" y2="50" stroke="#9370b9" stroke-width="2.6" stroke-linecap="round"></line><path d="M -10 45 L 0 50 L 10 45" stroke="#9370b9" stroke-width="2.6" fill="none" stroke-linecap="round"></path><circle cx="-10" cy="45" r="3" fill="#d14859" opacity="0.85"></circle><circle cx="10" cy="45" r="3" fill="#d14859" opacity="0.85"></circle></g><g transform="rotate(-18)"><line x1="0" y1="0" x2="0" y2="50" stroke="#9370b9" stroke-width="2.6" stroke-linecap="round"></line><path d="M -10 45 L 0 50 L 10 45" stroke="#9370b9" stroke-width="2.6" fill="none" stroke-linecap="round"></path><circle cx="-10" cy="45" r="3" fill="#d14859" opacity="0.85"></circle><circle cx="10" cy="45" r="3" fill="#d14859" opacity="0.85"></circle></g><g transform="rotate(54)"><line x1="0" y1="0" x2="0" y2="50" stroke="#9370b9" stroke-width="2.6" stroke-linecap="round"></line><path d="M -10 45 L 0 50 L 10 45" stroke="#9370b9" stroke-width="2.6" fill="none" stroke-linecap="round"></path><circle cx="-10" cy="45" r="3" fill="#d14859" opacity="0.85"></circle><circle cx="10" cy="45" r="3" fill="#d14859" opacity="0.85"></circle></g><g transform="rotate(126)"><line x1="0" y1="0" x2="0" y2="50" stroke="#9370b9" stroke-width="2.6" stroke-linecap="round"></line><path d="M -10 45 L 0 50 L 10 45" stroke="#9370b9" stroke-width="2.6" fill="none" stroke-linecap="round"></path><circle cx="-10" cy="45" r="3" fill="#d14859" opacity="0.85"></circle><circle cx="10" cy="45" r="3" fill="#d14859" opacity="0.85"></circle></g><g transform="rotate(198)"><line x1="0" y1="0" x2="0" y2="50" stroke="#9370b9" stroke-width="2.6" stroke-linecap="round"></line><path d="M -10 45 L 0 50 L 10 45" stroke="#9370b9" stroke-width="2.6" fill="none" stroke-linecap="round"></path><circle cx="-10" cy="45" r="3" fill="#d14859" opacity="0.85"></circle><circle cx="10" cy="45" r="3" fill="#d14859" opacity="0.85"></circle></g><circle cx="0" cy="0" r="7" fill="#e8a951" fill-opacity="0.95" stroke="#e8a951" stroke-width="1.4"></circle><text x="0" y="2" text-anchor="middle" style="fill:#0a0e1a;font:700 7px Inter,sans-serif">J</text></g>
                    <g opacity="1"><ellipse cx="250" cy="80" rx="14" ry="9" fill="#d14859" fill-opacity="0.85" stroke="#d14859" stroke-width="1"></ellipse><ellipse cx="250" cy="80" rx="5.88" ry="3.78" fill="#1a2030" opacity="0.85"></ellipse></g>
                    <g opacity="1"><ellipse cx="310" cy="110" rx="14" ry="9" fill="#d14859" fill-opacity="0.85" stroke="#d14859" stroke-width="1"></ellipse><ellipse cx="310" cy="110" rx="5.88" ry="3.78" fill="#1a2030" opacity="0.85"></ellipse></g>
                    <g opacity="1"><ellipse cx="310" cy="180" rx="14" ry="9" fill="#d14859" fill-opacity="0.85" stroke="#d14859" stroke-width="1"></ellipse><ellipse cx="310" cy="180" rx="5.88" ry="3.78" fill="#1a2030" opacity="0.85"></ellipse></g>
                    <g opacity="1"><ellipse cx="190" cy="180" rx="14" ry="9" fill="#d14859" fill-opacity="0.85" stroke="#d14859" stroke-width="1"></ellipse><ellipse cx="190" cy="180" rx="5.88" ry="3.78" fill="#1a2030" opacity="0.85"></ellipse></g>
                    <g opacity="1"><ellipse cx="190" cy="110" rx="14" ry="9" fill="#d14859" fill-opacity="0.85" stroke="#d14859" stroke-width="1"></ellipse><ellipse cx="190" cy="110" rx="5.88" ry="3.78" fill="#1a2030" opacity="0.85"></ellipse></g>
                  </g>

                  <!-- distractors crossed out -->
                  <g opacity="0.45" font-family="Inter,sans-serif">
                    <text x="60" y="50" style="fill:#6b7689;font:9px Inter,sans-serif">A · IgA</text>
                    <line x1="56" y1="46" x2="100" y2="46" stroke="#d14859" stroke-width="1" opacity="0.85"></line>
                    <text x="160" y="50" style="fill:#6b7689;font:9px Inter,sans-serif">B · IgD</text>
                    <line x1="156" y1="46" x2="200" y2="46" stroke="#d14859" stroke-width="1" opacity="0.85"></line>
                    <text x="260" y="50" style="fill:#6b7689;font:9px Inter,sans-serif">C · IgE</text>
                    <line x1="256" y1="46" x2="300" y2="46" stroke="#d14859" stroke-width="1" opacity="0.85"></line>
                    <text x="360" y="50" style="fill:#6b7689;font:9px Inter,sans-serif">D · IgG</text>
                    <line x1="356" y1="46" x2="400" y2="46" stroke="#d14859" stroke-width="1" opacity="0.85"></line>
                  </g>

                  <!-- Hero answer banner -->
                  <g transform="translate(250 220)">
                    <rect x="-220" y="-22" width="440" height="44" rx="10" fill="#e8a951" fill-opacity="0.42" stroke="#e8a951" stroke-width="2.6"></rect>
                    <text x="0" y="6" text-anchor="middle" style="fill:#e8a951;font:700 14px Inter,sans-serif;letter-spacing:2px">E · IgM</text>
                  </g>

                  <text x="250" y="252" text-anchor="middle" style="fill:#e8a951;font:italic 600 10px Fraunces,serif">pentameric IgM · 10 binding sites · the only isotype that crosslinks RBCs visibly in a tube</text>
              
                  
              
                  <!-- FOCUS · audio-aligned attention marker -->
                  <circle cx="60" cy="45" r="20" fill="none" stroke="#d14859" stroke-width="1.8" stroke-dasharray="3 2" opacity="0.85">
                    <animate attributeName="r" values="16;26;16" dur="2.4s" repeatCount="indefinite"/>
                    <animate attributeName="opacity" values="0.85;0.20;0.85" dur="2.4s" repeatCount="indefinite"/>
                  </circle>

                  <!-- FOCUS · audio-aligned attention marker -->
                  <circle cx="160" cy="45" r="20" fill="none" stroke="#d14859" stroke-width="1.8" stroke-dasharray="3 2" opacity="0.85">
                    <animate attributeName="r" values="16;26;16" dur="2.4s" repeatCount="indefinite"/>
                    <animate attributeName="opacity" values="0.85;0.20;0.85" dur="2.4s" repeatCount="indefinite"/>
                  </circle>

                  <!-- FOCUS · audio-aligned attention marker -->
                  <circle cx="260" cy="45" r="20" fill="none" stroke="#d14859" stroke-width="1.8" stroke-dasharray="3 2" opacity="0.85">
                    <animate attributeName="r" values="16;26;16" dur="2.4s" repeatCount="indefinite"/>
                    <animate attributeName="opacity" values="0.85;0.20;0.85" dur="2.4s" repeatCount="indefinite"/>
                  </circle>
              </svg>
