<?xml version="1.0" encoding="UTF-8"?>
<!--
  Auto-generated from the reference HTML by
  scripts/storymode-extraction/extract.mjs.
  Do not edit by hand — regenerate the file instead.
-->
<svg xmlns="http://www.w3.org/2000/svg" xmlns:xlink="http://www.w3.org/1999/xlink" viewBox="0 0 500 260" preserveAspectRatio="xMidYMid meet">
<text x="20" y="16" style="fill:#e8a951;font:600 9px Inter,sans-serif;letter-spacing:2px">STEP 02 · CALCIFICATION PATTERN · CMV vs TOXO</text>

<!-- Brain CMV pattern (left) -->
<g transform="translate(125 130)">
  <ellipse cx="0" cy="0" rx="65" ry="50" fill="rgba(107,118,137,0.10)" stroke="#3a4358" stroke-width="1.2"/>
  <!-- Ventricles -->
  <ellipse cx="-12" cy="-5" rx="14" ry="20" fill="rgba(79,184,168,0.20)" stroke="#4fb8a8" stroke-width="1"/>
  <ellipse cx="12" cy="-5" rx="14" ry="20" fill="rgba(79,184,168,0.20)" stroke="#4fb8a8" stroke-width="1"/>
  
  <!-- Periventricular calcifications -->
  <g fill="#d14859">
    <circle cx="-28" cy="-12" r="2"/>
    <circle cx="-28" cy="0" r="2"/>
    <circle cx="-28" cy="12" r="2"/>
    <circle cx="28" cy="-12" r="2"/>
    <circle cx="28" cy="0" r="2"/>
    <circle cx="28" cy="12" r="2"/>
    <circle cx="-12" cy="-28" r="2"/>
    <circle cx="12" cy="-28" r="2"/>
    <circle cx="-12" cy="20" r="2"/>
    <circle cx="12" cy="20" r="2"/>
  </g>
  
  <text x="0" y="-65" text-anchor="middle" style="fill:#d14859;font:700 9px Inter,sans-serif;letter-spacing:1.2px">CMV</text>
  <text x="0" y="65" text-anchor="middle" style="fill:#d14859;font:700 7.5px Inter,sans-serif">PERIVENTRICULAR</text>
</g>

<!-- Brain Toxo pattern (right) -->
<g transform="translate(375 130)">
  <ellipse cx="0" cy="0" rx="65" ry="50" fill="rgba(107,118,137,0.10)" stroke="#3a4358" stroke-width="1.2"/>
  <ellipse cx="-12" cy="-5" rx="14" ry="20" fill="rgba(79,184,168,0.20)" stroke="#4fb8a8" stroke-width="1"/>
  <ellipse cx="12" cy="-5" rx="14" ry="20" fill="rgba(79,184,168,0.20)" stroke="#4fb8a8" stroke-width="1"/>
  
  <!-- Diffuse scattered calcifications -->
  <g fill="#e8a951">
    <circle cx="-45" cy="-25" r="2"/>
    <circle cx="-50" cy="0" r="2"/>
    <circle cx="-40" cy="25" r="2"/>
    <circle cx="-25" cy="35" r="2"/>
    <circle cx="0" cy="38" r="2"/>
    <circle cx="25" cy="35" r="2"/>
    <circle cx="40" cy="25" r="2"/>
    <circle cx="50" cy="0" r="2"/>
    <circle cx="45" cy="-25" r="2"/>
    <circle cx="20" cy="-35" r="2"/>
    <circle cx="-20" cy="-35" r="2"/>
    <circle cx="0" cy="0" r="2"/>
    <circle cx="-30" cy="-15" r="2"/>
    <circle cx="30" cy="-15" r="2"/>
  </g>
  
  <text x="0" y="-65" text-anchor="middle" style="fill:#e8a951;font:700 9px Inter,sans-serif;letter-spacing:1.2px">TOXOPLASMOSIS</text>
  <text x="0" y="65" text-anchor="middle" style="fill:#e8a951;font:700 7.5px Inter,sans-serif">DIFFUSE / SCATTERED</text>
</g>

<text x="250" y="240" text-anchor="middle" style="fill:#b4becf;font:600 8px Inter,sans-serif">Calcification pattern alone tells you which TORCH agent</text>

                  <!-- FOCUS · audio-aligned attention marker -->
                  <circle cx="125" cy="190" r="22" fill="none" stroke="#d14859" stroke-width="1.8" stroke-dasharray="3 2" opacity="0.85">
                    <animate attributeName="r" values="18;28;18" dur="2.4s" repeatCount="indefinite"/>
                    <animate attributeName="opacity" values="0.85;0.20;0.85" dur="2.4s" repeatCount="indefinite"/>
                  </circle>
</svg>
