<?xml version="1.0" encoding="UTF-8"?>
<!--
  Auto-generated from the reference HTML by
  scripts/storymode-extraction/extract.mjs.
  Do not edit by hand — regenerate the file instead.
-->
<svg xmlns="http://www.w3.org/2000/svg" xmlns:xlink="http://www.w3.org/1999/xlink" viewBox="0 0 500 260" preserveAspectRatio="xMidYMid meet">
                  <text x="20" y="22" style="fill:#e8a951;font:600 10px Inter,sans-serif;letter-spacing:2px">STEP 08 · THE ANSWER</text>

                  <!-- Ghosted barrier scene behind -->
                  <g opacity="0.30">
                    <g opacity="1"><rect x="40" y="55" width="420" height="60" rx="3" fill="#d14859" fill-opacity="0.10"></rect><text x="48" y="68" style="fill:#d14859;font:600 8px Inter,sans-serif;letter-spacing:1.5px">MATERNAL BLOOD</text><rect x="40" y="115" width="420" height="50" rx="3" fill="#e8a951" fill-opacity="0.20" stroke="#e8a951" stroke-width="1.4"></rect><text x="48" y="143" style="fill:#e8a951;font:600 8px Inter,sans-serif;letter-spacing:1.5px">SYNCYTIOTROPHOBLAST</text><rect x="40" y="165" width="420" height="60" rx="3" fill="#6cc27d" fill-opacity="0.10"></rect><text x="48" y="218" style="fill:#6cc27d;font:600 8px Inter,sans-serif;letter-spacing:1.5px">FETAL BLOOD</text><g transform="translate(110 115)"><path d="M -7 0 L -7 -7 L -3 -7 L -3 -3 L 3 -3 L 3 -7 L 7 -7 L 7 0 Z" fill="#9370b9" fill-opacity="0.85" stroke="#9370b9" stroke-width="1.2"></path></g><g transform="translate(175 115)"><path d="M -7 0 L -7 -7 L -3 -7 L -3 -3 L 3 -3 L 3 -7 L 7 -7 L 7 0 Z" fill="#9370b9" fill-opacity="0.85" stroke="#9370b9" stroke-width="1.2"></path></g><g transform="translate(240 115)"><path d="M -7 0 L -7 -7 L -3 -7 L -3 -3 L 3 -3 L 3 -7 L 7 -7 L 7 0 Z" fill="#9370b9" fill-opacity="0.85" stroke="#9370b9" stroke-width="1.2"></path></g><g transform="translate(305 115)"><path d="M -7 0 L -7 -7 L -3 -7 L -3 -3 L 3 -3 L 3 -7 L 7 -7 L 7 0 Z" fill="#9370b9" fill-opacity="0.85" stroke="#9370b9" stroke-width="1.2"></path></g><g transform="translate(370 115)"><path d="M -7 0 L -7 -7 L -3 -7 L -3 -3 L 3 -3 L 3 -7 L 7 -7 L 7 0 Z" fill="#9370b9" fill-opacity="0.85" stroke="#9370b9" stroke-width="1.2"></path></g><text x="430" y="108" text-anchor="end" style="fill:#9370b9;font:600 7px Inter,sans-serif;letter-spacing:1.2px">FcRn ↑</text></g>
                    <g transform="translate(110 80) scale(1.6)" opacity="1"><path d="M -7 -6 L -2 0 L 2 0 L 7 -6" stroke="#e8a951" stroke-width="2" fill="none" stroke-linecap="round"></path><line x1="0" y1="0" x2="0" y2="8" stroke="#e8a951" stroke-width="2" stroke-linecap="round"></line></g>
                    <g transform="translate(240 80) scale(1.6)" opacity="1"><path d="M -7 -6 L -2 0 L 2 0 L 7 -6" stroke="#e8a951" stroke-width="2" fill="none" stroke-linecap="round"></path><line x1="0" y1="0" x2="0" y2="8" stroke="#e8a951" stroke-width="2" stroke-linecap="round"></line></g>
                    <g transform="translate(370 80) scale(1.6)" opacity="1"><path d="M -7 -6 L -2 0 L 2 0 L 7 -6" stroke="#e8a951" stroke-width="2" fill="none" stroke-linecap="round"></path><line x1="0" y1="0" x2="0" y2="8" stroke="#e8a951" stroke-width="2" stroke-linecap="round"></line></g>
                    <g transform="translate(140 195) scale(1.6)" opacity="1"><path d="M -7 -6 L -2 0 L 2 0 L 7 -6" stroke="#e8a951" stroke-width="2" fill="none" stroke-linecap="round"></path><line x1="0" y1="0" x2="0" y2="8" stroke="#e8a951" stroke-width="2" stroke-linecap="round"></line></g>
                    <g transform="translate(290 195) scale(1.6)" opacity="1"><path d="M -7 -6 L -2 0 L 2 0 L 7 -6" stroke="#e8a951" stroke-width="2" fill="none" stroke-linecap="round"></path><line x1="0" y1="0" x2="0" y2="8" stroke="#e8a951" stroke-width="2" stroke-linecap="round"></line></g>
                  </g>

                  <!-- distractors crossed out at top -->
                  <g opacity="0.45" font-family="Inter,sans-serif">
                    <text x="60" y="50" style="fill:#6b7689;font:9px Inter,sans-serif">A · IgA</text>
                    <line x1="56" y1="46" x2="100" y2="46" stroke="#d14859" stroke-width="1" opacity="0.85"></line>
                    <text x="160" y="50" style="fill:#6b7689;font:9px Inter,sans-serif">B · IgD</text>
                    <line x1="156" y1="46" x2="200" y2="46" stroke="#d14859" stroke-width="1" opacity="0.85"></line>
                    <text x="260" y="50" style="fill:#6b7689;font:9px Inter,sans-serif">C · IgE</text>
                    <line x1="256" y1="46" x2="300" y2="46" stroke="#d14859" stroke-width="1" opacity="0.85"></line>
                    <text x="360" y="50" style="fill:#6b7689;font:9px Inter,sans-serif">E · IgM</text>
                    <line x1="356" y1="46" x2="400" y2="46" stroke="#d14859" stroke-width="1" opacity="0.85"></line>
                  </g>

                  <!-- Hero answer banner -->
                  <g transform="translate(250 145)">
                    <rect x="-220" y="-26" width="440" height="52" rx="10" fill="#e8a951" fill-opacity="0.42" stroke="#e8a951" stroke-width="2.6"></rect>
                    <text x="0" y="6" text-anchor="middle" style="fill:#e8a951;font:700 14px Inter,sans-serif;letter-spacing:2px">D · IgG</text>
                  </g>

                  <text x="250" y="252" text-anchor="middle" style="fill:#e8a951;font:italic 600 10px Fraunces,serif">FcRn-mediated transcytosis · monomer crosses the placenta · 6 months of passive immunity</text>

                  <!-- FOCUS · audio-aligned attention marker -->
                  <circle cx="250" cy="146" r="20" fill="none" stroke="#d14859" stroke-width="1.8" stroke-dasharray="3 2" opacity="0.85">
                    <animate attributeName="r" values="16;26;16" dur="2.4s" repeatCount="indefinite"/>
                    <animate attributeName="opacity" values="0.85;0.20;0.85" dur="2.4s" repeatCount="indefinite"/>
                  </circle>

                  <!-- FOCUS · audio-aligned attention marker -->
                  <circle cx="60" cy="45" r="20" fill="none" stroke="#d14859" stroke-width="1.8" stroke-dasharray="3 2" opacity="0.85">
                    <animate attributeName="r" values="16;26;16" dur="2.4s" repeatCount="indefinite"/>
                    <animate attributeName="opacity" values="0.85;0.20;0.85" dur="2.4s" repeatCount="indefinite"/>
                  </circle>

                  <!-- FOCUS · audio-aligned attention marker -->
                  <circle cx="160" cy="45" r="20" fill="none" stroke="#d14859" stroke-width="1.8" stroke-dasharray="3 2" opacity="0.85">
                    <animate attributeName="r" values="16;26;16" dur="2.4s" repeatCount="indefinite"/>
                    <animate attributeName="opacity" values="0.85;0.20;0.85" dur="2.4s" repeatCount="indefinite"/>
                  </circle>
</svg>
