<?xml version="1.0" encoding="UTF-8"?>
<!--
  Auto-generated from the reference HTML by
  scripts/storymode-extraction/extract.mjs.
  Do not edit by hand — regenerate the file instead.
-->
<svg xmlns="http://www.w3.org/2000/svg" xmlns:xlink="http://www.w3.org/1999/xlink" viewBox="0 0 500 260" preserveAspectRatio="xMidYMid meet">
                  <text x="20" y="22" style="fill:#e8a951;font:600 10px Inter,sans-serif;letter-spacing:2px">STEP 05 · RAG1/RAG2 · MOLECULAR SCISSORS</text>

                  <g opacity="1" transform="translate(0 0)"><line x1="40" y1="145" x2="475" y2="145" stroke="#6b7689" stroke-width="1.4" opacity="0.7"></line><rect x="50" y="138" width="14" height="14" rx="1.5" fill="#4fb8a8" fill-opacity="0.95" stroke="#4fb8a8" stroke-width="1.2"></rect><rect x="68" y="138" width="14" height="14" rx="1.5" fill="#4fb8a8" fill-opacity="0.95" stroke="#4fb8a8" stroke-width="1.2"></rect><rect x="86" y="138" width="14" height="14" rx="1.5" fill="#4fb8a8" fill-opacity="0.95" stroke="#4fb8a8" stroke-width="1.2"></rect><rect x="104" y="138" width="14" height="14" rx="1.5" fill="#4fb8a8" fill-opacity="0.95" stroke="#4fb8a8" stroke-width="2"></rect><rect x="122" y="138" width="14" height="14" rx="1.5" fill="#4fb8a8" fill-opacity="0.95" stroke="#4fb8a8" stroke-width="1.2"></rect><rect x="140" y="138" width="14" height="14" rx="1.5" fill="#4fb8a8" fill-opacity="0.95" stroke="#4fb8a8" stroke-width="1.2"></rect><rect x="158" y="138" width="14" height="14" rx="1.5" fill="#4fb8a8" fill-opacity="0.95" stroke="#4fb8a8" stroke-width="1.2"></rect><text x="105" y="125" text-anchor="middle" style="fill:#4fb8a8;font:600 8px Inter,sans-serif;letter-spacing:1.2px">V</text><text x="105" y="170" text-anchor="middle" style="fill:#b4becf;font:italic 6px Fraunces,serif">~40 segments</text><rect x="200" y="138" width="14" height="14" rx="1.5" fill="#e8a951" fill-opacity="0.95" stroke="#e8a951" stroke-width="1.2"></rect><rect x="218" y="138" width="14" height="14" rx="1.5" fill="#e8a951" fill-opacity="0.95" stroke="#e8a951" stroke-width="1.2"></rect><rect x="236" y="138" width="14" height="14" rx="1.5" fill="#e8a951" fill-opacity="0.95" stroke="#e8a951" stroke-width="2"></rect><rect x="254" y="138" width="14" height="14" rx="1.5" fill="#e8a951" fill-opacity="0.95" stroke="#e8a951" stroke-width="1.2"></rect><rect x="272" y="138" width="14" height="14" rx="1.5" fill="#e8a951" fill-opacity="0.95" stroke="#e8a951" stroke-width="1.2"></rect><text x="240" y="125" text-anchor="middle" style="fill:#e8a951;font:600 8px Inter,sans-serif;letter-spacing:1.2px">D</text><text x="240" y="170" text-anchor="middle" style="fill:#b4becf;font:italic 6px Fraunces,serif">~25 segments</text><rect x="310" y="138" width="14" height="14" rx="1.5" fill="#9370b9" fill-opacity="0.95" stroke="#9370b9" stroke-width="1.2"></rect><rect x="328" y="138" width="14" height="14" rx="1.5" fill="#9370b9" fill-opacity="0.95" stroke="#9370b9" stroke-width="2"></rect><rect x="346" y="138" width="14" height="14" rx="1.5" fill="#9370b9" fill-opacity="0.95" stroke="#9370b9" stroke-width="1.2"></rect><rect x="364" y="138" width="14" height="14" rx="1.5" fill="#9370b9" fill-opacity="0.95" stroke="#9370b9" stroke-width="1.2"></rect><rect x="382" y="138" width="14" height="14" rx="1.5" fill="#9370b9" fill-opacity="0.95" stroke="#9370b9" stroke-width="1.2"></rect><text x="350" y="125" text-anchor="middle" style="fill:#9370b9;font:600 8px Inter,sans-serif;letter-spacing:1.2px">J</text><text x="350" y="170" text-anchor="middle" style="fill:#b4becf;font:italic 6px Fraunces,serif">~6 segments</text><rect x="425" y="135" width="40" height="20" rx="2" fill="#6b7689" fill-opacity="0.85" stroke="#6b7689" stroke-width="1.2"></rect><text x="445" y="148" text-anchor="middle" style="fill:#e8ecf3;font:700 8px Inter,sans-serif">C</text><text x="445" y="125" text-anchor="middle" style="fill:#b4becf;font:600 8px Inter,sans-serif;letter-spacing:1.2px">C</text><text x="445" y="170" text-anchor="middle" style="fill:#b4becf;font:italic 6px Fraunces,serif">constant</text>
                        <g transform="translate(111 105)">
                          <rect x="-12" y="-9" width="24" height="14" rx="2" fill="#d14859" fill-opacity="0.85" stroke="#d14859" stroke-width="1.2"></rect>
                          <text x="0" y="2" text-anchor="middle" style="fill:#0a0e1a;font:700 6px Inter,sans-serif">RAG</text>
                          <line x1="0" y1="6" x2="0" y2="32" stroke="#d14859" stroke-width="1.4" stroke-dasharray="2 2"></line>
                        </g>
      
                        <g transform="translate(243 105)">
                          <rect x="-12" y="-9" width="24" height="14" rx="2" fill="#d14859" fill-opacity="0.85" stroke="#d14859" stroke-width="1.2"></rect>
                          <text x="0" y="2" text-anchor="middle" style="fill:#0a0e1a;font:700 6px Inter,sans-serif">RAG</text>
                          <line x1="0" y1="6" x2="0" y2="32" stroke="#d14859" stroke-width="1.4" stroke-dasharray="2 2"></line>
                        </g>
      
                        <g transform="translate(335 105)">
                          <rect x="-12" y="-9" width="24" height="14" rx="2" fill="#d14859" fill-opacity="0.85" stroke="#d14859" stroke-width="1.2"></rect>
                          <text x="0" y="2" text-anchor="middle" style="fill:#0a0e1a;font:700 6px Inter,sans-serif">RAG</text>
                          <line x1="0" y1="6" x2="0" y2="32" stroke="#d14859" stroke-width="1.4" stroke-dasharray="2 2"></line>
                        </g>
                      </g>

                  <!-- Annotation -->
                  <text x="250" y="90" text-anchor="middle" style="fill:#d14859;font:600 8px Inter,sans-serif;letter-spacing:1.5px">RAG1 + RAG2 RECOGNIZE FLANKING SIGNALS · CUT</text>

                  <text x="250" y="252" text-anchor="middle" style="fill:#b4becf;font:italic 10px Fraunces,serif">RAG enzymes pick one V, one D, one J — randomly</text>

                  <!-- FOCUS · audio-aligned attention marker -->
                  <circle cx="250" cy="85" r="40" fill="none" stroke="#d14859" stroke-width="1.8" stroke-dasharray="3 2" opacity="0.85">
                    <animate attributeName="r" values="36;46;36" dur="2.4s" repeatCount="indefinite"/>
                    <animate attributeName="opacity" values="0.85;0.20;0.85" dur="2.4s" repeatCount="indefinite"/>
                  </circle>
</svg>
