<?xml version="1.0" encoding="UTF-8"?>
<!--
  Auto-generated from the reference HTML by
  scripts/storymode-extraction/extract.mjs.
  Do not edit by hand — regenerate the file instead.
-->
<svg xmlns="http://www.w3.org/2000/svg" xmlns:xlink="http://www.w3.org/1999/xlink" viewBox="0 0 500 260" preserveAspectRatio="xMidYMid meet">
                  <text x="20" y="16" style="fill:#e8a951;font:600 9px Inter,sans-serif;letter-spacing:2px">STEP 07 · THE ANSWER</text>

                  <!-- Ghosted: two viruses with shared antibodies -->
                  <g opacity="0.30">
                    <g transform="translate(140 130)" opacity="1"><rect x="-25" y="-16" width="50" height="32" rx="6" fill="#4fb8a8" fill-opacity="0.65" stroke="#4fb8a8" stroke-width="1.5"></rect><g stroke="#4fb8a8" stroke-width="1.4" fill="none" opacity="0.4"><rect x="-19" y="-10" width="38" height="20" rx="4"></rect></g><g fill="#9370b9" fill-opacity="0.95" stroke="#9370b9" stroke-width="0.8"><rect x="-20.5" y="-22" width="6" height="8" rx="1"></rect><rect x="-9" y="-22" width="6" height="8" rx="1"></rect><rect x="3" y="-22" width="6" height="8" rx="1"></rect><rect x="14.5" y="-22" width="6" height="8" rx="1"></rect></g></g>
                    <g transform="translate(360 130)" opacity="1"><rect x="-25" y="-16" width="50" height="32" rx="6" fill="#d14859" fill-opacity="0.65" stroke="#d14859" stroke-width="1.5"></rect><g stroke="#d14859" stroke-width="1.4" fill="none" opacity="0.4"><rect x="-19" y="-10" width="38" height="20" rx="4"></rect></g><g fill="#9370b9" fill-opacity="0.95" stroke="#9370b9" stroke-width="0.8"><rect x="-20.5" y="-22" width="6" height="8" rx="1"></rect><rect x="-9" y="-22" width="6" height="8" rx="1"></rect><rect x="3" y="-22" width="6" height="8" rx="1"></rect><rect x="14.5" y="-22" width="6" height="8" rx="1"></rect></g></g>
                    <g transform="translate(140 100) scale(0.85)" opacity="1"><g stroke="#e8a951" stroke-width="2.2" fill="none" stroke-linecap="round"><path d="M -8 -8 L -2 0 L 2 0 L 8 -8"></path><line x1="0" y1="0" x2="0" y2="10"></line></g><circle cx="-8" cy="-8" r="2.5" fill="#9370b9" stroke="none"></circle><circle cx="8" cy="-8" r="2.5" fill="#9370b9" stroke="none"></circle></g>
                    <g transform="translate(360 100) scale(0.85)" opacity="1"><g stroke="#e8a951" stroke-width="2.2" fill="none" stroke-linecap="round"><path d="M -8 -8 L -2 0 L 2 0 L 8 -8"></path><line x1="0" y1="0" x2="0" y2="10"></line></g><circle cx="-8" cy="-8" r="2.5" fill="#9370b9" stroke="none"></circle><circle cx="8" cy="-8" r="2.5" fill="#9370b9" stroke="none"></circle></g>
                    <line x1="170" y1="115" x2="330" y2="115" stroke="#e8a951" stroke-width="1.5" stroke-dasharray="3 2"></line>
                  </g>

                  <!-- Distractors crossed out -->
                  <g opacity="0.45" font-family="Inter,sans-serif">
                    <text x="40" y="65" style="fill:#6b7689;font:9px Inter,sans-serif">A · attenuated variola</text>
                    <line x1="36" y1="61" x2="170" y2="61" stroke="#d14859" stroke-width="1" opacity="0.85"></line>
                    <text x="190" y="65" style="fill:#6b7689;font:9px Inter,sans-serif">C · innate</text>
                    <line x1="186" y1="61" x2="265" y2="61" stroke="#d14859" stroke-width="1" opacity="0.85"></line>
                    <text x="285" y="65" style="fill:#6b7689;font:9px Inter,sans-serif">D · DNA integ</text>
                    <line x1="281" y1="61" x2="380" y2="61" stroke="#d14859" stroke-width="1" opacity="0.85"></line>
                    <text x="400" y="65" style="fill:#6b7689;font:9px Inter,sans-serif">E · antitoxin</text>
                    <line x1="396" y1="61" x2="485" y2="61" stroke="#d14859" stroke-width="1" opacity="0.85"></line>
                  </g>

                  <!-- Hero answer banner -->
                  <g transform="translate(250 215)">
                    <rect x="-225" y="-22" width="450" height="44" rx="10" fill="#e8a951" fill-opacity="0.42" stroke="#e8a951" stroke-width="2.6"></rect>
                    <text x="0" y="0" text-anchor="middle" style="fill:#e8a951;font:700 11px Inter,sans-serif;letter-spacing:1.5px">B · ANTIGENIC SIMILARITY →</text>
                    <text x="0" y="14" text-anchor="middle" style="fill:#e8a951;font:700 11px Inter,sans-serif;letter-spacing:1.5px">CROSS-PROTECTIVE IMMUNITY</text>
                  </g>

                  <text x="250" y="245" text-anchor="middle" style="fill:#e8a951;font:italic 600 7.5px Fraunces,serif">vaccinia and variola share orthopoxvirus antigens · one immune response covers both</text>

                  <!-- FOCUS · audio-aligned attention marker -->
                  <circle cx="250" cy="210" r="39" fill="none" stroke="#d14859" stroke-width="1.8" stroke-dasharray="3 2" opacity="0.85">
                    <animate attributeName="r" values="35;45;35" dur="2.4s" repeatCount="indefinite"/>
                    <animate attributeName="opacity" values="0.85;0.20;0.85" dur="2.4s" repeatCount="indefinite"/>
                  </circle>

                  <!-- FOCUS · audio-aligned attention marker -->
                  <circle cx="250" cy="224" r="38" fill="none" stroke="#d14859" stroke-width="1.8" stroke-dasharray="3 2" opacity="0.85">
                    <animate attributeName="r" values="34;44;34" dur="2.4s" repeatCount="indefinite"/>
                    <animate attributeName="opacity" values="0.85;0.20;0.85" dur="2.4s" repeatCount="indefinite"/>
                  </circle>
</svg>
