<?xml version="1.0" encoding="UTF-8"?>
<!--
  Auto-generated from the reference HTML by
  scripts/storymode-extraction/extract.mjs.
  Do not edit by hand — regenerate the file instead.
-->
<svg xmlns="http://www.w3.org/2000/svg" xmlns:xlink="http://www.w3.org/1999/xlink" viewBox="0 0 500 260" preserveAspectRatio="xMidYMid meet">
                  <text x="20" y="22" style="fill:#e8a951;font:600 10px Inter,sans-serif;letter-spacing:2px">STEP 07 · EPITHELIOID → LANGHANS GIANT CELL</text>

                  <path d="M 120 160 L 190 160" stroke="#e8a951" stroke-width="1.5" fill="none" stroke-dasharray="3 2"></path><polygon points="190,160 183,156 183,164" fill="#e8a951"></polygon><path d="M 280 160 L 355 160" stroke="#e8a951" stroke-width="1.5" fill="none" stroke-dasharray="3 2"></path><polygon points="355,160 348,156 348,164" fill="#e8a951"></polygon><g opacity="1"><circle cx="85" cy="75" r="22" fill="#6cc27d" fill-opacity="0.35" stroke="#6cc27d" stroke-width="1.6"></circle><ellipse cx="81" cy="73" rx="7" ry="5" fill="#4a2d60" opacity="0.75"></ellipse><text x="87" y="77" text-anchor="middle" style="fill:#e8ecf3;font:600 8px Inter,sans-serif">CD4</text>
                      <g fill="#e8a951" opacity="0.95">
                        <circle cx="107" cy="71" r="2.2"></circle>
                        <circle cx="115" cy="79" r="2.2"></circle>
                        <circle cx="107" cy="87" r="2"></circle>
                      </g>
                    </g><text x="85" y="105" text-anchor="middle" style="fill:#6cc27d;font:600 7px Inter,sans-serif;letter-spacing:1.2px">CD4 Th1</text>
                      <g fill="#e8a951" opacity="0.85">
                        <circle cx="120" cy="105" r="2"></circle>
                        <circle cx="160" cy="100" r="2"></circle>
                        <circle cx="200" cy="105" r="2"></circle>
                        <circle cx="240" cy="100" r="2"></circle>
                        <circle cx="280" cy="105" r="2"></circle>
                        <circle cx="320" cy="100" r="2"></circle>
                        <circle cx="360" cy="105" r="2"></circle>
                      </g>
                    <path d="M 110 110 L 380 110" stroke="#e8a951" stroke-width="1.4" fill="none" stroke-dasharray="3 2" opacity="0.8"></path><polygon points="380,110 372,106 372,114" fill="#e8a951"></polygon><text x="245" y="100" text-anchor="middle" style="fill:#e8a951;font:600 7px Inter,sans-serif;letter-spacing:1.5px">SUSTAINED IFN-γ</text><g opacity="1"><circle cx="85" cy="160" r="30" fill="#9370b9" fill-opacity="0.35" stroke="#9370b9" stroke-width="1.6"></circle><ellipse cx="82" cy="158" rx="9" ry="7" fill="#4a2d60" opacity="0.75"></ellipse></g><text x="85" y="200" text-anchor="middle" style="fill:#9370b9;font:600 7px Inter,sans-serif;letter-spacing:1.2px">MACROPHAGE</text><g opacity="1"><ellipse cx="235" cy="160" rx="38" ry="18" fill="#e8a951" fill-opacity="0.30" stroke="#e8a951" stroke-width="1.6"></ellipse><ellipse cx="233" cy="160" rx="11" ry="6" fill="#4a2d60" opacity="0.85"></ellipse></g><text x="235" y="200" text-anchor="middle" style="fill:#e8a951;font:600 7px Inter,sans-serif;letter-spacing:1.2px">EPITHELIOID HISTIOCYTE</text><g opacity="1"><circle cx="410" cy="160" r="48" fill="#e8a951" fill-opacity="0.30" stroke="#e8a951" stroke-width="2"></circle><ellipse cx="387.93826842697973" cy="137.9382684269797" rx="6" ry="5" fill="#4a2d60" opacity="0.8"></ellipse><ellipse cx="399.32897152823915" cy="130.68159023147965" rx="6" ry="5" fill="#4a2d60" opacity="0.8"></ellipse><ellipse cx="412.7192591737269" cy="128.91872541953754" rx="6" ry="5" fill="#4a2d60" opacity="0.8"></ellipse><ellipse cx="425.6" cy="132.98000740192552" rx="6" ry="5" fill="#4a2d60" opacity="0.8"></ellipse><ellipse cx="435.55754378181655" cy="142.10441518584736" rx="6" ry="5" fill="#4a2d60" opacity="0.8"></ellipse><ellipse cx="378.8" cy="160" rx="6" ry="5" fill="#4a2d60" opacity="0.8"></ellipse><ellipse cx="379.8631142197811" cy="168.07515420719866" rx="6" ry="5" fill="#4a2d60" opacity="0.8"></ellipse><ellipse cx="382.9800074019255" cy="175.6" rx="6" ry="5" fill="#4a2d60" opacity="0.8"></ellipse></g><text x="410" y="220" text-anchor="middle" style="fill:#e8a951;font:600 7px Inter,sans-serif;letter-spacing:1.2px">LANGHANS GIANT CELL</text><circle cx="410" cy="160" r="56" fill="none" stroke="#e8a951" stroke-width="1.5" stroke-dasharray="3 2"></circle>

                  <!-- Fusion annotation -->
                  <g transform="translate(295 130)">
                    <rect x="-30" y="-10" width="60" height="20" rx="3" fill="#e8a951" fill-opacity="0.25" stroke="#e8a951" stroke-width="1.2"></rect>
                    <text x="0" y="3" text-anchor="middle" style="fill:#e8a951;font:600 7px Inter,sans-serif;letter-spacing:1.2px">FUSION</text>
                  </g>

                  <text x="250" y="252" text-anchor="middle" style="fill:#b4becf;font:italic 10px Fraunces,serif">epithelioid cells fuse together · multiple nuclei in a horseshoe arrangement</text>
              
                  
              
                  <!-- FOCUS · audio-aligned attention marker -->
                  <circle cx="410" cy="215" r="28" fill="none" stroke="#d14859" stroke-width="1.8" stroke-dasharray="3 2" opacity="0.85">
                    <animate attributeName="r" values="24;34;24" dur="2.4s" repeatCount="indefinite"/>
                    <animate attributeName="opacity" values="0.85;0.20;0.85" dur="2.4s" repeatCount="indefinite"/>
                  </circle>

                  <!-- FOCUS · audio-aligned attention marker -->
                  <circle cx="295" cy="128" r="20" fill="none" stroke="#d14859" stroke-width="1.8" stroke-dasharray="3 2" opacity="0.85">
                    <animate attributeName="r" values="16;26;16" dur="2.4s" repeatCount="indefinite"/>
                    <animate attributeName="opacity" values="0.85;0.20;0.85" dur="2.4s" repeatCount="indefinite"/>
                  </circle>
              </svg>
