<?xml version="1.0" encoding="UTF-8"?>
<!--
  Auto-generated from the reference HTML by
  scripts/storymode-extraction/extract.mjs.
  Do not edit by hand — regenerate the file instead.
-->
<svg xmlns="http://www.w3.org/2000/svg" xmlns:xlink="http://www.w3.org/1999/xlink" viewBox="0 0 500 260" preserveAspectRatio="xMidYMid meet">
<text x="20" y="16" style="fill:#e8a951;font:600 9px Inter,sans-serif;letter-spacing:2px">STEP 02 · MOM'S B CELLS → ANTI-D IgG + MEMORY</text><g>
    <rect x="20" y="30" width="170" height="16" rx="8" fill="rgba(79, 184, 168, 0.18)" stroke="#4fb8a8" stroke-width="1"/>
    <text x="105" y="41" text-anchor="middle" style="fill:#4fb8a8;font:700 8px Inter,sans-serif;letter-spacing:1.5px">PREGNANCY 1 · sensitization</text>
  </g><g opacity="1">
    <!-- Maternal label -->
    <text x="20" y="62" style="fill:#b4becf;font:600 7px 'JetBrains Mono',monospace;letter-spacing:1.5px">MATERNAL</text>
    <!-- vessel band -->
    <line x1="20" y1="78" x2="480" y2="78" stroke="#d14859" stroke-width="1.3" opacity="0.85"/>
    <line x1="20" y1="105" x2="480" y2="105" stroke="#d14859" stroke-width="1.3" opacity="0.85"/>
    <rect x="20" y="78" width="460" height="27" fill="#d14859" opacity="0.08"/><g transform="translate(60 91)">
      <ellipse cx="0" cy="0" rx="11" ry="9" fill="#9370b9" opacity="0.5" stroke="#9370b9" stroke-width="1.3"/>
      <ellipse cx="-2" cy="-1" rx="4" ry="3.5" fill="#9370b9" opacity="0.9"/>
      <g stroke="#9370b9" stroke-width="0.6" opacity="0.7">
        <line x1="-3" y1="-3" x2="-1" y2="-1"/>
        <line x1="3" y1="-3" x2="1" y2="-1"/>
        <line x1="3" y1="3" x2="1" y2="1"/>
        <line x1="-3" y1="3" x2="-1" y2="1"/>
      </g>
    </g>
    <text x="60" y="73" text-anchor="middle" style="fill:#9370b9;font:600 7px Inter,sans-serif">plasma cell + memory</text></g><g><g transform="translate(160 92)">
      <line x1="0" y1="0" x2="0" y2="-3" stroke="#e8a951" stroke-width="1.4"/>
      <line x1="0" y1="-3" x2="-2.5" y2="-6" stroke="#e8a951" stroke-width="1.4"/>
      <line x1="0" y1="-3" x2="2.5" y2="-6" stroke="#e8a951" stroke-width="1.4"/>
    </g><g transform="translate(200 96)">
      <line x1="0" y1="0" x2="0" y2="-3" stroke="#e8a951" stroke-width="1.4"/>
      <line x1="0" y1="-3" x2="-2.5" y2="-6" stroke="#e8a951" stroke-width="1.4"/>
      <line x1="0" y1="-3" x2="2.5" y2="-6" stroke="#e8a951" stroke-width="1.4"/>
    </g><text x="478" y="73" text-anchor="end" style="fill:#e8a951;font:600 7px Inter,sans-serif">anti-D IgG</text></g><g opacity="1">
    <!-- placenta band — striped pattern -->
    <line x1="20" y1="113" x2="480" y2="113" stroke="#b4becf" stroke-width="0.8" opacity="0.45" stroke-dasharray="3 2"/>
    <line x1="20" y1="119" x2="480" y2="119" stroke="#b4becf" stroke-width="0.8" opacity="0.45" stroke-dasharray="3 2"/>
    <text x="250" y="118" text-anchor="middle" style="fill:#6b7689;font:600 6.5px 'JetBrains Mono',monospace;letter-spacing:1.5px">PLACENTA</text></g><g opacity="1">
    <text x="20" y="135" style="fill:#b4becf;font:600 7px 'JetBrains Mono',monospace;letter-spacing:1.5px">FETAL</text>
    <!-- vessel band -->
    <line x1="20" y1="148" x2="480" y2="148" stroke="#d14859" stroke-width="1.3" opacity="0.85"/>
    <line x1="20" y1="175" x2="480" y2="175" stroke="#d14859" stroke-width="1.3" opacity="0.85"/>
    <rect x="20" y="148" width="460" height="27" fill="#d14859" opacity="0.08"/><g transform="translate(60 161)" opacity="0.7">
      <path d="M -10 -5 Q -12 0 -8 6 Q 0 9 8 6 Q 12 0 10 -5 Q 5 -10 0 -8 Q -5 -10 -10 -5 Z" fill="#4fb8a8" opacity="0.45" stroke="#4fb8a8" stroke-width="1.2"/>
      <text x="0" y="22" text-anchor="middle" style="fill:#4fb8a8;font:600 6.5px Inter,sans-serif;letter-spacing:0.8px">FETAL SPLEEN</text>
    </g></g>

                  <!-- FOCUS · audio-aligned attention marker -->
                  <circle cx="478" cy="68" r="20" fill="none" stroke="#d14859" stroke-width="1.8" stroke-dasharray="3 2" opacity="0.85">
                    <animate attributeName="r" values="16;26;16" dur="2.4s" repeatCount="indefinite"/>
                    <animate attributeName="opacity" values="0.85;0.20;0.85" dur="2.4s" repeatCount="indefinite"/>
                  </circle>
</svg>
