<?xml version="1.0" encoding="UTF-8"?>
<!--
  Auto-generated from the reference HTML by
  scripts/storymode-extraction/extract.mjs.
  Do not edit by hand — regenerate the file instead.
-->
<svg xmlns="http://www.w3.org/2000/svg" xmlns:xlink="http://www.w3.org/1999/xlink" viewBox="0 0 500 260" preserveAspectRatio="xMidYMid meet">
                  <text x="20" y="22" style="fill:#e8a951;font:600 10px Inter,sans-serif;letter-spacing:2px">STEP 11 · PERFORIN + GRANZYMES RELEASED</text>

  
                    <g opacity="1">
                      <path d="M 80 95 Q 65 130 75 170 Q 90 205 140 215 Q 200 220 255 210 Q 290 200 295 165 Q 300 125 285 95 Q 260 70 200 65 Q 130 65 80 95 Z" fill="#4fb8a8" fill-opacity="0.18" stroke="#4fb8a8" stroke-width="1.6"></path>
                  <ellipse cx="155" cy="135" rx="32" ry="24" fill="#4a2d60" opacity="0.55"></ellipse><text x="180" y="240" text-anchor="middle" style="fill:#4fb8a8;font:600 8px Inter,sans-serif;letter-spacing:1.2px">EPITHELIAL CELL</text></g>
                    <g transform="translate(120 105)" opacity="1">
                      <circle cx="0" cy="0" r="9" fill="#d14859" fill-opacity="0.75" stroke="#d14859" stroke-width="1.4"></circle>
                      <g fill="#d14859">
                        <circle cx="-9" cy="-4" r="2"></circle>
                        <circle cx="9" cy="-4" r="2"></circle>
                        <circle cx="-9" cy="6" r="2"></circle>
                        <circle cx="9" cy="6" r="2"></circle>
                      </g>
                      <text x="0" y="3" text-anchor="middle" style="fill:#0a0e1a;font:700 7px Inter,sans-serif">V</text>
                    </g>
  
                    <g transform="translate(220 115)" opacity="1">
                      <circle cx="0" cy="0" r="9" fill="#d14859" fill-opacity="0.75" stroke="#d14859" stroke-width="1.4"></circle>
                      <g fill="#d14859">
                        <circle cx="-9" cy="-4" r="2"></circle>
                        <circle cx="9" cy="-4" r="2"></circle>
                        <circle cx="-9" cy="6" r="2"></circle>
                        <circle cx="9" cy="6" r="2"></circle>
                      </g>
                      <text x="0" y="3" text-anchor="middle" style="fill:#0a0e1a;font:700 7px Inter,sans-serif">V</text>
                    </g>
  
                    <g transform="translate(200 185)" opacity="1">
                      <circle cx="0" cy="0" r="9" fill="#d14859" fill-opacity="0.75" stroke="#d14859" stroke-width="1.4"></circle>
                      <g fill="#d14859">
                        <circle cx="-9" cy="-4" r="2"></circle>
                        <circle cx="9" cy="-4" r="2"></circle>
                        <circle cx="-9" cy="6" r="2"></circle>
                        <circle cx="9" cy="6" r="2"></circle>
                      </g>
                      <text x="0" y="3" text-anchor="middle" style="fill:#0a0e1a;font:700 7px Inter,sans-serif">V</text>
                    </g>
  
                    <g transform="translate(75 110) rotate(-90)" opacity="1">
                      <path d="M -12 0 L 12 0 L 14 8 L 8 8 L 6 4 L -6 4 L -8 8 L -14 8 Z" fill="#e8a951" fill-opacity="0.85" stroke="#e8a951" stroke-width="1.2"></path>
                  <circle cx="-3" cy="-2.5" r="2" fill="#6cc27d"></circle><circle cx="0" cy="-2.5" r="2" fill="#6cc27d"></circle><circle cx="3" cy="-2.5" r="2" fill="#6cc27d"></circle></g>
                    <g transform="translate(290 105) rotate(90)" opacity="1">
                      <path d="M -12 0 L 12 0 L 14 8 L 8 8 L 6 4 L -6 4 L -8 8 L -14 8 Z" fill="#e8a951" fill-opacity="0.85" stroke="#e8a951" stroke-width="1.2"></path>
                  <circle cx="-3" cy="-2.5" r="2" fill="#d14859"></circle><circle cx="0" cy="-2.5" r="2" fill="#d14859"></circle><circle cx="3" cy="-2.5" r="2" fill="#d14859"></circle></g>
                    <g transform="translate(295 145) rotate(90)" opacity="1">
                      <path d="M -12 0 L 12 0 L 14 8 L 8 8 L 6 4 L -6 4 L -8 8 L -14 8 Z" fill="#e8a951" fill-opacity="0.85" stroke="#e8a951" stroke-width="1.2"></path>
                  <circle cx="-3" cy="-2.5" r="2" fill="#6cc27d"></circle><circle cx="0" cy="-2.5" r="2" fill="#6cc27d"></circle><circle cx="3" cy="-2.5" r="2" fill="#6cc27d"></circle></g>
                    <g transform="translate(290 185) rotate(90)" opacity="1">
                      <path d="M -12 0 L 12 0 L 14 8 L 8 8 L 6 4 L -6 4 L -8 8 L -14 8 Z" fill="#e8a951" fill-opacity="0.85" stroke="#e8a951" stroke-width="1.2"></path>
                  <circle cx="-3" cy="-2.5" r="2" fill="#d14859"></circle><circle cx="0" cy="-2.5" r="2" fill="#d14859"></circle><circle cx="3" cy="-2.5" r="2" fill="#d14859"></circle></g>
                    <g transform="translate(95 195) rotate(-90)" opacity="1">
                      <path d="M -12 0 L 12 0 L 14 8 L 8 8 L 6 4 L -6 4 L -8 8 L -14 8 Z" fill="#e8a951" fill-opacity="0.85" stroke="#e8a951" stroke-width="1.2"></path>
                  <circle cx="-3" cy="-2.5" r="2" fill="#6cc27d"></circle><circle cx="0" cy="-2.5" r="2" fill="#6cc27d"></circle><circle cx="3" cy="-2.5" r="2" fill="#6cc27d"></circle></g>
                      <g transform="translate(410 145)" opacity="1">
                        <circle cx="0" cy="0" r="38" fill="#6cc27d" fill-opacity="0.32" stroke="#6cc27d" stroke-width="1.8"></circle>
                        <ellipse cx="-5" cy="-3" rx="10" ry="8" fill="#1a2030" opacity="0.7"></ellipse>
                        <!-- cytotoxic granules inside -->
                        <g fill="#e8a951" opacity="0.85">
                          <circle cx="10" cy="6" r="2.5"></circle>
                          <circle cx="6" cy="14" r="2.2"></circle>
                          <circle cx="14" cy="-4" r="2.2"></circle>
                          <circle cx="10" cy="-12" r="2"></circle>
                        </g>
                        <text x="0" y="55" text-anchor="middle" style="fill:#6cc27d;font:600 9px Inter,sans-serif;letter-spacing:1.5px">CD8 T CELL</text>
                        <!-- TCR pointing left toward the cell -->
                        <g transform="translate(-38 0)">
                          <path d="M 0 0 L 12 -7 L 12 7 Z" fill="#e8a951" opacity="0.95" transform="rotate(180)"></path>
                          <text x="6" y="-12" text-anchor="middle" style="fill:#e8a951;font:600 8px Inter,sans-serif">TCR</text>
                        </g>
                      </g>
    
                      <g fill="#e8a951" opacity="0.95">
                        <circle cx="365" cy="138" r="2.5"></circle>
                        <circle cx="350" cy="148" r="2.5"></circle>
                        <circle cx="358" cy="155" r="2"></circle>
                        <circle cx="355" cy="135" r="2"></circle>
                      </g>
                      <text x="350" y="118" text-anchor="middle" style="fill:#e8a951;font:600 7px Inter,sans-serif;letter-spacing:1.5px">PERFORIN + GRANZYMES</text>
    

                  <text x="250" y="252" text-anchor="middle" style="fill:#b4becf;font:italic 10px Fraunces,serif">cytotoxic granules cross into the infected cell</text>

                  <!-- FOCUS · audio-aligned attention marker -->
                  <circle cx="350" cy="113" r="30" fill="none" stroke="#d14859" stroke-width="1.8" stroke-dasharray="3 2" opacity="0.85">
                    <animate attributeName="r" values="26;36;26" dur="2.4s" repeatCount="indefinite"/>
                    <animate attributeName="opacity" values="0.85;0.20;0.85" dur="2.4s" repeatCount="indefinite"/>
                  </circle>
</svg>
