<?xml version="1.0" encoding="UTF-8"?>
<!--
  Auto-generated from the reference HTML by
  scripts/storymode-extraction/extract.mjs.
  Do not edit by hand — regenerate the file instead.
-->
<svg xmlns="http://www.w3.org/2000/svg" xmlns:xlink="http://www.w3.org/1999/xlink" viewBox="0 0 500 260" preserveAspectRatio="xMidYMid meet">
<text x="20" y="16" style="fill:#e8a951;font:600 9px Inter,sans-serif;letter-spacing:2px">STEP 01 · ARS · 2-4 WK POST-EXPOSURE</text>

<!-- Patient figure with multiple ARS findings -->
<g transform="translate(135 145)">
  <text x="0" y="-100" text-anchor="middle" style="fill:#9370b9;font:700 9px Inter,sans-serif;letter-spacing:1.5px">ACUTE PATIENT</text>
  
  <!-- Head with sweat droplets (fever) -->
  <circle cx="0" cy="-72" r="20" fill="rgba(232,169,81,0.45)" stroke="#e8a951" stroke-width="1.4"/>
  <!-- Sweat -->
  <g fill="rgba(79,184,168,0.85)">
    <ellipse cx="-22" cy="-78" rx="2" ry="3.5"/>
    <ellipse cx="22" cy="-78" rx="2" ry="3.5"/>
    <ellipse cx="0" cy="-95" rx="2" ry="3.5"/>
  </g>
  <!-- Open mouth (pharyngitis) -->
  <ellipse cx="0" cy="-62" rx="6" ry="3" fill="rgba(209,72,89,0.85)" stroke="#d14859" stroke-width="0.8"/>
  
  <!-- Body -->
  <path d="M -28 -52 L 28 -52 L 30 50 L -30 50 Z" fill="rgba(180,190,207,0.20)" stroke="#b4becf" stroke-width="1.4"/>
  
  <!-- Cervical lymph nodes -->
  <g fill="rgba(147,112,185,0.85)" stroke="#9370b9" stroke-width="0.8">
    <ellipse cx="-15" cy="-46" rx="4" ry="3"/>
    <ellipse cx="15" cy="-46" rx="4" ry="3"/>
  </g>
  
  <!-- Maculopapular rash on torso (red dots) -->
  <g fill="rgba(209,72,89,0.85)" stroke="#d14859" stroke-width="0.4">
    <circle cx="-15" cy="-32" r="2"/>
    <circle cx="-5" cy="-25" r="2"/>
    <circle cx="8" cy="-30" r="2"/>
    <circle cx="-20" cy="-15" r="2"/>
    <circle cx="-8" cy="-10" r="2"/>
    <circle cx="5" cy="-15" r="2"/>
    <circle cx="18" cy="-12" r="2"/>
    <circle cx="-15" cy="0" r="2"/>
    <circle cx="0" cy="5" r="2"/>
    <circle cx="14" cy="0" r="2"/>
    <circle cx="-18" cy="15" r="2"/>
    <circle cx="-3" cy="20" r="2"/>
    <circle cx="13" cy="15" r="2"/>
    <circle cx="-10" cy="32" r="2"/>
    <circle cx="10" cy="35" r="2"/>
  </g>
  
  <!-- Thermometer reading -->
  <g transform="translate(45 -15)">
    <rect x="-2" y="-22" width="4" height="22" fill="#3a4358" stroke="#6b7689" stroke-width="0.8"/>
    <circle cx="0" cy="3" r="4" fill="rgba(209,72,89,0.95)"/>
    <rect x="-1" y="-15" width="2" height="14" fill="rgba(209,72,89,0.95)"/>
    <text x="10" y="-10" style="fill:#d14859;font:700 7px 'JetBrains Mono',monospace">39°C</text>
  </g>
</g>

<!-- Findings panels on right -->
<g transform="translate(355 75)">
  <rect x="-100" y="-13" width="200" height="26" rx="5" fill="rgba(209,72,89,0.20)" stroke="#d14859" stroke-width="1.4"/>
  <text x="-85" y="3" style="fill:#d14859;font:700 8px Inter,sans-serif;letter-spacing:1.2px">FEVER 39°C</text>
</g>
<g transform="translate(355 110)">
  <rect x="-100" y="-13" width="200" height="26" rx="5" fill="rgba(209,72,89,0.20)" stroke="#d14859" stroke-width="1.4"/>
  <text x="-85" y="3" style="fill:#d14859;font:700 8px Inter,sans-serif;letter-spacing:1.2px">PHARYNGITIS</text>
</g>
<g transform="translate(355 145)">
  <rect x="-100" y="-13" width="200" height="26" rx="5" fill="rgba(147,112,185,0.20)" stroke="#9370b9" stroke-width="1.4"/>
  <text x="-85" y="3" style="fill:#9370b9;font:700 8px Inter,sans-serif;letter-spacing:1.2px">LYMPHADENOPATHY</text>
</g>
<g transform="translate(355 180)">
  <rect x="-100" y="-13" width="200" height="26" rx="5" fill="rgba(209,72,89,0.20)" stroke="#d14859" stroke-width="1.4"/>
  <text x="-85" y="3" style="fill:#d14859;font:700 8px Inter,sans-serif;letter-spacing:1.2px">MACULOPAPULAR RASH</text>
</g>
<g transform="translate(355 215)">
  <rect x="-100" y="-13" width="200" height="26" rx="5" fill="rgba(232,169,81,0.20)" stroke="#e8a951" stroke-width="1.4"/>
  <text x="-85" y="3" style="fill:#e8a951;font:700 8px Inter,sans-serif;letter-spacing:1.2px">MALAISE · HEADACHE</text>
</g>

<text x="250" y="245" text-anchor="middle" style="fill:#6b7689;font:italic 7.5px Fraunces,serif">"The worst flu of my life" · 50-90% of new infections · often missed</text>

                  <!-- FOCUS · audio-aligned attention marker -->
                  <circle cx="135" cy="40" r="20" fill="none" stroke="#d14859" stroke-width="1.8" stroke-dasharray="3 2" opacity="0.85">
                    <animate attributeName="r" values="16;26;16" dur="2.4s" repeatCount="indefinite"/>
                    <animate attributeName="opacity" values="0.85;0.20;0.85" dur="2.4s" repeatCount="indefinite"/>
                  </circle>
</svg>
