<?xml version="1.0" encoding="UTF-8"?>
<!--
  Auto-generated from the reference HTML by
  scripts/storymode-extraction/extract.mjs.
  Do not edit by hand — regenerate the file instead.
-->
<svg xmlns="http://www.w3.org/2000/svg" xmlns:xlink="http://www.w3.org/1999/xlink" viewBox="0 0 500 260" preserveAspectRatio="xMidYMid meet">
<text x="20" y="16" style="fill:#e8a951;font:600 9px Inter,sans-serif;letter-spacing:2px">STEP 08 · ANSWER · D · CD4 + MACROPHAGE + IFN-γ</text><g opacity="1">
    <!-- two phase bands separated by gap -->
    <rect x="20" y="38" width="190" height="8" fill="#6b7689" opacity="0.18"/>
    <rect x="290" y="38" width="190" height="8" fill="#d14859" opacity="0.18"/>
    <!-- "years later" gap label between -->
    <text x="250" y="44.5" text-anchor="middle" style="fill:#6b7689;font:600 6.5px 'JetBrains Mono',monospace;letter-spacing:1.5px">YEARS LATER ⋯⋯</text>
    <!-- inline phase tags -->
    <text x="22" y="44.5" style="fill:#6b7689;font:700 6px 'JetBrains Mono',monospace;letter-spacing:1.2px">FIRST ►</text>
    <text x="478" y="44.5" text-anchor="end" style="fill:#d14859;font:700 6px 'JetBrains Mono',monospace;letter-spacing:1.2px">◄ RE-EXPOSURE</text>
    <line x1="20" y1="42" x2="210" y2="42" stroke="#3a4358" stroke-width="1" opacity="0.6"/>
    <line x1="290" y1="42" x2="480" y2="42" stroke="#3a4358" stroke-width="1" opacity="0.6"/>
    <!-- ticks (only key landmarks: CONTACT and CONTACT 2 + 48H) -->
    <g style="font:6.5px 'JetBrains Mono',monospace;letter-spacing:1px;fill:#6b7689">
      <line x1="90"  y1="38" x2="90"  y2="46" stroke="#6b7689" stroke-width="0.8"/>
      <text x="90"  y="34" text-anchor="middle">CONTACT 1</text>
      <line x1="320"  y1="38" x2="320"  y2="46" stroke="#6b7689" stroke-width="0.8"/>
      <text x="320"  y="34" text-anchor="middle">CONTACT 2</text>
      <line x1="440" y1="38" x2="440" y2="46" stroke="#6b7689" stroke-width="0.8"/>
      <text x="440" y="34" text-anchor="middle">+ 48 H</text>
    </g>
    <circle cx="440" cy="42" r="3.5" fill="#e8a951"/>
    <circle cx="440" cy="42" r="6" fill="#e8a951" opacity="0.3"/>
  </g><g opacity="1">
    <line x1="20" y1="70"  x2="480" y2="70"  stroke="#b4becf" stroke-width="1" opacity="0.4"/>
    <line x1="20" y1="160" x2="480" y2="160" stroke="#b4becf" stroke-width="1" opacity="0.4"/>
    <rect x="20" y="70" width="460" height="90" fill="#b4becf" opacity="0.04"/>
    <text x="22" y="65" style="fill:#6b7689;font:600 7px 'JetBrains Mono',monospace;letter-spacing:1.5px">EPIDERMIS</text>
    <text x="22" y="173" style="fill:#6b7689;font:600 7px 'JetBrains Mono',monospace;letter-spacing:1.5px">DERMIS</text><circle cx="100" cy="65" r="4" fill="#e8a951" opacity="0.4" stroke="#e8a951" stroke-width="0.7"/>
              <circle cx="99" cy="64" r="1.6" fill="#e8ecf3" opacity="0.5"/><circle cx="145" cy="63" r="5" fill="#e8a951" opacity="0.4" stroke="#e8a951" stroke-width="0.7"/>
              <circle cx="144" cy="62" r="2" fill="#e8ecf3" opacity="0.5"/><circle cx="200" cy="65" r="4" fill="#e8a951" opacity="0.4" stroke="#e8a951" stroke-width="0.7"/>
              <circle cx="199" cy="64" r="1.6" fill="#e8ecf3" opacity="0.5"/><circle cx="250" cy="63" r="5" fill="#e8a951" opacity="0.4" stroke="#e8a951" stroke-width="0.7"/>
              <circle cx="249" cy="62" r="2" fill="#e8ecf3" opacity="0.5"/><circle cx="305" cy="65" r="5" fill="#e8a951" opacity="0.4" stroke="#e8a951" stroke-width="0.7"/>
              <circle cx="304" cy="64" r="2" fill="#e8ecf3" opacity="0.5"/><circle cx="360" cy="63" r="4" fill="#e8a951" opacity="0.4" stroke="#e8a951" stroke-width="0.7"/>
              <circle cx="359" cy="62" r="1.6" fill="#e8ecf3" opacity="0.5"/><text x="475" y="65" text-anchor="end" style="fill:#e8a951;font:italic 7.5px Fraunces,serif">vesicular weeping dermatitis</text></g><g transform="translate(220 130)">
    <circle cx="0" cy="0" r="11" fill="#4fb8a8" opacity="0.4" stroke="#4fb8a8" stroke-width="1.4"/>
    <ellipse cx="0" cy="0" rx="4" ry="3.5" fill="#4fb8a8" opacity="0.85"/><g stroke="#e8a951" stroke-width="1.1" fill="none">
      <line x1="-3" y1="-9" x2="-3" y2="-13"/>
      <line x1="3" y1="-9" x2="3" y2="-13"/>
    </g></g>
  <text x="220" y="151" text-anchor="middle" style="fill:#4fb8a8;font:600 7px Inter,sans-serif;letter-spacing:1px">Th1 CD4</text><text x="220" y="116" text-anchor="middle" style="fill:#4fb8a8;font:italic 6.5px Fraunces,serif">CD4+</text><circle cx="340" cy="130" r="22" fill="#4fb8a8" opacity="0.12"/><g transform="translate(340 130)">
    <path d="M -14 -8 Q -18 0 -14 8 Q 0 14 14 8 Q 18 0 14 -8 Q 6 -14 -2 -13 Q -10 -14 -14 -8 Z"
          fill="#4fb8a8" opacity="0.65" stroke="#4fb8a8" stroke-width="1.6"/>
    <ellipse cx="-1" cy="0" rx="4" ry="3" fill="#2d8a7c" opacity="0.95"/>
  </g>
  <text x="340" y="153" text-anchor="middle" style="fill:#4fb8a8;font:600 7px Inter,sans-serif;letter-spacing:1px">ACTIVATED Mφ</text><g><circle cx="248" cy="128" r="2.2" fill="#e8a951"/>
            <circle cx="248" cy="128" r="3.6" fill="#e8a951" opacity="0.3"/><circle cx="268" cy="131" r="2.2" fill="#e8a951"/>
            <circle cx="268" cy="131" r="3.6" fill="#e8a951" opacity="0.3"/><circle cx="288" cy="127" r="2.2" fill="#e8a951"/>
            <circle cx="288" cy="127" r="3.6" fill="#e8a951" opacity="0.3"/><circle cx="308" cy="132" r="2.2" fill="#e8a951"/>
            <circle cx="308" cy="132" r="3.6" fill="#e8a951" opacity="0.3"/><circle cx="325" cy="128" r="2.2" fill="#e8a951"/>
            <circle cx="325" cy="128" r="3.6" fill="#e8a951" opacity="0.3"/><line x1="232" y1="130" x2="328" y2="130" stroke="#e8a951" stroke-width="0.6" stroke-dasharray="1.5 2" opacity="0.5"/>
          <text x="280" y="115" text-anchor="middle" style="fill:#e8a951;font:600 7.5px Inter,sans-serif">IFN-γ</text></g><g transform="translate(17 220)">
      <rect x="0" y="0" width="90" height="26" rx="13" fill="transparent" stroke="#3a4358" stroke-width="1"/>
      <circle cx="13" cy="13" r="8" fill="transparent" stroke="#3a4358" stroke-width="1.2"/>
      <text x="13" y="16.5" text-anchor="middle" style="fill:#6b7689;font:700 9px Inter,sans-serif">A</text>
      <text x="26" y="17" style="fill:#6b7689;font:8.5px Inter,sans-serif">eosino/IL-5</text>
      <line x1="26" y1="13" x2="84" y2="13" stroke="#6b7689" stroke-width="0.7" opacity="0.7"/>
    </g><g transform="translate(111 220)">
      <rect x="0" y="0" width="90" height="26" rx="13" fill="transparent" stroke="#3a4358" stroke-width="1"/>
      <circle cx="13" cy="13" r="8" fill="transparent" stroke="#3a4358" stroke-width="1.2"/>
      <text x="13" y="16.5" text-anchor="middle" style="fill:#6b7689;font:700 9px Inter,sans-serif">B</text>
      <text x="26" y="17" style="fill:#6b7689;font:8.5px Inter,sans-serif">mast/histamine</text>
      <line x1="26" y1="13" x2="84" y2="13" stroke="#6b7689" stroke-width="0.7" opacity="0.7"/>
    </g><g transform="translate(205 220)">
      <rect x="0" y="0" width="90" height="26" rx="13" fill="transparent" stroke="#3a4358" stroke-width="1"/>
      <circle cx="13" cy="13" r="8" fill="transparent" stroke="#3a4358" stroke-width="1.2"/>
      <text x="13" y="16.5" text-anchor="middle" style="fill:#6b7689;font:700 9px Inter,sans-serif">C</text>
      <text x="26" y="17" style="fill:#6b7689;font:8.5px Inter,sans-serif">neutro/C5a</text>
      <line x1="26" y1="13" x2="84" y2="13" stroke="#6b7689" stroke-width="0.7" opacity="0.7"/>
    </g><g transform="translate(299 220)">
      <rect x="0" y="0" width="90" height="26" rx="13" fill="rgba(232, 169, 81, 0.18)" stroke="#e8a951" stroke-width="1.8"/>
      <circle cx="13" cy="13" r="8" fill="#e8a951" stroke="#e8a951" stroke-width="1.2"/>
      <text x="13" y="16.5" text-anchor="middle" style="fill:#0a0e1a;font:700 9px Inter,sans-serif">D</text>
      <text x="26" y="17" style="fill:#e8a951;font:8.5px Inter,sans-serif">CD4 + Mφ + IFN</text>

    </g><g transform="translate(393 220)">
      <rect x="0" y="0" width="90" height="26" rx="13" fill="transparent" stroke="#3a4358" stroke-width="1"/>
      <circle cx="13" cy="13" r="8" fill="transparent" stroke="#3a4358" stroke-width="1.2"/>
      <text x="13" y="16.5" text-anchor="middle" style="fill:#6b7689;font:700 9px Inter,sans-serif">E</text>
      <text x="26" y="17" style="fill:#6b7689;font:8.5px Inter,sans-serif">plasma/IgG</text>
      <line x1="26" y1="13" x2="84" y2="13" stroke="#6b7689" stroke-width="0.7" opacity="0.7"/>
    </g>

                  <!-- FOCUS · audio-aligned attention marker -->
                  <circle cx="325" cy="232" r="21" fill="none" stroke="#d14859" stroke-width="1.8" stroke-dasharray="3 2" opacity="0.85">
                    <animate attributeName="r" values="17;27;17" dur="2.4s" repeatCount="indefinite"/>
                    <animate attributeName="opacity" values="0.85;0.20;0.85" dur="2.4s" repeatCount="indefinite"/>
                  </circle>

                  <!-- FOCUS · audio-aligned attention marker -->
                  <circle cx="280" cy="110" r="20" fill="none" stroke="#d14859" stroke-width="1.8" stroke-dasharray="3 2" opacity="0.85">
                    <animate attributeName="r" values="16;26;16" dur="2.4s" repeatCount="indefinite"/>
                    <animate attributeName="opacity" values="0.85;0.20;0.85" dur="2.4s" repeatCount="indefinite"/>
                  </circle>
</svg>
