<?xml version="1.0" encoding="UTF-8"?>
<!--
  Auto-generated from the reference HTML by
  scripts/storymode-extraction/extract.mjs.
  Do not edit by hand — regenerate the file instead.
-->
<svg xmlns="http://www.w3.org/2000/svg" xmlns:xlink="http://www.w3.org/1999/xlink" viewBox="0 0 500 260" preserveAspectRatio="xMidYMid meet">
<text x="20" y="16" style="fill:#e8a951;font:600 9px Inter,sans-serif;letter-spacing:2px">STEP 01 · BILATERAL HILAR LAD + EN + NON-CASEATING = SARCOID</text><g>
    <rect x="20" y="30" width="180" height="16" rx="8" fill="rgba(232, 169, 81, 0.18)" stroke="#e8a951" stroke-width="1"/>
    <text x="110" y="41" text-anchor="middle" style="fill:#e8a951;font:700 8px Inter,sans-serif;letter-spacing:1.2px">TYPE IV · GRANULOMATOUS</text>
  </g><g opacity="1">
    <text x="250" y="62" text-anchor="middle" style="fill:#b4becf;font:600 7px 'JetBrains Mono',monospace;letter-spacing:1.5px">SARCOID PATTERN · TRIAD</text>
    <!-- hilar adenopathy: simple chest outline with two lymph nodes at hilum -->
    <g transform="translate(95 130)">
      <path d="M -22 -25 L -22 25 Q -22 30 -16 30 L 16 30 Q 22 30 22 25 L 22 -25 Q 22 -30 16 -30 L -16 -30 Q -22 -30 -22 -25 Z"
            fill="none" stroke="#b4becf" stroke-width="1.2" opacity="0.5"/>
      <line x1="0" y1="-30" x2="0" y2="30" stroke="#b4becf" stroke-width="0.8" opacity="0.4"/>
      <ellipse cx="-7" cy="0" rx="4" ry="3" fill="#d14859" opacity="0.7" stroke="#d14859" stroke-width="1"/>
      <ellipse cx="7" cy="0" rx="4" ry="3" fill="#d14859" opacity="0.7" stroke="#d14859" stroke-width="1"/>
      <text x="0" y="46" text-anchor="middle" style="fill:#d14859;font:700 7px Inter,sans-serif;letter-spacing:0.5px">HILAR LAD</text>
      <text x="0" y="56" text-anchor="middle" style="fill:#6b7689;font:italic 6.5px Fraunces,serif">bilateral</text>
    </g>
    <!-- erythema nodosum: leg with red bumps -->
    <g transform="translate(250 130)">
      <path d="M -8 -30 Q -10 -20 -8 -10 L -6 30" fill="none" stroke="#b4becf" stroke-width="1.2" opacity="0.5"/>
      <path d="M 8 -30 Q 10 -20 8 -10 L 6 30" fill="none" stroke="#b4becf" stroke-width="1.2" opacity="0.5"/>
      <circle cx="-3" cy="-15" r="3.5" fill="#d14859" opacity="0.65"/>
      <circle cx="3" cy="-2" r="4" fill="#d14859" opacity="0.7"/>
      <circle cx="-3" cy="12" r="3" fill="#d14859" opacity="0.6"/>
      <circle cx="3" cy="22" r="3.5" fill="#d14859" opacity="0.7"/>
      <text x="0" y="46" text-anchor="middle" style="fill:#d14859;font:700 7px Inter,sans-serif;letter-spacing:0.5px">ERYTHEMA NODOSUM</text>
      <text x="0" y="56" text-anchor="middle" style="fill:#6b7689;font:italic 6.5px Fraunces,serif">tender shin nodules</text>
    </g>
    <!-- non-caseating granuloma: small circle with central macs -->
    <g transform="translate(405 130)">
      <circle cx="0" cy="0" r="22" fill="none" stroke="#4fb8a8" stroke-width="1.2" opacity="0.7"/>
      <g fill="#4fb8a8" opacity="0.7">
        <ellipse cx="-4" cy="-2" rx="4" ry="3"/>
        <ellipse cx="4" cy="-2" rx="4" ry="3"/>
        <ellipse cx="0" cy="6" rx="5" ry="3.5"/>
      </g>
      <text x="0" y="46" text-anchor="middle" style="fill:#4fb8a8;font:700 7px Inter,sans-serif;letter-spacing:0.5px">NON-CASEATING</text>
      <text x="0" y="56" text-anchor="middle" style="fill:#6b7689;font:italic 6.5px Fraunces,serif">granuloma</text>
    </g>
  </g>

                  <!-- FOCUS · audio-aligned attention marker -->
                  <circle cx="95" cy="181" r="20" fill="none" stroke="#d14859" stroke-width="1.8" stroke-dasharray="3 2" opacity="0.85">
                    <animate attributeName="r" values="16;26;16" dur="2.4s" repeatCount="indefinite"/>
                    <animate attributeName="opacity" values="0.85;0.20;0.85" dur="2.4s" repeatCount="indefinite"/>
                  </circle>

                  <!-- FOCUS · audio-aligned attention marker -->
                  <circle cx="95" cy="171" r="20" fill="none" stroke="#d14859" stroke-width="1.8" stroke-dasharray="3 2" opacity="0.85">
                    <animate attributeName="r" values="16;26;16" dur="2.4s" repeatCount="indefinite"/>
                    <animate attributeName="opacity" values="0.85;0.20;0.85" dur="2.4s" repeatCount="indefinite"/>
                  </circle>

                  <!-- FOCUS · audio-aligned attention marker -->
                  <circle cx="405" cy="171" r="20" fill="none" stroke="#d14859" stroke-width="1.8" stroke-dasharray="3 2" opacity="0.85">
                    <animate attributeName="r" values="16;26;16" dur="2.4s" repeatCount="indefinite"/>
                    <animate attributeName="opacity" values="0.85;0.20;0.85" dur="2.4s" repeatCount="indefinite"/>
                  </circle>
</svg>
