<?xml version="1.0" encoding="UTF-8"?>
<!--
  Auto-generated from the reference HTML by
  scripts/storymode-extraction/extract.mjs.
  Do not edit by hand — regenerate the file instead.
-->
<svg xmlns="http://www.w3.org/2000/svg" xmlns:xlink="http://www.w3.org/1999/xlink" viewBox="0 0 500 260" preserveAspectRatio="xMidYMid meet">
<text x="20" y="16" style="fill:#e8a951;font:600 9px Inter,sans-serif;letter-spacing:2px">STEP 01 · PREGNANCY 1 · FETAL Rh+ RBCs LEAK INTO MOM</text><g>
    <rect x="20" y="30" width="170" height="16" rx="8" fill="rgba(79, 184, 168, 0.18)" stroke="#4fb8a8" stroke-width="1"/>
    <text x="105" y="41" text-anchor="middle" style="fill:#4fb8a8;font:700 8px Inter,sans-serif;letter-spacing:1.5px">PREGNANCY 1 · sensitization</text>
  </g><g opacity="1">
    <!-- Maternal label -->
    <text x="20" y="62" style="fill:#b4becf;font:600 7px 'JetBrains Mono',monospace;letter-spacing:1.5px">MATERNAL</text>
    <!-- vessel band -->
    <line x1="20" y1="78" x2="480" y2="78" stroke="#d14859" stroke-width="1.3" opacity="0.85"/>
    <line x1="20" y1="105" x2="480" y2="105" stroke="#d14859" stroke-width="1.3" opacity="0.85"/>
    <rect x="20" y="78" width="460" height="27" fill="#d14859" opacity="0.08"/><g transform="translate(60 91)">
      <ellipse cx="0" cy="0" rx="9" ry="8" fill="#9370b9" opacity="0.4" stroke="#9370b9" stroke-width="1.2"/>
      <ellipse cx="0" cy="0" rx="3.5" ry="3" fill="#9370b9" opacity="0.85"/>
    </g>
    <text x="60" y="73" text-anchor="middle" style="fill:#9370b9;font:600 7px Inter,sans-serif">B cell</text></g><g opacity="1">
    <!-- placenta band — striped pattern -->
    <line x1="20" y1="113" x2="480" y2="113" stroke="#b4becf" stroke-width="0.8" opacity="0.45" stroke-dasharray="3 2"/>
    <line x1="20" y1="119" x2="480" y2="119" stroke="#b4becf" stroke-width="0.8" opacity="0.45" stroke-dasharray="3 2"/>
    <text x="250" y="118" text-anchor="middle" style="fill:#6b7689;font:600 6.5px 'JetBrains Mono',monospace;letter-spacing:1.5px">PLACENTA</text></g><g opacity="1">
    <text x="20" y="135" style="fill:#b4becf;font:600 7px 'JetBrains Mono',monospace;letter-spacing:1.5px">FETAL</text>
    <!-- vessel band -->
    <line x1="20" y1="148" x2="480" y2="148" stroke="#d14859" stroke-width="1.3" opacity="0.85"/>
    <line x1="20" y1="175" x2="480" y2="175" stroke="#d14859" stroke-width="1.3" opacity="0.85"/>
    <rect x="20" y="148" width="460" height="27" fill="#d14859" opacity="0.08"/><g transform="translate(60 161)" opacity="0.7">
      <path d="M -10 -5 Q -12 0 -8 6 Q 0 9 8 6 Q 12 0 10 -5 Q 5 -10 0 -8 Q -5 -10 -10 -5 Z" fill="#4fb8a8" opacity="0.45" stroke="#4fb8a8" stroke-width="1.2"/>
      <text x="0" y="22" text-anchor="middle" style="fill:#4fb8a8;font:600 6.5px Inter,sans-serif;letter-spacing:0.8px">FETAL SPLEEN</text>
    </g></g><g><circle cx="160" cy="158" r="4.5" fill="#d14859" opacity="0.85" stroke="#a53343" stroke-width="0.6"/><circle cx="160" cy="158" r="2" fill="#a53343" opacity="0.5"/><circle cx="200" cy="166" r="4.5" fill="#d14859" opacity="0.85" stroke="#a53343" stroke-width="0.6"/><circle cx="200" cy="166" r="2" fill="#a53343" opacity="0.5"/><circle cx="240" cy="158" r="4.5" fill="#d14859" opacity="0.85" stroke="#a53343" stroke-width="0.6"/><circle cx="240" cy="158" r="2" fill="#a53343" opacity="0.5"/><circle cx="280" cy="166" r="4.5" fill="#d14859" opacity="0.85" stroke="#a53343" stroke-width="0.6"/><circle cx="280" cy="166" r="2" fill="#a53343" opacity="0.5"/><circle cx="320" cy="158" r="4.5" fill="#d14859" opacity="0.85" stroke="#a53343" stroke-width="0.6"/><circle cx="320" cy="158" r="2" fill="#a53343" opacity="0.5"/><circle cx="360" cy="166" r="4.5" fill="#d14859" opacity="0.85" stroke="#a53343" stroke-width="0.6"/><circle cx="360" cy="166" r="2" fill="#a53343" opacity="0.5"/><circle cx="400" cy="158" r="4.5" fill="#d14859" opacity="0.85" stroke="#a53343" stroke-width="0.6"/><circle cx="400" cy="158" r="2" fill="#a53343" opacity="0.5"/><circle cx="440" cy="166" r="4.5" fill="#d14859" opacity="0.85" stroke="#a53343" stroke-width="0.6"/><circle cx="440" cy="166" r="2" fill="#a53343" opacity="0.5"/></g><g><circle cx="200" cy="140" r="3.5" fill="#d14859" opacity="0.55"/><circle cx="200" cy="140" r="1.5" fill="#a53343" opacity="0.5"/><circle cx="240" cy="128" r="3.5" fill="#d14859" opacity="0.64"/><circle cx="240" cy="128" r="1.5" fill="#a53343" opacity="0.5"/><circle cx="280" cy="118" r="3.5" fill="#d14859" opacity="0.73"/><circle cx="280" cy="118" r="1.5" fill="#a53343" opacity="0.5"/><circle cx="320" cy="108" r="3.5" fill="#d14859" opacity="0.8"/><circle cx="320" cy="108" r="1.5" fill="#a53343" opacity="0.5"/><circle cx="360" cy="98" r="3.5" fill="#d14859" opacity="0.91"/><circle cx="360" cy="98" r="1.5" fill="#a53343" opacity="0.5"/><g stroke="#d14859" stroke-width="0.8" opacity="0.65" stroke-dasharray="2 1.5" fill="none">
    <path d="M 200 148 Q 280 130 380 92"/>
  </g>
  <polygon points="378,92 384,89 383,96" fill="#d14859" opacity="0.85"/>
  <!-- caption on right side, above the rising path, in maternal compartment area near MATERNAL label -->
  <text x="478" y="143" text-anchor="end" style="fill:#d14859;font:italic 7.5px Fraunces,serif">feto-maternal hemorrhage at delivery</text></g>

                  <!-- FOCUS · audio-aligned attention marker -->
                  <circle cx="478" cy="138" r="40" fill="none" stroke="#d14859" stroke-width="1.8" stroke-dasharray="3 2" opacity="0.85">
                    <animate attributeName="r" values="36;46;36" dur="2.4s" repeatCount="indefinite"/>
                    <animate attributeName="opacity" values="0.85;0.20;0.85" dur="2.4s" repeatCount="indefinite"/>
                  </circle>
</svg>
