<?xml version="1.0" encoding="UTF-8"?>
<!--
  Auto-generated from the reference HTML by
  scripts/storymode-extraction/extract.mjs.
  Do not edit by hand — regenerate the file instead.
-->
<svg xmlns="http://www.w3.org/2000/svg" xmlns:xlink="http://www.w3.org/1999/xlink" viewBox="0 0 500 260" preserveAspectRatio="xMidYMid meet">
<text x="20" y="16" style="fill:#e8a951;font:600 9px Inter,sans-serif;letter-spacing:2px">STEP 05 · CHAIN TERMINATION · NO 3'-OH</text>

<!-- Top: with natural nucleotide (chain extends) -->
<g transform="translate(250 90)">
  <text x="0" y="-25" text-anchor="middle" style="fill:#6cc27d;font:700 8.5px Inter,sans-serif;letter-spacing:1.2px">NATURAL NUCLEOTIDE</text>
  
  <!-- Growing chain -->
  <line x1="-100" y1="0" x2="20" y2="0" stroke="#9370b9" stroke-width="2"/>
  <g fill="rgba(147,112,185,0.85)">
    <circle cx="-90" cy="0" r="5"/>
    <circle cx="-70" cy="0" r="5"/>
    <circle cx="-50" cy="0" r="5"/>
    <circle cx="-30" cy="0" r="5"/>
    <circle cx="-10" cy="0" r="5"/>
    <circle cx="10" cy="0" r="5"/>
  </g>
  
  <!-- 3' OH on last -->
  <g transform="translate(10 0)">
    <line x1="0" y1="6" x2="3" y2="14" stroke="#6cc27d" stroke-width="1.4"/>
    <circle cx="3" cy="14" r="3" fill="rgba(108,194,125,0.85)" stroke="#6cc27d"/>
    <text x="3" y="16" text-anchor="middle" style="fill:#0a0e1a;font:700 5px Inter,sans-serif">OH</text>
  </g>
  
  <!-- Next nucleotide can attach -->
  <g stroke="#6cc27d" stroke-width="1.6" fill="none" marker-end="url(#arr14_6_5a)">
    <line x1="20" y1="0" x2="40" y2="0"/>
  </g>
  <defs>
    <marker id="arr14_6_5a" viewBox="0 0 10 10" refX="9" refY="5" markerWidth="7" markerHeight="7" orient="auto">
      <path d="M 0 0 L 10 5 L 0 10 z" fill="#6cc27d"/>
    </marker>
  </defs>
  <circle cx="50" cy="0" r="5" fill="rgba(147,112,185,0.85)"/>
  
  <text x="80" y="3" style="fill:#6cc27d;font:700 7.5px Inter,sans-serif">EXTENDS ✓</text>
</g>

<!-- Bottom: with NRTI (chain stops) -->
<g transform="translate(250 195)">
  <text x="0" y="-25" text-anchor="middle" style="fill:#d14859;font:700 8.5px Inter,sans-serif;letter-spacing:1.2px">NRTI INCORPORATED</text>
  
  <!-- Growing chain -->
  <line x1="-100" y1="0" x2="20" y2="0" stroke="#9370b9" stroke-width="2"/>
  <g fill="rgba(147,112,185,0.85)">
    <circle cx="-90" cy="0" r="5"/>
    <circle cx="-70" cy="0" r="5"/>
    <circle cx="-50" cy="0" r="5"/>
    <circle cx="-30" cy="0" r="5"/>
    <circle cx="-10" cy="0" r="5"/>
  </g>
  
  <!-- NRTI as last (red) -->
  <circle cx="10" cy="0" r="6" fill="rgba(209,72,89,0.95)" stroke="#d14859" stroke-width="1.4"/>
  
  <!-- N3 instead of OH -->
  <g transform="translate(10 0)">
    <line x1="0" y1="6" x2="3" y2="14" stroke="#d14859" stroke-width="1.4"/>
    <rect x="-1" y="14" width="8" height="9" rx="1" fill="rgba(209,72,89,0.95)" stroke="#d14859"/>
    <text x="3" y="20" text-anchor="middle" style="fill:#fff;font:700 5px Inter,sans-serif">N₃</text>
  </g>
  
  <!-- Next nucleotide CAN'T attach (X) -->
  <g stroke="#6b7689" stroke-width="1.4" fill="none" stroke-dasharray="2 2" opacity="0.5">
    <line x1="20" y1="0" x2="40" y2="0"/>
  </g>
  <circle cx="50" cy="0" r="5" fill="rgba(147,112,185,0.30)" stroke-dasharray="2 1" stroke="#6b7689" opacity="0.5"/>
  <line x1="44" y1="-5" x2="56" y2="5" stroke="#d14859" stroke-width="2" stroke-linecap="round"/>
  <line x1="44" y1="5" x2="56" y2="-5" stroke="#d14859" stroke-width="2" stroke-linecap="round"/>
  
  <text x="80" y="3" style="fill:#d14859;font:700 7.5px Inter,sans-serif">STOPS ✗</text>
</g>

<text x="250" y="245" text-anchor="middle" style="fill:#6b7689;font:italic 7.5px Fraunces,serif">No 3'-OH = no phosphodiester bond can form · viral DNA synthesis aborts</text>

                  <!-- FOCUS · audio-aligned attention marker -->
                  <circle cx="250" cy="165" r="26" fill="none" stroke="#d14859" stroke-width="1.8" stroke-dasharray="3 2" opacity="0.85">
                    <animate attributeName="r" values="22;32;22" dur="2.4s" repeatCount="indefinite"/>
                    <animate attributeName="opacity" values="0.85;0.20;0.85" dur="2.4s" repeatCount="indefinite"/>
                  </circle>
</svg>
