<?xml version="1.0" encoding="UTF-8"?>
<!--
  Auto-generated from the reference HTML by
  scripts/storymode-extraction/extract.mjs.
  Do not edit by hand — regenerate the file instead.
-->
<svg xmlns="http://www.w3.org/2000/svg" xmlns:xlink="http://www.w3.org/1999/xlink" viewBox="0 0 500 260" preserveAspectRatio="xMidYMid meet">
<text x="20" y="16" style="fill:#e8a951;font:600 9px Inter,sans-serif;letter-spacing:2px">STEP 03 · HYPERACUTE = PREVENTABLE · CROSSMATCH</text>

<!-- ABO compatibility table -->
<g transform="translate(135 130)">
  <text x="0" y="-72" text-anchor="middle" style="fill:#9370b9;font:700 9px Inter,sans-serif;letter-spacing:1.5px">ABO MATCH</text>
  
  <!-- Donor RBC w/ A antigen -->
  <g transform="translate(-30 -25)">
    <circle r="13" fill="rgba(209,72,89,0.65)" stroke="#d14859" stroke-width="1.4"/>
    <circle r="5" fill="rgba(20,24,40,0.55)"/>
    <!-- A antigens -->
    <g fill="#e8a951" stroke="#e8a951" stroke-width="0.8">
      <circle cx="-10" cy="0" r="2"/>
      <circle cx="10" cy="0" r="2"/>
      <circle cx="0" cy="-10" r="2"/>
      <circle cx="0" cy="10" r="2"/>
    </g>
    <text x="0" y="26" text-anchor="middle" style="fill:#b4becf;font:7px Inter,sans-serif">DONOR · A</text>
  </g>
  
  <!-- Recipient w/ anti-A IgM -->
  <g transform="translate(30 -25)">
    <text x="0" y="-15" text-anchor="middle" style="fill:#b4becf;font:7px Inter,sans-serif">RECIPIENT · O</text>
    <g stroke="#e8a951" stroke-width="1.4" fill="none" stroke-linecap="round">
      <g transform="translate(-8 0)">
        <line x1="0" y1="0" x2="0" y2="8"/>
        <line x1="-3" y1="-3" x2="0" y2="0"/>
        <line x1="3" y1="-3" x2="0" y2="0"/>
      </g>
      <g transform="translate(8 0)">
        <line x1="0" y1="0" x2="0" y2="8"/>
        <line x1="-3" y1="-3" x2="0" y2="0"/>
        <line x1="3" y1="-3" x2="0" y2="0"/>
      </g>
    </g>
    <text x="0" y="22" text-anchor="middle" style="fill:#e8a951;font:700 6.5px Inter,sans-serif">anti-A</text>
  </g>
  
  <!-- Reaction sign in middle -->
  <g transform="translate(0 25)">
    <rect x="-50" y="-12" width="100" height="24" rx="6" fill="rgba(209,72,89,0.30)" stroke="#d14859" stroke-width="1.6"/>
    <text x="0" y="3" text-anchor="middle" style="fill:#d14859;font:700 8px Inter,sans-serif;letter-spacing:1.2px">⚠ MISMATCH</text>
  </g>
</g>

<!-- HLA crossmatch -->
<g transform="translate(365 130)">
  <text x="0" y="-72" text-anchor="middle" style="fill:#9370b9;font:700 9px Inter,sans-serif;letter-spacing:1.5px">HLA CROSSMATCH</text>
  
  <!-- Donor lymphocyte -->
  <g transform="translate(-30 -25)">
    <circle r="14" fill="rgba(180,190,207,0.55)" stroke="#b4becf" stroke-width="1.4"/>
    <ellipse cx="-2" cy="-1" rx="5" ry="4" fill="rgba(20,24,40,0.55)"/>
    <!-- HLA molecules on surface -->
    <g transform="translate(-13 -3)">
      <path d="M -3 5 L -3 -2 L -1 -2 L -1 -5 L 1 -5 L 1 -2 L 3 -2 L 3 5 Z" fill="#9370b9" stroke="#9370b9" stroke-width="0.6"/>
    </g>
    <g transform="translate(13 -3)">
      <path d="M -3 5 L -3 -2 L -1 -2 L -1 -5 L 1 -5 L 1 -2 L 3 -2 L 3 5 Z" fill="#9370b9" stroke="#9370b9" stroke-width="0.6"/>
    </g>
    <text x="0" y="28" text-anchor="middle" style="fill:#b4becf;font:7px Inter,sans-serif">DONOR cell</text>
  </g>
  
  <!-- Mix arrow -->
  <text x="0" y="-25" text-anchor="middle" style="fill:#e8a951;font:700 14px Inter,sans-serif">+</text>
  
  <!-- Recipient serum -->
  <g transform="translate(30 -25)">
    <ellipse cx="0" cy="0" rx="14" ry="11" fill="rgba(232,169,81,0.20)" stroke="#e8a951" stroke-width="1" stroke-dasharray="2 2"/>
    <g stroke="#e8a951" stroke-width="1" fill="none" stroke-linecap="round">
      <g transform="translate(-5 0) rotate(20)">
        <line x1="0" y1="0" x2="0" y2="6"/>
        <line x1="-2" y1="-2" x2="0" y2="0"/>
        <line x1="2" y1="-2" x2="0" y2="0"/>
      </g>
      <g transform="translate(5 0) rotate(-20)">
        <line x1="0" y1="0" x2="0" y2="6"/>
        <line x1="-2" y1="-2" x2="0" y2="0"/>
        <line x1="2" y1="-2" x2="0" y2="0"/>
      </g>
    </g>
    <text x="0" y="22" text-anchor="middle" style="fill:#b4becf;font:7px Inter,sans-serif">RECIP serum</text>
  </g>
  
  <!-- Reaction sign -->
  <g transform="translate(0 25)">
    <rect x="-50" y="-12" width="100" height="24" rx="6" fill="rgba(108,194,125,0.30)" stroke="#6cc27d" stroke-width="1.6"/>
    <text x="0" y="3" text-anchor="middle" style="fill:#6cc27d;font:700 8px Inter,sans-serif;letter-spacing:1.2px">✓ NEGATIVE</text>
  </g>
</g>

<!-- Bottom message -->
<g transform="translate(250 215)">
  <rect x="-180" y="-13" width="360" height="26" rx="6" fill="rgba(232,169,81,0.18)" stroke="#e8a951" stroke-width="1.4"/>
  <text x="0" y="3" text-anchor="middle" style="fill:#e8a951;font:700 8.5px Inter,sans-serif;letter-spacing:1.2px">SHOULD NEVER HAPPEN · NO TREATMENT IF IT DOES</text>
</g>

<text x="250" y="245" text-anchor="middle" style="fill:#6b7689;font:italic 7.5px Fraunces,serif">Pre-transplant ABO compatibility + crossmatch eliminates this risk</text>

                  <!-- FOCUS · audio-aligned attention marker -->
                  <circle cx="165" cy="85" r="20" fill="none" stroke="#d14859" stroke-width="1.8" stroke-dasharray="3 2" opacity="0.85">
                    <animate attributeName="r" values="16;26;16" dur="2.4s" repeatCount="indefinite"/>
                    <animate attributeName="opacity" values="0.85;0.20;0.85" dur="2.4s" repeatCount="indefinite"/>
                  </circle>
</svg>
