<?xml version="1.0" encoding="UTF-8"?>
<!--
  Auto-generated from the reference HTML by
  scripts/storymode-extraction/extract.mjs.
  Do not edit by hand — regenerate the file instead.
-->
<svg xmlns="http://www.w3.org/2000/svg" xmlns:xlink="http://www.w3.org/1999/xlink" viewBox="0 0 500 260" preserveAspectRatio="xMidYMid meet">
<text x="20" y="16" style="fill:#e8a951;font:600 9px Inter,sans-serif;letter-spacing:2px">STEP 03 · PRIMAQUINE · ERADICATES HYPNOZOITES</text>

<!-- Liver before -->
<g transform="translate(125 145)">
  <text x="0" y="-90" text-anchor="middle" style="fill:#d14859;font:700 9px Inter,sans-serif;letter-spacing:1.5px">BEFORE</text>
  
  <path d="M -45 -40 Q -55 -25 -50 0 Q -45 20 -25 30 Q 0 35 25 30 Q 45 20 50 0 Q 55 -25 45 -40 Q 0 -45 -45 -40" 
        fill="rgba(180,130,80,0.30)" stroke="#a06a30" stroke-width="1.4"/>
  
  <!-- Hypnozoites present -->
  <g fill="rgba(209,72,89,0.95)" stroke="#a53343" stroke-width="1">
    <circle cx="-15" cy="-10" r="5"/>
    <circle cx="10" cy="-5" r="5"/>
    <circle cx="-5" cy="15" r="5"/>
    <circle cx="20" cy="20" r="5"/>
    <circle cx="-25" cy="10" r="5"/>
  </g>
  
  <text x="0" y="55" text-anchor="middle" style="fill:#d14859;font:6.5px Inter,sans-serif">5 hypnozoites</text>
</g>

<!-- Primaquine pill -->
<g transform="translate(250 145)">
  <rect x="-30" y="-15" width="60" height="30" rx="15" fill="rgba(232,169,81,0.85)" stroke="#e8a951" stroke-width="2"/>
  <line x1="0" y1="-15" x2="0" y2="15" stroke="#e8a951" stroke-width="1.4"/>
  <text x="0" y="3" text-anchor="middle" style="fill:#0a0e1a;font:700 8.5px Inter,sans-serif">PRIMA</text>
  <text x="0" y="-30" text-anchor="middle" style="fill:#e8a951;font:700 9px Inter,sans-serif">PRIMAQUINE</text>
  <text x="0" y="38" text-anchor="middle" style="fill:#b4becf;font:6.5px Inter,sans-serif">+ tafenoquine (newer)</text>
</g>

<g stroke="#e8a951" stroke-width="2" fill="none" marker-end="url(#arr15_4_3a)">
  <line x1="190" y1="145" x2="220" y2="145"/>
  <line x1="280" y1="145" x2="310" y2="145"/>
</g>
<defs>
  <marker id="arr15_4_3a" viewBox="0 0 10 10" refX="9" refY="5" markerWidth="7" markerHeight="7" orient="auto">
    <path d="M 0 0 L 10 5 L 0 10 z" fill="#e8a951"/>
  </marker>
</defs>

<!-- Liver after (clean) -->
<g transform="translate(375 145)">
  <text x="0" y="-90" text-anchor="middle" style="fill:#6cc27d;font:700 9px Inter,sans-serif;letter-spacing:1.5px">AFTER</text>
  
  <path d="M -45 -40 Q -55 -25 -50 0 Q -45 20 -25 30 Q 0 35 25 30 Q 45 20 50 0 Q 55 -25 45 -40 Q 0 -45 -45 -40" 
        fill="rgba(180,130,80,0.30)" stroke="#a06a30" stroke-width="1.4"/>
  
  <!-- All hypnozoites cleared (faded) -->
  <g fill="rgba(209,72,89,0.30)" stroke="#a53343" stroke-width="0.6" opacity="0.4" stroke-dasharray="2 1">
    <circle cx="-15" cy="-10" r="5"/>
    <circle cx="10" cy="-5" r="5"/>
    <circle cx="-5" cy="15" r="5"/>
    <circle cx="20" cy="20" r="5"/>
    <circle cx="-25" cy="10" r="5"/>
  </g>
  
  <text x="0" y="55" text-anchor="middle" style="fill:#6cc27d;font:700 7.5px Inter,sans-serif">RADICAL CURE</text>
</g>

<text x="250" y="245" text-anchor="middle" style="fill:#6b7689;font:italic 7.5px Fraunces,serif">Only primaquine (or tafenoquine) eradicates the dormant liver stage · prevents relapse</text>

                  <!-- FOCUS · audio-aligned attention marker -->
                  <circle cx="250" cy="110" r="20" fill="none" stroke="#d14859" stroke-width="1.8" stroke-dasharray="3 2" opacity="0.85">
                    <animate attributeName="r" values="16;26;16" dur="2.4s" repeatCount="indefinite"/>
                    <animate attributeName="opacity" values="0.85;0.20;0.85" dur="2.4s" repeatCount="indefinite"/>
                  </circle>
</svg>
