<?xml version="1.0" encoding="UTF-8"?>
<!--
  Auto-generated from the reference HTML by
  scripts/storymode-extraction/extract.mjs.
  Do not edit by hand — regenerate the file instead.
-->
<svg xmlns="http://www.w3.org/2000/svg" xmlns:xlink="http://www.w3.org/1999/xlink" viewBox="0 0 500 260" preserveAspectRatio="xMidYMid meet">
<text x="20" y="16" style="fill:#e8a951;font:600 9px Inter,sans-serif;letter-spacing:2px">STEP 03 · BIOPSY · PERIFASCICULAR ATROPHY = DM SIGNATURE</text><g>
    <rect x="20" y="30" width="190" height="14" rx="7" fill="rgba(232, 169, 81, 0.18)" stroke="#e8a951" stroke-width="1"/>
    <text x="115" y="40" text-anchor="middle" style="fill:#e8a951;font:700 7.5px Inter,sans-serif;letter-spacing:1.2px">DM · CD4 · MICROVASCULOPATHY</text>
  </g><text x="30" y="62" style="fill:#b4becf;font:600 7px 'JetBrains Mono',monospace;letter-spacing:1.5px">PATIENT</text><text x="470" y="62" text-anchor="end" style="fill:#b4becf;font:600 7px 'JetBrains Mono',monospace;letter-spacing:1.5px">MUSCLE BIOPSY</text><g opacity="1">
    <g stroke="#b4becf" stroke-width="1.5" fill="#b4becf" fill-opacity="0.15">
      <circle cx="70" cy="80" r="11"/>
      <path d="M 60 92 Q 55 102 55 130 L 55 150 Q 60 158 70 158 Q 80 158 85 150 L 85 130 Q 85 102 80 92 Z"/>
      <path d="M 55 102 Q 39 112 35 138" fill="none"/>
      <path d="M 85 102 Q 101 112 105 138" fill="none"/>
      <path d="M 62 158 Q 60 168 60 178" fill="none"/>
      <path d="M 78 158 Q 80 168 80 178" fill="none"/>
    </g><g opacity="0.95">
      <!-- shoulder zigzag (weakness symbol) -->
      <g stroke="#d14859" stroke-width="1.2" fill="none">
        <path d="M 56 100 L 60 102 L 56 104 L 60 106"/>
        <path d="M 84 100 L 80 102 L 84 104 L 80 106"/>
      </g>
      <!-- hip zigzag -->
      <g stroke="#d14859" stroke-width="1.2" fill="none">
        <path d="M 60 152 L 64 154 L 60 156 L 64 158"/>
        <path d="M 80 152 L 76 154 L 80 156 L 76 158"/>
      </g>
    </g><g opacity="0.95">
      <circle cx="95" cy="100" r="6" fill="#0a0e1a" stroke="#d14859" stroke-width="1.3"/>
      <text x="95" y="103" text-anchor="middle" style="fill:#d14859;font:700 8px Inter,sans-serif">W</text>
    </g><g opacity="0.95">
      <ellipse cx="65" cy="78" rx="3" ry="1.5" fill="#9370b9" opacity="0.85"/>
      <ellipse cx="75" cy="78" rx="3" ry="1.5" fill="#9370b9" opacity="0.85"/>
    </g><g opacity="0.95">
      <circle cx="95" cy="75" r="6" fill="#0a0e1a" stroke="#d14859" stroke-width="1.3"/>
      <text x="95" y="78" text-anchor="middle" style="fill:#d14859;font:700 8px Inter,sans-serif">H</text>
    </g><g opacity="0.95">
      <!-- left hand papules -->
      <circle cx="33" cy="138" r="1.3" fill="#9370b9" opacity="0.9"/>
      <circle cx="37" cy="140" r="1.3" fill="#9370b9" opacity="0.9"/>
      <circle cx="35" cy="142" r="1.3" fill="#9370b9" opacity="0.9"/>
      <!-- right hand papules -->
      <circle cx="103" cy="138" r="1.3" fill="#9370b9" opacity="0.9"/>
      <circle cx="107" cy="140" r="1.3" fill="#9370b9" opacity="0.9"/>
      <circle cx="105" cy="142" r="1.3" fill="#9370b9" opacity="0.9"/>
    </g><g opacity="0.95">
      <circle cx="120" cy="140" r="6" fill="#0a0e1a" stroke="#d14859" stroke-width="1.3"/>
      <text x="120" y="143" text-anchor="middle" style="fill:#d14859;font:700 8px Inter,sans-serif">G</text>
    </g><g>
      <rect x="40" y="170" width="60" height="14" rx="7" fill="rgba(209, 72, 89, 0.18)" stroke="#d14859" stroke-width="0.9"/>
      <text x="70" y="180" text-anchor="middle" style="fill:#d14859;font:700 7.5px Inter,sans-serif;letter-spacing:0.8px">↑ CK</text>
    </g></g><g opacity="1"><g>
      <circle cx="170" cy="76" r="6" fill="#0a0e1a" stroke="#d14859" stroke-width="1.2"/>
      <text x="170" y="79" text-anchor="middle" style="fill:#d14859;font:700 8px Inter,sans-serif">W</text>
      <text x="182" y="79" style="fill:#b4becf;font:600 8px Inter,sans-serif">Weakness · proximal</text>
    </g><g>
      <circle cx="170" cy="93" r="6" fill="#0a0e1a" stroke="#d14859" stroke-width="1.2"/>
      <text x="170" y="96" text-anchor="middle" style="fill:#d14859;font:700 8px Inter,sans-serif">H</text>
      <text x="182" y="96" style="fill:#b4becf;font:600 8px Inter,sans-serif">Heliotrope rash</text>
    </g><g>
      <circle cx="170" cy="110" r="6" fill="#0a0e1a" stroke="#d14859" stroke-width="1.2"/>
      <text x="170" y="113" text-anchor="middle" style="fill:#d14859;font:700 8px Inter,sans-serif">G</text>
      <text x="182" y="113" style="fill:#b4becf;font:600 8px Inter,sans-serif">Gottron papules</text>
    </g><g opacity="1">
    <text x="170" y="138" style="fill:#6b7689;font:italic 7.5px Fraunces,serif">+ ↑ CK · myopathic EMG</text>
  </g></g><g opacity="1"><g transform="translate(275 110)">
      <rect x="-30" y="-32" width="60" height="64" rx="3" fill="rgba(232, 169, 81, 0.10)" stroke="#e8a951" stroke-width="1.8"/>
      <text x="0" y="-37" text-anchor="middle" style="fill:#e8a951;font:700 7.5px Inter,sans-serif;letter-spacing:1px">DM</text><circle cx="-22" cy="-22" r="2" fill="#d14859" opacity="0.7"/><circle cx="-12" cy="-24" r="2" fill="#d14859" opacity="0.7"/><circle cx="0" cy="-24" r="2" fill="#d14859" opacity="0.7"/><circle cx="12" cy="-24" r="2" fill="#d14859" opacity="0.7"/><circle cx="22" cy="-22" r="2" fill="#d14859" opacity="0.7"/><circle cx="-22" cy="22" r="2" fill="#d14859" opacity="0.7"/><circle cx="-12" cy="24" r="2" fill="#d14859" opacity="0.7"/><circle cx="0" cy="24" r="2" fill="#d14859" opacity="0.7"/><circle cx="12" cy="24" r="2" fill="#d14859" opacity="0.7"/><circle cx="22" cy="22" r="2" fill="#d14859" opacity="0.7"/><circle cx="-24" cy="0" r="2" fill="#d14859" opacity="0.7"/><circle cx="24" cy="0" r="2" fill="#d14859" opacity="0.7"/><circle cx="-10" cy="-8" r="4" fill="#4fb8a8" opacity="0.5" stroke="#4fb8a8" stroke-width="0.7"/><circle cx="6" cy="-10" r="4" fill="#4fb8a8" opacity="0.5" stroke="#4fb8a8" stroke-width="0.7"/><circle cx="-8" cy="8" r="4" fill="#4fb8a8" opacity="0.5" stroke="#4fb8a8" stroke-width="0.7"/><circle cx="8" cy="6" r="4" fill="#4fb8a8" opacity="0.5" stroke="#4fb8a8" stroke-width="0.7"/><circle cx="0" cy="0" r="4" fill="#4fb8a8" opacity="0.5" stroke="#4fb8a8" stroke-width="0.7"/><text x="0" y="42" text-anchor="middle" style="fill:#e8a951;font:italic 7px Fraunces,serif">perifascicular</text><text x="0" y="50" text-anchor="middle" style="fill:#6b7689;font:italic 7px Fraunces,serif">atrophy · DM signature</text></g><g transform="translate(355 110)">
      <rect x="-30" y="-32" width="60" height="64" rx="3" fill="rgba(79, 184, 168, 0.05)" stroke="#4fb8a8" stroke-width="1"/>
      <text x="0" y="-37" text-anchor="middle" style="fill:#4fb8a8;font:700 7.5px Inter,sans-serif;letter-spacing:1px">PM</text><circle cx="-15" cy="-15" r="5" fill="#4fb8a8" opacity="0.5" stroke="#4fb8a8" stroke-width="0.8"/><circle cx="5" cy="-15" r="5" fill="#4fb8a8" opacity="0.5" stroke="#4fb8a8" stroke-width="0.8"/><circle cx="-15" cy="5" r="5" fill="#4fb8a8" opacity="0.5" stroke="#4fb8a8" stroke-width="0.8"/><circle cx="5" cy="5" r="5" fill="#4fb8a8" opacity="0.5" stroke="#4fb8a8" stroke-width="0.8"/><circle cx="-15" cy="20" r="5" fill="#4fb8a8" opacity="0.5" stroke="#4fb8a8" stroke-width="0.8"/><circle cx="5" cy="20" r="5" fill="#4fb8a8" opacity="0.5" stroke="#4fb8a8" stroke-width="0.8"/><circle cx="-5" cy="-20" r="1.5" fill="#9370b9" opacity="0.95"/><circle cx="-8" cy="-2" r="1.5" fill="#9370b9" opacity="0.95"/><circle cx="0" cy="0" r="1.5" fill="#9370b9" opacity="0.95"/><circle cx="-2" cy="14" r="1.5" fill="#9370b9" opacity="0.95"/><circle cx="8" cy="-7" r="1.5" fill="#9370b9" opacity="0.95"/><circle cx="12" cy="10" r="1.5" fill="#9370b9" opacity="0.95"/><text x="0" y="42" text-anchor="middle" style="fill:#6b7689;font:italic 7px Fraunces,serif">endomysial</text><text x="0" y="50" text-anchor="middle" style="fill:#6b7689;font:italic 7px Fraunces,serif">inflammation · PM</text></g><g transform="translate(435 110)">
      <rect x="-30" y="-32" width="60" height="64" rx="3" fill="rgba(79, 184, 168, 0.05)" stroke="#4fb8a8" stroke-width="1"/>
      <text x="0" y="-37" text-anchor="middle" style="fill:#4fb8a8;font:700 7.5px Inter,sans-serif;letter-spacing:1px">IBM</text><circle cx="-12" cy="-15" r="5" fill="#4fb8a8" opacity="0.4" stroke="#4fb8a8" stroke-width="0.7"/><circle cx="-11" cy="-16" r="1.5" fill="#0a0e1a" stroke="#9370b9" stroke-width="1"/><circle cx="6" cy="-10" r="5" fill="#4fb8a8" opacity="0.4" stroke="#4fb8a8" stroke-width="0.7"/><circle cx="7" cy="-11" r="1.5" fill="#0a0e1a" stroke="#9370b9" stroke-width="1"/><circle cx="-10" cy="5" r="5" fill="#4fb8a8" opacity="0.4" stroke="#4fb8a8" stroke-width="0.7"/><circle cx="-9" cy="4" r="1.5" fill="#0a0e1a" stroke="#9370b9" stroke-width="1"/><circle cx="8" cy="8" r="5" fill="#4fb8a8" opacity="0.4" stroke="#4fb8a8" stroke-width="0.7"/><circle cx="9" cy="7" r="1.5" fill="#0a0e1a" stroke="#9370b9" stroke-width="1"/><circle cx="-5" cy="20" r="5" fill="#4fb8a8" opacity="0.4" stroke="#4fb8a8" stroke-width="0.7"/><circle cx="-4" cy="19" r="1.5" fill="#0a0e1a" stroke="#9370b9" stroke-width="1"/><text x="0" y="42" text-anchor="middle" style="fill:#6b7689;font:italic 7px Fraunces,serif">rimmed</text><text x="0" y="50" text-anchor="middle" style="fill:#6b7689;font:italic 7px Fraunces,serif">vacuoles · IBM</text></g></g>

                  <!-- FOCUS · audio-aligned attention marker -->
                  <circle cx="235" cy="105" r="60" fill="none" stroke="#d14859" stroke-width="1.8" stroke-dasharray="3 2" opacity="0.85">
                    <animate attributeName="r" values="56;66;56" dur="2.4s" repeatCount="indefinite"/>
                    <animate attributeName="opacity" values="0.85;0.20;0.85" dur="2.4s" repeatCount="indefinite"/>
                  </circle>
</svg>
