<?xml version="1.0" encoding="UTF-8"?>
<!--
  Auto-generated from the reference HTML by
  scripts/storymode-extraction/extract.mjs.
  Do not edit by hand — regenerate the file instead.
-->
<svg xmlns="http://www.w3.org/2000/svg" xmlns:xlink="http://www.w3.org/1999/xlink" viewBox="0 0 500 260" preserveAspectRatio="xMidYMid meet">
                  <text x="20" y="16" style="fill:#e8a951;font:600 9px Inter,sans-serif;letter-spacing:2px">STEP 04 · VACCINATED · ANTITOXIN IgG</text>

                  <!-- Toxoid -->
                  <g transform="translate(110 145)">
                    <text x="0" y="-65" text-anchor="middle" style="fill:#6cc27d;font:700 9px Inter,sans-serif;letter-spacing:1.5px">TOXOID (vaccine)</text>
                    <g transform="translate(0 0)" opacity="1"><ellipse cx="0" cy="12" rx="22" ry="14" fill="#9370b9" fill-opacity="0.85" stroke="#9370b9" stroke-width="1.4"></ellipse><text x="0" y="15" text-anchor="middle" style="fill:#0a0e1a;font:700 8px Inter,sans-serif">B</text><line x1="0" y1="-2" x2="0" y2="2" stroke="#6b7689" stroke-width="2"></line><circle cx="0" cy="-12" r="11" fill="#6b7689" fill-opacity="0.85" stroke="#6b7689" stroke-width="1.4"></circle><g stroke="#3a4358" stroke-width="1.2" fill="none" opacity="0.85"><path d="M -7 -15 Q -3 -10 0 -13 Q 3 -10 7 -15"></path><path d="M -7 -8 Q -3 -12 0 -8 Q 3 -12 7 -8"></path></g><text x="0" y="-10" text-anchor="middle" style="fill:#0a0e1a;font:700 8px Inter,sans-serif">A</text></g>
                  </g>

                  <!-- Arrow -->
                  <path d="M 155 145 L 200 145" stroke="#e8a951" stroke-width="1.6" fill="none"></path>
                  <polygon points="200,145 193,141 193,149" fill="#e8a951"></polygon>

                  <!-- B cell + T cell (T-dep response simplified) -->
                  <g transform="translate(250 145)">
                    <text x="0" y="-65" text-anchor="middle" style="fill:#9370b9;font:700 9px Inter,sans-serif;letter-spacing:1.5px">B + CD4 HELP</text>
                    <!-- B cell -->
                    <circle cx="-15" cy="0" r="22" fill="#9370b9" fill-opacity="0.35" stroke="#9370b9" stroke-width="1.5"></circle>
                    <ellipse cx="-18" cy="-1" rx="6" ry="5" fill="#4a2d60" opacity="0.7"></ellipse>
                    <text x="-15" y="3" text-anchor="middle" style="fill:#e8ecf3;font:700 8px Inter,sans-serif">B</text>
                    <!-- T cell -->
                    <circle cx="20" cy="0" r="18" fill="#6cc27d" fill-opacity="0.35" stroke="#6cc27d" stroke-width="1.4"></circle>
                    <ellipse cx="22" cy="-1" rx="5" ry="4" fill="#4a2d60" opacity="0.7"></ellipse>
                    <text x="22" y="3" text-anchor="middle" style="fill:#e8ecf3;font:700 7px Inter,sans-serif">T</text>
                    <!-- Bond -->
                    <line x1="0" y1="0" x2="5" y2="0" stroke="#e8a951" stroke-width="2"></line>
                  </g>

                  <!-- Arrow -->
                  <path d="M 305 145 L 350 145" stroke="#e8a951" stroke-width="1.6" fill="none"></path>
                  <polygon points="350,145 343,141 343,149" fill="#e8a951"></polygon>

                  <!-- Antitoxin IgG output -->
                  <g transform="translate(410 145)">
                    <text x="0" y="-65" text-anchor="middle" style="fill:#e8a951;font:700 9px Inter,sans-serif;letter-spacing:1.5px">ANTITOXIN IgG</text>
                    <g transform="translate(0 0) scale(1)" opacity="1"><g stroke="#e8a951" stroke-width="2.4" fill="none" stroke-linecap="round"><path d="M -12 -8 L -3 0 L 3 0 L 12 -8"></path><line x1="0" y1="0" x2="0" y2="14"></line></g><circle cx="-12" cy="-8" r="3" fill="#d14859"></circle><circle cx="12" cy="-8" r="3" fill="#d14859"></circle></g>
                    <g transform="translate(-25 -10) scale(0.9)" opacity="1"><g stroke="#e8a951" stroke-width="2.4" fill="none" stroke-linecap="round"><path d="M -12 -8 L -3 0 L 3 0 L 12 -8"></path><line x1="0" y1="0" x2="0" y2="14"></line></g><circle cx="-12" cy="-8" r="3" fill="#d14859"></circle><circle cx="12" cy="-8" r="3" fill="#d14859"></circle></g>
                    <g transform="translate(25 -10) scale(0.9)" opacity="1"><g stroke="#e8a951" stroke-width="2.4" fill="none" stroke-linecap="round"><path d="M -12 -8 L -3 0 L 3 0 L 12 -8"></path><line x1="0" y1="0" x2="0" y2="14"></line></g><circle cx="-12" cy="-8" r="3" fill="#d14859"></circle><circle cx="12" cy="-8" r="3" fill="#d14859"></circle></g>
                    <g transform="translate(-15 15) scale(0.9)" opacity="1"><g stroke="#e8a951" stroke-width="2.4" fill="none" stroke-linecap="round"><path d="M -12 -8 L -3 0 L 3 0 L 12 -8"></path><line x1="0" y1="0" x2="0" y2="14"></line></g><circle cx="-12" cy="-8" r="3" fill="#d14859"></circle><circle cx="12" cy="-8" r="3" fill="#d14859"></circle></g>
                    <g transform="translate(15 15) scale(0.9)" opacity="1"><g stroke="#e8a951" stroke-width="2.4" fill="none" stroke-linecap="round"><path d="M -12 -8 L -3 0 L 3 0 L 12 -8"></path><line x1="0" y1="0" x2="0" y2="14"></line></g><circle cx="-12" cy="-8" r="3" fill="#d14859"></circle><circle cx="12" cy="-8" r="3" fill="#d14859"></circle></g>
                    <text x="0" y="42" text-anchor="middle" style="fill:#b4becf;font:italic 7px Fraunces,serif">long-lasting</text>
                    <text x="0" y="52" text-anchor="middle" style="fill:#b4becf;font:italic 7px Fraunces,serif">memory B cells</text>
                  </g>

                  <text x="250" y="245" text-anchor="middle" style="fill:#b4becf;font:italic 7.5px Fraunces,serif">protein antigen · T-dependent · class switch + affinity maturation · IgG with memory</text>

                  <!-- FOCUS · audio-aligned attention marker -->
                  <circle cx="410" cy="75" r="20" fill="none" stroke="#d14859" stroke-width="1.8" stroke-dasharray="3 2" opacity="0.85">
                    <animate attributeName="r" values="16;26;16" dur="2.4s" repeatCount="indefinite"/>
                    <animate attributeName="opacity" values="0.85;0.20;0.85" dur="2.4s" repeatCount="indefinite"/>
                  </circle>
</svg>
