<?xml version="1.0" encoding="UTF-8"?>
<!--
  Auto-generated from the reference HTML by
  scripts/storymode-extraction/extract.mjs.
  Do not edit by hand — regenerate the file instead.
-->
<svg xmlns="http://www.w3.org/2000/svg" xmlns:xlink="http://www.w3.org/1999/xlink" viewBox="0 0 500 260" preserveAspectRatio="xMidYMid meet">
<text x="20" y="16" style="fill:#e8a951;font:600 9px Inter,sans-serif;letter-spacing:2px">STEP 05 · DECOY BINDING · NO 6-HELIX BUNDLE</text>

<g transform="translate(250 145)">
  <text x="0" y="-100" text-anchor="middle" style="fill:#9370b9;font:700 9px Inter,sans-serif;letter-spacing:1.5px">FUSION BLOCKED</text>
  
  <!-- Membranes -->
  <line x1="-150" y1="-65" x2="150" y2="-65" stroke="#b4becf" stroke-width="2.4"/>
  <line x1="-150" y1="65" x2="150" y2="65" stroke="#6cc27d" stroke-width="2.4"/>
  
  <!-- HR1 helices (still extended) -->
  <g stroke="#d14859" stroke-width="3.5" fill="none" stroke-linecap="round">
    <line x1="-15" y1="-65" x2="-15" y2="40"/>
    <line x1="0" y1="-65" x2="0" y2="40"/>
    <line x1="15" y1="-65" x2="15" y2="40"/>
  </g>
  
  <!-- Enfuvirtide bound to HR1 (orange beads next to HR1) -->
  <g fill="rgba(232,169,81,0.85)" stroke="#e8a951" stroke-width="0.6">
    <circle cx="-28" cy="-50" r="3"/>
    <circle cx="-28" cy="-35" r="3"/>
    <circle cx="-28" cy="-20" r="3"/>
    <circle cx="-28" cy="-5" r="3"/>
    <circle cx="-28" cy="10" r="3"/>
    <circle cx="-28" cy="25" r="3"/>
  </g>
  <text x="-50" y="-15" text-anchor="end" style="fill:#e8a951;font:700 7px Inter,sans-serif">enfuvirtide</text>
  <text x="-50" y="-5" text-anchor="end" style="fill:#e8a951;font:6.5px Inter,sans-serif">on HR1</text>
  
  <!-- Native HR2 floating away (can't bind) -->
  <g stroke="#6cc27d" stroke-width="3.5" fill="none" stroke-linecap="round" opacity="0.5">
    <path d="M 35 65 L 50 30 L 70 0"/>
    <path d="M 50 65 L 65 30 L 85 -5"/>
    <path d="M 65 65 L 80 30 L 95 -10"/>
  </g>
  <text x="65" y="-25" style="fill:#6cc27d;font:italic 6.5px Fraunces,serif">HR2 can't zip up</text>
  
  <!-- Big X over coupling area -->
  <line x1="-15" y1="-15" x2="35" y2="35" stroke="#d14859" stroke-width="3" stroke-linecap="round"/>
  <line x1="-15" y1="35" x2="35" y2="-15" stroke="#d14859" stroke-width="3" stroke-linecap="round"/>
</g>

<text x="250" y="220" text-anchor="middle" style="fill:#d14859;font:italic 700 8.5px Fraunces,serif">No bundle · no fusion · virus stuck outside cell</text>
<text x="250" y="245" text-anchor="middle" style="fill:#6b7689;font:italic 7.5px Fraunces,serif">Enfuvirtide occupies the HR1 binding site · native HR2 cannot complete the bundle</text>

                  <!-- FOCUS · audio-aligned attention marker -->
                  <circle cx="243" cy="126" r="60" fill="none" stroke="#d14859" stroke-width="1.8" stroke-dasharray="3 2" opacity="0.85">
                    <animate attributeName="r" values="56;66;56" dur="2.4s" repeatCount="indefinite"/>
                    <animate attributeName="opacity" values="0.85;0.20;0.85" dur="2.4s" repeatCount="indefinite"/>
                  </circle>
</svg>
