<?xml version="1.0" encoding="UTF-8"?>
<!--
  Auto-generated from the reference HTML by
  scripts/storymode-extraction/extract.mjs.
  Do not edit by hand — regenerate the file instead.
-->
<svg xmlns="http://www.w3.org/2000/svg" xmlns:xlink="http://www.w3.org/1999/xlink" viewBox="0 0 500 260" preserveAspectRatio="xMidYMid meet">
                  <text x="20" y="16" style="fill:#e8a951;font:600 9px Inter,sans-serif;letter-spacing:2px">STEP 03 · ANTI-IgA IgE · ARMED ON MAST CELL</text>

                  <!-- Mast cell on left with anti-IgA IgE bound -->
                  <g transform="translate(180 145)">
                    <g transform="translate(0 0)" opacity="1"><circle cx="0" cy="0" r="38" fill="#d14859" fill-opacity="0.30" stroke="#d14859" stroke-width="1.6"></circle><ellipse cx="-3" cy="-2" rx="8.36" ry="6.84" fill="#4a2d60" fill-opacity="0.7"></ellipse><g fill="#9370b9" fill-opacity="0.85"><circle cx="10" cy="-5" r="2.5"></circle><circle cx="-12" cy="8" r="2.5"></circle><circle cx="8" cy="12" r="2.5"></circle><circle cx="-8" cy="-10" r="2.5"></circle><circle cx="14" cy="6" r="2.5"></circle><circle cx="-15" cy="-2" r="2.5"></circle><circle cx="4" cy="-14" r="2.5"></circle><circle cx="16" cy="-10" r="2.5"></circle><circle cx="-6" cy="16" r="2.5"></circle><circle cx="10" cy="-16" r="2.5"></circle></g><rect x="-3" y="-41" width="6" height="6" fill="#6b7689" stroke="#6b7689" stroke-width="0.8" transform="rotate(0 2.326828918379971e-15 -38)"></rect><line x1="0" y1="-38" x2="0" y2="-46.4" stroke="#e8a951" stroke-width="2.2" stroke-linecap="round"></line><line x1="0" y1="-46.4" x2="-22" y2="-47.1" stroke="#e8a951" stroke-width="2.2" stroke-linecap="round"></line><line x1="0" y1="-46.4" x2="22" y2="-47.1" stroke="#e8a951" stroke-width="2.2" stroke-linecap="round"></line><rect x="21.4" y="-32.1" width="6" height="6" fill="#6b7689" stroke="#6b7689" stroke-width="0.8" transform="rotate(40 24.425929168088494 -29.109688838521166)"></rect><line x1="24.4" y1="-29.1" x2="29.8" y2="-35.5" stroke="#e8a951" stroke-width="2.2" stroke-linecap="round"></line><line x1="29.8" y1="-35.5" x2="13.5" y2="-50.2" stroke="#e8a951" stroke-width="2.2" stroke-linecap="round"></line><line x1="29.8" y1="-35.5" x2="47.1" y2="-22" stroke="#e8a951" stroke-width="2.2" stroke-linecap="round"></line><rect x="-27.4" y="-32.1" width="6" height="6" fill="#6b7689" stroke="#6b7689" stroke-width="0.8" transform="rotate(-40 -24.425929168088494 -29.109688838521166)"></rect><line x1="-24.4" y1="-29.1" x2="-29.8" y2="-35.5" stroke="#e8a951" stroke-width="2.2" stroke-linecap="round"></line><line x1="-29.8" y1="-35.5" x2="-47.1" y2="-22" stroke="#e8a951" stroke-width="2.2" stroke-linecap="round"></line><line x1="-29.8" y1="-35.5" x2="-13.5" y2="-50.2" stroke="#e8a951" stroke-width="2.2" stroke-linecap="round"></line><rect x="21.4" y="26.1" width="6" height="6" fill="#6b7689" stroke="#6b7689" stroke-width="0.8" transform="rotate(140 24.425929168088494 29.109688838521166)"></rect><line x1="24.4" y1="29.1" x2="29.8" y2="35.5" stroke="#e8a951" stroke-width="2.2" stroke-linecap="round"></line><line x1="29.8" y1="35.5" x2="47.1" y2="22" stroke="#e8a951" stroke-width="2.2" stroke-linecap="round"></line><line x1="29.8" y1="35.5" x2="13.5" y2="50.2" stroke="#e8a951" stroke-width="2.2" stroke-linecap="round"></line><rect x="-27.4" y="26.1" width="6" height="6" fill="#6b7689" stroke="#6b7689" stroke-width="0.8" transform="rotate(220 -24.425929168088494 29.109688838521166)"></rect><line x1="-24.4" y1="29.1" x2="-29.8" y2="35.5" stroke="#e8a951" stroke-width="2.2" stroke-linecap="round"></line><line x1="-29.8" y1="35.5" x2="-13.5" y2="50.2" stroke="#e8a951" stroke-width="2.2" stroke-linecap="round"></line><line x1="-29.8" y1="35.5" x2="-47.1" y2="22" stroke="#e8a951" stroke-width="2.2" stroke-linecap="round"></line></g>
                    <text x="0" y="68" text-anchor="middle" style="fill:#d14859;font:700 9px Inter,sans-serif;letter-spacing:1.5px">MAST CELL</text>
                  </g>

                  <!-- Annotation panel on right -->
                  <g transform="translate(380 145)">
                    <rect x="-70" y="-50" width="140" height="100" rx="6" fill="#0a0e1a" stroke="#e8a951" stroke-width="1.4" stroke-dasharray="3 2"></rect>
                    <text x="0" y="-30" text-anchor="middle" style="fill:#e8a951;font:700 8px Inter,sans-serif;letter-spacing:1.5px">ANTI-IgA IgE</text>
                    <line x1="-55" y1="-22" x2="55" y2="-22" stroke="#3a4358" stroke-width="0.6"></line>
                    <text x="0" y="-10" text-anchor="middle" style="fill:#b4becf;font:italic 7px Fraunces,serif">made by patient because</text>
                    <text x="0" y="0" text-anchor="middle" style="fill:#b4becf;font:italic 7px Fraunces,serif">IgA looks "foreign"</text>
                    <text x="0" y="20" text-anchor="middle" style="fill:#e8a951;font:600 7px Inter,sans-serif;letter-spacing:1.2px">FcεRI BINDS Fc</text>
                    <text x="0" y="32" text-anchor="middle" style="fill:#b4becf;font:italic 7px Fraunces,serif">IgE armed on surface</text>
                    <text x="0" y="44" text-anchor="middle" style="fill:#b4becf;font:italic 7px Fraunces,serif">Fab faces outward</text>
                  </g>

                  <text x="250" y="245" text-anchor="middle" style="fill:#b4becf;font:italic 7.5px Fraunces,serif">no IgA self → patient develops anti-IgA antibodies · IgE class binds mast cell FcεRI</text>

                  <!-- FOCUS · audio-aligned attention marker -->
                  <circle cx="380" cy="110" r="20" fill="none" stroke="#d14859" stroke-width="1.8" stroke-dasharray="3 2" opacity="0.85">
                    <animate attributeName="r" values="16;26;16" dur="2.4s" repeatCount="indefinite"/>
                    <animate attributeName="opacity" values="0.85;0.20;0.85" dur="2.4s" repeatCount="indefinite"/>
                  </circle>

                  <!-- FOCUS · audio-aligned attention marker -->
                  <circle cx="380" cy="140" r="28" fill="none" stroke="#d14859" stroke-width="1.8" stroke-dasharray="3 2" opacity="0.85">
                    <animate attributeName="r" values="24;34;24" dur="2.4s" repeatCount="indefinite"/>
                    <animate attributeName="opacity" values="0.85;0.20;0.85" dur="2.4s" repeatCount="indefinite"/>
                  </circle>

                  <!-- FOCUS · audio-aligned attention marker -->
                  <circle cx="380" cy="172" r="30" fill="none" stroke="#d14859" stroke-width="1.8" stroke-dasharray="3 2" opacity="0.85">
                    <animate attributeName="r" values="26;36;26" dur="2.4s" repeatCount="indefinite"/>
                    <animate attributeName="opacity" values="0.85;0.20;0.85" dur="2.4s" repeatCount="indefinite"/>
                  </circle>
</svg>
