<?xml version="1.0" encoding="UTF-8"?>
<!--
  Auto-generated from the reference HTML by
  scripts/storymode-extraction/extract.mjs.
  Do not edit by hand — regenerate the file instead.
-->
<svg xmlns="http://www.w3.org/2000/svg" xmlns:xlink="http://www.w3.org/1999/xlink" viewBox="0 0 1000 460" preserveAspectRatio="xMidYMid meet">
      <style>
        .ldg-eyebrow { fill: #e8a951; font: 500 10px "Inter", sans-serif; letter-spacing: 2.5px; }
        .ldg-title { fill: #e8ecf3; font: italic 400 22px "Fraunces", serif; }
        .ldg-card-num { fill: #0a0e1a; font: 700 12px "Inter", sans-serif; }
        .ldg-card-eyebrow { fill: #d14859; font: 600 10px "Inter", sans-serif; letter-spacing: 2px; }
        .ldg-card-title { fill: #e8ecf3; font: italic 600 15px "Fraunces", serif; }
        .ldg-because { fill: #e8a951; font: 600 9px "Inter", sans-serif; letter-spacing: 2px; }
        .ldg-because-body { fill: #b4becf; font: 400 11px "Inter", sans-serif; }
        .ldg-label-dim { fill: #6b7689; font: italic 400 10px "Inter", sans-serif; }
        .ldg-label-crimson { fill: #d14859; font: 700 11px "Inter", sans-serif; }
        .ldg-stat { fill: #e8a951; font: 700 22px "Fraunces", serif; }
        .ldg-stat-unit { fill: #b4becf; font: 400 10px "Inter", sans-serif; letter-spacing: 1px; }
      </style>
      <defs>
        <marker id="ldgArrowCrimson" viewBox="0 0 10 10" refX="8" refY="5" markerWidth="6" markerHeight="6" orient="auto">
          <path d="M 0 0 L 10 5 L 0 10 z" fill="#d14859"/>
        </marker>
      </defs>

      <!-- Title -->
      <text x="500" y="26" text-anchor="middle" class="ldg-eyebrow">CLINICAL FINDINGS · LEUKOCYTE ADHESION DEFICIENCY</text>
      <text x="500" y="58" text-anchor="middle" class="ldg-title">What you see at the bedside</text>
      <line x1="40" y1="78" x2="960" y2="78" stroke="#222c3e" stroke-width="1"/>

      <!-- Card 1: Delayed cord separation -->
      <g transform="translate(40 100)">
        <rect x="0" y="0" width="290" height="320" rx="10" ry="10" fill="#0a0e1a" stroke="#222c3e" stroke-width="1"/>
        <circle cx="22" cy="22" r="11" fill="#d14859"/>
        <text x="22" y="26" text-anchor="middle" class="ldg-card-num">1</text>
        <text x="40" y="20" class="ldg-card-eyebrow">FINDING</text>
        <text x="40" y="35" class="ldg-card-title">Delayed cord separation</text>
        <g transform="translate(145 145)">
          <ellipse cx="0" cy="20" rx="62" ry="42" fill="#4fb8a8" opacity="0.12" stroke="#4fb8a8" stroke-width="1" stroke-opacity="0.4"/>
          <circle cx="0" cy="10" r="14" fill="#0a0e1a" stroke="#4fb8a8" stroke-width="1" stroke-opacity="0.5"/>
          <path d="M -6 4 Q -8 -8 -4 -22 Q 0 -32 4 -22 Q 8 -8 6 4 Z" fill="#d14859" opacity="0.85" stroke="#a53343" stroke-width="0.8"/>
          <path d="M -3 -8 Q 0 -10 3 -8" stroke="#7a1a26" stroke-width="0.6" fill="none" opacity="0.6"/>
          <path d="M -3 -16 Q 0 -18 3 -16" stroke="#7a1a26" stroke-width="0.6" fill="none" opacity="0.6"/>
          <path d="M 30 -22 L 12 -18" stroke="#d14859" stroke-width="1.2" marker-end="url(#ldgArrowCrimson)"/>
        </g>
        <g transform="translate(145 245)">
          <text x="0" y="0" text-anchor="middle" class="ldg-stat">&gt; 21 days</text>
          <text x="0" y="14" text-anchor="middle" class="ldg-stat-unit">VS. NORMAL DAY 10–14</text>
        </g>
        <line x1="20" y1="278" x2="270" y2="278" stroke="#222c3e" stroke-width="1"/>
        <text x="145" y="293" text-anchor="middle" class="ldg-because">BECAUSE</text>
        <text x="145" y="308" text-anchor="middle" class="ldg-because-body">neutrophils can't migrate into the stump</text>
      </g>

      <!-- Card 2: Infections without pus -->
      <g transform="translate(355 100)">
        <rect x="0" y="0" width="290" height="320" rx="10" ry="10" fill="#0a0e1a" stroke="#222c3e" stroke-width="1"/>
        <circle cx="22" cy="22" r="11" fill="#d14859"/>
        <text x="22" y="26" text-anchor="middle" class="ldg-card-num">2</text>
        <text x="40" y="20" class="ldg-card-eyebrow">FINDING</text>
        <text x="40" y="35" class="ldg-card-title">Infections without pus</text>
        <g transform="translate(145 165)">
          <rect x="-110" y="-50" width="220" height="100" fill="#4fb8a8" opacity="0.08" stroke="#4fb8a8" stroke-width="1" stroke-opacity="0.3" rx="4"/>
          <path d="M -50 -10 Q -55 -28 -25 -32 Q 5 -36 25 -28 Q 55 -22 50 0 Q 55 22 25 28 Q 0 32 -25 24 Q -55 18 -50 -10 Z" fill="#d14859" opacity="0.32" stroke="#d14859" stroke-width="1.2"/>
          <g fill="#d14859" opacity="0.95">
            <ellipse cx="-30" cy="-12" rx="3" ry="1.5" transform="rotate(20 -30 -12)"/>
            <ellipse cx="-15" cy="0" rx="3" ry="1.5" transform="rotate(-30 -15 0)"/>
            <ellipse cx="5" cy="-15" rx="3" ry="1.5" transform="rotate(45 5 -15)"/>
            <ellipse cx="20" cy="5" rx="3" ry="1.5" transform="rotate(-15 20 5)"/>
            <ellipse cx="-5" cy="15" rx="3" ry="1.5" transform="rotate(60 -5 15)"/>
            <ellipse cx="30" cy="-5" rx="3" ry="1.5" transform="rotate(-45 30 -5)"/>
            <ellipse cx="15" cy="20" rx="3" ry="1.5" transform="rotate(20 15 20)"/>
            <ellipse cx="-30" cy="10" rx="3" ry="1.5" transform="rotate(75 -30 10)"/>
          </g>
          <g fill="none" stroke="#e8a951" stroke-width="0.8" stroke-dasharray="2 2" opacity="0.35">
            <circle cx="-35" cy="-22" r="6"/>
            <circle cx="35" cy="15" r="6"/>
            <circle cx="-15" cy="22" r="6"/>
          </g>
        </g>
        <text x="145" y="248" text-anchor="middle" class="ldg-label-crimson">bacteria present</text>
        <text x="145" y="262" text-anchor="middle" class="ldg-label-dim">but no neutrophils → no pus</text>
        <line x1="20" y1="278" x2="270" y2="278" stroke="#222c3e" stroke-width="1"/>
        <text x="145" y="293" text-anchor="middle" class="ldg-because">BECAUSE</text>
        <text x="145" y="308" text-anchor="middle" class="ldg-because-body">pus is dead neutrophils — none arrive</text>
      </g>

      <!-- Card 3: Marked neutrophilia -->
      <g transform="translate(670 100)">
        <rect x="0" y="0" width="290" height="320" rx="10" ry="10" fill="#0a0e1a" stroke="#222c3e" stroke-width="1"/>
        <circle cx="22" cy="22" r="11" fill="#d14859"/>
        <text x="22" y="26" text-anchor="middle" class="ldg-card-num">3</text>
        <text x="40" y="20" class="ldg-card-eyebrow">FINDING</text>
        <text x="40" y="35" class="ldg-card-title">Marked neutrophilia</text>
        <g transform="translate(145 165)">
          <circle cx="0" cy="0" r="78" fill="none" stroke="#4fb8a8" stroke-width="2.5" opacity="0.7"/>
          <circle cx="0" cy="0" r="78" fill="#4fb8a8" opacity="0.05"/>
          <circle cx="0" cy="0" r="72" fill="none" stroke="#4fb8a8" stroke-width="0.8" opacity="0.4"/>
          <g>
            <circle cx="0" cy="0" r="10" fill="#e8a951" opacity="0.85" stroke="#c08537" stroke-width="0.8"/>
            <circle cx="-18" cy="-8" r="9" fill="#e8a951" opacity="0.85" stroke="#c08537" stroke-width="0.8"/>
            <circle cx="16" cy="-12" r="9" fill="#e8a951" opacity="0.85" stroke="#c08537" stroke-width="0.8"/>
            <circle cx="-22" cy="14" r="10" fill="#e8a951" opacity="0.85" stroke="#c08537" stroke-width="0.8"/>
            <circle cx="20" cy="14" r="9" fill="#e8a951" opacity="0.85" stroke="#c08537" stroke-width="0.8"/>
            <circle cx="-2" cy="-22" r="9" fill="#e8a951" opacity="0.85" stroke="#c08537" stroke-width="0.8"/>
            <circle cx="2" cy="22" r="10" fill="#e8a951" opacity="0.85" stroke="#c08537" stroke-width="0.8"/>
            <circle cx="-38" cy="-2" r="8" fill="#e8a951" opacity="0.85" stroke="#c08537" stroke-width="0.8"/>
            <circle cx="36" cy="0" r="9" fill="#e8a951" opacity="0.85" stroke="#c08537" stroke-width="0.8"/>
            <circle cx="-32" cy="28" r="8" fill="#e8a951" opacity="0.85" stroke="#c08537" stroke-width="0.8"/>
            <circle cx="34" cy="28" r="9" fill="#e8a951" opacity="0.85" stroke="#c08537" stroke-width="0.8"/>
            <circle cx="-32" cy="-22" r="9" fill="#e8a951" opacity="0.85" stroke="#c08537" stroke-width="0.8"/>
            <circle cx="32" cy="-26" r="8" fill="#e8a951" opacity="0.85" stroke="#c08537" stroke-width="0.8"/>
            <circle cx="-50" cy="14" r="8" fill="#e8a951" opacity="0.85" stroke="#c08537" stroke-width="0.8"/>
            <circle cx="50" cy="-12" r="8" fill="#e8a951" opacity="0.85" stroke="#c08537" stroke-width="0.8"/>
            <circle cx="-12" cy="42" r="9" fill="#e8a951" opacity="0.85" stroke="#c08537" stroke-width="0.8"/>
            <circle cx="14" cy="-40" r="8" fill="#e8a951" opacity="0.85" stroke="#c08537" stroke-width="0.8"/>
            <circle cx="-46" cy="-22" r="7" fill="#e8a951" opacity="0.85" stroke="#c08537" stroke-width="0.8"/>
            <circle cx="46" cy="32" r="7" fill="#e8a951" opacity="0.85" stroke="#c08537" stroke-width="0.8"/>
            <circle cx="-18" cy="-46" r="7" fill="#e8a951" opacity="0.85" stroke="#c08537" stroke-width="0.8"/>
            <circle cx="18" cy="46" r="7" fill="#e8a951" opacity="0.85" stroke="#c08537" stroke-width="0.8"/>
            <circle cx="-58" cy="-12" r="6" fill="#e8a951" opacity="0.85" stroke="#c08537" stroke-width="0.8"/>
            <circle cx="58" cy="14" r="6" fill="#e8a951" opacity="0.85" stroke="#c08537" stroke-width="0.8"/>
            <circle cx="0" cy="58" r="6" fill="#e8a951" opacity="0.85" stroke="#c08537" stroke-width="0.8"/>
            <circle cx="-24" cy="-38" r="6" fill="#e8a951" opacity="0.85" stroke="#c08537" stroke-width="0.8"/>
            <circle cx="44" cy="-30" r="6" fill="#e8a951" opacity="0.85" stroke="#c08537" stroke-width="0.8"/>
          </g>
        </g>
        <g transform="translate(145 252)">
          <text x="0" y="0" text-anchor="middle" class="ldg-stat">&gt; 25 K/μL</text>
          <text x="0" y="14" text-anchor="middle" class="ldg-stat-unit">NORMAL: 1.5–8 K/μL</text>
        </g>
        <line x1="20" y1="278" x2="270" y2="278" stroke="#222c3e" stroke-width="1"/>
        <text x="145" y="293" text-anchor="middle" class="ldg-because">BECAUSE</text>
        <text x="145" y="308" text-anchor="middle" class="ldg-because-body">cells made normally — but trapped in blood</text>
      </g>

      <!-- Bottom resolver -->
      <line x1="40" y1="435" x2="960" y2="435" stroke="#222c3e" stroke-width="1"/>
      <text x="500" y="455" text-anchor="middle" class="ldg-because-body">
        All three signs trace to one molecular defect:
        <tspan fill="#e8a951" font-weight="700">CD18</tspan>
        — the β2 integrin subunit that couldn't grab ICAM-1.
      </text>
    </svg>
