<?xml version="1.0" encoding="UTF-8"?>
<!--
  Auto-generated from the reference HTML by
  scripts/storymode-extraction/extract.mjs.
  Do not edit by hand — regenerate the file instead.
-->
<svg xmlns="http://www.w3.org/2000/svg" xmlns:xlink="http://www.w3.org/1999/xlink" viewBox="0 0 1000 720" preserveAspectRatio="xMidYMid meet">
      <style>
        .cp-eyebrow { fill: #e8a951; font: 500 10px "Inter", sans-serif; letter-spacing: 2.5px; }
        .cp-title { fill: #e8ecf3; font: italic 400 22px "Fraunces", serif; }
        .cp-zone-label { fill: #b4becf; font: 600 10.5px "Inter", sans-serif; letter-spacing: 2.5px; }
        .cp-path-title { fill: #e8ecf3; font: 700 12px "Inter", sans-serif; letter-spacing: 1px; }
        .cp-path-sub { fill: #b4becf; font: italic 9.5px "Inter", sans-serif; }
        .cp-node { fill: #0a0e1a; font: 700 12px "Inter", sans-serif; }
        .cp-node-sub { fill: #b4becf; font: italic 9.5px "Inter", sans-serif; }
        .cp-label { fill: #e8a951; font: 600 10.5px "Inter", sans-serif; letter-spacing: 0.5px; }
        .cp-caption { fill: #6b7689; font: italic 400 10px "Inter", sans-serif; }
        .cp-disease { fill: #d14859; font: 700 10px "Inter", sans-serif; }
        .cp-accent { fill: #4fb8a8; font: 600 10.5px "Inter", sans-serif; }
      </style>

      <text x="500" y="26" text-anchor="middle" class="cp-eyebrow">COMPLEMENT · THREE TRIGGERS · ONE KILL SWITCH</text>
      <text x="500" y="58" text-anchor="middle" class="cp-title">How 30 plasma proteins lyse a microbe.</text>
      <line x1="40" y1="78" x2="960" y2="78" stroke="#222c3e" stroke-width="1"/>

      <!-- ======= THREE PATHWAYS → C3 CONVERTASE → C3 SPLIT ======= -->
      <g transform="translate(0 100)">
        <text x="60" y="18" class="cp-zone-label">THREE PATHWAYS · ONE JUNCTION</text>

        <g transform="translate(60 40)">
          <rect x="0" y="0" width="200" height="58" rx="8" fill="#9370b9" fill-opacity="0.12" stroke="#9370b9" stroke-width="1.2"/>
          <text x="15" y="20" class="cp-path-title" style="fill:#9370b9">CLASSICAL</text>
          <text x="15" y="36" class="cp-path-sub">antibody-antigen complex</text>
          <text x="15" y="50" class="cp-path-sub">IgG / IgM → C1 → C4 → C2</text>
        </g>

        <g transform="translate(60 110)">
          <rect x="0" y="0" width="200" height="58" rx="8" fill="#4fb8a8" fill-opacity="0.12" stroke="#4fb8a8" stroke-width="1.2"/>
          <text x="15" y="20" class="cp-path-title" style="fill:#4fb8a8">LECTIN</text>
          <text x="15" y="36" class="cp-path-sub">MBL grabs mannose</text>
          <text x="15" y="50" class="cp-path-sub">on bacterial / fungal surfaces</text>
        </g>

        <g transform="translate(60 180)">
          <rect x="0" y="0" width="200" height="58" rx="8" fill="#d14859" fill-opacity="0.12" stroke="#d14859" stroke-width="1.2"/>
          <text x="15" y="20" class="cp-path-title" style="fill:#d14859">ALTERNATIVE</text>
          <text x="15" y="36" class="cp-path-sub">C3 hydrolyzes spontaneously</text>
          <text x="15" y="50" class="cp-path-sub">amplifies on microbial surfaces</text>
        </g>

        <g stroke="#e8a951" stroke-width="1.8" fill="none" opacity="0.8">
          <path d="M 265 69 Q 310 90 350 130"/>
          <path d="M 265 139 L 350 139"/>
          <path d="M 265 209 Q 310 180 350 148"/>
        </g>
        <polygon points="348,135 360,139 348,143" fill="#e8a951"/>

        <g transform="translate(360 115)">
          <rect x="0" y="0" width="140" height="52" rx="8" fill="#e8a951" opacity="0.95"/>
          <text x="70" y="23" text-anchor="middle" class="cp-node" style="font-size:13px">C3 CONVERTASE</text>
          <text x="70" y="40" text-anchor="middle" class="cp-node-sub" style="fill:#4a2d60">splits C3</text>
        </g>

        <path d="M 505 141 L 560 141" stroke="#e8a951" stroke-width="1.8" fill="none"/>
        <polygon points="558,137 570,141 558,145" fill="#e8a951"/>

        <g transform="translate(575 115)">
          <ellipse cx="40" cy="22" rx="42" ry="22" fill="#4fb8a8" opacity="0.55" stroke="#4fb8a8" stroke-width="1"/>
          <text x="40" y="27" text-anchor="middle" style="fill:#e8ecf3;font:700 13px Inter,sans-serif">C3</text>
        </g>

        <path d="M 615 165 L 615 215" stroke="#e8a951" stroke-width="1.2" fill="none" stroke-dasharray="3 3"/>
        <polygon points="611,213 615,221 619,213" fill="#e8a951"/>

        <g transform="translate(675 155)">
          <circle cx="18" cy="18" r="17" fill="#d14859" opacity="0.85"/>
          <text x="18" y="22" text-anchor="middle" style="fill:#fff;font:700 11px Inter,sans-serif">C3a</text>
          <text x="45" y="14" style="fill:#d14859;font:700 10px Inter,sans-serif">ANAPHYLATOXIN</text>
          <text x="45" y="28" class="cp-caption">inflammation · chemotaxis</text>
        </g>

        <g transform="translate(675 205)">
          <circle cx="18" cy="18" r="17" fill="#4fb8a8" opacity="0.9"/>
          <text x="18" y="22" text-anchor="middle" style="fill:#0a0e1a;font:700 11px Inter,sans-serif">C3b</text>
          <text x="45" y="14" style="fill:#4fb8a8;font:700 10px Inter,sans-serif">OPSONIN + builds C5 convertase</text>
          <text x="45" y="28" class="cp-caption">coats microbe → phagocytosis</text>
        </g>
      </g>

      <!-- ======= C5 CONVERTASE → MAC → LYSIS ======= -->
      <g transform="translate(0 390)">
        <line x1="40" y1="0" x2="960" y2="0" stroke="#222c3e" stroke-width="1"/>
        <text x="60" y="22" class="cp-zone-label">MAC ASSEMBLY · THE PORE</text>

        <g transform="translate(80 45)">
          <rect x="0" y="0" width="140" height="44" rx="6" fill="#e8a951" opacity="0.85"/>
          <text x="70" y="21" text-anchor="middle" class="cp-node" style="font-size:12px">C5 CONVERTASE</text>
          <text x="70" y="36" text-anchor="middle" class="cp-node-sub" style="fill:#4a2d60">splits C5</text>
        </g>

        <path d="M 225 67 L 270 67" stroke="#e8a951" stroke-width="1.5" fill="none"/>
        <polygon points="268,63 280,67 268,71" fill="#e8a951"/>

        <g transform="translate(290 45)">
          <circle cx="16" cy="16" r="14" fill="#d14859" opacity="0.85"/>
          <text x="16" y="20" text-anchor="middle" style="fill:#fff;font:700 10px Inter,sans-serif">C5a</text>
          <text x="38" y="20" class="cp-caption">anaphylatoxin (stronger than C3a)</text>
        </g>
        <g transform="translate(290 80)">
          <circle cx="16" cy="16" r="14" fill="#9370b9" opacity="0.85"/>
          <text x="16" y="20" text-anchor="middle" style="fill:#fff;font:700 10px Inter,sans-serif">C5b</text>
          <text x="38" y="20" class="cp-caption">recruits C6 · C7 · C8 · C9(n)</text>
        </g>

        <path d="M 490 90 L 540 90" stroke="#9370b9" stroke-width="1.5" fill="none"/>
        <polygon points="538,86 550,90 538,94" fill="#9370b9"/>

        <g transform="translate(560 40)">
          <text x="90" y="12" text-anchor="middle" class="cp-label">MAC</text>
          <g transform="translate(90 55)">
            <line x1="-90" y1="0" x2="90" y2="0" stroke="#d14859" stroke-width="2" opacity="0.85"/>
            <circle cx="0" cy="0" r="22" fill="#0a0e1a" stroke="#9370b9" stroke-width="2"/>
            <g fill="#9370b9">
              <circle cx="0" cy="-16" r="3"/><circle cx="12" cy="-11" r="3"/><circle cx="16" cy="0" r="3"/>
              <circle cx="12" cy="11" r="3"/><circle cx="0" cy="16" r="3"/><circle cx="-12" cy="11" r="3"/>
              <circle cx="-16" cy="0" r="3"/><circle cx="-12" cy="-11" r="3"/>
            </g>
            <text x="0" y="3" text-anchor="middle" style="fill:#e8a951;font:700 8.5px Inter,sans-serif">PORE</text>
          </g>
          <text x="90" y="92" text-anchor="middle" class="cp-caption">membrane attack complex</text>
        </g>

        <path d="M 755 95 L 810 95" stroke="#e8a951" stroke-width="1.5" fill="none" stroke-dasharray="3 3"/>
        <polygon points="808,91 820,95 808,99" fill="#e8a951"/>
        <g transform="translate(830 78)">
          <text x="50" y="10" text-anchor="middle" class="cp-accent">LYSED</text>
          <g fill="#d14859" opacity="0.55">
            <ellipse cx="30" cy="30" rx="7" ry="3"/>
            <ellipse cx="50" cy="35" rx="6" ry="2.5"/>
            <ellipse cx="65" cy="28" rx="5" ry="2.5"/>
            <ellipse cx="75" cy="36" rx="4" ry="2"/>
          </g>
          <text x="50" y="55" text-anchor="middle" class="cp-caption">osmotic lysis</text>
        </g>
      </g>

      <!-- ======= REGULATORS / DEFICIENCIES ======= -->
      <g transform="translate(0 540)">
        <line x1="40" y1="0" x2="960" y2="0" stroke="#222c3e" stroke-width="1"/>
        <text x="60" y="22" class="cp-zone-label">DEFICIENCY → DISEASE · KNOW THIS TABLE</text>

        <g transform="translate(60 40)">
          <rect x="0" y="0" width="210" height="82" rx="8" fill="#d14859" fill-opacity="0.06" stroke="#d14859" stroke-width="1"/>
          <text x="105" y="22" text-anchor="middle" class="cp-label" style="fill:#d14859">C1-INH ↓</text>
          <line x1="20" y1="32" x2="190" y2="32" stroke="#d14859" stroke-opacity="0.35" stroke-width="1"/>
          <text x="105" y="52" text-anchor="middle" class="cp-disease">Hereditary angioedema</text>
          <text x="105" y="68" text-anchor="middle" class="cp-caption">episodic non-pruritic swelling</text>
        </g>

        <g transform="translate(290 40)">
          <rect x="0" y="0" width="210" height="82" rx="8" fill="#d14859" fill-opacity="0.06" stroke="#d14859" stroke-width="1"/>
          <text x="105" y="22" text-anchor="middle" class="cp-label" style="fill:#d14859">C3 ↓</text>
          <line x1="20" y1="32" x2="190" y2="32" stroke="#d14859" stroke-opacity="0.35" stroke-width="1"/>
          <text x="105" y="52" text-anchor="middle" class="cp-disease">Recurrent pyogenic infections</text>
          <text x="105" y="68" text-anchor="middle" class="cp-caption">+ immune complex disease</text>
        </g>

        <g transform="translate(520 40)">
          <rect x="0" y="0" width="210" height="82" rx="8" fill="#e8a951" fill-opacity="0.1" stroke="#e8a951" stroke-width="1.8"/>
          <text x="105" y="22" text-anchor="middle" class="cp-label">C5–C9 ↓ (MAC)</text>
          <line x1="20" y1="32" x2="190" y2="32" stroke="#e8a951" stroke-opacity="0.45" stroke-width="1"/>
          <text x="105" y="52" text-anchor="middle" class="cp-disease">Recurrent Neisseria</text>
          <text x="105" y="68" text-anchor="middle" class="cp-caption">meningitidis · gonorrhoeae</text>
        </g>

        <g transform="translate(750 40)">
          <rect x="0" y="0" width="200" height="82" rx="8" fill="#d14859" fill-opacity="0.06" stroke="#d14859" stroke-width="1"/>
          <text x="100" y="22" text-anchor="middle" class="cp-label" style="fill:#d14859">DAF / CD59 ↓</text>
          <line x1="20" y1="32" x2="180" y2="32" stroke="#d14859" stroke-opacity="0.35" stroke-width="1"/>
          <text x="100" y="52" text-anchor="middle" class="cp-disease">PNH</text>
          <text x="100" y="68" text-anchor="middle" class="cp-caption">paroxysmal nocturnal hemoglobinuria</text>
        </g>

        <text x="625" y="140" text-anchor="middle" class="cp-caption" style="font-style:italic;fill:#e8a951">★ the board-classic pattern</text>
      </g>
    </svg>
