<?xml version="1.0" encoding="UTF-8"?>
<!--
  Auto-generated from the reference HTML by
  scripts/storymode-extraction/extract.mjs.
  Do not edit by hand — regenerate the file instead.
-->
<svg xmlns="http://www.w3.org/2000/svg" xmlns:xlink="http://www.w3.org/1999/xlink" viewBox="0 0 1000 520" preserveAspectRatio="xMidYMid meet">
      <style>
        .dg4-eyebrow { fill: #e8a951; font: 500 10px "Inter", sans-serif; letter-spacing: 2.5px; }
        .dg4-title { fill: #e8ecf3; font: italic 400 22px "Fraunces", serif; }
        .dg4-flow { fill: #b4becf; font: italic 400 11px "Fraunces", serif; }
        .dg4-flow-accent { fill: #e8a951; font: italic 600 11px "Fraunces", serif; }
        .dg4-panel-num { fill: #0a0e1a; font: 700 11px "Inter", sans-serif; }
        .dg4-panel-title { fill: #e8a951; font: italic 600 12px "Fraunces", serif; }
        .dg4-panel-sub { fill: #b4becf; font: 400 9px "Inter", sans-serif; letter-spacing: 1px; }
        .dg4-label { fill: #e8ecf3; font: 500 10px "Inter", sans-serif; }
        .dg4-label-gold { fill: #e8a951; font: 600 10px "Inter", sans-serif; }
        .dg4-label-teal { fill: #4fb8a8; font: 600 10px "Inter", sans-serif; }
        .dg4-caption { fill: #6b7689; font: italic 400 9.5px "Inter", sans-serif; }
        .dg4-keypoint { fill: #e8a951; font: 600 10px "Inter", sans-serif; letter-spacing: 1px; }
      </style>
      <defs>
        <marker id="rollArrow" viewBox="0 0 10 10" refX="8" refY="5" markerWidth="6" markerHeight="6" orient="auto">
          <path d="M 0 0 L 10 5 L 0 10 z" fill="#e8a951"/>
        </marker>
        <marker id="rollArrowDim" viewBox="0 0 10 10" refX="8" refY="5" markerWidth="5" markerHeight="5" orient="auto">
          <path d="M 0 0 L 10 5 L 0 10 z" fill="#6b7689"/>
        </marker>
        <symbol id="neutrophil" overflow="visible">
          <circle cx="0" cy="0" r="22" fill="#e8a951" opacity="0.85" stroke="#c08537" stroke-width="1.3"/>
          <g fill="#7a4a1f" opacity="0.75">
            <ellipse cx="-7" cy="-4" rx="6" ry="5"/>
            <ellipse cx="7" cy="-2" rx="6" ry="5"/>
            <ellipse cx="0" cy="6" rx="6" ry="5"/>
          </g>
        </symbol>
        <symbol id="selectin" overflow="visible">
          <line x1="0" y1="0" x2="0" y2="-12" stroke="#4fb8a8" stroke-width="2"/>
          <circle cx="0" cy="-14" r="2.5" fill="#4fb8a8"/>
        </symbol>
        <symbol id="sLeX" overflow="visible">
          <line x1="0" y1="0" x2="0" y2="10" stroke="#e8a951" stroke-width="1.8"/>
          <circle cx="0" cy="3" r="1.6" fill="#e8a951"/>
          <circle cx="0" cy="8" r="1.6" fill="#e8a951"/>
          <circle cx="0" cy="13" r="2.2" fill="#e8a951"/>
        </symbol>
        <symbol id="integrin" overflow="visible">
          <line x1="0" y1="0" x2="0" y2="10" stroke="#e8a951" stroke-width="2.2"/>
          <rect x="-3.5" y="9" width="7" height="5" fill="#e8a951" rx="1"/>
        </symbol>
        <symbol id="icam" overflow="visible">
          <line x1="0" y1="0" x2="0" y2="-10" stroke="#4fb8a8" stroke-width="2.2"/>
          <rect x="-3.5" y="-15" width="7" height="5" fill="#4fb8a8" rx="1"/>
        </symbol>
      </defs>

      <!-- Title -->
      <text x="500" y="26" text-anchor="middle" class="dg4-eyebrow">ENDOTHELIAL ACTIVATION → DIAPEDESIS</text>
      <text x="500" y="58" text-anchor="middle" class="dg4-title">How a neutrophil leaves the bloodstream</text>
      <line x1="40" y1="78" x2="960" y2="78" stroke="#222c3e" stroke-width="1"/>
      <text x="500" y="98" text-anchor="middle" class="dg4-flow">
        cytokines activate endothelium →
        <tspan class="dg4-flow-accent">selectins → rolling</tspan>
         → firm adhesion → migration
      </text>

      <!-- Panel 1: Activation -->
      <g transform="translate(40 120)">
        <rect x="0" y="0" width="220" height="320" rx="10" ry="10" fill="#0a0e1a" stroke="#222c3e" stroke-width="1"/>
        <circle cx="22" cy="22" r="11" fill="#e8a951"/>
        <text x="22" y="26" text-anchor="middle" class="dg4-panel-num">1</text>
        <text x="40" y="26" class="dg4-panel-title">Activation</text>
        <text x="40" y="40" class="dg4-panel-sub">CYTOKINES SIGNAL</text>
        <text x="110" y="60" text-anchor="middle" class="dg4-caption">blood vessel lumen</text>
        <g fill="#e8a951">
          <circle cx="58" cy="92" r="3.5"/>
          <circle cx="78" cy="105" r="3"/>
          <circle cx="72" cy="80" r="2.8"/>
          <circle cx="98" cy="98" r="3"/>
          <circle cx="142" cy="92" r="3.5"/>
          <circle cx="158" cy="108" r="2.8"/>
          <circle cx="170" cy="86" r="3"/>
        </g>
        <text x="110" y="130" text-anchor="middle" class="dg4-label-gold">TNF · IL-1</text>
        <text x="110" y="143" text-anchor="middle" class="dg4-caption">(from activated macrophages)</text>
        <path d="M 110 152 L 110 175" stroke="#e8a951" stroke-width="1.4" stroke-dasharray="3 3" marker-end="url(#rollArrow)"/>
        <rect x="10" y="186" width="200" height="22" fill="#4fb8a8" opacity="0.18" stroke="#4fb8a8" stroke-width="1"/>
        <text x="110" y="200" text-anchor="middle" class="dg4-label-teal" opacity="0.85">endothelium</text>
        <rect x="10" y="214" width="200" height="40" fill="#d14859" opacity="0.05"/>
        <text x="110" y="236" text-anchor="middle" class="dg4-caption">tissue</text>
        <line x1="20" y1="270" x2="200" y2="270" stroke="#222c3e" stroke-width="1"/>
        <text x="110" y="289" text-anchor="middle" class="dg4-keypoint">RESULT</text>
        <text x="110" y="306" text-anchor="middle" class="dg4-caption">endothelium expresses selectins</text>
      </g>

      <!-- Panel 2: Rolling - the focus -->
      <g transform="translate(280 120)">
        <rect x="0" y="0" width="220" height="320" rx="10" ry="10" fill="#0a0e1a" stroke="#d14859" stroke-width="1.5" opacity="1"/>
        <rect x="155" y="6" width="58" height="14" rx="3" fill="#d14859" opacity="0.92"/>
        <text x="184" y="16" text-anchor="middle" fill="#0a0e1a" style="font: 700 8px 'Inter', sans-serif; letter-spacing: 1px;">QUESTION</text>
        <circle cx="22" cy="22" r="11" fill="#e8a951"/>
        <text x="22" y="26" text-anchor="middle" class="dg4-panel-num">2</text>
        <text x="40" y="26" class="dg4-panel-title">Rolling</text>
        <text x="40" y="40" class="dg4-panel-sub">WEAK ADHESION</text>
        <text x="110" y="60" text-anchor="middle" class="dg4-caption">neutrophil rolls along the wall</text>
        <path d="M 25 90 L 50 90" stroke="#6b7689" stroke-width="1" marker-end="url(#rollArrowDim)" opacity="0.5"/>
        <path d="M 175 90 L 195 90" stroke="#6b7689" stroke-width="1" marker-end="url(#rollArrowDim)" opacity="0.5"/>
        <g transform="translate(110 145)">
          <use href="#neutrophil"/>
          <use href="#sLeX" x="-12" y="20"/>
          <use href="#sLeX" x="-4" y="22"/>
          <use href="#sLeX" x="4" y="22"/>
          <use href="#sLeX" x="12" y="20"/>
        </g>
        <text x="65" y="120" class="dg4-label">neutrophil</text>
        <line x1="80" y1="124" x2="92" y2="138" stroke="#b4becf" stroke-width="0.8"/>
        <text x="155" y="135" class="dg4-label-gold">sLeˣ</text>
        <text x="155" y="148" class="dg4-caption">(ligand)</text>
        <line x1="152" y1="138" x2="125" y2="158" stroke="#e8a951" stroke-width="0.8"/>
        <rect x="10" y="186" width="200" height="22" fill="#4fb8a8" opacity="0.55" stroke="#4fb8a8" stroke-width="1.2"/>
        <use href="#selectin" x="35" y="186"/>
        <use href="#selectin" x="60" y="186"/>
        <use href="#selectin" x="85" y="186"/>
        <use href="#selectin" x="110" y="186"/>
        <use href="#selectin" x="135" y="186"/>
        <use href="#selectin" x="160" y="186"/>
        <use href="#selectin" x="185" y="186"/>
        <text x="110" y="222" text-anchor="middle" class="dg4-label-teal">selectins on endothelium</text>
        <text x="110" y="235" text-anchor="middle" class="dg4-caption">(P-selectin, E-selectin)</text>
        <rect x="10" y="244" width="200" height="22" fill="#d14859" opacity="0.05"/>
        <text x="110" y="259" text-anchor="middle" class="dg4-caption">tissue</text>
        <line x1="20" y1="278" x2="200" y2="278" stroke="#222c3e" stroke-width="1"/>
        <text x="110" y="295" text-anchor="middle" class="dg4-keypoint">LOW AFFINITY</text>
        <text x="110" y="312" text-anchor="middle" class="dg4-caption">cell tumbles, slows down</text>
      </g>

      <!-- Panel 3: Firm adhesion -->
      <g transform="translate(520 120)">
        <rect x="0" y="0" width="220" height="320" rx="10" ry="10" fill="#0a0e1a" stroke="#222c3e" stroke-width="1"/>
        <circle cx="22" cy="22" r="11" fill="#e8a951"/>
        <text x="22" y="26" text-anchor="middle" class="dg4-panel-num">3</text>
        <text x="40" y="26" class="dg4-panel-title">Firm adhesion</text>
        <text x="40" y="40" class="dg4-panel-sub">INTEGRIN · ICAM-1</text>
        <text x="110" y="60" text-anchor="middle" class="dg4-caption">chemokines activate integrins</text>
        <g transform="translate(110 152)">
          <use href="#neutrophil"/>
          <use href="#integrin" x="-12" y="20"/>
          <use href="#integrin" x="-4" y="22"/>
          <use href="#integrin" x="4" y="22"/>
          <use href="#integrin" x="12" y="20"/>
        </g>
        <text x="155" y="138" class="dg4-label-gold">integrins</text>
        <text x="155" y="151" class="dg4-caption">(LFA-1, Mac-1)</text>
        <line x1="152" y1="142" x2="125" y2="170" stroke="#e8a951" stroke-width="0.8"/>
        <rect x="10" y="194" width="200" height="22" fill="#4fb8a8" opacity="0.55" stroke="#4fb8a8" stroke-width="1.2"/>
        <use href="#icam" x="98" y="194"/>
        <use href="#icam" x="106" y="194"/>
        <use href="#icam" x="114" y="194"/>
        <use href="#icam" x="122" y="194"/>
        <g stroke="#e8a951" stroke-width="2.5" opacity="0.95">
          <line x1="98" y1="180" x2="98" y2="184"/>
          <line x1="106" y1="180" x2="106" y2="184"/>
          <line x1="114" y1="180" x2="114" y2="184"/>
          <line x1="122" y1="180" x2="122" y2="184"/>
        </g>
        <text x="40" y="205" class="dg4-label-teal">ICAM-1</text>
        <line x1="62" y1="201" x2="86" y2="190" stroke="#4fb8a8" stroke-width="0.8"/>
        <text x="110" y="232" text-anchor="middle" class="dg4-caption">on endothelium</text>
        <rect x="10" y="244" width="200" height="22" fill="#d14859" opacity="0.05"/>
        <text x="110" y="259" text-anchor="middle" class="dg4-caption">tissue</text>
        <line x1="20" y1="278" x2="200" y2="278" stroke="#222c3e" stroke-width="1"/>
        <text x="110" y="295" text-anchor="middle" class="dg4-keypoint">HIGH AFFINITY</text>
        <text x="110" y="312" text-anchor="middle" class="dg4-caption">cell stops and grips firmly</text>
      </g>

      <!-- Panel 4: Migration / diapedesis -->
      <g transform="translate(760 120)">
        <rect x="0" y="0" width="220" height="320" rx="10" ry="10" fill="#0a0e1a" stroke="#222c3e" stroke-width="1"/>
        <circle cx="22" cy="22" r="11" fill="#e8a951"/>
        <text x="22" y="26" text-anchor="middle" class="dg4-panel-num">4</text>
        <text x="40" y="26" class="dg4-panel-title">Migration</text>
        <text x="40" y="40" class="dg4-panel-sub">DIAPEDESIS</text>
        <text x="110" y="60" text-anchor="middle" class="dg4-caption">squeezes between cells</text>
        <g transform="translate(110 175)">
          <ellipse cx="0" cy="-22" rx="18" ry="14" fill="#e8a951" opacity="0.85" stroke="#c08537" stroke-width="1.3"/>
          <ellipse cx="0" cy="3" rx="6" ry="8" fill="#e8a951" opacity="0.85" stroke="#c08537" stroke-width="1.3"/>
          <ellipse cx="0" cy="22" rx="14" ry="11" fill="#e8a951" opacity="0.85" stroke="#c08537" stroke-width="1.3"/>
          <ellipse cx="-5" cy="-22" rx="5" ry="4" fill="#7a4a1f" opacity="0.7"/>
          <ellipse cx="6" cy="-20" rx="5" ry="4" fill="#7a4a1f" opacity="0.7"/>
          <ellipse cx="0" cy="20" rx="6" ry="4" fill="#7a4a1f" opacity="0.7"/>
        </g>
        <rect x="10" y="170" width="92" height="22" fill="#4fb8a8" opacity="0.55" stroke="#4fb8a8" stroke-width="1.2"/>
        <rect x="118" y="170" width="92" height="22" fill="#4fb8a8" opacity="0.55" stroke="#4fb8a8" stroke-width="1.2"/>
        <g fill="#e8a951" opacity="0.7">
          <circle cx="50" cy="218" r="1.5"/>
          <circle cx="75" cy="222" r="1.8"/>
          <circle cx="90" cy="232" r="2"/>
          <circle cx="115" cy="228" r="2"/>
          <circle cx="130" cy="240" r="2.3"/>
          <circle cx="155" cy="232" r="2"/>
          <circle cx="170" cy="245" r="2.5"/>
          <circle cx="60" cy="240" r="1.8"/>
          <circle cx="100" cy="248" r="2"/>
          <circle cx="140" cy="250" r="2.2"/>
          <circle cx="180" cy="220" r="1.6"/>
        </g>
        <text x="60" y="250" class="dg4-label-gold">chemokines</text>
        <text x="60" y="262" class="dg4-caption">(IL-8 gradient)</text>
        <line x1="20" y1="278" x2="200" y2="278" stroke="#222c3e" stroke-width="1"/>
        <text x="110" y="295" text-anchor="middle" class="dg4-keypoint">EXTRAVASATION</text>
        <text x="110" y="312" text-anchor="middle" class="dg4-caption">follows chemokine trail to infection</text>
      </g>

      <!-- Bottom caption -->
      <line x1="40" y1="455" x2="960" y2="455" stroke="#222c3e" stroke-width="1"/>
      <text x="500" y="475" text-anchor="middle" class="dg4-caption">
        <tspan class="dg4-flow-accent">Selectins</tspan> handle the rolling step (weak, transient).
      </text>
      <text x="500" y="495" text-anchor="middle" class="dg4-caption">
        <tspan class="dg4-flow-accent">Integrins + ICAM-1</tspan> handle firm adhesion.
      </text>
    </svg>
