<?xml version="1.0" encoding="UTF-8"?>
<!--
  Auto-generated from the reference HTML by
  scripts/storymode-extraction/extract.mjs.
  Do not edit by hand — regenerate the file instead.
-->
<svg xmlns="http://www.w3.org/2000/svg" xmlns:xlink="http://www.w3.org/1999/xlink" viewBox="0 0 720 460" preserveAspectRatio="xMidYMid meet">
      <style>
        .dg-eyebrow { fill: #e8a951; font: 500 10px "Inter", sans-serif; letter-spacing: 2.5px; }
        .dg-title { fill: #e8ecf3; font: italic 400 22px "Fraunces", serif; }
        .dg-label-dim { fill: #b4becf; font: 400 11px "Inter", sans-serif; }
        .dg-label-crimson { fill: #d14859; font: 600 10px "Inter", sans-serif; letter-spacing: 1.5px; }
        .dg-label-teal { fill: #4fb8a8; font: 600 10px "Inter", sans-serif; letter-spacing: 1.5px; }
        .dg-label-gold { fill: #e8a951; font: 600 11px "Inter", sans-serif; }
        .dg-caption { fill: #6b7689; font: italic 400 10px "Inter", sans-serif; }
        .dg-mono-gold { fill: #e8a951; font: 500 10px "JetBrains Mono", monospace; letter-spacing: 0.5px; }
      </style>
      <defs>
        <radialGradient id="tlrSparkGrad" cx="50%" cy="50%" r="50%">
          <stop offset="0%" stop-color="#e8a951" stop-opacity="0.5"/>
          <stop offset="70%" stop-color="#e8a951" stop-opacity="0.08"/>
          <stop offset="100%" stop-color="#e8a951" stop-opacity="0"/>
        </radialGradient>
        <marker id="tlrArrowAccent" viewBox="0 0 10 10" refX="8" refY="5" markerWidth="6" markerHeight="6" orient="auto">
          <path d="M 0 0 L 10 5 L 0 10 z" fill="#e8a951"/>
        </marker>
        <marker id="tlrArrowDim" viewBox="0 0 10 10" refX="8" refY="5" markerWidth="5" markerHeight="5" orient="auto">
          <path d="M 0 0 L 10 5 L 0 10 z" fill="#6b7689"/>
        </marker>
      </defs>

      <!-- Title -->
      <text x="360" y="26" text-anchor="middle" class="dg-eyebrow">THE MOLECULAR VIEW</text>
      <text x="360" y="58" text-anchor="middle" class="dg-title">LPS binds TLR4</text>
      <line x1="40" y1="78" x2="680" y2="78" stroke="#222c3e" stroke-width="1"/>

      <!-- Column headers -->
      <text x="130" y="100" text-anchor="middle" class="dg-label-crimson">GRAM-NEGATIVE BACTERIUM</text>
      <text x="580" y="100" text-anchor="middle" class="dg-label-teal">MACROPHAGE</text>

      <!-- LEFT: bacterium with LPS studs -->
      <g>
        <path d="M 40 270 Q 130 255 220 270" stroke="#d14859" stroke-width="1.8" fill="none"/>
        <path d="M 40 288 Q 130 273 220 288" stroke="#d14859" stroke-width="1.8" fill="none"/>
        <path d="M 40 270 Q 130 255 220 270 L 220 288 Q 130 273 40 288 Z" fill="#d14859" opacity="0.08"/>
        <path d="M 40 298 Q 60 300 80 298 T 120 298 T 160 298 T 200 298 T 220 298" stroke="#d14859" stroke-width="0.7" fill="none" stroke-dasharray="2 2" opacity="0.6"/>

        <!-- three LPS molecules -->
        <g transform="translate(72 270)">
          <path d="M -4 2 Q -5 8 -4 14 Q -3 17 -4 18" stroke="#e8a951" stroke-width="1.6" fill="none"/>
          <path d="M 4 2 Q 5 8 4 14 Q 3 17 4 18" stroke="#e8a951" stroke-width="1.6" fill="none"/>
          <ellipse cx="0" cy="-1" rx="4.5" ry="3" fill="#e8a951"/>
          <line x1="0" y1="-4" x2="0" y2="-34" stroke="#e8a951" stroke-width="1.5"/>
          <circle cx="0" cy="-40" r="2.8" fill="#e8a951"/>
          <circle cx="0" cy="-48" r="2.8" fill="#e8a951"/>
          <circle cx="0" cy="-56" r="2.8" fill="#e8a951"/>
        </g>
        <g transform="translate(130 262)">
          <path d="M -4 2 Q -5 8 -4 14 Q -3 17 -4 18" stroke="#e8a951" stroke-width="1.6" fill="none"/>
          <path d="M 4 2 Q 5 8 4 14 Q 3 17 4 18" stroke="#e8a951" stroke-width="1.6" fill="none"/>
          <ellipse cx="0" cy="-1" rx="4.5" ry="3" fill="#e8a951"/>
          <line x1="0" y1="-4" x2="0" y2="-34" stroke="#e8a951" stroke-width="1.5"/>
          <circle cx="0" cy="-40" r="2.8" fill="#e8a951"/>
          <circle cx="0" cy="-48" r="2.8" fill="#e8a951"/>
          <circle cx="0" cy="-56" r="2.8" fill="#e8a951"/>
        </g>
        <g transform="translate(186 268)">
          <path d="M -4 2 Q -5 8 -4 14 Q -3 17 -4 18" stroke="#e8a951" stroke-width="1.6" fill="none"/>
          <path d="M 4 2 Q 5 8 4 14 Q 3 17 4 18" stroke="#e8a951" stroke-width="1.6" fill="none"/>
          <ellipse cx="0" cy="-1" rx="4.5" ry="3" fill="#e8a951"/>
          <line x1="0" y1="-4" x2="0" y2="-34" stroke="#e8a951" stroke-width="1.5"/>
          <circle cx="0" cy="-40" r="2.8" fill="#e8a951"/>
          <circle cx="0" cy="-48" r="2.8" fill="#e8a951"/>
          <circle cx="0" cy="-56" r="2.8" fill="#e8a951"/>
        </g>

        <text x="130" y="325" text-anchor="middle" class="dg-label-dim">outer membrane</text>

        <!-- Legend -->
        <g transform="translate(40 355)">
          <text x="0" y="0" class="dg-mono-gold">LPS = LIPOPOLYSACCHARIDE</text>
          <g transform="translate(4 16)">
            <circle cx="0" cy="-3" r="2.2" fill="#e8a951"/>
            <circle cx="0" cy="4" r="2.2" fill="#e8a951"/>
            <text x="10" y="3" class="dg-label-dim">O-antigen (species-specific)</text>
          </g>
          <g transform="translate(4 40)">
            <line x1="0" y1="-4" x2="0" y2="6" stroke="#e8a951" stroke-width="1.5"/>
            <text x="10" y="3" class="dg-label-dim">core polysaccharide</text>
          </g>
          <g transform="translate(4 62)">
            <ellipse cx="0" cy="0" rx="3.5" ry="2.3" fill="#e8a951"/>
            <path d="M -2 2 L -2 7" stroke="#e8a951" stroke-width="1.5"/>
            <path d="M 2 2 L 2 7" stroke="#e8a951" stroke-width="1.5"/>
            <text x="10" y="3" class="dg-label-dim">lipid A — the toxic anchor</text>
          </g>
        </g>
      </g>

      <!-- MIDDLE: shed LPS in transit -->
      <g>
        <g transform="translate(340 195) rotate(18)">
          <ellipse cx="0" cy="0" rx="4.5" ry="3" fill="#e8a951"/>
          <path d="M -4 3 Q -5 9 -4 15 Q -3 18 -4 19" stroke="#e8a951" stroke-width="1.6" fill="none"/>
          <path d="M 4 3 Q 5 9 4 15 Q 3 18 4 19" stroke="#e8a951" stroke-width="1.6" fill="none"/>
          <line x1="0" y1="-3" x2="0" y2="-32" stroke="#e8a951" stroke-width="1.5"/>
          <circle cx="0" cy="-38" r="2.8" fill="#e8a951"/>
          <circle cx="0" cy="-46" r="2.8" fill="#e8a951"/>
          <circle cx="0" cy="-54" r="2.8" fill="#e8a951"/>
        </g>
        <path d="M 230 265 Q 290 225 340 215" stroke="#6b7689" stroke-width="1" fill="none" stroke-dasharray="3 3"/>
        <path d="M 360 195 Q 410 200 440 230" stroke="#6b7689" stroke-width="1" fill="none" stroke-dasharray="3 3" marker-end="url(#tlrArrowDim)"/>
        <text x="340" y="128" text-anchor="middle" class="dg-label-gold">shed LPS (endotoxin)</text>
      </g>

      <!-- RIGHT: macrophage with TLR4 -->
      <g>
        <path d="M 420 260 Q 560 248 700 260" stroke="#4fb8a8" stroke-width="1.8" fill="none"/>
        <path d="M 420 278 Q 560 266 700 278" stroke="#4fb8a8" stroke-width="1.8" fill="none"/>
        <path d="M 420 260 Q 560 248 700 260 L 700 278 Q 560 266 420 278 Z" fill="#4fb8a8" opacity="0.08"/>

        <!-- TLR4 unbound -->
        <g transform="translate(476 260)">
          <path d="M -11 0 Q -13 -22 -6 -36 Q 0 -42 6 -36 Q 13 -22 11 0" stroke="#6b7689" stroke-width="2" fill="none"/>
          <path d="M -8 -4 Q -10 -22 -5 -33" stroke="#6b7689" stroke-width="0.8" fill="none" opacity="0.7"/>
          <path d="M 8 -4 Q 10 -22 5 -33" stroke="#6b7689" stroke-width="0.8" fill="none" opacity="0.7"/>
          <line x1="0" y1="0" x2="0" y2="18" stroke="#6b7689" stroke-width="2"/>
          <ellipse cx="0" cy="24" rx="6" ry="4.5" stroke="#6b7689" stroke-width="1.3" fill="none"/>
        </g>

        <!-- TLR4 activated with LPS -->
        <g transform="translate(596 260)">
          <circle cx="0" cy="-14" r="32" fill="url(#tlrSparkGrad)"/>
          <path d="M -11 0 Q -13 -22 -6 -36 Q 0 -42 6 -36 Q 13 -22 11 0" stroke="#e8a951" stroke-width="2.5" fill="none"/>
          <path d="M -8 -4 Q -10 -22 -5 -33" stroke="#e8a951" stroke-width="1" fill="none" opacity="0.9"/>
          <path d="M 8 -4 Q 10 -22 5 -33" stroke="#e8a951" stroke-width="1" fill="none" opacity="0.9"/>
          <g transform="translate(0 -24)">
            <ellipse cx="0" cy="3" rx="4" ry="2.8" fill="#e8a951"/>
            <line x1="0" y1="0" x2="0" y2="-18" stroke="#e8a951" stroke-width="1.7"/>
            <circle cx="0" cy="-23" r="2.3" fill="#e8a951"/>
            <circle cx="0" cy="-30" r="2.3" fill="#e8a951"/>
          </g>
          <line x1="0" y1="0" x2="0" y2="18" stroke="#e8a951" stroke-width="2.2"/>
          <ellipse cx="0" cy="24" rx="7" ry="5" fill="#e8a951" opacity="0.95"/>
        </g>

        <text x="476" y="320" text-anchor="middle" class="dg-label-dim">TLR4</text>
        <text x="476" y="334" text-anchor="middle" class="dg-caption">unbound</text>
        <text x="596" y="320" text-anchor="middle" class="dg-label-gold">TLR4 + LPS</text>
        <text x="596" y="334" text-anchor="middle" class="dg-caption">activated</text>

        <path d="M 596 354 L 596 400" stroke="#e8a951" stroke-width="1.5" stroke-dasharray="3 3" marker-end="url(#tlrArrowAccent)"/>
        <text x="596" y="420" text-anchor="middle" class="dg-label-gold">NF-κB cascade</text>
        <text x="596" y="434" text-anchor="middle" class="dg-caption">continued in Station 2</text>

        <text x="440" y="300" class="dg-label-dim">cell surface</text>
      </g>
    </svg>
