<?xml version="1.0" encoding="UTF-8"?>
<!--
  Auto-generated from the reference HTML by
  scripts/storymode-extraction/extract.mjs.
  Do not edit by hand — regenerate the file instead.
-->
<svg xmlns="http://www.w3.org/2000/svg" xmlns:xlink="http://www.w3.org/1999/xlink" viewBox="0 0 1000 460" preserveAspectRatio="xMidYMid meet">
      <style>
        .chs-eyebrow { fill: #e8a951; font: 500 10px "Inter", sans-serif; letter-spacing: 2.5px; }
        .chs-title { fill: #e8ecf3; font: italic 400 22px "Fraunces", serif; }
        .chs-card-num { fill: #0a0e1a; font: 700 11px "Inter", sans-serif; }
        .chs-card-eyebrow { fill: #d14859; font: 600 9px "Inter", sans-serif; letter-spacing: 2px; }
        .chs-card-title { fill: #e8ecf3; font: italic 600 13px "Fraunces", serif; }
        .chs-cell-label { fill: #b4becf; font: 400 10px "Inter", sans-serif; }
        .chs-because { fill: #e8a951; font: 600 9px "Inter", sans-serif; letter-spacing: 1.5px; }
        .chs-because-body { fill: #b4becf; font: 400 10px "Inter", sans-serif; }
        .chs-finding { fill: #d14859; font: 700 11px "Inter", sans-serif; }
      </style>

      <text x="500" y="26" text-anchor="middle" class="chs-eyebrow">CLINICAL FINDINGS · CHÉDIAK-HIGASHI SYNDROME</text>
      <text x="500" y="58" text-anchor="middle" class="chs-title">The same defect, four cell types</text>
      <line x1="40" y1="78" x2="960" y2="78" stroke="#222c3e" stroke-width="1"/>

      <!-- CARD 1: Neutrophil -->
      <g transform="translate(40 100)">
        <rect x="0" y="0" width="220" height="320" rx="10" ry="10" fill="#0a0e1a" stroke="#222c3e" stroke-width="1"/>
        <circle cx="22" cy="22" r="11" fill="#d14859"/>
        <text x="22" y="26" text-anchor="middle" class="chs-card-num">1</text>
        <text x="40" y="20" class="chs-card-eyebrow">CELL · NEUTROPHIL</text>
        <text x="40" y="35" class="chs-card-title">Recurrent infections</text>
        <g transform="translate(110 150)">
          <circle cx="0" cy="0" r="50" fill="#e8a951" opacity="0.65" stroke="#c08537" stroke-width="1.4"/>
          <g fill="#7a4a1f" opacity="0.6">
            <ellipse cx="-20" cy="-12" rx="11" ry="9"/>
            <ellipse cx="-22" cy="14" rx="11" ry="9"/>
          </g>
          <circle cx="14" cy="2" r="18" fill="#d14859" opacity="0.55" stroke="#d14859" stroke-width="1.3"/>
          <text x="14" y="5" text-anchor="middle" fill="#0a0e1a" style="font: 700 8px Inter, sans-serif;">giant</text>
        </g>
        <text x="110" y="232" text-anchor="middle" class="chs-finding">giant cytoplasmic granules</text>
        <text x="110" y="247" text-anchor="middle" class="chs-cell-label">on peripheral smear</text>
        <line x1="20" y1="278" x2="200" y2="278" stroke="#222c3e" stroke-width="1"/>
        <text x="110" y="293" text-anchor="middle" class="chs-because">BECAUSE</text>
        <text x="110" y="308" text-anchor="middle" class="chs-because-body">phagosome can't fuse with lysosomes</text>
      </g>

      <!-- CARD 2: Melanocyte -->
      <g transform="translate(280 100)">
        <rect x="0" y="0" width="220" height="320" rx="10" ry="10" fill="#0a0e1a" stroke="#222c3e" stroke-width="1"/>
        <circle cx="22" cy="22" r="11" fill="#d14859"/>
        <text x="22" y="26" text-anchor="middle" class="chs-card-num">2</text>
        <text x="40" y="20" class="chs-card-eyebrow">CELL · MELANOCYTE</text>
        <text x="40" y="35" class="chs-card-title">Partial albinism</text>
        <g transform="translate(110 150)">
          <ellipse cx="0" cy="8" rx="38" ry="48" fill="#b4becf" opacity="0.18" stroke="#b4becf" stroke-width="1" stroke-opacity="0.4"/>
          <path d="M -32 -14 Q -28 -38 0 -42 Q 28 -38 32 -14 Q 26 -22 14 -20 Q 0 -24 -14 -20 Q -26 -22 -32 -14 Z" fill="#b4becf" opacity="0.85" stroke="#e8ecf3" stroke-width="0.8"/>
          <path d="M -22 -22 Q -10 -32 6 -28" stroke="#e8ecf3" stroke-width="0.6" fill="none" opacity="0.7"/>
          <path d="M -8 -32 Q 6 -36 18 -28" stroke="#e8ecf3" stroke-width="0.6" fill="none" opacity="0.7"/>
          <circle cx="-10" cy="6" r="2.5" fill="#4fb8a8" opacity="0.5"/>
          <circle cx="10" cy="6" r="2.5" fill="#4fb8a8" opacity="0.5"/>
        </g>
        <text x="110" y="232" text-anchor="middle" class="chs-finding">silvery hair · pale skin</text>
        <text x="110" y="247" text-anchor="middle" class="chs-cell-label">light-colored irises</text>
        <line x1="20" y1="278" x2="200" y2="278" stroke="#222c3e" stroke-width="1"/>
        <text x="110" y="293" text-anchor="middle" class="chs-because">BECAUSE</text>
        <text x="110" y="308" text-anchor="middle" class="chs-because-body">melanosomes can't transport pigment</text>
      </g>

      <!-- CARD 3: Neuron -->
      <g transform="translate(520 100)">
        <rect x="0" y="0" width="220" height="320" rx="10" ry="10" fill="#0a0e1a" stroke="#222c3e" stroke-width="1"/>
        <circle cx="22" cy="22" r="11" fill="#d14859"/>
        <text x="22" y="26" text-anchor="middle" class="chs-card-num">3</text>
        <text x="40" y="20" class="chs-card-eyebrow">CELL · NEURON</text>
        <text x="40" y="35" class="chs-card-title">Peripheral neuropathy</text>
        <g transform="translate(110 150)">
          <circle cx="-50" cy="0" r="14" fill="#e8a951" opacity="0.7" stroke="#c08537" stroke-width="1.2"/>
          <circle cx="-50" cy="0" r="6" fill="#7a4a1f" opacity="0.6"/>
          <path d="M -60 -10 Q -68 -16 -72 -22" stroke="#e8a951" stroke-width="1.3" fill="none"/>
          <path d="M -56 12 Q -64 18 -66 24" stroke="#e8a951" stroke-width="1.3" fill="none"/>
          <path d="M -64 -2 Q -72 -4 -78 -2" stroke="#e8a951" stroke-width="1.3" fill="none"/>
          <line x1="-36" y1="0" x2="60" y2="0" stroke="#e8a951" stroke-width="1.5"/>
          <ellipse cx="-22" cy="0" rx="6" ry="4" fill="#4fb8a8" opacity="0.6"/>
          <ellipse cx="-2" cy="0" rx="6" ry="4" fill="#d14859" opacity="0.5" stroke="#d14859" stroke-width="0.8" stroke-dasharray="1.5 1"/>
          <ellipse cx="20" cy="0" rx="6" ry="4" fill="#4fb8a8" opacity="0.6"/>
          <ellipse cx="42" cy="0" rx="6" ry="4" fill="#d14859" opacity="0.5" stroke="#d14859" stroke-width="0.8" stroke-dasharray="1.5 1"/>
          <circle cx="64" cy="0" r="3" fill="#e8a951"/>
          <text x="-2" y="-12" text-anchor="middle" class="chs-finding" style="font-size: 10px;">✗</text>
          <text x="42" y="-12" text-anchor="middle" class="chs-finding" style="font-size: 10px;">✗</text>
        </g>
        <text x="110" y="232" text-anchor="middle" class="chs-finding">progressive neuropathy</text>
        <text x="110" y="247" text-anchor="middle" class="chs-cell-label">numbness, weakness, ataxia</text>
        <line x1="20" y1="278" x2="200" y2="278" stroke="#222c3e" stroke-width="1"/>
        <text x="110" y="293" text-anchor="middle" class="chs-because">BECAUSE</text>
        <text x="110" y="308" text-anchor="middle" class="chs-because-body">axonal vesicle transport disrupted</text>
      </g>

      <!-- CARD 4: Platelet -->
      <g transform="translate(760 100)">
        <rect x="0" y="0" width="220" height="320" rx="10" ry="10" fill="#0a0e1a" stroke="#222c3e" stroke-width="1"/>
        <circle cx="22" cy="22" r="11" fill="#d14859"/>
        <text x="22" y="26" text-anchor="middle" class="chs-card-num">4</text>
        <text x="40" y="20" class="chs-card-eyebrow">CELL · PLATELET</text>
        <text x="40" y="35" class="chs-card-title">Mild bleeding</text>
        <g transform="translate(110 150)">
          <ellipse cx="0" cy="0" rx="42" ry="24" fill="#e8a951" opacity="0.55" stroke="#c08537" stroke-width="1.3"/>
          <circle cx="-18" cy="-6" r="3" fill="#7a4a1f" opacity="0.7"/>
          <circle cx="-2" cy="6" r="3" fill="#7a4a1f" opacity="0.7"/>
          <circle cx="14" cy="-4" r="3" fill="none" stroke="#d14859" stroke-width="1" stroke-dasharray="1.5 1.5" opacity="0.7"/>
          <circle cx="22" cy="8" r="3" fill="none" stroke="#d14859" stroke-width="1" stroke-dasharray="1.5 1.5" opacity="0.7"/>
          <circle cx="-12" cy="10" r="3" fill="none" stroke="#d14859" stroke-width="1" stroke-dasharray="1.5 1.5" opacity="0.7"/>
        </g>
        <g transform="translate(110 210)">
          <path d="M -10 0 Q -10 -4 -7 -6 Q -4 -4 -4 0 Q -4 4 -7 4 Q -10 4 -10 0 Z" fill="#d14859" opacity="0.7"/>
          <path d="M 0 6 Q 0 2 3 0 Q 6 2 6 6 Q 6 10 3 10 Q 0 10 0 6 Z" fill="#d14859" opacity="0.7"/>
          <path d="M 12 -2 Q 12 -6 15 -8 Q 18 -6 18 -2 Q 18 2 15 2 Q 12 2 12 -2 Z" fill="#d14859" opacity="0.7"/>
        </g>
        <text x="110" y="245" text-anchor="middle" class="chs-finding">mild bleeding tendency</text>
        <text x="110" y="260" text-anchor="middle" class="chs-cell-label">easy bruising, epistaxis</text>
        <line x1="20" y1="278" x2="200" y2="278" stroke="#222c3e" stroke-width="1"/>
        <text x="110" y="293" text-anchor="middle" class="chs-because">BECAUSE</text>
        <text x="110" y="308" text-anchor="middle" class="chs-because-body">dense granule defects in platelets</text>
      </g>

      <!-- Bottom resolver -->
      <line x1="40" y1="435" x2="960" y2="435" stroke="#222c3e" stroke-width="1"/>
      <text x="500" y="455" text-anchor="middle" class="chs-because-body">
        All four findings trace to one defect:
        <tspan fill="#e8a951" font-weight="700">LYST</tspan>
        — broken lysosomal trafficking. Every cell that depends on lysosome-like vesicles is affected.
      </text>
    </svg>
