<?xml version="1.0" encoding="UTF-8"?>
<!--
  Auto-generated from the reference HTML by
  scripts/storymode-extraction/extract.mjs.
  Do not edit by hand — regenerate the file instead.
-->
<svg xmlns="http://www.w3.org/2000/svg" xmlns:xlink="http://www.w3.org/1999/xlink" viewBox="0 0 1000 760" preserveAspectRatio="xMidYMid meet">
      <style>
        .nk-eyebrow { fill: #e8a951; font: 500 10px "Inter", sans-serif; letter-spacing: 2.5px; }
        .nk-title { fill: #e8ecf3; font: italic 400 22px "Fraunces", serif; }
        .nk-zone-label { fill: #b4becf; font: 600 10.5px "Inter", sans-serif; letter-spacing: 2.5px; }
        .nk-label { fill: #e8ecf3; font: 700 11px "Inter", sans-serif; }
        .nk-sub { fill: #b4becf; font: italic 9.5px "Inter", sans-serif; }
        .nk-caption { fill: #6b7689; font: italic 400 10px "Inter", sans-serif; }
        .nk-good { fill: #4fb8a8; font: 700 11px "Inter", sans-serif; letter-spacing: 0.5px; }
        .nk-bad { fill: #d14859; font: 700 11px "Inter", sans-serif; letter-spacing: 0.5px; }
        .nk-mhc { fill: #e8a951; }
      </style>

      <text x="500" y="26" text-anchor="middle" class="nk-eyebrow">NK CELL · THE MISSING-SELF KILLER</text>
      <text x="500" y="58" text-anchor="middle" class="nk-title">A cell that kills what T cells can't see.</text>
      <line x1="40" y1="78" x2="960" y2="78" stroke="#222c3e" stroke-width="1"/>

      <!-- ===== TOP ROW: HEALTHY vs INFECTED CELL SIDE BY SIDE ===== -->
      <g transform="translate(0 100)">
        <text x="60" y="18" class="nk-zone-label">THE DECISION · MHC-I STATUS</text>

        <!-- NK cell (center) -->
        <g transform="translate(500 140)">
          <circle cx="0" cy="0" r="58" fill="#4fb8a8" opacity="0.4" stroke="#4fb8a8" stroke-width="2"/>
          <ellipse cx="-14" cy="-9" rx="17" ry="13" fill="#2a5a52" opacity="0.85"/>
          <g fill="#e8a951" opacity="0.85">
            <circle cx="10" cy="5" r="3"/><circle cx="20" cy="-5" r="3"/><circle cx="5" cy="20" r="3"/>
            <circle cx="25" cy="15" r="3"/><circle cx="-5" cy="25" r="3"/><circle cx="18" cy="28" r="3"/>
            <circle cx="-20" cy="20" r="3"/>
          </g>
          <text x="0" y="75" text-anchor="middle" style="fill:#4fb8a8;font:700 13px Inter,sans-serif">NK CELL</text>
          <text x="0" y="90" text-anchor="middle" class="nk-caption">CD16⁺ · CD56⁺</text>
        </g>

        <!-- LEFT: Healthy cell -->
        <g transform="translate(170 140)">
          <circle cx="0" cy="0" r="60" fill="#4fb8a8" fill-opacity="0.18" stroke="#4fb8a8" stroke-width="1.8"/>
          <ellipse cx="0" cy="0" rx="18" ry="12" fill="#2a5a52" opacity="0.65"/>
          <!-- MHC-I molecules: rect-on-stick all over the rim -->
          <g fill="#e8a951">
            <rect x="-44" y="-50" width="5" height="9" rx="1"/>
            <rect x="-22" y="-58" width="5" height="9" rx="1"/>
            <rect x="4" y="-60" width="5" height="9" rx="1"/>
            <rect x="28" y="-54" width="5" height="9" rx="1"/>
            <rect x="44" y="-40" width="5" height="9" rx="1"/>
            <rect x="52" y="-18" width="5" height="9" rx="1"/>
            <rect x="52" y="12" width="5" height="9" rx="1"/>
            <rect x="40" y="36" width="5" height="9" rx="1"/>
            <rect x="18" y="50" width="5" height="9" rx="1"/>
            <rect x="-8" y="54" width="5" height="9" rx="1"/>
            <rect x="-32" y="46" width="5" height="9" rx="1"/>
            <rect x="-50" y="24" width="5" height="9" rx="1"/>
            <rect x="-54" y="-2" width="5" height="9" rx="1"/>
          </g>
          <text x="0" y="84" text-anchor="middle" class="nk-good">HEALTHY</text>
          <text x="0" y="99" text-anchor="middle" class="nk-caption">MHC-I displayed</text>
        </g>

        <!-- RIGHT: Infected / tumor cell -->
        <g transform="translate(830 140)">
          <circle cx="0" cy="0" r="60" fill="#d14859" fill-opacity="0.15" stroke="#d14859" stroke-width="1.8" stroke-dasharray="4 2"/>
          <ellipse cx="-5" cy="0" rx="16" ry="11" fill="#5a2530" opacity="0.55"/>
          <!-- MHC-I mostly gone, just 2 leftover -->
          <g fill="#e8a951" opacity="0.3">
            <rect x="-44" y="-50" width="5" height="9" rx="1"/>
            <rect x="28" y="-54" width="5" height="9" rx="1"/>
          </g>
          <!-- Stress ligands (red triangles) -->
          <g fill="#d14859" opacity="0.85">
            <polygon points="-10,-58 -5,-48 -15,-48"/>
            <polygon points="22,-50 27,-40 17,-40"/>
            <polygon points="46,-28 51,-18 41,-18"/>
            <polygon points="46,20 51,30 41,30"/>
            <polygon points="18,48 23,58 13,58"/>
            <polygon points="-30,46 -25,56 -35,56"/>
          </g>
          <!-- Virus particles inside -->
          <g fill="#d14859" opacity="0.7">
            <circle cx="18" cy="10" r="3"/><circle cx="10" cy="20" r="3"/><circle cx="25" cy="-5" r="3"/>
          </g>
          <text x="0" y="84" text-anchor="middle" class="nk-bad">INFECTED / TUMOR</text>
          <text x="0" y="99" text-anchor="middle" class="nk-caption">MHC-I lost · stress ligands on</text>
        </g>

        <!-- Arrows: NK decision to each target -->
        <g stroke="#4fb8a8" stroke-width="1.5" fill="none" opacity="0.85">
          <path d="M 442 138 L 235 138"/>
        </g>
        <polygon points="237,134 227,138 237,142" fill="#4fb8a8"/>
        <text x="335" y="130" text-anchor="middle" class="nk-good" style="font-size:10px">SPARE</text>
        <text x="335" y="158" text-anchor="middle" class="nk-caption" style="font-style:italic">inhibitory wins</text>

        <g stroke="#d14859" stroke-width="1.5" fill="none" opacity="0.85">
          <path d="M 558 138 L 765 138"/>
        </g>
        <polygon points="763,134 773,138 763,142" fill="#d14859"/>
        <text x="665" y="130" text-anchor="middle" class="nk-bad" style="font-size:10px">KILL</text>
        <text x="665" y="158" text-anchor="middle" class="nk-caption" style="font-style:italic">activating wins</text>
      </g>

      <!-- ===== RECEPTOR BALANCE STRIP ===== -->
      <g transform="translate(0 340)">
        <line x1="40" y1="0" x2="960" y2="0" stroke="#222c3e" stroke-width="1"/>
        <text x="60" y="22" class="nk-zone-label">TWO RECEPTORS · ONE DECISION</text>

        <g transform="translate(100 45)">
          <rect x="0" y="0" width="360" height="88" rx="10" fill="#4fb8a8" fill-opacity="0.08" stroke="#4fb8a8" stroke-width="1.3"/>
          <text x="180" y="24" text-anchor="middle" class="nk-good">INHIBITORY</text>
          <text x="180" y="42" text-anchor="middle" class="nk-sub">KIRs — bind MHC-I</text>
          <line x1="20" y1="50" x2="340" y2="50" stroke="#4fb8a8" stroke-opacity="0.3"/>
          <text x="180" y="68" text-anchor="middle" style="fill:#4fb8a8;font:italic 700 13px Fraunces,serif">"don't kill"</text>
          <text x="180" y="82" text-anchor="middle" class="nk-caption">spare self-tissue</text>
        </g>

        <g transform="translate(540 45)">
          <rect x="0" y="0" width="360" height="88" rx="10" fill="#d14859" fill-opacity="0.1" stroke="#d14859" stroke-width="1.3"/>
          <text x="180" y="24" text-anchor="middle" class="nk-bad">ACTIVATING</text>
          <text x="180" y="42" text-anchor="middle" class="nk-sub">NKG2D — binds stress ligands</text>
          <line x1="20" y1="50" x2="340" y2="50" stroke="#d14859" stroke-opacity="0.3"/>
          <text x="180" y="68" text-anchor="middle" style="fill:#d14859;font:italic 700 13px Fraunces,serif">"kill it"</text>
          <text x="180" y="82" text-anchor="middle" class="nk-caption">release granules</text>
        </g>

        <text x="500" y="160" text-anchor="middle" class="nk-caption" style="font-style:italic">strongest signal wins · healthy = inhibitory dominates · infected = activating dominates</text>
      </g>

      <!-- ===== KILL MECHANISM + ADCC ===== -->
      <g transform="translate(0 520)">
        <line x1="40" y1="0" x2="960" y2="0" stroke="#222c3e" stroke-width="1"/>
        <text x="60" y="22" class="nk-zone-label">THE KILL · PERFORIN + GRANZYME · AND ADCC</text>

        <!-- Left: perforin/granzyme mechanism -->
        <g transform="translate(100 80)">
          <text x="130" y="0" text-anchor="middle" class="nk-label">MISSING-SELF KILL</text>

          <g transform="translate(10 25)">
            <circle cx="0" cy="25" r="26" fill="#4fb8a8" opacity="0.4" stroke="#4fb8a8" stroke-width="1.3"/>
            <ellipse cx="-4" cy="20" rx="8" ry="6" fill="#2a5a52" opacity="0.85"/>
            <text x="0" y="65" text-anchor="middle" class="nk-caption">NK</text>
          </g>

          <g fill="#e8a951" opacity="0.85">
            <circle cx="75" cy="40" r="2.5"/><circle cx="90" cy="46" r="2.5"/><circle cx="105" cy="42" r="2.5"/>
          </g>
          <text x="90" y="30" text-anchor="middle" style="fill:#e8a951;font:600 9px Inter,sans-serif">perforin</text>

          <g fill="#d14859" opacity="0.9">
            <rect x="75" y="58" width="8" height="3"/><rect x="93" y="62" width="8" height="3"/>
            <rect x="110" y="58" width="8" height="3"/>
          </g>
          <text x="90" y="80" text-anchor="middle" style="fill:#d14859;font:600 9px Inter,sans-serif">granzymes</text>

          <g transform="translate(200 50)">
            <circle cx="0" cy="0" r="30" fill="#d14859" opacity="0.28" stroke="#d14859" stroke-width="1.3" stroke-dasharray="3 2"/>
            <circle cx="0" cy="-8" r="3.5" fill="#0a0e1a"/>
            <text x="0" y="-5" text-anchor="middle" style="fill:#e8a951;font:700 6px Inter,sans-serif">PORE</text>
            <g stroke="#d14859" stroke-width="0.8" fill="none">
              <path d="M -14 10 L -3 5"/><path d="M 14 10 L 3 5"/><path d="M -8 -16 L -2 -8"/>
            </g>
            <text x="0" y="50" text-anchor="middle" class="nk-caption">apoptosis</text>
          </g>
        </g>

        <!-- Divider -->
        <line x1="500" y1="50" x2="500" y2="180" stroke="#222c3e" stroke-width="1" stroke-dasharray="3 3"/>

        <!-- Right: ADCC -->
        <g transform="translate(530 80)">
          <text x="200" y="0" text-anchor="middle" class="nk-label">ADCC KILL</text>

          <g transform="translate(20 25)">
            <circle cx="0" cy="25" r="26" fill="#4fb8a8" opacity="0.4" stroke="#4fb8a8" stroke-width="1.3"/>
            <ellipse cx="-4" cy="20" rx="8" ry="6" fill="#2a5a52" opacity="0.85"/>
            <text x="0" y="65" text-anchor="middle" class="nk-caption">NK</text>
            <!-- CD16 spike -->
            <rect x="24" y="22" width="5" height="12" rx="1" fill="#9370b9" stroke="#4a2d60" stroke-width="0.6"/>
            <text x="50" y="32" class="nk-sub" style="font-weight:700;fill:#9370b9">CD16</text>
          </g>

          <!-- IgG antibody -->
          <g transform="translate(150 55)">
            <path d="M 0 0 L -10 -14 M 0 0 L 10 -14 M 0 0 L 0 18" stroke="#e8a951" stroke-width="2" fill="none"/>
            <circle cx="-10" cy="-14" r="3" fill="#e8a951"/>
            <circle cx="10" cy="-14" r="3" fill="#e8a951"/>
            <circle cx="0" cy="18" r="3" fill="#e8a951"/>
          </g>
          <text x="150" y="32" text-anchor="middle" style="fill:#e8a951;font:600 9.5px Inter,sans-serif">IgG</text>

          <g transform="translate(280 50)">
            <circle cx="0" cy="0" r="30" fill="#d14859" opacity="0.25" stroke="#d14859" stroke-width="1.3"/>
            <ellipse cx="0" cy="-3" rx="8" ry="6" fill="#5a2530" opacity="0.75"/>
            <g fill="#e8a951" opacity="0.45">
              <rect x="-24" y="-26" width="4" height="7" rx="1"/>
              <rect x="16" y="20" width="4" height="7" rx="1"/>
            </g>
            <text x="0" y="50" text-anchor="middle" class="nk-caption">antibody-coated</text>
          </g>
        </g>

        <!-- Bottom takeaway -->
        <text x="500" y="215" text-anchor="middle" class="nk-caption" style="font-style:italic">NK uses antibody that B cells made — but kills <tspan fill="#e8a951" font-weight="600">innately</tspan>, without T-cell help</text>
      </g>
    </svg>
