<?xml version="1.0" encoding="UTF-8"?>
<!--
  Auto-generated from the reference HTML by
  scripts/storymode-extraction/extract.mjs.
  Do not edit by hand — regenerate the file instead.
-->
<svg xmlns="http://www.w3.org/2000/svg" xmlns:xlink="http://www.w3.org/1999/xlink" viewBox="0 0 1000 920" preserveAspectRatio="xMidYMid meet">
      <style>
        .sf-eyebrow { fill: #e8a951; font: 500 10px "Inter", sans-serif; letter-spacing: 2.5px; }
        .sf-title { fill: #e8ecf3; font: italic 400 22px "Fraunces", serif; }
        .sf-section-label { fill: #e8a951; font: 600 9px "Inter", sans-serif; letter-spacing: 1.5px; }
        .sf-section-label-bad { fill: #d14859; font: 600 9px "Inter", sans-serif; letter-spacing: 1.5px; }
        .sf-side-label { fill: #b4becf; font: 600 11px "Inter", sans-serif; letter-spacing: 2px; }
        .sf-side-status { fill: #4fb8a8; font: italic 600 12px "Fraunces", serif; }
        .sf-side-status-bad { fill: #d14859; font: italic 600 12px "Fraunces", serif; }
        .sf-step-num { fill: #6b7689; font: 700 11px "JetBrains Mono", monospace; letter-spacing: 1.5px; }
        .sf-step-name { fill: #e8ecf3; font: 600 12px "Inter", sans-serif; letter-spacing: 0.5px; }
        .sf-bug-name { fill: #e8a951; font: italic 600 11px "Fraunces", serif; }
        .sf-caption { fill: #6b7689; font: italic 400 10px "Inter", sans-serif; }
        .sf-anatomy { fill: #b4becf; font: 500 10px "Inter", sans-serif; letter-spacing: 0.5px; }
        .sf-tag-text { fill: #0a0e1a; font: 700 8px "Inter", sans-serif; letter-spacing: 1px; }
        .sf-keypoint { fill: #e8a951; font: 600 10px "Inter", sans-serif; letter-spacing: 1px; }
        .sf-keypoint-bad { fill: #d14859; font: 600 10px "Inter", sans-serif; letter-spacing: 1px; }
        .sf-callout-eyebrow { fill: #d14859; font: 600 9px "Inter", sans-serif; letter-spacing: 2px; }
        .sf-callout-eyebrow-good { fill: #4fb8a8; font: 600 9px "Inter", sans-serif; letter-spacing: 2px; }
        .sf-callout-text { fill: #b4becf; font: 400 10.5px "Inter", sans-serif; }
        .sf-arrow-label { fill: #e8a951; font: 600 9px "Inter", sans-serif; letter-spacing: 1.2px; }
      </style>
      <defs>
        <marker id="sfArrow" viewBox="0 0 10 10" refX="8" refY="5" markerWidth="6" markerHeight="6" orient="auto">
          <path d="M 0 0 L 10 5 L 0 10 z" fill="#e8a951"/>
        </marker>
        <marker id="sfArrowCrimson" viewBox="0 0 10 10" refX="8" refY="5" markerWidth="6" markerHeight="6" orient="auto">
          <path d="M 0 0 L 10 5 L 0 10 z" fill="#d14859"/>
        </marker>
        <marker id="sfArrowTeal" viewBox="0 0 10 10" refX="8" refY="5" markerWidth="6" markerHeight="6" orient="auto">
          <path d="M 0 0 L 10 5 L 0 10 z" fill="#4fb8a8"/>
        </marker>
        <symbol id="bugNaked" overflow="visible">
          <ellipse cx="0" cy="0" rx="14" ry="10" fill="#d14859" opacity="0.85" stroke="#8b2c38" stroke-width="1"/>
          <g fill="#8b2c38" opacity="0.5">
            <circle cx="-4" cy="-2" r="2"/>
            <circle cx="4" cy="2" r="2"/>
          </g>
        </symbol>
        <symbol id="bugEncapsulated" overflow="visible">
          <ellipse cx="0" cy="0" rx="22" ry="17" fill="#e8a951" opacity="0.3" stroke="#e8a951" stroke-width="1.2" stroke-dasharray="2 1.5"/>
          <g stroke="#e8a951" stroke-width="0.7" opacity="0.6">
            <path d="M -16 -12 Q -14 -14 -12 -12" fill="none"/>
            <path d="M 12 -12 Q 14 -14 16 -12" fill="none"/>
            <path d="M -16 12 Q -14 14 -12 12" fill="none"/>
            <path d="M 12 12 Q 14 14 16 12" fill="none"/>
          </g>
          <ellipse cx="0" cy="0" rx="14" ry="10" fill="#d14859" opacity="0.85" stroke="#8b2c38" stroke-width="1"/>
          <g fill="#8b2c38" opacity="0.5">
            <circle cx="-4" cy="-2" r="2"/>
            <circle cx="4" cy="2" r="2"/>
          </g>
        </symbol>
        <symbol id="bugEncapsulatedGramPos" overflow="visible">
          <ellipse cx="0" cy="0" rx="22" ry="17" fill="#e8a951" opacity="0.3" stroke="#e8a951" stroke-width="1.2" stroke-dasharray="2 1.5"/>
          <g stroke="#e8a951" stroke-width="0.7" opacity="0.6">
            <path d="M -16 -12 Q -14 -14 -12 -12" fill="none"/>
            <path d="M 12 -12 Q 14 -14 16 -12" fill="none"/>
            <path d="M -16 12 Q -14 14 -12 12" fill="none"/>
            <path d="M 12 12 Q 14 14 16 12" fill="none"/>
          </g>
          <ellipse cx="0" cy="0" rx="14" ry="10" fill="#7a4a9e" opacity="0.9" stroke="#4a2d60" stroke-width="1"/>
          <g fill="#4a2d60" opacity="0.55">
            <circle cx="-4" cy="-2" r="2"/>
            <circle cx="4" cy="2" r="2"/>
          </g>
        </symbol>
        <!-- S. pneumoniae: lancet-shaped DIPLOCOCCI (Gram+, purple) -->
        <symbol id="bugPneumococcus" overflow="visible">
          <ellipse cx="0" cy="0" rx="24" ry="13" fill="#e8a951" opacity="0.3" stroke="#e8a951" stroke-width="1.2" stroke-dasharray="2 1.5"/>
          <g stroke="#e8a951" stroke-width="0.7" opacity="0.6">
            <path d="M -20 -8 Q -18 -10 -16 -8" fill="none"/>
            <path d="M 16 -8 Q 18 -10 20 -8" fill="none"/>
            <path d="M -20 8 Q -18 10 -16 8" fill="none"/>
            <path d="M 16 8 Q 18 10 20 8" fill="none"/>
          </g>
          <path d="M -13 -8 Q -16 0 -13 8 Q -8 9 -3 8 Q -2 0 -3 -8 Q -8 -9 -13 -8 Z" fill="#7a4a9e" opacity="0.92" stroke="#4a2d60" stroke-width="1"/>
          <path d="M 13 -8 Q 16 0 13 8 Q 8 9 3 8 Q 2 0 3 -8 Q 8 -9 13 -8 Z" fill="#7a4a9e" opacity="0.92" stroke="#4a2d60" stroke-width="1"/>
          <g fill="#4a2d60" opacity="0.55">
            <circle cx="-8" cy="-1" r="1.8"/>
            <circle cx="8" cy="-1" r="1.8"/>
          </g>
        </symbol>
        <!-- N. meningitidis: kidney-bean DIPLOCOCCI (Gram-, pink) -->
        <symbol id="bugMeningococcus" overflow="visible">
          <ellipse cx="0" cy="0" rx="24" ry="13" fill="#e8a951" opacity="0.3" stroke="#e8a951" stroke-width="1.2" stroke-dasharray="2 1.5"/>
          <g stroke="#e8a951" stroke-width="0.7" opacity="0.6">
            <path d="M -20 -8 Q -18 -10 -16 -8" fill="none"/>
            <path d="M 16 -8 Q 18 -10 20 -8" fill="none"/>
            <path d="M -20 8 Q -18 10 -16 8" fill="none"/>
            <path d="M 16 8 Q 18 10 20 8" fill="none"/>
          </g>
          <path d="M -14 0 Q -14 -8 -8 -9 Q -4 -9 -2 -5 Q -2 0 -2 5 Q -4 9 -8 9 Q -14 8 -14 0 Z" fill="#d14859" opacity="0.88" stroke="#8b2c38" stroke-width="1"/>
          <path d="M 14 0 Q 14 -8 8 -9 Q 4 -9 2 -5 Q 2 0 2 5 Q 4 9 8 9 Q 14 8 14 0 Z" fill="#d14859" opacity="0.88" stroke="#8b2c38" stroke-width="1"/>
          <g fill="#8b2c38" opacity="0.5">
            <circle cx="-8" cy="-1" r="1.8"/>
            <circle cx="8" cy="-1" r="1.8"/>
          </g>
        </symbol>
        <!-- Gram-negative ROD (S. typhi, K. pneumoniae) -->
        <symbol id="bugRodGramNeg" overflow="visible">
          <rect x="-24" y="-11" width="48" height="22" rx="11" ry="11" fill="#e8a951" opacity="0.3" stroke="#e8a951" stroke-width="1.2" stroke-dasharray="2 1.5"/>
          <g stroke="#e8a951" stroke-width="0.7" opacity="0.6">
            <path d="M -20 -8 Q -18 -10 -16 -8" fill="none"/>
            <path d="M 16 -8 Q 18 -10 20 -8" fill="none"/>
            <path d="M -20 8 Q -18 10 -16 8" fill="none"/>
            <path d="M 16 8 Q 18 10 20 8" fill="none"/>
          </g>
          <rect x="-16" y="-6" width="32" height="12" rx="6" ry="6" fill="#d14859" opacity="0.88" stroke="#8b2c38" stroke-width="1"/>
          <g fill="#8b2c38" opacity="0.5">
            <circle cx="-8" cy="-1" r="1.6"/>
            <circle cx="0" cy="1" r="1.6"/>
            <circle cx="8" cy="-1" r="1.6"/>
          </g>
        </symbol>
        <symbol id="phagocyte" overflow="visible">
          <circle cx="0" cy="0" r="22" fill="#4fb8a8" opacity="0.7" stroke="#3a8a7e" stroke-width="1.2"/>
          <circle cx="-3" cy="-3" r="7" fill="#3a8a7e" opacity="0.6"/>
          <g fill="#4fb8a8" opacity="0.7" stroke="#3a8a7e" stroke-width="1">
            <ellipse cx="18" cy="-8" rx="6" ry="4" transform="rotate(-30 18 -8)"/>
            <ellipse cx="18" cy="8" rx="6" ry="4" transform="rotate(30 18 8)"/>
          </g>
        </symbol>
        <symbol id="antibody" overflow="visible">
          <g stroke="#e8a951" stroke-width="1.4" fill="none">
            <line x1="0" y1="3" x2="0" y2="-2"/>
            <line x1="0" y1="-2" x2="-4" y2="-7"/>
            <line x1="0" y1="-2" x2="4" y2="-7"/>
          </g>
          <circle cx="0" cy="3" r="2" fill="#e8a951" opacity="0.8"/>
        </symbol>
        <symbol id="complement" overflow="visible">
          <circle cx="0" cy="0" r="3" fill="#4fb8a8" opacity="0.85"/>
        </symbol>
      </defs>

      <text x="500" y="26" text-anchor="middle" class="sf-eyebrow">SPLENIC FILTRATION · THE CAPSULE IS WHAT MAKES THEM DANGEROUS</text>
      <text x="500" y="58" text-anchor="middle" class="sf-title">The slick sugar coat only the spleen is built to handle.</text>
      <line x1="40" y1="78" x2="960" y2="78" stroke="#222c3e" stroke-width="1"/>

      <!-- LEFT PANEL: WHY CAPSULES RESIST PHAGOCYTOSIS -->
      <g transform="translate(40 100)">
        <text x="220" y="20" text-anchor="middle" class="sf-side-label">WHY CAPSULES RESIST PHAGOCYTOSIS</text>
        <text x="220" y="40" text-anchor="middle" class="sf-side-status">the phagocyte can't get a grip</text>
        <rect x="20" y="60" width="400" height="300" rx="22" ry="22" fill="#0a0e1a" stroke="#4fb8a8" stroke-width="1" stroke-dasharray="4 3" opacity="0.7"/>

        <g transform="translate(130 150)">
          <text x="0" y="-70" text-anchor="middle" class="sf-step-name">NAKED BACTERIUM</text>
          <text x="0" y="-54" text-anchor="middle" class="sf-caption">(no capsule)</text>
          <use href="#bugNaked"/>
          <g transform="translate(-35 0)"><use href="#phagocyte"/></g>
          <g stroke="#3a8a7e" stroke-width="1.2" fill="none" opacity="0.6">
            <path d="M -17 -8 Q -8 -12 -3 -10"/>
            <path d="M -17 8 Q -8 12 -3 10"/>
          </g>
          <text x="0" y="50" text-anchor="middle" class="sf-keypoint" fill="#4fb8a8">EATEN ✓</text>
          <text x="0" y="64" text-anchor="middle" class="sf-caption">phagocyte grips directly</text>
        </g>

        <g transform="translate(310 150)">
          <text x="0" y="-70" text-anchor="middle" class="sf-step-name" fill="#d14859">ENCAPSULATED</text>
          <text x="0" y="-54" text-anchor="middle" class="sf-caption">(polysaccharide capsule)</text>
          <use href="#bugEncapsulated"/>
          <g transform="translate(-40 0)"><use href="#phagocyte"/></g>
          <g stroke="#d14859" stroke-width="1.2" fill="none" opacity="0.85" stroke-dasharray="2 2">
            <path d="M -20 -10 Q -12 -16 -5 -22"/>
            <path d="M -20 10 Q -12 16 -5 22"/>
          </g>
          <text x="-35" y="-28" class="sf-keypoint-bad" text-anchor="middle">slips!</text>
          <text x="0" y="50" text-anchor="middle" class="sf-keypoint-bad">NOT EATEN ✗</text>
          <text x="0" y="64" text-anchor="middle" class="sf-caption">capsule = slick sugar coat</text>
        </g>
      </g>

      <!-- RIGHT PANEL: OPSONIZATION -->
      <g transform="translate(540 100)">
        <text x="220" y="20" text-anchor="middle" class="sf-side-label">WHAT THE SPLEEN DOES ABOUT IT</text>
        <text x="220" y="40" text-anchor="middle" class="sf-side-status">opsonization + mechanical filtration</text>
        <rect x="20" y="60" width="400" height="300" rx="22" ry="22" fill="#0a0e1a" stroke="#e8a951" stroke-width="1.2" stroke-dasharray="4 3" opacity="0.7"/>

        <g transform="translate(80 150)">
          <text x="0" y="-58" text-anchor="middle" class="sf-step-num">01</text>
          <text x="0" y="-44" text-anchor="middle" class="sf-caption">encapsulated bug</text>
          <use href="#bugEncapsulated"/>
        </g>

        <path d="M 115 210 L 160 210" stroke="#e8a951" stroke-width="1.3" marker-end="url(#sfArrow)"/>
        <text x="137" y="198" text-anchor="middle" class="sf-arrow-label">COAT</text>

        <g transform="translate(220 150)">
          <text x="0" y="-58" text-anchor="middle" class="sf-step-num">02</text>
          <text x="0" y="-44" text-anchor="middle" class="sf-caption">opsonized (coated)</text>
          <use href="#bugEncapsulated"/>
          <g transform="translate(-18 -14)"><use href="#antibody"/></g>
          <g transform="translate(0 -20)"><use href="#antibody"/></g>
          <g transform="translate(18 -14)"><use href="#antibody"/></g>
          <g transform="translate(-18 14) rotate(180)"><use href="#antibody"/></g>
          <g transform="translate(0 20) rotate(180)"><use href="#antibody"/></g>
          <g transform="translate(18 14) rotate(180)"><use href="#antibody"/></g>
          <use href="#complement" x="-22" y="0"/>
          <use href="#complement" x="22" y="0"/>
        </g>

        <path d="M 255 210 L 300 210" stroke="#e8a951" stroke-width="1.3" marker-end="url(#sfArrow)"/>
        <text x="278" y="198" text-anchor="middle" class="sf-arrow-label">GRIP</text>

        <g transform="translate(360 150)">
          <text x="0" y="-58" text-anchor="middle" class="sf-step-num">03</text>
          <text x="0" y="-44" text-anchor="middle" class="sf-caption">phagocytosed ✓</text>
          <use href="#phagocyte"/>
          <g transform="translate(0 0) scale(0.5)" opacity="0.5">
            <use href="#bugEncapsulated"/>
          </g>
        </g>

        <g transform="translate(220 260)">
          <line x1="-180" y1="0" x2="180" y2="0" stroke="#222c3e" stroke-width="1"/>
          <g transform="translate(-120 20)">
            <g transform="translate(-10 0)"><use href="#antibody"/></g>
            <text x="4" y="3" class="sf-caption">IgM/IgG antibody</text>
          </g>
          <g transform="translate(40 20)">
            <g transform="translate(-10 0)"><use href="#complement"/></g>
            <text x="0" y="3" class="sf-caption">complement (C3b)</text>
          </g>
          <text x="0" y="50" text-anchor="middle" class="sf-keypoint">the spleen makes BOTH, and filters the result</text>
        </g>
      </g>

      <!-- MIDDLE BAND: ENCAPSULATED CREW ROSTER -->
      <g transform="translate(0 490)">
        <line x1="40" y1="0" x2="960" y2="0" stroke="#222c3e" stroke-width="1"/>
        <text x="500" y="22" text-anchor="middle" class="sf-section-label">THE ENCAPSULATED CREW · ORGANISMS THAT DEPEND ON YOUR SPLEEN</text>

        <!-- Gram-stain key -->
        <g transform="translate(500 40)">
          <g transform="translate(-80 0) scale(0.55)"><use href="#bugEncapsulatedGramPos"/></g>
          <text x="-62" y="3" class="sf-caption">= gram-positive</text>
          <g transform="translate(40 0) scale(0.55)"><use href="#bugEncapsulated"/></g>
          <text x="58" y="3" class="sf-caption">= gram-negative</text>
        </g>

        <g transform="translate(0 90)">
          <g transform="translate(100 0)">
            <rect x="-60" y="-38" width="140" height="80" rx="8" fill="#e8a951" fill-opacity="0.08" stroke="#e8a951" stroke-width="1.3"/>
            <g transform="translate(0 -10)"><use href="#bugPneumococcus"/></g>
            <text x="10" y="-18" text-anchor="middle" class="sf-step-num">01</text>
            <text x="10" y="22" text-anchor="middle" class="sf-bug-name">S. pneumoniae</text>
            <text x="10" y="36" text-anchor="middle" class="sf-caption" fill="#e8a951">most dangerous</text>
          </g>
          <g transform="translate(280 0)">
            <rect x="-60" y="-38" width="140" height="80" rx="8" fill="none" stroke="#222c3e" stroke-width="1"/>
            <g transform="translate(0 -10)"><use href="#bugEncapsulated"/></g>
            <text x="10" y="-18" text-anchor="middle" class="sf-step-num">02</text>
            <text x="10" y="22" text-anchor="middle" class="sf-bug-name">H. influenzae</text>
          </g>
          <g transform="translate(460 0)">
            <rect x="-60" y="-38" width="140" height="80" rx="8" fill="none" stroke="#222c3e" stroke-width="1"/>
            <g transform="translate(0 -10)"><use href="#bugMeningococcus"/></g>
            <text x="10" y="-18" text-anchor="middle" class="sf-step-num">03</text>
            <text x="10" y="22" text-anchor="middle" class="sf-bug-name">N. meningitidis</text>
          </g>
          <g transform="translate(640 0)">
            <rect x="-60" y="-38" width="140" height="80" rx="8" fill="none" stroke="#222c3e" stroke-width="1"/>
            <g transform="translate(0 -10)"><use href="#bugRodGramNeg"/></g>
            <text x="10" y="-18" text-anchor="middle" class="sf-step-num">04</text>
            <text x="10" y="22" text-anchor="middle" class="sf-bug-name">S. typhi</text>
          </g>
          <g transform="translate(820 0)">
            <rect x="-60" y="-38" width="140" height="80" rx="8" fill="none" stroke="#222c3e" stroke-width="1"/>
            <g transform="translate(0 -10)"><use href="#bugRodGramNeg"/></g>
            <text x="10" y="-18" text-anchor="middle" class="sf-step-num">05</text>
            <text x="10" y="22" text-anchor="middle" class="sf-bug-name">K. pneumoniae</text>
          </g>
        </g>
      </g>

      <!-- BOTTOM PANEL: ASPLENIC CONSEQUENCE -->
      <g transform="translate(0 640)">
        <line x1="40" y1="0" x2="960" y2="0" stroke="#222c3e" stroke-width="1"/>
        <text x="500" y="22" text-anchor="middle" class="sf-section-label-bad">NO SPLEEN → BOTH FUNCTIONS VANISH → OPSI</text>

        <g transform="translate(250 90)">
          <text x="0" y="-48" text-anchor="middle" class="sf-side-label">WITH SPLEEN</text>
          <path d="M -50 -10 Q -60 0 -55 20 Q -40 45 -10 40 Q 30 35 45 15 Q 55 -5 35 -20 Q 10 -30 -20 -25 Q -40 -20 -50 -10 Z" fill="#8b2c38" opacity="0.35" stroke="#8b2c38" stroke-width="1.5"/>
          <g stroke="#3a8a7e" stroke-width="0.6" opacity="0.5" fill="none">
            <path d="M -35 -5 Q -25 0 -15 -2"/>
            <path d="M -15 10 Q -5 15 5 12"/>
            <path d="M 10 -10 Q 20 -5 30 -8"/>
            <path d="M 20 15 Q 30 20 40 15"/>
          </g>
          <g transform="translate(-20 10) scale(0.6)"><use href="#antibody"/></g>
          <g transform="translate(15 -5) scale(0.6)"><use href="#antibody"/></g>
          <g transform="translate(0 20) scale(0.4)"><use href="#phagocyte"/></g>
          <text x="0" y="60" text-anchor="middle" class="sf-caption" fill="#4fb8a8">✓ filters opsonized bugs</text>
          <text x="0" y="74" text-anchor="middle" class="sf-caption" fill="#4fb8a8">✓ produces IgM antibody</text>
        </g>

        <g transform="translate(500 90)">
          <text x="0" y="-10" text-anchor="middle" class="sf-arrow-label" fill="#d14859">SPLENECTOMY</text>
          <path d="M -50 0 L 50 0" stroke="#d14859" stroke-width="1.8" marker-end="url(#sfArrowCrimson)"/>
          <text x="0" y="22" text-anchor="middle" class="sf-caption">trauma, rupture, ITP…</text>
        </g>

        <g transform="translate(750 90)">
          <text x="0" y="-48" text-anchor="middle" class="sf-side-label">ASPLENIC</text>
          <path d="M -50 -10 Q -60 0 -55 20 Q -40 45 -10 40 Q 30 35 45 15 Q 55 -5 35 -20 Q 10 -30 -20 -25 Q -40 -20 -50 -10 Z" fill="none" opacity="0.25" stroke="#6b7689" stroke-width="1" stroke-dasharray="4 3"/>
          <g transform="translate(-30 10) scale(0.7)"><use href="#bugEncapsulated"/></g>
          <g transform="translate(5 -10) scale(0.7)"><use href="#bugEncapsulated"/></g>
          <g transform="translate(25 20) scale(0.7)"><use href="#bugEncapsulated"/></g>
          <text x="0" y="60" text-anchor="middle" class="sf-caption" fill="#d14859">✗ no filter</text>
          <text x="0" y="74" text-anchor="middle" class="sf-caption" fill="#d14859">✗ no early IgM</text>
        </g>
      </g>

      <!-- BOTTOM RESOLVER -->
      <g transform="translate(0 830)">
        <line x1="40" y1="0" x2="960" y2="0" stroke="#222c3e" stroke-width="1"/>

        <g transform="translate(40 18)">
          <text x="0" y="14" class="sf-callout-eyebrow-good">THE CAPSULE IS THE STRUCTURAL ANSWER</text>
          <text x="0" y="34" class="sf-callout-text">
            Polysaccharide capsule = slick sugar coat that blocks direct phagocytosis.
          </text>
          <text x="0" y="50" class="sf-callout-text">
            Only <tspan fill="#e8a951" font-weight="700">opsonization</tspan>
            (Ab + complement) saves you — and the spleen is where that happens.
          </text>
        </g>

        <g transform="translate(520 18)">
          <text x="0" y="14" class="sf-callout-eyebrow">WHERE THE DISTRACTORS BELONG</text>
          <text x="0" y="34" class="sf-callout-text">
            <tspan fill="#d14859" font-weight="700">Acid-fast wall</tspan> = mycobacteria ·
            <tspan fill="#d14859" font-weight="700">Flagella</tspan> = motility, not capsule ·
          </text>
          <text x="0" y="50" class="sf-callout-text">
            <tspan fill="#d14859" font-weight="700">IgA protease</tspan> = mucosal invasion ·
            <tspan fill="#d14859" font-weight="700">LPS</tspan> = gram-neg endotoxin (not structural protection).
          </text>
        </g>
      </g>
    </svg>
