<?xml version="1.0" encoding="UTF-8"?>
<!--
  Auto-generated from the reference HTML by
  scripts/storymode-extraction/extract.mjs.
  Do not edit by hand — regenerate the file instead.
-->
<svg xmlns="http://www.w3.org/2000/svg" xmlns:xlink="http://www.w3.org/1999/xlink" viewBox="0 0 1000 720" preserveAspectRatio="xMidYMid meet">
      <style>
        .ot-eyebrow { fill: #d14859; font: 500 10px "Inter", sans-serif; letter-spacing: 2.5px; }
        .ot-title { fill: #e8ecf3; font: italic 400 22px "Fraunces", serif; }
        .ot-section-label { fill: #e8a951; font: 600 9px "Inter", sans-serif; letter-spacing: 1.5px; }
        .ot-section-label-bad { fill: #d14859; font: 600 9px "Inter", sans-serif; letter-spacing: 1.5px; }
        .ot-step-num { fill: #6b7689; font: 700 11px "JetBrains Mono", monospace; letter-spacing: 1.5px; }
        .ot-caption { fill: #6b7689; font: italic 400 10px "Inter", sans-serif; }
        .ot-stage-caption { fill: #b4becf; font: 500 10.5px "Inter", sans-serif; letter-spacing: 0.3px; }
        .ot-hour-label { fill: #e8a951; font: 700 13px "Fraunces", serif; font-style: italic; }
        .ot-hour-label-bad { fill: #d14859; font: 700 13px "Fraunces", serif; font-style: italic; }
        .ot-hour-label-ok { fill: #4fb8a8; font: 700 13px "Fraunces", serif; font-style: italic; }
        .ot-tag-text { fill: #0a0e1a; font: 700 8px "Inter", sans-serif; letter-spacing: 1px; }
        .ot-keypoint { fill: #e8a951; font: 600 10.5px "Inter", sans-serif; letter-spacing: 0.5px; }
        .ot-trigger-label { fill: #b4becf; font: 600 10.5px "Inter", sans-serif; letter-spacing: 0.3px; }
        .ot-stat { fill: #d14859; font: 700 18px "Fraunces", serif; }
        .ot-stat-sub { fill: #b4becf; font: 500 10px "Inter", sans-serif; letter-spacing: 0.3px; }
        .ot-path-node-title { fill: #e8ecf3; font: 600 10.5px "Inter", sans-serif; letter-spacing: 0.3px; }
        .ot-path-outcome { fill: #d14859; font: 700 10.5px "Inter", sans-serif; letter-spacing: 0.3px; }
      </style>
      <defs>
        <marker id="otArrow" viewBox="0 0 10 10" refX="8" refY="5" markerWidth="6" markerHeight="6" orient="auto">
          <path d="M 0 0 L 10 5 L 0 10 z" fill="#e8a951"/>
        </marker>
        <marker id="otArrowCrimson" viewBox="0 0 10 10" refX="8" refY="5" markerWidth="7" markerHeight="7" orient="auto">
          <path d="M 0 0 L 10 5 L 0 10 z" fill="#d14859"/>
        </marker>
        <linearGradient id="otCrashGradient" x1="0%" y1="0%" x2="100%" y2="0%">
          <stop offset="0%" stop-color="#4fb8a8" stop-opacity="0.4"/>
          <stop offset="25%" stop-color="#e8a951" stop-opacity="0.5"/>
          <stop offset="60%" stop-color="#d14859" stop-opacity="0.7"/>
          <stop offset="100%" stop-color="#8b2c38" stop-opacity="0.95"/>
        </linearGradient>
        <symbol id="otPneumo" overflow="visible">
          <ellipse cx="0" cy="0" rx="12" ry="9" fill="#e8a951" opacity="0.3" stroke="#e8a951" stroke-width="0.8" stroke-dasharray="2 1"/>
          <ellipse cx="0" cy="0" rx="7" ry="5" fill="#7a4a9e" opacity="0.92" stroke="#4a2d60" stroke-width="0.8"/>
        </symbol>
        <symbol id="otNose" overflow="visible">
          <path d="M -8 -12 Q 0 -18 8 -12 L 10 6 Q 8 10 0 10 Q -8 10 -10 6 Z" fill="#b4becf" opacity="0.3" stroke="#6b7689" stroke-width="1"/>
          <ellipse cx="-3" cy="6" rx="1.5" ry="1" fill="#0a0e1a" opacity="0.7"/>
          <ellipse cx="3" cy="6" rx="1.5" ry="1" fill="#0a0e1a" opacity="0.7"/>
        </symbol>
      </defs>

      <text x="500" y="26" text-anchor="middle" class="ot-eyebrow">OPSI · THE CLINICAL TEMPO OF POST-SPLENECTOMY SEPSIS</text>
      <text x="500" y="58" text-anchor="middle" class="ot-title">A "cold" at breakfast. Shock by dinner.</text>
      <line x1="40" y1="78" x2="960" y2="78" stroke="#222c3e" stroke-width="1"/>

      <!-- TOP: CLINICAL TEMPO TIMELINE -->
      <g transform="translate(0 100)">
        <text x="500" y="18" text-anchor="middle" class="ot-section-label">A PATIENT'S HOUR-BY-HOUR COURSE</text>

        <rect x="60" y="40" width="880" height="40" rx="6" ry="6" fill="url(#otCrashGradient)" opacity="0.85"/>
        <g stroke="#0a0e1a" stroke-width="1" opacity="0.35">
          <line x1="280" y1="40" x2="280" y2="80"/>
          <line x1="500" y1="40" x2="500" y2="80"/>
          <line x1="720" y1="40" x2="720" y2="80"/>
        </g>

        <text x="60" y="32" class="ot-hour-label-ok">0h</text>
        <text x="280" y="32" class="ot-hour-label">2–4h</text>
        <text x="500" y="32" class="ot-hour-label-bad">6–8h</text>
        <text x="720" y="32" class="ot-hour-label-bad">10–12h</text>
        <text x="940" y="32" text-anchor="end" class="ot-hour-label-bad">CRITICAL</text>

        <text x="60" y="108" class="ot-stage-caption" fill="#4fb8a8">FEELS OFF</text>
        <text x="60" y="122" class="ot-caption">mild URI symptoms,</text>
        <text x="60" y="134" class="ot-caption">"just a cold"</text>

        <text x="280" y="108" class="ot-stage-caption">FEVER + CHILLS</text>
        <text x="280" y="122" class="ot-caption">rising temperature,</text>
        <text x="280" y="134" class="ot-caption">malaise</text>

        <text x="500" y="108" class="ot-stage-caption" fill="#d14859">HYPOTENSION</text>
        <text x="500" y="122" class="ot-caption">BP drops,</text>
        <text x="500" y="134" class="ot-caption">confusion, lactate rising</text>

        <text x="720" y="108" class="ot-stage-caption" fill="#d14859">SHOCK + DIC</text>
        <text x="720" y="122" class="ot-caption">multi-organ failure,</text>
        <text x="720" y="134" class="ot-caption">consumptive coagulopathy</text>

        <text x="500" y="162" text-anchor="middle" class="ot-caption">same day · hours, not days</text>
      </g>

      <!-- MIDDLE: TRIGGER CASCADE -->
      <g transform="translate(40 300)">
        <text x="0" y="14" class="ot-section-label">THE TRIGGER · OFTEN STARTS AS SOMETHING SMALL</text>
        <line x1="0" y1="26" x2="920" y2="26" stroke="#222c3e" stroke-width="1"/>

        <g transform="translate(100 90)">
          <g transform="translate(0 -24) scale(1.8)"><use href="#otNose"/></g>
          <g transform="translate(-8 8) scale(0.8)"><use href="#otPneumo"/></g>
          <g transform="translate(10 10) scale(0.8)"><use href="#otPneumo"/></g>
          <text x="0" y="40" text-anchor="middle" class="ot-trigger-label">minor URI / "a cold"</text>
          <text x="0" y="54" text-anchor="middle" class="ot-caption">a few pneumococci</text>
          <text x="0" y="66" text-anchor="middle" class="ot-caption">in the upper airway</text>
        </g>

        <g transform="translate(200 90)">
          <path d="M -20 0 L 70 0" stroke="#e8a951" stroke-width="1.3" marker-end="url(#otArrow)"/>
          <text x="25" y="-10" text-anchor="middle" class="ot-caption">organism slips into</text>
          <text x="25" y="20" text-anchor="middle" class="ot-caption">the bloodstream</text>
        </g>

        <g transform="translate(420 90)">
          <rect x="-120" y="-20" width="240" height="40" rx="20" ry="20" fill="#8b2c38" opacity="0.15" stroke="#8b2c38" stroke-width="1"/>
          <g transform="translate(-100 -4)"><use href="#otPneumo"/></g>
          <g transform="translate(-75 7)"><use href="#otPneumo"/></g>
          <g transform="translate(-50 -7)"><use href="#otPneumo"/></g>
          <g transform="translate(-25 5)"><use href="#otPneumo"/></g>
          <g transform="translate(5 -3)"><use href="#otPneumo"/></g>
          <g transform="translate(35 6)"><use href="#otPneumo"/></g>
          <g transform="translate(60 -6)"><use href="#otPneumo"/></g>
          <g transform="translate(90 4)"><use href="#otPneumo"/></g>
          <text x="0" y="40" text-anchor="middle" class="ot-trigger-label">unchecked bacteremia</text>
          <text x="0" y="54" text-anchor="middle" class="ot-caption">organism multiplies quickly</text>
          <text x="0" y="66" text-anchor="middle" class="ot-caption">in the circulation</text>
        </g>

        <g transform="translate(580 90)">
          <path d="M -20 0 L 70 0" stroke="#d14859" stroke-width="1.3" marker-end="url(#otArrowCrimson)"/>
        </g>

        <g transform="translate(770 90)">
          <rect x="-80" y="-40" width="160" height="85" rx="8" fill="#0a0e1a" stroke="#d14859" stroke-width="1.2"/>
          <text x="0" y="-20" text-anchor="middle" class="ot-section-label-bad">BACTERIA EVERYWHERE</text>
          <text x="0" y="0" text-anchor="middle" class="ot-caption">bacterial products +</text>
          <text x="0" y="14" text-anchor="middle" class="ot-caption">massive cytokine storm</text>
          <text x="0" y="36" text-anchor="middle" class="ot-keypoint" fill="#d14859">triggers DIC ↓</text>
        </g>
      </g>

      <!-- PATHOPHYSIOLOGY PANEL -->
      <g transform="translate(40 460)">
        <text x="0" y="14" class="ot-section-label">THE PATHOPHYSIOLOGY · WHY THE LABS LOOK LIKE THIS</text>
        <line x1="0" y1="26" x2="920" y2="26" stroke="#222c3e" stroke-width="1"/>

        <g transform="translate(80 110)">
          <circle cx="0" cy="0" r="38" fill="#8b2c38" opacity="0.25" stroke="#d14859" stroke-width="1.2"/>
          <text x="0" y="-4" text-anchor="middle" class="ot-path-node-title">bacteria +</text>
          <text x="0" y="10" text-anchor="middle" class="ot-path-node-title">cytokine storm</text>
          <text x="0" y="56" text-anchor="middle" class="ot-caption">TNF · IL-1 · IL-6</text>
        </g>

        <g stroke="#d14859" stroke-width="1" fill="none" opacity="0.7">
          <path d="M 118 100 Q 180 70 240 75" marker-end="url(#otArrowCrimson)"/>
          <path d="M 120 112 L 240 112" marker-end="url(#otArrowCrimson)"/>
          <path d="M 118 124 Q 180 150 240 148" marker-end="url(#otArrowCrimson)"/>
        </g>

        <g transform="translate(340 70)">
          <rect x="-90" y="-18" width="180" height="36" rx="6" fill="#0a0e1a" stroke="#222c3e" stroke-width="1"/>
          <text x="0" y="-2" text-anchor="middle" class="ot-path-node-title">endothelium activates</text>
          <text x="0" y="12" text-anchor="middle" class="ot-caption">leaky vessels, vasodilation</text>
        </g>
        <g transform="translate(430 70)">
          <path d="M 0 0 L 60 0" stroke="#d14859" stroke-width="1" marker-end="url(#otArrowCrimson)" opacity="0.7"/>
        </g>
        <g transform="translate(590 70)">
          <rect x="-70" y="-18" width="140" height="36" rx="6" fill="#d14859" fill-opacity="0.12" stroke="#d14859" stroke-width="1"/>
          <text x="0" y="3" text-anchor="middle" class="ot-path-outcome">BP ↓ · shock</text>
        </g>

        <g transform="translate(340 112)">
          <rect x="-90" y="-18" width="180" height="36" rx="6" fill="#0a0e1a" stroke="#222c3e" stroke-width="1"/>
          <text x="0" y="-2" text-anchor="middle" class="ot-path-node-title">tissue factor released</text>
          <text x="0" y="12" text-anchor="middle" class="ot-caption">clotting triggered everywhere</text>
        </g>
        <g transform="translate(430 112)">
          <path d="M 0 0 L 60 0" stroke="#d14859" stroke-width="1" marker-end="url(#otArrowCrimson)" opacity="0.7"/>
        </g>
        <g transform="translate(590 112)">
          <rect x="-88" y="-18" width="176" height="36" rx="6" fill="#d14859" fill-opacity="0.12" stroke="#d14859" stroke-width="1"/>
          <text x="0" y="-2" text-anchor="middle" class="ot-path-outcome">microthrombi in small vessels</text>
          <text x="0" y="12" text-anchor="middle" class="ot-caption">→ multi-organ ischemia</text>
        </g>

        <g transform="translate(340 154)">
          <rect x="-90" y="-18" width="180" height="36" rx="6" fill="#0a0e1a" stroke="#222c3e" stroke-width="1"/>
          <text x="0" y="-2" text-anchor="middle" class="ot-path-node-title">consumption + fibrinolysis</text>
          <text x="0" y="12" text-anchor="middle" class="ot-caption">platelets + factors used up</text>
        </g>
        <g transform="translate(430 154)">
          <path d="M 0 0 L 60 0" stroke="#d14859" stroke-width="1" marker-end="url(#otArrowCrimson)" opacity="0.7"/>
        </g>
        <g transform="translate(590 154)">
          <rect x="-96" y="-18" width="192" height="36" rx="6" fill="#d14859" fill-opacity="0.12" stroke="#d14859" stroke-width="1"/>
          <text x="0" y="-2" text-anchor="middle" class="ot-path-outcome">platelets ↓ · PT/aPTT ↑</text>
          <text x="0" y="12" text-anchor="middle" class="ot-caption">D-dimer ↑ (fibrin breakdown)</text>
        </g>

        <g transform="translate(810 112)">
          <rect x="-50" y="-48" width="100" height="96" rx="8" fill="#0a0e1a" stroke="#d14859" stroke-width="1.5"/>
          <text x="0" y="-24" text-anchor="middle" class="ot-section-label-bad">= DIC</text>
          <text x="0" y="-4" text-anchor="middle" class="ot-caption">bleeding AND</text>
          <text x="0" y="10" text-anchor="middle" class="ot-caption">clotting at the</text>
          <text x="0" y="24" text-anchor="middle" class="ot-caption">same time</text>
          <text x="0" y="42" text-anchor="middle" class="ot-keypoint" fill="#d14859">shock + MOF</text>
        </g>
        <g stroke="#d14859" stroke-width="0.8" fill="none" opacity="0.5">
          <path d="M 662 70 Q 720 80 760 100"/>
          <path d="M 680 112 L 760 112"/>
          <path d="M 688 154 Q 720 140 760 124"/>
        </g>
      </g>

      <!-- BOTTOM: STATS -->
      <g transform="translate(40 660)">
        <line x1="0" y1="0" x2="920" y2="0" stroke="#222c3e" stroke-width="1"/>
        <g transform="translate(0 30)">
          <text x="0" y="0" class="ot-stat">~5%</text>
          <text x="72" y="-8" class="ot-stat-sub">lifetime risk</text>
          <text x="72" y="6" class="ot-stat-sub">after splenectomy</text>
        </g>
        <g transform="translate(280 30)">
          <text x="0" y="0" class="ot-stat">50%+</text>
          <text x="82" y="-8" class="ot-stat-sub">mortality when</text>
          <text x="82" y="6" class="ot-stat-sub">it occurs — even with ICU</text>
        </g>
        <g transform="translate(600 30)">
          <text x="0" y="0" class="ot-stat">&lt; 12h</text>
          <text x="82" y="-8" class="ot-stat-sub">from first symptom</text>
          <text x="82" y="6" class="ot-stat-sub">to shock</text>
        </g>
      </g>
    </svg>
