<?xml version="1.0" encoding="UTF-8"?>
<!--
  Auto-generated from the reference HTML by
  scripts/storymode-extraction/extract.mjs.
  Do not edit by hand — regenerate the file instead.
-->
<svg xmlns="http://www.w3.org/2000/svg" xmlns:xlink="http://www.w3.org/1999/xlink" viewBox="0 0 1000 620" preserveAspectRatio="xMidYMid meet">
      <style>
        .fn-eyebrow { fill: #d14859; font: 500 10px "Inter", sans-serif; letter-spacing: 2.5px; }
        .fn-title { fill: #e8ecf3; font: italic 400 22px "Fraunces", serif; }
        .fn-col-label { fill: #b4becf; font: 600 10px "Inter", sans-serif; letter-spacing: 1.5px; }
        .fn-label-ok { fill: #4fb8a8; font: 600 9px "Inter", sans-serif; letter-spacing: 1.5px; }
        .fn-label-bad { fill: #d14859; font: 600 9px "Inter", sans-serif; letter-spacing: 1.5px; }
        .fn-anatomy { fill: #e8ecf3; font: 600 11px "Inter", sans-serif; letter-spacing: 0.3px; }
        .fn-caption { fill: #6b7689; font: italic 400 10px "Inter", sans-serif; }
        .fn-arrow-label { fill: #e8a951; font: 600 9px "Inter", sans-serif; letter-spacing: 1.2px; }
      </style>
      <defs>
        <marker id="fnArrow" viewBox="0 0 10 10" refX="8" refY="5" markerWidth="7" markerHeight="7" orient="auto">
          <path d="M 0 0 L 10 5 L 0 10 z" fill="#e8a951"/>
        </marker>
        <symbol id="fnNeutrophil" overflow="visible">
          <circle cx="0" cy="0" r="9" fill="#e8a951" opacity="0.85" stroke="#a87b3c" stroke-width="0.8"/>
          <path d="M -4 -3 Q -6 -1 -4 1 Q -2 3 0 2 Q 2 4 4 2 Q 6 0 4 -2 Q 2 -4 0 -3 Q -2 -4 -4 -3 Z" fill="#4a2d60" opacity="0.75"/>
        </symbol>
        <symbol id="fnPrecursor" overflow="visible">
          <circle cx="0" cy="0" r="11" fill="#e8a951" opacity="0.5" stroke="#a87b3c" stroke-width="0.8"/>
          <circle cx="0" cy="0" r="6" fill="#4a2d60" opacity="0.7"/>
        </symbol>
        <symbol id="fnDrug" overflow="visible">
          <polygon points="-6,-3 -6,3 0,6 6,3 6,-3 0,-6" fill="#7a4a9e" opacity="0.9" stroke="#4a2d60" stroke-width="0.8"/>
          <text x="0" y="2" text-anchor="middle" style="fill: #e8ecf3; font: 700 6px 'Inter', sans-serif;">Rx</text>
        </symbol>
        <symbol id="fnBacteria" overflow="visible">
          <ellipse cx="0" cy="0" rx="5" ry="2.5" fill="#d14859" opacity="0.8" stroke="#8b2c38" stroke-width="0.5"/>
        </symbol>
      </defs>

      <text x="500" y="26" text-anchor="middle" class="fn-eyebrow">FEBRILE NEUTROPENIA · HOW CHEMOTHERAPY SILENCES THE DEFENSE</text>
      <text x="500" y="58" text-anchor="middle" class="fn-title">Drug hits marrow → marrow goes quiet → blood empties → no response at tissue.</text>
      <line x1="40" y1="78" x2="960" y2="78" stroke="#222c3e" stroke-width="1"/>

      <!-- Column labels -->
      <text x="125" y="108" text-anchor="middle" class="fn-col-label">1 · CHEMOTHERAPY</text>
      <text x="375" y="108" text-anchor="middle" class="fn-col-label">2 · BONE MARROW</text>
      <text x="625" y="108" text-anchor="middle" class="fn-col-label">3 · BLOOD VESSEL</text>
      <text x="875" y="108" text-anchor="middle" class="fn-col-label">4 · INFECTION SITE</text>

      <!-- Scene 1: IV bag -->
      <g transform="translate(125 160)">
        <path d="M -30 0 L 30 0 L 24 90 Q 24 98 16 98 L -16 98 Q -24 98 -24 90 Z"
              fill="#4fb8a8" opacity="0.15" stroke="#4fb8a8" stroke-width="1.2"/>
        <rect x="-22" y="6" width="44" height="7" rx="2" fill="#4fb8a8" opacity="0.4"/>
        <text x="0" y="54" text-anchor="middle" class="fn-anatomy" fill="#4fb8a8">CHEMO</text>
        <text x="0" y="70" text-anchor="middle" class="fn-caption">drip</text>
      </g>
      <g transform="translate(125 280)">
        <g transform="translate(0 0)"><use href="#fnDrug"/></g>
        <g transform="translate(-8 24)"><use href="#fnDrug"/></g>
        <g transform="translate(6 48)"><use href="#fnDrug"/></g>
      </g>
      <text x="125" y="430" text-anchor="middle" class="fn-caption">drug molecules</text>
      <text x="125" y="444" text-anchor="middle" class="fn-caption">enter circulation</text>

      <!-- Scene 2: Bone marrow HEALTHY (top) -->
      <g transform="translate(375 180)">
        <text x="-85" y="-8" class="fn-label-ok">HEALTHY</text>
        <path d="M -85 0 Q -92 -4 -88 -14 L 88 -14 Q 92 -4 85 0 L 85 64 L -85 64 Z"
              fill="#e8a951" opacity="0.08" stroke="#e8a951" stroke-width="1" stroke-dasharray="3 3"/>
        <g transform="translate(-55 24)"><use href="#fnPrecursor"/></g>
        <g transform="translate(-25 18)"><use href="#fnPrecursor"/></g>
        <g transform="translate(-40 42)"><use href="#fnPrecursor"/></g>
        <g transform="translate(0 28)"><use href="#fnPrecursor"/></g>
        <g transform="translate(45 22)"><use href="#fnNeutrophil"/></g>
        <g transform="translate(55 42)"><use href="#fnNeutrophil"/></g>
        <path d="M 68 32 L 92 32" stroke="#e8a951" stroke-width="0.8" opacity="0.7" marker-end="url(#fnArrow)"/>
      </g>

      <!-- Scene 2: Bone marrow POST-CHEMO (bottom) -->
      <g transform="translate(375 320)">
        <text x="-85" y="-8" class="fn-label-bad">POST-CHEMO</text>
        <path d="M -85 0 L 85 0 L 85 54 Q 92 58 88 68 L -88 68 Q -92 58 -85 54 Z"
              fill="#e8a951" opacity="0.04" stroke="#d14859" stroke-width="1" stroke-dasharray="3 3"/>
        <g transform="translate(-55 24)" opacity="0.3">
          <circle cx="0" cy="0" r="11" fill="none" stroke="#6b7689" stroke-width="0.8" stroke-dasharray="2 2"/>
        </g>
        <g transform="translate(-25 20)" opacity="0.3">
          <circle cx="0" cy="0" r="11" fill="none" stroke="#6b7689" stroke-width="0.8" stroke-dasharray="2 2"/>
        </g>
        <g transform="translate(5 26)"><use href="#fnDrug"/></g>
        <g transform="translate(35 38)"><use href="#fnDrug"/></g>
        <line x1="62" y1="26" x2="76" y2="40" stroke="#d14859" stroke-width="1.8"/>
        <line x1="76" y1="26" x2="62" y2="40" stroke="#d14859" stroke-width="1.8"/>
      </g>
      <text x="375" y="430" text-anchor="middle" class="fn-caption">chemo kills dividing marrow cells</text>
      <text x="375" y="444" text-anchor="middle" class="fn-caption">— neutrophil production halts</text>

      <!-- Scene 3: Blood vessel HEALTHY (top) -->
      <g transform="translate(625 200)">
        <text x="-75" y="-8" class="fn-label-ok">HEALTHY</text>
        <rect x="-75" y="0" width="150" height="40" rx="20" ry="20"
              fill="#8b2c38" opacity="0.12" stroke="#8b2c38" stroke-width="1"/>
        <g transform="translate(-58 20)"><use href="#fnNeutrophil"/></g>
        <g transform="translate(-35 14)"><use href="#fnNeutrophil"/></g>
        <g transform="translate(-12 24)"><use href="#fnNeutrophil"/></g>
        <g transform="translate(12 16)"><use href="#fnNeutrophil"/></g>
        <g transform="translate(35 24)"><use href="#fnNeutrophil"/></g>
        <g transform="translate(58 18)"><use href="#fnNeutrophil"/></g>
      </g>

      <!-- Scene 3: Blood vessel POST-CHEMO (bottom) -->
      <g transform="translate(625 340)">
        <text x="-75" y="-8" class="fn-label-bad">POST-CHEMO</text>
        <rect x="-75" y="0" width="150" height="40" rx="20" ry="20"
              fill="#8b2c38" opacity="0.12" stroke="#8b2c38" stroke-width="1"/>
        <g transform="translate(-45 20)" opacity="0.4">
          <circle cx="0" cy="0" r="9" fill="none" stroke="#6b7689" stroke-width="0.8" stroke-dasharray="2 2"/>
        </g>
        <g transform="translate(15 20)" opacity="0.4">
          <circle cx="0" cy="0" r="9" fill="none" stroke="#6b7689" stroke-width="0.8" stroke-dasharray="2 2"/>
        </g>
        <text x="52" y="24" class="fn-caption" fill="#d14859">ANC ≈ 0</text>
      </g>
      <text x="625" y="430" text-anchor="middle" class="fn-caption">circulating neutrophils</text>
      <text x="625" y="444" text-anchor="middle" class="fn-caption">drop to near zero</text>

      <!-- Scene 4: Infection site HEALTHY (top) -->
      <g transform="translate(875 180)">
        <text x="-75" y="-8" class="fn-label-ok">HEALTHY</text>
        <rect x="-75" y="0" width="150" height="48" rx="8"
              fill="#4fb8a8" opacity="0.08" stroke="#4fb8a8" stroke-width="1" stroke-dasharray="3 3"/>
        <g transform="translate(-5 24)"><use href="#fnBacteria"/></g>
        <g transform="translate(8 22)"><use href="#fnBacteria"/></g>
        <g transform="translate(2 30)"><use href="#fnBacteria"/></g>
        <g transform="translate(-52 20)"><use href="#fnNeutrophil"/></g>
        <g transform="translate(-38 30)"><use href="#fnNeutrophil"/></g>
        <g transform="translate(42 18)"><use href="#fnNeutrophil"/></g>
        <g transform="translate(54 28)"><use href="#fnNeutrophil"/></g>
        <path d="M -30 24 L -12 24" stroke="#e8a951" stroke-width="0.8" opacity="0.6"/>
        <path d="M 36 24 L 18 24" stroke="#e8a951" stroke-width="0.8" opacity="0.6"/>
        <circle cx="0" cy="24" r="18" fill="#e8a951" opacity="0.12"/>
      </g>
      <text x="875" y="258" text-anchor="middle" class="fn-caption">pus · redness · infiltrate</text>

      <!-- Scene 4: Infection site POST-CHEMO (bottom) -->
      <g transform="translate(875 320)">
        <text x="-75" y="-8" class="fn-label-bad">POST-CHEMO</text>
        <rect x="-75" y="0" width="150" height="48" rx="8"
              fill="#d14859" opacity="0.06" stroke="#d14859" stroke-width="1" stroke-dasharray="3 3"/>
        <g transform="translate(-52 18)"><use href="#fnBacteria"/></g>
        <g transform="translate(-32 30)"><use href="#fnBacteria"/></g>
        <g transform="translate(-14 20)"><use href="#fnBacteria"/></g>
        <g transform="translate(4 32)"><use href="#fnBacteria"/></g>
        <g transform="translate(22 20)"><use href="#fnBacteria"/></g>
        <g transform="translate(40 30)"><use href="#fnBacteria"/></g>
        <g transform="translate(56 18)"><use href="#fnBacteria"/></g>
      </g>
      <text x="875" y="398" text-anchor="middle" class="fn-caption">no pus · no redness</text>
      <text x="875" y="430" text-anchor="middle" class="fn-caption">infection looks almost</text>
      <text x="875" y="444" text-anchor="middle" class="fn-caption">invisible</text>

      <!-- Arrow 1→2: curved path from drug 3 to the bone marrow -->
      <g>
        <path d="M 145 334 C 190 336, 230 348, 265 352"
              stroke="#e8a951" stroke-width="1.3" fill="none" marker-end="url(#fnArrow)"/>
        <text x="205" y="320" text-anchor="middle" class="fn-arrow-label">HITS DIVIDING</text>
        <text x="205" y="332" text-anchor="middle" class="fn-arrow-label">CELLS</text>
      </g>

      <!-- Arrow 2→3 -->
      <g transform="translate(482 350)">
        <path d="M 0 0 L 36 0" stroke="#e8a951" stroke-width="1.3" marker-end="url(#fnArrow)"/>
        <text x="18" y="-22" text-anchor="middle" class="fn-arrow-label">EMPTY</text>
        <text x="18" y="-10" text-anchor="middle" class="fn-arrow-label">PIPELINE</text>
      </g>

      <!-- Arrow 3→4 -->
      <g transform="translate(732 350)">
        <path d="M 0 0 L 36 0" stroke="#e8a951" stroke-width="1.3" marker-end="url(#fnArrow)"/>
        <text x="18" y="-22" text-anchor="middle" class="fn-arrow-label">NO DEFENDERS</text>
        <text x="18" y="-10" text-anchor="middle" class="fn-arrow-label">ARRIVE</text>
      </g>

      <!-- Takeaway band -->
      <g transform="translate(0 500)">
        <line x1="40" y1="0" x2="960" y2="0" stroke="#222c3e" stroke-width="1"/>
        <g transform="translate(40 30)">
          <text x="0" y="0" class="fn-col-label">THE DANGER</text>
          <text x="0" y="24" class="fn-anatomy">Fever may be the only sign.</text>
          <text x="0" y="44" class="fn-caption">
            With no neutrophils to produce inflammation, a raging infection can look like a nearly normal patient.
          </text>
          <text x="0" y="60" class="fn-caption">
            <tspan fill="#e8a951" font-weight="700">Empiric broad-spectrum antibiotics start immediately</tspan>
            — waiting for cultures is too slow.
          </text>
        </g>
      </g>
    </svg>
