<?xml version="1.0" encoding="UTF-8"?>
<!--
  Auto-generated from the reference HTML by
  scripts/storymode-extraction/extract.mjs.
  Do not edit by hand — regenerate the file instead.
-->
<svg xmlns="http://www.w3.org/2000/svg" xmlns:xlink="http://www.w3.org/1999/xlink" viewBox="0 0 500 260" preserveAspectRatio="xMidYMid meet">
                  <line x1="0" y1="180" x2="500" y2="180" stroke="#4fb8a8" stroke-width="2.5" opacity="0.7"/>
                  <text x="20" y="40" style="fill:#e8a951;font:600 10px Inter,sans-serif;letter-spacing:2px">NEXT STATION → FIRM ARREST</text>
                  <text x="20" y="200" style="fill:#6b7689;font:10px Inter,sans-serif;letter-spacing:1.5px">ENDOTHELIUM</text>
                  <g transform="translate(140 155)">
                    <circle cx="0" cy="0" r="15" fill="#e8a951" opacity="0.35" stroke="#a87b3c"/>
                    <circle cx="-3" cy="-2" r="3" fill="#4a2d60" opacity="0.4"/>
                    <circle cx="3" cy="2" r="3" fill="#4a2d60" opacity="0.4"/>
                    <text x="0" y="35" text-anchor="middle" style="fill:#6b7689;font:italic 10px Inter,sans-serif">rolling (still moving)</text>
                    <polygon points="22,-6 34,0 22,6" fill="#6b7689" opacity="0.5"/>
                  </g>
                  <g transform="translate(350 155)">
                    <circle cx="0" cy="0" r="15" fill="#e8a951" opacity="0.9" stroke="#a87b3c" stroke-width="1.3"/>
                    <circle cx="-3" cy="-2" r="3" fill="#4a2d60"/>
                    <circle cx="3" cy="2" r="3" fill="#4a2d60"/>
                    <path d="M -8 14 L -8 22 M 8 14 L 8 22" stroke="#4fb8a8" stroke-width="3" stroke-linecap="round"/>
                    <rect x="-16" y="22" width="32" height="4" fill="#4fb8a8" opacity="0.9"/>
                    <text x="0" y="45" text-anchor="middle" style="fill:#e8a951;font:italic 700 11px Inter,sans-serif">locked in place</text>
                  </g>
                  <g transform="translate(250 145)">
                    <line x1="-55" y1="0" x2="60" y2="0" stroke="#e8a951" stroke-width="1.5" stroke-dasharray="4 3"/>
                    <polygon points="66,0 58,-5 58,5" fill="#e8a951"/>
                    <text x="0" y="-10" text-anchor="middle" style="fill:#e8a951;font:600 10px Inter,sans-serif;letter-spacing:1.5px">STRONGER GRIP</text>
                  </g>
                  <text x="250" y="248" text-anchor="middle" style="fill:#b4becf;font:italic 11px Inter,sans-serif">integrins + ICAM-1 — the firm arrest molecules</text>
                </svg>
