<?xml version="1.0" encoding="UTF-8"?>
<!--
  Auto-generated from the reference HTML by
  scripts/storymode-extraction/extract.mjs.
  Do not edit by hand — regenerate the file instead.
-->
<svg xmlns="http://www.w3.org/2000/svg" xmlns:xlink="http://www.w3.org/1999/xlink" viewBox="0 0 500 260" preserveAspectRatio="xMidYMid meet">
                  <g transform="translate(95 145)">
                    <g opacity="0.3">
                      <path d="M -50 -25 Q -60 0 -50 25 Q -30 40 0 40 Q 30 40 50 25 Q 60 0 50 -25 Q 30 -40 0 -40 Q -30 -40 -50 -25 Z" fill="none" stroke="#6b7689" stroke-width="2" stroke-dasharray="4 3"/>
                    </g>
                    <path d="M -32 -22 L 32 22 M 32 -22 L -32 22" stroke="#d14859" stroke-width="3"/>
                    <text x="0" y="58" text-anchor="middle" style="fill:#d14859;font:700 10px Inter,sans-serif;letter-spacing:1px">NO A1AT</text>
                  </g>
                  <g transform="translate(250 105)">
                    <path d="M -18 -10 Q -12 -15 -3 -14 Q 5 -17 13 -14 Q 18 -9 18 0 Q 18 9 10 14 Q 0 16 -8 14 Q -17 10 -18 0 Q -18 -6 -18 -10" fill="#d14859" opacity="0.95" stroke="#a33648" stroke-width="1.3"/>
                  </g>
                  <g transform="translate(195 175)">
                    <path d="M -18 -10 Q -12 -15 -3 -14 Q 5 -17 13 -14 Q 18 -9 18 0 Q 18 9 10 14 Q 0 16 -8 14 Q -17 10 -18 0 Q -18 -6 -18 -10" fill="#d14859" opacity="0.95" stroke="#a33648" stroke-width="1.3"/>
                  </g>
                  <g transform="translate(310 180)">
                    <path d="M -18 -10 Q -12 -15 -3 -14 Q 5 -17 13 -14 Q 18 -9 18 0 Q 18 9 10 14 Q 0 16 -8 14 Q -17 10 -18 0 Q -18 -6 -18 -10" fill="#d14859" opacity="0.95" stroke="#a33648" stroke-width="1.3"/>
                  </g>
                  <g transform="translate(260 215)">
                    <path d="M -18 -10 Q -12 -15 -3 -14 Q 5 -17 13 -14 Q 18 -9 18 0 Q 18 9 10 14 Q 0 16 -8 14 Q -17 10 -18 0 Q -18 -6 -18 -10" fill="#d14859" opacity="0.95" stroke="#a33648" stroke-width="1.3"/>
                  </g>
                  <g transform="translate(430 145)">
                    <g stroke="#d14859" stroke-width="3" fill="none">
                      <path d="M -40 -30 L -20 -10 L -35 -5"/>
                      <path d="M -10 -25 L 10 -5 L -5 0"/>
                      <path d="M 15 -20 L 35 0 L 20 5"/>
                      <path d="M -30 10 L -10 30 L -25 35"/>
                      <path d="M 5 15 L 25 35 L 10 40"/>
                    </g>
                    <text x="0" y="60" text-anchor="middle" style="fill:#d14859;font:700 10px Inter,sans-serif;letter-spacing:1px">tissue torn</text>
                  </g>
                  <g stroke="#d14859" stroke-width="1.3" fill="none" stroke-dasharray="3 2" opacity="0.5">
                    <path d="M 150 140 Q 200 120 235 115"/>
                    <path d="M 150 155 Q 180 170 185 175"/>
                    <path d="M 275 105 Q 340 135 400 145"/>
                    <path d="M 215 180 Q 320 200 405 155"/>
                  </g>
                </svg>
