<?xml version="1.0" encoding="UTF-8"?>
<!--
  Auto-generated from the reference HTML by
  scripts/storymode-extraction/extract.mjs.
  Do not edit by hand — regenerate the file instead.
-->
<svg xmlns="http://www.w3.org/2000/svg" xmlns:xlink="http://www.w3.org/1999/xlink" viewBox="0 0 500 260" preserveAspectRatio="xMidYMid meet">
                  <g transform="translate(110 145)">
                    <path d="M -22 -14 Q -15 -20 -5 -18 Q 5 -22 15 -18 Q 22 -12 22 0 Q 22 12 12 18 Q 0 20 -10 18 Q -20 14 -22 0 Q -22 -8 -22 -14" fill="#d14859" opacity="0.85" stroke="#a33648" stroke-width="1.5"/>
                    <path d="M 22 -4 L 18 -2 L 28 0 L 18 2 L 22 4 L 32 0 L 22 -4 Z" fill="#d14859" opacity="0.85" stroke="#a33648" stroke-width="1"/>
                    <text x="0" y="40" text-anchor="middle" style="fill:#d14859;font:700 11px Inter,sans-serif;letter-spacing:1px">ELASTASE</text>
                  </g>
                  <g transform="translate(250 145)">
                    <g stroke="#4fb8a8" stroke-width="3" fill="none" opacity="0.85">
                      <path d="M -90 0 Q -80 -14 -60 -10"/>
                      <path d="M -60 -10 Q -40 -16 -20 -8"/>
                      <path d="M -20 -8 Q 0 -14 20 -6"/>
                      <path d="M 20 -6 Q 40 -12 60 -4"/>
                      <path d="M 60 -4 Q 80 -10 100 0"/>
                      <path d="M -90 0 Q -80 12 -60 8"/>
                      <path d="M -60 8 Q -40 14 -20 6"/>
                      <path d="M -20 6 Q 0 12 20 4"/>
                      <path d="M 20 4 Q 40 10 60 2"/>
                      <path d="M 60 2 Q 80 8 100 0"/>
                    </g>
                    <g transform="translate(-10 0)">
                      <path d="M -8 -12 L 0 -2 L -8 8" stroke="#d14859" stroke-width="3" fill="none" stroke-linecap="round"/>
                      <path d="M 8 -12 L 0 -2 L 8 8" stroke="#d14859" stroke-width="3" fill="none" stroke-linecap="round"/>
                    </g>
                    <text x="0" y="40" text-anchor="middle" style="fill:#4fb8a8;font:700 11px Inter,sans-serif;letter-spacing:1px">ELASTIN</text>
                  </g>
                  <g transform="translate(410 145)">
                    <g stroke="#4fb8a8" stroke-width="3" fill="none" opacity="0.6">
                      <path d="M -25 -8 L -5 -12"/>
                      <path d="M 5 -10 L 25 -4"/>
                      <path d="M -25 4 L -5 8"/>
                      <path d="M 5 6 L 25 12"/>
                    </g>
                    <text x="0" y="40" text-anchor="middle" style="fill:#6b7689;font:italic 700 10px Inter,sans-serif">cut fragments</text>
                  </g>
                </svg>
