<?xml version="1.0" encoding="UTF-8"?>
<!--
  Auto-generated from the reference HTML by
  scripts/storymode-extraction/extract.mjs.
  Do not edit by hand — regenerate the file instead.
-->
<svg xmlns="http://www.w3.org/2000/svg" xmlns:xlink="http://www.w3.org/1999/xlink" viewBox="0 0 500 260" preserveAspectRatio="xMidYMid meet">
                  <g transform="translate(120 145)">
                    <path d="M -55 -30 Q -65 -8 -55 20 Q -35 40 0 42 Q 35 42 55 25 Q 65 5 55 -25 Q 40 -42 5 -45 Q -30 -45 -55 -30" fill="#d14859" opacity="0.3" stroke="#d14859" stroke-width="1.5"/>
                    <g fill="#e8a951" opacity="0.75">
                      <rect x="-40" y="-15" width="12" height="8" rx="2"/>
                      <rect x="-20" y="-5" width="12" height="8" rx="2"/>
                      <rect x="0" y="10" width="12" height="8" rx="2"/>
                      <rect x="-30" y="15" width="12" height="8" rx="2"/>
                      <rect x="20" y="-10" width="12" height="8" rx="2"/>
                      <rect x="30" y="15" width="12" height="8" rx="2"/>
                      <rect x="-10" y="-20" width="12" height="8" rx="2"/>
                      <rect x="15" y="-25" width="12" height="8" rx="2"/>
                    </g>
                    <text x="0" y="62" text-anchor="middle" style="fill:#b4becf;font:italic 9px Inter,sans-serif">held in spleen</text>
                  </g>
                  <g transform="translate(370 145)">
                    <rect x="-80" y="-10" width="160" height="20" rx="10" fill="#111826" stroke="#4fb8a8" stroke-width="1.3"/>
                    <g fill="#e8a951" opacity="0.95">
                      <rect x="-70" y="-5" width="10" height="6" rx="1"/>
                      <rect x="-55" y="-3" width="10" height="6" rx="1"/>
                      <rect x="-40" y="-5" width="10" height="6" rx="1"/>
                      <rect x="-25" y="-3" width="10" height="6" rx="1"/>
                      <rect x="-10" y="-5" width="10" height="6" rx="1"/>
                      <rect x="5" y="-3" width="10" height="6" rx="1"/>
                      <rect x="20" y="-5" width="10" height="6" rx="1"/>
                      <rect x="35" y="-3" width="10" height="6" rx="1"/>
                      <rect x="50" y="-5" width="10" height="6" rx="1"/>
                      <rect x="63" y="-3" width="10" height="6" rx="1"/>
                    </g>
                    <text x="0" y="40" text-anchor="middle" style="fill:#4fb8a8;font:italic 700 9px Inter,sans-serif">flood of platelets</text>
                    <g transform="translate(0 -25)">
                      <line x1="-5" y1="0" x2="5" y2="0" stroke="#e8a951" stroke-width="3"/>
                      <line x1="0" y1="-5" x2="0" y2="5" stroke="#e8a951" stroke-width="3"/>
                    </g>
                  </g>
                  <g stroke="#6b7689" stroke-width="1" fill="none" stroke-dasharray="3 2">
                    <line x1="180" y1="145" x2="290" y2="145"/>
                    <polygon points="293,145 285,141 285,149" fill="#6b7689"/>
                    <text x="237" y="135" text-anchor="middle" style="fill:#6b7689;font:italic 9px Inter,sans-serif">splenectomy</text>
                  </g>
                </svg>
