<?xml version="1.0" encoding="UTF-8"?>
<!--
  Auto-generated from the reference HTML by
  scripts/storymode-extraction/extract.mjs.
  Do not edit by hand — regenerate the file instead.
-->
<svg xmlns="http://www.w3.org/2000/svg" xmlns:xlink="http://www.w3.org/1999/xlink" viewBox="0 0 500 260" preserveAspectRatio="xMidYMid meet">
                  <g transform="translate(80 145)">
                    <circle r="32" fill="#9370b9" opacity="0.7" stroke="#7a4a9e" stroke-width="1.5"/>
                    <circle cx="-8" cy="-6" r="4" fill="#4a2d60"/>
                    <circle cx="8" cy="8" r="3" fill="#4a2d60"/>
                    <path d="M 30 -15 Q 42 -18 52 -12 M 30 15 Q 42 18 52 12 M 34 0 L 50 0" stroke="#e8a951" stroke-width="1.3" fill="none" stroke-dasharray="2 2" opacity="0.5"/>
                  </g>
                  <g fill="#e8a951" opacity="0.9">
                    <circle cx="150" cy="130" r="4"/>
                    <circle cx="165" cy="145" r="4"/>
                    <circle cx="178" cy="132" r="4"/>
                    <circle cx="155" cy="160" r="4"/>
                    <circle cx="190" cy="150" r="4"/>
                    <circle cx="175" cy="162" r="3"/>
                  </g>
                  <g transform="translate(250 145)">
                    <ellipse cx="0" cy="0" rx="35" ry="18" fill="#e8a8a0" opacity="0.7" stroke="#c88a80" stroke-width="1.5"/>
                    <circle cx="0" cy="0" r="6" fill="#4a2d60"/>
                    <path d="M -35 -3 L -50 -10 M 35 -3 L 50 -10 M -35 3 L -50 10 M 35 3 L 50 10" stroke="#e8a8a0" stroke-width="2" stroke-linecap="round" opacity="0.7"/>
                  </g>
                  <g stroke="#e8a951" stroke-width="2" fill="none" opacity="0.75">
                    <path d="M 310 130 L 335 128 M 315 140 L 345 137 M 315 150 L 345 152 M 310 160 L 335 163"/>
                  </g>
                  <g transform="translate(420 145)">
                    <g stroke="#e8a951" stroke-width="2.5" fill="none" opacity="0.9">
                      <line x1="-40" y1="-30" x2="40" y2="-30"/>
                      <line x1="-40" y1="-15" x2="40" y2="-15"/>
                      <line x1="-40" y1="0" x2="40" y2="0"/>
                      <line x1="-40" y1="15" x2="40" y2="15"/>
                      <line x1="-40" y1="30" x2="40" y2="30"/>
                    </g>
                    <g stroke="#e8a951" stroke-width="1" fill="none" opacity="0.5">
                      <line x1="-30" y1="-30" x2="-30" y2="30"/>
                      <line x1="0" y1="-30" x2="0" y2="30"/>
                      <line x1="30" y1="-30" x2="30" y2="30"/>
                    </g>
                    <text x="0" y="52" text-anchor="middle" style="fill:#e8a951;font:700 10px Inter,sans-serif;letter-spacing:1.5px">COLLAGEN SCAR</text>
                  </g>
                </svg>
