<?xml version="1.0" encoding="UTF-8"?>
<!--
  Auto-generated from the reference HTML by
  scripts/storymode-extraction/extract.mjs.
  Do not edit by hand — regenerate the file instead.
-->
<svg xmlns="http://www.w3.org/2000/svg" xmlns:xlink="http://www.w3.org/1999/xlink" viewBox="0 0 500 260" preserveAspectRatio="xMidYMid meet">
                  <text x="20" y="24" style="fill:#e8a951;font:600 10px Inter,sans-serif;letter-spacing:2px">GAS GANGRENE — CLINICAL HALLMARKS</text>

                  <!-- TL: DEEP PUNCTURE -->
                  <g transform="translate(125 85)">
                    <rect x="-95" y="-30" width="190" height="60" rx="8" fill="#111826" stroke="#d14859" stroke-width="1.2"/>
                    <!-- Icon: skin + deep wound channel -->
                    <g transform="translate(-65 0)">
                      <rect x="-22" y="-16" width="44" height="4" fill="#e8a8a0" opacity="0.85"/>
                      <rect x="-22" y="-9" width="44" height="22" fill="#d14859" opacity="0.14"/>
                      <path d="M -3 -16 L -3 14 L 3 14 L 3 -16 Z" fill="#8a2838" opacity="0.95"/>
                      <g fill="none" stroke="#4fb8a8" stroke-width="0.9" opacity="0.75">
                        <circle cx="-10" cy="9" r="1.6"/>
                        <circle cx="11" cy="7" r="1.6"/>
                        <circle cx="-13" cy="3" r="1.2"/>
                      </g>
                    </g>
                    <text x="25" y="-6" text-anchor="middle" style="fill:#d14859;font:800 11px Inter,sans-serif;letter-spacing:1px">DEEP PUNCTURE</text>
                    <text x="25" y="9" text-anchor="middle" style="fill:#b4becf;font:italic 9px Inter,sans-serif">anaerobic environment</text>
                  </g>

                  <!-- TR: RAPID SWELLING -->
                  <g transform="translate(375 85)">
                    <rect x="-95" y="-30" width="190" height="60" rx="8" fill="#111826" stroke="#d14859" stroke-width="1.2"/>
                    <g transform="translate(-65 0)">
                      <!-- Normal limb (dashed, smaller) -->
                      <rect x="-9" y="-12" width="18" height="24" rx="2" fill="none" stroke="#6b7689" stroke-width="0.8" stroke-dasharray="2 2" opacity="0.7"/>
                      <!-- Swollen limb (pink, bulging) -->
                      <path d="M -15 -15 Q -20 0 -15 15 L 15 15 Q 20 0 15 -15 Z" fill="#d14859" opacity="0.32" stroke="#d14859" stroke-width="1.2"/>
                      <!-- Expansion arrows -->
                      <g stroke="#d14859" fill="#d14859" stroke-width="1.2">
                        <line x1="-19" y1="0" x2="-26" y2="0"/>
                        <polygon points="-29,0 -24,-3 -24,3"/>
                        <line x1="19" y1="0" x2="26" y2="0"/>
                        <polygon points="29,0 24,-3 24,3"/>
                      </g>
                    </g>
                    <text x="25" y="-6" text-anchor="middle" style="fill:#d14859;font:800 11px Inter,sans-serif;letter-spacing:1px">RAPID SWELLING</text>
                    <text x="25" y="9" text-anchor="middle" style="fill:#b4becf;font:italic 9px Inter,sans-serif">hours, not days</text>
                  </g>

                  <!-- BL: CREPITUS -->
                  <g transform="translate(125 155)">
                    <rect x="-95" y="-30" width="190" height="60" rx="8" fill="#111826" stroke="#d14859" stroke-width="1.2"/>
                    <g transform="translate(-65 0)">
                      <!-- Skin line -->
                      <path d="M -22 -12 Q -10 -14 0 -12 Q 10 -10 22 -12" stroke="#e8a8a0" stroke-width="2.2" fill="none"/>
                      <!-- Subcutaneous region -->
                      <rect x="-22" y="-8" width="44" height="22" fill="#e8a8a0" opacity="0.12"/>
                      <!-- Gas bubbles -->
                      <g fill="none" stroke="#4fb8a8" stroke-width="1.3" opacity="0.92">
                        <circle cx="-15" cy="-2" r="3"/>
                        <circle cx="-4" cy="5" r="3.5"/>
                        <circle cx="7" cy="-1" r="3"/>
                        <circle cx="15" cy="7" r="3"/>
                        <circle cx="1" cy="-5" r="2"/>
                      </g>
                    </g>
                    <text x="25" y="-6" text-anchor="middle" style="fill:#d14859;font:800 11px Inter,sans-serif;letter-spacing:1px">CREPITUS</text>
                    <text x="25" y="9" text-anchor="middle" style="fill:#b4becf;font:italic 9px Inter,sans-serif">gas palpable in tissue</text>
                  </g>

                  <!-- BR: MYONECROSIS -->
                  <g transform="translate(375 155)">
                    <rect x="-95" y="-30" width="190" height="60" rx="8" fill="#111826" stroke="#d14859" stroke-width="1.2"/>
                    <g transform="translate(-65 0)">
                      <!-- Muscle fibers (gradation from alive to dead) -->
                      <g stroke-width="2.2" fill="none">
                        <path d="M -22 -11 L 22 -11" stroke="#d14859"/>
                        <path d="M -22 -3 L 22 -3" stroke="#8a2838" stroke-dasharray="3 1"/>
                        <path d="M -22 5 L 22 5" stroke="#4a2d60" stroke-dasharray="2 2"/>
                        <path d="M -22 13 L 22 13" stroke="#6b7689" stroke-dasharray="1 3" opacity="0.6"/>
                      </g>
                      <!-- Striation (perpendicular lines) -->
                      <g stroke="#6b7689" stroke-width="0.5" opacity="0.45">
                        <line x1="-14" y1="-14" x2="-14" y2="16"/>
                        <line x1="0" y1="-14" x2="0" y2="16"/>
                        <line x1="14" y1="-14" x2="14" y2="16"/>
                      </g>
                    </g>
                    <text x="25" y="-6" text-anchor="middle" style="fill:#d14859;font:800 11px Inter,sans-serif;letter-spacing:1px">MYONECROSIS</text>
                    <text x="25" y="9" text-anchor="middle" style="fill:#b4becf;font:italic 9px Inter,sans-serif">muscle literally dying</text>
                  </g>

                  <!-- Bottom: TREATMENT banner with icons -->
                  <g transform="translate(250 223)">
                    <rect x="-135" y="-15" width="270" height="30" rx="15" fill="#e8a951" opacity="0.22" stroke="#e8a951" stroke-width="1.5"/>
                    <!-- Scalpel (left) -->
                    <g transform="translate(-112 0)">
                      <rect x="-8" y="-1.5" width="9" height="3" rx="1" fill="#a87b3c"/>
                      <path d="M 1 -2.5 L 11 -2.5 L 13 0 L 11 2 L 1 2 Z" fill="#e8ecf3" stroke="#a87b3c" stroke-width="0.5"/>
                    </g>
                    <!-- Pill (right) -->
                    <g transform="translate(105 0)">
                      <ellipse rx="10" ry="5" fill="#e8a951" opacity="0.92" stroke="#a87b3c" stroke-width="0.8"/>
                      <line x1="0" y1="-4.5" x2="0" y2="4.5" stroke="#a87b3c" stroke-width="0.8"/>
                    </g>
                    <text x="-5" y="4" text-anchor="middle" style="fill:#e8a951;font:800 11px Inter,sans-serif;letter-spacing:1.5px">DEBRIDEMENT + PCN</text>
                  </g>
                </svg>
