<?xml version="1.0" encoding="UTF-8"?>
<!--
  Auto-generated from the reference HTML by
  scripts/storymode-extraction/extract.mjs.
  Do not edit by hand — regenerate the file instead.
-->
<svg xmlns="http://www.w3.org/2000/svg" xmlns:xlink="http://www.w3.org/1999/xlink" viewBox="0 0 500 260" preserveAspectRatio="xMidYMid meet">
                  <g transform="translate(120 145)">
                    <path d="M -55 -30 Q -68 -8 -60 20 Q -40 40 0 45 Q 40 42 55 25 Q 68 0 58 -28 Q 45 -45 10 -47 Q -30 -47 -55 -30" fill="#6b7689" opacity="0.22" stroke="#6b7689" stroke-width="1.3" stroke-dasharray="3 2"/>
                    <line x1="-55" y1="-40" x2="60" y2="40" stroke="#d14859" stroke-width="3"/>
                    <line x1="60" y1="-40" x2="-55" y2="40" stroke="#d14859" stroke-width="3"/>
                    <text x="0" y="68" text-anchor="middle" style="fill:#d14859;font:700 10px Inter,sans-serif;letter-spacing:1px">SPLEEN FAIL</text>
                  </g>
                  <g transform="translate(370 145)">
                    <circle cx="-55" cy="-15" r="16" fill="#d14859" opacity="0.55" stroke="#a33648" stroke-width="1.3"/>
                    <circle cx="-55" cy="-15" r="4" fill="#4a2d60"/>
                    <circle cx="-20" cy="-25" r="16" fill="#d14859" opacity="0.55" stroke="#a33648" stroke-width="1.3"/>
                    <circle cx="-23" cy="-28" r="4" fill="#4a2d60"/>
                    <circle cx="15" cy="-10" r="16" fill="#d14859" opacity="0.55" stroke="#a33648" stroke-width="1.3"/>
                    <circle cx="12" cy="-12" r="4" fill="#4a2d60"/>
                    <circle cx="-40" cy="20" r="16" fill="#d14859" opacity="0.55" stroke="#a33648" stroke-width="1.3"/>
                    <circle cx="-42" cy="18" r="4" fill="#4a2d60"/>
                    <circle cx="-5" cy="25" r="16" fill="#d14859" opacity="0.55" stroke="#a33648" stroke-width="1.3"/>
                    <circle cx="30" cy="25" r="16" fill="#d14859" opacity="0.55" stroke="#a33648" stroke-width="1.3"/>
                    <circle cx="27" cy="22" r="4" fill="#4a2d60"/>
                  </g>
                  <g stroke="#d14859" stroke-width="1.5" fill="none" stroke-dasharray="3 2">
                    <line x1="190" y1="145" x2="260" y2="145"/>
                    <polygon points="265,145 257,141 257,149" fill="#d14859"/>
                  </g>
                  <text x="250" y="230" text-anchor="middle" style="fill:#d14859;font:italic 700 10px Inter,sans-serif">H-J bodies everywhere</text>
                </svg>
