<?xml version="1.0" encoding="UTF-8"?>
<!--
  Auto-generated from the reference HTML by
  scripts/storymode-extraction/extract.mjs.
  Do not edit by hand — regenerate the file instead.
-->
<svg xmlns="http://www.w3.org/2000/svg" xmlns:xlink="http://www.w3.org/1999/xlink" viewBox="0 0 500 260" preserveAspectRatio="xMidYMid meet">
                  <g transform="translate(130 130)">
                    <path d="M -25 -35 Q -35 -15 -30 10 Q -20 28 -10 40 Q 0 50 10 40 Q 20 28 30 10 Q 35 -15 25 -35 Q 0 -45 -25 -35" fill="#e8a8a0" opacity="0.5" stroke="#c88a80" stroke-width="1.3"/>
                    <ellipse cx="-10" cy="8" rx="5" ry="4" fill="#0a0e1a"/>
                    <ellipse cx="10" cy="8" rx="5" ry="4" fill="#0a0e1a"/>
                    <g fill="#d14859" opacity="0.9">
                      <circle cx="-8" cy="3" r="2"/>
                      <circle cx="-6" cy="5" r="2"/>
                      <circle cx="8" cy="3" r="2"/>
                      <circle cx="6" cy="5" r="2"/>
                    </g>
                    <path d="M 30 -10 Q 50 -15 60 -20" stroke="#4fb8a8" stroke-width="1.5" stroke-dasharray="2 2" opacity="0.6"/>
                    <text x="0" y="64" text-anchor="middle" style="fill:#b4becf;font:italic 9px Inter,sans-serif">sniffle, sore throat</text>
                  </g>
                  <g transform="translate(380 145)">
                    <rect x="-50" y="-20" width="100" height="40" rx="20" fill="#d14859" opacity="0.3" stroke="#d14859" stroke-width="1.5"/>
                    <g fill="#d14859" opacity="0.95">
                      <circle cx="-25" cy="0" r="3"/>
                      <circle cx="-10" cy="-3" r="3"/>
                      <circle cx="5" cy="2" r="3"/>
                      <circle cx="20" cy="-2" r="3"/>
                      <circle cx="30" cy="3" r="3"/>
                    </g>
                    <text x="0" y="40" text-anchor="middle" style="fill:#d14859;font:italic 700 9px Inter,sans-serif">bloodstream</text>
                  </g>
                  <g stroke="#d14859" stroke-width="2" fill="none" stroke-dasharray="3 2">
                    <path d="M 175 140 Q 250 130 325 140"/>
                    <polygon points="330,140 322,135 322,145" fill="#d14859"/>
                  </g>
                </svg>
