<?xml version="1.0" encoding="UTF-8"?>
<!--
  Auto-generated from the reference HTML by
  scripts/storymode-extraction/extract.mjs.
  Do not edit by hand — regenerate the file instead.
-->
<svg xmlns="http://www.w3.org/2000/svg" xmlns:xlink="http://www.w3.org/1999/xlink" viewBox="0 0 500 260" preserveAspectRatio="xMidYMid meet">
                  <text x="20" y="22" style="fill:#e8a951;font:600 10px Inter,sans-serif;letter-spacing:2px">FAMILY OF TLRs — ONE STANDS OUT</text>
                  <line x1="0" y1="170" x2="500" y2="170" stroke="#4fb8a8" stroke-width="2" opacity="0.45"/>
                  <text x="20" y="195" style="fill:#6b7689;font:10px Inter,sans-serif;letter-spacing:1.5px">CELL MEMBRANE</text>
                  <g transform="translate(110 135)" opacity="0.45">
                    <path d="M -14 0 Q -16 -26 -8 -40 Q 0 -48 8 -40 Q 16 -26 14 0" stroke="#6b7689" stroke-width="2" fill="none"/>
                    <line x1="0" y1="0" x2="0" y2="35" stroke="#6b7689" stroke-width="2"/>
                    <text x="0" y="-52" text-anchor="middle" style="fill:#6b7689;font:600 10px Inter,sans-serif">TLR2</text>
                  </g>
                  <g transform="translate(400 135)" opacity="0.45">
                    <path d="M -14 0 Q -16 -26 -8 -40 Q 0 -48 8 -40 Q 16 -26 14 0" stroke="#6b7689" stroke-width="2" fill="none"/>
                    <line x1="0" y1="0" x2="0" y2="35" stroke="#6b7689" stroke-width="2"/>
                    <text x="0" y="-52" text-anchor="middle" style="fill:#6b7689;font:600 10px Inter,sans-serif">TLR9</text>
                  </g>
                  <g transform="translate(255 135)">
                    <circle cx="0" cy="-22" r="60" fill="#e8a951" opacity="0.1"/>
                    <circle cx="0" cy="-22" r="42" fill="#e8a951" opacity="0.06"/>
                    <path d="M -22 0 Q -24 -38 -13 -58 Q 0 -70 13 -58 Q 24 -38 22 0" stroke="#e8a951" stroke-width="3.5" fill="none"/>
                    <path d="M -18 -10 Q -21 -33 -11 -48" stroke="#e8a951" stroke-width="1.2" fill="none"/>
                    <path d="M 18 -10 Q 21 -33 11 -48" stroke="#e8a951" stroke-width="1.2" fill="none"/>
                    <line x1="0" y1="0" x2="0" y2="35" stroke="#e8a951" stroke-width="3"/>
                    <ellipse cx="0" cy="43" rx="11" ry="7.5" stroke="#e8a951" stroke-width="2" fill="#e8a951" opacity="0.35"/>
                    <text x="0" y="-82" text-anchor="middle" style="fill:#e8a951;font:700 22px Inter,sans-serif;letter-spacing:2px">TLR4</text>
                    <g transform="translate(48 -84)">
                      <polygon points="0,-9 2.6,-2.8 9,-2.8 3.9,1.1 5.8,7.2 0,3.6 -5.8,7.2 -3.9,1.1 -9,-2.8 -2.6,-2.8" fill="#e8a951"/>
                    </g>
                  </g>
                  <g transform="translate(250 220)">
                    <rect x="-75" y="-12" width="150" height="24" rx="12" fill="#e8a951"/>
                    <text x="0" y="5" text-anchor="middle" style="fill:#0a0e1a;font:700 10px Inter,sans-serif;letter-spacing:2px">EXAM FOCUS</text>
                  </g>
                </svg>
