<?xml version="1.0" encoding="UTF-8"?>
<!--
  Auto-generated from the reference HTML by
  scripts/storymode-extraction/extract.mjs.
  Do not edit by hand — regenerate the file instead.
-->
<svg xmlns="http://www.w3.org/2000/svg" xmlns:xlink="http://www.w3.org/1999/xlink" viewBox="0 0 500 260" preserveAspectRatio="xMidYMid meet">
                  <text x="20" y="24" style="fill:#e8a951;font:600 10px Inter,sans-serif;letter-spacing:2px">ZOOM: ACTIN FILAMENTS PUSH FROM WITHIN</text>

                  <!-- Neutrophil with two pseudopods extending to the right -->
                  <path d="M 80 82 Q 30 92 30 145 Q 30 202 85 208 L 135 208 Q 150 208 156 200 Q 200 202 260 204 Q 330 205 362 198 Q 378 192 378 183 Q 382 172 370 167 Q 335 165 295 165 Q 235 164 180 163 Q 156 163 156 152 L 156 138 Q 156 127 180 127 Q 235 126 295 125 Q 335 125 370 123 Q 382 118 378 107 Q 378 97 362 92 Q 330 85 260 85 Q 200 88 156 92 Q 150 82 135 82 L 80 82 Z"
                        fill="#e8a951" opacity="0.22" stroke="#a87b3c" stroke-width="1.7" stroke-linejoin="round"/>

                  <!-- Neutrophil nucleus lobes (purple) inside cell body -->
                  <g fill="#4a2d60" opacity="0.55">
                    <ellipse cx="65" cy="120" rx="11" ry="8"/>
                    <ellipse cx="88" cy="155" rx="11" ry="8"/>
                    <ellipse cx="63" cy="178" rx="9" ry="7"/>
                  </g>
                  <text x="77" y="145" text-anchor="middle" style="fill:#6b7689;font:italic 8px Inter,sans-serif">cell body</text>

                  <!-- Upper pseudopod actin filaments (2 parallel chains) -->
                  <line x1="170" y1="102" x2="350" y2="102" stroke="#e8a951" stroke-width="1" opacity="0.5"/><g><circle cx="170" cy="102" r="3.3" fill="#e8a951"/><circle cx="185" cy="102" r="3.3" fill="#e8a951"/><circle cx="200" cy="102" r="3.3" fill="#e8a951"/><circle cx="215" cy="102" r="3.3" fill="#e8a951"/><circle cx="230" cy="102" r="3.3" fill="#e8a951"/><circle cx="245" cy="102" r="3.3" fill="#e8a951"/><circle cx="260" cy="102" r="3.3" fill="#e8a951"/><circle cx="275" cy="102" r="3.3" fill="#e8a951"/><circle cx="290" cy="102" r="3.3" fill="#e8a951"/><circle cx="305" cy="102" r="3.3" fill="#e8a951"/><circle cx="320" cy="102" r="3.3" fill="#e8a951"/><circle cx="335" cy="102" r="3.3" fill="#e8a951"/><circle cx="350" cy="102" r="3.3" fill="#e8a951"/></g><circle cx="363" cy="102" r="2.6" fill="#e8a951" opacity="0.55"/>
                  <line x1="170" y1="115" x2="350" y2="115" stroke="#e8a951" stroke-width="1" opacity="0.5"/><g><circle cx="170" cy="115" r="3.3" fill="#e8a951"/><circle cx="185" cy="115" r="3.3" fill="#e8a951"/><circle cx="200" cy="115" r="3.3" fill="#e8a951"/><circle cx="215" cy="115" r="3.3" fill="#e8a951"/><circle cx="230" cy="115" r="3.3" fill="#e8a951"/><circle cx="245" cy="115" r="3.3" fill="#e8a951"/><circle cx="260" cy="115" r="3.3" fill="#e8a951"/><circle cx="275" cy="115" r="3.3" fill="#e8a951"/><circle cx="290" cy="115" r="3.3" fill="#e8a951"/><circle cx="305" cy="115" r="3.3" fill="#e8a951"/><circle cx="320" cy="115" r="3.3" fill="#e8a951"/><circle cx="335" cy="115" r="3.3" fill="#e8a951"/><circle cx="350" cy="115" r="3.3" fill="#e8a951"/></g><circle cx="363" cy="115" r="2.6" fill="#e8a951" opacity="0.55"/>

                  <!-- Lower pseudopod actin filaments (2 parallel chains) -->
                  <line x1="170" y1="177" x2="350" y2="177" stroke="#e8a951" stroke-width="1" opacity="0.5"/><g><circle cx="170" cy="177" r="3.3" fill="#e8a951"/><circle cx="185" cy="177" r="3.3" fill="#e8a951"/><circle cx="200" cy="177" r="3.3" fill="#e8a951"/><circle cx="215" cy="177" r="3.3" fill="#e8a951"/><circle cx="230" cy="177" r="3.3" fill="#e8a951"/><circle cx="245" cy="177" r="3.3" fill="#e8a951"/><circle cx="260" cy="177" r="3.3" fill="#e8a951"/><circle cx="275" cy="177" r="3.3" fill="#e8a951"/><circle cx="290" cy="177" r="3.3" fill="#e8a951"/><circle cx="305" cy="177" r="3.3" fill="#e8a951"/><circle cx="320" cy="177" r="3.3" fill="#e8a951"/><circle cx="335" cy="177" r="3.3" fill="#e8a951"/><circle cx="350" cy="177" r="3.3" fill="#e8a951"/></g><circle cx="363" cy="177" r="2.6" fill="#e8a951" opacity="0.55"/>
                  <line x1="170" y1="190" x2="350" y2="190" stroke="#e8a951" stroke-width="1" opacity="0.5"/><g><circle cx="170" cy="190" r="3.3" fill="#e8a951"/><circle cx="185" cy="190" r="3.3" fill="#e8a951"/><circle cx="200" cy="190" r="3.3" fill="#e8a951"/><circle cx="215" cy="190" r="3.3" fill="#e8a951"/><circle cx="230" cy="190" r="3.3" fill="#e8a951"/><circle cx="245" cy="190" r="3.3" fill="#e8a951"/><circle cx="260" cy="190" r="3.3" fill="#e8a951"/><circle cx="275" cy="190" r="3.3" fill="#e8a951"/><circle cx="290" cy="190" r="3.3" fill="#e8a951"/><circle cx="305" cy="190" r="3.3" fill="#e8a951"/><circle cx="320" cy="190" r="3.3" fill="#e8a951"/><circle cx="335" cy="190" r="3.3" fill="#e8a951"/><circle cx="350" cy="190" r="3.3" fill="#e8a951"/></g><circle cx="363" cy="190" r="2.6" fill="#e8a951" opacity="0.55"/>

                  <!-- Pseudopod labels (above / below the membrane) -->
                  <text x="260" y="74" text-anchor="middle" style="fill:#e8a951;font:italic 700 10px Inter,sans-serif;letter-spacing:2px">PSEUDOPOD</text>
                  <text x="260" y="226" text-anchor="middle" style="fill:#e8a951;font:italic 700 10px Inter,sans-serif;letter-spacing:2px">PSEUDOPOD</text>

                  <!-- 'actin filaments' label between the two pseudopods -->
                  <text x="260" y="148" text-anchor="middle" style="fill:#e8a951;font:italic 10px Inter,sans-serif">actin filaments</text>

                  <!-- PUSH arrows at the pseudopod tips, pointing outward -->
                  <g stroke="#e8a951" stroke-width="2" stroke-linecap="round" fill="none">
                    <line x1="395" y1="108" x2="425" y2="108"/>
                    <line x1="395" y1="184" x2="425" y2="184"/>
                  </g>
                  <g fill="#e8a951">
                    <polygon points="432,108 422,103 422,113"/>
                    <polygon points="432,184 422,179 422,189"/>
                  </g>
                  <text x="440" y="112" style="fill:#e8a951;font:italic 800 11px Inter,sans-serif">PUSH</text>
                  <text x="440" y="188" style="fill:#e8a951;font:italic 800 11px Inter,sans-serif">PUSH</text>

                  <text x="250" y="250" text-anchor="middle" style="fill:#b4becf;font:italic 10px Inter,sans-serif">actin polymerizes inside → membrane driven outward as pseudopods</text>
                </svg>
