<?xml version="1.0" encoding="UTF-8"?>
<!--
  Auto-generated from the reference HTML by
  scripts/storymode-extraction/extract.mjs.
  Do not edit by hand — regenerate the file instead.
-->
<svg xmlns="http://www.w3.org/2000/svg" xmlns:xlink="http://www.w3.org/1999/xlink" viewBox="0 0 500 260" preserveAspectRatio="xMidYMid meet">
                  <text x="20" y="24" style="fill:#e8a951;font:600 10px Inter,sans-serif;letter-spacing:2px">THE CHÉDIAK-HIGASHI QUARTET</text>

                  <!-- ============ TL: PARTIAL ALBINISM ============ -->
                  <g transform="translate(110 75)">
                    <!-- Head profile (pale skin) -->
                    <circle cx="0" cy="5" r="17" fill="#f0e0d5" opacity="0.72" stroke="#e8a8a0" stroke-width="1"/>
                    <!-- Silvery hair on top -->
                    <path d="M -17 -4 Q -12 -22 0 -24 Q 12 -22 17 -4 Q 12 -10 6 -10 Q 0 -12 -6 -10 Q -12 -10 -17 -4 Z"
                          fill="#c8cfd9" opacity="0.92" stroke="#e8ecf3" stroke-width="1"/>
                    <!-- Pale eye -->
                    <circle cx="3" cy="5" r="2.2" fill="#9370b9" opacity="0.6"/>
                    <circle cx="3" cy="5" r="1" fill="#111826"/>
                    <!-- Small hair strand to the side -->
                    <g stroke="#c8cfd9" stroke-width="1.5" fill="none" opacity="0.7" stroke-linecap="round">
                      <path d="M 20 -2 Q 26 2 28 10"/>
                    </g>
                  </g>
                  <text x="110" y="120" text-anchor="middle" style="fill:#e8a951;font:800 11px Inter,sans-serif;letter-spacing:1.5px">PARTIAL ALBINISM</text>
                  <text x="110" y="133" text-anchor="middle" style="fill:#b4becf;font:italic 9px Inter,sans-serif">silvery hair · pale skin</text>

                  <!-- ============ TR: GIANT GRANULES ============ -->
                  <g transform="translate(390 75)">
                    <!-- Neutrophil (microscope-smear view) -->
                    <circle r="24" fill="#e8a951" opacity="0.5" stroke="#a87b3c" stroke-width="1.3"/>
                    <!-- Multi-lobed nucleus -->
                    <g fill="#4a2d60" opacity="0.78">
                      <ellipse cx="-11" cy="-8" rx="4.5" ry="3.5"/>
                      <ellipse cx="-3" cy="-12" rx="3.5" ry="3"/>
                      <ellipse cx="11" cy="-5" rx="4.5" ry="3.5"/>
                      <ellipse cx="-8" cy="9" rx="4" ry="3"/>
                    </g>
                    <!-- GIANT granules (abnormally large purple blobs) -->
                    <g fill="#9370b9" opacity="0.92" stroke="#7a4a9e" stroke-width="0.9">
                      <circle cx="-4" cy="-1" r="6"/>
                      <circle cx="7" cy="7" r="6.5"/>
                      <circle cx="11" cy="-10" r="4.5"/>
                    </g>
                    <!-- Label arrow on one granule -->
                    <line x1="17" y1="10" x2="26" y2="16" stroke="#d14859" stroke-width="0.7" opacity="0.7"/>
                  </g>
                  <text x="390" y="120" text-anchor="middle" style="fill:#e8a951;font:800 11px Inter,sans-serif;letter-spacing:1.5px">GIANT GRANULES</text>
                  <text x="390" y="133" text-anchor="middle" style="fill:#b4becf;font:italic 9px Inter,sans-serif">on peripheral smear · diagnostic</text>

                  <!-- ============ BL: RECURRENT INFECTIONS ============ -->
                  <g transform="translate(110 168)">
                    <!-- Body silhouette -->
                    <g fill="#6b7689" opacity="0.35">
                      <circle cx="0" cy="-18" r="7"/>
                      <path d="M -10 -10 Q -12 4 -10 20 L 10 20 Q 12 4 10 -10 Q 0 -14 -10 -10 Z"/>
                    </g>
                    <g stroke="#6b7689" stroke-width="4" fill="none" opacity="0.35" stroke-linecap="round">
                      <path d="M -10 -6 Q -18 4 -17 16"/>
                      <path d="M 10 -6 Q 18 4 17 16"/>
                    </g>
                    <!-- Infection spots on body -->
                    <g fill="#d14859">
                      <circle cx="-5" cy="-4" r="2.3"/>
                      <circle cx="4" cy="-8" r="2.3"/>
                      <circle cx="-2" cy="6" r="2.3"/>
                      <circle cx="5" cy="13" r="2.3"/>
                      <circle cx="-14" cy="4" r="2"/>
                    </g>
                    <!-- Surrounding bacteria (pyogenic) -->
                    <g fill="#d14859" opacity="0.78">
                      <ellipse cx="-24" cy="-12" rx="3" ry="2"/>
                      <ellipse cx="22" cy="-14" rx="3" ry="2"/>
                      <ellipse cx="26" cy="14" rx="3" ry="2"/>
                      <ellipse cx="-26" cy="18" rx="3" ry="2"/>
                    </g>
                  </g>
                  <text x="110" y="213" text-anchor="middle" style="fill:#e8a951;font:800 11px Inter,sans-serif;letter-spacing:1.5px">RECURRENT INFECTIONS</text>
                  <text x="110" y="226" text-anchor="middle" style="fill:#b4becf;font:italic 9px Inter,sans-serif">pyogenic · S. aureus, Strep</text>

                  <!-- ============ BR: NEUROPATHY ============ -->
                  <g transform="translate(390 168)">
                    <!-- Neuron: cell body + dendrites + axon -->
                    <circle cx="-22" cy="-2" r="10" fill="#e8a951" opacity="0.35" stroke="#a87b3c" stroke-width="1.2"/>
                    <circle cx="-22" cy="-2" r="4" fill="#4a2d60" opacity="0.65"/>
                    <g stroke="#a87b3c" stroke-width="1.1" fill="none" opacity="0.65" stroke-linecap="round">
                      <path d="M -30 -7 Q -38 -12 -42 -18"/>
                      <path d="M -32 0 Q -42 0 -46 0"/>
                      <path d="M -30 5 Q -38 12 -42 18"/>
                    </g>
                    <!-- Axon extending right -->
                    <line x1="-12" y1="-2" x2="22" y2="-2" stroke="#a87b3c" stroke-width="2.5" opacity="0.7"/>
                    <!-- Clumped vesicles on axon (oversized, LYST defect) -->
                    <g fill="#9370b9" opacity="0.9" stroke="#7a4a9e" stroke-width="0.7">
                      <circle cx="-3" cy="-2" r="4.5"/>
                      <circle cx="10" cy="-2" r="4.5"/>
                    </g>
                    <!-- Terminal -->
                    <path d="M 22 -6 Q 30 -8 32 -2 Q 30 4 22 2" fill="#a87b3c" opacity="0.65"/>
                    <!-- Zigzag: neuropathy defect indicator -->
                    <path d="M -40 18 L -32 22 L -24 18 L -16 22 L -8 18 L 0 22 L 8 18 L 16 22"
                          stroke="#d14859" stroke-width="1.5" fill="none" opacity="0.85" stroke-linecap="round" stroke-linejoin="round"/>
                  </g>
                  <text x="390" y="213" text-anchor="middle" style="fill:#e8a951;font:800 11px Inter,sans-serif;letter-spacing:1.5px">NEUROPATHY</text>
                  <text x="390" y="226" text-anchor="middle" style="fill:#b4becf;font:italic 9px Inter,sans-serif">progressive · peripheral</text>

                  <!-- ============ BOTTOM BANNER: DEFECT ============ -->
                  <g transform="translate(250 248)">
                    <rect x="-105" y="-11" width="210" height="22" rx="11" fill="#e8a951" opacity="0.2" stroke="#e8a951" stroke-width="1.3"/>
                    <text x="0" y="4" text-anchor="middle" style="fill:#e8a951;font:700 10px Inter,sans-serif;letter-spacing:2.5px">DEFECT: LYST GENE</text>
                  </g>
                </svg>
