<?xml version="1.0" encoding="UTF-8"?>
<!--
  Auto-generated from the reference HTML by
  scripts/storymode-extraction/extract.mjs.
  Do not edit by hand — regenerate the file instead.
-->
<svg xmlns="http://www.w3.org/2000/svg" xmlns:xlink="http://www.w3.org/1999/xlink" viewBox="0 0 500 260" preserveAspectRatio="xMidYMid meet">
                  <g transform="translate(180 80)">
                    <path d="M 0 80 Q -5 40 5 20 Q 15 5 30 15 Q 40 0 50 20 Q 60 5 70 25 Q 80 15 85 40 Q 90 60 70 100 Q 60 120 45 130 L 0 130 Z" fill="#e8a8a0" opacity="0.5" stroke="#d14859" stroke-width="1.5"/>
                    <path d="M 0 80 Q -5 40 5 20 Q 15 5 30 15 Q 40 0 50 20 Q 60 5 70 25 Q 80 15 85 40" fill="none" stroke="#d14859" stroke-width="2" opacity="0.8"/>
                  </g>
                  <g transform="translate(220 100)" stroke="#d14859" stroke-width="2" fill="none">
                    <path d="M -65 -45 L -55 -35 L -65 -25 L -55 -15" opacity="0.9"/>
                    <path d="M 75 -50 L 85 -40 L 75 -30 L 85 -20" opacity="0.9"/>
                    <path d="M -80 50 L -70 60 L -80 70 L -70 80" opacity="0.9"/>
                    <path d="M 90 55 L 100 65 L 90 75 L 100 85" opacity="0.9"/>
                    <path d="M -70 0 L -58 -5 L -70 -10" opacity="0.7"/>
                    <path d="M 90 5 L 78 0 L 90 -5" opacity="0.7"/>
                  </g>
                  <g transform="translate(220 120)">
                    <circle r="12" fill="#d14859" opacity="0.85"/>
                    <circle r="22" fill="none" stroke="#d14859" stroke-width="1.5" opacity="0.6"/>
                    <circle r="35" fill="none" stroke="#d14859" stroke-width="1" opacity="0.35"/>
                    <circle r="48" fill="none" stroke="#d14859" stroke-width="0.8" opacity="0.2"/>
                  </g>
                </svg>
