<?xml version="1.0" encoding="UTF-8"?>
<!--
  Auto-generated from the reference HTML by
  scripts/storymode-extraction/extract.mjs.
  Do not edit by hand — regenerate the file instead.
-->
<svg xmlns="http://www.w3.org/2000/svg" xmlns:xlink="http://www.w3.org/1999/xlink" viewBox="0 0 500 260" preserveAspectRatio="xMidYMid meet">
                  <text x="20" y="24" style="fill:#e8a951;font:600 10px Inter,sans-serif;letter-spacing:2px">MPO DEFICIENCY — CLINICAL SUMMARY</text>

                  <!-- TL: MOST COMMON — stacked neutrophils icon -->
                  <g transform="translate(135 85)">
                    <rect x="-100" y="-28" width="200" height="56" rx="8" fill="#111826" stroke="#e8a951" stroke-width="1.2"/>
                    <g transform="translate(-70 0)">
                      <g fill="#e8a951" opacity="0.75" stroke="#a87b3c" stroke-width="0.7">
                        <circle cx="-8" cy="-4" r="8"/>
                        <circle cx="5" cy="2" r="8"/>
                        <circle cx="8" cy="-6" r="7"/>
                      </g>
                      <g fill="#4a2d60" opacity="0.6">
                        <circle cx="-8" cy="-4" r="2.5"/>
                        <circle cx="5" cy="2" r="2.5"/>
                        <circle cx="8" cy="-6" r="2"/>
                      </g>
                    </g>
                    <text x="-20" y="-4" style="fill:#e8a951;font:800 11px Inter,sans-serif;letter-spacing:1.5px">MOST COMMON</text>
                    <text x="-20" y="10" style="fill:#b4becf;font:italic 9px Inter,sans-serif">inherited phagocyte defect</text>
                  </g>

                  <!-- TR: USUALLY SILENT — teal shield with H2O2 -->
                  <g transform="translate(365 85)">
                    <rect x="-100" y="-28" width="200" height="56" rx="8" fill="#111826" stroke="#e8a951" stroke-width="1.2"/>
                    <g transform="translate(-70 0)">
                      <path d="M 0 -14 L -14 -8 L -14 6 Q -14 14 0 18 Q 14 14 14 6 L 14 -8 Z"
                            fill="#4fb8a8" opacity="0.45" stroke="#3a8f82" stroke-width="1.3"/>
                      <text x="0" y="5" text-anchor="middle" style="fill:#4fb8a8;font:800 9px Inter,sans-serif">H₂O₂</text>
                    </g>
                    <text x="-20" y="-4" style="fill:#e8a951;font:800 11px Inter,sans-serif;letter-spacing:1.5px">USUALLY SILENT</text>
                    <text x="-20" y="10" style="fill:#b4becf;font:italic 9px Inter,sans-serif">H₂O₂ still kills most bugs</text>
                  </g>

                  <!-- BOTTOM: EXCEPTION — blood drop + candida combination -->
                  <g transform="translate(250 165)">
                    <rect x="-145" y="-30" width="290" height="60" rx="10" fill="#d14859" opacity="0.2" stroke="#d14859" stroke-width="1.5"/>

                    <!-- Blood drop with sugar -->
                    <g transform="translate(-100 0)">
                      <path d="M 0 -16 Q 8 -4 8 4 Q 8 14 0 14 Q -8 14 -8 4 Q -8 -4 0 -16 Z"
                            fill="#d14859" opacity="0.78" stroke="#a33648" stroke-width="0.9"/>
                      <g fill="#e8a951" opacity="0.95">
                        <rect x="-3" y="-4" width="2.5" height="2.5" transform="rotate(20 -2 -3)"/>
                        <rect x="1" y="0" width="2.5" height="2.5" transform="rotate(35 2 1)"/>
                        <rect x="-2" y="6" width="2.5" height="2.5" transform="rotate(10 -1 7)"/>
                      </g>
                    </g>

                    <!-- Plus -->
                    <text x="-78" y="5" text-anchor="middle" style="fill:#d14859;font:800 16px Inter,sans-serif">+</text>

                    <!-- Candida yeasts -->
                    <g transform="translate(-58 0)">
                      <g fill="#9370b9" opacity="0.85" stroke="#7a4a9e" stroke-width="0.6">
                        <ellipse cx="-6" cy="-4" rx="4" ry="3.3"/>
                        <ellipse cx="3" cy="2" rx="4" ry="3.3"/>
                        <ellipse cx="9" cy="-5" rx="3.5" ry="2.8"/>
                        <ellipse cx="-2" cy="6" rx="3" ry="2.5"/>
                      </g>
                    </g>

                    <!-- Label -->
                    <text x="30" y="-3" text-anchor="middle" style="fill:#d14859;font:800 13px Inter,sans-serif;letter-spacing:2px">EXCEPTION</text>
                    <text x="30" y="13" text-anchor="middle" style="fill:#e8ecf3;font:italic 10px Inter,sans-serif">diabetic + Candida infection</text>
                  </g>

                  <text x="250" y="233" text-anchor="middle" style="fill:#e8ecf3;font:italic 700 11px Fraunces,serif">know the paradox, know the trap</text>
                </svg>
