<?xml version="1.0" encoding="UTF-8"?>
<!--
  Auto-generated from the reference HTML by
  scripts/storymode-extraction/extract.mjs.
  Do not edit by hand — regenerate the file instead.
-->
<svg xmlns="http://www.w3.org/2000/svg" xmlns:xlink="http://www.w3.org/1999/xlink" viewBox="0 0 500 260" preserveAspectRatio="xMidYMid meet">
                  <g transform="translate(100 140)">
                    <path d="M -30 0 Q -25 -15 -10 -16 Q 5 -18 20 -10 Q 30 0 25 12 Q 10 18 -5 14 Q -22 10 -30 0 Z" fill="#d14859" opacity="0.7" stroke="#a33648" stroke-width="1.3"/>
                    <path d="M -18 5 L 15 5" stroke="#d14859" stroke-width="1" fill="none" opacity="0.5"/>
                    <text x="0" y="36" text-anchor="middle" style="fill:#d14859;font:italic 700 9px Inter,sans-serif">sickled RBC</text>
                  </g>
                  <g transform="translate(250 100)">
                    <path d="M -55 -20 Q -65 -5 -58 15 Q -45 28 -10 30 Q 25 28 40 18 Q 48 3 40 -18 Q 30 -30 5 -32 Q -20 -32 -55 -20" fill="#d14859" opacity="0.5" stroke="#d14859" stroke-width="1.5"/>
                    <text x="0" y="46" text-anchor="middle" style="fill:#d14859;font:italic 9px Inter,sans-serif">spleen (childhood)</text>
                  </g>
                  <g transform="translate(250 195)">
                    <path d="M -35 -12 Q -42 0 -35 10 Q -20 20 -5 18 Q 12 18 22 10 Q 28 0 22 -10 Q 12 -20 -5 -20 Q -20 -20 -35 -12" fill="#6b7689" opacity="0.35" stroke="#6b7689" stroke-width="1.3" stroke-dasharray="3 2"/>
                    <g stroke="#6b7689" stroke-width="1" fill="none" opacity="0.5">
                      <path d="M -25 -5 L 15 5"/>
                      <path d="M -20 5 L 18 -5"/>
                    </g>
                    <text x="0" y="38" text-anchor="middle" style="fill:#6b7689;font:italic 9px Inter,sans-serif">fibrosed (adult)</text>
                  </g>
                  <g transform="translate(400 145)">
                    <g>
                      <circle r="20" fill="#d14859" opacity="0.55" stroke="#a33648" stroke-width="1.3"/>
                      <circle cx="-6" cy="-4" r="5" fill="#4a2d60"/>
                    </g>
                    <text x="0" y="45" text-anchor="middle" style="fill:#e8a951;font:italic 700 9px Inter,sans-serif">H-J body</text>
                    <text x="0" y="57" text-anchor="middle" style="fill:#b4becf;font:italic 8px Inter,sans-serif">appears</text>
                  </g>
                  <g stroke="#6b7689" stroke-width="1" fill="none" stroke-dasharray="3 2">
                    <path d="M 215 100 Q 250 130 250 160"/>
                    <polygon points="250,162 246,154 254,154" fill="#6b7689"/>
                    <line x1="305" y1="145" x2="370" y2="145"/>
                    <polygon points="375,145 367,141 367,149" fill="#6b7689"/>
                  </g>
                </svg>
