<?xml version="1.0" encoding="UTF-8"?>
<!--
  Auto-generated from the reference HTML by
  scripts/storymode-extraction/extract.mjs.
  Do not edit by hand — regenerate the file instead.
-->
<svg xmlns="http://www.w3.org/2000/svg" xmlns:xlink="http://www.w3.org/1999/xlink" viewBox="0 0 500 260" preserveAspectRatio="xMidYMid meet">
                  <text x="20" y="24" style="fill:#e8a951;font:600 10px Inter,sans-serif;letter-spacing:2px">PROTEINS LEAK — EXUDATE FORMS</text>
                  <rect x="40" y="90" width="420" height="70" rx="8" fill="#4fb8a8" opacity="0.12" stroke="#4fb8a8" stroke-width="1.3"/>
                  <g transform="translate(60 90)">
                    <rect x="0" y="0" width="42" height="8" fill="#4fb8a8" opacity="0.85"/>
                    <rect x="58" y="0" width="42" height="8" fill="#4fb8a8" opacity="0.85"/>
                    <rect x="116" y="0" width="42" height="8" fill="#4fb8a8" opacity="0.85"/>
                    <rect x="174" y="0" width="42" height="8" fill="#4fb8a8" opacity="0.85"/>
                    <rect x="232" y="0" width="42" height="8" fill="#4fb8a8" opacity="0.85"/>
                    <rect x="290" y="0" width="42" height="8" fill="#4fb8a8" opacity="0.85"/>
                    <rect x="348" y="0" width="42" height="8" fill="#4fb8a8" opacity="0.85"/>
                  </g>
                  <g transform="translate(60 152)">
                    <rect x="0" y="0" width="42" height="8" fill="#4fb8a8" opacity="0.85"/>
                    <rect x="58" y="0" width="42" height="8" fill="#4fb8a8" opacity="0.85"/>
                    <rect x="116" y="0" width="42" height="8" fill="#4fb8a8" opacity="0.85"/>
                    <rect x="174" y="0" width="42" height="8" fill="#4fb8a8" opacity="0.85"/>
                    <rect x="232" y="0" width="42" height="8" fill="#4fb8a8" opacity="0.85"/>
                    <rect x="290" y="0" width="42" height="8" fill="#4fb8a8" opacity="0.85"/>
                    <rect x="348" y="0" width="42" height="8" fill="#4fb8a8" opacity="0.85"/>
                  </g>
                  <g fill="#e8a951" opacity="0.85">
                    <circle cx="167" cy="75" r="4"/>
                    <circle cx="225" cy="70" r="4"/>
                    <circle cx="283" cy="75" r="4"/>
                    <circle cx="341" cy="72" r="4"/>
                    <circle cx="145" cy="60" r="3"/>
                    <circle cx="200" cy="55" r="3"/>
                    <circle cx="260" cy="55" r="3"/>
                    <circle cx="320" cy="55" r="3"/>
                    <circle cx="380" cy="60" r="3"/>
                    <circle cx="120" cy="40" r="3" opacity="0.6"/>
                    <circle cx="180" cy="35" r="3" opacity="0.6"/>
                    <circle cx="280" cy="35" r="3" opacity="0.6"/>
                    <circle cx="340" cy="40" r="3" opacity="0.6"/>
                  </g>
                  <g transform="translate(167 82)">
                    <line x1="0" y1="0" x2="0" y2="-8" stroke="#e8a951" stroke-width="1"/>
                    <polygon points="0,-10 -3,-4 3,-4" fill="#e8a951"/>
                  </g>
                  <g transform="translate(225 77)">
                    <line x1="0" y1="0" x2="0" y2="-8" stroke="#e8a951" stroke-width="1"/>
                    <polygon points="0,-10 -3,-4 3,-4" fill="#e8a951"/>
                  </g>
                  <g transform="translate(283 82)">
                    <line x1="0" y1="0" x2="0" y2="-8" stroke="#e8a951" stroke-width="1"/>
                    <polygon points="0,-10 -3,-4 3,-4" fill="#e8a951"/>
                  </g>
                  <g transform="translate(341 79)">
                    <line x1="0" y1="0" x2="0" y2="-8" stroke="#e8a951" stroke-width="1"/>
                    <polygon points="0,-10 -3,-4 3,-4" fill="#e8a951"/>
                  </g>
                  <text x="250" y="220" text-anchor="middle" style="fill:#e8a951;font:italic 700 11px Inter,sans-serif">EXUDATE — protein-rich fluid</text>
                </svg>
