<?xml version="1.0" encoding="UTF-8"?>
<!--
  Auto-generated from the reference HTML by
  scripts/storymode-extraction/extract.mjs.
  Do not edit by hand — regenerate the file instead.
-->
<svg xmlns="http://www.w3.org/2000/svg" xmlns:xlink="http://www.w3.org/1999/xlink" viewBox="0 0 500 260" preserveAspectRatio="xMidYMid meet">
                  <g transform="translate(250 145)">
                    <circle r="90" fill="none" stroke="#9370b9" stroke-width="2"/>
                    <g fill="#9370b9" opacity="0.85">
                      <circle cx="-70" cy="0" r="6"/>
                      <circle cx="-58" cy="-38" r="6"/>
                      <circle cx="-28" cy="-65" r="6"/>
                      <circle cx="12" cy="-78" r="6"/>
                      <circle cx="48" cy="-65" r="6"/>
                      <circle cx="72" cy="-32" r="6"/>
                      <circle cx="78" cy="10" r="6"/>
                      <circle cx="62" cy="48" r="6"/>
                      <circle cx="30" cy="72" r="6"/>
                      <circle cx="-12" cy="78" r="6"/>
                      <circle cx="-48" cy="62" r="6"/>
                      <circle cx="-72" cy="28" r="6"/>
                    </g>
                    <g stroke="#e8a951" stroke-width="5" fill="none" stroke-linecap="round">
                      <path d="M 0 -35 L 0 35"/>
                      <path d="M -28 -20 L 28 20"/>
                      <path d="M 28 -20 L -28 20"/>
                      <path d="M -32 0 L 32 0"/>
                    </g>
                    <g fill="#e8a951" opacity="0.95">
                      <circle cx="0" cy="-20" r="3"/>
                      <circle cx="-15" cy="-10" r="3"/>
                      <circle cx="15" cy="-10" r="3"/>
                      <circle cx="-20" cy="5" r="3"/>
                      <circle cx="20" cy="5" r="3"/>
                      <circle cx="0" cy="18" r="3"/>
                    </g>
                  </g>
                  <g transform="translate(90 85)">
                    <circle r="5" fill="#9370b9"/>
                    <text x="12" y="4" style="fill:#9370b9;font:italic 700 9px Inter,sans-serif">macs wall</text>
                  </g>
                  <g transform="translate(415 85)">
                    <g stroke="#e8a951" stroke-width="2" fill="none">
                      <path d="M 0 -5 L 0 5"/>
                      <path d="M -5 0 L 5 0"/>
                    </g>
                    <text x="-10" y="4" text-anchor="end" style="fill:#e8a951;font:italic 700 9px Inter,sans-serif">PMN star</text>
                  </g>
                </svg>
