<?xml version="1.0" encoding="UTF-8"?>
<!--
  Auto-generated from the reference HTML by
  scripts/storymode-extraction/extract.mjs.
  Do not edit by hand — regenerate the file instead.
-->
<svg xmlns="http://www.w3.org/2000/svg" xmlns:xlink="http://www.w3.org/1999/xlink" viewBox="0 0 500 260" preserveAspectRatio="xMidYMid meet">
                  <text x="20" y="38" style="fill:#e8a951;font:600 10px Inter,sans-serif;letter-spacing:2px">NF-κB CROSSES INTO THE NUCLEUS</text>
                  <text x="35" y="85" style="fill:#6b7689;font:10px Inter,sans-serif;letter-spacing:1.5px">CYTOPLASM</text>
                  <ellipse cx="330" cy="155" rx="130" ry="78" fill="#4fb8a8" opacity="0.1" stroke="#4fb8a8" stroke-width="1.8"/>
                  <ellipse cx="330" cy="155" rx="123" ry="72" fill="none" stroke="#4fb8a8" stroke-width="1" opacity="0.7"/>
                  <text x="330" y="83" text-anchor="middle" style="fill:#4fb8a8;font:600 10px Inter,sans-serif;letter-spacing:1.5px">NUCLEUS</text>
                  <g transform="translate(202 155)">
                    <circle r="14" fill="#0a0e1a" stroke="#4fb8a8" stroke-width="1.5"/>
                    <circle r="8" fill="#111826" stroke="#4fb8a8" stroke-width="0.8"/>
                    <text x="-14" y="34" style="fill:#6b7689;font:italic 9px Inter,sans-serif">nuclear pore</text>
                  </g>
                  <g transform="translate(110 155)" opacity="0.4">
                    <rect x="-24" y="-13" width="48" height="26" rx="6" fill="#111826" stroke="#e8a951" stroke-width="2"/>
                    <text x="0" y="5" text-anchor="middle" style="fill:#e8a951;font:700 11px Inter,sans-serif">NF-κB</text>
                  </g>
                  <g transform="translate(170 155)" opacity="0.7">
                    <rect x="-24" y="-13" width="48" height="26" rx="6" fill="#111826" stroke="#e8a951" stroke-width="2"/>
                    <text x="0" y="5" text-anchor="middle" style="fill:#e8a951;font:700 11px Inter,sans-serif">NF-κB</text>
                  </g>
                  <g transform="translate(260 155)">
                    <rect x="-24" y="-13" width="48" height="26" rx="6" fill="#111826" stroke="#e8a951" stroke-width="2.2"/>
                    <text x="0" y="5" text-anchor="middle" style="fill:#e8a951;font:700 11px Inter,sans-serif">NF-κB</text>
                  </g>
                  <line x1="138" y1="125" x2="240" y2="125" stroke="#e8a951" stroke-width="1.3" stroke-dasharray="3 3"/>
                  <polygon points="245,125 237,121 237,129" fill="#e8a951"/>
                  <g transform="translate(340 180)">
                    <path d="M -30 0 Q -25 -8 -15 0 Q -5 8 5 0 Q 15 -8 25 0 Q 35 8 45 0" stroke="#4fb8a8" stroke-width="1.3" fill="none" opacity="0.7"/>
                    <path d="M -30 10 Q -25 18 -15 10 Q -5 2 5 10 Q 15 18 25 10 Q 35 2 45 10" stroke="#4fb8a8" stroke-width="1.3" fill="none" opacity="0.7"/>
                    <text x="8" y="33" text-anchor="middle" style="fill:#4fb8a8;font:italic 10px Inter,sans-serif">DNA waiting</text>
                  </g>
                  <text x="250" y="245" text-anchor="middle" style="fill:#e8ecf3;font:italic 600 12px Fraunces,serif">crosses the pore → goes straight to the DNA</text>
                </svg>
