<?xml version="1.0" encoding="UTF-8"?>
<!--
  Auto-generated from the reference HTML by
  scripts/storymode-extraction/extract.mjs.
  Do not edit by hand — regenerate the file instead.
-->
<svg xmlns="http://www.w3.org/2000/svg" xmlns:xlink="http://www.w3.org/1999/xlink" viewBox="0 0 500 260" preserveAspectRatio="xMidYMid meet">
                  <text x="20" y="24" style="fill:#e8a951;font:600 10px Inter,sans-serif;letter-spacing:2px">TWO CLASSIC CLINICAL CLUES</text>

                  <!-- CARD 1: NO PUS ================================================ -->
                  <g transform="translate(125 145)">
                    <rect x="-100" y="-80" width="200" height="160" rx="10" fill="#111826" stroke="#d14859" stroke-width="1.3"/>
                    <text x="0" y="-58" text-anchor="middle" style="fill:#d14859;font:800 12px Inter,sans-serif;letter-spacing:2px">NO PUS</text>

                    <!-- "Pus absent" cloud: dashed outline + ghosted pus dots + big red X -->
                    <g transform="translate(0 -20)">
                      <ellipse cx="0" cy="0" rx="44" ry="18" fill="#e8a951" opacity="0.06"/>
                      <ellipse cx="0" cy="0" rx="44" ry="18" fill="none" stroke="#e8a951" stroke-width="1" stroke-dasharray="3 2" opacity="0.42"/>
                      <g opacity="0.28" fill="#e8a951">
                        <circle cx="-16" cy="-3" r="2.6"/>
                        <circle cx="-5" cy="3" r="2.6"/>
                        <circle cx="7" cy="-2" r="2.6"/>
                        <circle cx="1" cy="-7" r="2.6"/>
                        <circle cx="14" cy="5" r="2.6"/>
                        <circle cx="-11" cy="6" r="2.2"/>
                      </g>
                      <g stroke="#d14859" stroke-width="3.2" opacity="0.9" stroke-linecap="round">
                        <line x1="-24" y1="-13" x2="24" y2="13"/>
                        <line x1="24" y1="-13" x2="-24" y2="13"/>
                      </g>
                    </g>

                    <!-- Skin with wound (bacteria inside, nothing above) -->
                    <g transform="translate(0 24)">
                      <path d="M -72 0 Q -35 -2 0 0 Q 35 2 72 0" stroke="#e8a8a0" stroke-width="3" fill="none" stroke-linecap="round"/>
                      <path d="M -20 0 Q -12 20 0 17 Q 12 20 20 0" fill="#8a2838" opacity="0.9"/>
                      <g fill="#d14859" opacity="0.95">
                        <circle cx="-8" cy="7" r="2"/>
                        <circle cx="5" cy="6" r="2"/>
                        <circle cx="-1" cy="12" r="2"/>
                        <circle cx="9" cy="10" r="1.8"/>
                        <circle cx="-11" cy="11" r="1.8"/>
                      </g>
                      <text x="-72" y="-5" style="fill:#6b7689;font:italic 7px Inter,sans-serif">skin</text>
                      <text x="28" y="16" style="fill:#d14859;font:italic 8px Inter,sans-serif">bacteria</text>
                    </g>

                    <text x="0" y="65" text-anchor="middle" style="fill:#b4becf;font:italic 9px Inter,sans-serif">bacteria present · no neutrophils in tissue</text>
                  </g>

                  <!-- CARD 2: DELAYED CORD =========================================== -->
                  <g transform="translate(375 145)">
                    <rect x="-100" y="-80" width="200" height="160" rx="10" fill="#111826" stroke="#d14859" stroke-width="1.3"/>
                    <text x="0" y="-58" text-anchor="middle" style="fill:#d14859;font:800 12px Inter,sans-serif;letter-spacing:2px">DELAYED CORD</text>

                    <!-- Baby abdomen + umbilical cord stump (still attached, dried) -->
                    <g transform="translate(-25 5)">
                      <ellipse cx="0" cy="20" rx="36" ry="28" fill="#e8a8a0" opacity="0.55" stroke="#c88a80" stroke-width="1.3"/>
                      <ellipse cx="-12" cy="10" rx="14" ry="9" fill="#edb0a8" opacity="0.4"/>
                      <circle cx="0" cy="3" r="5" fill="#8a5a4a" opacity="0.9"/>
                      <!-- Cord stump: dark, dried, still attached -->
                      <path d="M 0 -2 Q 4 -14 -2 -26 Q -7 -38 2 -48" stroke="#6b3848" stroke-width="7" fill="none" stroke-linecap="round"/>
                      <!-- Cord clamp at the top -->
                      <rect x="-4" y="-54" width="10" height="6" rx="1" fill="#4a5568" stroke="#2d3748" stroke-width="0.5"/>
                      <!-- Label pointer -->
                      <line x1="-34" y1="-30" x2="-10" y2="-22" stroke="#d14859" stroke-width="0.6" stroke-dasharray="1.5 2" opacity="0.5"/>
                      <text x="-36" y="-27" text-anchor="end" style="fill:#d14859;font:italic 8px Inter,sans-serif">cord</text>
                    </g>

                    <!-- Calendar badge with day count -->
                    <g transform="translate(55 0)">
                      <rect x="-24" y="-22" width="48" height="44" rx="4" fill="#111826" stroke="#d14859" stroke-width="1.5"/>
                      <rect x="-24" y="-22" width="48" height="13" rx="4" fill="#d14859" opacity="0.45"/>
                      <text x="0" y="-12" text-anchor="middle" style="fill:#d14859;font:700 7px Inter,sans-serif;letter-spacing:1.5px">DAY</text>
                      <text x="0" y="14" text-anchor="middle" style="fill:#d14859;font:800 18px Inter,sans-serif">21+</text>
                    </g>

                    <text x="0" y="65" text-anchor="middle" style="fill:#b4becf;font:italic 9px Inter,sans-serif">normal: falls off by day 10–14</text>
                  </g>
                </svg>
