<?xml version="1.0" encoding="UTF-8"?>
<!--
  Auto-generated from the reference HTML by
  scripts/storymode-extraction/extract.mjs.
  Do not edit by hand — regenerate the file instead.
-->
<svg xmlns="http://www.w3.org/2000/svg" xmlns:xlink="http://www.w3.org/1999/xlink" viewBox="0 0 500 260" preserveAspectRatio="xMidYMid meet">
                  <text x="20" y="24" style="fill:#e8a951;font:600 10px Inter,sans-serif;letter-spacing:2px">THE ASSEMBLY LINE — END TO END</text>
                  <g transform="translate(60 125)">
                    <rect x="-22" y="-16" width="44" height="32" rx="4" fill="#111826" stroke="#6b7689" stroke-width="1.2"/>
                    <text x="0" y="4" text-anchor="middle" style="fill:#b4becf;font:700 11px Inter,sans-serif">O₂</text>
                    <text x="0" y="30" text-anchor="middle" style="fill:#6b7689;font:italic 9px Inter,sans-serif">oxygen</text>
                  </g>
                  <g transform="translate(170 125)">
                    <rect x="-22" y="-16" width="44" height="32" rx="4" fill="#e8a951" opacity="0.6"/>
                    <text x="0" y="4" text-anchor="middle" style="fill:#0a0e1a;font:700 11px Inter,sans-serif">O₂⁻</text>
                    <text x="0" y="30" text-anchor="middle" style="fill:#e8a951;font:italic 9px Inter,sans-serif">superoxide</text>
                  </g>
                  <g transform="translate(285 125)">
                    <rect x="-24" y="-16" width="48" height="32" rx="4" fill="#e8a951" opacity="0.8"/>
                    <text x="0" y="4" text-anchor="middle" style="fill:#0a0e1a;font:700 11px Inter,sans-serif">H₂O₂</text>
                    <text x="0" y="30" text-anchor="middle" style="fill:#e8a951;font:italic 9px Inter,sans-serif">peroxide</text>
                  </g>
                  <g transform="translate(410 125)">
                    <rect x="-28" y="-16" width="56" height="32" rx="4" fill="#e8a951"/>
                    <text x="0" y="4" text-anchor="middle" style="fill:#0a0e1a;font:700 12px Inter,sans-serif">HOCl</text>
                    <text x="0" y="30" text-anchor="middle" style="fill:#e8a951;font:italic 9px Inter,sans-serif">bleach</text>
                  </g>
                  <line x1="88" y1="125" x2="142" y2="125" stroke="#e8a951" stroke-width="1.3"/>
                  <polygon points="148,125 140,121 140,129" fill="#e8a951"/>
                  <text x="115" y="115" text-anchor="middle" style="fill:#e8a951;font:italic 9px Inter,sans-serif">NADPH ox.</text>
                  <line x1="198" y1="125" x2="256" y2="125" stroke="#e8a951" stroke-width="1.3"/>
                  <polygon points="262,125 254,121 254,129" fill="#e8a951"/>
                  <text x="227" y="115" text-anchor="middle" style="fill:#e8a951;font:italic 9px Inter,sans-serif">SOD</text>
                  <line x1="315" y1="125" x2="378" y2="125" stroke="#e8a951" stroke-width="1.3"/>
                  <polygon points="383,125 375,121 375,129" fill="#e8a951"/>
                  <text x="346" y="115" text-anchor="middle" style="fill:#e8a951;font:italic 9px Inter,sans-serif">MPO + Cl⁻</text>
                  <g transform="translate(250 215)">
                    <rect x="-130" y="-14" width="260" height="28" rx="14" fill="#e8a951" opacity="0.18" stroke="#e8a951" stroke-width="1"/>
                    <text x="0" y="5" text-anchor="middle" style="fill:#e8a951;font:italic 700 11px Inter,sans-serif">each step, a more lethal molecule</text>
                  </g>
                </svg>
