<?xml version="1.0" encoding="UTF-8"?>
<!--
  Auto-generated from the reference HTML by
  scripts/storymode-extraction/extract.mjs.
  Do not edit by hand — regenerate the file instead.
-->
<svg xmlns="http://www.w3.org/2000/svg" xmlns:xlink="http://www.w3.org/1999/xlink" viewBox="0 0 500 320" preserveAspectRatio="xMidYMid meet">
                  <text x="20" y="22" style="fill:#e8a951;font:600 10px Inter,sans-serif;letter-spacing:2px">BIOFILM · BACTERIA BUILD A SHIELDED COMMUNITY</text>

                  <!-- Top-left: antibody cannot penetrate (with arrow pointing to dome) -->
                  <g transform="translate(60 70)">
                    <g stroke="#9370b9" stroke-width="2" fill="none">
                      <path d="M 0 -10 L -7 0 L -7 8"/>
                      <path d="M 0 -10 L 7 0 L 7 8"/>
                      <path d="M 0 -10 L 0 -18"/>
                    </g>
                    <g stroke="#d14859" stroke-width="2">
                      <line x1="-14" y1="-18" x2="14" y2="10"/>
                      <line x1="14" y1="-18" x2="-14" y2="10"/>
                    </g>
                    <text x="0" y="28" text-anchor="middle" style="fill:#9370b9;font:700 9.5px Inter,sans-serif">antibody</text>
                    <text x="0" y="40" text-anchor="middle" style="fill:#d14859;font:700 9px Inter,sans-serif">can't reach in</text>
                  </g>

                  <!-- Top-right: neutrophil cannot penetrate -->
                  <g transform="translate(440 70)">
                    <circle cx="0" cy="0" r="14" fill="#e8a951" opacity="0.85" stroke="#c08537" stroke-width="0.8"/>
                    <circle cx="-4" cy="-2" r="2.2" fill="#8a5a2b"/>
                    <circle cx="4" cy="2" r="2.2" fill="#8a5a2b"/>
                    <g stroke="#d14859" stroke-width="2">
                      <line x1="-16" y1="-16" x2="16" y2="16"/>
                      <line x1="16" y1="-16" x2="-16" y2="16"/>
                    </g>
                    <text x="0" y="32" text-anchor="middle" style="fill:#e8a951;font:700 9.5px Inter,sans-serif">PMN</text>
                    <text x="0" y="44" text-anchor="middle" style="fill:#d14859;font:700 9px Inter,sans-serif">can't get in</text>
                  </g>

                  <!-- Antibiotic molecules bouncing off -->
                  <g transform="translate(250 55)" opacity="0.85">
                    <text x="0" y="0" text-anchor="middle" style="fill:#4fb8a8;font:700 10px Inter,sans-serif">↓ antibiotic</text>
                    <g stroke="#4fb8a8" stroke-width="1">
                      <line x1="-35" y1="10" x2="-35" y2="25"/>
                      <line x1="-15" y1="10" x2="-15" y2="25"/>
                      <line x1="5" y1="10" x2="5" y2="25"/>
                      <line x1="25" y1="10" x2="25" y2="25"/>
                      <line x1="45" y1="10" x2="45" y2="25"/>
                    </g>
                    <g fill="#4fb8a8">
                      <circle cx="-35" cy="25" r="2"/>
                      <circle cx="-15" cy="25" r="2"/>
                      <circle cx="5" cy="25" r="2"/>
                      <circle cx="25" cy="25" r="2"/>
                      <circle cx="45" cy="25" r="2"/>
                    </g>
                    <text x="0" y="52" text-anchor="middle" style="fill:#d14859;font:700 9px Inter,sans-serif">deflected by matrix</text>
                  </g>

                  <!-- Main biofilm dome (gold, labeled) -->
                  <g transform="translate(250 220)">
                    <!-- Biofilm dome -->
                    <path d="M -180 30 Q -165 -10 -135 10 Q -105 -20 -75 5 Q -40 -25 0 0 Q 40 -25 75 5 Q 105 -20 135 10 Q 165 -10 180 30 L 180 32 L -180 32 Z"
                          fill="#e8a951" opacity="0.3" stroke="#e8a951" stroke-width="1.8"/>
                    <!-- Additional translucent layer for depth -->
                    <path d="M -180 30 Q -165 -10 -135 10 Q -105 -20 -75 5 Q -40 -25 0 0 Q 40 -25 75 5 Q 105 -20 135 10 Q 165 -10 180 30"
                          fill="none" stroke="#e8a951" stroke-width="0.8" opacity="0.6" stroke-dasharray="3 2"/>

                    <!-- Bacteria clusters inside biofilm (cocci in grape-like bunches — S. aureus) -->
                    <g fill="#d14859" stroke="#a33648" stroke-width="0.5">
                      <!-- cluster 1 -->
                      <circle cx="-135" cy="20" r="3.5"/><circle cx="-128" cy="17" r="3.5"/>
                      <circle cx="-130" cy="25" r="3.5"/><circle cx="-122" cy="23" r="3.5"/>
                      <!-- cluster 2 -->
                      <circle cx="-75" cy="15" r="3.5"/><circle cx="-68" cy="12" r="3.5"/>
                      <circle cx="-70" cy="20" r="3.5"/><circle cx="-62" cy="18" r="3.5"/>
                      <!-- cluster 3 (center) -->
                      <circle cx="-5" cy="10" r="3.5"/><circle cx="2" cy="6" r="3.5"/>
                      <circle cx="-3" cy="16" r="3.5"/><circle cx="5" cy="14" r="3.5"/>
                      <circle cx="10" cy="8" r="3.5"/>
                      <!-- cluster 4 -->
                      <circle cx="72" cy="15" r="3.5"/><circle cx="79" cy="12" r="3.5"/>
                      <circle cx="75" cy="20" r="3.5"/><circle cx="83" cy="18" r="3.5"/>
                      <!-- cluster 5 -->
                      <circle cx="135" cy="20" r="3.5"/><circle cx="142" cy="17" r="3.5"/>
                      <circle cx="138" cy="25" r="3.5"/><circle cx="145" cy="23" r="3.5"/>
                    </g>
                  </g>

                  <!-- Prosthesis surface under biofilm -->
                  <g transform="translate(250 260)">
                    <rect x="-185" y="0" width="370" height="16" rx="2" fill="#6b7689" opacity="0.85" stroke="#4a5560" stroke-width="1.2"/>
                    <!-- hatching -->
                    <g stroke="#4a5560" stroke-width="0.5" opacity="0.7">
                      <line x1="-175" y1="0" x2="-175" y2="16"/>
                      <line x1="-150" y1="0" x2="-150" y2="16"/>
                      <line x1="-125" y1="0" x2="-125" y2="16"/>
                      <line x1="-100" y1="0" x2="-100" y2="16"/>
                      <line x1="-75" y1="0" x2="-75" y2="16"/>
                      <line x1="-50" y1="0" x2="-50" y2="16"/>
                      <line x1="-25" y1="0" x2="-25" y2="16"/>
                      <line x1="0" y1="0" x2="0" y2="16"/>
                      <line x1="25" y1="0" x2="25" y2="16"/>
                      <line x1="50" y1="0" x2="50" y2="16"/>
                      <line x1="75" y1="0" x2="75" y2="16"/>
                      <line x1="100" y1="0" x2="100" y2="16"/>
                      <line x1="125" y1="0" x2="125" y2="16"/>
                      <line x1="150" y1="0" x2="150" y2="16"/>
                      <line x1="175" y1="0" x2="175" y2="16"/>
                    </g>
                  </g>

                  <!-- Labels with leader lines -->
                  <!-- polysaccharide matrix label -->
                  <g transform="translate(120 150)">
                    <text x="0" y="0" style="fill:#e8a951;font:700 9.5px Inter,sans-serif">polysaccharide matrix</text>
                    <text x="0" y="12" style="fill:#b4becf;font:italic 8.5px Inter,sans-serif">secreted by bacteria</text>
                    <line x1="40" y1="2" x2="80" y2="50" stroke="#e8a951" stroke-width="0.8" opacity="0.6"/>
                  </g>

                  <!-- bacteria cluster label -->
                  <g transform="translate(340 150)">
                    <text x="0" y="0" style="fill:#d14859;font:700 9.5px Inter,sans-serif">bacteria (S. aureus)</text>
                    <text x="0" y="12" style="fill:#b4becf;font:italic 8.5px Inter,sans-serif">clustered beneath matrix</text>
                    <line x1="10" y1="2" x2="-20" y2="55" stroke="#d14859" stroke-width="0.8" opacity="0.6"/>
                  </g>

                  <!-- prosthesis label -->
                  <text x="250" y="295" text-anchor="middle" style="fill:#6b7689;font:italic 700 9px Inter,sans-serif">PROSTHESIS · plastic / metal implant</text>

                  <!-- Bottom takeaway -->
                  <text x="250" y="314" text-anchor="middle" style="fill:#e8a951;font:italic 700 9.5px Fraunces,serif">needs surgical removal · antibiotics alone fail</text>
                </svg>
