<?xml version="1.0" encoding="UTF-8"?>
<!--
  Auto-generated from the reference HTML by
  scripts/storymode-extraction/extract.mjs.
  Do not edit by hand — regenerate the file instead.
-->
<svg xmlns="http://www.w3.org/2000/svg" xmlns:xlink="http://www.w3.org/1999/xlink" viewBox="0 0 500 260" preserveAspectRatio="xMidYMid meet">
                  <defs>
                    <radialGradient id="inflamed_s01_6" cx="50%" cy="50%" r="50%">
                      <stop offset="0%" stop-color="#d14859" stop-opacity="0.85"/>
                      <stop offset="60%" stop-color="#d14859" stop-opacity="0.35"/>
                      <stop offset="100%" stop-color="#e8a8a0" stop-opacity="0.1"/>
                    </radialGradient>
                  </defs>
                  <g transform="translate(250 150)">
                    <ellipse cx="0" cy="10" rx="130" ry="55" fill="#e8a8a0" opacity="0.15"/>
                    <ellipse cx="0" cy="0" rx="95" ry="48" fill="url(#inflamed_s01_6)"/>
                    <ellipse cx="0" cy="-5" rx="60" ry="35" fill="#d14859" opacity="0.38"/>
                    <g stroke="#e8a951" stroke-width="2" fill="none" opacity="0.9">
                      <path d="M -55 -62 Q -50 -72 -42 -68 Q -38 -78 -30 -75"/>
                      <path d="M -10 -72 Q -5 -82 3 -78 Q 7 -88 15 -85"/>
                      <path d="M 32 -62 Q 37 -72 45 -68 Q 49 -78 57 -75"/>
                    </g>
                    <ellipse cx="0" cy="15" rx="70" ry="8" fill="#e8a8a0" opacity="0.3"/>
                  </g>
                  <!-- RUBOR badge: red tissue patch -->
                  <g transform="translate(80 65)">
                    <ellipse cx="0" cy="0" rx="9" ry="6" fill="#d14859" opacity="0.85"/>
                    <ellipse cx="-2" cy="-1.5" rx="3" ry="2" fill="#e8a8a0" opacity="0.5"/>
                    <text x="16" y="4" style="fill:#d14859;font:800 11px Inter,sans-serif;letter-spacing:1px">RUBOR</text>
                  </g>
                  <!-- CALOR badge: flame icon -->
                  <g transform="translate(280 65)">
                    <path d="M 0 8 Q -7 5 -5 -3 Q -1 -8 0 -3 Q 3 -11 6 -2 Q 7 6 0 8 Z" fill="#e8a951" opacity="0.92" stroke="#a87b3c" stroke-width="0.6"/>
                    <text x="14" y="4" style="fill:#e8a951;font:800 11px Inter,sans-serif;letter-spacing:1px">CALOR</text>
                  </g>
                  <!-- TUMOR badge: swollen bulge -->
                  <g transform="translate(80 230)">
                    <path d="M -9 4 Q -8 -6 0 -7 Q 8 -6 9 4 Q 4 5 0 5 Q -4 5 -9 4 Z" fill="#4fb8a8" opacity="0.6" stroke="#4fb8a8" stroke-width="1.3"/>
                    <line x1="-9" y1="4" x2="9" y2="4" stroke="#4fb8a8" stroke-width="0.8" opacity="0.7"/>
                    <text x="16" y="4" style="fill:#4fb8a8;font:800 11px Inter,sans-serif;letter-spacing:1px">TUMOR</text>
                  </g>
                  <!-- 4th sign missing cue -->
                  <g transform="translate(365 230)">
                    <g transform="translate(-8 -4)">
                      <circle r="7" fill="none" stroke="#6b7689" stroke-width="1" stroke-dasharray="2 2" opacity="0.7"/>
                      <text x="0" y="3" text-anchor="middle" style="fill:#6b7689;font:700 9px Inter,sans-serif">?</text>
                    </g>
                    <text x="6" y="0" style="fill:#6b7689;font:italic 700 10px Inter,sans-serif">4th sign missing...</text>
                  </g>
                </svg>
