<?xml version="1.0" encoding="UTF-8"?>
<!--
  Auto-generated from the reference HTML by
  scripts/storymode-extraction/extract.mjs.
  Do not edit by hand — regenerate the file instead.
-->
<svg xmlns="http://www.w3.org/2000/svg" xmlns:xlink="http://www.w3.org/1999/xlink" viewBox="0 0 500 260" preserveAspectRatio="xMidYMid meet">
                  <!-- Title -->
                  <text x="20" y="22" style="fill:#e8a951;font:600 10px Inter,sans-serif;letter-spacing:2px">LYMPHANGITIS — RED STREAKS ON THE SKIN</text>
                  <!-- Gradient defs -->
                  <defs>
                    <linearGradient id="armSkin_s05_6" x1="0%" y1="0%" x2="0%" y2="100%">
                      <stop offset="0%" stop-color="#edb0a8"/>
                      <stop offset="55%" stop-color="#e8a8a0"/>
                      <stop offset="100%" stop-color="#c88a80"/>
                    </linearGradient>
                    <radialGradient id="nodeHalo_s05_6" cx="50%" cy="50%" r="50%">
                      <stop offset="0%" stop-color="#d14859" stop-opacity="0.28"/>
                      <stop offset="100%" stop-color="#d14859" stop-opacity="0"/>
                    </radialGradient>
                  </defs>
                  <!-- Main arm body: forearm + upper arm (rounded horizontal shape) -->
                  <path d="M 85 132 L 438 128 Q 475 130 478 150 Q 475 170 438 172 L 85 168 Q 80 150 85 132 Z" fill="url(#armSkin_s05_6)" stroke="#c88a80" stroke-width="1.3"/>
                  <!-- Palm (distal bulge, slightly wider than wrist) -->
                  <ellipse cx="65" cy="150" rx="24" ry="23" fill="url(#armSkin_s05_6)" stroke="#c88a80" stroke-width="1.3"/>
                  <!-- Thumb on side -->
                  <ellipse cx="52" cy="173" rx="13" ry="7" fill="url(#armSkin_s05_6)" stroke="#c88a80" stroke-width="1"/>
                  <!-- Fingers (drawn after palm so tips are visible above) -->
                  <g fill="url(#armSkin_s05_6)" stroke="#c88a80" stroke-width="1">
                    <rect x="36" y="112" width="7" height="22" rx="2.5"/>
                    <rect x="45" y="106" width="7" height="28" rx="2.5"/>
                    <rect x="54" y="106" width="7" height="28" rx="2.5"/>
                    <rect x="63" y="110" width="7" height="24" rx="2.5"/>
                  </g>
                  <!-- Shoulder/axilla bulge (proximal) -->
                  <ellipse cx="478" cy="150" rx="20" ry="25" fill="url(#armSkin_s05_6)" stroke="#c88a80" stroke-width="1.3"/>
                  <!-- Subtle elbow crease marking -->
                  <path d="M 288 134 Q 292 150 288 166" stroke="#c88a80" stroke-width="0.8" fill="none" opacity="0.45"/>
                  <!-- Wound on palm (broken-skin lesion) -->
                  <g transform="translate(68 150)">
                    <ellipse cx="0" cy="0" rx="14" ry="10" fill="#d14859" opacity="0.22"/>
                    <ellipse cx="0" cy="0" rx="8" ry="6" fill="#d14859" opacity="0.95"/>
                    <g stroke="#7a2030" stroke-width="0.9" fill="none" opacity="0.75">
                      <path d="M -4 -3 L 4 3"/>
                      <path d="M -3 3 L 4 -3"/>
                    </g>
                  </g>
                  <!-- Red streaks tracking along the skin (wound → axilla) -->
                  <g stroke="#d14859" fill="none" stroke-linecap="round">
                    <path d="M 92 142 Q 200 138 310 140 Q 390 141 442 144" stroke-width="2.3" opacity="0.85"/>
                    <path d="M 92 152 Q 200 152 310 151 Q 390 151 442 150" stroke-width="2.1" opacity="0.8"/>
                    <path d="M 94 162 Q 200 165 310 162 Q 390 159 442 156" stroke-width="2.1" opacity="0.8"/>
                  </g>
                  <!-- Inflamed enlarged lymph node at axilla (purple, with erythematous halo) -->
                  <g transform="translate(470 148)">
                    <ellipse cx="0" cy="0" rx="24" ry="20" fill="url(#nodeHalo_s05_6)"/>
                    <ellipse cx="0" cy="0" rx="13" ry="10" fill="#9370b9" opacity="0.62" stroke="#7a5a8f" stroke-width="1.5"/>
                    <g fill="#9370b9" opacity="0.85">
                      <circle cx="-4" cy="-3" r="2"/>
                      <circle cx="3" cy="-2" r="2"/>
                      <circle cx="-2" cy="3" r="2"/>
                      <circle cx="4" cy="4" r="2"/>
                    </g>
                  </g>
                  <!-- CALLOUT: WOUND -->
                  <line x1="68" y1="94" x2="68" y2="140" stroke="#d14859" stroke-width="0.8" stroke-dasharray="2 2" opacity="0.55"/>
                  <text x="68" y="75" text-anchor="middle" style="fill:#d14859;font:800 11px Inter,sans-serif;letter-spacing:2px">WOUND</text>
                  <text x="68" y="87" text-anchor="middle" style="fill:#b4becf;font:italic 8px Inter,sans-serif">infection source</text>
                  <!-- CALLOUT: RED STREAKS -->
                  <line x1="260" y1="94" x2="260" y2="144" stroke="#d14859" stroke-width="0.8" stroke-dasharray="2 2" opacity="0.55"/>
                  <text x="260" y="75" text-anchor="middle" style="fill:#d14859;font:800 11px Inter,sans-serif;letter-spacing:1.5px">RED STREAKS</text>
                  <text x="260" y="87" text-anchor="middle" style="fill:#b4becf;font:italic 8px Inter,sans-serif">inflamed lymphatic vessels</text>
                  <!-- CALLOUT: ENLARGED LN -->
                  <line x1="470" y1="94" x2="470" y2="132" stroke="#9370b9" stroke-width="0.8" stroke-dasharray="2 2" opacity="0.55"/>
                  <text x="470" y="75" text-anchor="middle" style="fill:#9370b9;font:800 11px Inter,sans-serif;letter-spacing:1.5px">ENLARGED LN</text>
                  <text x="470" y="87" text-anchor="middle" style="fill:#b4becf;font:italic 8px Inter,sans-serif">tender, proximal</text>
                  <!-- Direction axis -->
                  <g transform="translate(250 208)">
                    <text x="-220" y="0" text-anchor="start" style="fill:#6b7689;font:italic 700 9px Inter,sans-serif">← distal</text>
                    <text x="220" y="0" text-anchor="end" style="fill:#6b7689;font:italic 700 9px Inter,sans-serif">proximal →</text>
                    <text x="0" y="0" text-anchor="middle" style="fill:#6b7689;font:italic 8px Inter,sans-serif">infection tracks with lymph flow</text>
                  </g>
                  <!-- Emergency banner -->
                  <g transform="translate(250 240)">
                    <rect x="-142" y="-11" width="284" height="20" rx="3" fill="#d14859" opacity="0.13" stroke="#d14859" stroke-width="1.2"/>
                    <text x="0" y="4" text-anchor="middle" style="fill:#d14859;font:800 10px Inter,sans-serif;letter-spacing:2px">EMERGENCY — RISK OF BACTEREMIA &amp; SEPSIS</text>
                  </g>
                </svg>
