<?xml version="1.0" encoding="UTF-8"?>
<!--
  Auto-generated from the reference HTML by
  scripts/storymode-extraction/extract.mjs.
  Do not edit by hand — regenerate the file instead.
-->
<svg xmlns="http://www.w3.org/2000/svg" xmlns:xlink="http://www.w3.org/1999/xlink" viewBox="0 0 500 260" preserveAspectRatio="xMidYMid meet">
                  <g transform="translate(90 140)">
                    <g fill="#d14859" opacity="0.9">
                      <circle cx="-30" cy="0" r="7"/>
                      <circle cx="-20" cy="-4" r="7"/>
                      <circle cx="-10" cy="3" r="7"/>
                      <circle cx="0" cy="-3" r="7"/>
                      <circle cx="10" cy="3" r="7"/>
                      <circle cx="20" cy="-2" r="7"/>
                      <circle cx="30" cy="2" r="7"/>
                      <circle cx="40" cy="-4" r="7"/>
                      <circle cx="50" cy="3" r="7"/>
                    </g>
                    <text x="10" y="-22" text-anchor="middle" style="fill:#d14859;font:700 10px Inter,sans-serif">bradykinin</text>
                  </g>
                  <g transform="translate(230 140)">
                    <path d="M -22 -28 L -2 -4 L -22 20" fill="none" stroke="#e8a951" stroke-width="4" stroke-linecap="round"/>
                    <path d="M 22 -28 L 2 -4 L 22 20" fill="none" stroke="#e8a951" stroke-width="4" stroke-linecap="round"/>
                    <circle cx="-18" cy="-28" r="8" fill="none" stroke="#e8a951" stroke-width="3"/>
                    <circle cx="18" cy="-28" r="8" fill="none" stroke="#e8a951" stroke-width="3"/>
                    <circle cx="0" cy="-3" r="3" fill="#e8a951"/>
                    <text x="0" y="45" text-anchor="middle" style="fill:#e8a951;font:700 12px Inter,sans-serif;letter-spacing:1px">ACE</text>
                  </g>
                  <g transform="translate(380 140)">
                    <g fill="#6b7689" opacity="0.55">
                      <circle cx="-20" cy="-3" r="5"/>
                      <circle cx="-10" cy="2" r="5"/>
                    </g>
                    <g fill="#6b7689" opacity="0.55">
                      <circle cx="20" cy="-2" r="5"/>
                      <circle cx="28" cy="3" r="5"/>
                      <circle cx="35" cy="-3" r="5"/>
                    </g>
                    <text x="10" y="-20" text-anchor="middle" style="fill:#6b7689;font:italic 9px Inter,sans-serif">inactive fragments</text>
                  </g>
                  <path d="M 155 140 L 200 140" stroke="#6b7689" stroke-width="1.3" stroke-dasharray="2 2"/>
                  <path d="M 260 140 L 355 140" stroke="#6b7689" stroke-width="1.3" stroke-dasharray="2 2"/>
                  <polygon points="355,140 347,135 347,145" fill="#6b7689"/>
                </svg>
