<?xml version="1.0" encoding="UTF-8"?>
<!--
  Auto-generated from the reference HTML by
  scripts/storymode-extraction/extract.mjs.
  Do not edit by hand — regenerate the file instead.
-->
<svg xmlns="http://www.w3.org/2000/svg" xmlns:xlink="http://www.w3.org/1999/xlink" viewBox="0 0 500 260" preserveAspectRatio="xMidYMid meet">
                  <g transform="translate(250 145)">
                    <path d="M -100 -30 Q -115 -5 -105 30 Q -80 55 -30 60 Q 30 62 80 48 Q 115 30 110 -5 Q 100 -35 60 -45 Q 0 -50 -60 -42 Q -95 -38 -100 -30" fill="#e8a8a0" opacity="0.4" stroke="#d14859" stroke-width="2"/>
                    <g stroke="#c88a80" stroke-width="1" fill="none" opacity="0.4">
                      <line x1="-80" y1="-20" x2="80" y2="-20"/>
                      <line x1="-90" y1="0" x2="100" y2="0"/>
                      <line x1="-85" y1="20" x2="90" y2="20"/>
                      <line x1="-40" y1="-40" x2="-40" y2="50"/>
                      <line x1="0" y1="-45" x2="0" y2="55"/>
                      <line x1="40" y1="-42" x2="40" y2="52"/>
                    </g>
                    <g fill="#e8a951" stroke="#a87b3c" stroke-width="1">
                      <circle cx="-60" cy="-15" r="7"/>
                      <circle cx="-35" cy="8" r="7"/>
                      <circle cx="-15" cy="-22" r="7"/>
                      <circle cx="10" cy="-8" r="7"/>
                      <circle cx="35" cy="15" r="7"/>
                      <circle cx="60" cy="-10" r="7"/>
                      <circle cx="80" cy="15" r="7"/>
                      <circle cx="-70" cy="20" r="6"/>
                      <circle cx="-25" cy="30" r="6"/>
                      <circle cx="20" cy="25" r="6"/>
                      <circle cx="55" cy="30" r="6"/>
                      <circle cx="-50" cy="-35" r="6"/>
                      <circle cx="25" cy="-38" r="6"/>
                      <circle cx="70" cy="-28" r="6"/>
                    </g>
                  </g>
                  <g transform="translate(80 75)">
                    <ellipse cx="0" cy="0" rx="22" ry="28" fill="#e8a951" opacity="0.8"/>
                    <text x="0" y="45" text-anchor="middle" style="fill:#e8a951;font:italic 9px Inter,sans-serif">jaundice</text>
                  </g>
                </svg>
