<?xml version="1.0" encoding="UTF-8"?>
<!--
  Auto-generated from the reference HTML by
  scripts/storymode-extraction/extract.mjs.
  Do not edit by hand — regenerate the file instead.
-->
<svg xmlns="http://www.w3.org/2000/svg" xmlns:xlink="http://www.w3.org/1999/xlink" viewBox="0 0 500 260" preserveAspectRatio="xMidYMid meet">
                  <text x="20" y="24" style="fill:#e8a951;font:600 10px Inter,sans-serif;letter-spacing:2px">TWO CLINICAL DISEASES ON THIS PIPELINE</text>
                  <g transform="translate(60 130)">
                    <rect x="-22" y="-16" width="44" height="32" rx="4" fill="#111826" stroke="#6b7689" stroke-width="1.2"/>
                    <text x="0" y="4" text-anchor="middle" style="fill:#b4becf;font:700 11px Inter,sans-serif">O₂</text>
                  </g>
                  <g transform="translate(170 130)">
                    <rect x="-22" y="-16" width="44" height="32" rx="4" fill="#e8a951" opacity="0.6"/>
                    <text x="0" y="4" text-anchor="middle" style="fill:#0a0e1a;font:700 11px Inter,sans-serif">O₂⁻</text>
                  </g>
                  <g transform="translate(285 130)">
                    <rect x="-24" y="-16" width="48" height="32" rx="4" fill="#e8a951" opacity="0.8"/>
                    <text x="0" y="4" text-anchor="middle" style="fill:#0a0e1a;font:700 11px Inter,sans-serif">H₂O₂</text>
                  </g>
                  <g transform="translate(410 130)">
                    <rect x="-28" y="-16" width="56" height="32" rx="4" fill="#e8a951"/>
                    <text x="0" y="4" text-anchor="middle" style="fill:#0a0e1a;font:700 12px Inter,sans-serif">HOCl</text>
                  </g>
                  <line x1="88" y1="130" x2="142" y2="130" stroke="#e8a951" stroke-width="1.3"/>
                  <polygon points="148,130 140,126 140,134" fill="#e8a951"/>
                  <line x1="198" y1="130" x2="256" y2="130" stroke="#e8a951" stroke-width="1.3"/>
                  <polygon points="262,130 254,126 254,134" fill="#e8a951"/>
                  <line x1="315" y1="130" x2="378" y2="130" stroke="#e8a951" stroke-width="1.3"/>
                  <polygon points="383,130 375,126 375,134" fill="#e8a951"/>
                  <g transform="translate(115 195)">
                    <circle r="14" fill="none" stroke="#d14859" stroke-width="2"/>
                    <line x1="-8" y1="-8" x2="8" y2="8" stroke="#d14859" stroke-width="2"/>
                    <line x1="8" y1="-8" x2="-8" y2="8" stroke="#d14859" stroke-width="2"/>
                    <text x="28" y="-2" style="fill:#d14859;font:700 11px Inter,sans-serif;letter-spacing:1px">CGD</text>
                    <text x="28" y="10" style="fill:#b4becf;font:italic 9px Inter,sans-serif">(NADPH ox. broken)</text>
                  </g>
                  <g transform="translate(355 195)">
                    <circle r="14" fill="none" stroke="#d14859" stroke-width="2"/>
                    <line x1="-8" y1="-8" x2="8" y2="8" stroke="#d14859" stroke-width="2"/>
                    <line x1="8" y1="-8" x2="-8" y2="8" stroke="#d14859" stroke-width="2"/>
                    <text x="28" y="-2" style="fill:#d14859;font:700 11px Inter,sans-serif;letter-spacing:1px">MPO def.</text>
                    <text x="28" y="10" style="fill:#b4becf;font:italic 9px Inter,sans-serif">(MPO broken)</text>
                  </g>
                </svg>
