<?xml version="1.0" encoding="UTF-8"?>
<!--
  Auto-generated from the reference HTML by
  scripts/storymode-extraction/extract.mjs.
  Do not edit by hand — regenerate the file instead.
-->
<svg xmlns="http://www.w3.org/2000/svg" xmlns:xlink="http://www.w3.org/1999/xlink" viewBox="0 0 500 260" preserveAspectRatio="xMidYMid meet">
                  <text x="20" y="38" style="fill:#e8a951;font:600 10px Inter,sans-serif;letter-spacing:2px">PATTERNS EXIST ON GERMS — NOT ON YOU</text>
                  <text x="100" y="75" text-anchor="middle" style="fill:#4fb8a8;font:600 10px Inter,sans-serif;letter-spacing:1.5px">HOST CELL</text>
                  <g transform="translate(100 152)">
                    <circle r="48" fill="#4fb8a8" opacity="0.15" stroke="#4fb8a8" stroke-width="1.3"/>
                    <ellipse cx="-6" cy="-5" rx="15" ry="10" fill="#3a8a7e" opacity="0.45"/>
                  </g>
                  <text x="100" y="220" text-anchor="middle" style="fill:#6b7689;font:italic 10px Inter,sans-serif">clean surface</text>
                  <text x="100" y="236" text-anchor="middle" style="fill:#4fb8a8;font:600 10px Inter,sans-serif">no patterns = safe</text>
                  <g transform="translate(250 155)">
                    <circle r="22" fill="#0a0e1a" stroke="#e8a951" stroke-width="1.5"/>
                    <text x="0" y="5" text-anchor="middle" style="fill:#e8a951;font:700 13px Inter,sans-serif;letter-spacing:1px">vs</text>
                  </g>
                  <text x="400" y="75" text-anchor="middle" style="fill:#d14859;font:600 10px Inter,sans-serif;letter-spacing:1.5px">BACTERIUM</text>
                  <g transform="translate(400 152)">
                    <ellipse cx="0" cy="0" rx="40" ry="30" fill="#d14859" opacity="0.2" stroke="#d14859" stroke-width="1.3"/>
                    <g stroke="#e8a951" stroke-width="1.8" fill="#e8a951">
                      <circle cx="-25" cy="-22" r="2"/><line x1="-25" y1="-22" x2="-25" y2="-33"/>
                      <circle cx="-10" cy="-29" r="2"/><line x1="-10" y1="-29" x2="-10" y2="-40"/>
                      <circle cx="10" cy="-29" r="2"/><line x1="10" y1="-29" x2="10" y2="-40"/>
                      <circle cx="25" cy="-22" r="2"/><line x1="25" y1="-22" x2="25" y2="-33"/>
                      <circle cx="36" cy="-8" r="2"/><line x1="36" y1="-8" x2="47" y2="-8"/>
                      <circle cx="36" cy="10" r="2"/><line x1="36" y1="10" x2="47" y2="10"/>
                      <circle cx="25" cy="22" r="2"/><line x1="25" y1="22" x2="25" y2="33"/>
                      <circle cx="0" cy="28" r="2"/><line x1="0" y1="28" x2="0" y2="39"/>
                      <circle cx="-25" cy="22" r="2"/><line x1="-25" y1="22" x2="-25" y2="33"/>
                      <circle cx="-36" cy="10" r="2"/><line x1="-36" y1="10" x2="-47" y2="10"/>
                      <circle cx="-36" cy="-8" r="2"/><line x1="-36" y1="-8" x2="-47" y2="-8"/>
                    </g>
                  </g>
                  <text x="400" y="220" text-anchor="middle" style="fill:#6b7689;font:italic 10px Inter,sans-serif">covered in patterns</text>
                  <text x="400" y="236" text-anchor="middle" style="fill:#d14859;font:600 10px Inter,sans-serif">LPS · peptidoglycan · RNA</text>
                </svg>
