<?xml version="1.0" encoding="UTF-8"?>
<!--
  Auto-generated from the reference HTML by
  scripts/storymode-extraction/extract.mjs.
  Do not edit by hand — regenerate the file instead.
-->
<svg xmlns="http://www.w3.org/2000/svg" xmlns:xlink="http://www.w3.org/1999/xlink" viewBox="0 0 500 260" preserveAspectRatio="xMidYMid meet">
                  <g transform="translate(140 145)">
                    <path d="M -20 -40 Q -30 -20 -25 20 Q -15 40 0 42 Q 15 40 25 20 Q 30 -20 20 -40 Q 0 -50 -20 -40" fill="#4fb8a8" opacity="0.7" stroke="#4fb8a8" stroke-width="1.5"/>
                    <g fill="#4fb8a8" opacity="0.85">
                      <circle cx="-8" cy="-10" r="3"/>
                      <circle cx="8" cy="-5" r="3"/>
                      <circle cx="-6" cy="10" r="3"/>
                      <circle cx="8" cy="15" r="3"/>
                      <circle cx="0" cy="0" r="3"/>
                    </g>
                    <text x="0" y="60" text-anchor="middle" style="fill:#4fb8a8;font:italic 700 9px Inter,sans-serif">young thymus</text>
                  </g>
                  <g transform="translate(360 145)">
                    <path d="M -12 -25 Q -18 -10 -15 12 Q -8 25 0 26 Q 8 25 15 12 Q 18 -10 12 -25 Q 0 -32 -12 -25" fill="#6b7689" opacity="0.4" stroke="#6b7689" stroke-width="1.3" stroke-dasharray="2 2"/>
                    <g fill="#e8a951" opacity="0.6">
                      <circle cx="-6" cy="-2" r="3"/>
                      <circle cx="4" cy="6" r="3"/>
                    </g>
                    <text x="0" y="60" text-anchor="middle" style="fill:#6b7689;font:italic 700 9px Inter,sans-serif">old: fat replaced</text>
                  </g>
                  <g stroke="#6b7689" stroke-width="1.5" fill="none">
                    <path d="M 175 145 L 325 145"/>
                    <polygon points="330,145 322,141 322,149" fill="#6b7689"/>
                  </g>
                  <text x="250" y="135" text-anchor="middle" style="fill:#6b7689;font:italic 9px Inter,sans-serif">decades</text>
                </svg>
