<?xml version="1.0" encoding="UTF-8"?>
<!--
  Auto-generated from the reference HTML by
  scripts/storymode-extraction/extract.mjs.
  Do not edit by hand — regenerate the file instead.
-->
<svg xmlns="http://www.w3.org/2000/svg" xmlns:xlink="http://www.w3.org/1999/xlink" viewBox="0 0 1200 620" preserveAspectRatio="xMidYMid meet">
      <defs>
        <marker id="bpArrow" viewBox="0 0 10 10" refX="9" refY="5" markerWidth="5" markerHeight="5" orient="auto">
          <path d="M 0 0 L 10 5 L 0 10 z" fill="#e8a951"/>
        </marker>
      </defs>
      <style>
        .bp-title { fill: #e8a951; font: 700 15px "Inter", sans-serif; letter-spacing: 4px; }
        .bp-subtitle { fill: #b4becf; font: italic 400 12px "Fraunces", serif; }
        .bp-zone-tag { fill: #e8a951; font: 700 10px "Inter", sans-serif; letter-spacing: 2.5px; }
        .bp-anat { fill: #6b7689; font: 600 9px "Inter", sans-serif; letter-spacing: 2.5px; }
        .bp-stage-num { fill: #0a0e1a; font: 800 13px "Inter", sans-serif; }
        .bp-stage-label { fill: #e8ecf3; font: 700 11px "Inter", sans-serif; letter-spacing: 0.5px; }
        .bp-stage-sub { fill: #b4becf; font: italic 400 9.5px "Fraunces", serif; }
        .bp-defect-tag { fill: #d14859; font: 700 9.5px "Inter", sans-serif; letter-spacing: 1px; }
        .bp-defect-sub { fill: #b47a82; font: italic 400 9px "Inter", sans-serif; }
        .bp-note { fill: #6b7689; font: italic 400 9.5px "Fraunces", serif; }
      </style>

      <text x="600" y="28" text-anchor="middle" class="bp-title">THE INNATE IMMUNE CASCADE</text>
      <text x="600" y="48" text-anchor="middle" class="bp-subtitle">From breach to cleanup — nine stages, four ways it can break</text>
      <line x1="80" y1="62" x2="1120" y2="62" stroke="#222c3e" stroke-width="1"/>

      <!-- ZONE HEADERS -->
      <g transform="translate(0 82)">
        <rect x="80" y="0" width="320" height="22" rx="3" fill="#e8a951" fill-opacity="0.08" stroke="#e8a951" stroke-width="0.8"/>
        <text x="240" y="15" text-anchor="middle" class="bp-zone-tag">1. DETECTION</text>
        <rect x="420" y="0" width="360" height="22" rx="3" fill="#4fb8a8" fill-opacity="0.08" stroke="#4fb8a8" stroke-width="0.8"/>
        <text x="600" y="15" text-anchor="middle" class="bp-zone-tag" style="fill:#4fb8a8">2. RECRUITMENT</text>
        <rect x="800" y="0" width="320" height="22" rx="3" fill="#9370b9" fill-opacity="0.08" stroke="#9370b9" stroke-width="0.8"/>
        <text x="960" y="15" text-anchor="middle" class="bp-zone-tag" style="fill:#9370b9">3. KILLING</text>
      </g>

      <!-- ANATOMICAL BANDS -->
      <rect x="80" y="320" width="1040" height="130" rx="4" fill="#e8a8a0" fill-opacity="0.03"/>
      <text x="92" y="440" class="bp-anat">TISSUE</text>
      <line x1="80" y1="320" x2="1120" y2="320" stroke="#4fb8a8" stroke-width="1.5" opacity="0.85"/>
      <text x="1108" y="315" text-anchor="end" class="bp-anat" style="fill:#4fb8a8">ENDOTHELIUM</text>
      <rect x="80" y="200" width="1040" height="120" rx="4" fill="#d14859" fill-opacity="0.04"/>
      <line x1="80" y1="200" x2="1120" y2="200" stroke="#4fb8a8" stroke-width="1.5" opacity="0.85"/>
      <text x="92" y="214" class="bp-anat" style="fill:#4fb8a8">VESSEL LUMEN</text>
      <g transform="translate(110 150)">
        <line x1="0" y1="0" x2="0" y2="170" stroke="#d14859" stroke-width="2" stroke-dasharray="3 2" opacity="0.6"/>
        <text x="-5" y="-5" text-anchor="end" class="bp-anat" style="fill:#d14859">SKIN</text>
      </g>

      <!-- STAGE 1 BREACH -->
      <g transform="translate(155 370)">
        <ellipse cx="0" cy="0" rx="11" ry="5" fill="#d14859" opacity="0.9" stroke="#a33648" stroke-width="0.8"/>
        <ellipse cx="16" cy="-4" rx="9" ry="4.5" fill="#d14859" opacity="0.85" stroke="#a33648" stroke-width="0.8"/>
        <circle cx="-22" cy="-32" r="14" fill="#e8a951"/>
        <text x="-22" y="-28" text-anchor="middle" class="bp-stage-num">1</text>
        <text x="8" y="28" text-anchor="middle" class="bp-stage-label">BREACH</text>
        <text x="8" y="42" text-anchor="middle" class="bp-stage-sub">skin broken</text>
        <text x="8" y="54" text-anchor="middle" class="bp-stage-sub">bacterium enters</text>
      </g>

      <line x1="195" y1="360" x2="240" y2="360" stroke="#e8a951" stroke-width="1.3" marker-end="url(#bpArrow)" opacity="0.7"/>

      <!-- STAGE 2 DETECT -->
      <g transform="translate(290 370)">
        <ellipse cx="0" cy="0" rx="28" ry="22" fill="#9370b9" fill-opacity="0.55" stroke="#9370b9" stroke-width="1.5"/>
        <ellipse cx="-5" cy="-2" rx="10" ry="7" fill="#4a2d60" opacity="0.65"/>
        <g>
          <line x1="-12" y1="-22" x2="-12" y2="-30" stroke="#e8a951" stroke-width="1.2"/>
          <rect x="-15" y="-35" width="6" height="6" rx="1" fill="#e8a951"/>
          <line x1="0" y1="-22" x2="0" y2="-32" stroke="#e8a951" stroke-width="1.2"/>
          <rect x="-3" y="-37" width="6" height="6" rx="1" fill="#e8a951"/>
          <line x1="12" y1="-22" x2="12" y2="-30" stroke="#e8a951" stroke-width="1.2"/>
          <rect x="9" y="-35" width="6" height="6" rx="1" fill="#e8a951"/>
        </g>
        <text x="0" y="-44" text-anchor="middle" style="fill:#e8a951;font:italic 700 8px Inter,sans-serif">TLRs</text>
        <circle cx="-32" cy="-30" r="14" fill="#e8a951"/>
        <text x="-32" y="-26" text-anchor="middle" class="bp-stage-num">2</text>
        <text x="0" y="42" text-anchor="middle" class="bp-stage-label">DETECT</text>
        <text x="0" y="56" text-anchor="middle" class="bp-stage-sub">macrophage TLR</text>
        <text x="0" y="68" text-anchor="middle" class="bp-stage-sub">binds the PAMP</text>
      </g>

      <line x1="340" y1="360" x2="380" y2="360" stroke="#e8a951" stroke-width="1.3" marker-end="url(#bpArrow)" opacity="0.7"/>

      <!-- STAGE 3 SIGNAL -->
      <g transform="translate(410 370)">
        <rect x="-22" y="-9" width="44" height="18" rx="3" fill="#e8a951" opacity="0.95"/>
        <text x="0" y="4" text-anchor="middle" style="fill:#0a0e1a;font:700 10px Inter,sans-serif">NF-κB</text>
        <circle cx="-32" cy="-26" r="14" fill="#e8a951"/>
        <text x="-32" y="-22" text-anchor="middle" class="bp-stage-num">3</text>
        <g fill="#e8a951" opacity="0.85">
          <circle cx="-6" cy="-26" r="2.3"/>
          <circle cx="2" cy="-36" r="2.3"/>
          <circle cx="10" cy="-50" r="2.3"/>
          <circle cx="-12" cy="-52" r="2.3"/>
          <circle cx="0" cy="-62" r="2.3"/>
        </g>
        <text x="-70" y="-78" style="fill:#e8a951;font:italic 700 9px Inter,sans-serif">↑ cytokines</text>
        <text x="-70" y="-66" class="bp-stage-sub">IL-1 · TNF · IL-8</text>
        <text x="0" y="30" text-anchor="middle" class="bp-stage-label">SIGNAL</text>
        <text x="0" y="44" text-anchor="middle" class="bp-stage-sub">NF-κB activated</text>
        <text x="0" y="56" text-anchor="middle" class="bp-stage-sub">cytokines released</text>
      </g>

      <line x1="430" y1="300" x2="520" y2="225" stroke="#e8a951" stroke-width="1.2" stroke-dasharray="3 3" opacity="0.65" marker-end="url(#bpArrow)"/>

      <!-- STAGE 4 VESSEL LIGHTS UP -->
      <g transform="translate(570 260)">
        <g stroke="#e8a951" stroke-width="1.3" fill="#e8a951">
          <line x1="-20" y1="60" x2="-20" y2="50"/>
          <circle cx="-20" cy="48" r="2.5"/>
          <line x1="-10" y1="60" x2="-10" y2="48"/>
          <circle cx="-10" cy="46" r="2.5"/>
          <line x1="0" y1="60" x2="0" y2="50"/>
          <circle cx="0" cy="48" r="2.5"/>
          <line x1="10" y1="60" x2="10" y2="48"/>
          <circle cx="10" cy="46" r="2.5"/>
          <line x1="20" y1="60" x2="20" y2="50"/>
          <circle cx="20" cy="48" r="2.5"/>
        </g>
        <circle cx="-45" cy="40" r="14" fill="#e8a951"/>
        <text x="-45" y="44" text-anchor="middle" class="bp-stage-num">4</text>
        <text x="0" y="-14" text-anchor="middle" class="bp-stage-label" style="fill:#4fb8a8">VESSEL LIGHTS UP</text>
        <text x="0" y="0" text-anchor="middle" class="bp-stage-sub">selectins · ICAM-1 up</text>
      </g>

      <!-- STAGE 5 RECRUIT -->
      <text x="770" y="232" text-anchor="middle" class="bp-stage-label" style="fill:#4fb8a8">RECRUIT</text>
      <g transform="translate(780 240)">
        <circle cx="-80" cy="20" r="11" fill="#e8a951" opacity="0.85" stroke="#c08537" stroke-width="0.8"/>
        <circle cx="-83" cy="18" r="2" fill="#8a5a2b"/>
        <circle cx="-77" cy="22" r="2" fill="#8a5a2b"/>
        <text x="-80" y="4" text-anchor="middle" style="fill:#b4becf;font:italic 8px Inter,sans-serif">roll</text>
        <circle cx="-25" cy="32" r="11" fill="#e8a951" opacity="0.9" stroke="#c08537" stroke-width="0.8"/>
        <circle cx="-28" cy="30" r="2" fill="#8a5a2b"/>
        <circle cx="-22" cy="34" r="2" fill="#8a5a2b"/>
        <text x="-25" y="16" text-anchor="middle" style="fill:#b4becf;font:italic 8px Inter,sans-serif">stick</text>
        <ellipse cx="35" cy="75" rx="11" ry="7" fill="#e8a951" opacity="0.9" stroke="#c08537" stroke-width="0.8"/>
        <circle cx="32" cy="74" r="1.8" fill="#8a5a2b"/>
        <circle cx="38" cy="77" r="1.8" fill="#8a5a2b"/>
        <text x="72" y="78" style="fill:#b4becf;font:italic 8px Inter,sans-serif">cross</text>
        <line x1="-65" y1="25" x2="-40" y2="30" stroke="#e8a951" stroke-width="1" stroke-dasharray="2 2" opacity="0.6" marker-end="url(#bpArrow)"/>
        <line x1="-10" y1="40" x2="20" y2="65" stroke="#e8a951" stroke-width="1" stroke-dasharray="2 2" opacity="0.6" marker-end="url(#bpArrow)"/>
        <circle cx="-100" cy="15" r="14" fill="#e8a951"/>
        <text x="-100" y="19" text-anchor="middle" class="bp-stage-num">5</text>
      </g>

      <!-- STAGE 6 CHEMOTAX -->
      <g transform="translate(860 370)">
        <circle cx="0" cy="0" r="12" fill="#e8a951" opacity="0.9" stroke="#c08537" stroke-width="0.8"/>
        <circle cx="-3" cy="-2" r="2" fill="#8a5a2b"/>
        <circle cx="3" cy="2" r="2" fill="#8a5a2b"/>
        <g fill="#e8a951" opacity="0.6">
          <circle cx="-20" cy="-5" r="1.8"/>
          <circle cx="-30" cy="3" r="1.8"/>
          <circle cx="-40" cy="-2" r="1.8"/>
          <circle cx="-25" cy="5" r="1.5"/>
          <circle cx="-35" cy="-5" r="1.5"/>
        </g>
        <circle cx="-22" cy="-28" r="14" fill="#e8a951"/>
        <text x="-22" y="-24" text-anchor="middle" class="bp-stage-num">6</text>
        <text x="0" y="28" text-anchor="middle" class="bp-stage-label">CHEMOTAX</text>
        <text x="0" y="42" text-anchor="middle" class="bp-stage-sub">follow IL-8 gradient</text>
      </g>

      <line x1="900" y1="360" x2="935" y2="360" stroke="#9370b9" stroke-width="1.3" marker-end="url(#bpArrow)" opacity="0.7"/>

      <!-- STAGE 7 EAT -->
      <g transform="translate(970 370)">
        <path d="M -16 0 Q -20 -16 -4 -20 Q 10 -22 18 -8 Q 22 10 8 18 Q -8 22 -18 10 Q -20 5 -16 0 Z"
              fill="#e8a951" opacity="0.9" stroke="#c08537" stroke-width="1"/>
        <circle cx="-5" cy="-2" r="2" fill="#8a5a2b"/>
        <circle cx="5" cy="3" r="2" fill="#8a5a2b"/>
        <ellipse cx="0" cy="-1" rx="5" ry="3" fill="#d14859" opacity="0.7" stroke="#a33648" stroke-width="0.5"/>
        <circle cx="0" cy="-1" r="9" fill="none" stroke="#e8a951" stroke-width="0.8" stroke-dasharray="2 1.5" opacity="0.6"/>
        <circle cx="-24" cy="-28" r="14" fill="#e8a951"/>
        <text x="-24" y="-24" text-anchor="middle" class="bp-stage-num">7</text>
        <text x="0" y="38" text-anchor="middle" class="bp-stage-label">EAT</text>
        <text x="0" y="52" text-anchor="middle" class="bp-stage-sub">phagocytose</text>
      </g>

      <line x1="1010" y1="360" x2="1050" y2="360" stroke="#9370b9" stroke-width="1.3" marker-end="url(#bpArrow)" opacity="0.7"/>

      <!-- STAGE 8 KILL -->
      <g transform="translate(1085 370)">
        <circle cx="0" cy="0" r="20" fill="#d14859" opacity="0.25" stroke="#d14859" stroke-width="1.2"/>
        <circle cx="0" cy="0" r="10" fill="#d14859" opacity="0.55"/>
        <g fill="#e8a951">
          <circle cx="-10" cy="-10" r="1.5"/>
          <circle cx="10" cy="-8" r="1.5"/>
          <circle cx="-12" cy="8" r="1.5"/>
          <circle cx="11" cy="10" r="1.5"/>
          <circle cx="0" cy="-14" r="1.5"/>
          <circle cx="0" cy="14" r="1.5"/>
        </g>
        <circle cx="-24" cy="-28" r="14" fill="#e8a951"/>
        <text x="-24" y="-24" text-anchor="middle" class="bp-stage-num">8</text>
        <text x="0" y="38" text-anchor="middle" class="bp-stage-label" style="fill:#9370b9">KILL</text>
        <text x="0" y="52" text-anchor="middle" class="bp-stage-sub">ROS · MPO · HOCl</text>
      </g>

      <!-- DEFECT ROW -->
      <line x1="80" y1="475" x2="1120" y2="475" stroke="#222c3e" stroke-width="1"/>
      <text x="600" y="494" text-anchor="middle" class="bp-zone-tag" style="fill:#d14859">FOUR WAYS THIS CHAIN BREAKS</text>
      <text x="600" y="508" text-anchor="middle" class="bp-note">each defect is a station in this module</text>

      <!-- LAD defect -->
      <g transform="translate(750 565)">
        <rect x="-52" y="-18" width="104" height="36" rx="4" fill="#d14859" fill-opacity="0.12" stroke="#d14859" stroke-width="1.2"/>
        <text x="0" y="-3" text-anchor="middle" class="bp-defect-tag">LAD</text>
        <text x="0" y="12" text-anchor="middle" class="bp-defect-sub">CD18 mutation — no grip</text>
        <line x1="0" y1="-18" x2="0" y2="-245" stroke="#d14859" stroke-width="0.8" stroke-dasharray="3 3" opacity="0.4"/>
      </g>

      <!-- Chédiak defect -->
      <g transform="translate(880 565)">
        <rect x="-52" y="-18" width="104" height="36" rx="4" fill="#d14859" fill-opacity="0.12" stroke="#d14859" stroke-width="1.2"/>
        <text x="0" y="-3" text-anchor="middle" class="bp-defect-tag">CHÉDIAK</text>
        <text x="0" y="12" text-anchor="middle" class="bp-defect-sub">LYST — no fusion</text>
        <line x1="0" y1="-18" x2="90" y2="-175" stroke="#d14859" stroke-width="0.8" stroke-dasharray="3 3" opacity="0.4"/>
      </g>

      <!-- CGD defect -->
      <g transform="translate(1000 565)">
        <rect x="-52" y="-18" width="104" height="36" rx="4" fill="#d14859" fill-opacity="0.12" stroke="#d14859" stroke-width="1.2"/>
        <text x="0" y="-3" text-anchor="middle" class="bp-defect-tag">CGD</text>
        <text x="0" y="12" text-anchor="middle" class="bp-defect-sub">NADPH ox — no ROS</text>
        <line x1="0" y1="-18" x2="80" y2="-175" stroke="#d14859" stroke-width="0.8" stroke-dasharray="3 3" opacity="0.4"/>
      </g>

      <!-- MPO defect -->
      <g transform="translate(1115 565)">
        <rect x="-52" y="-18" width="104" height="36" rx="4" fill="#d14859" fill-opacity="0.12" stroke="#d14859" stroke-width="1.2"/>
        <text x="0" y="-3" text-anchor="middle" class="bp-defect-tag">MPO DEF</text>
        <text x="0" y="12" text-anchor="middle" class="bp-defect-sub">no HOCl made</text>
        <line x1="0" y1="-18" x2="-30" y2="-175" stroke="#d14859" stroke-width="0.8" stroke-dasharray="3 3" opacity="0.4"/>
      </g>

    </svg>
