<?xml version="1.0" encoding="UTF-8"?>
<!--
  Auto-generated from the reference HTML by
  scripts/storymode-extraction/extract.mjs.
  Do not edit by hand — regenerate the file instead.
-->
<svg xmlns="http://www.w3.org/2000/svg" xmlns:xlink="http://www.w3.org/1999/xlink" viewBox="0 0 500 260" preserveAspectRatio="xMidYMid meet">
                  <g transform="translate(250 135)">
                    <circle cx="0" cy="-85" r="22" fill="#6b7689" opacity="0.4" stroke="#6b7689" stroke-width="1.2"/>
                    <rect x="-30" y="-62" width="60" height="80" rx="8" fill="#6b7689" opacity="0.35" stroke="#6b7689" stroke-width="1.2"/>
                    <path d="M -30 -50 Q -55 -40 -75 -15 L -85 40 M 30 -50 Q 55 -40 75 -15 L 85 40" stroke="#6b7689" stroke-width="12" fill="none" opacity="0.35" stroke-linecap="round"/>
                    <path d="M -22 18 L -28 80 M 22 18 L 28 80" stroke="#6b7689" stroke-width="13" fill="none" opacity="0.35" stroke-linecap="round"/>
                    <g transform="translate(-82 -30)">
                      <ellipse rx="10" ry="7" fill="#4fb8a8" opacity="0.75" stroke="#4fb8a8" stroke-width="1.5"/>
                      <circle r="16" fill="none" stroke="#d14859" stroke-width="2" stroke-dasharray="2 2"/>
                      <text x="-16" y="4" text-anchor="end" style="fill:#d14859;font:italic 700 8px Inter,sans-serif">axillary</text>
                      <text x="-16" y="15" text-anchor="end" style="fill:#b4becf;font:italic 7px Inter,sans-serif">node</text>
                    </g>
                    <g transform="translate(-85 35)">
                      <path d="M 0 0 L 5 -8 L -3 -4 L 3 4 L -5 10" stroke="#d14859" stroke-width="1.5" fill="none" opacity="0.9"/>
                      <circle cx="-3" cy="12" r="2" fill="#d14859"/>
                      <text x="20" y="0" style="fill:#d14859;font:italic 700 8px Inter,sans-serif">scratch</text>
                    </g>
                  </g>
                  <g stroke="#4fb8a8" stroke-width="1.5" fill="none" stroke-dasharray="3 2">
                    <path d="M 165 175 Q 160 130 168 105"/>
                    <polygon points="168,102 165,110 173,108" fill="#4fb8a8"/>
                  </g>
                </svg>
