<?xml version="1.0" encoding="UTF-8"?>
<!--
  Auto-generated from the reference HTML by
  scripts/storymode-extraction/extract.mjs.
  Do not edit by hand — regenerate the file instead.
-->
<svg xmlns="http://www.w3.org/2000/svg" xmlns:xlink="http://www.w3.org/1999/xlink" viewBox="0 0 500 260" preserveAspectRatio="xMidYMid meet">
                  <g transform="translate(125 145)">
                    <rect x="-45" y="-40" width="90" height="80" rx="10" fill="#e8a951" opacity="0.55" stroke="#a87b3c" stroke-width="1.5"/>
                    <rect x="-30" y="-50" width="60" height="14" rx="4" fill="#a87b3c"/>
                    <path d="M -5 -5 L 5 -5 L 5 15 L 15 15 L 15 -5 L 25 -5 L 25 -15 L 15 -15 L 15 -25 L -5 -25 L -5 -15 L -15 -15 L -15 -5 Z" fill="#d14859" transform="scale(0.7)"/>
                    <text x="0" y="60" text-anchor="middle" style="fill:#e8a951;font:700 10px Inter,sans-serif">AT HOME</text>
                  </g>
                  <g transform="translate(250 145)">
                    <rect x="-25" y="-18" width="50" height="36" rx="4" fill="#9370b9" opacity="0.75" stroke="#9370b9" stroke-width="1.3"/>
                    <line x1="-15" y1="-18" x2="-15" y2="18" stroke="#9370b9" stroke-width="1"/>
                    <line x1="15" y1="-18" x2="15" y2="18" stroke="#9370b9" stroke-width="1"/>
                    <path d="M -30 0 L -40 0 M 30 0 L 40 0" stroke="#9370b9" stroke-width="2"/>
                    <text x="0" y="38" text-anchor="middle" style="fill:#9370b9;font:italic 700 9px Inter,sans-serif">take dose</text>
                  </g>
                  <g transform="translate(395 145)">
                    <rect x="-50" y="-45" width="100" height="80" rx="8" fill="#d14859" opacity="0.4" stroke="#d14859" stroke-width="2"/>
                    <path d="M 0 -30 L 0 20 M -15 -5 L 15 -5 M -15 5 L 15 5" stroke="#e8ecf3" stroke-width="3" fill="none"/>
                    <text x="0" y="55" text-anchor="middle" style="fill:#d14859;font:700 10px Inter,sans-serif;letter-spacing:1.5px">ER</text>
                  </g>
                  <g stroke="#d14859" stroke-width="1.5" fill="none" stroke-dasharray="3 2">
                    <line x1="175" y1="145" x2="220" y2="145"/>
                    <polygon points="223,145 215,141 215,149" fill="#d14859"/>
                    <line x1="285" y1="145" x2="340" y2="145"/>
                    <polygon points="343,145 335,141 335,149" fill="#d14859"/>
                  </g>
                  <text x="250" y="225" text-anchor="middle" style="fill:#d14859;font:italic 700 10px Inter,sans-serif">any fever → immediately</text>
                </svg>
