<?xml version="1.0" encoding="UTF-8"?>
<!--
  Auto-generated from the reference HTML by
  scripts/storymode-extraction/extract.mjs.
  Do not edit by hand — regenerate the file instead.
-->
<svg xmlns="http://www.w3.org/2000/svg" xmlns:xlink="http://www.w3.org/1999/xlink" viewBox="0 0 500 260" preserveAspectRatio="xMidYMid meet">
                  <text x="20" y="24" style="fill:#e8a951;font:600 10px Inter,sans-serif;letter-spacing:2px">NEUTROPHILIA — CELLS TRAPPED IN BLOOD</text>
                  <line x1="0" y1="75" x2="500" y2="75" stroke="#4fb8a8" stroke-width="2.5" opacity="0.7"/>
                  <line x1="0" y1="190" x2="500" y2="190" stroke="#4fb8a8" stroke-width="2.5" opacity="0.7"/>
                  <rect x="0" y="75" width="500" height="115" fill="#4fb8a8" opacity="0.05"/>
                  <text x="20" y="48" style="fill:#b4becf;font:10px Inter,sans-serif;letter-spacing:1.5px">VESSEL LUMEN (blood)</text>
                  <text x="20" y="215" style="fill:#6b7689;font:10px Inter,sans-serif;letter-spacing:1.5px">TISSUE (no neutrophils arrive)</text>
                  <g fill="#e8a951" stroke="#a87b3c" stroke-width="0.8">
                    <g transform="translate(60 105)"><circle r="11" opacity="0.9"/><circle cx="-2" cy="-2" r="2.5" fill="#4a2d60"/><circle cx="3" cy="2" r="2.5" fill="#4a2d60"/></g>
                    <g transform="translate(110 130)"><circle r="11" opacity="0.9"/><circle cx="-2" cy="-2" r="2.5" fill="#4a2d60"/><circle cx="3" cy="2" r="2.5" fill="#4a2d60"/></g>
                    <g transform="translate(160 100)"><circle r="11" opacity="0.9"/><circle cx="-2" cy="-2" r="2.5" fill="#4a2d60"/><circle cx="3" cy="2" r="2.5" fill="#4a2d60"/></g>
                    <g transform="translate(210 135)"><circle r="11" opacity="0.9"/><circle cx="-2" cy="-2" r="2.5" fill="#4a2d60"/><circle cx="3" cy="2" r="2.5" fill="#4a2d60"/></g>
                    <g transform="translate(255 105)"><circle r="11" opacity="0.9"/><circle cx="-2" cy="-2" r="2.5" fill="#4a2d60"/><circle cx="3" cy="2" r="2.5" fill="#4a2d60"/></g>
                    <g transform="translate(305 158)"><circle r="11" opacity="0.9"/><circle cx="-2" cy="-2" r="2.5" fill="#4a2d60"/><circle cx="3" cy="2" r="2.5" fill="#4a2d60"/></g>
                    <g transform="translate(350 115)"><circle r="11" opacity="0.9"/><circle cx="-2" cy="-2" r="2.5" fill="#4a2d60"/><circle cx="3" cy="2" r="2.5" fill="#4a2d60"/></g>
                    <g transform="translate(400 145)"><circle r="11" opacity="0.9"/><circle cx="-2" cy="-2" r="2.5" fill="#4a2d60"/><circle cx="3" cy="2" r="2.5" fill="#4a2d60"/></g>
                    <g transform="translate(445 105)"><circle r="11" opacity="0.9"/><circle cx="-2" cy="-2" r="2.5" fill="#4a2d60"/><circle cx="3" cy="2" r="2.5" fill="#4a2d60"/></g>
                    <g transform="translate(85 165)"><circle r="11" opacity="0.9"/><circle cx="-2" cy="-2" r="2.5" fill="#4a2d60"/><circle cx="3" cy="2" r="2.5" fill="#4a2d60"/></g>
                    <g transform="translate(180 170)"><circle r="11" opacity="0.9"/><circle cx="-2" cy="-2" r="2.5" fill="#4a2d60"/><circle cx="3" cy="2" r="2.5" fill="#4a2d60"/></g>
                    <g transform="translate(260 170)"><circle r="11" opacity="0.9"/><circle cx="-2" cy="-2" r="2.5" fill="#4a2d60"/><circle cx="3" cy="2" r="2.5" fill="#4a2d60"/></g>
                    <g transform="translate(370 170)"><circle r="11" opacity="0.9"/><circle cx="-2" cy="-2" r="2.5" fill="#4a2d60"/><circle cx="3" cy="2" r="2.5" fill="#4a2d60"/></g>
                  </g>
                  <g transform="translate(420 52)">
                    <rect x="-62" y="-12" width="124" height="24" rx="12" fill="#e8a951" opacity="0.2" stroke="#e8a951" stroke-width="1.3"/>
                    <text x="0" y="5" text-anchor="middle" style="fill:#e8a951;font:700 10px Inter,sans-serif;letter-spacing:1.5px">WBC 42,000</text>
                  </g>
                  <text x="250" y="248" text-anchor="middle" style="fill:#b4becf;font:italic 11px Inter,sans-serif">tissue has no defenders — all trapped upstream</text>
                </svg>
