<?xml version="1.0" encoding="UTF-8"?>
<!--
  Auto-generated from the reference HTML by
  scripts/storymode-extraction/extract.mjs.
  Do not edit by hand — regenerate the file instead.
-->
<svg xmlns="http://www.w3.org/2000/svg" xmlns:xlink="http://www.w3.org/1999/xlink" viewBox="0 0 500 260" preserveAspectRatio="xMidYMid meet">
                  <g transform="translate(250 145)">
                    <path d="M -90 -40 Q -105 -10 -95 25 Q -70 55 -20 60 Q 35 60 75 42 Q 105 20 98 -15 Q 85 -48 45 -55 Q 0 -58 -55 -50 Q -85 -45 -90 -40" fill="#d14859" opacity="0.35" stroke="#d14859" stroke-width="2"/>
                  </g>
                  <g fill="#d14859" opacity="0.95">
                    <circle cx="80" cy="145" r="4"/>
                    <circle cx="100" cy="130" r="4"/>
                    <circle cx="110" cy="155" r="4"/>
                  </g>
                  <g fill="#9370b9" opacity="0.75">
                    <circle cx="210" cy="130" r="5"/>
                    <circle cx="240" cy="160" r="5"/>
                    <circle cx="270" cy="135" r="5"/>
                    <circle cx="220" cy="155" r="5"/>
                    <circle cx="260" cy="145" r="5"/>
                    <circle cx="280" cy="160" r="5"/>
                    <circle cx="200" cy="145" r="5"/>
                  </g>
                  <g fill="#6b7689" opacity="0.4">
                    <circle cx="400" cy="145" r="3"/>
                  </g>
                  <g stroke="#6b7689" stroke-width="1" fill="none" stroke-dasharray="3 2">
                    <line x1="125" y1="145" x2="160" y2="145"/>
                    <polygon points="163,145 155,141 155,149" fill="#6b7689"/>
                    <line x1="335" y1="145" x2="385" y2="145"/>
                    <polygon points="388,145 380,141 380,149" fill="#6b7689"/>
                  </g>
                  <text x="95" y="115" text-anchor="middle" style="fill:#d14859;font:italic 9px Inter,sans-serif">bugs in</text>
                  <text x="410" y="115" text-anchor="middle" style="fill:#4fb8a8;font:italic 700 9px Inter,sans-serif">cleared</text>
                </svg>
