<?xml version="1.0" encoding="UTF-8"?>
<!--
  Auto-generated from the reference HTML by
  scripts/storymode-extraction/extract.mjs.
  Do not edit by hand — regenerate the file instead.
-->
<svg xmlns="http://www.w3.org/2000/svg" xmlns:xlink="http://www.w3.org/1999/xlink" viewBox="0 0 500 260" preserveAspectRatio="xMidYMid meet">
                  <g transform="translate(130 145)">
                    <ellipse cx="0" cy="0" rx="35" ry="28" fill="#a87b3c" opacity="0.75" stroke="#6b4a28" stroke-width="1.3"/>
                    <path d="M -25 -25 L -18 -12 L -30 -15 Z" fill="#a87b3c" opacity="0.8"/>
                    <path d="M 25 -25 L 18 -12 L 30 -15 Z" fill="#a87b3c" opacity="0.8"/>
                    <circle cx="-10" cy="-4" r="2" fill="#0a0e1a"/>
                    <circle cx="10" cy="-4" r="2" fill="#0a0e1a"/>
                    <path d="M -3 5 L 0 7 L 3 5 M 0 7 L 0 10" stroke="#0a0e1a" stroke-width="1" fill="none"/>
                    <path d="M -16 4 L -40 4 M -16 8 L -40 10 M 16 4 L 40 4 M 16 8 L 40 10" stroke="#a87b3c" stroke-width="1"/>
                    <text x="0" y="50" text-anchor="middle" style="fill:#a87b3c;font:italic 700 9px Inter,sans-serif">kitten</text>
                  </g>
                  <g transform="translate(300 145)">
                    <ellipse cx="-8" cy="-5" rx="18" ry="6" fill="#e8a8a0" opacity="0.85" stroke="#c88a80" stroke-width="1.3"/>
                    <path d="M -22 -6 L 10 6" stroke="#d14859" stroke-width="2" fill="none"/>
                    <path d="M -18 -8 L 14 4" stroke="#d14859" stroke-width="1.5" fill="none"/>
                    <path d="M -10 -10 L 22 2" stroke="#d14859" stroke-width="1" fill="none"/>
                    <g fill="#d14859" opacity="0.85">
                      <circle cx="-4" cy="-4" r="2"/>
                      <circle cx="2" cy="-2" r="2"/>
                      <circle cx="6" cy="0" r="2"/>
                    </g>
                    <text x="0" y="28" text-anchor="middle" style="fill:#d14859;font:italic 700 9px Inter,sans-serif">scratch</text>
                  </g>
                  <g transform="translate(410 145)">
                    <path d="M -8 -4 Q -4 -12 4 -4 Q 6 4 0 8 Q -6 4 -8 -4" fill="#d14859" opacity="0.85" stroke="#a33648" stroke-width="1"/>
                    <text x="0" y="24" text-anchor="middle" style="fill:#d14859;font:italic 700 9px Inter,sans-serif">Bartonella</text>
                  </g>
                  <g stroke="#6b7689" stroke-width="1" fill="none" stroke-dasharray="3 2">
                    <line x1="170" y1="145" x2="260" y2="145"/>
                    <polygon points="263,145 255,141 255,149" fill="#6b7689"/>
                  </g>
                </svg>
