<?xml version="1.0" encoding="UTF-8"?>
<!--
  Auto-generated from the reference HTML by
  scripts/storymode-extraction/extract.mjs.
  Do not edit by hand — regenerate the file instead.
-->
<svg xmlns="http://www.w3.org/2000/svg" xmlns:xlink="http://www.w3.org/1999/xlink" viewBox="0 0 500 260" preserveAspectRatio="xMidYMid meet">
                  <g transform="translate(250 140)">
                    <path d="M -80 -30 Q -95 -5 -85 25 Q -60 50 -20 55 Q 30 55 70 40 Q 100 20 95 -10 Q 85 -40 50 -48 Q 0 -52 -50 -45 Q -75 -38 -80 -30" fill="#d14859" opacity="0.35" stroke="#d14859" stroke-width="2"/>
                    <g fill="#9370b9" opacity="0.6">
                      <circle cx="-50" cy="-15" r="5"/>
                      <circle cx="-25" cy="10" r="5"/>
                      <circle cx="0" cy="-20" r="5"/>
                      <circle cx="25" cy="5" r="5"/>
                      <circle cx="50" cy="-10" r="5"/>
                      <circle cx="70" cy="15" r="5"/>
                      <circle cx="-60" cy="25" r="5"/>
                      <circle cx="-15" cy="30" r="5"/>
                      <circle cx="35" cy="30" r="5"/>
                    </g>
                    <text x="0" y="80" text-anchor="middle" style="fill:#d14859;font:700 11px Inter,sans-serif;letter-spacing:1.5px">SPLEEN</text>
                  </g>
                </svg>
