<?xml version="1.0" encoding="UTF-8"?>
<!--
  Auto-generated from the reference HTML by
  scripts/storymode-extraction/extract.mjs.
  Do not edit by hand — regenerate the file instead.
-->
<svg xmlns="http://www.w3.org/2000/svg" xmlns:xlink="http://www.w3.org/1999/xlink" viewBox="0 0 500 260" preserveAspectRatio="xMidYMid meet">
                  <g transform="translate(90 100)">
                    <path d="M -15 -20 Q -20 0 -12 25 Q 0 35 12 25 Q 20 0 15 -20 Q 0 -25 -15 -20" fill="#e8a8a0" opacity="0.5" stroke="#c88a80" stroke-width="1.3"/>
                    <g fill="#d14859" opacity="0.9">
                      <circle cx="-4" cy="8" r="2.5"/>
                      <circle cx="4" cy="10" r="2.5"/>
                      <circle cx="0" cy="14" r="2.5"/>
                    </g>
                    <text x="0" y="-30" text-anchor="middle" style="fill:#d14859;font:italic 700 9px Inter,sans-serif">NOSE</text>
                  </g>
                  <g transform="translate(400 170)">
                    <ellipse cx="0" cy="0" rx="52" ry="22" fill="#e8a8a0" opacity="0.5" stroke="#c88a80" stroke-width="1.3"/>
                    <rect x="-40" y="-6" width="80" height="12" fill="#6b7689" opacity="0.75" stroke="#6b7689" stroke-width="1.3"/>
                    <g fill="#d14859" opacity="0.9">
                      <circle cx="-18" cy="0" r="2.5"/>
                      <circle cx="-14" cy="2" r="2.5"/>
                      <circle cx="10" cy="-1" r="2.5"/>
                      <circle cx="14" cy="2" r="2.5"/>
                    </g>
                    <text x="0" y="-32" text-anchor="middle" style="fill:#6b7689;font:italic 700 9px Inter,sans-serif">HIP PROSTHESIS</text>
                  </g>
                  <g stroke="#d14859" stroke-width="2" fill="none" stroke-dasharray="4 3" opacity="0.85">
                    <path d="M 115 110 Q 200 80 260 115 Q 330 155 365 165"/>
                  </g>
                  <g fill="#d14859" opacity="0.85">
                    <circle cx="180" cy="95" r="3"/>
                    <circle cx="245" cy="108" r="3"/>
                    <circle cx="295" cy="135" r="3"/>
                    <circle cx="345" cy="155" r="3"/>
                  </g>
                  <g transform="translate(175 195)">
                    <path d="M -10 -10 Q -14 0 -8 10 Q 0 14 8 10 Q 14 0 10 -10 L 10 -18 L -10 -18 Z" fill="#4fb8a8" opacity="0.5" stroke="#4fb8a8" stroke-width="1.3"/>
                    <text x="0" y="28" text-anchor="middle" style="fill:#4fb8a8;font:italic 8px Inter,sans-serif">hand/glove</text>
                  </g>
                  <g transform="translate(260 65)" stroke="#e8a951" stroke-width="1" fill="none" opacity="0.6">
                    <path d="M 0 0 L 6 -6 M 0 0 L -6 -6 M 0 0 L 6 6"/>
                    <text x="12" y="4" style="fill:#e8a951;font:italic 8px Inter,sans-serif">aerosol</text>
                  </g>
                </svg>
