<?xml version="1.0" encoding="UTF-8"?>
<!--
  Auto-generated from the reference HTML by
  scripts/storymode-extraction/extract.mjs.
  Do not edit by hand — regenerate the file instead.
-->
<svg xmlns="http://www.w3.org/2000/svg" xmlns:xlink="http://www.w3.org/1999/xlink" viewBox="0 0 500 260" preserveAspectRatio="xMidYMid meet">
                  <g transform="translate(60 220)">
                    <line x1="0" y1="0" x2="400" y2="0" stroke="#6b7689" stroke-width="1.3"/>
                    <line x1="0" y1="-150" x2="0" y2="0" stroke="#6b7689" stroke-width="1.3"/>
                    <text x="0" y="16" text-anchor="middle" style="fill:#6b7689;font:italic 8px Inter,sans-serif">0h</text>
                    <text x="100" y="16" text-anchor="middle" style="fill:#6b7689;font:italic 8px Inter,sans-serif">1h</text>
                    <text x="200" y="16" text-anchor="middle" style="fill:#6b7689;font:italic 8px Inter,sans-serif">2h</text>
                    <text x="300" y="16" text-anchor="middle" style="fill:#6b7689;font:italic 8px Inter,sans-serif">3h</text>
                    <text x="400" y="16" text-anchor="middle" style="fill:#6b7689;font:italic 8px Inter,sans-serif">4h</text>
                    <text x="-18" y="-3" style="fill:#6b7689;font:italic 8px Inter,sans-serif">1</text>
                    <text x="-22" y="-60" style="fill:#6b7689;font:italic 8px Inter,sans-serif">50</text>
                    <text x="-30" y="-140" style="fill:#6b7689;font:italic 8px Inter,sans-serif">200</text>
                  </g>
                  <path d="M 60 218 Q 100 215 150 200 Q 200 175 250 130 Q 300 85 360 85 Q 400 85 440 85" stroke="#d14859" stroke-width="3" fill="none"/>
                  <g fill="#d14859" opacity="0.95">
                    <circle cx="60" cy="218" r="3"/>
                    <circle cx="110" cy="210" r="3"/>
                    <circle cx="160" cy="195" r="3"/>
                    <circle cx="180" cy="185" r="3"/>
                    <circle cx="210" cy="160" r="3"/>
                    <circle cx="240" cy="135" r="3"/>
                    <circle cx="270" cy="105" r="4"/>
                    <circle cx="300" cy="85" r="5"/>
                    <circle cx="340" cy="80" r="5"/>
                    <circle cx="380" cy="80" r="5"/>
                    <circle cx="410" cy="78" r="5"/>
                  </g>
                  <text x="250" y="60" text-anchor="middle" style="fill:#d14859;font:italic 700 10px Inter,sans-serif">bacteria / mL (log)</text>
                </svg>
