<?xml version="1.0" encoding="UTF-8"?>
<!--
  Auto-generated from the reference HTML by
  scripts/storymode-extraction/extract.mjs.
  Do not edit by hand — regenerate the file instead.
-->
<svg xmlns="http://www.w3.org/2000/svg" xmlns:xlink="http://www.w3.org/1999/xlink" viewBox="0 0 500 260" preserveAspectRatio="xMidYMid meet">
                  <g transform="translate(250 145)">
                    <ellipse cx="0" cy="0" rx="120" ry="85" fill="#e8a8a0" opacity="0.35" stroke="#c88a80" stroke-width="1.5"/>
                    <ellipse cx="0" cy="0" rx="90" ry="55" fill="#e8a951" opacity="0.35" stroke="#e8a951" stroke-width="1.5"/>
                    <ellipse cx="0" cy="0" rx="55" ry="28" fill="#a87b3c" opacity="0.4" stroke="#a87b3c" stroke-width="1" stroke-dasharray="2 2"/>
                    <g fill="#e8a951" opacity="0.9">
                      <circle cx="-70" cy="-30" r="4"/>
                      <circle cx="-45" cy="-45" r="4"/>
                      <circle cx="-10" cy="-50" r="4"/>
                      <circle cx="30" cy="-48" r="4"/>
                      <circle cx="65" cy="-30" r="4"/>
                      <circle cx="-80" cy="0" r="4"/>
                      <circle cx="-55" cy="-15" r="4"/>
                      <circle cx="-30" cy="-25" r="4"/>
                      <circle cx="0" cy="-30" r="4"/>
                      <circle cx="30" cy="-25" r="4"/>
                      <circle cx="55" cy="-15" r="4"/>
                      <circle cx="75" cy="0" r="4"/>
                      <circle cx="-60" cy="15" r="4"/>
                      <circle cx="-35" cy="25" r="4"/>
                      <circle cx="-5" cy="25" r="4"/>
                      <circle cx="30" cy="25" r="4"/>
                      <circle cx="60" cy="15" r="4"/>
                      <circle cx="-45" cy="45" r="4"/>
                      <circle cx="-10" cy="50" r="4"/>
                      <circle cx="30" cy="45" r="4"/>
                    </g>
                    <g fill="#4a2d60" opacity="0.55">
                      <circle cx="-40" cy="-5" r="2"/>
                      <circle cx="-15" cy="-8" r="2"/>
                      <circle cx="15" cy="-10" r="2"/>
                      <circle cx="40" cy="-5" r="2"/>
                      <circle cx="-20" cy="10" r="2"/>
                      <circle cx="10" cy="15" r="2"/>
                    </g>
                  </g>
                  <g transform="translate(80 70)">
                    <text x="0" y="0" style="fill:#e8a951;font:700 10px Inter,sans-serif;letter-spacing:1px">PYOGENIC</text>
                    <text x="0" y="13" style="fill:#b4becf;font:italic 9px Inter,sans-serif">PMN pus core</text>
                  </g>
                  <g transform="translate(380 70)">
                    <text x="0" y="0" text-anchor="end" style="fill:#a87b3c;font:700 9px Inter,sans-serif">liquefied</text>
                    <text x="0" y="12" text-anchor="end" style="fill:#a87b3c;font:italic 8px Inter,sans-serif">necrosis</text>
                  </g>
                </svg>
