<?xml version="1.0" encoding="UTF-8"?>
<!--
  Auto-generated from the reference HTML by
  scripts/storymode-extraction/extract.mjs.
  Do not edit by hand — regenerate the file instead.
-->
<svg xmlns="http://www.w3.org/2000/svg" xmlns:xlink="http://www.w3.org/1999/xlink" viewBox="0 0 500 260" preserveAspectRatio="xMidYMid meet">
                  <text x="20" y="22" style="fill:#e8a951;font:600 10px Inter,sans-serif;letter-spacing:2px">FROM SURFACE → DEEP INSIDE THE CELL</text>
                  <path d="M 50 80 Q 250 75 450 80 L 450 222 Q 250 228 50 222 Z" fill="#111826" stroke="#4fb8a8" stroke-width="1.3" opacity="0.85"/>
                  <text x="62" y="98" style="fill:#6b7689;font:italic 10px Inter,sans-serif;letter-spacing:1.5px">OUTSIDE</text>
                  <g transform="translate(250 82)">
                    <circle cx="0" cy="-8" r="22" fill="#e8a951" opacity="0.2"/>
                    <path d="M -16 0 Q -18 -22 -9 -36 Q 0 -44 9 -36 Q 18 -22 16 0" stroke="#e8a951" stroke-width="2.8" fill="none"/>
                    <line x1="0" y1="0" x2="0" y2="18" stroke="#e8a951" stroke-width="2.8"/>
                    <ellipse cx="0" cy="24" rx="9" ry="6" stroke="#e8a951" stroke-width="2" fill="#e8a951" opacity="0.45"/>
                    <text x="32" y="-6" style="fill:#e8a951;font:600 10px Inter,sans-serif">TLR4 (active)</text>
                    <path d="M 30 -9 L 20 -18" stroke="#e8a951" stroke-width="0.7" opacity="0.6"/>
                  </g>
                  <path d="M 250 118 L 250 188" stroke="#e8a951" stroke-width="2" stroke-dasharray="5 4"/>
                  <polygon points="250,196 244,184 256,184" fill="#e8a951"/>
                  <text x="150" y="165" style="fill:#b4becf;font:italic 11px Inter,sans-serif">signal</text>
                  <text x="150" y="180" style="fill:#b4becf;font:italic 11px Inter,sans-serif">travels down</text>
                  <text x="250" y="240" text-anchor="middle" style="fill:#6b7689;font:10px Inter,sans-serif;letter-spacing:1.5px">CYTOPLASM — INSIDE THE MACROPHAGE</text>
                </svg>
