<?xml version="1.0" encoding="UTF-8"?>
<!--
  Auto-generated from the reference HTML by
  scripts/storymode-extraction/extract.mjs.
  Do not edit by hand — regenerate the file instead.
-->
<svg xmlns="http://www.w3.org/2000/svg" xmlns:xlink="http://www.w3.org/1999/xlink" viewBox="0 0 500 260" preserveAspectRatio="xMidYMid meet">
                  <g transform="translate(140 145)">
                    <path d="M -65 -35 Q -80 -10 -70 20 Q -45 45 0 50 Q 45 45 65 25 Q 80 0 70 -30 Q 55 -50 15 -52 Q -30 -52 -65 -35" fill="#6b7689" opacity="0.2" stroke="#6b7689" stroke-width="1.5" stroke-dasharray="4 3"/>
                    <line x1="-65" y1="-45" x2="70" y2="45" stroke="#d14859" stroke-width="3"/>
                    <line x1="70" y1="-45" x2="-65" y2="45" stroke="#d14859" stroke-width="3"/>
                    <text x="0" y="72" text-anchor="middle" style="fill:#d14859;font:700 10px Inter,sans-serif;letter-spacing:1px">NO SPLEEN</text>
                  </g>
                  <g transform="translate(370 145)">
                    <ellipse cx="-40" cy="-30" rx="20" ry="14" fill="none" stroke="#9370b9" stroke-width="1.3" stroke-dasharray="3 2" opacity="0.8"/>
                    <circle cx="-44" cy="-30" r="4" fill="#d14859" opacity="0.85"/>
                    <circle cx="-36" cy="-30" r="4" fill="#d14859" opacity="0.85"/>
                    <ellipse cx="40" cy="-25" rx="18" ry="14" fill="none" stroke="#9370b9" stroke-width="1.3" stroke-dasharray="3 2" opacity="0.8"/>
                    <ellipse cx="40" cy="-25" rx="10" ry="4" fill="#d14859" opacity="0.85"/>
                    <ellipse cx="-30" cy="20" rx="20" ry="15" fill="none" stroke="#9370b9" stroke-width="1.3" stroke-dasharray="3 2" opacity="0.8"/>
                    <circle cx="-34" cy="20" r="4" fill="#d14859" opacity="0.85"/>
                    <circle cx="-26" cy="20" r="4" fill="#d14859" opacity="0.85"/>
                    <ellipse cx="30" cy="25" rx="22" ry="14" fill="none" stroke="#9370b9" stroke-width="1.3" stroke-dasharray="3 2" opacity="0.8"/>
                    <rect x="20" y="22" width="20" height="6" rx="2" fill="#d14859" opacity="0.85"/>
                    <text x="0" y="60" text-anchor="middle" style="fill:#d14859;font:italic 700 10px Inter,sans-serif">bugs roam free</text>
                  </g>
                </svg>
