<?xml version="1.0" encoding="UTF-8"?>
<!--
  Auto-generated from the reference HTML by
  scripts/storymode-extraction/extract.mjs.
  Do not edit by hand — regenerate the file instead.
-->
<svg xmlns="http://www.w3.org/2000/svg" xmlns:xlink="http://www.w3.org/1999/xlink" viewBox="0 0 500 260" preserveAspectRatio="xMidYMid meet">
                  <g transform="translate(135 145)">
                    <ellipse cx="0" cy="0" rx="100" ry="42" fill="#d14859" opacity="0.2"/>
                    <ellipse cx="0" cy="0" rx="88" ry="22" fill="#111826" stroke="#d14859" stroke-width="2"/>
                    <g transform="translate(-80 -30)">
                      <rect x="0" y="0" width="24" height="7" fill="#4fb8a8" opacity="0.85"/>
                      <rect x="32" y="0" width="24" height="7" fill="#4fb8a8" opacity="0.85"/>
                      <rect x="64" y="0" width="24" height="7" fill="#4fb8a8" opacity="0.85"/>
                      <rect x="96" y="0" width="24" height="7" fill="#4fb8a8" opacity="0.85"/>
                      <rect x="128" y="0" width="24" height="7" fill="#4fb8a8" opacity="0.85"/>
                    </g>
                    <g transform="translate(-80 23)">
                      <rect x="0" y="0" width="24" height="7" fill="#4fb8a8" opacity="0.85"/>
                      <rect x="32" y="0" width="24" height="7" fill="#4fb8a8" opacity="0.85"/>
                      <rect x="64" y="0" width="24" height="7" fill="#4fb8a8" opacity="0.85"/>
                      <rect x="96" y="0" width="24" height="7" fill="#4fb8a8" opacity="0.85"/>
                      <rect x="128" y="0" width="24" height="7" fill="#4fb8a8" opacity="0.85"/>
                    </g>
                    <g fill="#d14859">
                      <path d="M -50 -30 L -46 -38 L -42 -30 Z"/>
                      <path d="M -18 -30 L -14 -38 L -10 -30 Z"/>
                      <path d="M 14 -30 L 18 -38 L 22 -30 Z"/>
                      <path d="M 46 -30 L 50 -38 L 54 -30 Z"/>
                      <path d="M -50 30 L -46 38 L -42 30 Z"/>
                      <path d="M -18 30 L -14 38 L -10 30 Z"/>
                      <path d="M 14 30 L 18 38 L 22 30 Z"/>
                      <path d="M 46 30 L 50 38 L 54 30 Z"/>
                    </g>
                    <g fill="#d14859" opacity="0.85">
                      <circle cx="-60" cy="0" r="3.5"/>
                      <circle cx="-40" cy="-5" r="3.5"/>
                      <circle cx="-20" cy="3" r="3.5"/>
                      <circle cx="0" cy="-3" r="3.5"/>
                      <circle cx="20" cy="4" r="3.5"/>
                      <circle cx="40" cy="-3" r="3.5"/>
                      <circle cx="60" cy="2" r="3.5"/>
                    </g>
                    <text x="0" y="70" text-anchor="middle" style="fill:#d14859;font:700 11px Inter,sans-serif;letter-spacing:1.5px">H1 — VESSEL</text>
                    <text x="0" y="-60" text-anchor="middle" style="fill:#b4becf;font:italic 9px Inter,sans-serif">leak + dilate</text>
                  </g>
                  <g transform="translate(375 145)">
                    <path d="M -62 -50 Q -78 -30 -74 -5 Q -70 20 -58 40 Q -40 56 -12 58 Q 20 58 44 46 Q 64 30 68 10 Q 72 -15 62 -38 Q 50 -55 22 -60 Q -10 -62 -40 -58 Q -58 -55 -62 -50 Z" fill="#e8a8a0" opacity="0.5" stroke="#c88a80" stroke-width="1.8"/>
                    <path d="M -62 -50 Q -40 -46 -10 -44 Q 24 -42 48 -46 Q 60 -50 62 -38" stroke="#c88a80" stroke-width="1" fill="none" opacity="0.6"/>
                    <path d="M -58 40 Q -30 48 0 50 Q 30 50 50 42" stroke="#c88a80" stroke-width="1" fill="none" opacity="0.6"/>
                    <g>
                      <g transform="translate(-32 -20)">
                        <rect x="-9" y="-11" width="18" height="22" rx="3" fill="#4fb8a8" opacity="0.75" stroke="#4fb8a8" stroke-width="1.3"/>
                        <circle r="3" fill="#111826"/>
                      </g>
                      <g transform="translate(5 -5)">
                        <rect x="-9" y="-11" width="18" height="22" rx="3" fill="#4fb8a8" opacity="0.75" stroke="#4fb8a8" stroke-width="1.3"/>
                        <circle r="3" fill="#111826"/>
                      </g>
                      <g transform="translate(36 14)">
                        <rect x="-9" y="-11" width="18" height="22" rx="3" fill="#4fb8a8" opacity="0.75" stroke="#4fb8a8" stroke-width="1.3"/>
                        <circle r="3" fill="#111826"/>
                      </g>
                      <g transform="translate(-20 22)">
                        <rect x="-9" y="-11" width="18" height="22" rx="3" fill="#4fb8a8" opacity="0.75" stroke="#4fb8a8" stroke-width="1.3"/>
                        <circle r="3" fill="#111826"/>
                      </g>
                    </g>
                    <g fill="#e8a951" opacity="0.95">
                      <text x="-44" y="-32" style="font:700 11px Inter,sans-serif">H⁺</text>
                      <text x="-6" y="-22" style="font:700 11px Inter,sans-serif">H⁺</text>
                      <text x="24" y="-8" style="font:700 11px Inter,sans-serif">H⁺</text>
                      <text x="-32" y="8" style="font:700 11px Inter,sans-serif">H⁺</text>
                      <text x="16" y="36" style="font:700 11px Inter,sans-serif">H⁺</text>
                      <text x="50" y="-2" style="font:700 11px Inter,sans-serif">H⁺</text>
                    </g>
                    <g stroke="#e8a951" stroke-width="1" fill="none" opacity="0.5" stroke-dasharray="2 2">
                      <path d="M -32 -20 L -40 -28"/>
                      <path d="M 5 -5 L -2 -16"/>
                      <path d="M 36 14 L 30 4"/>
                      <path d="M -20 22 L -28 12"/>
                    </g>
                    <text x="0" y="82" text-anchor="middle" style="fill:#4fb8a8;font:700 11px Inter,sans-serif;letter-spacing:1.5px">H2 — STOMACH</text>
                    <text x="0" y="-70" text-anchor="middle" style="fill:#b4becf;font:italic 9px Inter,sans-serif">acid secretion</text>
                  </g>
                </svg>
