<?xml version="1.0" encoding="UTF-8"?>
<!--
  Auto-generated from the reference HTML by
  scripts/storymode-extraction/extract.mjs.
  Do not edit by hand — regenerate the file instead.
-->
<svg xmlns="http://www.w3.org/2000/svg" xmlns:xlink="http://www.w3.org/1999/xlink" viewBox="0 0 500 260" preserveAspectRatio="xMidYMid meet">
                  <!-- Title -->
                  <text x="20" y="22" style="fill:#e8a951;font:600 10px Inter,sans-serif;letter-spacing:2px">NODE PROLIFERATES — LYMPHADENOPATHY</text>
                  <!-- Resting node (left) -->
                  <g transform="translate(110 130)">
                    <text x="0" y="-36" text-anchor="middle" style="fill:#b4becf;font:italic 8px Inter,sans-serif">~1 cm</text>
                    <ellipse cx="0" cy="0" rx="30" ry="20" fill="#4fb8a8" opacity="0.35" stroke="#4fb8a8" stroke-width="1.3"/>
                    <g fill="#9370b9" opacity="0.75">
                      <circle cx="-8" cy="-4" r="3"/>
                      <circle cx="6" cy="-5" r="3"/>
                      <circle cx="-4" cy="6" r="3"/>
                    </g>
                    <text x="0" y="40" text-anchor="middle" style="fill:#4fb8a8;font:700 10px Inter,sans-serif;letter-spacing:1.5px">RESTING NODE</text>
                    <text x="0" y="54" text-anchor="middle" style="fill:#b4becf;font:italic 9px Inter,sans-serif">few lymphocytes</text>
                  </g>
                  <!-- Arrow + proliferation (middle) -->
                  <g transform="translate(245 130)">
                    <text x="0" y="-24" text-anchor="middle" style="fill:#e8a951;font:italic 700 10px Inter,sans-serif">antigen + cytokines arrive</text>
                    <path d="M -46 0 L 36 0" stroke="#e8a951" stroke-width="2.5" fill="none" stroke-dasharray="4 3"/>
                    <polygon points="42,0 32,-6 32,6" fill="#e8a951"/>
                    <text x="0" y="22" text-anchor="middle" style="fill:#e8a951;font:700 11px Inter,sans-serif;letter-spacing:1.5px">PROLIFERATION</text>
                    <text x="0" y="36" text-anchor="middle" style="fill:#b4becf;font:italic 8px Inter,sans-serif">B &amp; T cells multiply</text>
                  </g>
                  <!-- Enlarged node (right) -->
                  <g transform="translate(385 130)">
                    <text x="0" y="-58" text-anchor="middle" style="fill:#b4becf;font:italic 9px Inter,sans-serif">~3 cm</text>
                    <ellipse cx="0" cy="0" rx="65" ry="48" fill="#4fb8a8" opacity="0.55" stroke="#4fb8a8" stroke-width="2"/>
                    <g fill="#9370b9" opacity="0.85">
                      <circle cx="-35" cy="-15" r="5"/>
                      <circle cx="-22" cy="-28" r="5"/>
                      <circle cx="-8" cy="-18" r="5"/>
                      <circle cx="8" cy="-28" r="5"/>
                      <circle cx="22" cy="-20" r="5"/>
                      <circle cx="38" cy="-10" r="5"/>
                      <circle cx="-30" cy="0" r="5"/>
                      <circle cx="-12" cy="-5" r="5"/>
                      <circle cx="2" cy="0" r="5"/>
                      <circle cx="20" cy="-4" r="5"/>
                      <circle cx="35" cy="5" r="5"/>
                      <circle cx="-38" cy="18" r="5"/>
                      <circle cx="-18" cy="18" r="5"/>
                      <circle cx="0" cy="22" r="5"/>
                      <circle cx="20" cy="20" r="5"/>
                      <circle cx="40" cy="18" r="5"/>
                      <circle cx="-28" cy="30" r="5"/>
                      <circle cx="-5" cy="38" r="5"/>
                      <circle cx="22" cy="35" r="5"/>
                    </g>
                    <text x="0" y="68" text-anchor="middle" style="fill:#4fb8a8;font:700 11px Inter,sans-serif;letter-spacing:1.5px">ENLARGED NODE</text>
                    <text x="0" y="82" text-anchor="middle" style="fill:#b4becf;font:italic 9px Inter,sans-serif">packed with lymphocytes</text>
                  </g>
                  <!-- Legend (bottom-left) -->
                  <g transform="translate(28 242)">
                    <circle r="4" fill="#9370b9" opacity="0.85"/>
                    <text x="10" y="3" style="fill:#9370b9;font:italic 8px Inter,sans-serif">B / T lymphocyte</text>
                  </g>
                </svg>
