<?xml version="1.0" encoding="UTF-8"?>
<!--
  Auto-generated from the reference HTML by
  scripts/storymode-extraction/extract.mjs.
  Do not edit by hand — regenerate the file instead.
-->
<svg xmlns="http://www.w3.org/2000/svg" xmlns:xlink="http://www.w3.org/1999/xlink" viewBox="0 0 500 260" preserveAspectRatio="xMidYMid meet">
                  <g transform="translate(250 145)">
                    <ellipse cx="0" cy="0" rx="55" ry="42" fill="none" stroke="#9370b9" stroke-width="2" stroke-dasharray="4 3" opacity="0.8"/>
                    <ellipse cx="0" cy="0" rx="30" ry="22" fill="#d14859" opacity="0.8" stroke="#a33648" stroke-width="1.3"/>
                    <g stroke="#e8a951" stroke-width="2" fill="none">
                      <path d="M -55 -30 L -55 -42 M -55 -42 L -50 -48 M -55 -42 L -60 -48"/>
                      <path d="M 55 -30 L 55 -42 M 55 -42 L 50 -48 M 55 -42 L 60 -48"/>
                      <path d="M -55 30 L -55 42 M -55 42 L -50 48 M -55 42 L -60 48"/>
                      <path d="M 55 30 L 55 42 M 55 42 L 50 48 M 55 42 L 60 48"/>
                      <path d="M 0 -42 L 0 -52 M 0 -52 L -5 -58 M 0 -52 L 5 -58"/>
                      <path d="M 0 42 L 0 52 M 0 52 L -5 58 M 0 52 L 5 58"/>
                    </g>
                    <g fill="#4fb8a8" opacity="0.85">
                      <circle cx="-42" cy="0" r="5"/>
                      <circle cx="42" cy="0" r="5"/>
                      <circle cx="-20" cy="-35" r="5"/>
                      <circle cx="20" cy="-35" r="5"/>
                      <circle cx="-20" cy="35" r="5"/>
                      <circle cx="20" cy="35" r="5"/>
                    </g>
                  </g>
                  <g transform="translate(70 80)">
                    <path d="M 0 0 L 5 -10 M 0 0 L -5 -10 M 0 0 L 0 -15" stroke="#e8a951" stroke-width="2" fill="none"/>
                    <text x="10" y="-8" style="fill:#e8a951;font:italic 700 9px Inter,sans-serif">IgM/IgG</text>
                  </g>
                  <g transform="translate(420 80)">
                    <circle r="5" fill="#4fb8a8"/>
                    <text x="-10" y="-10" text-anchor="end" style="fill:#4fb8a8;font:italic 700 9px Inter,sans-serif">C3b</text>
                  </g>
                  <text x="250" y="235" text-anchor="middle" style="fill:#e8ecf3;font:italic 10px Inter,sans-serif">now the phagocyte has handles to grab</text>
                </svg>
