<?xml version="1.0" encoding="UTF-8"?>
<!--
  Auto-generated from the reference HTML by
  scripts/storymode-extraction/extract.mjs.
  Do not edit by hand — regenerate the file instead.
-->
<svg xmlns="http://www.w3.org/2000/svg" xmlns:xlink="http://www.w3.org/1999/xlink" viewBox="0 0 500 260" preserveAspectRatio="xMidYMid meet">
                  <text x="20" y="24" style="fill:#e8a951;font:600 10px Inter,sans-serif;letter-spacing:2px">THE CGD 5 — ALL CATALASE-POSITIVE</text>

                  <!-- S. AUREUS (TL) — grape cluster of cocci -->
                  <g transform="translate(125 75)">
                    <rect x="-95" y="-22" width="190" height="44" rx="6" fill="#111826" stroke="#d14859" stroke-width="1.2"/>
                    <g transform="translate(-68 0)">
                      <g fill="#d14859" opacity="0.9" stroke="#a33648" stroke-width="0.5">
                        <circle cx="-8" cy="-6" r="3.8"/>
                        <circle cx="-1" cy="-8" r="3.8"/>
                        <circle cx="6" cy="-5" r="3.8"/>
                        <circle cx="-5" cy="1" r="3.8"/>
                        <circle cx="4" cy="3" r="3.8"/>
                        <circle cx="-9" cy="3" r="3.8"/>
                        <circle cx="10" cy="-1" r="3.8"/>
                      </g>
                    </g>
                    <text x="-22" y="-4" style="fill:#d14859;font:800 11px Inter,sans-serif">S. aureus</text>
                    <text x="-22" y="10" style="fill:#b4becf;font:italic 8px Inter,sans-serif">skin abscess · lymphadenitis</text>
                  </g>

                  <!-- SERRATIA (TR) — red pigmented gram-neg rod -->
                  <g transform="translate(375 75)">
                    <rect x="-95" y="-22" width="190" height="44" rx="6" fill="#111826" stroke="#d14859" stroke-width="1.2"/>
                    <g transform="translate(-68 0)">
                      <g>
                        <rect x="-14" y="-5" width="28" height="10" rx="5" fill="#d14859" opacity="0.9" stroke="#a33648" stroke-width="0.6"/>
                        <rect x="-11" y="-4" width="6" height="2.5" rx="1" fill="#ffd9c8" opacity="0.5"/>
                        <rect x="-8" y="8" width="6" height="2" rx="1" fill="#d14859" opacity="0.4"/>
                      </g>
                    </g>
                    <text x="-22" y="-4" style="fill:#d14859;font:800 11px Inter,sans-serif">Serratia marcescens</text>
                    <text x="-22" y="10" style="fill:#b4becf;font:italic 8px Inter,sans-serif">pneumonia · red pigment</text>
                  </g>

                  <!-- BURKHOLDERIA (ML) — gram-neg rod -->
                  <g transform="translate(125 135)">
                    <rect x="-95" y="-22" width="190" height="44" rx="6" fill="#111826" stroke="#d14859" stroke-width="1.2"/>
                    <g transform="translate(-68 0)">
                      <g fill="#d14859" opacity="0.9" stroke="#a33648" stroke-width="0.6">
                        <rect x="-14" y="-5" width="14" height="10" rx="5"/>
                        <rect x="2" y="-4" width="12" height="8" rx="4"/>
                      </g>
                    </g>
                    <text x="-22" y="-4" style="fill:#d14859;font:800 11px Inter,sans-serif">Burkholderia cepacia</text>
                    <text x="-22" y="10" style="fill:#b4becf;font:italic 8px Inter,sans-serif">pneumonia</text>
                  </g>

                  <!-- NOCARDIA (MR) — branching filaments -->
                  <g transform="translate(375 135)">
                    <rect x="-95" y="-22" width="190" height="44" rx="6" fill="#111826" stroke="#d14859" stroke-width="1.2"/>
                    <g transform="translate(-68 0)">
                      <g stroke="#d14859" stroke-width="2.2" fill="none" stroke-linecap="round" opacity="0.92">
                        <path d="M -14 0 L -2 0"/>
                        <path d="M -2 0 L 9 -8"/>
                        <path d="M -2 0 L 9 8"/>
                        <path d="M -6 0 L -11 -7"/>
                        <path d="M 5 -4 L 12 -2"/>
                      </g>
                    </g>
                    <text x="-22" y="-4" style="fill:#d14859;font:800 11px Inter,sans-serif">Nocardia</text>
                    <text x="-22" y="10" style="fill:#b4becf;font:italic 8px Inter,sans-serif">pulmonary · CNS · branching</text>
                  </g>

                  <!-- ASPERGILLUS (bottom) — conidiophore + spore head -->
                  <g transform="translate(250 195)">
                    <rect x="-95" y="-22" width="190" height="44" rx="6" fill="#111826" stroke="#d14859" stroke-width="1.2"/>
                    <g transform="translate(-68 0)">
                      <g stroke="#d14859" stroke-width="1.7" fill="none" stroke-linecap="round" opacity="0.92">
                        <line x1="-16" y1="0" x2="3" y2="0"/>
                        <line x1="-11" y1="-3" x2="-11" y2="3" stroke-width="0.9"/>
                        <line x1="-5" y1="-3" x2="-5" y2="3" stroke-width="0.9"/>
                      </g>
                      <circle cx="8" cy="0" r="5" fill="#d14859" opacity="0.9" stroke="#a33648" stroke-width="0.5"/>
                      <g fill="#d14859" opacity="0.78">
                        <circle cx="13" cy="-4" r="1.5"/>
                        <circle cx="15" cy="0" r="1.5"/>
                        <circle cx="13" cy="4" r="1.5"/>
                        <circle cx="10" cy="-7" r="1.5"/>
                        <circle cx="10" cy="7" r="1.5"/>
                      </g>
                    </g>
                    <text x="-22" y="-4" style="fill:#d14859;font:800 11px Inter,sans-serif">Aspergillus</text>
                    <text x="-22" y="10" style="fill:#b4becf;font:italic 8px Inter,sans-serif">pulmonary · fungal hyphae</text>
                  </g>

                  <!-- Bottom subtitle -->
                  <text x="250" y="245" text-anchor="middle" style="fill:#b4becf;font:italic 9px Inter,sans-serif">all make their own catalase → destroy H₂O₂ before neutrophil can use it</text>
                </svg>
