<?xml version="1.0" encoding="UTF-8"?>
<!--
  Auto-generated from the reference HTML by
  scripts/storymode-extraction/extract.mjs.
  Do not edit by hand — regenerate the file instead.
-->
<svg xmlns="http://www.w3.org/2000/svg" xmlns:xlink="http://www.w3.org/1999/xlink" viewBox="0 0 500 260" preserveAspectRatio="xMidYMid meet">
                  <g transform="translate(130 145)">
                    <rect x="-30" y="-50" width="60" height="100" rx="8" fill="#4fb8a8" opacity="0.6" stroke="#4fb8a8" stroke-width="1.3"/>
                    <rect x="-10" y="-60" width="20" height="14" rx="3" fill="#4fb8a8" opacity="0.7"/>
                    <rect x="-15" y="-42" width="30" height="8" rx="2" fill="#111826"/>
                    <g fill="#e8a8a0" opacity="0.95">
                      <circle cx="0" cy="5" r="5"/>
                      <circle cx="0" cy="22" r="5"/>
                    </g>
                    <text x="0" y="70" text-anchor="middle" style="fill:#4fb8a8;font:700 11px Inter,sans-serif">PNEUMO</text>
                    <text x="0" y="82" text-anchor="middle" style="fill:#b4becf;font:italic 8px Inter,sans-serif">PCV13 + PPSV23</text>
                  </g>
                  <g transform="translate(250 145)">
                    <rect x="-30" y="-50" width="60" height="100" rx="8" fill="#4fb8a8" opacity="0.6" stroke="#4fb8a8" stroke-width="1.3"/>
                    <rect x="-10" y="-60" width="20" height="14" rx="3" fill="#4fb8a8" opacity="0.7"/>
                    <rect x="-15" y="-42" width="30" height="8" rx="2" fill="#111826"/>
                    <g fill="#e8a8a0" opacity="0.95">
                      <circle cx="0" cy="10" r="5"/>
                    </g>
                    <text x="0" y="70" text-anchor="middle" style="fill:#4fb8a8;font:700 11px Inter,sans-serif">Hib</text>
                    <text x="0" y="82" text-anchor="middle" style="fill:#b4becf;font:italic 8px Inter,sans-serif">H. influenzae</text>
                  </g>
                  <g transform="translate(370 145)">
                    <rect x="-30" y="-50" width="60" height="100" rx="8" fill="#4fb8a8" opacity="0.6" stroke="#4fb8a8" stroke-width="1.3"/>
                    <rect x="-10" y="-60" width="20" height="14" rx="3" fill="#4fb8a8" opacity="0.7"/>
                    <rect x="-15" y="-42" width="30" height="8" rx="2" fill="#111826"/>
                    <g fill="#e8a8a0" opacity="0.95">
                      <circle cx="0" cy="5" r="5"/>
                      <circle cx="0" cy="22" r="5"/>
                    </g>
                    <text x="0" y="70" text-anchor="middle" style="fill:#4fb8a8;font:700 11px Inter,sans-serif">MENINGO</text>
                    <text x="0" y="82" text-anchor="middle" style="fill:#b4becf;font:italic 8px Inter,sans-serif">ACWY + B</text>
                  </g>
                </svg>
