<?xml version="1.0" encoding="UTF-8"?>
<!--
  Auto-generated from the reference HTML by
  scripts/storymode-extraction/extract.mjs.
  Do not edit by hand — regenerate the file instead.
-->
<svg xmlns="http://www.w3.org/2000/svg" xmlns:xlink="http://www.w3.org/1999/xlink" viewBox="0 0 500 260" preserveAspectRatio="xMidYMid meet">
                  <g transform="translate(250 145)">
                    <circle r="44" fill="#9370b9" opacity="0.85" stroke="#7a4a9e" stroke-width="2"/>
                    <g fill="#d14859" opacity="0.95">
                      <circle cx="-16" cy="-14" r="4"/>
                      <circle cx="12" cy="-17" r="4"/>
                      <circle cx="-14" cy="14" r="4"/>
                      <circle cx="16" cy="12" r="4"/>
                      <circle cx="0" cy="0" r="4"/>
                      <circle cx="-20" cy="6" r="3"/>
                      <circle cx="20" cy="-3" r="3"/>
                      <circle cx="-6" cy="-18" r="3"/>
                      <circle cx="8" cy="18" r="3"/>
                    </g>
                    <circle r="56" fill="none" stroke="#9370b9" stroke-width="1" stroke-dasharray="3 3" opacity="0.5"/>
                  </g>
                  <g transform="translate(95 75)">
                    <g transform="translate(-12 0)">
                      <line x1="0" y1="8" x2="-10" y2="-8" stroke="#d14859" stroke-width="2.5"/>
                      <line x1="0" y1="8" x2="10" y2="-8" stroke="#d14859" stroke-width="2.5"/>
                      <line x1="0" y1="8" x2="0" y2="20" stroke="#d14859" stroke-width="2.5"/>
                      <circle cx="0" cy="22" r="4" fill="#d14859"/>
                    </g>
                    <g transform="translate(12 0)">
                      <line x1="0" y1="8" x2="-10" y2="-8" stroke="#d14859" stroke-width="2.5"/>
                      <line x1="0" y1="8" x2="10" y2="-8" stroke="#d14859" stroke-width="2.5"/>
                      <line x1="0" y1="8" x2="0" y2="20" stroke="#d14859" stroke-width="2.5"/>
                      <circle cx="0" cy="22" r="4" fill="#d14859"/>
                    </g>
                    <g fill="#e8a951" opacity="0.95">
                      <circle cx="-12" cy="22" r="5"/>
                      <circle cx="12" cy="22" r="5"/>
                    </g>
                    <line x1="-12" y1="26" x2="12" y2="26" stroke="#e8a951" stroke-width="1.5" opacity="0.5" stroke-dasharray="2 2"/>
                    <text x="0" y="48" text-anchor="middle" style="fill:#d14859;font:700 10px Inter,sans-serif">IgE + Ag</text>
                  </g>
                  <g transform="translate(405 75)">
                    <g fill="#d14859">
                      <circle cx="-12" cy="-2" r="5"/>
                      <circle cx="-3" cy="-8" r="5"/>
                      <circle cx="6" cy="0" r="5"/>
                      <circle cx="15" cy="-6" r="5"/>
                    </g>
                    <g fill="#d14859" opacity="0.55">
                      <circle cx="-10" cy="12" r="4"/>
                      <circle cx="0" cy="16" r="4"/>
                      <circle cx="10" cy="12" r="4"/>
                      <circle cx="18" cy="18" r="4"/>
                    </g>
                    <text x="0" y="38" text-anchor="middle" style="fill:#d14859;font:700 10px Inter,sans-serif">C3a · C5a</text>
                  </g>
                  <g transform="translate(95 210)">
                    <g stroke="#e8a951" stroke-width="3.5" fill="none" stroke-linejoin="miter">
                      <path d="M -18 -14 L -6 -2 L -12 2 L 0 14 L -6 18 L 10 26"/>
                    </g>
                    <g stroke="#e8a951" stroke-width="1" fill="none" opacity="0.6">
                      <path d="M -10 -18 L -4 -14"/>
                      <path d="M 12 30 L 18 34"/>
                    </g>
                    <text x="0" y="48" text-anchor="middle" style="fill:#e8a951;font:700 10px Inter,sans-serif">trauma</text>
                  </g>
                  <g transform="translate(405 210)">
                    <g stroke="#4fb8a8" stroke-width="2.5" fill="none" stroke-linecap="round">
                      <path d="M 0 -18 L 0 18"/>
                      <path d="M -18 0 L 18 0"/>
                      <path d="M -13 -13 L 13 13"/>
                      <path d="M 13 -13 L -13 13"/>
                    </g>
                    <g fill="#4fb8a8" opacity="0.85">
                      <circle r="3"/>
                    </g>
                    <text x="0" y="38" text-anchor="middle" style="fill:#4fb8a8;font:700 10px Inter,sans-serif">cold</text>
                  </g>
                  <g stroke="#d14859" stroke-width="1.3" fill="none" stroke-dasharray="4 3" opacity="0.65">
                    <line x1="125" y1="90" x2="213" y2="128"/>
                    <line x1="375" y1="90" x2="287" y2="128"/>
                    <line x1="125" y1="195" x2="213" y2="162"/>
                    <line x1="375" y1="195" x2="287" y2="162"/>
                  </g>
                </svg>
