<?xml version="1.0" encoding="UTF-8"?>
<!--
  Auto-generated from the reference HTML by
  scripts/storymode-extraction/extract.mjs.
  Do not edit by hand — regenerate the file instead.
-->
<svg xmlns="http://www.w3.org/2000/svg" xmlns:xlink="http://www.w3.org/1999/xlink" viewBox="0 0 500 260" preserveAspectRatio="xMidYMid meet">
                  <g transform="translate(130 145)">
                    <circle r="40" fill="#9370b9" opacity="0.75" stroke="#7a4a9e" stroke-width="1.5"/>
                    <circle cx="-10" cy="-10" r="5" fill="#4a2d60"/>
                    <text x="0" y="58" text-anchor="middle" style="fill:#9370b9;font:italic 700 9px Inter,sans-serif">macrophage</text>
                  </g>
                  <g transform="translate(370 145)">
                    <ellipse cx="0" cy="0" rx="25" ry="33" fill="#4fb8a8" opacity="0.7" stroke="#4fb8a8" stroke-width="1.5"/>
                    <circle cx="-4" cy="-7" r="5" fill="#111826"/>
                    <text x="0" y="54" text-anchor="middle" style="fill:#4fb8a8;font:italic 700 9px Inter,sans-serif">Th1</text>
                  </g>
                  <g stroke="#e8a951" stroke-width="2" fill="none">
                    <path d="M 170 120 Q 250 100 330 120"/>
                    <polygon points="334,120 325,116 326,124" fill="#e8a951"/>
                  </g>
                  <text x="250" y="95" text-anchor="middle" style="fill:#e8a951;font:italic 700 10px Inter,sans-serif">IL-12</text>
                  <g stroke="#d14859" stroke-width="2" fill="none">
                    <path d="M 340 170 Q 250 190 175 170"/>
                    <polygon points="170,170 179,174 178,166" fill="#d14859"/>
                  </g>
                  <text x="255" y="210" text-anchor="middle" style="fill:#d14859;font:italic 700 10px Inter,sans-serif">IFN-γ</text>
                  <g transform="translate(250 145)" opacity="0.8">
                    <circle r="52" fill="none" stroke="#e8a951" stroke-width="1.5" stroke-dasharray="4 3"/>
                    <path d="M 45 -12 Q 55 0 45 12" stroke="#e8a951" stroke-width="2" fill="none"/>
                    <polygon points="45,14 40,8 48,8" fill="#e8a951"/>
                  </g>
                  <text x="250" y="245" text-anchor="middle" style="fill:#e8a951;font:italic 700 9px Inter,sans-serif;letter-spacing:1px">NEVER STOPS</text>
                </svg>
