<?xml version="1.0" encoding="UTF-8"?>
<!--
  Auto-generated from the reference HTML by
  scripts/storymode-extraction/extract.mjs.
  Do not edit by hand — regenerate the file instead.
-->
<svg xmlns="http://www.w3.org/2000/svg" xmlns:xlink="http://www.w3.org/1999/xlink" viewBox="0 0 500 260" preserveAspectRatio="xMidYMid meet">
                  <g transform="translate(250 145)">
                    <circle r="80" fill="#d14859" opacity="0.12" stroke="#d14859" stroke-width="1" stroke-dasharray="3 2"/>
                    <circle r="55" fill="#d14859" opacity="0.2" stroke="#d14859" stroke-width="1.3"/>
                    <g fill="#d14859" opacity="0.95">
                      <circle cx="-35" cy="-20" r="4"/>
                      <circle cx="-15" cy="-35" r="4"/>
                      <circle cx="10" cy="-28" r="4"/>
                      <circle cx="30" cy="-18" r="4"/>
                      <circle cx="40" cy="5" r="4"/>
                      <circle cx="30" cy="25" r="4"/>
                      <circle cx="10" cy="35" r="4"/>
                      <circle cx="-15" cy="30" r="4"/>
                      <circle cx="-35" cy="15" r="4"/>
                      <circle cx="-40" cy="-5" r="4"/>
                      <circle cx="0" cy="0" r="4"/>
                      <circle cx="20" cy="-10" r="4"/>
                      <circle cx="-15" cy="10" r="4"/>
                    </g>
                    <g fill="#e8a951" opacity="0.85">
                      <circle cx="-65" cy="0" r="3"/>
                      <circle cx="65" cy="0" r="3"/>
                      <circle cx="0" cy="-65" r="3"/>
                      <circle cx="0" cy="65" r="3"/>
                      <circle cx="-45" cy="-45" r="3"/>
                      <circle cx="45" cy="-45" r="3"/>
                      <circle cx="-45" cy="45" r="3"/>
                      <circle cx="45" cy="45" r="3"/>
                    </g>
                    <g stroke="#e8a951" stroke-width="1.5" fill="none" opacity="0.6">
                      <path d="M 0 -55 L 0 -72 M -5 -72 L 0 -80 M 5 -72 L 0 -80"/>
                      <path d="M 0 55 L 0 72 M -5 72 L 0 80 M 5 72 L 0 80"/>
                      <path d="M -55 0 L -72 0 M -72 -5 L -80 0 M -72 5 L -80 0"/>
                      <path d="M 55 0 L 72 0 M 72 -5 L 80 0 M 72 5 L 80 0"/>
                    </g>
                  </g>
                  <text x="250" y="40" text-anchor="middle" style="fill:#d14859;font:700 11px Inter,sans-serif;letter-spacing:1.5px">CYTOKINE STORM</text>
                  <text x="250" y="54" text-anchor="middle" style="fill:#e8a951;font:italic 9px Inter,sans-serif">TNF · IL-1 · IL-6 everywhere</text>
                </svg>
