<?xml version="1.0" encoding="UTF-8"?>
<!--
  Auto-generated from the reference HTML by
  scripts/storymode-extraction/extract.mjs.
  Do not edit by hand — regenerate the file instead.
-->
<svg xmlns="http://www.w3.org/2000/svg" xmlns:xlink="http://www.w3.org/1999/xlink" viewBox="0 0 500 260" preserveAspectRatio="xMidYMid meet">
                  <text x="20" y="24" style="fill:#e8a951;font:600 10px Inter,sans-serif;letter-spacing:2px">A NEW MOLECULE APPEARS ON THE WALL</text>
                  <line x1="0" y1="155" x2="500" y2="155" stroke="#4fb8a8" stroke-width="2.5" opacity="0.7"/>
                  <line x1="0" y1="215" x2="500" y2="215" stroke="#4fb8a8" stroke-width="2.5" opacity="0.7"/>
                  <rect x="0" y="155" width="500" height="60" fill="#4fb8a8" opacity="0.1"/>
                  <text x="20" y="180" style="fill:#e8ecf3;font:600 10px Inter,sans-serif;letter-spacing:1.5px">ENDOTHELIUM</text>
                  <text x="20" y="235" style="fill:#6b7689;font:10px Inter,sans-serif;letter-spacing:1.5px">TISSUE (cytokines come from here)</text>
                  <g>
                    <path d="M 70 155 Q 65 135 75 125" stroke="#e8a951" stroke-width="2" fill="none"/><circle cx="75" cy="124" r="3" fill="#e8a951"/>
                    <path d="M 160 155 Q 155 135 165 125" stroke="#e8a951" stroke-width="2" fill="none"/><circle cx="165" cy="124" r="3" fill="#e8a951"/>
                  </g>
                  <text x="115" y="108" text-anchor="middle" style="fill:#e8a951;font:600 10px Inter,sans-serif;letter-spacing:1px">SELECTIN (rolling)</text>
                  <g transform="translate(330 130)">
                    <rect x="-5" y="-20" width="10" height="40" fill="#e8a951" opacity="0.85" stroke="#a87b3c" stroke-width="1"/>
                    <rect x="-8" y="-25" width="16" height="6" rx="2" fill="#e8a951"/>
                  </g>
                  <g transform="translate(400 130)">
                    <rect x="-5" y="-20" width="10" height="40" fill="#e8a951" opacity="0.85" stroke="#a87b3c" stroke-width="1"/>
                    <rect x="-8" y="-25" width="16" height="6" rx="2" fill="#e8a951"/>
                  </g>
                  <text x="365" y="92" text-anchor="middle" style="fill:#e8a951;font:700 13px Inter,sans-serif;letter-spacing:2px">ICAM-1</text>
                  <text x="365" y="106" text-anchor="middle" style="fill:#b4becf;font:italic 9px Inter,sans-serif">adhesion molecule</text>
                  <g>
                    <circle cx="350" cy="240" r="3" fill="#e8a951"/>
                    <circle cx="380" cy="235" r="3" fill="#e8a951"/>
                    <circle cx="410" cy="242" r="3" fill="#e8a951"/>
                  </g>
                  <text x="380" y="258" text-anchor="middle" style="fill:#e8a951;font:italic 9px Inter,sans-serif">TNF · IL-1 signaling up</text>
                  <path d="M 380 230 Q 380 200 370 180" stroke="#e8a951" stroke-width="0.8" fill="none" stroke-dasharray="2 2" opacity="0.6"/>
                </svg>
