<?xml version="1.0" encoding="UTF-8"?>
<!--
  Auto-generated from the reference HTML by
  scripts/storymode-extraction/extract.mjs.
  Do not edit by hand — regenerate the file instead.
-->
<svg xmlns="http://www.w3.org/2000/svg" xmlns:xlink="http://www.w3.org/1999/xlink" viewBox="0 0 500 260" preserveAspectRatio="xMidYMid meet">
                  <g transform="translate(250 145)">
                    <circle r="55" fill="none" stroke="#9370b9" stroke-width="2"/>
                    <g fill="#9370b9" opacity="0.85">
                      <circle cx="-42" cy="0" r="6"/>
                      <circle cx="-30" cy="-30" r="6"/>
                      <circle cx="0" cy="-42" r="6"/>
                      <circle cx="30" cy="-30" r="6"/>
                      <circle cx="42" cy="0" r="6"/>
                      <circle cx="30" cy="30" r="6"/>
                      <circle cx="0" cy="42" r="6"/>
                      <circle cx="-30" cy="30" r="6"/>
                    </g>
                    <g transform="translate(0 0)">
                      <circle r="15" fill="#9370b9" opacity="0.85" stroke="#7a4a9e" stroke-width="1.3"/>
                      <circle cx="-6" cy="-4" r="3" fill="#4a2d60"/>
                      <circle cx="6" cy="-2" r="3" fill="#4a2d60"/>
                      <circle cx="-4" cy="5" r="3" fill="#4a2d60"/>
                      <circle cx="5" cy="6" r="3" fill="#4a2d60"/>
                    </g>
                    <g fill="#4fb8a8" opacity="0.8">
                      <ellipse cx="-70" cy="-35" rx="4" ry="5"/>
                      <ellipse cx="-75" cy="5" rx="4" ry="5"/>
                      <ellipse cx="-55" cy="50" rx="4" ry="5"/>
                      <ellipse cx="0" cy="-75" rx="4" ry="5"/>
                      <ellipse cx="65" cy="-45" rx="4" ry="5"/>
                      <ellipse cx="75" cy="-5" rx="4" ry="5"/>
                      <ellipse cx="65" cy="40" rx="4" ry="5"/>
                      <ellipse cx="30" cy="65" rx="4" ry="5"/>
                      <ellipse cx="-25" cy="72" rx="4" ry="5"/>
                    </g>
                  </g>
                  <g transform="translate(80 70)">
                    <text x="0" y="0" style="fill:#9370b9;font:700 10px Inter,sans-serif">NONCASEATING</text>
                    <text x="0" y="14" style="fill:#b4becf;font:italic 9px Inter,sans-serif">no necrotic center</text>
                  </g>
                  <g transform="translate(410 70)">
                    <text x="0" y="0" text-anchor="end" style="fill:#d14859;font:italic 700 9px Inter,sans-serif">STERILE</text>
                    <text x="0" y="14" text-anchor="end" style="fill:#b4becf;font:italic 9px Inter,sans-serif">no organism</text>
                  </g>
                </svg>
