<?xml version="1.0" encoding="UTF-8"?>
<!--
  Auto-generated from the reference HTML by
  scripts/storymode-extraction/extract.mjs.
  Do not edit by hand — regenerate the file instead.
-->
<svg xmlns="http://www.w3.org/2000/svg" xmlns:xlink="http://www.w3.org/1999/xlink" viewBox="0 0 500 260" preserveAspectRatio="xMidYMid meet">
                  <g transform="translate(140 145)">
                    <circle r="38" fill="none" stroke="#9370b9" stroke-width="1.5"/>
                    <g fill="#9370b9" opacity="0.8">
                      <circle cx="-28" cy="0" r="4"/>
                      <circle cx="-20" cy="-20" r="4"/>
                      <circle cx="0" cy="-30" r="4"/>
                      <circle cx="20" cy="-20" r="4"/>
                      <circle cx="28" cy="0" r="4"/>
                      <circle cx="0" cy="30" r="4"/>
                    </g>
                    <g stroke="#e8a951" stroke-width="3" fill="none" stroke-linecap="round">
                      <path d="M 0 -15 L 0 15"/>
                      <path d="M -12 -9 L 12 9"/>
                      <path d="M 12 -9 L -12 9"/>
                    </g>
                    <text x="0" y="58" text-anchor="middle" style="fill:#9370b9;font:italic 700 9px Inter,sans-serif">cat scratch</text>
                    <text x="0" y="70" text-anchor="middle" style="fill:#b4becf;font:italic 8px Inter,sans-serif">axillary LN</text>
                  </g>
                  <g transform="translate(360 145)">
                    <circle r="38" fill="none" stroke="#9370b9" stroke-width="1.5"/>
                    <g fill="#9370b9" opacity="0.8">
                      <circle cx="-28" cy="0" r="4"/>
                      <circle cx="-20" cy="-20" r="4"/>
                      <circle cx="0" cy="-30" r="4"/>
                      <circle cx="20" cy="-20" r="4"/>
                      <circle cx="28" cy="0" r="4"/>
                      <circle cx="0" cy="30" r="4"/>
                    </g>
                    <g stroke="#e8a951" stroke-width="3" fill="none" stroke-linecap="round">
                      <path d="M 0 -15 L 0 15"/>
                      <path d="M -12 -9 L 12 9"/>
                      <path d="M 12 -9 L -12 9"/>
                    </g>
                    <text x="0" y="58" text-anchor="middle" style="fill:#9370b9;font:italic 700 9px Inter,sans-serif">LGV</text>
                    <text x="0" y="70" text-anchor="middle" style="fill:#b4becf;font:italic 8px Inter,sans-serif">inguinal LN</text>
                  </g>
                  <text x="250" y="140" text-anchor="middle" style="fill:#e8ecf3;font:italic 600 11px Fraunces,serif">same pattern</text>
                  <text x="250" y="220" text-anchor="middle" style="fill:#6b7689;font:italic 9px Inter,sans-serif">exposure → draining node</text>
                </svg>
