<?xml version="1.0" encoding="UTF-8"?>
<!--
  Auto-generated from the reference HTML by
  scripts/storymode-extraction/extract.mjs.
  Do not edit by hand — regenerate the file instead.
-->
<svg xmlns="http://www.w3.org/2000/svg" xmlns:xlink="http://www.w3.org/1999/xlink" viewBox="0 0 500 260" preserveAspectRatio="xMidYMid meet">
                  <line x1="0" y1="180" x2="500" y2="180" stroke="#4fb8a8" stroke-width="2.5" opacity="0.7"/>
                  <text x="20" y="40" style="fill:#e8a951;font:600 10px Inter,sans-serif;letter-spacing:2px">ROLLING — SLOW TUMBLING ALONG THE WALL</text>
                  <text x="20" y="200" style="fill:#6b7689;font:10px Inter,sans-serif;letter-spacing:1.5px">ENDOTHELIUM (with selectins)</text>
                  <g>
                    <path d="M 60 180 Q 55 162 65 153" stroke="#e8a951" stroke-width="2" fill="none" opacity="0.6"/><circle cx="65" cy="152" r="3" fill="#e8a951" opacity="0.6"/>
                    <path d="M 140 180 Q 135 162 145 153" stroke="#e8a951" stroke-width="2" fill="none" opacity="0.6"/><circle cx="145" cy="152" r="3" fill="#e8a951" opacity="0.6"/>
                    <path d="M 220 180 Q 215 162 225 153" stroke="#e8a951" stroke-width="2" fill="none" opacity="0.6"/><circle cx="225" cy="152" r="3" fill="#e8a951" opacity="0.6"/>
                    <path d="M 300 180 Q 295 162 305 153" stroke="#e8a951" stroke-width="2" fill="none" opacity="0.6"/><circle cx="305" cy="152" r="3" fill="#e8a951" opacity="0.6"/>
                    <path d="M 380 180 Q 375 162 385 153" stroke="#e8a951" stroke-width="2" fill="none" opacity="0.6"/><circle cx="385" cy="152" r="3" fill="#e8a951" opacity="0.6"/>
                    <path d="M 460 180 Q 455 162 465 153" stroke="#e8a951" stroke-width="2" fill="none" opacity="0.6"/><circle cx="465" cy="152" r="3" fill="#e8a951" opacity="0.6"/>
                  </g>
                  <g opacity="0.25">
                    <circle cx="85" cy="140" r="15" fill="#e8a951" stroke="#a87b3c"/>
                    <circle cx="82" cy="138" r="3" fill="#4a2d60"/>
                    <circle cx="88" cy="142" r="3" fill="#4a2d60"/>
                  </g>
                  <g opacity="0.5">
                    <circle cx="170" cy="138" r="15" fill="#e8a951" stroke="#a87b3c"/>
                    <circle cx="169" cy="134" r="3" fill="#4a2d60"/>
                    <circle cx="174" cy="140" r="3" fill="#4a2d60"/>
                  </g>
                  <g opacity="0.75">
                    <circle cx="255" cy="136" r="15" fill="#e8a951" stroke="#a87b3c"/>
                    <circle cx="258" cy="132" r="3" fill="#4a2d60"/>
                    <circle cx="254" cy="140" r="3" fill="#4a2d60"/>
                  </g>
                  <g>
                    <circle cx="340" cy="134" r="15" fill="#e8a951" stroke="#a87b3c"/>
                    <circle cx="344" cy="131" r="3" fill="#4a2d60"/>
                    <circle cx="337" cy="138" r="3" fill="#4a2d60"/>
                  </g>
                  <g transform="translate(370 135)">
                    <path d="M -235 -60 Q -100 -80 0 -5" stroke="#e8a951" stroke-width="1.3" fill="none" stroke-dasharray="4 3" opacity="0.6"/>
                    <text x="-120" y="-72" text-anchor="middle" style="fill:#e8a951;font:italic 11px Inter,sans-serif">rolling path</text>
                  </g>
                  <text x="250" y="232" text-anchor="middle" style="fill:#b4becf;font:italic 12px Inter,sans-serif">much slower than racing — but still moving</text>
                </svg>
