<?xml version="1.0" encoding="UTF-8"?>
<!--
  Auto-generated from the reference HTML by
  scripts/storymode-extraction/extract.mjs.
  Do not edit by hand — regenerate the file instead.
-->
<svg xmlns="http://www.w3.org/2000/svg" xmlns:xlink="http://www.w3.org/1999/xlink" viewBox="0 0 500 260" preserveAspectRatio="xMidYMid meet">
                  <text x="20" y="32" style="fill:#e8a951;font:600 10px Inter,sans-serif;letter-spacing:2px">MICROBIAL SIGNATURES · PAMPs</text>
                  <g transform="translate(90 90)">
                    <ellipse cx="0" cy="0" rx="44" ry="26" fill="#d14859" opacity="0.75" stroke="#a33648" stroke-width="1.2"/>
                    <g fill="#e8a951">
                      <circle cx="-30" cy="-24" r="3"/><circle cx="-14" cy="-28" r="3"/><circle cx="2" cy="-30" r="3"/><circle cx="20" cy="-28" r="3"/><circle cx="34" cy="-22" r="3"/>
                      <line x1="-30" y1="-24" x2="-30" y2="-15" stroke="#e8a951" stroke-width="1.2"/>
                      <line x1="-14" y1="-28" x2="-14" y2="-17" stroke="#e8a951" stroke-width="1.2"/>
                      <line x1="2" y1="-30" x2="2" y2="-19" stroke="#e8a951" stroke-width="1.2"/>
                      <line x1="20" y1="-28" x2="20" y2="-17" stroke="#e8a951" stroke-width="1.2"/>
                      <line x1="34" y1="-22" x2="34" y2="-13" stroke="#e8a951" stroke-width="1.2"/>
                    </g>
                    <text x="0" y="48" text-anchor="middle" style="fill:#b4becf;font:italic 10px Inter,sans-serif">gram-negative bacterium</text>
                    <text x="0" y="62" text-anchor="middle" style="fill:#e8a951;font:600 9px Inter,sans-serif;letter-spacing:1px">→ LPS</text>
                  </g>
                  <g transform="translate(250 90)">
                    <circle cx="0" cy="0" r="26" fill="#9370b9" opacity="0.6" stroke="#9370b9" stroke-width="1.2"/>
                    <path d="M -12 -5 Q -6 -12 0 -5 T 12 -5" fill="none" stroke="#e8a951" stroke-width="1.8"/>
                    <path d="M -12 5 Q -6 12 0 5 T 12 5" fill="none" stroke="#e8a951" stroke-width="1.8"/>
                    <text x="0" y="48" text-anchor="middle" style="fill:#b4becf;font:italic 10px Inter,sans-serif">virus</text>
                    <text x="0" y="62" text-anchor="middle" style="fill:#e8a951;font:600 9px Inter,sans-serif;letter-spacing:1px">→ ss/dsRNA</text>
                  </g>
                  <g transform="translate(400 90)">
                    <circle cx="0" cy="0" r="28" fill="#4fb8a8" opacity="0.5" stroke="#4fb8a8" stroke-width="1.2"/>
                    <g fill="#e8a951" opacity="0.9">
                      <circle cx="-18" cy="-15" r="4"/><circle cx="-8" cy="-22" r="4"/><circle cx="6" cy="-22" r="4"/><circle cx="18" cy="-18" r="4"/>
                      <circle cx="22" cy="-5" r="4"/><circle cx="-20" cy="2" r="4"/>
                    </g>
                    <text x="0" y="48" text-anchor="middle" style="fill:#b4becf;font:italic 10px Inter,sans-serif">fungus</text>
                    <text x="0" y="62" text-anchor="middle" style="fill:#e8a951;font:600 9px Inter,sans-serif;letter-spacing:1px">→ mannose</text>
                  </g>
                  <line x1="40" y1="190" x2="460" y2="190" stroke="#222c3e" stroke-width="1"/>
                  <text x="250" y="215" text-anchor="middle" style="fill:#b4becf;font:italic 400 11px Fraunces,serif">these molecules — the <tspan fill="#e8a951" font-weight="600">PAMPs</tspan> — don't exist in healthy human cells</text>
                  <text x="250" y="238" text-anchor="middle" style="fill:#6b7689;font:italic 400 10px Inter,sans-serif">they are the body's definition of "not-self"</text>
                </svg>
