<?xml version="1.0" encoding="UTF-8"?>
<!--
  Auto-generated from the reference HTML by
  scripts/storymode-extraction/extract.mjs.
  Do not edit by hand — regenerate the file instead.
-->
<svg xmlns="http://www.w3.org/2000/svg" xmlns:xlink="http://www.w3.org/1999/xlink" viewBox="0 0 500 260" preserveAspectRatio="xMidYMid meet">
                  <text x="20" y="24" style="fill:#e8a951;font:600 10px Inter,sans-serif;letter-spacing:2px">PSEUDOPODS CURL AROUND THE TARGET</text>
                  <g transform="translate(250 150)">
                    <path d="M -55 -5 Q -60 -45 -30 -55 Q 0 -68 35 -55 Q 70 -50 80 -5 Q 82 30 65 55 Q 25 75 -15 72 Q -50 70 -60 35 Q -65 15 -55 -5 Z" fill="#e8a951" opacity="0.85" stroke="#a87b3c" stroke-width="1.5"/>
                    <path d="M 80 -5 Q 100 -20 100 0 Q 95 15 75 15" fill="#e8a951" opacity="0.85" stroke="#a87b3c" stroke-width="1.5"/>
                    <path d="M 65 55 Q 90 55 95 35 Q 95 20 85 20" fill="#e8a951" opacity="0.85" stroke="#a87b3c" stroke-width="1.5"/>
                    <circle cx="-20" cy="-10" r="7" fill="#4a2d60"/>
                    <circle cx="-5" cy="10" r="7" fill="#4a2d60"/>
                    <g transform="translate(75 18)">
                      <ellipse cx="0" cy="0" rx="18" ry="13" fill="#d14859" opacity="0.85" stroke="#a33648" stroke-width="1.3"/>
                    </g>
                  </g>
                  <path d="M 350 105 Q 380 100 395 90" stroke="#e8a951" stroke-width="0.8" fill="none" stroke-dasharray="2 2" opacity="0.7"/>
                  <text x="410" y="88" style="fill:#e8a951;font:italic 10px Inter,sans-serif">arms closing in</text>
                  <text x="250" y="245" text-anchor="middle" style="fill:#e8ecf3;font:italic 600 12px Fraunces,serif">reaching and closing — almost sealed</text>
                </svg>
