<?xml version="1.0" encoding="UTF-8"?>
<!--
  Auto-generated from the reference HTML by
  scripts/storymode-extraction/extract.mjs.
  Do not edit by hand — regenerate the file instead.
-->
<svg xmlns="http://www.w3.org/2000/svg" xmlns:xlink="http://www.w3.org/1999/xlink" viewBox="0 0 500 260" preserveAspectRatio="xMidYMid meet">
                  <text x="20" y="38" style="fill:#e8a951;font:600 10px Inter,sans-serif;letter-spacing:2px">THE PATTERN TLR4 LOOKS FOR: LPS</text>
                  <g transform="translate(70 145)">
                    <path d="M 0 -30 Q 40 -36 80 -30 L 80 30 Q 40 36 0 30 Z" fill="#d14859" opacity="0.12" stroke="#d14859" stroke-width="2"/>
                    <path d="M 0 -30 Q 40 -36 80 -30" stroke="#d14859" stroke-width="1.5" fill="none" opacity="0.7"/>
                    <path d="M 0 -22 Q 40 -28 80 -22" stroke="#d14859" stroke-width="1" fill="none" opacity="0.5"/>
                    <text x="40" y="58" text-anchor="middle" style="fill:#d14859;font:600 10px Inter,sans-serif;letter-spacing:1.5px">GRAM-NEG</text>
                    <text x="40" y="71" text-anchor="middle" style="fill:#d14859;font:600 10px Inter,sans-serif;letter-spacing:1.5px">BACTERIUM</text>
                  </g>
                  <path d="M 155 120 Q 195 105 225 100" stroke="#e8a951" stroke-width="1" stroke-dasharray="3 3" fill="none" opacity="0.7"/>
                  <polygon points="230,99 222,95 224,103" fill="#e8a951"/>
                  <g transform="translate(280 138)">
                    <ellipse cx="0" cy="0" rx="12" ry="6.5" fill="#e8a951"/>
                    <path d="M -8 5 Q -10 14 -8 22" stroke="#e8a951" stroke-width="2.2" fill="none"/>
                    <path d="M 8 5 Q 10 14 8 22" stroke="#e8a951" stroke-width="2.2" fill="none"/>
                    <text x="38" y="3" style="fill:#e8a951;font:600 10px Inter,sans-serif">lipid A</text>
                    <text x="38" y="16" style="fill:#6b7689;font:italic 9px Inter,sans-serif">toxic anchor</text>
                    <line x1="0" y1="-8" x2="0" y2="-35" stroke="#e8a951" stroke-width="2"/>
                    <text x="12" y="-23" style="fill:#e8a951;font:600 10px Inter,sans-serif">core sugars</text>
                    <circle cx="0" cy="-42" r="3.5" fill="#e8a951"/>
                    <circle cx="0" cy="-52" r="3.5" fill="#e8a951"/>
                    <circle cx="0" cy="-62" r="3.5" fill="#e8a951"/>
                    <text x="12" y="-55" style="fill:#e8a951;font:600 10px Inter,sans-serif">O-antigen</text>
                  </g>
                  <g transform="translate(425 145)">
                    <rect x="-52" y="-28" width="104" height="56" rx="10" fill="#e8a951" opacity="0.15" stroke="#e8a951" stroke-width="1.5"/>
                    <text x="0" y="-5" text-anchor="middle" style="fill:#e8a951;font:700 18px Inter,sans-serif;letter-spacing:2px">LPS</text>
                    <text x="0" y="14" text-anchor="middle" style="fill:#b4becf;font:italic 10px Inter,sans-serif">= endotoxin</text>
                  </g>
                  <text x="250" y="244" text-anchor="middle" style="fill:#b4becf;font:italic 11px Inter,sans-serif">decorates the outer membrane of every gram-negative bug</text>
                </svg>
