<?xml version="1.0" encoding="UTF-8"?>
<!--
  Auto-generated from the reference HTML by
  scripts/storymode-extraction/extract.mjs.
  Do not edit by hand — regenerate the file instead.
-->
<svg xmlns="http://www.w3.org/2000/svg" xmlns:xlink="http://www.w3.org/1999/xlink" viewBox="0 0 500 260" preserveAspectRatio="xMidYMid meet">
                  <text x="20" y="24" style="fill:#e8a951;font:600 10px Inter,sans-serif;letter-spacing:2px">MELANOCYTE FUNCTION — NORMAL vs LYST BROKEN</text>

                  <!-- ========= NORMAL PANEL (left) ========= -->
                  <text x="115" y="50" text-anchor="middle" style="fill:#6b7689;font:italic 700 9px Inter,sans-serif;letter-spacing:2px">NORMAL</text>

                  <!-- Melanocyte with dispersed melanosomes -->
                  <g transform="translate(75 115)">
                    <path d="M -28 -5 Q -34 -25 -14 -30 Q 6 -32 20 -22 Q 34 -10 30 10 Q 26 25 8 28 Q -12 30 -25 15 Z"
                          fill="#9370b9" opacity="0.38" stroke="#7a4a9e" stroke-width="1.2"/>
                    <g fill="#2a1810" opacity="0.9">
                      <circle cx="-14" cy="-15" r="2.5"/>
                      <circle cx="4" cy="-20" r="2.5"/>
                      <circle cx="-8" cy="4" r="2.5"/>
                      <circle cx="10" cy="-4" r="2.5"/>
                      <circle cx="15" cy="12" r="2.5"/>
                      <circle cx="-3" cy="18" r="2.5"/>
                      <circle cx="-19" cy="-2" r="2.5"/>
                      <circle cx="19" cy="-15" r="2.5"/>
                    </g>
                  </g>

                  <!-- Transfer arrows: melanocyte → hair -->
                  <g stroke="#2a1810" stroke-width="1.3" opacity="0.8" fill="none">
                    <path d="M 110 100 Q 130 95 152 98"/>
                    <path d="M 110 115 Q 130 115 152 115"/>
                    <path d="M 110 130 Q 130 135 152 133"/>
                  </g>
                  <g fill="#2a1810" opacity="0.85">
                    <polygon points="158,98 150,94 150,102"/>
                    <polygon points="158,115 150,111 150,119"/>
                    <polygon points="158,133 150,129 150,137"/>
                  </g>

                  <!-- Hair shaft (dark) -->
                  <g transform="translate(180 115)">
                    <path d="M -7 -32 Q -4 0 -7 32 L 7 32 Q 4 0 7 -32 Z" fill="#2a1810" opacity="0.92" stroke="#1a0f08" stroke-width="1"/>
                    <g fill="#3a2418" opacity="0.7">
                      <circle cx="0" cy="-20" r="1.5"/>
                      <circle cx="2" cy="-8" r="1.5"/>
                      <circle cx="-1" cy="6" r="1.5"/>
                      <circle cx="2" cy="20" r="1.5"/>
                    </g>
                  </g>

                  <text x="75" y="168" text-anchor="middle" style="fill:#9370b9;font:700 9px Inter,sans-serif;letter-spacing:1px">melanocyte</text>
                  <text x="75" y="180" text-anchor="middle" style="fill:#b4becf;font:italic 8px Inter,sans-serif">dispersed melanosomes</text>
                  <text x="180" y="168" text-anchor="middle" style="fill:#e8ecf3;font:700 9px Inter,sans-serif;letter-spacing:1px">hair</text>
                  <text x="75" y="205" text-anchor="middle" style="fill:#4fb8a8;font:italic 8px Inter,sans-serif">→ pigment delivered</text>
                  <text x="180" y="205" text-anchor="middle" style="fill:#e8ecf3;font:800 11px Inter,sans-serif;letter-spacing:1.5px">DARK</text>

                  <!-- ========= BROKEN PANEL (right) ========= -->
                  <text x="385" y="50" text-anchor="middle" style="fill:#6b7689;font:italic 700 9px Inter,sans-serif;letter-spacing:2px">BROKEN LYST</text>

                  <!-- Melanocyte with clumped melanosomes -->
                  <g transform="translate(345 115)">
                    <path d="M -28 -5 Q -34 -25 -14 -30 Q 6 -32 20 -22 Q 34 -10 30 10 Q 26 25 8 28 Q -12 30 -25 15 Z"
                          fill="#9370b9" opacity="0.38" stroke="#7a4a9e" stroke-width="1.2"/>
                    <!-- One big dark clump -->
                    <ellipse cx="0" cy="0" rx="14" ry="11" fill="#2a1810" opacity="0.92"/>
                    <circle cx="-5" cy="-3" r="3.5" fill="#3a2418" opacity="0.85"/>
                    <circle cx="4" cy="3" r="3.5" fill="#3a2418" opacity="0.85"/>
                    <circle cx="3" cy="-5" r="2.8" fill="#3a2418" opacity="0.85"/>
                  </g>

                  <!-- Failed transfer: dashed line + X -->
                  <g stroke="#6b7689" stroke-width="1" opacity="0.5" fill="none" stroke-dasharray="2 2">
                    <line x1="380" y1="115" x2="418" y2="115"/>
                  </g>
                  <g transform="translate(405 115)">
                    <circle r="9" fill="#0a0e1a" stroke="#d14859" stroke-width="1.8"/>
                    <line x1="-5" y1="-5" x2="5" y2="5" stroke="#d14859" stroke-width="1.8"/>
                    <line x1="5" y1="-5" x2="-5" y2="5" stroke="#d14859" stroke-width="1.8"/>
                  </g>

                  <!-- Hair shaft (silvery) -->
                  <g transform="translate(445 115)">
                    <path d="M -7 -32 Q -4 0 -7 32 L 7 32 Q 4 0 7 -32 Z" fill="#c8cfd9" opacity="0.85" stroke="#e8ecf3" stroke-width="1"/>
                  </g>

                  <text x="345" y="168" text-anchor="middle" style="fill:#9370b9;font:700 9px Inter,sans-serif;letter-spacing:1px">melanocyte</text>
                  <text x="345" y="180" text-anchor="middle" style="fill:#d14859;font:italic 8px Inter,sans-serif">melanosomes clumped</text>
                  <text x="445" y="168" text-anchor="middle" style="fill:#e8ecf3;font:700 9px Inter,sans-serif;letter-spacing:1px">hair</text>
                  <text x="345" y="205" text-anchor="middle" style="fill:#d14859;font:italic 8px Inter,sans-serif">→ can't transfer</text>
                  <text x="445" y="205" text-anchor="middle" style="fill:#e8ecf3;font:800 11px Inter,sans-serif;letter-spacing:1.5px">SILVERY</text>

                  <text x="250" y="238" text-anchor="middle" style="fill:#b4becf;font:italic 10px Inter,sans-serif">LYST traffics melanosomes out · without it they clump inside</text>
                  <text x="250" y="252" text-anchor="middle" style="fill:#6b7689;font:italic 9px Inter,sans-serif">(partial albinism = the pigment version of 'no fusion')</text>
                </svg>
