<?xml version="1.0" encoding="UTF-8"?>
<!--
  Auto-generated from the reference HTML by
  scripts/storymode-extraction/extract.mjs.
  Do not edit by hand — regenerate the file instead.
-->
<svg xmlns="http://www.w3.org/2000/svg" xmlns:xlink="http://www.w3.org/1999/xlink" viewBox="0 0 500 260" preserveAspectRatio="xMidYMid meet">
                  <g transform="translate(100 160)">
                    <path d="M -25 -40 Q -35 -20 -30 15 Q -20 35 0 38 Q 20 35 30 15 Q 35 -20 25 -40 Q 0 -48 -25 -40" fill="#4fb8a8" opacity="0.75" stroke="#4fb8a8" stroke-width="1.3"/>
                    <g fill="#4fb8a8" opacity="0.85">
                      <ellipse cx="-12" cy="-15" rx="5" ry="6"/>
                      <ellipse cx="10" cy="-18" rx="5" ry="6"/>
                      <ellipse cx="-8" cy="5" rx="5" ry="6"/>
                      <ellipse cx="12" cy="8" rx="5" ry="6"/>
                      <ellipse cx="0" cy="20" rx="5" ry="6"/>
                    </g>
                    <text x="0" y="58" text-anchor="middle" style="fill:#4fb8a8;font:italic 9px Inter,sans-serif">age 15</text>
                  </g>
                  <g transform="translate(250 160)">
                    <path d="M -18 -28 Q -25 -12 -22 12 Q -12 28 0 30 Q 12 28 22 12 Q 25 -12 18 -28 Q 0 -35 -18 -28" fill="#4fb8a8" opacity="0.55" stroke="#4fb8a8" stroke-width="1.3"/>
                    <g fill="#4fb8a8" opacity="0.7">
                      <ellipse cx="-6" cy="-8" rx="4" ry="5"/>
                      <ellipse cx="6" cy="5" rx="4" ry="5"/>
                    </g>
                    <g fill="#a87b3c" opacity="0.5">
                      <circle cx="-10" cy="8" r="3"/>
                      <circle cx="8" cy="-10" r="3"/>
                      <circle cx="0" cy="18" r="3"/>
                    </g>
                    <text x="0" y="52" text-anchor="middle" style="fill:#4fb8a8;font:italic 9px Inter,sans-serif">age 40</text>
                  </g>
                  <g transform="translate(400 160)">
                    <path d="M -14 -20 Q -20 -8 -17 10 Q -8 22 0 23 Q 8 22 17 10 Q 20 -8 14 -20 Q 0 -25 -14 -20" fill="#a87b3c" opacity="0.55" stroke="#a87b3c" stroke-width="1.3" stroke-dasharray="2 2"/>
                    <g fill="#a87b3c" opacity="0.75">
                      <circle cx="-6" cy="-5" r="3"/>
                      <circle cx="5" cy="8" r="3"/>
                      <circle cx="-3" cy="12" r="3"/>
                      <circle cx="8" cy="-8" r="3"/>
                    </g>
                    <text x="0" y="48" text-anchor="middle" style="fill:#a87b3c;font:italic 9px Inter,sans-serif">age 70</text>
                  </g>
                  <g stroke="#6b7689" stroke-width="1" fill="none" stroke-dasharray="3 2">
                    <line x1="145" y1="160" x2="215" y2="160"/>
                    <polygon points="218,160 210,156 210,164" fill="#6b7689"/>
                    <line x1="285" y1="160" x2="365" y2="160"/>
                    <polygon points="368,160 360,156 360,164" fill="#6b7689"/>
                  </g>
                  <text x="250" y="75" text-anchor="middle" style="fill:#e8a951;font:italic 700 10px Inter,sans-serif">active tissue → fat</text>
                </svg>
