<?xml version="1.0" encoding="UTF-8"?>
<!--
  Auto-generated from the reference HTML by
  scripts/storymode-extraction/extract.mjs.
  Do not edit by hand — regenerate the file instead.
-->
<svg xmlns="http://www.w3.org/2000/svg" xmlns:xlink="http://www.w3.org/1999/xlink" viewBox="0 0 500 260" preserveAspectRatio="xMidYMid meet">
                  <g transform="translate(130 145)">
                    <ellipse cx="0" cy="0" rx="30" ry="22" fill="#d14859" opacity="0.8" stroke="#a33648" stroke-width="1.3"/>
                    <text x="0" y="42" text-anchor="middle" style="fill:#d14859;font:700 9px Inter,sans-serif">naked bug</text>
                    <text x="0" y="54" text-anchor="middle" style="fill:#b4becf;font:italic 8px Inter,sans-serif">grabs OK</text>
                  </g>
                  <g transform="translate(370 145)">
                    <ellipse cx="0" cy="0" rx="55" ry="42" fill="none" stroke="#9370b9" stroke-width="2" stroke-dasharray="4 3" opacity="0.8"/>
                    <ellipse cx="0" cy="0" rx="30" ry="22" fill="#d14859" opacity="0.8" stroke="#a33648" stroke-width="1.3"/>
                    <g fill="#9370b9" opacity="0.4">
                      <circle cx="-48" cy="-15" r="4"/>
                      <circle cx="-40" cy="-28" r="4"/>
                      <circle cx="-20" cy="-38" r="4"/>
                      <circle cx="20" cy="-38" r="4"/>
                      <circle cx="40" cy="-28" r="4"/>
                      <circle cx="48" cy="-15" r="4"/>
                      <circle cx="48" cy="15" r="4"/>
                      <circle cx="40" cy="28" r="4"/>
                      <circle cx="20" cy="38" r="4"/>
                      <circle cx="-20" cy="38" r="4"/>
                      <circle cx="-40" cy="28" r="4"/>
                      <circle cx="-48" cy="15" r="4"/>
                    </g>
                    <text x="0" y="62" text-anchor="middle" style="fill:#9370b9;font:700 9px Inter,sans-serif">CAPSULE</text>
                    <text x="0" y="74" text-anchor="middle" style="fill:#b4becf;font:italic 8px Inter,sans-serif">slippery</text>
                  </g>
                  <g transform="translate(90 90)">
                    <path d="M 0 0 Q 4 -3 8 0" stroke="#e8a951" stroke-width="1.5" fill="none"/>
                    <circle cx="4" cy="4" r="3" fill="#e8a951"/>
                    <text x="14" y="6" style="fill:#e8a951;font:italic 8px Inter,sans-serif">PMN grips</text>
                  </g>
                  <g transform="translate(295 90)">
                    <path d="M 0 0 L 12 12" stroke="#e8a951" stroke-width="1.5" fill="none"/>
                    <circle r="3" fill="#e8a951"/>
                    <path d="M 10 6 L 14 10 M 10 10 L 14 6" stroke="#e8a951" stroke-width="1.5"/>
                    <text x="18" y="12" style="fill:#e8a951;font:italic 8px Inter,sans-serif">PMN slips</text>
                  </g>
                </svg>
