<?xml version="1.0" encoding="UTF-8"?>
<!--
  Auto-generated from the reference HTML by
  scripts/storymode-extraction/extract.mjs.
  Do not edit by hand — regenerate the file instead.
-->
<svg xmlns="http://www.w3.org/2000/svg" xmlns:xlink="http://www.w3.org/1999/xlink" viewBox="0 0 500 260" preserveAspectRatio="xMidYMid meet">
                  <text x="20" y="24" style="fill:#e8a951;font:600 10px Inter,sans-serif;letter-spacing:2px">BASELINE — VESSEL IS SEALED</text>
                  <rect x="40" y="100" width="420" height="80" rx="10" fill="#4fb8a8" opacity="0.12" stroke="#4fb8a8" stroke-width="1.5"/>
                  <g transform="translate(60 100)">
                    <rect x="0" y="0" width="50" height="10" fill="#4fb8a8" opacity="0.85"/>
                    <rect x="52" y="0" width="50" height="10" fill="#4fb8a8" opacity="0.85"/>
                    <rect x="104" y="0" width="50" height="10" fill="#4fb8a8" opacity="0.85"/>
                    <rect x="156" y="0" width="50" height="10" fill="#4fb8a8" opacity="0.85"/>
                    <rect x="208" y="0" width="50" height="10" fill="#4fb8a8" opacity="0.85"/>
                    <rect x="260" y="0" width="50" height="10" fill="#4fb8a8" opacity="0.85"/>
                    <rect x="312" y="0" width="50" height="10" fill="#4fb8a8" opacity="0.85"/>
                    <rect x="364" y="0" width="40" height="10" fill="#4fb8a8" opacity="0.85"/>
                  </g>
                  <g transform="translate(60 170)">
                    <rect x="0" y="0" width="50" height="10" fill="#4fb8a8" opacity="0.85"/>
                    <rect x="52" y="0" width="50" height="10" fill="#4fb8a8" opacity="0.85"/>
                    <rect x="104" y="0" width="50" height="10" fill="#4fb8a8" opacity="0.85"/>
                    <rect x="156" y="0" width="50" height="10" fill="#4fb8a8" opacity="0.85"/>
                    <rect x="208" y="0" width="50" height="10" fill="#4fb8a8" opacity="0.85"/>
                    <rect x="260" y="0" width="50" height="10" fill="#4fb8a8" opacity="0.85"/>
                    <rect x="312" y="0" width="50" height="10" fill="#4fb8a8" opacity="0.85"/>
                    <rect x="364" y="0" width="40" height="10" fill="#4fb8a8" opacity="0.85"/>
                  </g>
                  <g fill="#d14859" opacity="0.7">
                    <circle cx="130" cy="140" r="6"/>
                    <circle cx="200" cy="135" r="6"/>
                    <circle cx="280" cy="145" r="6"/>
                    <circle cx="350" cy="138" r="6"/>
                    <circle cx="410" cy="142" r="6"/>
                  </g>
                  <text x="250" y="220" text-anchor="middle" style="fill:#b4becf;font:italic 11px Inter,sans-serif">RBCs in lumen, plasma contained</text>
                  <text x="60" y="90" style="fill:#4fb8a8;font:italic 9px Inter,sans-serif">endothelium</text>
                </svg>
