<?xml version="1.0" encoding="UTF-8"?>
<!--
  Auto-generated from the reference HTML by
  scripts/storymode-extraction/extract.mjs.
  Do not edit by hand — regenerate the file instead.
-->
<svg xmlns="http://www.w3.org/2000/svg" xmlns:xlink="http://www.w3.org/1999/xlink" viewBox="0 0 500 260" preserveAspectRatio="xMidYMid meet">
                  <g transform="translate(150 145)">
                    <circle r="38" fill="#e8a951" opacity="0.85" stroke="#a87b3c" stroke-width="1.5"/>
                    <circle cx="-10" cy="-8" r="5" fill="#4a2d60"/>
                    <circle cx="10" cy="10" r="5" fill="#4a2d60"/>
                  </g>
                  <g fill="#d14859" opacity="0.85">
                    <circle cx="200" cy="120" r="4"/>
                    <circle cx="220" cy="108" r="3"/>
                    <circle cx="240" cy="95" r="4"/>
                    <circle cx="260" cy="85" r="3"/>
                    <circle cx="280" cy="72" r="4"/>
                    <circle cx="210" cy="170" r="4"/>
                    <circle cx="230" cy="185" r="3"/>
                    <circle cx="255" cy="195" r="4"/>
                    <circle cx="280" cy="205" r="3"/>
                    <circle cx="300" cy="215" r="4"/>
                  </g>
                  <path d="M 185 135 Q 230 110 285 75" stroke="#d14859" stroke-width="1.3" fill="none" stroke-dasharray="3 2" opacity="0.6"/>
                  <path d="M 185 155 Q 230 180 300 215" stroke="#d14859" stroke-width="1.3" fill="none" stroke-dasharray="3 2" opacity="0.6"/>
                  <g transform="translate(335 65)">
                    <ellipse cx="0" cy="0" rx="28" ry="18" fill="#d14859" opacity="0.7" stroke="#a33648" stroke-width="1.3"/>
                    <g fill="#d14859" opacity="0.45">
                      <circle cx="30" cy="-10" r="5"/>
                      <circle cx="-28" cy="12" r="5"/>
                    </g>
                    <text x="0" y="34" text-anchor="middle" style="fill:#d14859;font:700 9px Inter,sans-serif">BUG</text>
                  </g>
                  <g transform="translate(340 225)">
                    <path d="M -40 0 L 40 0 L 38 -10 L -38 -10 Z" fill="#e8a8a0" opacity="0.6" stroke="#c88a80" stroke-width="1.3"/>
                    <g stroke="#d14859" stroke-width="2" fill="none" opacity="0.85">
                      <line x1="-30" y1="-5" x2="-20" y2="5"/>
                      <line x1="-10" y1="-8" x2="0" y2="2"/>
                      <line x1="15" y1="-6" x2="25" y2="4"/>
                    </g>
                    <text x="0" y="20" text-anchor="middle" style="fill:#d14859;font:700 9px Inter,sans-serif">HOST TISSUE</text>
                  </g>
                </svg>
