<?xml version="1.0" encoding="UTF-8"?>
<!--
  Auto-generated from the reference HTML by
  scripts/storymode-extraction/extract.mjs.
  Do not edit by hand — regenerate the file instead.
-->
<svg xmlns="http://www.w3.org/2000/svg" xmlns:xlink="http://www.w3.org/1999/xlink" viewBox="0 0 500 260" preserveAspectRatio="xMidYMid meet">
                  <g transform="translate(250 75)">
                    <rect x="-35" y="-16" width="70" height="30" rx="6" fill="#d14859" opacity="0.85" stroke="#a33648" stroke-width="1.3"/>
                    <path d="M -35 -8 L -30 -12 M -35 0 L -30 -4 M -35 8 L -30 4" stroke="#a33648" stroke-width="1" fill="none"/>
                    <text x="0" y="3" text-anchor="middle" style="fill:#e8ecf3;font:700 11px Inter,sans-serif">ELASTASE</text>
                  </g>
                  <g transform="translate(125 175)">
                    <ellipse cx="0" cy="0" rx="38" ry="22" fill="#d14859" opacity="0.6" stroke="#a33648" stroke-width="1.5"/>
                    <text x="0" y="4" text-anchor="middle" style="fill:#e8ecf3;font:700 9px Inter,sans-serif">BACTERIUM</text>
                    <path d="M -20 -30 L -15 -25 L -20 -20 L -15 -15" stroke="#d14859" stroke-width="2" fill="none" opacity="0.7"/>
                    <path d="M 20 -30 L 15 -25 L 20 -20 L 15 -15" stroke="#d14859" stroke-width="2" fill="none" opacity="0.7"/>
                    <text x="0" y="44" text-anchor="middle" style="fill:#4fb8a8;font:700 10px Inter,sans-serif">✓ killed</text>
                  </g>
                  <g transform="translate(370 175)">
                    <path d="M -60 0 Q -50 -15 -30 -8 Q -15 -18 0 -10 Q 15 -18 30 -8 Q 50 -15 60 0 Q 50 15 30 8 Q 15 18 0 10 Q -15 18 -30 8 Q -50 15 -60 0 Z" fill="#4fb8a8" opacity="0.5" stroke="#4fb8a8" stroke-width="1.5"/>
                    <g stroke="#d14859" stroke-width="2.5" fill="none">
                      <line x1="-35" y1="-15" x2="-25" y2="-5"/>
                      <line x1="-10" y1="-18" x2="0" y2="-8"/>
                      <line x1="15" y1="-16" x2="25" y2="-6"/>
                    </g>
                    <text x="0" y="40" text-anchor="middle" style="fill:#4fb8a8;font:700 10px Inter,sans-serif">ELASTIN</text>
                    <text x="0" y="52" text-anchor="middle" style="fill:#d14859;font:700 10px Inter,sans-serif">✗ damaged</text>
                  </g>
                  <path d="M 230 95 L 150 155" stroke="#d14859" stroke-width="1.5" fill="none" stroke-dasharray="3 2"/>
                  <polygon points="148,157 155,152 156,160" fill="#d14859"/>
                  <path d="M 270 95 L 355 155" stroke="#d14859" stroke-width="1.5" fill="none" stroke-dasharray="3 2"/>
                  <polygon points="357,157 350,160 351,152" fill="#d14859"/>
                </svg>
