<?xml version="1.0" encoding="UTF-8"?>
<!--
  Auto-generated from the reference HTML by
  scripts/storymode-extraction/extract.mjs.
  Do not edit by hand — regenerate the file instead.
-->
<svg xmlns="http://www.w3.org/2000/svg" xmlns:xlink="http://www.w3.org/1999/xlink" viewBox="0 0 500 260" preserveAspectRatio="xMidYMid meet">
                  <g transform="translate(125 135)">
                    <ellipse cx="0" cy="-50" rx="28" ry="34" fill="#e8a8a0" opacity="0.6" stroke="#c88a80" stroke-width="1.5"/>
                    <circle cx="-9" cy="-55" r="2.5" fill="#0a0e1a"/>
                    <circle cx="9" cy="-55" r="2.5" fill="#0a0e1a"/>
                    <path d="M -13 -60 L -6 -62 M 6 -62 L 13 -60" stroke="#0a0e1a" stroke-width="1.3" fill="none"/>
                    <ellipse cx="0" cy="-36" rx="10" ry="9" fill="#4a2d60"/>
                    <ellipse cx="0" cy="-36" rx="6" ry="5" fill="#d14859" opacity="0.85"/>
                    <path d="M -28 -75 Q -32 -92 -18 -95 Q 0 -98 18 -95 Q 32 -92 28 -75" fill="#4a2d60" stroke="#4a2d60" stroke-width="1"/>
                    <path d="M 0 -18 L -22 5 L -22 20 L 22 20 L 22 5 Z" fill="#e8a8a0" opacity="0.5" stroke="#c88a80" stroke-width="1.3"/>
                    <g transform="translate(0 20)">
                      <path d="M 0 0 L -8 30 L 8 30 Z" fill="#4fb8a8" opacity="0.55" stroke="#4fb8a8" stroke-width="1.3"/>
                      <path d="M -6 10 L -12 20 M 6 10 L 12 20" stroke="#4fb8a8" stroke-width="1.3" fill="none"/>
                    </g>
                    <g transform="translate(0 55)">
                      <path d="M 0 0 L -10 15 L -18 38" stroke="#4fb8a8" stroke-width="6" fill="none" stroke-linecap="round"/>
                      <path d="M 0 0 L 10 15 L 18 38" stroke="#4fb8a8" stroke-width="6" fill="none" stroke-linecap="round"/>
                      <path d="M -10 15 L -22 30 M 10 15 L 22 30" stroke="#4fb8a8" stroke-width="4" fill="none" stroke-linecap="round"/>
                    </g>
                    <g stroke="#e8a951" stroke-width="2" fill="none" opacity="0.9" stroke-linecap="round">
                      <path d="M 16 -38 Q 42 -42 62 -34"/>
                      <path d="M 22 -32 Q 50 -35 70 -25"/>
                      <path d="M 22 -44 Q 48 -50 68 -46"/>
                    </g>
                    <g fill="#e8a951" opacity="0.95">
                      <circle cx="64" cy="-34" r="2.5"/>
                      <circle cx="72" cy="-25" r="2.5"/>
                      <circle cx="70" cy="-46" r="2.5"/>
                    </g>
                    <g stroke="#d14859" stroke-width="1.5" fill="none" opacity="0.7">
                      <path d="M -38 -62 Q -42 -66 -46 -62"/>
                      <path d="M -42 -50 Q -48 -52 -52 -48"/>
                      <path d="M -40 -40 Q -46 -40 -50 -36"/>
                    </g>
                    <text x="0" y="108" text-anchor="middle" style="fill:#d14859;font:700 11px Inter,sans-serif;letter-spacing:1.5px">DRY COUGH</text>
                  </g>
                  <g transform="translate(365 135)">
                    <g opacity="0.22">
                      <ellipse cx="0" cy="-50" rx="30" ry="34" fill="none" stroke="#c88a80" stroke-width="1" stroke-dasharray="2 2"/>
                    </g>
                    <path d="M -48 -55 Q -62 -25 -55 15 Q -48 45 -22 58 Q 0 64 22 58 Q 48 45 55 15 Q 62 -25 48 -55 Q 0 -70 -48 -55" fill="#e8a8a0" opacity="0.7" stroke="#c88a80" stroke-width="2"/>
                    <path d="M -30 -75 Q -35 -90 -20 -94 Q 0 -97 20 -94 Q 35 -90 30 -75" fill="#4a2d60" stroke="#4a2d60" stroke-width="1"/>
                    <g opacity="0.7">
                      <path d="M -18 -44 Q -14 -46 -10 -44" stroke="#0a0e1a" stroke-width="1.3" fill="none"/>
                      <path d="M 10 -44 Q 14 -46 18 -44" stroke="#0a0e1a" stroke-width="1.3" fill="none"/>
                    </g>
                    <path d="M -30 5 Q -38 0 -42 8 Q -40 22 -25 30 Q 0 38 25 30 Q 40 22 42 8 Q 38 0 30 5 Q 0 0 -30 5" fill="#d14859" opacity="0.85" stroke="#a33648" stroke-width="1.5"/>
                    <ellipse cx="0" cy="18" rx="22" ry="7" fill="#e8a8a0" opacity="0.35"/>
                    <path d="M -15 27 Q 0 33 15 27" stroke="#a33648" stroke-width="1.5" fill="none"/>
                    <path d="M -38 38 Q -35 55 -20 62" stroke="#a33648" stroke-width="1.5" fill="none" opacity="0.6"/>
                    <path d="M 38 38 Q 35 55 20 62" stroke="#a33648" stroke-width="1.5" fill="none" opacity="0.6"/>
                    <g stroke="#d14859" stroke-width="1.8" fill="none" opacity="0.9">
                      <path d="M -65 10 L -78 8"/>
                      <path d="M -62 22 L -75 26"/>
                      <path d="M -55 -5 L -68 -8"/>
                      <path d="M 65 10 L 78 8"/>
                      <path d="M 62 22 L 75 26"/>
                      <path d="M 55 -5 L 68 -8"/>
                      <path d="M 0 -82 L 0 -95"/>
                    </g>
                    <text x="0" y="108" text-anchor="middle" style="fill:#d14859;font:700 11px Inter,sans-serif;letter-spacing:1.5px">ANGIOEDEMA</text>
                    <text x="0" y="122" text-anchor="middle" style="fill:#b4becf;font:italic 9px Inter,sans-serif">rare — dangerous</text>
                  </g>
                </svg>
