<?xml version="1.0" encoding="UTF-8"?>
<!--
  Auto-generated from the reference HTML by
  scripts/storymode-extraction/extract.mjs.
  Do not edit by hand — regenerate the file instead.
-->
<svg xmlns="http://www.w3.org/2000/svg" xmlns:xlink="http://www.w3.org/1999/xlink" viewBox="0 0 500 260" preserveAspectRatio="xMidYMid meet">
                  <g transform="translate(95 145)">
                    <circle r="26" fill="#e8a951" opacity="0.8" stroke="#a87b3c" stroke-width="1.3"/>
                    <circle cx="-8" cy="-6" r="4" fill="#4a2d60"/>
                    <text x="0" y="48" text-anchor="middle" style="fill:#e8a951;font:italic 700 8px Inter,sans-serif">ch 1</text>
                  </g>
                  <g transform="translate(195 145)">
                    <ellipse cx="0" cy="0" rx="34" ry="12" fill="#111826" stroke="#d14859" stroke-width="1.5"/>
                    <g fill="#e8a951" opacity="0.9">
                      <circle cx="-15" cy="0" r="3"/>
                      <circle cx="0" cy="0" r="3"/>
                      <circle cx="15" cy="0" r="3"/>
                    </g>
                    <text x="0" y="32" text-anchor="middle" style="fill:#d14859;font:italic 700 8px Inter,sans-serif">ch 2</text>
                  </g>
                  <g transform="translate(295 145)">
                    <path d="M -30 -20 Q -38 0 -30 15 Q -15 28 0 28 Q 15 28 30 20 Q 38 0 30 -18 Q 0 -30 -30 -20" fill="#d14859" opacity="0.35" stroke="#d14859" stroke-width="1.3"/>
                    <g fill="#9370b9" opacity="0.7">
                      <circle cx="-10" cy="-5" r="4"/>
                      <circle cx="8" cy="5" r="4"/>
                    </g>
                    <text x="0" y="48" text-anchor="middle" style="fill:#d14859;font:italic 700 8px Inter,sans-serif">ch 3</text>
                  </g>
                  <g transform="translate(405 145)">
                    <circle r="30" fill="none" stroke="#9370b9" stroke-width="1.5"/>
                    <g fill="#9370b9" opacity="0.8">
                      <circle cx="-22" cy="0" r="4"/>
                      <circle cx="0" cy="-22" r="4"/>
                      <circle cx="22" cy="0" r="4"/>
                      <circle cx="0" cy="22" r="4"/>
                    </g>
                    <circle r="6" fill="#9370b9"/>
                    <text x="0" y="48" text-anchor="middle" style="fill:#9370b9;font:italic 700 8px Inter,sans-serif">ch 4</text>
                  </g>
                  <g stroke="#e8a951" stroke-width="1.5" fill="none" stroke-dasharray="3 2">
                    <line x1="125" y1="145" x2="155" y2="145"/>
                    <line x1="235" y1="145" x2="255" y2="145"/>
                    <line x1="335" y1="145" x2="365" y2="145"/>
                  </g>
                  <text x="250" y="80" text-anchor="middle" style="fill:#e8a951;font:700 13px Inter,sans-serif;letter-spacing:2px">MODULE 1 COMPLETE</text>
                  <text x="250" y="228" text-anchor="middle" style="fill:#e8ecf3;font:italic 600 10px Fraunces,serif">the innate engine is yours</text>
                </svg>
