<?xml version="1.0" encoding="UTF-8"?>
<!--
  Auto-generated from the reference HTML by
  scripts/storymode-extraction/extract.mjs.
  Do not edit by hand — regenerate the file instead.
-->
<svg xmlns="http://www.w3.org/2000/svg" xmlns:xlink="http://www.w3.org/1999/xlink" viewBox="0 0 500 260" preserveAspectRatio="xMidYMid meet">
                  <g transform="translate(50 220)">
                    <line x1="0" y1="0" x2="400" y2="0" stroke="#6b7689" stroke-width="1.3"/>
                    <line x1="0" y1="-130" x2="0" y2="0" stroke="#6b7689" stroke-width="1.3"/>
                    <text x="0" y="16" style="fill:#6b7689;font:italic 8px Inter,sans-serif">0</text>
                    <text x="95" y="16" style="fill:#6b7689;font:italic 8px Inter,sans-serif">5</text>
                    <text x="190" y="16" style="fill:#6b7689;font:italic 8px Inter,sans-serif">10</text>
                    <text x="285" y="16" style="fill:#6b7689;font:italic 8px Inter,sans-serif">14</text>
                    <text x="380" y="16" style="fill:#6b7689;font:italic 8px Inter,sans-serif">21 days</text>
                  </g>
                  <path d="M 50 95 L 85 95 Q 110 95 140 130 Q 180 180 220 210 Q 260 220 300 218 Q 340 205 380 160 Q 420 115 450 105" stroke="#e8a951" stroke-width="3" fill="none"/>
                  <g transform="translate(50 155)">
                    <text x="0" y="0" style="fill:#6b7689;font:italic 8px Inter,sans-serif">500</text>
                    <line x1="20" y1="0" x2="380" y2="0" stroke="#6b7689" stroke-width="1" stroke-dasharray="2 2" opacity="0.5"/>
                  </g>
                  <g transform="translate(50 200)">
                    <text x="0" y="0" style="fill:#d14859;font:italic 8px Inter,sans-serif">100</text>
                    <line x1="20" y1="0" x2="380" y2="0" stroke="#d14859" stroke-width="1" stroke-dasharray="2 2" opacity="0.5"/>
                  </g>
                  <g transform="translate(215 205)">
                    <circle r="12" fill="#d14859" opacity="0.7"/>
                    <text x="0" y="-18" text-anchor="middle" style="fill:#d14859;font:italic 700 9px Inter,sans-serif">NADIR</text>
                  </g>
                  <text x="250" y="60" text-anchor="middle" style="fill:#e8a951;font:700 10px Inter,sans-serif">ANC trajectory</text>
                </svg>
