<?xml version="1.0" encoding="UTF-8"?>
<!--
  Auto-generated from the reference HTML by
  scripts/storymode-extraction/extract.mjs.
  Do not edit by hand — regenerate the file instead.
-->
<svg xmlns="http://www.w3.org/2000/svg" xmlns:xlink="http://www.w3.org/1999/xlink" viewBox="0 0 500 320" preserveAspectRatio="xMidYMid meet">
                  <text x="20" y="22" style="fill:#e8a951;font:600 10px Inter,sans-serif;letter-spacing:2px">SPLEEN · TWO CRITICAL JOBS</text>

                  <!-- ===== (1) MECHANICAL FILTER (left) ===== -->
                  <g transform="translate(125 120)">
                    <text x="0" y="-60" text-anchor="middle" style="fill:#d14859;font:700 11px Inter,sans-serif;letter-spacing:1.5px">(1) FILTER</text>
                    <text x="0" y="-46" text-anchor="middle" style="fill:#b4becf;font:italic 9px Inter,sans-serif">red pulp macrophages</text>
                    <text x="0" y="-34" text-anchor="middle" style="fill:#6b7689;font:italic 8px Inter,sans-serif">catch opsonized bugs</text>

                    <!-- Spleen sinusoid (a tube showing blood flow) -->
                    <path d="M -70 -10 Q -60 -20 -40 -18 Q 0 -22 30 -15 Q 50 -12 70 -5
                             L 70 25 Q 50 32 30 30 Q 0 33 -40 30 Q -60 32 -70 22 Z"
                          fill="#d14859" opacity="0.25" stroke="#d14859" stroke-width="1.3"/>
                    <text x="-55" y="-20" style="fill:#d14859;font:italic 7.5px Inter,sans-serif">blood in</text>
                    <line x1="-80" y1="5" x2="-70" y2="5" stroke="#d14859" stroke-width="1"/>
                    <polygon points="-68,5 -72,3 -72,7" fill="#d14859"/>
                    <line x1="70" y1="5" x2="80" y2="5" stroke="#d14859" stroke-width="1"/>
                    <polygon points="82,5 78,3 78,7" fill="#d14859"/>
                    <text x="80" y="-20" text-anchor="end" style="fill:#d14859;font:italic 7.5px Inter,sans-serif">out (cleared)</text>

                    <!-- Macrophages in the pulp (2 larger purple cells with mouths) -->
                    <g transform="translate(-30 8)">
                      <circle r="12" fill="#9370b9" opacity="0.8" stroke="#4a2d60" stroke-width="0.8"/>
                      <circle cx="-3" cy="-2" r="2" fill="#4a2d60"/>
                    </g>
                    <g transform="translate(35 8)">
                      <circle r="12" fill="#9370b9" opacity="0.8" stroke="#4a2d60" stroke-width="0.8"/>
                      <circle cx="3" cy="-2" r="2" fill="#4a2d60"/>
                    </g>

                    <!-- Opsonized bacteria entering (small circles with "Y" antibody coating) -->
                    <g transform="translate(-60 5)">
                      <circle r="4" fill="#e8a951" opacity="0.9"/>
                      <path d="M -5 -3 L -7 -6 M 5 -3 L 7 -6 M -4 3 L -7 6 M 4 3 L 7 6" stroke="#e8a951" stroke-width="0.8"/>
                    </g>

                    <!-- Bacterium being grabbed by left macrophage -->
                    <ellipse cx="-22" cy="8" rx="3" ry="2" fill="#d14859" opacity="0.9"/>
                    <!-- Eaten bug — faded -->
                    <circle cx="35" cy="6" r="2" fill="#6b7689" opacity="0.4"/>

                    <text x="0" y="70" text-anchor="middle" style="fill:#e8a951;font:italic 700 9px Fraunces,serif">→ bacteria eaten in pulp</text>
                  </g>

                  <!-- Divider between the two functions -->
                  <line x1="250" y1="60" x2="250" y2="230" stroke="#222c3e" stroke-width="1" stroke-dasharray="3 3"/>

                  <!-- ===== (2) IgM FACTORY (right) ===== -->
                  <g transform="translate(375 120)">
                    <text x="0" y="-60" text-anchor="middle" style="fill:#9370b9;font:700 11px Inter,sans-serif;letter-spacing:1.5px">(2) IgM FACTORY</text>
                    <text x="0" y="-46" text-anchor="middle" style="fill:#b4becf;font:italic 9px Inter,sans-serif">memory B cells in white pulp</text>
                    <text x="0" y="-34" text-anchor="middle" style="fill:#6b7689;font:italic 8px Inter,sans-serif">rapid antibody production</text>

                    <!-- White pulp follicle (circle) -->
                    <circle cx="0" cy="10" r="35" fill="#9370b9" opacity="0.18" stroke="#9370b9" stroke-width="1.3"/>

                    <!-- B cells inside -->
                    <g fill="#9370b9" opacity="0.85" stroke="#4a2d60" stroke-width="0.6">
                      <circle cx="-14" cy="0" r="5"/>
                      <circle cx="12" cy="-5" r="5"/>
                      <circle cx="0" cy="12" r="5"/>
                      <circle cx="-10" cy="20" r="5"/>
                      <circle cx="15" cy="18" r="5"/>
                    </g>

                    <!-- IgM antibodies (Y-shapes) flowing outward -->
                    <g stroke="#e8a951" stroke-width="1.3" fill="none">
                      <!-- upper-left -->
                      <g transform="translate(-48 -18)">
                        <path d="M 0 0 L -4 -6 M 0 0 L 4 -6 M 0 0 L 0 5"/>
                      </g>
                      <!-- upper-right -->
                      <g transform="translate(48 -18)">
                        <path d="M 0 0 L -4 -6 M 0 0 L 4 -6 M 0 0 L 0 5"/>
                      </g>
                      <!-- lower-left -->
                      <g transform="translate(-48 40)">
                        <path d="M 0 0 L -4 -6 M 0 0 L 4 -6 M 0 0 L 0 5"/>
                      </g>
                      <!-- lower-right -->
                      <g transform="translate(48 40)">
                        <path d="M 0 0 L -4 -6 M 0 0 L 4 -6 M 0 0 L 0 5"/>
                      </g>
                      <!-- top -->
                      <g transform="translate(0 -38)">
                        <path d="M 0 0 L -4 -6 M 0 0 L 4 -6 M 0 0 L 0 5"/>
                      </g>
                      <!-- bottom -->
                      <g transform="translate(0 55)">
                        <path d="M 0 0 L -4 -6 M 0 0 L 4 -6 M 0 0 L 0 5"/>
                      </g>
                    </g>

                    <text x="0" y="70" text-anchor="middle" style="fill:#e8a951;font:italic 700 9px Fraunces,serif">→ IgM coats future bugs</text>
                  </g>

                  <!-- Bottom: synergy + pattern -->
                  <line x1="40" y1="250" x2="460" y2="250" stroke="#222c3e" stroke-width="1"/>
                  <text x="250" y="270" text-anchor="middle" style="fill:#b4becf;font:italic 10px Inter,sans-serif">the spleen makes BOTH, and filters the result</text>
                  <text x="250" y="288" text-anchor="middle" style="fill:#e8a951;font:italic 700 10px Fraunces,serif">lose the spleen → lose both at once → OPSI risk</text>
                </svg>
