<?xml version="1.0" encoding="UTF-8"?>
<!--
  Auto-generated from the reference HTML by
  scripts/storymode-extraction/extract.mjs.
  Do not edit by hand — regenerate the file instead.
-->
<svg xmlns="http://www.w3.org/2000/svg" xmlns:xlink="http://www.w3.org/1999/xlink" viewBox="0 0 500 260" preserveAspectRatio="xMidYMid meet">
                  <text x="20" y="24" style="fill:#e8a951;font:600 10px Inter,sans-serif;letter-spacing:2px">MARROW RELEASES RESERVE</text>
                  <g transform="translate(120 140)">
                    <ellipse cx="0" cy="0" rx="75" ry="55" fill="#d14859" opacity="0.25" stroke="#d14859" stroke-width="1.5"/>
                    <g fill="#e8a951" opacity="0.85">
                      <circle cx="-25" cy="-20" r="6"/>
                      <circle cx="15" cy="-25" r="6"/>
                      <circle cx="-10" cy="0" r="6"/>
                      <circle cx="25" cy="5" r="6"/>
                      <circle cx="-30" cy="15" r="6"/>
                      <circle cx="5" cy="20" r="6"/>
                      <circle cx="35" cy="-8" r="6"/>
                      <circle cx="-20" cy="30" r="6"/>
                    </g>
                    <text x="0" y="75" text-anchor="middle" style="fill:#d14859;font:700 10px Inter,sans-serif;letter-spacing:1.5px">BONE MARROW</text>
                    <text x="0" y="88" text-anchor="middle" style="fill:#b4becf;font:italic 9px Inter,sans-serif">storage pool</text>
                  </g>
                  <g transform="translate(250 140)">
                    <line x1="-30" y1="0" x2="80" y2="0" stroke="#e8a951" stroke-width="1.5"/>
                    <polygon points="85,0 77,-4 77,4" fill="#e8a951"/>
                    <text x="30" y="-10" text-anchor="middle" style="fill:#e8a951;font:italic 10px Inter,sans-serif">G-CSF, IL-1, TNF</text>
                  </g>
                  <g transform="translate(400 140)">
                    <rect x="-55" y="-35" width="110" height="70" rx="8" fill="#111826" stroke="#e8a951" stroke-width="1.3"/>
                    <text x="0" y="-15" text-anchor="middle" style="fill:#e8a951;font:700 10px Inter,sans-serif">BLOOD</text>
                    <g fill="#e8a951" opacity="0.85">
                      <circle cx="-20" cy="5" r="4"/>
                      <circle cx="0" cy="0" r="4"/>
                      <circle cx="20" cy="8" r="4"/>
                      <circle cx="-10" cy="20" r="4"/>
                      <circle cx="15" cy="22" r="4"/>
                    </g>
                  </g>
                </svg>
