<?xml version="1.0" encoding="UTF-8"?>
<!--
  Auto-generated from the reference HTML by
  scripts/storymode-extraction/extract.mjs.
  Do not edit by hand — regenerate the file instead.
-->
<svg xmlns="http://www.w3.org/2000/svg" xmlns:xlink="http://www.w3.org/1999/xlink" viewBox="0 0 500 260" preserveAspectRatio="xMidYMid meet">
                  <text x="20" y="24" style="fill:#e8a951;font:600 10px Inter,sans-serif;letter-spacing:2px">WATER FOLLOWS — EDEMA</text>
                  <rect x="40" y="90" width="420" height="70" rx="8" fill="#4fb8a8" opacity="0.12" stroke="#4fb8a8" stroke-width="1.3"/>
                  <g transform="translate(60 90)">
                    <rect x="0" y="0" width="42" height="8" fill="#4fb8a8" opacity="0.85"/>
                    <rect x="58" y="0" width="42" height="8" fill="#4fb8a8" opacity="0.85"/>
                    <rect x="116" y="0" width="42" height="8" fill="#4fb8a8" opacity="0.85"/>
                    <rect x="174" y="0" width="42" height="8" fill="#4fb8a8" opacity="0.85"/>
                    <rect x="232" y="0" width="42" height="8" fill="#4fb8a8" opacity="0.85"/>
                    <rect x="290" y="0" width="42" height="8" fill="#4fb8a8" opacity="0.85"/>
                    <rect x="348" y="0" width="42" height="8" fill="#4fb8a8" opacity="0.85"/>
                  </g>
                  <g transform="translate(60 152)">
                    <rect x="0" y="0" width="42" height="8" fill="#4fb8a8" opacity="0.85"/>
                    <rect x="58" y="0" width="42" height="8" fill="#4fb8a8" opacity="0.85"/>
                    <rect x="116" y="0" width="42" height="8" fill="#4fb8a8" opacity="0.85"/>
                    <rect x="174" y="0" width="42" height="8" fill="#4fb8a8" opacity="0.85"/>
                    <rect x="232" y="0" width="42" height="8" fill="#4fb8a8" opacity="0.85"/>
                    <rect x="290" y="0" width="42" height="8" fill="#4fb8a8" opacity="0.85"/>
                    <rect x="348" y="0" width="42" height="8" fill="#4fb8a8" opacity="0.85"/>
                  </g>
                  <g fill="#e8a951" opacity="0.85">
                    <circle cx="167" cy="75" r="4"/>
                    <circle cx="225" cy="70" r="4"/>
                    <circle cx="283" cy="75" r="4"/>
                    <circle cx="341" cy="72" r="4"/>
                    <circle cx="145" cy="60" r="3"/>
                    <circle cx="200" cy="55" r="3"/>
                    <circle cx="260" cy="55" r="3"/>
                    <circle cx="320" cy="55" r="3"/>
                    <circle cx="380" cy="60" r="3"/>
                    <circle cx="120" cy="40" r="3" opacity="0.6"/>
                    <circle cx="180" cy="35" r="3" opacity="0.6"/>
                    <circle cx="280" cy="35" r="3" opacity="0.6"/>
                    <circle cx="340" cy="40" r="3" opacity="0.6"/>
                  </g>
                  <g transform="translate(90 125)">
                    <line x1="0" y1="0" x2="0" y2="18" stroke="#4fb8a8" stroke-width="1.5"/>
                    <polygon points="0,22 -4,15 4,15" fill="#4fb8a8"/>
                  </g>
                  <g transform="translate(150 125)">
                    <line x1="0" y1="0" x2="0" y2="18" stroke="#4fb8a8" stroke-width="1.5"/>
                    <polygon points="0,22 -4,15 4,15" fill="#4fb8a8"/>
                  </g>
                  <g transform="translate(210 125)">
                    <line x1="0" y1="0" x2="0" y2="18" stroke="#4fb8a8" stroke-width="1.5"/>
                    <polygon points="0,22 -4,15 4,15" fill="#4fb8a8"/>
                  </g>
                  <g transform="translate(270 125)">
                    <line x1="0" y1="0" x2="0" y2="18" stroke="#4fb8a8" stroke-width="1.5"/>
                    <polygon points="0,22 -4,15 4,15" fill="#4fb8a8"/>
                  </g>
                  <g transform="translate(330 125)">
                    <line x1="0" y1="0" x2="0" y2="18" stroke="#4fb8a8" stroke-width="1.5"/>
                    <polygon points="0,22 -4,15 4,15" fill="#4fb8a8"/>
                  </g>
                  <g transform="translate(390 125)">
                    <line x1="0" y1="0" x2="0" y2="18" stroke="#4fb8a8" stroke-width="1.5"/>
                    <polygon points="0,22 -4,15 4,15" fill="#4fb8a8"/>
                  </g>
                  <g fill="#4fb8a8" opacity="0.85">
                    <circle cx="85" cy="185" r="3.5"/>
                    <circle cx="120" cy="205" r="3.5"/>
                    <circle cx="150" cy="178" r="3.5"/>
                    <circle cx="185" cy="200" r="3.5"/>
                    <circle cx="215" cy="180" r="3.5"/>
                    <circle cx="250" cy="205" r="3.5"/>
                    <circle cx="285" cy="182" r="3.5"/>
                    <circle cx="320" cy="200" r="3.5"/>
                    <circle cx="350" cy="180" r="3.5"/>
                    <circle cx="385" cy="205" r="3.5"/>
                    <circle cx="420" cy="185" r="3.5"/>
                    <circle cx="100" cy="225" r="3.5"/>
                    <circle cx="170" cy="230" r="3.5"/>
                    <circle cx="240" cy="228" r="3.5"/>
                    <circle cx="310" cy="230" r="3.5"/>
                    <circle cx="380" cy="225" r="3.5"/>
                  </g>
                  <g fill="#e8a951" opacity="0.75">
                    <circle cx="140" cy="195" r="3"/>
                    <circle cx="230" cy="190" r="3"/>
                    <circle cx="300" cy="195" r="3"/>
                    <circle cx="370" cy="190" r="3"/>
                    <circle cx="200" cy="218" r="2.5"/>
                    <circle cx="280" cy="215" r="2.5"/>
                    <circle cx="345" cy="218" r="2.5"/>
                  </g>
                </svg>
