<?xml version="1.0" encoding="UTF-8"?>
<!--
  Auto-generated from the reference HTML by
  scripts/storymode-extraction/extract.mjs.
  Do not edit by hand — regenerate the file instead.
-->
<svg xmlns="http://www.w3.org/2000/svg" xmlns:xlink="http://www.w3.org/1999/xlink" viewBox="0 0 500 260" preserveAspectRatio="xMidYMid meet">
                  <text x="20" y="24" style="fill:#e8a951;font:600 10px Inter,sans-serif;letter-spacing:2px">CATALASE-NEGATIVE — NEUTROPHIL WINS</text>
                  <g transform="translate(160 150)">
                    <ellipse cx="0" cy="0" rx="38" ry="28" fill="#d14859" opacity="0.75" stroke="#a33648" stroke-width="1.5"/>
                    <text x="0" y="52" text-anchor="middle" style="fill:#d14859;font:600 9px Inter,sans-serif;letter-spacing:1px">CAT-NEG BUG</text>
                  </g>
                  <g transform="translate(160 80)">
                    <rect x="-24" y="-14" width="48" height="28" rx="5" fill="#e8a951" opacity="0.85"/>
                    <text x="0" y="5" text-anchor="middle" style="fill:#0a0e1a;font:700 12px Inter,sans-serif">H₂O₂</text>
                  </g>
                  <line x1="160" y1="122" x2="160" y2="100" stroke="#e8a951" stroke-width="1.3"/>
                  <polygon points="160,94 156,102 164,102" fill="#e8a951"/>
                  <text x="200" y="110" style="fill:#b4becf;font:italic 9px Inter,sans-serif">leaks H₂O₂</text>
                  <g transform="translate(360 150)">
                    <circle r="48" fill="#e8a951" opacity="0.85" stroke="#a87b3c" stroke-width="1.3"/>
                    <circle cx="-12" cy="-8" r="5" fill="#4a2d60"/>
                    <circle cx="10" cy="10" r="5" fill="#4a2d60"/>
                  </g>
                  <path d="M 195 80 Q 280 60 330 115" stroke="#e8a951" stroke-width="1.3" fill="none" stroke-dasharray="3 2"/>
                  <polygon points="332,118 325,111 324,121" fill="#e8a951"/>
                  <text x="275" y="55" text-anchor="middle" style="fill:#e8a951;font:italic 10px Inter,sans-serif">neutrophil steals the H₂O₂</text>
                  <g transform="translate(360 230)">
                    <rect x="-70" y="-12" width="140" height="24" rx="12" fill="#e8a951" opacity="0.25" stroke="#e8a951" stroke-width="1.3"/>
                    <text x="0" y="5" text-anchor="middle" style="fill:#e8a951;font:700 10px Inter,sans-serif;letter-spacing:1px">BUG KILLED</text>
                  </g>
                </svg>
