<?xml version="1.0" encoding="UTF-8"?>
<!--
  Auto-generated from the reference HTML by
  scripts/storymode-extraction/extract.mjs.
  Do not edit by hand — regenerate the file instead.
-->
<svg xmlns="http://www.w3.org/2000/svg" xmlns:xlink="http://www.w3.org/1999/xlink" viewBox="0 0 500 260" preserveAspectRatio="xMidYMid meet">
                  <text x="20" y="24" style="fill:#e8a951;font:600 10px Inter,sans-serif;letter-spacing:2px">INNATE IMMUNITY — NOT INVINCIBLE</text>

                  <!-- ============ LEFT: NEUTROPHIL ============ -->
                  <g transform="translate(120 75)">
                    <circle r="26" fill="#e8a951" opacity="0.78" stroke="#a87b3c" stroke-width="1.6"/>
                    <g fill="#4a2d60" opacity="0.72">
                      <ellipse cx="-10" cy="-7" rx="6" ry="4.5"/>
                      <ellipse cx="8" cy="-4" rx="5.5" ry="4.5"/>
                      <ellipse cx="-4" cy="9" rx="5.5" ry="4.5"/>
                    </g>
                  </g>
                  <text x="120" y="118" text-anchor="middle" style="fill:#e8a951;font:800 12px Inter,sans-serif;letter-spacing:1.5px">NEUTROPHIL</text>
                  <text x="120" y="131" text-anchor="middle" style="fill:#b4becf;font:italic 9px Inter,sans-serif">textbook weapon set</text>

                  <!-- 4 weapon badges for neutrophil -->
                  <!-- ROLL -->
                  <g transform="translate(50 158)">
                    <circle r="12" fill="#e8a951" opacity="0.2" stroke="#e8a951" stroke-width="1"/>
                    <path d="M -6 2 Q -3 -4 2 2 Q 6 8 -1 6" stroke="#e8a951" stroke-width="1.4" fill="none" stroke-linecap="round"/>
                  </g>
                  <text x="50" y="182" text-anchor="middle" style="fill:#e8a951;font:800 9px Inter,sans-serif;letter-spacing:1px">ROLL</text>

                  <!-- ADHERE -->
                  <g transform="translate(96 158)">
                    <circle r="12" fill="#e8a951" opacity="0.2" stroke="#e8a951" stroke-width="1"/>
                    <rect x="-6" y="-6" width="12" height="3" rx="0.5" fill="#e8a951"/>
                    <line x1="0" y1="-3" x2="0" y2="5" stroke="#e8a951" stroke-width="2"/>
                    <circle cx="0" cy="6" r="1.5" fill="#e8a951"/>
                  </g>
                  <text x="96" y="182" text-anchor="middle" style="fill:#e8a951;font:800 9px Inter,sans-serif;letter-spacing:1px">ADHERE</text>

                  <!-- EAT -->
                  <g transform="translate(144 158)">
                    <circle r="12" fill="#e8a951" opacity="0.2" stroke="#e8a951" stroke-width="1"/>
                    <path d="M -6 -3 Q 0 -6 6 -3 Q 6 4 0 6 Q -6 4 -6 -3 Z" fill="#e8a951" opacity="0.4" stroke="#e8a951" stroke-width="0.9"/>
                    <circle cx="0" cy="1" r="2" fill="#d14859" opacity="0.9"/>
                  </g>
                  <text x="144" y="182" text-anchor="middle" style="fill:#e8a951;font:800 9px Inter,sans-serif;letter-spacing:1px">EAT</text>

                  <!-- BURN -->
                  <g transform="translate(190 158)">
                    <circle r="12" fill="#e8a951" opacity="0.2" stroke="#e8a951" stroke-width="1"/>
                    <path d="M 0 6 Q -5 3 -4 -2 Q -1 -5 0 -2 Q 2 -6 4 -1 Q 5 4 0 6 Z" fill="#d14859" opacity="0.9"/>
                  </g>
                  <text x="190" y="182" text-anchor="middle" style="fill:#e8a951;font:800 9px Inter,sans-serif;letter-spacing:1px">BURN</text>

                  <!-- ============ MIDDLE: VS ============ -->
                  <line x1="222" y1="90" x2="238" y2="90" stroke="#6b7689" stroke-width="1" stroke-dasharray="2 2" opacity="0.55"/>
                  <line x1="262" y1="90" x2="278" y2="90" stroke="#6b7689" stroke-width="1" stroke-dasharray="2 2" opacity="0.55"/>
                  <g transform="translate(250 90)">
                    <circle r="17" fill="#0a0e1a" stroke="#6b7689" stroke-width="1.4"/>
                    <text x="0" y="5" text-anchor="middle" style="fill:#e8ecf3;font:italic 800 14px Inter,sans-serif">vs</text>
                  </g>

                  <!-- ============ RIGHT: BACTERIUM ============ -->
                  <g transform="translate(380 75)">
                    <ellipse cx="0" cy="0" rx="26" ry="16" fill="#d14859" opacity="0.8" stroke="#a33648" stroke-width="1.6"/>
                    <g stroke="#a33648" stroke-width="1" fill="none" opacity="0.8" stroke-linecap="round">
                      <path d="M 25 -6 Q 32 -10 36 -5"/>
                      <path d="M 25 6 Q 32 10 36 5"/>
                      <path d="M 28 0 Q 34 0 38 2"/>
                    </g>
                  </g>
                  <text x="380" y="118" text-anchor="middle" style="fill:#d14859;font:800 12px Inter,sans-serif;letter-spacing:1.5px">BACTERIUM</text>
                  <text x="380" y="131" text-anchor="middle" style="fill:#b4becf;font:italic 9px Inter,sans-serif">counter-moves</text>

                  <!-- 3 counter-move badges for bacterium -->
                  <!-- TOXINS -->
                  <g transform="translate(322 158)">
                    <circle r="12" fill="#d14859" opacity="0.2" stroke="#d14859" stroke-width="1"/>
                    <path d="M 0 -6 Q 5 -1 5 3 Q 5 7 0 7 Q -5 7 -5 3 Q -5 -1 0 -6 Z" fill="#d14859" opacity="0.88"/>
                  </g>
                  <text x="322" y="182" text-anchor="middle" style="fill:#d14859;font:800 9px Inter,sans-serif;letter-spacing:1px">TOXINS</text>

                  <!-- ENZYMES (scissors) -->
                  <g transform="translate(380 158)">
                    <circle r="12" fill="#d14859" opacity="0.2" stroke="#d14859" stroke-width="1"/>
                    <g stroke="#d14859" stroke-width="1.4" fill="none" stroke-linecap="round">
                      <line x1="-5" y1="-3" x2="5" y2="4"/>
                      <line x1="5" y1="-3" x2="-5" y2="4"/>
                    </g>
                    <circle cx="-5" cy="-3" r="1.6" fill="none" stroke="#d14859" stroke-width="1.2"/>
                    <circle cx="5" cy="-3" r="1.6" fill="none" stroke="#d14859" stroke-width="1.2"/>
                  </g>
                  <text x="380" y="182" text-anchor="middle" style="fill:#d14859;font:800 9px Inter,sans-serif;letter-spacing:1px">ENZYMES</text>

                  <!-- EVASION (cloak) -->
                  <g transform="translate(438 158)">
                    <circle r="12" fill="#d14859" opacity="0.2" stroke="#d14859" stroke-width="1"/>
                    <path d="M 0 -6 L -6 -3 L -6 4 Q -6 7 -3 6 L 0 7 L 3 6 Q 6 7 6 4 L 6 -3 Z" fill="#d14859" opacity="0.6" stroke="#d14859" stroke-width="0.8"/>
                  </g>
                  <text x="438" y="182" text-anchor="middle" style="fill:#d14859;font:800 9px Inter,sans-serif;letter-spacing:1px">EVASION</text>

                  <!-- ============ BOTTOM: CH 2 BANNER ============ -->
                  <g transform="translate(250 225)">
                    <rect x="-170" y="-20" width="340" height="40" rx="12" fill="#e8a951" opacity="0.22" stroke="#e8a951" stroke-width="1.5"/>
                    <text x="0" y="-3" text-anchor="middle" style="fill:#e8a951;font:800 12px Inter,sans-serif;letter-spacing:1.5px">CHAPTER 2: WHEN THE VESSEL LEAKS</text>
                    <text x="0" y="12" text-anchor="middle" style="fill:#b4becf;font:italic 10px Inter,sans-serif">what happens when inflammation itself goes wrong</text>
                  </g>
                </svg>
