<?xml version="1.0" encoding="UTF-8"?>
<!--
  Auto-generated from the reference HTML by
  scripts/storymode-extraction/extract.mjs.
  Do not edit by hand — regenerate the file instead.
-->
<svg xmlns="http://www.w3.org/2000/svg" xmlns:xlink="http://www.w3.org/1999/xlink" viewBox="0 0 500 260" preserveAspectRatio="xMidYMid meet">
                  <text x="20" y="32" style="fill:#e8a951;font:600 10px Inter,sans-serif;letter-spacing:2px">MISSING-SELF HYPOTHESIS</text>
                  <g transform="translate(130 150)">
                    <circle cx="0" cy="0" r="50" fill="#4fb8a8" fill-opacity="0.18" stroke="#4fb8a8" stroke-width="1.5"/>
                    <g fill="#e8a951" opacity="0.9">
                      <rect x="-34" y="-42" width="6" height="10" rx="1"/>
                      <rect x="-14" y="-48" width="6" height="10" rx="1"/>
                      <rect x="8" y="-46" width="6" height="10" rx="1"/>
                      <rect x="28" y="-40" width="6" height="10" rx="1"/>
                      <rect x="34" y="-15" width="6" height="10" rx="1"/>
                      <rect x="36" y="15" width="6" height="10" rx="1"/>
                      <rect x="20" y="38" width="6" height="10" rx="1"/>
                      <rect x="-8" y="44" width="6" height="10" rx="1"/>
                      <rect x="-28" y="38" width="6" height="10" rx="1"/>
                      <rect x="-40" y="10" width="6" height="10" rx="1"/>
                      <rect x="-42" y="-15" width="6" height="10" rx="1"/>
                    </g>
                    <text x="0" y="4" text-anchor="middle" style="fill:#b4becf;font:italic 9px Inter,sans-serif">healthy</text>
                    <text x="0" y="80" text-anchor="middle" style="fill:#4fb8a8;font:600 10px Inter,sans-serif">MHC-I + + +</text>
                    <text x="0" y="95" text-anchor="middle" style="fill:#6b7689;font:italic 9px Inter,sans-serif">"I am self"</text>
                  </g>
                  <g transform="translate(370 150)">
                    <circle cx="0" cy="0" r="50" fill="#d14859" fill-opacity="0.18" stroke="#d14859" stroke-width="1.5" stroke-dasharray="3 2"/>
                    <g fill="#e8a951" opacity="0.3">
                      <rect x="-34" y="-42" width="6" height="10" rx="1"/>
                      <rect x="30" y="-20" width="6" height="10" rx="1"/>
                    </g>
                    <g fill="#d14859" opacity="0.7">
                      <circle cx="-8" cy="-5" r="3"/><circle cx="5" cy="8" r="3"/><circle cx="-15" cy="12" r="3"/>
                    </g>
                    <text x="0" y="4" text-anchor="middle" style="fill:#b4becf;font:italic 9px Inter,sans-serif">infected</text>
                    <text x="0" y="80" text-anchor="middle" style="fill:#d14859;font:600 10px Inter,sans-serif">MHC-I lost</text>
                    <text x="0" y="95" text-anchor="middle" style="fill:#6b7689;font:italic 9px Inter,sans-serif">missing self</text>
                  </g>
                  <text x="250" y="245" text-anchor="middle" style="fill:#b4becf;font:italic 10px Inter,sans-serif">virus / tumor hides from T cells → but <tspan fill="#d14859" font-weight="600">NK cell sees it</tspan></text>
                </svg>
