<?xml version="1.0" encoding="UTF-8"?>
<!--
  Auto-generated from the reference HTML by
  scripts/storymode-extraction/extract.mjs.
  Do not edit by hand — regenerate the file instead.
-->
<svg xmlns="http://www.w3.org/2000/svg" xmlns:xlink="http://www.w3.org/1999/xlink" viewBox="0 0 500 260" preserveAspectRatio="xMidYMid meet">
                  <g transform="translate(140 145)">
                    <circle r="50" fill="none" stroke="#9370b9" stroke-width="2"/>
                    <g fill="#9370b9" opacity="0.85">
                      <circle cx="-38" cy="0" r="5"/>
                      <circle cx="-28" cy="-25" r="5"/>
                      <circle cx="0" cy="-38" r="5"/>
                      <circle cx="28" cy="-25" r="5"/>
                      <circle cx="38" cy="0" r="5"/>
                      <circle cx="28" cy="25" r="5"/>
                      <circle cx="0" cy="38" r="5"/>
                      <circle cx="-28" cy="25" r="5"/>
                    </g>
                    <circle r="18" fill="#e8a8a0" opacity="0.45" stroke="#e8a8a0" stroke-width="1"/>
                    <text x="0" y="68" text-anchor="middle" style="fill:#9370b9;font:italic 700 9px Inter,sans-serif">non-caseating</text>
                    <text x="0" y="80" text-anchor="middle" style="fill:#b4becf;font:italic 8px Inter,sans-serif">(sarcoid)</text>
                  </g>
                  <g transform="translate(360 145)">
                    <circle r="50" fill="none" stroke="#9370b9" stroke-width="2"/>
                    <g fill="#9370b9" opacity="0.85">
                      <circle cx="-38" cy="0" r="5"/>
                      <circle cx="-28" cy="-25" r="5"/>
                      <circle cx="0" cy="-38" r="5"/>
                      <circle cx="28" cy="-25" r="5"/>
                      <circle cx="38" cy="0" r="5"/>
                      <circle cx="28" cy="25" r="5"/>
                      <circle cx="0" cy="38" r="5"/>
                      <circle cx="-28" cy="25" r="5"/>
                    </g>
                    <circle r="20" fill="#6b7689" opacity="0.85" stroke="#6b7689" stroke-width="1.5"/>
                    <g fill="#6b7689" opacity="0.6">
                      <circle cx="-6" cy="-4" r="3"/>
                      <circle cx="6" cy="-2" r="3"/>
                      <circle cx="0" cy="6" r="3"/>
                    </g>
                    <text x="0" y="68" text-anchor="middle" style="fill:#9370b9;font:italic 700 9px Inter,sans-serif">CASEATING</text>
                    <text x="0" y="80" text-anchor="middle" style="fill:#e8a951;font:italic 700 8px Inter,sans-serif">(TB) ★</text>
                  </g>
                  <path d="M 200 145 L 300 145" stroke="#6b7689" stroke-width="1" stroke-dasharray="4 3"/>
                  <text x="250" y="140" text-anchor="middle" style="fill:#e8ecf3;font:italic 600 11px Fraunces,serif">vs</text>
                </svg>
