<?xml version="1.0" encoding="UTF-8"?>
<!--
  Auto-generated from the reference HTML by
  scripts/storymode-extraction/extract.mjs.
  Do not edit by hand — regenerate the file instead.
-->
<svg xmlns="http://www.w3.org/2000/svg" xmlns:xlink="http://www.w3.org/1999/xlink" viewBox="0 0 500 260" preserveAspectRatio="xMidYMid meet">
                  <!-- Title -->
                  <text x="20" y="22" style="fill:#e8a951;font:600 10px Inter,sans-serif;letter-spacing:2px">LOCKED IN PLACE — READY TO EXIT</text>
                  <!-- Zone labels -->
                  <text x="20" y="42" style="fill:#6b7689;font:10px Inter,sans-serif;letter-spacing:1.5px">LUMEN (bloodstream)</text>
                  <text x="20" y="228" style="fill:#6b7689;font:10px Inter,sans-serif;letter-spacing:1.5px">TISSUE (outside vessel)</text>
                  <!-- ============ LEFT PANEL: LOCKED ============ -->
                  <!-- Endothelial cells (two cells, tight junction between) -->
                  <g fill="#4fb8a8" fill-opacity="0.22" stroke="#4fb8a8" stroke-width="1.3">
                    <rect x="0" y="160" width="117" height="25" rx="3"/>
                    <rect x="127" y="160" width="113" height="25" rx="3"/>
                  </g>
                  <g fill="#4fb8a8" opacity="0.55">
                    <ellipse cx="55" cy="173" rx="10" ry="4"/>
                    <ellipse cx="175" cy="173" rx="10" ry="4"/>
                  </g>
                  <!-- Neutrophil (LOCKED) -->
                  <g transform="translate(117 115)">
                    <circle r="28" fill="#e8a951" opacity="0.92" stroke="#a87b3c" stroke-width="1.5"/>
                    <circle cx="-8" cy="-4" r="5" fill="#4a2d60" opacity="0.65"/>
                    <circle cx="5" cy="3" r="5" fill="#4a2d60" opacity="0.65"/>
                    <circle cx="-4" cy="9" r="4" fill="#4a2d60" opacity="0.65"/>
                  </g>
                  <!-- ICAM-1 molecules on endothelium (luminal side, binding neutrophil) -->
                  <g fill="#e8a951">
                    <rect x="99" y="146" width="2" height="14" rx="0.5"/>
                    <rect x="111" y="144" width="2" height="16" rx="0.5"/>
                    <rect x="123" y="144" width="2" height="16" rx="0.5"/>
                    <rect x="135" y="146" width="2" height="14" rx="0.5"/>
                    <circle cx="100" cy="146" r="2.5"/>
                    <circle cx="112" cy="144" r="2.5"/>
                    <circle cx="124" cy="144" r="2.5"/>
                    <circle cx="136" cy="146" r="2.5"/>
                  </g>
                  <!-- Panel labels -->
                  <text x="117" y="62" text-anchor="middle" style="fill:#e8a951;font:800 11px Inter,sans-serif;letter-spacing:1.5px">LOCKED</text>
                  <text x="117" y="76" text-anchor="middle" style="fill:#b4becf;font:italic 9px Inter,sans-serif">multiple firm bonds</text>
                  <text x="117" y="203" text-anchor="middle" style="fill:#4fb8a8;font:italic 700 8px Inter,sans-serif;letter-spacing:1px">ENDOTHELIAL CELLS</text>
                  <text x="117" y="248" text-anchor="middle" style="fill:#6b7689;font:italic 8px Inter,sans-serif">step 7 · firm adhesion</text>
                  <!-- Transition arrow -->
                  <path d="M 247 172 L 258 172" stroke="#e8a951" stroke-width="1.5" fill="none" stroke-dasharray="3 2" opacity="0.6"/>
                  <polygon points="262,172 255,168 255,176" fill="#e8a951" opacity="0.7"/>
                  <!-- ============ RIGHT PANEL: TRANSMIGRATION ============ -->
                  <!-- Endothelial cells pulled apart (wider intercellular gap for passage) -->
                  <g fill="#4fb8a8" fill-opacity="0.22" stroke="#4fb8a8" stroke-width="1.3">
                    <rect x="260" y="160" width="96" height="25" rx="3"/>
                    <rect x="374" y="160" width="126" height="25" rx="3"/>
                  </g>
                  <g fill="#4fb8a8" opacity="0.55">
                    <ellipse cx="308" cy="173" rx="10" ry="4"/>
                    <ellipse cx="437" cy="173" rx="10" ry="4"/>
                  </g>
                  <!-- Neutrophil hourglass: upper lobe in lumen → pinched neck through gap → lower lobe in tissue -->
                  <path d="M 340 130 Q 340 100 365 100 Q 390 100 390 130 Q 390 150 372 160 L 372 185 Q 390 195 390 210 Q 390 233 365 233 Q 340 233 340 210 Q 340 195 358 185 L 358 160 Q 340 150 340 130 Z" fill="#e8a951" opacity="0.92" stroke="#a87b3c" stroke-width="1.5"/>
                  <!-- Nucleus (mostly in upper lobe; fragment descending into lower lobe) -->
                  <circle cx="359" cy="120" r="4.5" fill="#4a2d60" opacity="0.65"/>
                  <circle cx="372" cy="128" r="4.5" fill="#4a2d60" opacity="0.65"/>
                  <circle cx="362" cy="138" r="4" fill="#4a2d60" opacity="0.55"/>
                  <circle cx="370" cy="215" r="3" fill="#4a2d60" opacity="0.5"/>
                  <!-- Gap-pointer annotation -->
                  <line x1="365" y1="148" x2="410" y2="148" stroke="#6b7689" stroke-width="0.8" stroke-dasharray="2 2" opacity="0.55"/>
                  <text x="413" y="151" style="fill:#6b7689;font:italic 8px Inter,sans-serif">intercellular gap</text>
                  <!-- Panel labels -->
                  <text x="365" y="62" text-anchor="middle" style="fill:#e8a951;font:800 11px Inter,sans-serif;letter-spacing:1.5px">TRANSMIGRATION</text>
                  <text x="365" y="76" text-anchor="middle" style="fill:#b4becf;font:italic 9px Inter,sans-serif">squeezing through the vessel wall</text>
                  <text x="380" y="203" text-anchor="middle" style="fill:#4fb8a8;font:italic 700 8px Inter,sans-serif;letter-spacing:1px">ENDOTHELIAL CELLS</text>
                  <text x="365" y="248" text-anchor="middle" style="fill:#6b7689;font:italic 8px Inter,sans-serif">next: diapedesis</text>
                </svg>
