<?xml version="1.0" encoding="UTF-8"?>
<!--
  Auto-generated from the reference HTML by
  scripts/storymode-extraction/extract.mjs.
  Do not edit by hand — regenerate the file instead.
-->
<svg xmlns="http://www.w3.org/2000/svg" xmlns:xlink="http://www.w3.org/1999/xlink" viewBox="0 0 500 260" preserveAspectRatio="xMidYMid meet">
                  <g transform="translate(250 145)">
                    <path d="M -95 -75 Q -115 -40 -105 25 Q -90 65 -55 80 Q -15 82 0 82 Q 15 82 55 80 Q 90 65 105 25 Q 115 -40 95 -75 Q 0 -90 -95 -75" fill="#6b7689" opacity="0.2" stroke="#e8ecf3" stroke-width="1.3"/>
                    <path d="M -80 -60 Q -95 -25 -85 20 Q -70 50 -40 60 Q -20 62 -5 62 L -5 -55 Q -40 -70 -80 -60" fill="#0a0e1a" opacity="0.9" stroke="#e8ecf3" stroke-width="1"/>
                    <path d="M 80 -60 Q 95 -25 85 20 Q 70 50 40 60 Q 20 62 5 62 L 5 -55 Q 40 -70 80 -60" fill="#0a0e1a" opacity="0.9" stroke="#e8ecf3" stroke-width="1"/>
                    <line x1="0" y1="-55" x2="0" y2="70" stroke="#e8ecf3" stroke-width="1.5"/>
                    <g fill="#e8ecf3" opacity="0.9">
                      <ellipse cx="-30" cy="-5" rx="22" ry="14"/>
                      <ellipse cx="30" cy="-5" rx="22" ry="14"/>
                    </g>
                    <g stroke="#e8a951" stroke-width="2" fill="none">
                      <circle cx="-30" cy="-5" r="28" stroke-dasharray="3 2"/>
                      <circle cx="30" cy="-5" r="28" stroke-dasharray="3 2"/>
                    </g>
                  </g>
                  <g transform="translate(90 70)">
                    <text x="0" y="0" style="fill:#e8a951;font:italic 700 10px Inter,sans-serif">bilateral</text>
                  </g>
                  <g transform="translate(410 70)">
                    <text x="0" y="0" text-anchor="end" style="fill:#e8a951;font:italic 700 10px Inter,sans-serif">symmetric</text>
                  </g>
                  <text x="250" y="245" text-anchor="middle" style="fill:#e8a951;font:700 11px Inter,sans-serif;letter-spacing:1.5px">HILAR LAD</text>
                </svg>
