<?xml version="1.0" encoding="UTF-8"?>
<!--
  Auto-generated from the reference HTML by
  scripts/storymode-extraction/extract.mjs.
  Do not edit by hand — regenerate the file instead.
-->
<svg xmlns="http://www.w3.org/2000/svg" xmlns:xlink="http://www.w3.org/1999/xlink" viewBox="0 0 500 260" preserveAspectRatio="xMidYMid meet">
                  <ellipse cx="250" cy="140" rx="180" ry="55" fill="#d14859" opacity="0.12" stroke="#d14859" stroke-width="1" stroke-dasharray="3 2"/>
                  <ellipse cx="250" cy="140" rx="140" ry="32" fill="#111826" stroke="#d14859" stroke-width="2"/>
                  <g transform="translate(110 108)">
                    <rect x="-4" y="0" width="40" height="8" fill="#4fb8a8" opacity="0.85"/>
                    <rect x="42" y="0" width="35" height="8" fill="#4fb8a8" opacity="0.85"/>
                    <rect x="85" y="0" width="40" height="8" fill="#4fb8a8" opacity="0.85"/>
                    <rect x="133" y="0" width="35" height="8" fill="#4fb8a8" opacity="0.85"/>
                    <rect x="178" y="0" width="40" height="8" fill="#4fb8a8" opacity="0.85"/>
                    <rect x="226" y="0" width="35" height="8" fill="#4fb8a8" opacity="0.85"/>
                    <rect x="270" y="0" width="15" height="8" fill="#4fb8a8" opacity="0.85"/>
                  </g>
                  <g transform="translate(110 164)">
                    <rect x="-4" y="0" width="40" height="8" fill="#4fb8a8" opacity="0.85"/>
                    <rect x="42" y="0" width="35" height="8" fill="#4fb8a8" opacity="0.85"/>
                    <rect x="85" y="0" width="40" height="8" fill="#4fb8a8" opacity="0.85"/>
                    <rect x="133" y="0" width="35" height="8" fill="#4fb8a8" opacity="0.85"/>
                    <rect x="178" y="0" width="40" height="8" fill="#4fb8a8" opacity="0.85"/>
                    <rect x="226" y="0" width="35" height="8" fill="#4fb8a8" opacity="0.85"/>
                    <rect x="270" y="0" width="15" height="8" fill="#4fb8a8" opacity="0.85"/>
                  </g>
                  <g fill="#e8a951" opacity="0.7">
                    <circle cx="155" cy="130" r="3"/>
                    <circle cx="165" cy="95" r="3"/>
                    <circle cx="200" cy="90" r="3"/>
                    <circle cx="235" cy="100" r="3"/>
                    <circle cx="265" cy="88" r="3"/>
                    <circle cx="295" cy="95" r="3"/>
                    <circle cx="330" cy="92" r="3"/>
                    <circle cx="160" cy="180" r="3"/>
                    <circle cx="195" cy="185" r="3"/>
                    <circle cx="230" cy="190" r="3"/>
                    <circle cx="270" cy="188" r="3"/>
                    <circle cx="305" cy="185" r="3"/>
                    <circle cx="340" cy="180" r="3"/>
                  </g>
                  <g transform="translate(250 50)">
                    <g fill="#d14859" opacity="0.85">
                      <circle cx="-16" cy="0" r="4"/>
                      <circle cx="-8" cy="-3" r="4"/>
                      <circle cx="0" cy="2" r="4"/>
                      <circle cx="8" cy="-2" r="4"/>
                      <circle cx="16" cy="1" r="4"/>
                    </g>
                    <text x="0" y="-10" text-anchor="middle" style="fill:#d14859;font:700 9px Inter,sans-serif">BRADYKININ</text>
                  </g>
                  <g stroke="#d14859" stroke-width="1.5" fill="none" opacity="0.7">
                    <path d="M 90 140 L 70 130 M 70 130 L 80 130 M 70 130 L 75 120"/>
                    <path d="M 410 140 L 430 130 M 430 130 L 420 130 M 430 130 L 425 120"/>
                  </g>
                  <g transform="translate(70 200)">
                    <path d="M 10 -10 L 20 0 L 10 10 L 20 20" stroke="#d14859" stroke-width="2" fill="none"/>
                    <path d="M 0 -10 L 10 0 L 0 10 L 10 20" stroke="#d14859" stroke-width="2" fill="none" opacity="0.6"/>
                  </g>
                  <g transform="translate(410 200)">
                    <path d="M -10 -10 L -20 0 L -10 10 L -20 20" stroke="#d14859" stroke-width="2" fill="none"/>
                    <path d="M 0 -10 L -10 0 L 0 10 L -10 20" stroke="#d14859" stroke-width="2" fill="none" opacity="0.6"/>
                  </g>
                </svg>
