<?xml version="1.0" encoding="UTF-8"?>
<!--
  Auto-generated from the reference HTML by
  scripts/storymode-extraction/extract.mjs.
  Do not edit by hand — regenerate the file instead.
-->
<svg xmlns="http://www.w3.org/2000/svg" xmlns:xlink="http://www.w3.org/1999/xlink" viewBox="0 0 500 260" preserveAspectRatio="xMidYMid meet">
                  <!-- Title -->
                  <text x="20" y="22" style="fill:#e8a951;font:600 10px Inter,sans-serif;letter-spacing:2px">TISSUE DRAINS INTO AFFERENT LYMPHATICS</text>
                  <!-- Gradient def -->
                  <defs>
                    <radialGradient id="inflamed_s05_1" cx="50%" cy="50%" r="50%">
                      <stop offset="0%" stop-color="#d14859" stop-opacity="0.7"/>
                      <stop offset="60%" stop-color="#d14859" stop-opacity="0.3"/>
                      <stop offset="100%" stop-color="#e8a8a0" stop-opacity="0.1"/>
                    </radialGradient>
                  </defs>
                  <!-- Inflamed tissue (left, shifted 20px left for label room) -->
                  <g transform="translate(80 120)">
                    <ellipse cx="0" cy="0" rx="55" ry="36" fill="url(#inflamed_s05_1)"/>
                    <g fill="#d14859" opacity="0.9">
                      <circle cx="-24" cy="-8" r="3"/>
                      <circle cx="-8" cy="-15" r="3"/>
                      <circle cx="12" cy="-10" r="3"/>
                      <circle cx="24" cy="4" r="3"/>
                      <circle cx="-20" cy="12" r="3"/>
                      <circle cx="4" cy="14" r="3"/>
                      <circle cx="-4" cy="0" r="3.5"/>
                    </g>
                    <g fill="#e8a951" opacity="0.9">
                      <circle cx="-12" cy="-4" r="3.5"/>
                      <circle cx="8" cy="6" r="3.5"/>
                    </g>
                    <text x="0" y="55" text-anchor="middle" style="fill:#d14859;font:800 10px Inter,sans-serif;letter-spacing:1px">INFLAMED TISSUE</text>
                    <text x="0" y="67" text-anchor="middle" style="fill:#b4becf;font:italic 8px Inter,sans-serif">bacteria, antigens, cytokines</text>
                  </g>
                  <!-- Afferent lymphatic channel (middle) — extended zigzag (11 teeth), centered on x=250 -->
                  <g stroke="#4fb8a8" stroke-width="2.5" fill="none">
                    <path d="M 170 102 L 180 92 M 185 102 L 195 92 M 200 102 L 210 92 M 215 102 L 225 92 M 230 102 L 240 92 M 245 102 L 255 92 M 260 102 L 270 92 M 275 102 L 285 92 M 290 102 L 300 92 M 305 102 L 315 92 M 320 102 L 330 92"/>
                  </g>
                  <g stroke="#4fb8a8" stroke-width="2.5" fill="none">
                    <path d="M 170 138 L 180 148 M 185 138 L 195 148 M 200 138 L 210 148 M 215 138 L 225 148 M 230 138 L 240 148 M 245 138 L 255 148 M 260 138 L 270 148 M 275 138 L 285 148 M 290 138 L 300 148 M 305 138 L 315 148 M 320 138 L 330 148"/>
                  </g>
                  <!-- Flow particles inside channel (5 dots along the length) -->
                  <g fill="#4fb8a8" opacity="0.85">
                    <circle cx="195" cy="120" r="3"/>
                    <circle cx="225" cy="118" r="3"/>
                    <circle cx="255" cy="122" r="3"/>
                    <circle cx="285" cy="119" r="3"/>
                    <circle cx="315" cy="120" r="3"/>
                  </g>
                  <!-- Direction arrow (extended to match longer channel) -->
                  <path d="M 165 120 L 335 120" stroke="#e8a951" stroke-width="1" fill="none" stroke-dasharray="2 3" opacity="0.4"/>
                  <polygon points="341,120 333,116 333,124" fill="#e8a951" opacity="0.6"/>
                  <!-- Channel labels (recentered at x=250) -->
                  <text x="250" y="175" text-anchor="middle" style="fill:#4fb8a8;font:800 10px Inter,sans-serif;letter-spacing:1px">AFFERENT LYMPHATICS</text>
                  <text x="250" y="187" text-anchor="middle" style="fill:#b4becf;font:italic 8px Inter,sans-serif">carry fluid + antigens to node</text>
                  <!-- Regional node (right, shifted 15px right for label room) -->
                  <g transform="translate(420 120)">
                    <ellipse cx="0" cy="0" rx="40" ry="26" fill="#4fb8a8" opacity="0.5" stroke="#4fb8a8" stroke-width="2"/>
                    <g fill="#9370b9" opacity="0.75">
                      <circle cx="-14" cy="-8" r="4"/>
                      <circle cx="10" cy="-10" r="4"/>
                      <circle cx="-8" cy="8" r="4"/>
                      <circle cx="14" cy="6" r="4"/>
                      <circle cx="0" cy="0" r="4"/>
                    </g>
                    <text x="0" y="55" text-anchor="middle" style="fill:#4fb8a8;font:800 10px Inter,sans-serif;letter-spacing:1px">REGIONAL NODE</text>
                    <text x="0" y="67" text-anchor="middle" style="fill:#b4becf;font:italic 8px Inter,sans-serif">lymphocytes (B/T cells)</text>
                  </g>
                  <!-- Color key at bottom -->
                  <g transform="translate(250 232)">
                    <g transform="translate(-145 0)">
                      <circle r="3.5" fill="#d14859"/>
                      <text x="8" y="3" style="fill:#d14859;font:italic 8px Inter,sans-serif">antigen</text>
                    </g>
                    <g transform="translate(-55 0)">
                      <circle r="3.5" fill="#e8a951"/>
                      <text x="8" y="3" style="fill:#e8a951;font:italic 8px Inter,sans-serif">cytokine</text>
                    </g>
                    <g transform="translate(35 0)">
                      <circle r="3.5" fill="#4fb8a8"/>
                      <text x="8" y="3" style="fill:#4fb8a8;font:italic 8px Inter,sans-serif">lymph fluid</text>
                    </g>
                    <g transform="translate(130 0)">
                      <circle r="3.5" fill="#9370b9"/>
                      <text x="8" y="3" style="fill:#9370b9;font:italic 8px Inter,sans-serif">lymphocyte</text>
                    </g>
                  </g>
                </svg>
