<?xml version="1.0" encoding="UTF-8"?>
<!--
  Auto-generated from the reference HTML by
  scripts/storymode-extraction/extract.mjs.
  Do not edit by hand — regenerate the file instead.
-->
<svg xmlns="http://www.w3.org/2000/svg" xmlns:xlink="http://www.w3.org/1999/xlink" viewBox="0 0 500 260" preserveAspectRatio="xMidYMid meet">
                  <g transform="translate(115 145)">
                    <circle r="45" fill="#e8a951" opacity="0.85" stroke="#a87b3c" stroke-width="1.5"/>
                    <circle cx="-12" cy="-10" r="6" fill="#4a2d60"/>
                    <circle cx="12" cy="12" r="6" fill="#4a2d60"/>
                    <circle cx="-10" cy="15" r="3" fill="#d14859" opacity="0.4"/>
                    <circle cx="15" cy="-15" r="3" fill="#d14859" opacity="0.4"/>
                    <path d="M 40 -20 Q 55 -25 70 -15 M 38 20 Q 55 25 72 18 M 42 0 L 65 0" stroke="#d14859" stroke-width="1.5" fill="none" stroke-dasharray="2 2"/>
                  </g>
                  <g transform="translate(260 90)">
                    <path d="M -18 -6 Q -12 -12 -4 -10 Q 4 -14 10 -8 Q 18 -12 22 -4 Q 26 4 18 10 Q 10 14 0 10 Q -8 16 -16 8 Q -22 2 -18 -6" fill="#d14859" opacity="0.8"/>
                    <path d="M -6 -2 L 6 2 L -2 4 L 6 -4" stroke="#0a0e1a" stroke-width="1" fill="none"/>
                  </g>
                  <g transform="translate(330 140)">
                    <path d="M -22 -8 Q -15 -14 -5 -10 Q 8 -16 18 -8 Q 26 0 20 10 Q 10 16 -2 12 Q -15 18 -22 8 Q -28 0 -22 -8" fill="#d14859" opacity="0.8"/>
                    <g stroke="#0a0e1a" stroke-width="1" fill="none">
                      <line x1="-12" y1="-2" x2="0" y2="-2"/>
                      <line x1="0" y1="0" x2="12" y2="0"/>
                      <line x1="-6" y1="4" x2="6" y2="4"/>
                    </g>
                  </g>
                  <g transform="translate(265 195)">
                    <path d="M -16 -4 Q -10 -12 0 -8 Q 14 -14 20 -4 Q 24 6 14 12 Q 0 16 -10 10 Q -22 4 -16 -4" fill="#d14859" opacity="0.8"/>
                    <g fill="#e8a951" opacity="0.9">
                      <circle cx="-6" cy="-2" r="2"/>
                      <circle cx="8" cy="-2" r="2"/>
                      <circle cx="0" cy="4" r="2"/>
                    </g>
                  </g>
                  <g transform="translate(410 170)">
                    <path d="M -14 -6 Q -6 -10 2 -6 Q 10 -12 16 -4 Q 20 6 12 10 Q 0 14 -8 8 Q -18 2 -14 -6" fill="#d14859" opacity="0.7"/>
                  </g>
                  <g transform="translate(390 95)">
                    <path d="M -12 -6 Q -4 -10 4 -4 Q 12 -10 16 -2 Q 18 6 8 10 Q -2 12 -10 6 Q -16 0 -12 -6" fill="#d14859" opacity="0.7"/>
                  </g>
                  <g stroke="#d14859" stroke-width="1.3" fill="none" stroke-dasharray="3 2" opacity="0.4">
                    <path d="M 155 130 Q 210 110 240 95"/>
                    <path d="M 158 155 Q 215 175 255 195"/>
                    <path d="M 162 140 Q 250 140 315 140"/>
                    <path d="M 160 125 Q 300 100 378 95"/>
                    <path d="M 160 160 Q 300 180 395 170"/>
                  </g>
                </svg>
