<?xml version="1.0" encoding="UTF-8"?>
<!--
  Auto-generated from the reference HTML by
  scripts/storymode-extraction/extract.mjs.
  Do not edit by hand — regenerate the file instead.
-->
<svg xmlns="http://www.w3.org/2000/svg" xmlns:xlink="http://www.w3.org/1999/xlink" viewBox="0 0 500 260" preserveAspectRatio="xMidYMid meet">
                  <g transform="translate(140 145)">
                    <ellipse cx="0" cy="0" rx="55" ry="45" fill="#e8a951" opacity="0.3" stroke="#e8a951" stroke-width="1.5"/>
                    <g fill="#e8a951" opacity="0.9">
                      <circle cx="-20" cy="-10" r="5"/>
                      <circle cx="10" cy="-15" r="5"/>
                      <circle cx="-10" cy="15" r="5"/>
                      <circle cx="20" cy="10" r="5"/>
                      <circle cx="0" cy="0" r="5"/>
                    </g>
                    <text x="0" y="66" text-anchor="middle" style="fill:#e8a951;font:italic 700 10px Inter,sans-serif">pyogenic</text>
                    <text x="0" y="78" text-anchor="middle" style="fill:#b4becf;font:italic 8px Inter,sans-serif">neutrophils</text>
                  </g>
                  <g transform="translate(360 145)">
                    <circle r="50" fill="none" stroke="#9370b9" stroke-width="2"/>
                    <g fill="#9370b9" opacity="0.8">
                      <circle cx="-38" cy="0" r="5"/>
                      <circle cx="-28" cy="-25" r="5"/>
                      <circle cx="0" cy="-38" r="5"/>
                      <circle cx="28" cy="-25" r="5"/>
                      <circle cx="38" cy="0" r="5"/>
                      <circle cx="28" cy="25" r="5"/>
                      <circle cx="0" cy="38" r="5"/>
                      <circle cx="-28" cy="25" r="5"/>
                    </g>
                    <text x="0" y="66" text-anchor="middle" style="fill:#9370b9;font:italic 700 10px Inter,sans-serif">granuloma</text>
                    <text x="0" y="78" text-anchor="middle" style="fill:#b4becf;font:italic 8px Inter,sans-serif">macrophages</text>
                  </g>
                  <path d="M 205 145 L 300 145" stroke="#6b7689" stroke-width="1" stroke-dasharray="4 3"/>
                  <text x="253" y="140" text-anchor="middle" style="fill:#e8ecf3;font:italic 600 11px Fraunces,serif">vs.</text>
                </svg>
