<?xml version="1.0" encoding="UTF-8"?>
<!--
  Auto-generated from the reference HTML by
  scripts/storymode-extraction/extract.mjs.
  Do not edit by hand — regenerate the file instead.
-->
<svg xmlns="http://www.w3.org/2000/svg" xmlns:xlink="http://www.w3.org/1999/xlink" viewBox="0 0 500 260" preserveAspectRatio="xMidYMid meet">
                  <text x="20" y="38" style="fill:#e8a951;font:600 10px Inter,sans-serif;letter-spacing:2px">FREE — NUCLEUS — GENES ON</text>
                  <text x="35" y="88" style="fill:#6b7689;font:10px Inter,sans-serif;letter-spacing:1.5px">CYTOPLASM</text>
                  <ellipse cx="330" cy="155" rx="130" ry="78" fill="#4fb8a8" opacity="0.12" stroke="#4fb8a8" stroke-width="1.8"/>
                  <ellipse cx="330" cy="155" rx="123" ry="72" fill="none" stroke="#4fb8a8" stroke-width="1" opacity="0.7"/>
                  <text x="330" y="85" text-anchor="middle" style="fill:#4fb8a8;font:600 10px Inter,sans-serif;letter-spacing:1.5px">NUCLEUS</text>
                  <g transform="translate(202 155)">
                    <circle r="14" fill="#0a0e1a" stroke="#4fb8a8" stroke-width="1.5"/>
                    <circle r="8" fill="#111826" stroke="#4fb8a8" stroke-width="0.8"/>
                    <text x="0" y="36" text-anchor="middle" style="fill:#6b7689;font:italic 9px Inter,sans-serif">nuclear pore</text>
                  </g>
                  <g transform="translate(100 155)" opacity="0.4">
                    <rect x="-22" y="-13" width="44" height="26" rx="6" fill="#111826" stroke="#e8a951" stroke-width="2"/>
                    <text x="0" y="5" text-anchor="middle" style="fill:#e8a951;font:700 11px Inter,sans-serif">NF-κB</text>
                    <text x="0" y="-22" text-anchor="middle" style="fill:#b4becf;font:italic 10px Inter,sans-serif">free!</text>
                  </g>
                  <g transform="translate(165 155)" opacity="0.7">
                    <rect x="-22" y="-13" width="44" height="26" rx="6" fill="#111826" stroke="#e8a951" stroke-width="2"/>
                    <text x="0" y="5" text-anchor="middle" style="fill:#e8a951;font:700 11px Inter,sans-serif">NF-κB</text>
                  </g>
                  <g transform="translate(265 155)">
                    <rect x="-22" y="-13" width="44" height="26" rx="6" fill="#111826" stroke="#e8a951" stroke-width="2.2"/>
                    <text x="0" y="5" text-anchor="middle" style="fill:#e8a951;font:700 11px Inter,sans-serif">NF-κB</text>
                  </g>
                  <line x1="130" y1="128" x2="243" y2="128" stroke="#e8a951" stroke-width="1.3" stroke-dasharray="3 3"/>
                  <polygon points="248,128 240,124 240,132" fill="#e8a951"/>
                  <g transform="translate(345 192)">
                    <path d="M -32 0 Q -26 -9 -16 0 Q -6 9 4 0 Q 14 -9 24 0 Q 34 9 44 0" stroke="#4fb8a8" stroke-width="1.3" fill="none" opacity="0.7"/>
                    <path d="M -32 10 Q -26 19 -16 10 Q -6 1 4 10 Q 14 19 24 10 Q 34 1 44 10" stroke="#4fb8a8" stroke-width="1.3" fill="none" opacity="0.7"/>
                  </g>
                  <g transform="translate(325 174)">
                    <rect x="-22" y="-7" width="20" height="13" rx="2" fill="#e8a951"/>
                    <text x="-12" y="3" text-anchor="middle" style="fill:#0a0e1a;font:700 7px Inter,sans-serif">TNF</text>
                    <rect x="4" y="-7" width="18" height="13" rx="2" fill="#e8a951"/>
                    <text x="13" y="3" text-anchor="middle" style="fill:#0a0e1a;font:700 7px Inter,sans-serif">IL-1</text>
                    <rect x="24" y="-7" width="18" height="13" rx="2" fill="#e8a951"/>
                    <text x="33" y="3" text-anchor="middle" style="fill:#0a0e1a;font:700 7px Inter,sans-serif">IL-6</text>
                  </g>
                  <text x="340" y="220" text-anchor="middle" style="fill:#e8a951;font:600 10px Inter,sans-serif;letter-spacing:1.5px">GENES ON</text>
                  <text x="250" y="248" text-anchor="middle" style="fill:#e8ecf3;font:italic 600 12px Fraunces,serif">free → crosses the pore → transcription begins</text>
                </svg>
