<?xml version="1.0" encoding="UTF-8"?>
<!--
  Auto-generated from the reference HTML by
  scripts/storymode-extraction/extract.mjs.
  Do not edit by hand — regenerate the file instead.
-->
<svg xmlns="http://www.w3.org/2000/svg" xmlns:xlink="http://www.w3.org/1999/xlink" viewBox="0 0 500 260" preserveAspectRatio="xMidYMid meet">
                  <text x="20" y="24" style="fill:#e8a951;font:600 10px Inter,sans-serif;letter-spacing:2px">THE LAD TETRAD</text>

                  <!-- TL: DELAYED CORD =============================================== -->
                  <g transform="translate(110 75)">
                    <!-- baby belly -->
                    <ellipse cx="-6" cy="10" rx="22" ry="17" fill="#e8a8a0" opacity="0.55" stroke="#c88a80" stroke-width="1.1"/>
                    <ellipse cx="-12" cy="6" rx="8" ry="5" fill="#edb0a8" opacity="0.4"/>
                    <circle cx="-6" cy="0" r="3.5" fill="#8a5a4a" opacity="0.85"/>
                    <!-- cord stump -->
                    <path d="M -6 -3 Q -2 -12 -8 -20 Q -12 -28 -6 -34" stroke="#6b3848" stroke-width="5" fill="none" stroke-linecap="round"/>
                    <rect x="-10" y="-38" width="8" height="5" rx="1" fill="#4a5568"/>
                    <!-- mini calendar badge -->
                    <g transform="translate(24 -4)">
                      <rect x="-12" y="-11" width="24" height="22" rx="2" fill="#111826" stroke="#d14859" stroke-width="1.2"/>
                      <rect x="-12" y="-11" width="24" height="6" rx="2" fill="#d14859" opacity="0.45"/>
                      <text x="0" y="-6" text-anchor="middle" style="fill:#d14859;font:700 5px Inter,sans-serif;letter-spacing:1px">DAY</text>
                      <text x="0" y="8" text-anchor="middle" style="fill:#d14859;font:800 11px Inter,sans-serif">21+</text>
                    </g>
                  </g>
                  <text x="110" y="120" text-anchor="middle" style="fill:#e8a951;font:800 11px Inter,sans-serif;letter-spacing:1.5px">DELAYED CORD</text>
                  <text x="110" y="133" text-anchor="middle" style="fill:#b4becf;font:italic 9px Inter,sans-serif">separation &gt; 3 weeks</text>

                  <!-- TR: NO PUS ===================================================== -->
                  <g transform="translate(390 75)">
                    <!-- empty pus cloud with X -->
                    <g transform="translate(0 -14)">
                      <ellipse cx="0" cy="0" rx="22" ry="9" fill="none" stroke="#e8a951" stroke-width="0.9" stroke-dasharray="2 2" opacity="0.4"/>
                      <g opacity="0.28" fill="#e8a951">
                        <circle cx="-8" cy="-1" r="1.6"/>
                        <circle cx="-1" cy="2" r="1.6"/>
                        <circle cx="6" cy="-2" r="1.6"/>
                        <circle cx="2" cy="-4" r="1.4"/>
                      </g>
                      <g stroke="#d14859" stroke-width="2.2" opacity="0.9" stroke-linecap="round">
                        <line x1="-14" y1="-8" x2="14" y2="8"/>
                        <line x1="14" y1="-8" x2="-14" y2="8"/>
                      </g>
                    </g>
                    <!-- skin + wound -->
                    <path d="M -30 12 Q -15 11 0 12 Q 15 13 30 12" stroke="#e8a8a0" stroke-width="2.2" fill="none" stroke-linecap="round"/>
                    <path d="M -10 12 Q -5 22 0 20 Q 5 22 10 12" fill="#8a2838" opacity="0.9"/>
                    <g fill="#d14859" opacity="0.95">
                      <circle cx="-4" cy="16" r="1.5"/>
                      <circle cx="3" cy="15" r="1.5"/>
                      <circle cx="-1" cy="19" r="1.5"/>
                    </g>
                  </g>
                  <text x="390" y="120" text-anchor="middle" style="fill:#e8a951;font:800 11px Inter,sans-serif;letter-spacing:1.5px">NO PUS</text>
                  <text x="390" y="133" text-anchor="middle" style="fill:#b4becf;font:italic 9px Inter,sans-serif">at infection sites</text>

                  <!-- BL: NEUTROPHILIA =============================================== -->
                  <g transform="translate(110 168)">
                    <!-- test tube -->
                    <path d="M -10 -26 L -10 12 Q -10 20 -3 20 L 3 20 Q 10 20 10 12 L 10 -26" fill="none" stroke="#6b7689" stroke-width="1.3" stroke-linecap="round"/>
                    <rect x="-13" y="-28" width="26" height="4" rx="1" fill="#6b7689" opacity="0.55"/>
                    <!-- lots of neutrophils inside -->
                    <g fill="#e8a951" opacity="0.92" stroke="#a87b3c" stroke-width="0.4">
                      <circle cx="-5" cy="-18" r="2"/>
                      <circle cx="3" cy="-21" r="2"/>
                      <circle cx="-3" cy="-13" r="2"/>
                      <circle cx="5" cy="-9" r="2"/>
                      <circle cx="-5" cy="-4" r="2"/>
                      <circle cx="2" cy="-2" r="2"/>
                      <circle cx="-2" cy="5" r="2"/>
                      <circle cx="5" cy="8" r="2"/>
                      <circle cx="-4" cy="12" r="2"/>
                      <circle cx="2" cy="15" r="2"/>
                    </g>
                    <!-- up-arrow indicating elevated count -->
                    <g stroke="#d14859" stroke-width="1.8" fill="none" stroke-linecap="round" stroke-linejoin="round">
                      <path d="M 22 14 L 22 -18"/>
                      <path d="M 17 -13 L 22 -18 L 27 -13"/>
                    </g>
                  </g>
                  <text x="110" y="210" text-anchor="middle" style="fill:#e8a951;font:800 11px Inter,sans-serif;letter-spacing:1.5px">NEUTROPHILIA</text>
                  <text x="110" y="223" text-anchor="middle" style="fill:#b4becf;font:italic 9px Inter,sans-serif">WBC &gt; 30,000</text>

                  <!-- BR: RECURRENT INFECTIONS ======================================= -->
                  <g transform="translate(390 168)">
                    <!-- body silhouette -->
                    <g fill="#6b7689" opacity="0.35">
                      <circle cx="0" cy="-18" r="7"/>
                      <path d="M -10 -10 Q -12 4 -10 20 L 10 20 Q 12 4 10 -10 Q 0 -14 -10 -10 Z"/>
                    </g>
                    <g stroke="#6b7689" stroke-width="4" fill="none" opacity="0.35" stroke-linecap="round">
                      <path d="M -10 -6 Q -18 4 -17 16"/>
                      <path d="M 10 -6 Q 18 4 17 16"/>
                    </g>
                    <!-- multiple infection spots -->
                    <g fill="#d14859">
                      <circle cx="-5" cy="-4" r="2.3"/>
                      <circle cx="4" cy="-8" r="2.3"/>
                      <circle cx="-2" cy="6" r="2.3"/>
                      <circle cx="5" cy="13" r="2.3"/>
                      <circle cx="-14" cy="4" r="2"/>
                      <circle cx="15" cy="8" r="2"/>
                    </g>
                    <!-- recurrence arrow (circular) -->
                    <g transform="translate(26 -18)" stroke="#d14859" stroke-width="1.5" fill="none" stroke-linecap="round">
                      <path d="M 0 -7 A 7 7 0 1 0 6 5"/>
                    </g>
                    <polygon points="30,-14 36,-12 32,-8" fill="#d14859"/>
                  </g>
                  <text x="390" y="210" text-anchor="middle" style="fill:#e8a951;font:800 11px Inter,sans-serif;letter-spacing:1.5px">RECURRENT INFECTIONS</text>
                  <text x="390" y="223" text-anchor="middle" style="fill:#b4becf;font:italic 9px Inter,sans-serif">severe, since infancy</text>

                  <!-- Bottom banner: the cause -->
                  <g transform="translate(250 245)">
                    <rect x="-120" y="-12" width="240" height="24" rx="12" fill="#e8a951" opacity="0.2" stroke="#e8a951" stroke-width="1.4"/>
                    <text x="0" y="4" text-anchor="middle" style="fill:#e8a951;font:700 10px Inter,sans-serif;letter-spacing:2px">CAUSE: CD18 / β2 INTEGRIN</text>
                  </g>
                </svg>
