<?xml version="1.0" encoding="UTF-8"?>
<!--
  Auto-generated from the reference HTML by
  scripts/storymode-extraction/extract.mjs.
  Do not edit by hand — regenerate the file instead.
-->
<svg xmlns="http://www.w3.org/2000/svg" xmlns:xlink="http://www.w3.org/1999/xlink" viewBox="0 0 500 260" preserveAspectRatio="xMidYMid meet">
                  <g transform="translate(110 130)">
                    <path d="M -30 -15 Q -25 -22 -10 -22 Q 5 -24 20 -18 Q 30 -10 25 0 Q 10 6 -5 2 Q -22 -2 -30 -15 Z" fill="#d14859" opacity="0.7" stroke="#a33648" stroke-width="1"/>
                    <text x="0" y="20" text-anchor="middle" style="fill:#d14859;font:italic 700 9px Inter,sans-serif">sickle cell</text>
                  </g>
                  <g transform="translate(250 130)">
                    <path d="M -26 -10 L 26 12 M 26 -10 L -26 12" stroke="#d14859" stroke-width="3"/>
                    <path d="M -22 -6 Q -18 4 -8 6 Q 5 8 15 6 Q 22 0 18 -8 Q 10 -12 0 -10 Q -14 -12 -22 -6" fill="#d14859" opacity="0.22" stroke="#d14859" stroke-width="1.3" stroke-dasharray="2 2"/>
                    <text x="0" y="26" text-anchor="middle" style="fill:#d14859;font:italic 700 9px Inter,sans-serif">splenectomy</text>
                  </g>
                  <g transform="translate(390 130)">
                    <path d="M -25 -5 Q -20 -15 -5 -15 Q 10 -17 22 -10 Q 28 0 22 8 Q 10 14 -5 10 Q -20 6 -25 -5" fill="#6b7689" opacity="0.3" stroke="#6b7689" stroke-width="1.3"/>
                    <g stroke="#6b7689" stroke-width="1" fill="none">
                      <path d="M -18 -3 L 15 3"/>
                      <path d="M -14 3 L 18 -5"/>
                    </g>
                    <text x="0" y="26" text-anchor="middle" style="fill:#d14859;font:italic 700 9px Inter,sans-serif">fibrosed</text>
                  </g>
                  <g transform="translate(250 210)">
                    <circle r="18" fill="#d14859" opacity="0.55" stroke="#a33648" stroke-width="1.3"/>
                    <circle cx="-6" cy="-4" r="4" fill="#4a2d60"/>
                    <circle r="26" fill="none" stroke="#e8a951" stroke-width="1.5" stroke-dasharray="3 2" opacity="0.7"/>
                    <text x="0" y="44" text-anchor="middle" style="fill:#e8a951;font:italic 700 9px Inter,sans-serif">same result: H-J body</text>
                  </g>
                  <g stroke="#6b7689" stroke-width="1" fill="none" stroke-dasharray="3 2">
                    <path d="M 110 155 Q 180 180 230 195"/>
                    <path d="M 250 145 L 250 185"/>
                    <path d="M 390 155 Q 320 180 270 195"/>
                  </g>
                </svg>
