<?xml version="1.0" encoding="UTF-8"?>
<!--
  Auto-generated from the reference HTML by
  scripts/storymode-extraction/extract.mjs.
  Do not edit by hand — regenerate the file instead.
-->
<svg xmlns="http://www.w3.org/2000/svg" xmlns:xlink="http://www.w3.org/1999/xlink" viewBox="0 0 500 260" preserveAspectRatio="xMidYMid meet">
                  <g transform="translate(250 135)">
                    <ellipse cx="0" cy="-40" rx="30" ry="38" fill="#a87b3c" opacity="0.75" stroke="#6b4a28" stroke-width="1.5"/>
                    <circle cx="-10" cy="-45" r="2.5" fill="#0a0e1a"/>
                    <circle cx="10" cy="-45" r="2.5" fill="#0a0e1a"/>
                    <path d="M -6 -30 Q 0 -27 6 -30" stroke="#0a0e1a" stroke-width="1.5" fill="none"/>
                    <path d="M -32 -45 Q -35 -65 -15 -72 Q 15 -75 30 -65 Q 35 -50 28 -40" fill="#4a2d60" stroke="#4a2d60" stroke-width="1"/>
                    <path d="M -25 -10 Q -35 15 -30 45 Q -25 60 0 62 Q 25 60 30 45 Q 35 15 25 -10 Q 0 -22 -25 -10" fill="#4fb8a8" opacity="0.6" stroke="#4fb8a8" stroke-width="1.3"/>
                  </g>
                  <g transform="translate(90 85)">
                    <text x="0" y="0" style="fill:#e8a951;font:italic 700 10px Inter,sans-serif">age 20-40</text>
                  </g>
                  <g transform="translate(415 85)">
                    <text x="0" y="0" text-anchor="end" style="fill:#e8a951;font:italic 700 10px Inter,sans-serif">♀</text>
                  </g>
                  <g transform="translate(90 220)">
                    <path d="M 0 0 L 8 -4 L 6 4 Z" fill="#d14859"/>
                    <text x="14" y="4" style="fill:#d14859;font:italic 9px Inter,sans-serif">dry cough</text>
                  </g>
                  <g transform="translate(260 220)">
                    <circle r="5" fill="#d14859" opacity="0.7"/>
                    <text x="12" y="4" style="fill:#d14859;font:italic 9px Inter,sans-serif">fatigue</text>
                  </g>
                  <g transform="translate(370 220)">
                    <g fill="#d14859" opacity="0.8">
                      <circle cx="-3" cy="0" r="3"/>
                      <circle cx="3" cy="-2" r="3"/>
                      <circle cx="0" cy="4" r="3"/>
                    </g>
                    <text x="12" y="4" style="fill:#d14859;font:italic 9px Inter,sans-serif">rash/uveitis</text>
                  </g>
                </svg>
