<?xml version="1.0" encoding="UTF-8"?>
<!--
  Auto-generated from the reference HTML by
  scripts/storymode-extraction/extract.mjs.
  Do not edit by hand — regenerate the file instead.
-->
<svg xmlns="http://www.w3.org/2000/svg" xmlns:xlink="http://www.w3.org/1999/xlink" viewBox="0 0 500 260" preserveAspectRatio="xMidYMid meet">
                  <!-- Title -->
                  <text x="20" y="22" style="fill:#e8a951;font:600 10px Inter,sans-serif;letter-spacing:2px">NEUTROPHIL DRIFTS PAST ICAM-1</text>
                  <!-- LUMEN zone label -->
                  <text x="20" y="42" style="fill:#6b7689;font:10px Inter,sans-serif;letter-spacing:1.5px">LUMEN (bloodstream)</text>
                  <!-- Neutrophil drift trail (3 positions, fading past → current) -->
                  <g opacity="0.35"><circle cx="75" cy="95" r="16" fill="#e8a951" stroke="#a87b3c"/><circle cx="72" cy="93" r="3" fill="#4a2d60"/><circle cx="78" cy="97" r="3" fill="#4a2d60"/></g>
                  <g opacity="0.6"><circle cx="180" cy="95" r="16" fill="#e8a951" stroke="#a87b3c"/><circle cx="177" cy="93" r="3" fill="#4a2d60"/><circle cx="183" cy="97" r="3" fill="#4a2d60"/></g>
                  <g><circle cx="330" cy="95" r="16" fill="#e8a951" stroke="#a87b3c" stroke-width="1.3"/><circle cx="327" cy="93" r="3" fill="#4a2d60"/><circle cx="333" cy="97" r="3" fill="#4a2d60"/></g>
                  <!-- Drift-direction arrows between neutrophils (arrow 2 extended to reach new position) -->
                  <g stroke="#e8a951" fill="none" opacity="0.4">
                    <path d="M 96 95 L 158 95" stroke-width="0.8"/>
                    <path d="M 201 95 L 305 95" stroke-width="0.8"/>
                  </g>
                  <g fill="#e8a951" opacity="0.5">
                    <polygon points="163,95 156,91 156,99"/>
                    <polygon points="310,95 303,91 303,99"/>
                  </g>
                  <!-- Broken integrin indicator (directly below neutrophil, in clear space between ICAMs) -->
                  <line x1="330" y1="111" x2="330" y2="120" stroke="#6b7689" stroke-width="1" stroke-dasharray="2 2" opacity="0.5"/>
                  <g transform="translate(330 125)">
                    <circle r="5" fill="none" stroke="#d14859" stroke-width="1.2"/>
                    <line x1="-3" y1="-3" x2="3" y2="3" stroke="#d14859" stroke-width="1.2"/>
                    <line x1="3" y1="-3" x2="-3" y2="3" stroke="#d14859" stroke-width="1.2"/>
                  </g>
                  <text x="330" y="143" text-anchor="middle" style="fill:#d14859;font:italic 9px Inter,sans-serif">broken integrin</text>
                  <!-- Endothelial cell band (replaces the single line so ICAMs can anchor in it) -->
                  <rect x="0" y="150" width="500" height="30" fill="#4fb8a8" fill-opacity="0.22" stroke="#4fb8a8" stroke-width="1.3"/>
                  <!-- Endothelial nuclei -->
                  <g fill="#4fb8a8" opacity="0.5">
                    <ellipse cx="65" cy="165" rx="14" ry="5"/>
                    <ellipse cx="225" cy="165" rx="14" ry="5"/>
                    <ellipse cx="350" cy="165" rx="14" ry="5"/>
                    <ellipse cx="460" cy="165" rx="14" ry="5"/>
                  </g>
                  <!-- ICAM-1 molecules ANCHORED in endothelium (stems base at y=150, extending up into lumen) -->
                  <g fill="#e8a951" stroke="#a87b3c" stroke-width="0.8">
                    <rect x="155" y="120" width="10" height="30"/>
                    <rect x="275" y="120" width="10" height="30"/>
                    <rect x="395" y="120" width="10" height="30"/>
                    <rect x="151" y="112" width="18" height="8" rx="2"/>
                    <rect x="271" y="112" width="18" height="8" rx="2"/>
                    <rect x="391" y="112" width="18" height="8" rx="2"/>
                  </g>
                  <!-- ICAM-1 label above the rightmost molecule (clear of neutrophils) -->
                  <text x="400" y="106" text-anchor="middle" style="fill:#e8a951;font:italic 700 10px Inter,sans-serif">ICAM-1</text>
                  <!-- ENDOTHELIUM label -->
                  <text x="20" y="203" style="fill:#4fb8a8;font:italic 700 8px Inter,sans-serif;letter-spacing:1px">ENDOTHELIAL CELLS</text>
                  <!-- Bottom caption — punch line -->
                  <text x="250" y="226" text-anchor="middle" style="fill:#d14859;font:800 11px Inter,sans-serif;letter-spacing:2px">NO GRIP → NO ADHESION → NO EXIT</text>
                  <text x="250" y="244" text-anchor="middle" style="fill:#b4becf;font:italic 10px Inter,sans-serif">neutrophil keeps drifting — no stop, no exit</text>
                </svg>
