<?xml version="1.0" encoding="UTF-8"?>
<!--
  Auto-generated from the reference HTML by
  scripts/storymode-extraction/extract.mjs.
  Do not edit by hand — regenerate the file instead.
-->
<svg xmlns="http://www.w3.org/2000/svg" xmlns:xlink="http://www.w3.org/1999/xlink" viewBox="0 0 500 260" preserveAspectRatio="xMidYMid meet">
                  <g transform="translate(250 145)">
                    <path d="M -45 -60 Q -65 -30 -60 10 Q -50 40 -20 55 Q 0 60 20 55 Q 50 40 60 10 Q 65 -30 45 -60 Q 0 -70 -45 -60" fill="#4fb8a8" opacity="0.55" stroke="#4fb8a8" stroke-width="1.5"/>
                    <g fill="#4fb8a8" opacity="0.85">
                      <ellipse cx="-25" cy="-20" rx="6" ry="8"/>
                      <ellipse cx="15" cy="-25" rx="6" ry="8"/>
                      <ellipse cx="-10" cy="10" rx="6" ry="8"/>
                      <ellipse cx="20" cy="15" rx="6" ry="8"/>
                      <ellipse cx="0" cy="30" rx="6" ry="8"/>
                      <ellipse cx="-28" cy="20" rx="6" ry="8"/>
                    </g>
                    <text x="0" y="80" text-anchor="middle" style="fill:#4fb8a8;font:700 11px Inter,sans-serif;letter-spacing:1.5px">THYMUS</text>
                  </g>
                  <g transform="translate(100 90)">
                    <g stroke="#4fb8a8" stroke-width="1.5" fill="none">
                      <path d="M 0 0 L 10 10"/>
                      <path d="M 0 0 L 14 0"/>
                    </g>
                    <text x="20" y="3" style="fill:#4fb8a8;font:italic 8px Inter,sans-serif">positive</text>
                    <text x="20" y="14" style="fill:#b4becf;font:italic 8px Inter,sans-serif">selection</text>
                  </g>
                  <g transform="translate(380 90)">
                    <g stroke="#d14859" stroke-width="1.5" fill="none">
                      <path d="M -4 -4 L 4 4"/>
                      <path d="M 4 -4 L -4 4"/>
                    </g>
                    <text x="-12" y="4" text-anchor="end" style="fill:#d14859;font:italic 8px Inter,sans-serif">negative</text>
                    <text x="-12" y="15" text-anchor="end" style="fill:#b4becf;font:italic 8px Inter,sans-serif">selection</text>
                  </g>
                  <g transform="translate(100 220)">
                    <ellipse rx="8" ry="10" fill="#4fb8a8" opacity="0.75"/>
                    <text x="16" y="4" style="fill:#4fb8a8;font:italic 700 9px Inter,sans-serif">safe T cell</text>
                  </g>
                  <g transform="translate(380 220)">
                    <ellipse rx="8" ry="10" fill="#6b7689" opacity="0.4"/>
                    <path d="M -6 -6 L 6 6 M 6 -6 L -6 6" stroke="#d14859" stroke-width="2"/>
                    <text x="-16" y="4" text-anchor="end" style="fill:#d14859;font:italic 700 9px Inter,sans-serif">deleted</text>
                  </g>
                </svg>
