<?xml version="1.0" encoding="UTF-8"?>
<!--
  Auto-generated from the reference HTML by
  scripts/storymode-extraction/extract.mjs.
  Do not edit by hand — regenerate the file instead.
-->
<svg xmlns="http://www.w3.org/2000/svg" xmlns:xlink="http://www.w3.org/1999/xlink" viewBox="0 0 500 260" preserveAspectRatio="xMidYMid meet">
                  <!-- Title -->
                  <text x="20" y="22" style="fill:#e8a951;font:600 10px Inter,sans-serif;letter-spacing:2px">LYMPHADENITIS — 4 CLINICAL SIGNS</text>
                  <!-- Dashed connectors from each callout to central node (color-coded) -->
                  <g stroke-width="1" fill="none" stroke-dasharray="2 3" opacity="0.4">
                    <path d="M 112 68 L 210 116" stroke="#d14859"/>
                    <path d="M 388 68 L 290 116" stroke="#e8a951"/>
                    <path d="M 112 182 L 210 144" stroke="#4fb8a8"/>
                    <path d="M 388 182 L 290 144" stroke="#9370b9"/>
                  </g>
                  <!-- Central inflamed node -->
                  <g transform="translate(250 130)">
                    <ellipse cx="0" cy="0" rx="45" ry="22" fill="#4fb8a8" opacity="0.6" stroke="#4fb8a8" stroke-width="2"/>
                    <g fill="#9370b9" opacity="0.85">
                      <circle cx="-30" cy="-8" r="4"/>
                      <circle cx="-14" cy="-12" r="4"/>
                      <circle cx="2" cy="-14" r="4"/>
                      <circle cx="18" cy="-10" r="4"/>
                      <circle cx="32" cy="-2" r="4"/>
                      <circle cx="24" cy="8" r="4"/>
                      <circle cx="8" cy="12" r="4"/>
                      <circle cx="-8" cy="10" r="4"/>
                      <circle cx="-24" cy="6" r="4"/>
                      <circle cx="-36" cy="-2" r="4"/>
                      <circle cx="-4" cy="0" r="4"/>
                      <circle cx="12" cy="2" r="4"/>
                    </g>
                    <text x="0" y="36" text-anchor="middle" style="fill:#4fb8a8;font:700 10px Inter,sans-serif;letter-spacing:1.5px">INFLAMED NODE</text>
                  </g>
                  <!-- TL: TENDER — hand pressing with pain sparks -->
                  <g transform="translate(95 52)">
                    <g fill="#e8a8a0" opacity="0.95" stroke="#c88a80" stroke-width="1">
                      <rect x="-10" y="-15" width="20" height="10" rx="3"/>
                      <rect x="-9" y="-5" width="4" height="13" rx="1.5"/>
                      <rect x="-4" y="-5" width="4" height="15" rx="1.5"/>
                      <rect x="1" y="-5" width="4" height="14" rx="1.5"/>
                      <rect x="6" y="-5" width="4" height="12" rx="1.5"/>
                      <rect x="-14" y="-12" width="5" height="8" rx="2"/>
                    </g>
                    <g stroke="#d14859" stroke-width="1.8" fill="none" stroke-linecap="round">
                      <path d="M -7 14 L -9 19"/>
                      <path d="M 0 15 L 0 21"/>
                      <path d="M 7 14 L 9 19"/>
                    </g>
                    <text x="0" y="34" text-anchor="middle" style="fill:#d14859;font:800 12px Inter,sans-serif;letter-spacing:2px">TENDER</text>
                    <text x="0" y="46" text-anchor="middle" style="fill:#b4becf;font:italic 8px Inter,sans-serif">pain on palpation</text>
                  </g>
                  <!-- TR: WARM — thermometer with heat waves -->
                  <g transform="translate(405 52)">
                    <rect x="-3" y="-15" width="6" height="24" rx="2" fill="#e8ecf3" opacity="0.95" stroke="#6b7689" stroke-width="1"/>
                    <rect x="-2" y="-11" width="4" height="17" rx="1" fill="#d14859"/>
                    <circle cx="0" cy="13" r="6" fill="#d14859" opacity="0.9"/>
                    <g stroke="#e8a951" stroke-width="1.6" fill="none" stroke-linecap="round">
                      <path d="M -14 -8 Q -18 -4 -14 1"/>
                      <path d="M -16 4 Q -20 8 -16 12"/>
                      <path d="M 14 -8 Q 18 -4 14 1"/>
                      <path d="M 16 4 Q 20 8 16 12"/>
                    </g>
                    <text x="0" y="34" text-anchor="middle" style="fill:#e8a951;font:800 12px Inter,sans-serif;letter-spacing:2px">WARM</text>
                    <text x="0" y="46" text-anchor="middle" style="fill:#b4becf;font:italic 8px Inter,sans-serif">↑ local perfusion</text>
                  </g>
                  <!-- BL: MOVABLE — bidirectional arrows with rolling node -->
                  <g transform="translate(95 196)">
                    <g stroke="#4fb8a8" stroke-width="2.5" fill="none" stroke-linecap="round">
                      <path d="M -22 -8 L 22 -8"/>
                      <path d="M -22 6 L 22 6"/>
                    </g>
                    <g fill="#4fb8a8">
                      <polygon points="24,-8 17,-13 17,-3"/>
                      <polygon points="-24,-8 -17,-13 -17,-3"/>
                      <polygon points="24,6 17,1 17,11"/>
                      <polygon points="-24,6 -17,1 -17,11"/>
                    </g>
                    <ellipse cx="0" cy="-1" rx="8" ry="5" fill="#4fb8a8" opacity="0.3" stroke="#4fb8a8" stroke-width="1" stroke-dasharray="2 2"/>
                    <text x="0" y="28" text-anchor="middle" style="fill:#4fb8a8;font:800 12px Inter,sans-serif;letter-spacing:2px">MOVABLE</text>
                    <text x="0" y="40" text-anchor="middle" style="fill:#b4becf;font:italic 8px Inter,sans-serif">rolls under fingers</text>
                  </g>
                  <!-- BR: ENLARGED — size comparison (normal vs enlarged) -->
                  <g transform="translate(405 196)">
                    <ellipse cx="-18" cy="0" rx="7" ry="5" fill="none" stroke="#b4becf" stroke-width="1.2" stroke-dasharray="2 2" opacity="0.75"/>
                    <text x="-18" y="-10" text-anchor="middle" style="fill:#b4becf;font:italic 7px Inter,sans-serif">normal</text>
                    <path d="M -9 0 L -1 0" stroke="#9370b9" stroke-width="1.5" fill="none" stroke-dasharray="1 2"/>
                    <polygon points="2,0 -4,-3 -4,3" fill="#9370b9"/>
                    <ellipse cx="16" cy="0" rx="16" ry="11" fill="#9370b9" opacity="0.4" stroke="#9370b9" stroke-width="1.5"/>
                    <text x="0" y="28" text-anchor="middle" style="fill:#9370b9;font:800 12px Inter,sans-serif;letter-spacing:2px">ENLARGED</text>
                    <text x="0" y="40" text-anchor="middle" style="fill:#b4becf;font:italic 8px Inter,sans-serif">&gt; 1 cm</text>
                  </g>
                </svg>
