<?xml version="1.0" encoding="UTF-8"?>
<!--
  Auto-generated from the reference HTML by
  scripts/storymode-extraction/extract.mjs.
  Do not edit by hand — regenerate the file instead.
-->
<svg xmlns="http://www.w3.org/2000/svg" xmlns:xlink="http://www.w3.org/1999/xlink" viewBox="0 0 500 260" preserveAspectRatio="xMidYMid meet">
                  <g transform="translate(70 145)">
                    <circle r="28" fill="#d14859" opacity="0.7" stroke="#a33648" stroke-width="1.3"/>
                    <circle cx="18" cy="10" r="16" fill="#d14859" opacity="0.6" stroke="#a33648" stroke-width="1.3"/>
                    <circle cx="-20" cy="15" r="12" fill="#d14859" opacity="0.5" stroke="#a33648" stroke-width="1.3"/>
                    <text x="0" y="58" text-anchor="middle" style="fill:#d14859;font:700 10px Inter,sans-serif">TUMOR</text>
                  </g>
                  <g transform="translate(230 145)">
                    <rect x="-28" y="-45" width="56" height="90" rx="10" fill="#9370b9" opacity="0.7" stroke="#9370b9" stroke-width="1.5"/>
                    <rect x="-8" y="-55" width="16" height="12" rx="3" fill="#9370b9"/>
                    <rect x="-16" y="-35" width="32" height="8" rx="2" fill="#111826"/>
                    <ellipse cx="0" cy="5" rx="18" ry="10" fill="#111826"/>
                    <text x="0" y="64" text-anchor="middle" style="fill:#9370b9;font:700 10px Inter,sans-serif">CHEMO</text>
                  </g>
                  <g transform="translate(380 100)">
                    <circle r="14" fill="#e8a951" opacity="0.7"/>
                    <circle cx="-4" cy="-2" r="2" fill="#4a2d60"/>
                    <path d="M 14 -6 L 22 -12" stroke="#d14859" stroke-width="1.5"/>
                    <text x="28" y="-10" style="fill:#d14859;font:italic 8px Inter,sans-serif">PMN dies</text>
                  </g>
                  <g transform="translate(380 170)">
                    <ellipse cx="0" cy="0" rx="18" ry="10" fill="#e8a8a0" opacity="0.6"/>
                    <path d="M -14 6 L -20 12 M 14 6 L 20 12" stroke="#d14859" stroke-width="1"/>
                    <text x="28" y="4" style="fill:#d14859;font:italic 8px Inter,sans-serif">gut cells die</text>
                  </g>
                  <g stroke="#9370b9" stroke-width="1.5" fill="none" stroke-dasharray="3 2">
                    <path d="M 260 130 L 355 105"/>
                    <path d="M 260 155 L 355 170"/>
                  </g>
                </svg>
