<?xml version="1.0" encoding="UTF-8"?>
<!--
  Auto-generated from the reference HTML by
  scripts/storymode-extraction/extract.mjs.
  Do not edit by hand — regenerate the file instead.
-->
<svg xmlns="http://www.w3.org/2000/svg" xmlns:xlink="http://www.w3.org/1999/xlink" viewBox="0 0 500 260" preserveAspectRatio="xMidYMid meet">
                  <ellipse cx="250" cy="140" rx="190" ry="65" fill="#d14859" opacity="0.1"/>
                  <ellipse cx="250" cy="140" rx="145" ry="35" fill="#111826" stroke="#d14859" stroke-width="2"/>
                  <g transform="translate(115 112)">
                    <rect x="0" y="0" width="42" height="7" fill="#4fb8a8" opacity="0.85"/>
                    <rect x="55" y="0" width="38" height="7" fill="#4fb8a8" opacity="0.85"/>
                    <rect x="105" y="0" width="42" height="7" fill="#4fb8a8" opacity="0.85"/>
                    <rect x="160" y="0" width="38" height="7" fill="#4fb8a8" opacity="0.85"/>
                    <rect x="210" y="0" width="42" height="7" fill="#4fb8a8" opacity="0.85"/>
                    <rect x="265" y="0" width="30" height="7" fill="#4fb8a8" opacity="0.85"/>
                  </g>
                  <g transform="translate(115 168)">
                    <rect x="0" y="0" width="42" height="7" fill="#4fb8a8" opacity="0.85"/>
                    <rect x="55" y="0" width="38" height="7" fill="#4fb8a8" opacity="0.85"/>
                    <rect x="105" y="0" width="42" height="7" fill="#4fb8a8" opacity="0.85"/>
                    <rect x="160" y="0" width="38" height="7" fill="#4fb8a8" opacity="0.85"/>
                    <rect x="210" y="0" width="42" height="7" fill="#4fb8a8" opacity="0.85"/>
                    <rect x="265" y="0" width="30" height="7" fill="#4fb8a8" opacity="0.85"/>
                  </g>
                  <g fill="#e8a951" opacity="0.85">
                    <circle cx="165" cy="140" r="7"/>
                    <circle cx="210" cy="140" r="7"/>
                    <circle cx="255" cy="140" r="7"/>
                    <circle cx="300" cy="140" r="7"/>
                    <circle cx="345" cy="140" r="7"/>
                  </g>
                  <g fill="#e8a951" opacity="0.85">
                    <circle cx="150" cy="220" r="6"/>
                    <circle cx="190" cy="225" r="6"/>
                    <circle cx="235" cy="230" r="6"/>
                    <circle cx="280" cy="228" r="6"/>
                    <circle cx="325" cy="222" r="6"/>
                    <circle cx="360" cy="218" r="6"/>
                  </g>
                  <g stroke="#e8a951" stroke-width="1.3" fill="none" stroke-dasharray="2 2" opacity="0.7">
                    <path d="M 200 142 L 195 185 L 190 220"/>
                    <path d="M 260 142 L 255 185 L 245 228"/>
                    <path d="M 320 142 L 315 185 L 310 223"/>
                  </g>
                  <text x="250" y="85" text-anchor="middle" style="fill:#4fb8a8;font:italic 10px Inter,sans-serif">vessel leaked</text>
                  <text x="250" y="250" text-anchor="middle" style="fill:#e8a951;font:italic 700 11px Inter,sans-serif;letter-spacing:1.5px">NEXT: THE FLOOD</text>
                </svg>
