<?xml version="1.0" encoding="UTF-8"?>
<!--
  Auto-generated from the reference HTML by
  scripts/storymode-extraction/extract.mjs.
  Do not edit by hand — regenerate the file instead.
-->
<svg xmlns="http://www.w3.org/2000/svg" xmlns:xlink="http://www.w3.org/1999/xlink" viewBox="0 0 500 260" preserveAspectRatio="xMidYMid meet">
                  <g transform="translate(250 145)">
                    <ellipse cx="0" cy="0" rx="115" ry="90" fill="#e8a8a0" opacity="0.35" stroke="#c88a80" stroke-width="1.5"/>
                    <circle r="65" fill="none" stroke="#9370b9" stroke-width="2"/>
                    <g fill="#9370b9" opacity="0.85">
                      <circle cx="-60" cy="0" r="6"/>
                      <circle cx="-50" cy="-32" r="6"/>
                      <circle cx="-25" cy="-55" r="6"/>
                      <circle cx="10" cy="-63" r="6"/>
                      <circle cx="40" cy="-50" r="6"/>
                      <circle cx="58" cy="-25" r="6"/>
                      <circle cx="62" cy="10" r="6"/>
                      <circle cx="50" cy="38" r="6"/>
                      <circle cx="25" cy="58" r="6"/>
                      <circle cx="-10" cy="63" r="6"/>
                      <circle cx="-40" cy="50" r="6"/>
                      <circle cx="-60" cy="25" r="6"/>
                    </g>
                    <g transform="translate(0 0)">
                      <circle r="20" fill="#9370b9" opacity="0.85" stroke="#7a4a9e" stroke-width="1.5"/>
                      <circle cx="-8" cy="-6" r="3" fill="#4a2d60"/>
                      <circle cx="8" cy="-4" r="3" fill="#4a2d60"/>
                      <circle cx="-6" cy="5" r="3" fill="#4a2d60"/>
                      <circle cx="7" cy="7" r="3" fill="#4a2d60"/>
                      <circle cx="0" cy="-2" r="3" fill="#4a2d60"/>
                    </g>
                    <g fill="#4fb8a8" opacity="0.8">
                      <ellipse cx="-85" cy="-30" rx="5" ry="6"/>
                      <ellipse cx="-90" cy="10" rx="5" ry="6"/>
                      <ellipse cx="-70" cy="45" rx="5" ry="6"/>
                      <ellipse cx="0" cy="-88" rx="5" ry="6"/>
                      <ellipse cx="75" cy="-55" rx="5" ry="6"/>
                      <ellipse cx="88" cy="-15" rx="5" ry="6"/>
                      <ellipse cx="80" cy="42" rx="5" ry="6"/>
                      <ellipse cx="45" cy="75" rx="5" ry="6"/>
                      <ellipse cx="-30" cy="82" rx="5" ry="6"/>
                    </g>
                  </g>
                  <g transform="translate(80 70)">
                    <text x="0" y="0" style="fill:#9370b9;font:700 10px Inter,sans-serif;letter-spacing:1px">GRANULOMA</text>
                  </g>
                  <g transform="translate(380 70)">
                    <circle r="5" fill="#9370b9"/>
                    <text x="10" y="3" style="fill:#9370b9;font:italic 8px Inter,sans-serif">macrophage</text>
                    <text x="0" y="18" style="fill:#4fb8a8;font:italic 8px Inter,sans-serif">● lymph rim</text>
                  </g>
                  <g transform="translate(380 235)">
                    <circle r="8" fill="#9370b9" opacity="0.9"/>
                    <text x="-10" y="4" text-anchor="end" style="fill:#9370b9;font:italic 8px Inter,sans-serif">giant cell</text>
                  </g>
                </svg>
