<?xml version="1.0" encoding="UTF-8"?>
<!--
  Auto-generated from the reference HTML by
  scripts/storymode-extraction/extract.mjs.
  Do not edit by hand — regenerate the file instead.
-->
<svg xmlns="http://www.w3.org/2000/svg" xmlns:xlink="http://www.w3.org/1999/xlink" viewBox="0 0 500 260" preserveAspectRatio="xMidYMid meet">
                  <g transform="translate(140 145)">
                    <path d="M -55 -35 Q -50 -45 -30 -48 Q 0 -50 30 -46 Q 55 -40 55 -20 Q 55 0 40 15 Q 15 30 -10 25 Q -40 20 -55 0 Q -60 -20 -55 -35 Z" fill="#e8a8a0" opacity="0.4" stroke="#c88a80" stroke-width="1.3"/>
                    <path d="M -45 -20 L 40 -20 M -45 0 L 40 0" stroke="#c88a80" stroke-width="1" opacity="0.6"/>
                    <g fill="#d14859" opacity="0.9">
                      <circle cx="-30" cy="-15" r="3"/>
                      <circle cx="-10" cy="-18" r="3"/>
                      <circle cx="15" cy="-12" r="3"/>
                      <circle cx="-25" cy="5" r="3"/>
                      <circle cx="0" cy="8" r="3"/>
                      <circle cx="25" cy="3" r="3"/>
                    </g>
                    <text x="0" y="50" text-anchor="middle" style="fill:#b4becf;font:italic 9px Inter,sans-serif">gut mucosa</text>
                  </g>
                  <g fill="#d14859" opacity="0.9">
                    <circle cx="220" cy="135" r="3"/>
                    <circle cx="245" cy="150" r="3"/>
                    <circle cx="270" cy="140" r="3"/>
                    <circle cx="295" cy="155" r="3"/>
                    <circle cx="320" cy="145" r="3"/>
                  </g>
                  <g transform="translate(395 145)">
                    <rect x="-50" y="-20" width="100" height="40" rx="20" fill="#d14859" opacity="0.3" stroke="#d14859" stroke-width="1.5"/>
                    <g fill="#d14859" opacity="0.95">
                      <circle cx="-30" cy="0" r="3"/>
                      <circle cx="-10" cy="-3" r="3"/>
                      <circle cx="10" cy="2" r="3"/>
                      <circle cx="30" cy="-2" r="3"/>
                    </g>
                    <text x="0" y="40" text-anchor="middle" style="fill:#d14859;font:italic 700 9px Inter,sans-serif">bloodstream</text>
                  </g>
                  <g stroke="#d14859" stroke-width="1.5" fill="none" stroke-dasharray="3 2">
                    <path d="M 195 140 Q 270 150 340 145"/>
                    <polygon points="345,145 337,141 337,149" fill="#d14859"/>
                  </g>
                  <g transform="translate(330 75)">
                    <circle r="14" fill="#e8a951" opacity="0.35" stroke="#e8a951" stroke-width="1.3" stroke-dasharray="2 2"/>
                    <path d="M -6 -6 L 6 6 M 6 -6 L -6 6" stroke="#6b7689" stroke-width="2"/>
                    <text x="-24" y="4" text-anchor="end" style="fill:#6b7689;font:italic 8px Inter,sans-serif">no PMNs</text>
                  </g>
                </svg>
