<?xml version="1.0" encoding="UTF-8"?>
<!--
  Auto-generated from the reference HTML by
  scripts/storymode-extraction/extract.mjs.
  Do not edit by hand — regenerate the file instead.
-->
<svg xmlns="http://www.w3.org/2000/svg" xmlns:xlink="http://www.w3.org/1999/xlink" viewBox="0 0 500 260" preserveAspectRatio="xMidYMid meet">
                  <g transform="translate(250 145)">
                    <circle r="70" fill="#9370b9" opacity="0.85" stroke="#7a4a9e" stroke-width="2"/>
                    <circle cx="-18" cy="-18" r="6" fill="#4a2d60"/>
                    <circle cx="18" cy="18" r="6" fill="#4a2d60"/>
                    <g transform="translate(5 -5)">
                      <g opacity="0.45">
                        <ellipse cx="0" cy="0" rx="15" ry="5" fill="#6b7689" stroke="#6b7689" stroke-width="1.3" stroke-dasharray="2 2"/>
                      </g>
                      <path d="M -18 -8 L 18 8 M 18 -8 L -18 8" stroke="#d14859" stroke-width="3"/>
                    </g>
                    <g fill="#e8a951" opacity="0.85">
                      <circle cx="-35" cy="-30" r="3"/>
                      <circle cx="40" cy="-25" r="3"/>
                      <circle cx="-25" cy="40" r="3"/>
                      <circle cx="35" cy="35" r="3"/>
                      <circle cx="-45" cy="5" r="3"/>
                      <circle cx="50" cy="-5" r="3"/>
                      <circle cx="-30" cy="-40" r="3"/>
                    </g>
                    <g stroke="#e8a951" stroke-width="1.3" fill="none" opacity="0.7">
                      <path d="M -60 -45 L -50 -40"/>
                      <path d="M 60 -45 L 50 -40"/>
                      <path d="M -60 45 L -50 40"/>
                      <path d="M 60 45 L 50 40"/>
                    </g>
                  </g>
                  <g transform="translate(420 80)">
                    <text x="0" y="0" text-anchor="end" style="fill:#e8a951;font:700 10px Inter,sans-serif">ROS + NO</text>
                    <text x="0" y="12" text-anchor="end" style="fill:#d14859;font:italic 700 9px Inter,sans-serif">✗ bug killed</text>
                  </g>
                </svg>
