<?xml version="1.0" encoding="UTF-8"?>
<!--
  Auto-generated from the reference HTML by
  scripts/storymode-extraction/extract.mjs.
  Do not edit by hand — regenerate the file instead.
-->
<svg xmlns="http://www.w3.org/2000/svg" xmlns:xlink="http://www.w3.org/1999/xlink" viewBox="0 0 500 260" preserveAspectRatio="xMidYMid meet">
                  <line x1="60" y1="220" x2="450" y2="220" stroke="#6b7689" stroke-width="1.5"/>
                  <line x1="60" y1="60" x2="60" y2="220" stroke="#6b7689" stroke-width="1.5"/>
                  <line x1="60" y1="130" x2="450" y2="130" stroke="#6b7689" stroke-width="1" stroke-dasharray="3 2" opacity="0.5"/>
                  <g>
                    <rect x="95" y="60" width="45" height="160" fill="#d14859" opacity="0.6"/>
                    <text x="117" y="238" text-anchor="middle" style="fill:#d14859;font:700 9px Inter,sans-serif">RBC</text>
                  </g>
                  <g>
                    <rect x="170" y="60" width="45" height="160" fill="#4fb8a8" opacity="0.6"/>
                    <text x="192" y="238" text-anchor="middle" style="fill:#4fb8a8;font:700 9px Inter,sans-serif">Plt</text>
                  </g>
                  <g>
                    <rect x="245" y="60" width="45" height="160" fill="#9370b9" opacity="0.6"/>
                    <text x="267" y="238" text-anchor="middle" style="fill:#9370b9;font:700 9px Inter,sans-serif">Lymph</text>
                  </g>
                  <g>
                    <rect x="320" y="195" width="45" height="25" fill="#e8a951" opacity="0.6"/>
                    <path d="M 335 185 L 342 175 L 349 185" stroke="#e8a951" stroke-width="2.5" fill="none"/>
                    <path d="M 335 170 L 342 160 L 349 170" stroke="#e8a951" stroke-width="2.5" fill="none"/>
                    <path d="M 335 155 L 342 145 L 349 155" stroke="#e8a951" stroke-width="2.5" fill="none"/>
                    <text x="342" y="238" text-anchor="middle" style="fill:#e8a951;font:700 9px Inter,sans-serif">Neut</text>
                  </g>
                  <g transform="translate(420 100)">
                    <circle r="14" fill="#e8a951" opacity="0.8" stroke="#a87b3c" stroke-width="1.3"/>
                    <circle cx="-4" cy="-3" r="2.5" fill="#4a2d60"/>
                    <circle cx="3" cy="3" r="2.5" fill="#4a2d60"/>
                    <text x="0" y="34" text-anchor="middle" style="fill:#e8a951;font:italic 700 9px Inter,sans-serif">neut only</text>
                  </g>
                  <text x="200" y="50" text-anchor="middle" style="fill:#e8a951;font:italic 700 10px Inter,sans-serif">only neut down</text>
                </svg>
