<?xml version="1.0" encoding="UTF-8"?>
<!--
  Auto-generated from the reference HTML by
  scripts/storymode-extraction/extract.mjs.
  Do not edit by hand — regenerate the file instead.
-->
<svg xmlns="http://www.w3.org/2000/svg" xmlns:xlink="http://www.w3.org/1999/xlink" viewBox="0 0 500 260" preserveAspectRatio="xMidYMid meet">
                  <g transform="translate(80 145)">
                    <circle r="22" fill="#d14859" opacity="0.6" stroke="#a33648" stroke-width="1.3"/>
                    <circle cx="-8" cy="-6" r="4" fill="#4a2d60"/>
                  </g>
                  <g transform="translate(160 145)">
                    <rect x="-8" y="-50" width="16" height="100" fill="#4fb8a8" opacity="0.35" stroke="#4fb8a8" stroke-width="1.3"/>
                    <g fill="#9370b9" opacity="0.8">
                      <circle cx="-18" cy="-30" r="7"/>
                      <circle cx="18" cy="-10" r="7"/>
                      <circle cx="-16" cy="10" r="7"/>
                      <circle cx="20" cy="30" r="7"/>
                    </g>
                    <text x="0" y="70" text-anchor="middle" style="fill:#4fb8a8;font:italic 700 9px Inter,sans-serif">sinusoid</text>
                    <text x="0" y="82" text-anchor="middle" style="fill:#9370b9;font:italic 9px Inter,sans-serif">macrophages</text>
                  </g>
                  <g transform="translate(260 145)">
                    <ellipse cx="0" cy="0" rx="18" ry="22" fill="#d14859" opacity="0.6" stroke="#a33648" stroke-width="1.3"/>
                    <circle cx="-6" cy="-4" r="3" fill="#4a2d60" opacity="0.5"/>
                    <g transform="translate(24 -8)">
                      <circle r="4" fill="#4a2d60"/>
                      <path d="M -5 0 L -12 0" stroke="#9370b9" stroke-width="1.5" stroke-dasharray="2 2"/>
                    </g>
                  </g>
                  <g transform="translate(380 145)">
                    <circle r="20" fill="#d14859" opacity="0.5" stroke="#a33648" stroke-width="1.3"/>
                  </g>
                  <g stroke="#6b7689" stroke-width="1" fill="none" stroke-dasharray="3 2">
                    <line x1="105" y1="145" x2="142" y2="145"/>
                    <polygon points="145,145 138,141 138,149" fill="#6b7689"/>
                    <line x1="180" y1="145" x2="235" y2="145"/>
                    <polygon points="238,145 231,141 231,149" fill="#6b7689"/>
                    <line x1="285" y1="145" x2="355" y2="145"/>
                    <polygon points="358,145 351,141 351,149" fill="#6b7689"/>
                  </g>
                  <text x="250" y="230" text-anchor="middle" style="fill:#e8ecf3;font:italic 600 10px Fraunces,serif">squeeze → pluck → clean RBC exits</text>
                </svg>
