<?xml version="1.0" encoding="UTF-8"?>
<!--
  Auto-generated from the reference HTML by
  scripts/storymode-extraction/extract.mjs.
  Do not edit by hand — regenerate the file instead.
-->
<svg xmlns="http://www.w3.org/2000/svg" xmlns:xlink="http://www.w3.org/1999/xlink" viewBox="0 0 500 260" preserveAspectRatio="xMidYMid meet">
                  <g transform="translate(250 145)">
                    <path d="M -70 -45 Q -80 -20 -70 15 Q -55 40 -25 55 Q 0 60 25 55 Q 55 40 70 15 Q 80 -20 70 -45 Q 0 -60 -70 -45" fill="#e8a8a0" opacity="0.3" stroke="#c88a80" stroke-width="1.3"/>
                    <circle cx="-20" cy="-15" r="12" fill="none" stroke="#9370b9" stroke-width="1.5"/>
                    <g fill="#9370b9" opacity="0.8">
                      <circle cx="-22" cy="-22" r="2.5"/>
                      <circle cx="-28" cy="-15" r="2.5"/>
                      <circle cx="-22" cy="-8" r="2.5"/>
                      <circle cx="-14" cy="-15" r="2.5"/>
                      <circle cx="-14" cy="-22" r="2.5"/>
                    </g>
                    <circle cx="15" cy="10" r="14" fill="none" stroke="#9370b9" stroke-width="1.5"/>
                    <g fill="#9370b9" opacity="0.8">
                      <circle cx="13" cy="2" r="2.5"/>
                      <circle cx="7" cy="10" r="2.5"/>
                      <circle cx="13" cy="18" r="2.5"/>
                      <circle cx="23" cy="13" r="2.5"/>
                      <circle cx="20" cy="4" r="2.5"/>
                    </g>
                    <circle cx="30" cy="-25" r="10" fill="none" stroke="#9370b9" stroke-width="1.5"/>
                    <g fill="#9370b9" opacity="0.8">
                      <circle cx="28" cy="-30" r="2"/>
                      <circle cx="22" cy="-22" r="2"/>
                      <circle cx="36" cy="-22" r="2"/>
                      <circle cx="33" cy="-30" r="2"/>
                    </g>
                  </g>
                  <text x="250" y="235" text-anchor="middle" style="fill:#e8a951;font:italic 700 10px Inter,sans-serif">lung with sterile granulomas?</text>
                </svg>
