<?xml version="1.0" encoding="UTF-8"?>
<!--
  Auto-generated from the reference HTML by
  scripts/storymode-extraction/extract.mjs.
  Do not edit by hand — regenerate the file instead.
-->
<svg xmlns="http://www.w3.org/2000/svg" xmlns:xlink="http://www.w3.org/1999/xlink" viewBox="0 0 500 260" preserveAspectRatio="xMidYMid meet">
                  <text x="20" y="38" style="fill:#e8a951;font:600 10px Inter,sans-serif;letter-spacing:2px">UBIQUITIN + PROTEASOME → IκB DESTROYED</text>
                  <g transform="translate(95 155)">
                    <path d="M -24 -28 Q 32 -32 36 0 Q 32 28 -24 25 Z" fill="#9370b9" opacity="0.5" stroke="#9370b9" stroke-width="2"/>
                    <text x="6" y="4" text-anchor="middle" style="fill:#e8ecf3;font:700 13px Inter,sans-serif">IκB</text>
                    <g transform="translate(-14 -34)">
                      <circle r="8" fill="#e8a951"/>
                      <text x="0" y="3" text-anchor="middle" style="fill:#0a0e1a;font:700 10px Inter,sans-serif">P</text>
                    </g>
                    <g transform="translate(22 -32)">
                      <circle r="7" fill="#d14859"/>
                      <text x="0" y="3" text-anchor="middle" style="fill:#0a0e1a;font:700 8px Inter,sans-serif">Ub</text>
                    </g>
                    <g transform="translate(38 -18)">
                      <circle r="7" fill="#d14859"/>
                      <text x="0" y="3" text-anchor="middle" style="fill:#0a0e1a;font:700 8px Inter,sans-serif">Ub</text>
                    </g>
                    <g transform="translate(45 2)">
                      <circle r="7" fill="#d14859"/>
                      <text x="0" y="3" text-anchor="middle" style="fill:#0a0e1a;font:700 8px Inter,sans-serif">Ub</text>
                    </g>
                  </g>
                  <text x="95" y="105" text-anchor="middle" style="fill:#e8a951;font:600 10px Inter,sans-serif">P + Ub tags</text>
                  <path d="M 165 155 Q 225 155 275 155" stroke="#6b7689" stroke-width="1.3" stroke-dasharray="3 3" fill="none"/>
                  <polygon points="280,155 272,151 272,159" fill="#6b7689"/>
                  <text x="220" y="140" text-anchor="middle" style="fill:#6b7689;font:italic 10px Inter,sans-serif">shipped for destruction</text>
                  <g transform="translate(365 155)">
                    <rect x="-38" y="-44" width="76" height="88" rx="8" fill="#111826" stroke="#d14859" stroke-width="2"/>
                    <line x1="-38" y1="-22" x2="38" y2="-22" stroke="#d14859" stroke-width="1" opacity="0.6"/>
                    <line x1="-38" y1="0" x2="38" y2="0" stroke="#d14859" stroke-width="1" opacity="0.6"/>
                    <line x1="-38" y1="22" x2="38" y2="22" stroke="#d14859" stroke-width="1" opacity="0.6"/>
                    <ellipse cx="0" cy="-44" rx="38" ry="8" fill="#0a0e1a" stroke="#d14859" stroke-width="2"/>
                    <text x="0" y="-2" text-anchor="middle" style="fill:#d14859;font:700 9px Inter,sans-serif;letter-spacing:1px">PROTE-</text>
                    <text x="0" y="10" text-anchor="middle" style="fill:#d14859;font:700 9px Inter,sans-serif;letter-spacing:1px">ASOME</text>
                    <g transform="translate(0 58)">
                      <circle cx="-12" cy="0" r="2" fill="#9370b9" opacity="0.5"/>
                      <circle cx="0" cy="5" r="2" fill="#9370b9" opacity="0.5"/>
                      <circle cx="12" cy="-2" r="2" fill="#9370b9" opacity="0.5"/>
                      <circle cx="-6" cy="8" r="1.5" fill="#9370b9" opacity="0.4"/>
                      <circle cx="6" cy="8" r="1.5" fill="#9370b9" opacity="0.4"/>
                    </g>
                  </g>
                  <text x="365" y="245" text-anchor="middle" style="fill:#6b7689;font:italic 10px Inter,sans-serif">IκB fragments</text>
                </svg>
