<?xml version="1.0" encoding="UTF-8"?>
<!--
  Auto-generated from the reference HTML by
  scripts/storymode-extraction/extract.mjs.
  Do not edit by hand — regenerate the file instead.
-->
<svg xmlns="http://www.w3.org/2000/svg" xmlns:xlink="http://www.w3.org/1999/xlink" viewBox="0 0 500 260" preserveAspectRatio="xMidYMid meet">
                  <g transform="translate(140 145)">
                    <ellipse cx="0" cy="0" rx="70" ry="55" fill="#e8a8a0" opacity="0.6" stroke="#c88a80" stroke-width="1.5"/>
                    <ellipse cx="0" cy="0" rx="45" ry="30" fill="#e8a951" opacity="0.5" stroke="#e8a951" stroke-width="1.5"/>
                    <g fill="#e8a951" opacity="0.9">
                      <circle cx="-20" cy="-10" r="4"/>
                      <circle cx="10" cy="-15" r="4"/>
                      <circle cx="-10" cy="15" r="4"/>
                      <circle cx="15" cy="10" r="4"/>
                      <circle cx="0" cy="0" r="4"/>
                    </g>
                    <text x="0" y="72" text-anchor="middle" style="fill:#e8a951;font:700 10px Inter,sans-serif;letter-spacing:1px">PYOGENIC</text>
                  </g>
                  <g transform="translate(370 145)">
                    <ellipse cx="0" cy="0" rx="70" ry="55" fill="#e8a8a0" opacity="0.6" stroke="#c88a80" stroke-width="1.5"/>
                    <circle r="40" fill="none" stroke="#9370b9" stroke-width="2"/>
                    <g fill="#9370b9" opacity="0.85">
                      <circle cx="-30" cy="0" r="5"/>
                      <circle cx="-20" cy="-22" r="5"/>
                      <circle cx="0" cy="-32" r="5"/>
                      <circle cx="20" cy="-22" r="5"/>
                      <circle cx="30" cy="0" r="5"/>
                      <circle cx="20" cy="22" r="5"/>
                      <circle cx="0" cy="32" r="5"/>
                      <circle cx="-20" cy="22" r="5"/>
                    </g>
                    <text x="0" y="72" text-anchor="middle" style="fill:#9370b9;font:700 10px Inter,sans-serif;letter-spacing:1px">GRANULOMATOUS</text>
                  </g>
                  <text x="250" y="65" text-anchor="middle" style="fill:#e8ecf3;font:italic 600 12px Fraunces,serif">two different cellular stories</text>
                </svg>
