<?xml version="1.0" encoding="UTF-8"?>
<!--
  Auto-generated from the reference HTML by
  scripts/storymode-extraction/extract.mjs.
  Do not edit by hand — regenerate the file instead.
-->
<svg xmlns="http://www.w3.org/2000/svg" xmlns:xlink="http://www.w3.org/1999/xlink" viewBox="0 0 500 260" preserveAspectRatio="xMidYMid meet">
                  <g transform="translate(135 145)">
                    <path d="M -40 -30 Q -50 -10 -45 15 Q -30 30 -10 30 Q 10 30 25 25 Q 40 10 38 -10 Q 30 -30 10 -35 Q -15 -38 -40 -30" fill="#e8a8a0" opacity="0.6" stroke="#c88a80" stroke-width="1.3"/>
                    <g fill="#d14859" opacity="0.95">
                      <circle cx="-20" cy="-10" r="3"/>
                      <circle cx="-10" cy="-5" r="3"/>
                      <circle cx="-5" cy="5" r="3"/>
                      <circle cx="5" cy="-8" r="3"/>
                      <circle cx="10" cy="10" r="3"/>
                      <circle cx="15" cy="-2" r="3"/>
                      <circle cx="-25" cy="15" r="3"/>
                      <circle cx="20" cy="18" r="3"/>
                    </g>
                    <g stroke="#d14859" stroke-width="1.3" fill="none">
                      <path d="M -25 -25 Q -10 -20 -5 -30"/>
                      <path d="M 15 -25 Q 25 -18 20 -28"/>
                    </g>
                    <text x="0" y="52" text-anchor="middle" style="fill:#d14859;font:700 10px Inter,sans-serif">SHINGLES</text>
                    <text x="0" y="64" text-anchor="middle" style="fill:#b4becf;font:italic 8px Inter,sans-serif">VZV reactivation</text>
                  </g>
                  <g transform="translate(365 145)">
                    <path d="M -35 -30 Q -45 -10 -40 10 Q -25 28 -5 30 Q 15 30 30 20 Q 40 5 35 -15 Q 25 -32 5 -35 Q -15 -35 -35 -30" fill="#e8a8a0" opacity="0.4" stroke="#c88a80" stroke-width="1.3"/>
                    <g transform="translate(-10 -8)">
                      <circle r="15" fill="none" stroke="#9370b9" stroke-width="1.5"/>
                      <circle r="8" fill="#6b7689" opacity="0.75"/>
                      <g fill="#9370b9" opacity="0.7">
                        <circle cx="-14" cy="0" r="3"/>
                        <circle cx="14" cy="0" r="3"/>
                        <circle cx="0" cy="-14" r="3"/>
                      </g>
                    </g>
                    <text x="0" y="52" text-anchor="middle" style="fill:#d14859;font:700 10px Inter,sans-serif">TB</text>
                    <text x="0" y="64" text-anchor="middle" style="fill:#b4becf;font:italic 8px Inter,sans-serif">latent → active</text>
                  </g>
                </svg>
