<?xml version="1.0" encoding="UTF-8"?>
<!--
  Auto-generated from the reference HTML by
  scripts/storymode-extraction/extract.mjs.
  Do not edit by hand — regenerate the file instead.
-->
<svg xmlns="http://www.w3.org/2000/svg" xmlns:xlink="http://www.w3.org/1999/xlink" viewBox="0 0 500 260" preserveAspectRatio="xMidYMid meet">
                  <line x1="0" y1="75" x2="500" y2="75" stroke="#4fb8a8" stroke-width="2.5" opacity="0.7"/>
                  <line x1="0" y1="185" x2="500" y2="185" stroke="#4fb8a8" stroke-width="2.5" opacity="0.7"/>
                  <rect x="0" y="75" width="500" height="110" fill="#4fb8a8" opacity="0.04"/>
                  <text x="20" y="40" style="fill:#e8a951;font:600 10px Inter,sans-serif;letter-spacing:2px">INSIDE THE BLOOD VESSEL</text>
                  <text x="480" y="208" text-anchor="end" style="fill:#6b7689;font:10px Inter,sans-serif;letter-spacing:1.5px">VESSEL WALL (endothelium)</text>
                  <g><line x1="35" y1="108" x2="85" y2="108" stroke="#e8a951" stroke-width="1.5" opacity="0.35"/><line x1="50" y1="115" x2="90" y2="115" stroke="#e8a951" stroke-width="1" opacity="0.25"/><circle cx="105" cy="112" r="13" fill="#e8a951" opacity="0.9" stroke="#a87b3c"/><circle cx="102" cy="110" r="2.6" fill="#4a2d60"/><circle cx="108" cy="114" r="2.6" fill="#4a2d60"/></g>
                  <g><line x1="160" y1="142" x2="210" y2="142" stroke="#e8a951" stroke-width="1.5" opacity="0.35"/><line x1="175" y1="150" x2="215" y2="150" stroke="#e8a951" stroke-width="1" opacity="0.25"/><circle cx="230" cy="146" r="13" fill="#e8a951" opacity="0.9" stroke="#a87b3c"/><circle cx="227" cy="144" r="2.6" fill="#4a2d60"/><circle cx="233" cy="148" r="2.6" fill="#4a2d60"/></g>
                  <g><line x1="285" y1="118" x2="335" y2="118" stroke="#e8a951" stroke-width="1.5" opacity="0.35"/><circle cx="355" cy="122" r="13" fill="#e8a951" opacity="0.9" stroke="#a87b3c"/><circle cx="352" cy="120" r="2.6" fill="#4a2d60"/><circle cx="358" cy="124" r="2.6" fill="#4a2d60"/></g>
                  <g><line x1="400" y1="150" x2="440" y2="150" stroke="#e8a951" stroke-width="1.5" opacity="0.35"/><circle cx="460" cy="154" r="13" fill="#e8a951" opacity="0.9" stroke="#a87b3c"/><circle cx="457" cy="152" r="2.6" fill="#4a2d60"/><circle cx="463" cy="156" r="2.6" fill="#4a2d60"/></g>
                  <g transform="translate(20 240)"><line x1="0" y1="0" x2="450" y2="0" stroke="#6b7689" stroke-width="1" stroke-dasharray="4 4"/><polygon points="460,0 452,-5 452,5" fill="#6b7689"/></g>
                  <text x="250" y="228" text-anchor="middle" style="fill:#b4becf;font:italic 12px Inter,sans-serif">racing → never stops</text>
                </svg>
