<?xml version="1.0" encoding="UTF-8"?>
<!--
  Auto-generated from the reference HTML by
  scripts/storymode-extraction/extract.mjs.
  Do not edit by hand — regenerate the file instead.
-->
<svg xmlns="http://www.w3.org/2000/svg" xmlns:xlink="http://www.w3.org/1999/xlink" viewBox="0 0 500 260" preserveAspectRatio="xMidYMid meet">
                  <text x="20" y="24" style="fill:#e8a951;font:600 10px Inter,sans-serif;letter-spacing:2px">INTEGRIN + ICAM-1 — FIRM GRIP</text>
                  <!-- Endothelium baseline -->
                  <line x1="0" y1="200" x2="500" y2="200" stroke="#4fb8a8" stroke-width="2.5" opacity="0.7"/>
                  <rect x="0" y="200" width="500" height="20" fill="#4fb8a8" opacity="0.12"/>
                  <text x="20" y="216" style="fill:#4fb8a8;font:700 9px Inter,sans-serif;letter-spacing:1.5px">ENDOTHELIUM</text>

                  <!-- Neutrophil body at top (rounded, with nucleus) -->
                  <g transform="translate(250 70)">
                    <path d="M -75 0 Q -80 -35 -40 -40 Q 0 -44 40 -40 Q 80 -35 75 0 L 55 0 Q 55 -5 45 -5 L -45 -5 Q -55 -5 -55 0 Z"
                          fill="#e8a951" opacity="0.78" stroke="#a87b3c" stroke-width="1.5"/>
                    <!-- Nucleus lobes inside -->
                    <g fill="#4a2d60" opacity="0.8">
                      <ellipse cx="-30" cy="-22" rx="9" ry="6"/>
                      <ellipse cx="-5" cy="-28" rx="8" ry="5"/>
                      <ellipse cx="25" cy="-20" rx="9" ry="6"/>
                    </g>
                  </g>
                  <!-- NEUTROPHIL label moved to the LEFT of the cell to clear the diagram title and nucleus lobes -->
                  <text x="148" y="62" text-anchor="end" style="fill:#e8a951;font:800 11px Inter,sans-serif;letter-spacing:1.5px">NEUTROPHIL</text>
                  <text x="148" y="74" text-anchor="end" style="fill:#b4becf;font:italic 8px Inter,sans-serif">stationary · activated</text>
                  <line x1="152" y1="66" x2="175" y2="66" stroke="#e8a951" stroke-width="0.7" opacity="0.65" stroke-dasharray="2 2"/>

                  <!-- Integrin extending DOWN from neutrophil -->
                  <g transform="translate(250 70)">
                    <!-- Stem (two-subunit, color split: CD11 and CD18) -->
                    <rect x="-4" y="0" width="8" height="28" fill="#c88a40" opacity="0.95" stroke="#a87b3c" stroke-width="0.6"/>
                    <rect x="-4" y="28" width="8" height="28" fill="#e8a951" opacity="0.95" stroke="#a87b3c" stroke-width="0.6"/>
                    <!-- Head (gripping end) -->
                    <path d="M -9 56 Q 0 48 9 56 L 7 66 L -7 66 Z" fill="#e8a951" stroke="#a87b3c" stroke-width="0.8"/>
                  </g>

                  <!-- Subunit labels on integrin -->
                  <g transform="translate(290 95)">
                    <line x1="-28" y1="0" x2="-40" y2="0" stroke="#c88a40" stroke-width="0.7" opacity="0.7"/>
                    <text x="-26" y="3" style="fill:#c88a40;font:italic 700 8px Inter,sans-serif">CD11 (α)</text>
                  </g>
                  <g transform="translate(290 123)">
                    <line x1="-28" y1="0" x2="-40" y2="0" stroke="#e8a951" stroke-width="0.7" opacity="0.7"/>
                    <text x="-26" y="3" style="fill:#e8a951;font:italic 700 8px Inter,sans-serif">CD18 (β2)</text>
                  </g>

                  <!-- INTEGRIN label on right side -->
                  <text x="360" y="96" style="fill:#e8a951;font:800 11px Inter,sans-serif;letter-spacing:1px">INTEGRIN</text>
                  <text x="360" y="108" style="fill:#b4becf;font:italic 9px Inter,sans-serif">LFA-1 / Mac-1</text>
                  <text x="360" y="119" style="fill:#6b7689;font:italic 8px Inter,sans-serif">(active conformation)</text>

                  <!-- ICAM-1 extending UP from endothelium -->
                  <g transform="translate(250 200)">
                    <!-- Stem -->
                    <rect x="-3.5" y="-30" width="7" height="30" fill="#e8a951" opacity="0.92" stroke="#a87b3c" stroke-width="0.6"/>
                    <!-- Y-shape head (two-arm) -->
                    <path d="M -4 -38 Q -10 -42 -10 -48 L -7 -48 Q -4 -42 0 -40 Q 4 -42 7 -48 L 10 -48 Q 10 -42 4 -38 L 4 -30 L -4 -30 Z"
                          fill="#e8a951" stroke="#a87b3c" stroke-width="0.6"/>
                  </g>

                  <!-- ICAM-1 label -->
                  <text x="140" y="175" text-anchor="end" style="fill:#e8a951;font:800 11px Inter,sans-serif;letter-spacing:1px">ICAM-1</text>
                  <text x="140" y="187" text-anchor="end" style="fill:#b4becf;font:italic 9px Inter,sans-serif">on endothelium</text>

                  <!-- Grip zone highlight (overlap of integrin head + ICAM-1 head) -->
                  <g transform="translate(250 147)">
                    <circle r="18" fill="#e8a951" opacity="0.18"/>
                    <circle r="18" fill="none" stroke="#e8a951" stroke-width="1.3" stroke-dasharray="3 2" opacity="0.8"/>
                  </g>
                  <!-- FIRM GRIP label pointing to the zone -->
                  <line x1="275" y1="147" x2="305" y2="147" stroke="#e8a951" stroke-width="0.8" stroke-dasharray="2 2" opacity="0.65"/>
                  <g transform="translate(360 147)">
                    <rect x="-35" y="-11" width="70" height="22" rx="11" fill="#e8a951" opacity="0.25" stroke="#e8a951" stroke-width="1.3"/>
                    <text x="0" y="4" text-anchor="middle" style="fill:#e8a951;font:800 10px Inter,sans-serif;letter-spacing:1.5px">FIRM GRIP</text>
                  </g>

                  <text x="250" y="245" text-anchor="middle" style="fill:#b4becf;font:italic 9px Inter,sans-serif">activated integrin + ICAM-1 = cell stops · no more rolling</text>
                </svg>
