<?xml version="1.0" encoding="UTF-8"?>
<!--
  Auto-generated from the reference HTML by
  scripts/storymode-extraction/extract.mjs.
  Do not edit by hand — regenerate the file instead.
-->
<svg xmlns="http://www.w3.org/2000/svg" xmlns:xlink="http://www.w3.org/1999/xlink" viewBox="0 0 500 260" preserveAspectRatio="xMidYMid meet">
                  <g transform="translate(130 145)">
                    <circle r="32" fill="#9370b9" opacity="0.75" stroke="#7a4a9e" stroke-width="1.3"/>
                    <circle cx="-8" cy="-6" r="4" fill="#4a2d60"/>
                    <g fill="#e8a951" opacity="0.85">
                      <path d="M 28 -15 L 40 -25 L 36 -15 L 44 -8 L 38 -4 L 44 2 L 34 0" fill="#e8a951"/>
                    </g>
                    <text x="0" y="52" text-anchor="middle" style="fill:#9370b9;font:italic 700 9px Inter,sans-serif">macrophage</text>
                    <text x="0" y="64" text-anchor="middle" style="fill:#b4becf;font:italic 8px Inter,sans-serif">1-α-hydroxylase</text>
                  </g>
                  <g transform="translate(250 80)">
                    <rect x="-30" y="-12" width="60" height="24" rx="4" fill="#4fb8a8" opacity="0.7" stroke="#4fb8a8" stroke-width="1"/>
                    <text x="0" y="4" text-anchor="middle" style="fill:#0a0e1a;font:700 10px Inter,sans-serif">1,25-D</text>
                    <path d="M 0 16 L 0 30" stroke="#4fb8a8" stroke-width="2"/>
                    <polygon points="0,34 -4,28 4,28" fill="#4fb8a8"/>
                  </g>
                  <g transform="translate(370 145)">
                    <circle r="22" fill="#e8a951" opacity="0.7" stroke="#a87b3c" stroke-width="1.3"/>
                    <text x="0" y="4" text-anchor="middle" style="fill:#0a0e1a;font:700 11px Inter,sans-serif">Ca²⁺</text>
                    <g transform="translate(30 -25)">
                      <path d="M 0 0 L 0 -14" stroke="#d14859" stroke-width="2"/>
                      <polygon points="0,-16 -4,-10 4,-10" fill="#d14859"/>
                      <path d="M 0 -14 L 0 -22" stroke="#d14859" stroke-width="2"/>
                      <polygon points="0,-24 -4,-18 4,-18" fill="#d14859"/>
                    </g>
                  </g>
                  <g transform="translate(250 210)">
                    <rect x="-35" y="-12" width="70" height="24" rx="4" fill="#d14859" opacity="0.5" stroke="#d14859" stroke-width="1.3"/>
                    <text x="0" y="4" text-anchor="middle" style="fill:#e8ecf3;font:700 11px Inter,sans-serif">ACE ↑</text>
                  </g>
                  <g stroke="#6b7689" stroke-width="1" fill="none" stroke-dasharray="3 2">
                    <path d="M 160 130 Q 200 100 230 85"/>
                    <polygon points="231,87 225,80 233,80" fill="#6b7689"/>
                    <path d="M 275 90 Q 310 110 345 135"/>
                    <polygon points="347,137 339,133 345,128" fill="#6b7689"/>
                    <path d="M 155 160 Q 195 200 225 210"/>
                    <polygon points="228,210 220,206 222,214" fill="#6b7689"/>
                  </g>
                </svg>
