<?xml version="1.0" encoding="UTF-8"?>
<!--
  Auto-generated from the reference HTML by
  scripts/storymode-extraction/extract.mjs.
  Do not edit by hand — regenerate the file instead.
-->
<svg xmlns="http://www.w3.org/2000/svg" xmlns:xlink="http://www.w3.org/1999/xlink" viewBox="0 0 500 280" preserveAspectRatio="xMidYMid meet">
                  <text x="20" y="24" style="fill:#e8a951;font:600 10px Inter,sans-serif;letter-spacing:2px">POST-CAPILLARY VENULE · ENDOTHELIAL GAPS</text>

                  <!-- Tiny "where in the circulation" callout on the left -->
                  <g transform="translate(30 58)">
                    <text x="0" y="0" style="fill:#b4becf;font:600 8px Inter,sans-serif;letter-spacing:1.5px">LOCATION IN THE CIRCULATION</text>
                    <g transform="translate(0 22)">
                      <!-- arteriole -->
                      <rect x="0" y="8" width="24" height="10" rx="2" fill="#d14859" opacity="0.7"/>
                      <text x="12" y="30" text-anchor="middle" style="fill:#6b7689;font:italic 7px Inter,sans-serif">arteriole</text>
                      <line x1="27" y1="13" x2="37" y2="13" stroke="#6b7689" stroke-width="0.8"/>
                      <polygon points="40,13 35,11 35,15" fill="#6b7689"/>
                      <!-- capillary -->
                      <rect x="43" y="10" width="24" height="6" rx="1" fill="#6b7689" opacity="0.7"/>
                      <text x="55" y="30" text-anchor="middle" style="fill:#6b7689;font:italic 7px Inter,sans-serif">capillary</text>
                      <line x1="70" y1="13" x2="80" y2="13" stroke="#6b7689" stroke-width="0.8"/>
                      <polygon points="83,13 78,11 78,15" fill="#6b7689"/>
                      <!-- venule — highlighted (with a down-arrow cue above it) -->
                      <polygon points="98,-2 104,-8 110,-2" fill="#e8a951" opacity="0.6"/>
                      <rect x="86" y="6" width="30" height="14" rx="2" fill="#e8a951" opacity="0.95"/>
                      <text x="101" y="16" text-anchor="middle" style="fill:#0a0e1a;font:700 8px Inter,sans-serif">VENULE</text>
                      <text x="101" y="30" text-anchor="middle" style="fill:#e8a951;font:italic 700 7px Inter,sans-serif">venule</text>
                      <line x1="119" y1="13" x2="129" y2="13" stroke="#6b7689" stroke-width="0.8"/>
                      <polygon points="132,13 127,11 127,15" fill="#6b7689"/>
                      <!-- vein -->
                      <rect x="135" y="5" width="32" height="16" rx="2" fill="#6b7689" opacity="0.7"/>
                      <text x="151" y="30" text-anchor="middle" style="fill:#6b7689;font:italic 7px Inter,sans-serif">vein</text>
                    </g>
                  </g>
                  <text x="470" y="60" text-anchor="end" style="fill:#6b7689;font:italic 8px Inter,sans-serif">only venules have the gap-opening response</text>

                  <!-- Vessel cross-section (the zoom-in) -->
                  <text x="30" y="120" style="fill:#b4becf;font:600 8px Inter,sans-serif;letter-spacing:1.5px">ZOOMED IN ↓</text>

                  <!-- Vessel lumen -->
                  <rect x="40" y="130" width="420" height="80" rx="10" fill="#4fb8a8" opacity="0.12" stroke="#4fb8a8" stroke-width="1.5"/>
                  <text x="455" y="172" text-anchor="end" style="fill:#6b7689;font:italic 8px Inter,sans-serif">lumen</text>

                  <!-- Flow arrow inside lumen -->
                  <g transform="translate(50 170)">
                    <line x1="0" y1="0" x2="16" y2="0" stroke="#4fb8a8" stroke-width="1.3"/>
                    <polygon points="20,0 14,-4 14,4" fill="#4fb8a8"/>
                    <text x="0" y="-7" style="fill:#4fb8a8;font:italic 7px Inter,sans-serif">flow</text>
                  </g>

                  <!-- Top endothelial row (retracted — gaps visible) -->
                  <g transform="translate(75 130)">
                    <rect x="0" y="0" width="42" height="10" fill="#4fb8a8" opacity="0.85"/>
                    <rect x="58" y="0" width="42" height="10" fill="#4fb8a8" opacity="0.85"/>
                    <rect x="116" y="0" width="42" height="10" fill="#4fb8a8" opacity="0.85"/>
                    <rect x="174" y="0" width="42" height="10" fill="#4fb8a8" opacity="0.85"/>
                    <rect x="232" y="0" width="42" height="10" fill="#4fb8a8" opacity="0.85"/>
                    <rect x="290" y="0" width="42" height="10" fill="#4fb8a8" opacity="0.85"/>
                    <rect x="348" y="0" width="42" height="10" fill="#4fb8a8" opacity="0.85"/>
                  </g>
                  <!-- Bottom endothelial row -->
                  <g transform="translate(75 200)">
                    <rect x="0" y="0" width="42" height="10" fill="#4fb8a8" opacity="0.85"/>
                    <rect x="58" y="0" width="42" height="10" fill="#4fb8a8" opacity="0.85"/>
                    <rect x="116" y="0" width="42" height="10" fill="#4fb8a8" opacity="0.85"/>
                    <rect x="174" y="0" width="42" height="10" fill="#4fb8a8" opacity="0.85"/>
                    <rect x="232" y="0" width="42" height="10" fill="#4fb8a8" opacity="0.85"/>
                    <rect x="290" y="0" width="42" height="10" fill="#4fb8a8" opacity="0.85"/>
                    <rect x="348" y="0" width="42" height="10" fill="#4fb8a8" opacity="0.85"/>
                  </g>

                  <!-- Gap markers between top cells -->
                  <g stroke="#e8a951" stroke-width="1.8" fill="none">
                    <line x1="124" y1="127" x2="124" y2="143"/>
                    <line x1="182" y1="127" x2="182" y2="143"/>
                    <line x1="240" y1="127" x2="240" y2="143"/>
                    <line x1="298" y1="127" x2="298" y2="143"/>
                    <line x1="356" y1="127" x2="356" y2="143"/>
                  </g>
                  <text x="240" y="122" text-anchor="middle" style="fill:#e8a951;font:italic 700 9px Inter,sans-serif">gaps between cells</text>

                  <!-- RBCs inside vessel -->
                  <g fill="#d14859" opacity="0.78" stroke="#a33648" stroke-width="0.6">
                    <ellipse cx="130" cy="158" rx="8" ry="5"/>
                    <ellipse cx="200" cy="180" rx="8" ry="5"/>
                    <ellipse cx="275" cy="165" rx="8" ry="5"/>
                    <ellipse cx="350" cy="183" rx="8" ry="5"/>
                    <ellipse cx="415" cy="168" rx="8" ry="5"/>
                  </g>

                  <text x="250" y="243" text-anchor="middle" style="fill:#b4becf;font:italic 10px Inter,sans-serif">actin/myosin contracts → cells retract → gaps open</text>
                  <text x="250" y="260" text-anchor="middle" style="fill:#6b7689;font:italic 9px Inter,sans-serif">cells don't die — they pull apart</text>
                </svg>
