<?xml version="1.0" encoding="UTF-8"?>
<!--
  Auto-generated from the reference HTML by
  scripts/storymode-extraction/extract.mjs.
  Do not edit by hand — regenerate the file instead.
-->
<svg xmlns="http://www.w3.org/2000/svg" xmlns:xlink="http://www.w3.org/1999/xlink" viewBox="0 0 500 260" preserveAspectRatio="xMidYMid meet">
                  <text x="20" y="24" style="fill:#e8a951;font:600 10px Inter,sans-serif;letter-spacing:2px">DEMARGINATION — WALL PMNs REJOIN FLOW</text>
                  <rect x="40" y="95" width="420" height="90" rx="12" fill="#4fb8a8" opacity="0.12" stroke="#4fb8a8" stroke-width="1.3"/>
                  <line x1="40" y1="105" x2="460" y2="105" stroke="#4fb8a8" stroke-width="1.5"/>
                  <line x1="40" y1="175" x2="460" y2="175" stroke="#4fb8a8" stroke-width="1.5"/>
                  <g fill="#e8a951" opacity="0.7">
                    <circle cx="90" cy="115" r="7"/>
                    <circle cx="150" cy="113" r="7"/>
                    <circle cx="210" cy="116" r="7"/>
                    <circle cx="270" cy="114" r="7"/>
                    <circle cx="330" cy="116" r="7"/>
                    <circle cx="390" cy="113" r="7"/>
                    <circle cx="120" cy="167" r="7"/>
                    <circle cx="180" cy="168" r="7"/>
                    <circle cx="240" cy="166" r="7"/>
                    <circle cx="300" cy="168" r="7"/>
                    <circle cx="360" cy="166" r="7"/>
                    <circle cx="420" cy="168" r="7"/>
                  </g>
                  <g fill="#e8a951" opacity="0.9">
                    <circle cx="130" cy="140" r="7"/>
                    <circle cx="210" cy="145" r="7"/>
                    <circle cx="290" cy="138" r="7"/>
                    <circle cx="370" cy="143" r="7"/>
                  </g>
                  <g fill="#e8a951" opacity="0.4">
                    <path d="M 150 122 Q 145 130 135 135" stroke="#e8a951" stroke-width="1" fill="none" stroke-dasharray="2 2"/>
                    <path d="M 270 121 Q 265 130 250 140" stroke="#e8a951" stroke-width="1" fill="none" stroke-dasharray="2 2"/>
                    <path d="M 330 123 Q 335 130 345 138" stroke="#e8a951" stroke-width="1" fill="none" stroke-dasharray="2 2"/>
                  </g>
                  <text x="250" y="215" text-anchor="middle" style="fill:#b4becf;font:italic 10px Inter,sans-serif">wall-adherent cells → midstream circulation</text>
                  <text x="250" y="235" text-anchor="middle" style="fill:#e8a951;font:italic 700 10px Inter,sans-serif">WBC count jumps immediately</text>
                </svg>
