<?xml version="1.0" encoding="UTF-8"?>
<!--
  Auto-generated from the reference HTML by
  scripts/storymode-extraction/extract.mjs.
  Do not edit by hand — regenerate the file instead.
-->
<svg xmlns="http://www.w3.org/2000/svg" xmlns:xlink="http://www.w3.org/1999/xlink" viewBox="0 0 500 260" preserveAspectRatio="xMidYMid meet">
                  <g transform="translate(130 145)">
                    <rect x="-40" y="-45" width="80" height="90" rx="10" fill="#9370b9" opacity="0.5" stroke="#7a4a9e" stroke-width="1.5"/>
                    <g transform="translate(0 -15)">
                      <line x1="-20" y1="0" x2="20" y2="0" stroke="#e8a951" stroke-width="2"/>
                      <line x1="0" y1="-20" x2="0" y2="20" stroke="#e8a951" stroke-width="2"/>
                      <circle cx="-15" cy="-10" r="3" fill="#d14859"/>
                      <circle cx="12" cy="8" r="3" fill="#d14859"/>
                      <text x="0" y="42" text-anchor="middle" style="fill:#d14859;font:italic 700 9px Inter,sans-serif">ELANE / HAX1</text>
                    </g>
                  </g>
                  <g transform="translate(280 145)">
                    <ellipse cx="0" cy="0" rx="55" ry="40" fill="#d14859" opacity="0.2" stroke="#d14859" stroke-width="1.5" stroke-dasharray="3 2"/>
                    <g fill="#e8a951" opacity="0.3">
                      <circle cx="-20" cy="-10" r="4"/>
                      <circle cx="15" cy="10" r="4"/>
                    </g>
                    <text x="0" y="54" text-anchor="middle" style="fill:#d14859;font:italic 700 9px Inter,sans-serif">maturation arrest</text>
                    <text x="0" y="66" text-anchor="middle" style="fill:#b4becf;font:italic 8px Inter,sans-serif">at promyelocyte</text>
                  </g>
                  <g transform="translate(415 145)">
                    <rect x="-35" y="-20" width="70" height="40" rx="20" fill="#111826" stroke="#4fb8a8" stroke-width="1.3"/>
                    <circle cx="0" cy="0" r="3" fill="#e8a951" opacity="0.5"/>
                    <text x="0" y="38" text-anchor="middle" style="fill:#d14859;font:italic 700 9px Inter,sans-serif">ANC &lt; 200</text>
                  </g>
                  <g stroke="#6b7689" stroke-width="1" fill="none" stroke-dasharray="3 2">
                    <line x1="175" y1="145" x2="220" y2="145"/>
                    <polygon points="223,145 215,141 215,149" fill="#6b7689"/>
                    <line x1="340" y1="145" x2="375" y2="145"/>
                    <polygon points="378,145 370,141 370,149" fill="#6b7689"/>
                  </g>
                </svg>
