<?xml version="1.0" encoding="UTF-8"?>
<!--
  Auto-generated from the reference HTML by
  scripts/storymode-extraction/extract.mjs.
  Do not edit by hand — regenerate the file instead.
-->
<svg xmlns="http://www.w3.org/2000/svg" xmlns:xlink="http://www.w3.org/1999/xlink" viewBox="0 0 500 260" preserveAspectRatio="xMidYMid meet">
                  <text x="20" y="24" style="fill:#e8a951;font:600 10px Inter,sans-serif;letter-spacing:2px">STEP 3 — MYELOPEROXIDASE (MPO)</text>
                  <g transform="translate(80 150)">
                    <rect x="-35" y="-18" width="70" height="36" rx="5" fill="#e8a951"/>
                    <text x="0" y="3" text-anchor="middle" style="fill:#0a0e1a;font:700 14px Inter,sans-serif">H₂O₂</text>
                  </g>
                  <g transform="translate(80 208)">
                    <rect x="-28" y="-15" width="56" height="26" rx="4" fill="#4fb8a8" opacity="0.85"/>
                    <text x="0" y="4" text-anchor="middle" style="fill:#0a0e1a;font:700 12px Inter,sans-serif">Cl⁻</text>
                    <text x="0" y="24" text-anchor="middle" style="fill:#4fb8a8;font:italic 9px Inter,sans-serif">chloride</text>
                  </g>
                  <g transform="translate(250 170)">
                    <circle r="34" fill="#111826" stroke="#e8a951" stroke-width="2.3"/>
                    <text x="0" y="4" text-anchor="middle" style="fill:#e8a951;font:700 14px Inter,sans-serif">MPO</text>
                    <text x="0" y="-50" text-anchor="middle" style="fill:#e8a951;font:600 10px Inter,sans-serif">myeloperoxidase</text>
                  </g>
                  <line x1="120" y1="150" x2="212" y2="160" stroke="#e8a951" stroke-width="1.5"/>
                  <polygon points="217,161 208,158 211,166" fill="#e8a951"/>
                  <line x1="115" y1="208" x2="215" y2="180" stroke="#4fb8a8" stroke-width="1.5"/>
                  <polygon points="220,179 211,179 214,187" fill="#4fb8a8"/>
                  <line x1="290" y1="170" x2="370" y2="170" stroke="#e8a951" stroke-width="1.5"/>
                  <polygon points="375,170 367,166 367,174" fill="#e8a951"/>
                  <g transform="translate(420 170)">
                    <rect x="-40" y="-20" width="80" height="40" rx="5" fill="#e8a951"/>
                    <text x="0" y="4" text-anchor="middle" style="fill:#0a0e1a;font:700 14px Inter,sans-serif">HOCl</text>
                    <text x="0" y="-30" text-anchor="middle" style="fill:#e8a951;font:italic 700 10px Inter,sans-serif">BLEACH</text>
                  </g>
                </svg>
