<?xml version="1.0" encoding="UTF-8"?>
<!--
  Auto-generated from the reference HTML by
  scripts/storymode-extraction/extract.mjs.
  Do not edit by hand — regenerate the file instead.
-->
<svg xmlns="http://www.w3.org/2000/svg" xmlns:xlink="http://www.w3.org/1999/xlink" viewBox="0 0 500 260" preserveAspectRatio="xMidYMid meet">
                  <text x="20" y="32" style="fill:#e8a951;font:600 10px Inter,sans-serif;letter-spacing:2px">KILL MECHANISM</text>
                  <g transform="translate(110 150)">
                    <circle cx="0" cy="0" r="36" fill="#4fb8a8" opacity="0.4" stroke="#4fb8a8" stroke-width="1.5"/>
                    <ellipse cx="-8" cy="-6" rx="10" ry="8" fill="#2a5a52" opacity="0.85"/>
                    <text x="0" y="56" text-anchor="middle" style="fill:#4fb8a8;font:600 10px Inter,sans-serif">NK</text>
                  </g>
                  <g fill="#e8a951" opacity="0.9">
                    <circle cx="180" cy="140" r="3"/><circle cx="195" cy="148" r="3"/>
                    <circle cx="210" cy="144" r="3"/><circle cx="225" cy="150" r="3"/>
                  </g>
                  <text x="202" y="120" text-anchor="middle" style="fill:#e8a951;font:600 9.5px Inter,sans-serif">perforin</text>
                  <g fill="#d14859" opacity="0.9">
                    <rect x="180" y="165" width="8" height="3"/><rect x="195" y="170" width="8" height="3"/>
                    <rect x="215" y="165" width="8" height="3"/>
                  </g>
                  <text x="202" y="185" text-anchor="middle" style="fill:#d14859;font:600 9.5px Inter,sans-serif">granzymes</text>
                  <g transform="translate(360 150)">
                    <circle cx="0" cy="0" r="42" fill="#d14859" opacity="0.3" stroke="#d14859" stroke-width="1.5" stroke-dasharray="3 2"/>
                    <circle cx="0" cy="-10" r="4" fill="#0a0e1a"/>
                    <text x="0" y="-6" text-anchor="middle" style="fill:#e8a951;font:700 7px Inter,sans-serif">PORE</text>
                    <g stroke="#d14859" stroke-width="1" fill="none">
                      <path d="M -20 15 L -5 10"/><path d="M 20 15 L 5 10"/><path d="M -15 -20 L -3 -8"/>
                    </g>
                    <text x="0" y="60" text-anchor="middle" style="fill:#d14859;font:600 10px Inter,sans-serif">target</text>
                    <text x="0" y="74" text-anchor="middle" style="fill:#6b7689;font:italic 9px Inter,sans-serif">→ apoptosis</text>
                  </g>
                  <text x="250" y="240" text-anchor="middle" style="fill:#b4becf;font:italic 10px Inter,sans-serif">clean, controlled death — no virus spilled, no cytokine storm</text>
                </svg>
