<?xml version="1.0" encoding="UTF-8"?>
<!--
  Auto-generated from the reference HTML by
  scripts/storymode-extraction/extract.mjs.
  Do not edit by hand — regenerate the file instead.
-->
<svg xmlns="http://www.w3.org/2000/svg" xmlns:xlink="http://www.w3.org/1999/xlink" viewBox="0 0 500 260" preserveAspectRatio="xMidYMid meet">
                  <g transform="translate(90 125)">
                    <ellipse cx="0" cy="0" rx="36" ry="26" fill="#e8a8a0" opacity="0.4"/>
                    <path d="M -20 -15 Q 0 -8 20 -15 Q 25 0 18 12 Q 0 18 -15 13 Q -25 0 -20 -15 Z" fill="#d14859" opacity="0.6" stroke="#d14859" stroke-width="1.5"/>
                    <path d="M -12 -2 Q 0 4 12 -2" stroke="#0a0e1a" stroke-width="2" fill="none" opacity="0.7"/>
                    <text x="0" y="46" text-anchor="middle" style="fill:#4fb8a8;font:700 9px Inter,sans-serif">LEAK</text>
                  </g>
                  <g transform="translate(195 125)">
                    <ellipse cx="0" cy="0" rx="36" ry="26" fill="#e8a8a0" opacity="0.4"/>
                    <path d="M -20 -15 Q 0 -8 20 -15 Q 25 0 18 12 Q 0 18 -15 13 Q -25 0 -20 -15 Z" fill="#d14859" opacity="0.5" stroke="#d14859" stroke-width="1.5"/>
                    <g fill="#e8a951" opacity="0.9">
                      <circle cx="-8" cy="-2" r="4"/>
                      <circle cx="5" cy="2" r="4"/>
                      <circle cx="-2" cy="8" r="4"/>
                      <circle cx="10" cy="-4" r="3"/>
                      <circle cx="-12" cy="6" r="3"/>
                    </g>
                    <text x="0" y="46" text-anchor="middle" style="fill:#e8a951;font:700 9px Inter,sans-serif">FLOOD</text>
                  </g>
                  <g transform="translate(300 125)">
                    <ellipse cx="0" cy="0" rx="36" ry="26" fill="#e8a8a0" opacity="0.4"/>
                    <path d="M -22 -15 Q -25 -5 -18 8 Q 0 18 15 15 Q 28 0 20 -12 Q 10 -20 -5 -18 Q -18 -20 -22 -15 Z" fill="#d14859" opacity="0.5" stroke="#d14859" stroke-width="1.5" stroke-dasharray="2 2"/>
                    <g stroke="#d14859" stroke-width="1.3" fill="none">
                      <path d="M -14 -10 L -10 -4 L -16 -2"/>
                      <path d="M 10 -8 L 14 -2 L 8 0"/>
                      <path d="M 0 8 L 4 14 L -2 16"/>
                    </g>
                    <text x="0" y="46" text-anchor="middle" style="fill:#d14859;font:700 9px Inter,sans-serif">DAMAGE</text>
                  </g>
                  <g transform="translate(405 125)">
                    <ellipse cx="0" cy="0" rx="36" ry="26" fill="#e8a8a0" opacity="0.6"/>
                    <path d="M -22 -6 Q 0 0 22 -6" stroke="#9370b9" stroke-width="2" fill="none"/>
                    <g stroke="#9370b9" stroke-width="1.3" fill="none" opacity="0.7">
                      <path d="M -12 -4 L -12 -12"/>
                      <path d="M 0 -3 L 0 -11"/>
                      <path d="M 12 -4 L 12 -12"/>
                    </g>
                    <text x="0" y="46" text-anchor="middle" style="fill:#9370b9;font:700 9px Inter,sans-serif">REPAIR</text>
                  </g>
                  <g stroke="#6b7689" stroke-width="1" fill="none">
                    <line x1="128" y1="125" x2="157" y2="125"/>
                    <line x1="233" y1="125" x2="262" y2="125"/>
                    <line x1="338" y1="125" x2="367" y2="125"/>
                  </g>
                  <g transform="translate(250 215)">
                    <path d="M -140 0 L 140 0" stroke="#e8a951" stroke-width="2"/>
                    <polygon points="145,0 135,-5 135,5" fill="#e8a951"/>
                    <text x="0" y="-6" text-anchor="middle" style="fill:#e8a951;font:700 11px Inter,sans-serif;letter-spacing:1.5px">CHAPTER 3</text>
                  </g>
                </svg>
