<?xml version="1.0" encoding="UTF-8"?>
<!--
  Auto-generated from the reference HTML by
  scripts/storymode-extraction/extract.mjs.
  Do not edit by hand — regenerate the file instead.
-->
<svg xmlns="http://www.w3.org/2000/svg" xmlns:xlink="http://www.w3.org/1999/xlink" viewBox="0 0 500 260" preserveAspectRatio="xMidYMid meet">
                  <g transform="translate(140 145)">
                    <path d="M -30 -45 Q -42 -25 -38 5 Q -32 30 -20 50 Q 0 60 20 50 Q 32 30 38 5 Q 42 -25 30 -45 Q 0 -55 -30 -45" fill="#e8a8a0" opacity="0.55" stroke="#c88a80" stroke-width="1.3"/>
                    <ellipse cx="-10" cy="18" rx="6" ry="5" fill="#0a0e1a"/>
                    <ellipse cx="10" cy="18" rx="6" ry="5" fill="#0a0e1a"/>
                    <g opacity="0.35">
                      <g fill="#d14859">
                        <circle cx="-10" cy="14" r="2.5"/>
                        <circle cx="-7" cy="16" r="2.5"/>
                        <circle cx="10" cy="14" r="2.5"/>
                        <circle cx="13" cy="16" r="2.5"/>
                      </g>
                    </g>
                    <path d="M -35 15 L 35 15" stroke="#4fb8a8" stroke-width="2" stroke-dasharray="3 2" opacity="0.6"/>
                  </g>
                  <g transform="translate(330 100)">
                    <rect x="-30" y="-10" width="60" height="20" rx="4" fill="#4fb8a8" opacity="0.8" stroke="#4fb8a8" stroke-width="1.3"/>
                    <rect x="-8" y="-18" width="16" height="10" rx="2" fill="#4fb8a8" opacity="0.7"/>
                    <path d="M -22 0 L -30 0 M 22 0 L 30 0 M -15 -5 L -20 -10 M 15 -5 L 20 -10 M -15 5 L -20 10 M 15 5 L 20 10" stroke="#4fb8a8" stroke-width="1.3"/>
                    <text x="0" y="32" text-anchor="middle" style="fill:#4fb8a8;font:700 10px Inter,sans-serif">MUPIROCIN</text>
                    <text x="0" y="44" text-anchor="middle" style="fill:#b4becf;font:italic 8px Inter,sans-serif">intranasal, 5 days</text>
                  </g>
                  <g stroke="#4fb8a8" stroke-width="2" fill="none" stroke-dasharray="3 2">
                    <path d="M 290 115 Q 250 130 195 140"/>
                    <polygon points="193,142 200,137 200,145" fill="#4fb8a8"/>
                  </g>
                  <g transform="translate(350 185)">
                    <text x="0" y="0" text-anchor="middle" style="fill:#4fb8a8;font:italic 700 10px Inter,sans-serif">pre-op prophylaxis</text>
                  </g>
                </svg>
