<?xml version="1.0" encoding="UTF-8"?>
<!--
  Auto-generated from the reference HTML by
  scripts/storymode-extraction/extract.mjs.
  Do not edit by hand — regenerate the file instead.
-->
<svg xmlns="http://www.w3.org/2000/svg" xmlns:xlink="http://www.w3.org/1999/xlink" viewBox="0 0 500 260" preserveAspectRatio="xMidYMid meet">
                  <g transform="translate(140 145)">
                    <g stroke="#e8a951" stroke-width="3" fill="none">
                      <path d="M -18 -20 L 0 -5 L 18 -20"/>
                      <path d="M 0 -5 L 0 15"/>
                    </g>
                    <g stroke="#e8a951" stroke-width="3" fill="none" transform="translate(30 8)">
                      <path d="M -18 -20 L 0 -5 L 18 -20"/>
                      <path d="M 0 -5 L 0 15"/>
                    </g>
                    <g fill="#d14859" opacity="0.85">
                      <ellipse cx="50" cy="25" rx="10" ry="4"/>
                    </g>
                    <text x="0" y="55" text-anchor="middle" style="fill:#e8a951;font:700 10px Inter,sans-serif">ANTIBODIES</text>
                    <text x="0" y="68" text-anchor="middle" style="fill:#b4becf;font:italic 8px Inter,sans-serif">extracellular</text>
                  </g>
                  <g transform="translate(360 145)">
                    <ellipse cx="0" cy="0" rx="24" ry="32" fill="#4fb8a8" opacity="0.7" stroke="#4fb8a8" stroke-width="1.5"/>
                    <circle cx="-4" cy="-7" r="5" fill="#111826"/>
                    <g fill="#d14859" opacity="0.85">
                      <circle cx="55" cy="0" r="6"/>
                      <ellipse cx="45" cy="18" rx="10" ry="4"/>
                    </g>
                    <path d="M 26 -5 L 45 0 M 26 5 L 40 15" stroke="#d14859" stroke-width="1.3" stroke-dasharray="2 2" opacity="0.7"/>
                    <text x="0" y="52" text-anchor="middle" style="fill:#4fb8a8;font:700 10px Inter,sans-serif">T CELLS</text>
                    <text x="0" y="65" text-anchor="middle" style="fill:#b4becf;font:italic 8px Inter,sans-serif">intracellular</text>
                  </g>
                  <path d="M 205 145 L 295 145" stroke="#6b7689" stroke-width="1" stroke-dasharray="4 3"/>
                  <text x="250" y="140" text-anchor="middle" style="fill:#e8ecf3;font:italic 600 11px Fraunces,serif">vs</text>
                </svg>
