<?xml version="1.0" encoding="UTF-8"?>
<!--
  Auto-generated from the reference HTML by
  scripts/storymode-extraction/extract.mjs.
  Do not edit by hand — regenerate the file instead.
-->
<svg xmlns="http://www.w3.org/2000/svg" xmlns:xlink="http://www.w3.org/1999/xlink" viewBox="0 0 500 260" preserveAspectRatio="xMidYMid meet">
                  <g transform="translate(60 160)">
                    <line x1="0" y1="0" x2="380" y2="0" stroke="#4fb8a8" stroke-width="2"/>
                    <polygon points="385,0 378,-5 378,5" fill="#4fb8a8"/>
                  </g>
                  <g transform="translate(85 160)">
                    <g fill="#d14859">
                      <circle cx="-18" cy="-30" r="4"/>
                      <circle cx="-10" cy="-45" r="4"/>
                      <circle cx="2" cy="-35" r="4"/>
                      <circle cx="14" cy="-42" r="4"/>
                      <circle cx="-12" cy="-15" r="4"/>
                      <circle cx="8" cy="-22" r="4"/>
                      <circle cx="20" cy="-30" r="4"/>
                      <circle cx="-22" cy="-55" r="3"/>
                      <circle cx="18" cy="-60" r="3"/>
                      <circle cx="25" cy="-48" r="3"/>
                      <circle cx="-30" cy="-25" r="3"/>
                      <circle cx="30" cy="-15" r="3"/>
                    </g>
                    <circle r="5" fill="#d14859" stroke="#d14859" stroke-width="2"/>
                    <text x="0" y="20" text-anchor="middle" style="fill:#d14859;font:700 11px Inter,sans-serif;letter-spacing:1px">HISTAMINE</text>
                    <text x="0" y="33" text-anchor="middle" style="fill:#d14859;font:italic 700 9px Inter,sans-serif">← INSTANT</text>
                  </g>
                  <g transform="translate(220 160)">
                    <g fill="#6b7689" opacity="0.55">
                      <circle cx="-4" cy="-22" r="3"/>
                      <circle cx="6" cy="-18" r="3"/>
                    </g>
                    <circle r="4" fill="#6b7689" opacity="0.6"/>
                    <text x="0" y="20" text-anchor="middle" style="fill:#6b7689;font:italic 9px Inter,sans-serif">bradykinin</text>
                    <text x="0" y="32" text-anchor="middle" style="fill:#6b7689;font:italic 8px Inter,sans-serif">min</text>
                  </g>
                  <g transform="translate(340 160)">
                    <g fill="#6b7689" opacity="0.4">
                      <circle cx="-3" cy="-14" r="2.5"/>
                    </g>
                    <circle r="3" fill="#6b7689" opacity="0.5"/>
                    <text x="0" y="20" text-anchor="middle" style="fill:#6b7689;font:italic 9px Inter,sans-serif">PGs, LTs</text>
                    <text x="0" y="32" text-anchor="middle" style="fill:#6b7689;font:italic 8px Inter,sans-serif">hours</text>
                  </g>
                  <g transform="translate(60 200)">
                    <text x="0" y="0" style="fill:#6b7689;font:italic 9px Inter,sans-serif">time →</text>
                  </g>
                </svg>
