<?xml version="1.0" encoding="UTF-8"?>
<!--
  Auto-generated from the reference HTML by
  scripts/storymode-extraction/extract.mjs.
  Do not edit by hand — regenerate the file instead.
-->
<svg xmlns="http://www.w3.org/2000/svg" xmlns:xlink="http://www.w3.org/1999/xlink" viewBox="0 0 500 260" preserveAspectRatio="xMidYMid meet">
                  <text x="20" y="38" style="fill:#e8a951;font:600 10px Inter,sans-serif;letter-spacing:2px">ONE EVENT → ENTIRE INFLAMMATORY RESPONSE</text>
                  <g transform="translate(90 145)">
                    <circle cx="0" cy="0" r="38" fill="#e8a951" opacity="0.15"/>
                    <circle cx="0" cy="0" r="24" fill="#e8a951" opacity="0.08"/>
                    <path d="M -13 8 Q -15 -20 -6 -32 Q 0 -38 6 -32 Q 15 -20 13 8" stroke="#e8a951" stroke-width="2.8" fill="none"/>
                    <ellipse cx="0" cy="-14" rx="3.5" ry="2.5" fill="#e8a951"/>
                    <line x1="0" y1="8" x2="0" y2="22" stroke="#e8a951" stroke-width="2.2"/>
                    <ellipse cx="0" cy="28" rx="7" ry="5" fill="#e8a951" opacity="0.5" stroke="#e8a951" stroke-width="1.5"/>
                    <text x="0" y="60" text-anchor="middle" style="fill:#e8a951;font:700 12px Inter,sans-serif">TLR4 + LPS</text>
                  </g>
                  <line x1="135" y1="130" x2="225" y2="90" stroke="#e8a951" stroke-width="1.3" stroke-dasharray="3 3"/>
                  <polygon points="230,88 221,86 224,94" fill="#e8a951"/>
                  <line x1="135" y1="142" x2="225" y2="140" stroke="#e8a951" stroke-width="1.3" stroke-dasharray="3 3"/>
                  <polygon points="230,140 222,136 222,144" fill="#e8a951"/>
                  <line x1="135" y1="155" x2="225" y2="185" stroke="#e8a951" stroke-width="1.3" stroke-dasharray="3 3"/>
                  <polygon points="230,187 222,181 221,190" fill="#e8a951"/>
                  <line x1="135" y1="168" x2="225" y2="225" stroke="#e8a951" stroke-width="1.3" stroke-dasharray="3 3"/>
                  <polygon points="230,227 222,220 220,229" fill="#e8a951"/>
                  <g>
                    <rect x="232" y="78" width="246" height="24" rx="5" fill="#111826" stroke="#e8a951" stroke-width="1"/>
                    <text x="355" y="94" text-anchor="middle" style="fill:#e8ecf3;font:600 11px Inter,sans-serif">Cytokines · TNF · IL-1 · IL-6</text>
                  </g>
                  <g>
                    <rect x="232" y="128" width="246" height="24" rx="5" fill="#111826" stroke="#4fb8a8" stroke-width="1"/>
                    <text x="355" y="144" text-anchor="middle" style="fill:#e8ecf3;font:600 11px Inter,sans-serif">Vessels open · selectins appear</text>
                  </g>
                  <g>
                    <rect x="232" y="178" width="246" height="24" rx="5" fill="#111826" stroke="#e8a951" stroke-width="1"/>
                    <text x="355" y="194" text-anchor="middle" style="fill:#e8ecf3;font:600 11px Inter,sans-serif">Neutrophils recruited</text>
                  </g>
                  <g>
                    <rect x="232" y="220" width="246" height="24" rx="5" fill="#111826" stroke="#d14859" stroke-width="1"/>
                    <text x="355" y="236" text-anchor="middle" style="fill:#e8ecf3;font:600 11px Inter,sans-serif">Fever · systemic response</text>
                  </g>
                </svg>
