<?xml version="1.0" encoding="UTF-8"?>
<!--
  Auto-generated from the reference HTML by
  scripts/storymode-extraction/extract.mjs.
  Do not edit by hand — regenerate the file instead.
-->
<svg xmlns="http://www.w3.org/2000/svg" xmlns:xlink="http://www.w3.org/1999/xlink" viewBox="0 0 500 260" preserveAspectRatio="xMidYMid meet">
                  <g transform="translate(100 140)">
                    <rect x="-50" y="-30" width="100" height="60" rx="10" fill="#e8a8a0" opacity="0.3" stroke="#c88a80" stroke-width="1.3"/>
                    <path d="M -30 -5 L 30 -5 M -30 10 L 30 10" stroke="#c88a80" stroke-width="1.5"/>
                    <text x="0" y="46" text-anchor="middle" style="fill:#6b7689;font:italic 9px Inter,sans-serif">wound</text>
                    <circle cx="35" cy="-30" r="10" fill="#4fb8a8" opacity="0.6"/>
                    <path d="M 29 -30 L 41 -30 M 35 -36 L 35 -24" stroke="#4fb8a8" stroke-width="2"/>
                  </g>
                  <g transform="translate(215 140)">
                    <path d="M -10 -30 Q -20 -15 -18 0 Q -15 20 0 30 Q 15 20 18 0 Q 20 -15 10 -30 Q 0 -35 -10 -30" fill="#e8a8a0" opacity="0.35" stroke="#c88a80" stroke-width="1.3"/>
                    <text x="0" y="55" text-anchor="middle" style="fill:#6b7689;font:italic 9px Inter,sans-serif">lungs</text>
                    <circle cx="25" cy="-30" r="10" fill="#4fb8a8" opacity="0.6"/>
                    <path d="M 19 -30 L 31 -30 M 25 -36 L 25 -24" stroke="#4fb8a8" stroke-width="2"/>
                  </g>
                  <g transform="translate(330 140)">
                    <ellipse cx="0" cy="0" rx="25" ry="20" fill="#e8a8a0" opacity="0.35" stroke="#c88a80" stroke-width="1.3"/>
                    <text x="0" y="42" text-anchor="middle" style="fill:#6b7689;font:italic 9px Inter,sans-serif">bladder</text>
                    <circle cx="30" cy="-25" r="10" fill="#4fb8a8" opacity="0.6"/>
                    <path d="M 24 -25 L 36 -25 M 30 -31 L 30 -19" stroke="#4fb8a8" stroke-width="2"/>
                  </g>
                  <g transform="translate(440 125)">
                    <path d="M -15 -20 Q -22 -5 -18 12 Q -10 22 0 22 Q 10 22 18 12 Q 22 -5 15 -20 Q 0 -28 -15 -20" fill="#e8a8a0" opacity="0.7" stroke="#d14859" stroke-width="2"/>
                    <g fill="#d14859" opacity="0.95">
                      <circle cx="-4" cy="5" r="2.5"/>
                      <circle cx="0" cy="7" r="2.5"/>
                      <circle cx="4" cy="5" r="2.5"/>
                      <circle cx="-2" cy="10" r="2.5"/>
                    </g>
                    <circle cx="22" cy="-22" r="12" fill="#d14859" opacity="0.3" stroke="#d14859" stroke-width="2"/>
                    <text x="22" y="-20" text-anchor="middle" style="fill:#d14859;font:700 9px Inter,sans-serif">!</text>
                    <text x="0" y="50" text-anchor="middle" style="fill:#d14859;font:700 10px Inter,sans-serif;letter-spacing:1px">NOSE</text>
                  </g>
                </svg>
