<?xml version="1.0" encoding="UTF-8"?>
<!--
  Auto-generated from the reference HTML by
  scripts/storymode-extraction/extract.mjs.
  Do not edit by hand — regenerate the file instead.
-->
<svg xmlns="http://www.w3.org/2000/svg" xmlns:xlink="http://www.w3.org/1999/xlink" viewBox="0 0 500 260" preserveAspectRatio="xMidYMid meet">
                  <text x="20" y="24" style="fill:#e8a951;font:600 10px Inter,sans-serif;letter-spacing:2px">CHEMOKINES ARRIVE FROM THE TISSUE</text>

                  <!-- Zone labels -->
                  <text x="20" y="48" style="fill:#6b7689;font:10px Inter,sans-serif;letter-spacing:1.5px">LUMEN (vessel)</text>

                  <!-- Endothelium band -->
                  <rect x="0" y="155" width="500" height="20" fill="#4fb8a8" opacity="0.14" stroke="#4fb8a8" stroke-width="1.8"/>
                  <text x="260" y="169" style="fill:#4fb8a8;font:700 9px Inter,sans-serif;letter-spacing:1.5px">ENDOTHELIUM</text>
                  <!-- Endothelial cells (teal with nuclei) -->
                  <g fill="#4fb8a8" opacity="0.55">
                    <ellipse cx="60" cy="165" rx="10" ry="4"/>
                    <ellipse cx="150" cy="165" rx="10" ry="4"/>
                    <ellipse cx="245" cy="165" rx="10" ry="4"/>
                    <ellipse cx="340" cy="165" rx="10" ry="4"/>
                    <ellipse cx="435" cy="165" rx="10" ry="4"/>
                  </g>

                  <!-- Tissue zone label -->
                  <text x="20" y="198" style="fill:#6b7689;font:10px Inter,sans-serif;letter-spacing:1.5px">TISSUE · infection site</text>

                  <!-- Rolling neutrophil in lumen -->
                  <g transform="translate(200 115)">
                    <circle r="28" fill="#e8a951" opacity="0.88" stroke="#a87b3c" stroke-width="1.2"/>
                    <circle cx="-6" cy="-3" r="4" fill="#4a2d60" opacity="0.82"/>
                    <circle cx="7" cy="4" r="4" fill="#4a2d60" opacity="0.82"/>
                    <!-- Chemokine receptors on the bottom (facing endothelium) -->
                    <g fill="#c88a40" opacity="0.95" stroke="#a87b3c" stroke-width="0.7">
                      <path d="M -18 25 Q -15 33 -12 25 Z"/>
                      <path d="M -6 29 Q -3 37 0 29 Z"/>
                      <path d="M 6 29 Q 9 37 12 29 Z"/>
                      <path d="M 17 25 Q 20 33 23 25 Z"/>
                    </g>
                  </g>
                  <text x="200" y="72" text-anchor="middle" style="fill:#e8a951;font:700 10px Inter,sans-serif;letter-spacing:1px">rolling neutrophil</text>
                  <text x="200" y="84" text-anchor="middle" style="fill:#b4becf;font:italic 8px Inter,sans-serif">↓ receptors catching signal</text>

                  <!-- Receptor label pointer -->
                  <line x1="160" y1="140" x2="175" y2="147" stroke="#c88a40" stroke-width="0.7" opacity="0.6"/>
                  <text x="158" y="142" text-anchor="end" style="fill:#c88a40;font:italic 700 8px Inter,sans-serif">CXCR1/2</text>

                  <!-- Infection source in tissue: bacteria cluster -->
                  <g transform="translate(360 235)">
                    <g fill="#d14859" opacity="0.85" stroke="#a33648" stroke-width="0.5">
                      <ellipse cx="-6" cy="0" rx="4" ry="2.2"/>
                      <ellipse cx="6" cy="-3" rx="4" ry="2.2"/>
                      <ellipse cx="0" cy="5" rx="4" ry="2.2"/>
                      <ellipse cx="10" cy="4" rx="4" ry="2.2"/>
                    </g>
                    <text x="0" y="-12" text-anchor="middle" style="fill:#d14859;font:italic 700 8px Inter,sans-serif">bacteria</text>
                  </g>

                  <!-- Chemokines released from infection, diffusing upward -->
                  <g fill="#e8a951" opacity="0.95" stroke="#a87b3c" stroke-width="0.5">
                    <circle cx="335" cy="215" r="3.5"/>
                    <circle cx="355" cy="210" r="3.5"/>
                    <circle cx="375" cy="220" r="3.5"/>
                    <circle cx="345" cy="195" r="3.3"/>
                    <circle cx="370" cy="192" r="3.3"/>
                    <circle cx="355" cy="180" r="3.2"/>
                  </g>

                  <!-- Diffusion arrows going UP through the endothelium to neutrophil -->
                  <g stroke="#e8a951" stroke-width="1.2" fill="none" opacity="0.82" stroke-dasharray="3 3">
                    <path d="M 355 200 Q 310 175 235 145"/>
                    <path d="M 370 200 Q 340 175 255 145"/>
                    <path d="M 345 205 Q 290 170 215 145"/>
                  </g>
                  <g fill="#e8a951" opacity="0.9">
                    <polygon points="235,142 241,145 237,149"/>
                    <polygon points="255,142 261,145 257,149"/>
                    <polygon points="215,142 221,145 217,149"/>
                  </g>

                  <!-- Chemokines label -->
                  <text x="425" y="215" style="fill:#e8a951;font:800 11px Inter,sans-serif;letter-spacing:1px">CHEMOKINES</text>
                  <text x="425" y="227" style="fill:#b4becf;font:italic 9px Inter,sans-serif">IL-8 / CXCL8</text>
                  <text x="425" y="240" style="fill:#6b7689;font:italic 8px Inter,sans-serif">from infected tissue</text>
                </svg>
