<?xml version="1.0" encoding="UTF-8"?>
<!--
  Auto-generated from the reference HTML by
  scripts/storymode-extraction/extract.mjs.
  Do not edit by hand — regenerate the file instead.
-->
<svg xmlns="http://www.w3.org/2000/svg" xmlns:xlink="http://www.w3.org/1999/xlink" viewBox="0 0 500 280" preserveAspectRatio="xMidYMid meet">
                  <text x="20" y="24" style="fill:#e8a951;font:600 10px Inter,sans-serif;letter-spacing:2px">SURFACE TLRs · EXTRACELLULAR WATCH</text>

                  <!-- Anatomy labels (left side) -->
                  <text x="30" y="108" style="fill:#4fb8a8;font:italic 600 9px Inter,sans-serif">outside (extracellular)</text>
                  <text x="30" y="178" style="fill:#9370b9;font:italic 600 9px Inter,sans-serif">inside (cytoplasm)</text>

                  <!-- Membrane line -->
                  <line x1="30" y1="148" x2="470" y2="148" stroke="#4fb8a8" stroke-width="2.5" opacity="0.85"/>

                  <!-- ========== TLR4 column ========== -->
                  <g transform="translate(140 148)">
                    <!-- PAMP icon (top) -->
                    <circle cx="0" cy="-90" r="5" fill="#d14859" stroke="#a33648" stroke-width="0.6"/>
                    <text x="0" y="-100" text-anchor="middle" style="fill:#e8a951;font:700 10px Inter,sans-serif">LPS</text>
                    <!-- short binding line from PAMP to receptor -->
                    <line x1="0" y1="-85" x2="0" y2="-52" stroke="#e8a951" stroke-width="0.8" stroke-dasharray="1.5 1.5" opacity="0.65"/>
                    <!-- Receptor (leaflet shape poking through membrane) -->
                    <path d="M -5 0 Q -5 -40 0 -50 Q 5 -40 5 0 Z" fill="#9370b9" stroke="#4a2d60" stroke-width="1"/>
                    <path d="M -5 0 Q -5 18 0 22 Q 5 18 5 0 Z" fill="#9370b9" fill-opacity="0.4" stroke="#4a2d60" stroke-width="0.7"/>
                    <!-- Receptor name (below membrane, in cytoplasm zone) -->
                    <text x="0" y="40" text-anchor="middle" style="fill:#9370b9;font:700 11px Inter,sans-serif">TLR4</text>
                    <text x="0" y="54" text-anchor="middle" style="fill:#6b7689;font:italic 8.5px Inter,sans-serif">gram-neg endotoxin</text>
                  </g>

                  <!-- ========== TLR5 column ========== -->
                  <g transform="translate(250 148)">
                    <!-- PAMP icon: flagellum squiggle -->
                    <path d="M -5 -95 Q -12 -90 -5 -85 Q 2 -80 -5 -75" fill="none" stroke="#d14859" stroke-width="1.3"/>
                    <text x="3" y="-100" text-anchor="middle" style="fill:#e8a951;font:700 10px Inter,sans-serif">flagellin</text>
                    <!-- binding line -->
                    <line x1="0" y1="-73" x2="0" y2="-52" stroke="#e8a951" stroke-width="0.8" stroke-dasharray="1.5 1.5" opacity="0.65"/>
                    <!-- Receptor -->
                    <path d="M -5 0 Q -5 -40 0 -50 Q 5 -40 5 0 Z" fill="#9370b9" stroke="#4a2d60" stroke-width="1"/>
                    <path d="M -5 0 Q -5 18 0 22 Q 5 18 5 0 Z" fill="#9370b9" fill-opacity="0.4" stroke="#4a2d60" stroke-width="0.7"/>
                    <!-- Receptor name below -->
                    <text x="0" y="40" text-anchor="middle" style="fill:#9370b9;font:700 11px Inter,sans-serif">TLR5</text>
                    <text x="0" y="54" text-anchor="middle" style="fill:#6b7689;font:italic 8.5px Inter,sans-serif">bacterial flagella</text>
                  </g>

                  <!-- ========== TLR2 column ========== -->
                  <g transform="translate(360 148)">
                    <!-- PAMP icon: small cluster of circles -->
                    <g fill="#d14859" stroke="#a33648" stroke-width="0.4">
                      <circle cx="-6" cy="-88" r="3"/>
                      <circle cx="0" cy="-94" r="3"/>
                      <circle cx="6" cy="-88" r="3"/>
                    </g>
                    <text x="0" y="-104" text-anchor="middle" style="fill:#e8a951;font:700 10px Inter,sans-serif">peptidoglycan</text>
                    <!-- binding line -->
                    <line x1="0" y1="-80" x2="0" y2="-52" stroke="#e8a951" stroke-width="0.8" stroke-dasharray="1.5 1.5" opacity="0.65"/>
                    <!-- Receptor -->
                    <path d="M -5 0 Q -5 -40 0 -50 Q 5 -40 5 0 Z" fill="#9370b9" stroke="#4a2d60" stroke-width="1"/>
                    <path d="M -5 0 Q -5 18 0 22 Q 5 18 5 0 Z" fill="#9370b9" fill-opacity="0.4" stroke="#4a2d60" stroke-width="0.7"/>
                    <text x="0" y="40" text-anchor="middle" style="fill:#9370b9;font:700 11px Inter,sans-serif">TLR2</text>
                    <text x="0" y="54" text-anchor="middle" style="fill:#6b7689;font:italic 8.5px Inter,sans-serif">gram-pos wall</text>
                  </g>

                  <line x1="40" y1="228" x2="460" y2="228" stroke="#222c3e" stroke-width="1"/>
                  <text x="250" y="250" text-anchor="middle" style="fill:#b4becf;font:italic 10px Inter,sans-serif">the cell surface watches for bacteria</text>
                  <text x="250" y="266" text-anchor="middle" style="fill:#d14859;font:italic 700 10px Inter,sans-serif">→ catches them before they enter</text>
                </svg>
