<?xml version="1.0" encoding="UTF-8"?>
<!--
  Auto-generated from the reference HTML by
  scripts/storymode-extraction/extract.mjs.
  Do not edit by hand — regenerate the file instead.
-->
<svg xmlns="http://www.w3.org/2000/svg" xmlns:xlink="http://www.w3.org/1999/xlink" viewBox="0 0 500 260" preserveAspectRatio="xMidYMid meet">
<text x="20" y="16" style="fill:#e8a951;font:600 9px Inter,sans-serif;letter-spacing:2px">STEP 01 · 7 ANTIBIOTIC TARGETS · ONE BACTERIAL CELL</text>

<g transform="translate(250 145)">
  <text x="0" y="-105" text-anchor="middle" style="fill:#9370b9;font:700 9px Inter,sans-serif;letter-spacing:1.5px">BACTERIAL CELL</text>
  
  <circle cx="0" cy="0" r="85" fill="rgba(232,169,81,0.10)" stroke="#e8a951" stroke-width="3"/>
  <circle cx="0" cy="0" r="68" fill="rgba(108,194,125,0.10)" stroke="#6cc27d" stroke-width="1.6"/>
  
  <ellipse cx="-15" cy="-5" rx="22" ry="14" fill="none" stroke="#9370b9" stroke-width="1.6"/>
  <text x="-15" y="-2" text-anchor="middle" style="fill:#9370b9;font:700 7px Inter,sans-serif">DNA</text>
  
  <g transform="translate(20 5)">
    <ellipse cx="0" cy="-6" rx="12" ry="6" fill="rgba(79,184,168,0.85)" stroke="#4fb8a8"/>
    <text x="0" y="-4" text-anchor="middle" style="fill:#0a0e1a;font:700 6px Inter,sans-serif">30S</text>
    <ellipse cx="0" cy="6" rx="12" ry="7" fill="rgba(232,169,81,0.85)" stroke="#e8a951"/>
    <text x="0" y="9" text-anchor="middle" style="fill:#0a0e1a;font:700 6px Inter,sans-serif">50S</text>
  </g>
  
  <g transform="translate(15 -35)">
    <rect x="-9" y="-6" width="18" height="12" rx="2" fill="rgba(147,112,185,0.65)" stroke="#9370b9"/>
    <text x="0" y="3" text-anchor="middle" style="fill:#fff;font:700 5px Inter,sans-serif">RNA-pol</text>
  </g>
  
  <g transform="translate(-30 30)">
    <ellipse cx="0" cy="0" rx="11" ry="6" fill="rgba(108,194,125,0.55)" stroke="#6cc27d"/>
    <text x="0" y="3" text-anchor="middle" style="fill:#0a0e1a;font:700 5px Inter,sans-serif">DHFR</text>
  </g>
  
  <g transform="translate(0 -130)">
    <rect x="-65" y="-13" width="130" height="26" rx="13" fill="rgba(209,72,89,0.30)" stroke="#d14859" stroke-width="1.4"/>
    <text x="0" y="3" text-anchor="middle" style="fill:#d14859;font:700 7.5px Inter,sans-serif;letter-spacing:1px">β-LACTAM · VANC</text>
  </g>
  <line x1="0" y1="-115" x2="0" y2="-90" stroke="#d14859" stroke-width="1" stroke-dasharray="2 1"/>
  
  <g transform="translate(130 -55)">
    <rect x="-55" y="-13" width="110" height="26" rx="13" fill="rgba(79,184,168,0.30)" stroke="#4fb8a8" stroke-width="1.4"/>
    <text x="0" y="3" text-anchor="middle" style="fill:#4fb8a8;font:700 7.5px Inter,sans-serif;letter-spacing:1px">AMINO · TET</text>
  </g>
  <line x1="80" y1="-50" x2="40" y2="-5" stroke="#4fb8a8" stroke-width="1" stroke-dasharray="2 1"/>
  
  <g transform="translate(130 5)">
    <rect x="-55" y="-13" width="110" height="26" rx="13" fill="rgba(232,169,81,0.30)" stroke="#e8a951" stroke-width="1.4"/>
    <text x="0" y="3" text-anchor="middle" style="fill:#e8a951;font:700 7.5px Inter,sans-serif;letter-spacing:1px">MACRO · CLINDA</text>
  </g>
  <line x1="80" y1="5" x2="40" y2="10" stroke="#e8a951" stroke-width="1" stroke-dasharray="2 1"/>
  
  <g transform="translate(-130 -25)">
    <rect x="-55" y="-13" width="110" height="26" rx="13" fill="rgba(147,112,185,0.45)" stroke="#9370b9" stroke-width="2.4"/>
    <text x="0" y="3" text-anchor="middle" style="fill:#fff;font:700 7.5px Inter,sans-serif;letter-spacing:1px">FLUOROQUIN</text>
  </g>
  <line x1="-80" y1="-25" x2="-40" y2="-10" stroke="#9370b9" stroke-width="1" stroke-dasharray="2 1"/>
  
  <g transform="translate(-130 -75)">
    <rect x="-50" y="-13" width="100" height="26" rx="13" fill="rgba(180,190,207,0.30)" stroke="#6b7689" stroke-width="1.4"/>
    <text x="0" y="3" text-anchor="middle" style="fill:#b4becf;font:700 7.5px Inter,sans-serif;letter-spacing:1px">RIFAMPIN</text>
  </g>
  <line x1="-85" y1="-70" x2="-5" y2="-40" stroke="#b4becf" stroke-width="1" stroke-dasharray="2 1"/>
  
  <g transform="translate(-130 35)">
    <rect x="-55" y="-13" width="110" height="26" rx="13" fill="rgba(108,194,125,0.30)" stroke="#6cc27d" stroke-width="1.4"/>
    <text x="0" y="3" text-anchor="middle" style="fill:#6cc27d;font:700 7.5px Inter,sans-serif;letter-spacing:1px">TMP-SMX</text>
  </g>
  <line x1="-80" y1="35" x2="-40" y2="32" stroke="#6cc27d" stroke-width="1" stroke-dasharray="2 1"/>
  
  <g transform="translate(0 130)">
    <rect x="-65" y="-13" width="130" height="26" rx="13" fill="rgba(232,169,81,0.20)" stroke="#e8a951" stroke-width="1.4"/>
    <text x="0" y="3" text-anchor="middle" style="fill:#e8a951;font:700 7.5px Inter,sans-serif;letter-spacing:1px">DAPTO · POLYMYX</text>
  </g>
  <line x1="0" y1="115" x2="0" y2="68" stroke="#e8a951" stroke-width="1" stroke-dasharray="2 1"/>
</g>

<text x="250" y="245" text-anchor="middle" style="fill:#6b7689;font:italic 7.5px Fraunces,serif">7 mechanism categories · each targets a bacterial-specific structure or process</text>

                  <!-- FOCUS · audio-aligned attention marker -->
                  <circle cx="250" cy="35" r="21" fill="none" stroke="#d14859" stroke-width="1.8" stroke-dasharray="3 2" opacity="0.85">
                    <animate attributeName="r" values="17;27;17" dur="2.4s" repeatCount="indefinite"/>
                    <animate attributeName="opacity" values="0.85;0.20;0.85" dur="2.4s" repeatCount="indefinite"/>
                  </circle>
</svg>
