<?xml version="1.0" encoding="UTF-8"?>
<!--
  Auto-generated from the reference HTML by
  scripts/storymode-extraction/extract.mjs.
  Do not edit by hand — regenerate the file instead.
-->
<svg xmlns="http://www.w3.org/2000/svg" xmlns:xlink="http://www.w3.org/1999/xlink" viewBox="0 0 500 260" preserveAspectRatio="xMidYMid meet">
                  <text x="20" y="22" style="fill:#e8a951;font:600 10px Inter,sans-serif;letter-spacing:2px">STEP 01 · INFLAMMATION NEEDS REINFORCEMENTS</text>

  
                      <line x1="40" y1="70" x2="460" y2="70" stroke="#d14859" stroke-width="2" opacity="0.7"></line>
                      <line x1="40" y1="100" x2="460" y2="100" stroke="#d14859" stroke-width="2" opacity="0.7"></line>
                      <rect x="40" y="70" width="420" height="30" fill="#d14859" fill-opacity="0.10"></rect>
                    <text x="44" y="62" style="fill:#b4becf;font:600 7px Inter,sans-serif;letter-spacing:1.5px">VESSEL</text><text x="44" y="118" style="fill:#b4becf;font:600 7px Inter,sans-serif;letter-spacing:1.5px">TISSUE</text><g transform="translate(100 85)" opacity="1"><circle cx="0" cy="0" r="9" fill="#e8ecf3" fill-opacity="0.55" stroke="#e8ecf3" stroke-width="1.2"></circle><g fill="#9370b9" opacity="0.85">
                      <circle cx="-3" cy="-2" r="2.2"></circle>
                      <circle cx="3" cy="-2" r="2.2"></circle>
                      <circle cx="0" cy="3" r="2.2"></circle>
                    </g></g><g transform="translate(200 85)" opacity="1"><circle cx="0" cy="0" r="11" fill="#4fb8a8" fill-opacity="0.40" stroke="#4fb8a8" stroke-width="1.2"></circle><path d="M -5 -3 Q 0 -7 5 -3 Q 7 0 5 3 Q 0 7 -5 3 Z" fill="#1a2030" opacity="0.7"></path></g><g transform="translate(300 85)" opacity="1"><circle cx="0" cy="0" r="9" fill="#d14859" fill-opacity="0.40" stroke="#d14859" stroke-width="1.2"></circle><g fill="#1a2030" opacity="0.8">
                      <ellipse cx="-3" cy="-1" rx="2.2" ry="2.4"></ellipse>
                      <ellipse cx="3" cy="-1" rx="2.2" ry="2.4"></ellipse>
                    </g></g><g transform="translate(400 85)" opacity="1"><circle cx="0" cy="0" r="9" fill="#9370b9" fill-opacity="0.55" stroke="#9370b9" stroke-width="1.2"></circle><g fill="#0a0e1a" opacity="0.9">
                      <circle cx="-3" cy="-2" r="1.5"></circle>
                      <circle cx="3" cy="-2" r="1.5"></circle>
                      <circle cx="0" cy="2" r="1.5"></circle>
                      <circle cx="-2" cy="3" r="1.5"></circle>
                    </g></g>

                  <!-- Empty tissue with a question/inflammation marker -->
                  <g transform="translate(250 175)">
                    <circle cx="0" cy="0" r="20" fill="#d14859" fill-opacity="0.18" stroke="#d14859" stroke-width="1.5">
                      <animate attributeName="r" values="18;26;18" dur="2.4s" repeatCount="indefinite"></animate>
                    </circle>
                    <text x="0" y="5" text-anchor="middle" style="fill:#d14859;font:700 14px Inter,sans-serif">!</text>
                  </g>
                  <text x="250" y="220" text-anchor="middle" style="fill:#d14859;font:600 8px Inter,sans-serif;letter-spacing:1.5px">INFLAMMATION SITE</text>

                  <!-- Arrows from cells in vessel pointing down toward inflammation -->
                  <g stroke="#b4becf" stroke-width="1" fill="none" opacity="0.55" stroke-dasharray="2 2">
                    <path d="M 100 105 L 100 160"></path>
                    <path d="M 200 105 L 200 160"></path>
                    <path d="M 300 105 L 300 160"></path>
                    <path d="M 400 105 L 400 160"></path>
                  </g>
                  <text x="250" y="252" text-anchor="middle" style="fill:#b4becf;font:italic 10px Fraunces,serif">cells live in the vessel · inflammation happens in tissue · they need to migrate</text>

                  <!-- FOCUS · audio-aligned attention marker -->
                  <circle cx="250" cy="215" r="26" fill="none" stroke="#d14859" stroke-width="1.8" stroke-dasharray="3 2" opacity="0.85">
                    <animate attributeName="r" values="22;32;22" dur="2.4s" repeatCount="indefinite"/>
                    <animate attributeName="opacity" values="0.85;0.20;0.85" dur="2.4s" repeatCount="indefinite"/>
                  </circle>
</svg>
