<?xml version="1.0" encoding="UTF-8"?>
<!--
  Auto-generated from the reference HTML by
  scripts/storymode-extraction/extract.mjs.
  Do not edit by hand — regenerate the file instead.
-->
<svg xmlns="http://www.w3.org/2000/svg" xmlns:xlink="http://www.w3.org/1999/xlink" viewBox="0 0 500 260" preserveAspectRatio="xMidYMid meet">
<text x="20" y="16" style="fill:#e8a951;font:600 9px Inter,sans-serif;letter-spacing:2px">STEP 01 · GLUCOCORTICOIDS · LIPID SOLUBLE</text>

<!-- Steroid molecule on left -->
<g transform="translate(95 145)">
  <text x="0" y="-78" text-anchor="middle" style="fill:#e8a951;font:700 9px Inter,sans-serif;letter-spacing:1.5px">STEROID</text>
  
  <!-- 4-ring steroid structure -->
  <g transform="translate(0 0)">
    <!-- Ring A -->
    <polygon points="-25,-8 -15,-15 -5,-8 -5,5 -15,12 -25,5" fill="rgba(232,169,81,0.55)" stroke="#e8a951" stroke-width="1.4"/>
    <!-- Ring B -->
    <polygon points="-5,-8 5,-15 15,-8 15,5 5,12 -5,5" fill="rgba(232,169,81,0.55)" stroke="#e8a951" stroke-width="1.4"/>
    <!-- Ring C -->
    <polygon points="15,-8 25,-15 35,-8 35,5 25,12 15,5" fill="rgba(232,169,81,0.55)" stroke="#e8a951" stroke-width="1.4"/>
    <!-- Ring D (cyclopentane) -->
    <polygon points="35,-3 43,-10 50,-3 47,7 38,7" fill="rgba(232,169,81,0.55)" stroke="#e8a951" stroke-width="1.4"/>
  </g>
  
  <text x="10" y="33" text-anchor="middle" style="fill:#b4becf;font:7px Inter,sans-serif">cortisol-like</text>
</g>

<!-- Cell membrane bilayer -->
<g transform="translate(245 145)">
  <text x="0" y="-78" text-anchor="middle" style="fill:#9370b9;font:700 9px Inter,sans-serif;letter-spacing:1.5px">CELL MEMBRANE</text>
  
  <!-- Lipid bilayer (two parallel rows of "phospholipid heads + tails") -->
  <g transform="translate(0 0)">
    <!-- Outer leaflet heads -->
    <g fill="rgba(180,190,207,0.85)" stroke="#b4becf" stroke-width="0.6">
      <circle cx="-50" cy="-15" r="4"/>
      <circle cx="-35" cy="-15" r="4"/>
      <circle cx="-20" cy="-15" r="4"/>
      <circle cx="-5" cy="-15" r="4"/>
      <circle cx="10" cy="-15" r="4"/>
      <circle cx="25" cy="-15" r="4"/>
      <circle cx="40" cy="-15" r="4"/>
    </g>
    <!-- Tails -->
    <g stroke="#9370b9" stroke-width="1" fill="none" stroke-linecap="round">
      <path d="M -50 -11 L -50 0"/>
      <path d="M -35 -11 L -35 0"/>
      <path d="M -20 -11 L -20 0"/>
      <path d="M -5 -11 L -5 0"/>
      <path d="M 10 -11 L 10 0"/>
      <path d="M 25 -11 L 25 0"/>
      <path d="M 40 -11 L 40 0"/>
      <path d="M -50 0 L -50 11"/>
      <path d="M -35 0 L -35 11"/>
      <path d="M -20 0 L -20 11"/>
      <path d="M -5 0 L -5 11"/>
      <path d="M 10 0 L 10 11"/>
      <path d="M 25 0 L 25 11"/>
      <path d="M 40 0 L 40 11"/>
    </g>
    <!-- Inner leaflet heads -->
    <g fill="rgba(180,190,207,0.85)" stroke="#b4becf" stroke-width="0.6">
      <circle cx="-50" cy="15" r="4"/>
      <circle cx="-35" cy="15" r="4"/>
      <circle cx="-20" cy="15" r="4"/>
      <circle cx="-5" cy="15" r="4"/>
      <circle cx="10" cy="15" r="4"/>
      <circle cx="25" cy="15" r="4"/>
      <circle cx="40" cy="15" r="4"/>
    </g>
  </g>
  
  <!-- Steroid passing through (small molecule in transit) -->
  <g transform="translate(0 0)">
    <ellipse cx="0" cy="0" rx="6" ry="3" fill="rgba(232,169,81,0.85)" stroke="#e8a951" stroke-width="1"/>
  </g>
  <!-- Arrows showing diffusion -->
  <line x1="0" y1="-25" x2="0" y2="-15" stroke="#e8a951" stroke-width="1.6"/>
  <polygon points="0,-15 -3,-21 3,-21" fill="#e8a951"/>
  <line x1="0" y1="15" x2="0" y2="25" stroke="#e8a951" stroke-width="1.6"/>
  <polygon points="0,25 -3,19 3,19" fill="#e8a951"/>
</g>

<!-- Inside cell -->
<g transform="translate(420 145)">
  <text x="0" y="-78" text-anchor="middle" style="fill:#6cc27d;font:700 9px Inter,sans-serif;letter-spacing:1.5px">INSIDE CELL</text>
  <ellipse cx="0" cy="0" rx="50" ry="40" fill="rgba(108,194,125,0.10)" stroke="#6cc27d" stroke-width="1.4"/>
  <ellipse cx="0" cy="0" rx="6" ry="3" fill="rgba(232,169,81,0.85)" stroke="#e8a951" stroke-width="1"/>
  <text x="0" y="35" text-anchor="middle" style="fill:#b4becf;font:italic 7px Fraunces,serif">enters every cell</text>
</g>

<text x="250" y="245" text-anchor="middle" style="fill:#6b7689;font:italic 7.5px Fraunces,serif">Lipid solubility = no surface receptor needed · diffuses across all membranes</text>

                  <!-- FOCUS · audio-aligned attention marker -->
                  <circle cx="257" cy="107" r="60" fill="none" stroke="#d14859" stroke-width="1.8" stroke-dasharray="3 2" opacity="0.85">
                    <animate attributeName="r" values="56;66;56" dur="2.4s" repeatCount="indefinite"/>
                    <animate attributeName="opacity" values="0.85;0.20;0.85" dur="2.4s" repeatCount="indefinite"/>
                  </circle>
</svg>
