<?xml version="1.0" encoding="UTF-8"?>
<!--
  Auto-generated from the reference HTML by
  scripts/storymode-extraction/extract.mjs.
  Do not edit by hand — regenerate the file instead.
-->
<svg xmlns="http://www.w3.org/2000/svg" xmlns:xlink="http://www.w3.org/1999/xlink" viewBox="0 0 500 260" preserveAspectRatio="xMidYMid meet">
                  <text x="20" y="22" style="fill:#e8a951;font:600 10px Inter,sans-serif;letter-spacing:2px">STEP 01 · UNIVERSAL REPERTOIRE</text>

                  <!-- Patient on left -->
                  <g transform="translate(95 145)">
                    <circle cx="0" cy="-30" r="14" fill="#b4becf" fill-opacity="0.55" stroke="#b4becf" stroke-width="1.4"></circle>
                    <path d="M -22 -16 L 22 -16 L 30 50 L -30 50 Z" fill="#b4becf" fill-opacity="0.40" stroke="#b4becf" stroke-width="1.4"></path>
                    <!-- vaccine syringe at arm -->
                    <g transform="translate(-30 -5)">
                      <rect x="-10" y="-2" width="14" height="6" rx="1" fill="#9370b9" fill-opacity="0.85" stroke="#9370b9" stroke-width="1"></rect>
                      <line x1="4" y1="1" x2="14" y2="1" stroke="#b4becf" stroke-width="1.4"></line>
                    </g>
                    <text x="0" y="80" text-anchor="middle" style="fill:#b4becf;font:600 8px Inter,sans-serif">7 y/o · booster</text>
                  </g>

                  <!-- Arrow -->
                  <path d="M 145 145 L 195 145" stroke="#e8a951" stroke-width="1.6" fill="none"></path>
                  <polygon points="195,145 188,141 188,149" fill="#e8a951"></polygon>

                  <!-- Many distinct antibodies on right -->
                  <g transform="translate(280 145)">
                    <text x="0" y="-65" text-anchor="middle" style="fill:#e8a951;font:600 8px Inter,sans-serif;letter-spacing:1.5px">DIVERSE ANTIBODY REPERTOIRE</text>
                    <g stroke-width="1.5" fill="none" stroke-linecap="round">
                      <g stroke="#4fb8a8">
                        <path d="M -7 -45 L -2 -50 L 2 -50 L 7 -45 M 0 -50 L 0 -60"></path>
                      </g>
                      <g stroke="#e8a951">
                        <path d="M 33 -45 L 38 -50 L 42 -50 L 47 -45 M 40 -50 L 40 -60"></path>
                      </g>
                      <g stroke="#9370b9">
                        <path d="M 73 -45 L 78 -50 L 82 -50 L 87 -45 M 80 -50 L 80 -60"></path>
                      </g>
                      <g stroke="#d14859">
                        <path d="M 113 -45 L 118 -50 L 122 -50 L 127 -45 M 120 -50 L 120 -60"></path>
                      </g>
                      <g stroke="#6cc27d">
                        <path d="M -7 -10 L -2 -15 L 2 -15 L 7 -10 M 0 -15 L 0 -25"></path>
                      </g>
                      <g stroke="#4fb8a8">
                        <path d="M 33 -10 L 38 -15 L 42 -15 L 47 -10 M 40 -15 L 40 -25"></path>
                      </g>
                      <g stroke="#e8a951">
                        <path d="M 73 -10 L 78 -15 L 82 -15 L 87 -10 M 80 -15 L 80 -25"></path>
                      </g>
                      <g stroke="#9370b9">
                        <path d="M 113 -10 L 118 -15 L 122 -15 L 127 -10 M 120 -15 L 120 -25"></path>
                      </g>
                      <g stroke="#d14859">
                        <path d="M -7 25 L -2 20 L 2 20 L 7 25 M 0 20 L 0 10"></path>
                      </g>
                      <g stroke="#6cc27d">
                        <path d="M 33 25 L 38 20 L 42 20 L 47 25 M 40 20 L 40 10"></path>
                      </g>
                      <g stroke="#4fb8a8">
                        <path d="M 73 25 L 78 20 L 82 20 L 87 25 M 80 20 L 80 10"></path>
                      </g>
                      <g stroke="#9370b9">
                        <path d="M 113 25 L 118 20 L 122 20 L 127 25 M 120 20 L 120 10"></path>
                      </g>
                    </g>
                    <text x="60" y="55" text-anchor="middle" style="fill:#b4becf;font:italic 8px Fraunces,serif">unique antibodies for any antigen</text>
                  </g>

                  <text x="250" y="252" text-anchor="middle" style="fill:#b4becf;font:italic 10px Fraunces,serif">vaccines work because the immune system already has a receptor for almost any shape</text>

                  <!-- FOCUS · audio-aligned attention marker -->
                  <circle cx="280" cy="75" r="40" fill="none" stroke="#d14859" stroke-width="1.8" stroke-dasharray="3 2" opacity="0.85">
                    <animate attributeName="r" values="36;46;36" dur="2.4s" repeatCount="indefinite"/>
                    <animate attributeName="opacity" values="0.85;0.20;0.85" dur="2.4s" repeatCount="indefinite"/>
                  </circle>

                  <!-- FOCUS · audio-aligned attention marker -->
                  <circle cx="340" cy="195" r="40" fill="none" stroke="#d14859" stroke-width="1.8" stroke-dasharray="3 2" opacity="0.85">
                    <animate attributeName="r" values="36;46;36" dur="2.4s" repeatCount="indefinite"/>
                    <animate attributeName="opacity" values="0.85;0.20;0.85" dur="2.4s" repeatCount="indefinite"/>
                  </circle>
</svg>
