<?xml version="1.0" encoding="UTF-8"?>
<!--
  Auto-generated from the reference HTML by
  scripts/storymode-extraction/extract.mjs.
  Do not edit by hand — regenerate the file instead.
-->
<svg xmlns="http://www.w3.org/2000/svg" xmlns:xlink="http://www.w3.org/1999/xlink" viewBox="0 0 500 260" preserveAspectRatio="xMidYMid meet">
                  <text x="20" y="16" style="fill:#e8a951;font:600 9px Inter,sans-serif;letter-spacing:2px">STEP 01 · RECOMBINANT HBsAg IN YEAST</text>

                  <!-- Whole HBV virus on left for reference -->
                  <g transform="translate(110 145)">
                    <text x="0" y="-65" text-anchor="middle" style="fill:#d14859;font:700 9px Inter,sans-serif;letter-spacing:1.5px">WHOLE HBV</text>
                    <g transform="translate(0 0)" opacity="1"><circle cx="0" cy="0" r="28" fill="#4fb8a8" fill-opacity="0.30" stroke="#4fb8a8" stroke-width="1.5"></circle><g stroke="#4fb8a8" stroke-width="2" fill="none" stroke-linecap="round"><line x1="28" y1="0" x2="33" y2="0"></line><circle cx="33" cy="0" r="2" fill="#4fb8a8"></circle><line x1="19.8" y1="19.8" x2="23.3" y2="23.3"></line><circle cx="23.3" cy="23.3" r="2" fill="#4fb8a8"></circle><line x1="0" y1="28" x2="0" y2="33"></line><circle cx="0" cy="33" r="2" fill="#4fb8a8"></circle><line x1="-19.8" y1="19.8" x2="-23.3" y2="23.3"></line><circle cx="-23.3" cy="23.3" r="2" fill="#4fb8a8"></circle><line x1="-28" y1="0" x2="-33" y2="0"></line><circle cx="-33" cy="0" r="2" fill="#4fb8a8"></circle><line x1="-19.8" y1="-19.8" x2="-23.3" y2="-23.3"></line><circle cx="-23.3" cy="-23.3" r="2" fill="#4fb8a8"></circle><line x1="-0" y1="-28" x2="-0" y2="-33"></line><circle cx="-0" cy="-33" r="2" fill="#4fb8a8"></circle><line x1="19.8" y1="-19.8" x2="23.3" y2="-23.3"></line><circle cx="23.3" cy="-23.3" r="2" fill="#4fb8a8"></circle></g><text x="40" y="-28" style="fill:#4fb8a8;font:600 7px Inter,sans-serif;letter-spacing:1.2px">HBsAg</text><text x="40" y="-19" style="fill:#b4becf;font:italic 6px Fraunces,serif">surface</text><circle cx="0" cy="0" r="14" fill="#9370b9" fill-opacity="0.85" stroke="#9370b9" stroke-width="1.4"></circle><path d="M -6 -2 Q -2 -5 2 -2 Q 6 1 0 4" stroke="#e8a951" stroke-width="1.2" fill="none"></path><text x="40" y="0" style="fill:#9370b9;font:600 7px Inter,sans-serif;letter-spacing:1.2px">HBcAg</text><text x="40" y="9" style="fill:#b4becf;font:italic 6px Fraunces,serif">core</text></g>
                    <text x="0" y="55" text-anchor="middle" style="fill:#b4becf;font:italic 7px Fraunces,serif">surface + core + DNA</text>
                  </g>

                  <!-- Arrow -->
                  <path d="M 175 145 L 220 145" stroke="#e8a951" stroke-width="1.6" fill="none"></path>
                  <polygon points="220,145 213,141 213,149" fill="#e8a951"></polygon>
                  <text x="197" y="135" text-anchor="middle" style="fill:#e8a951;font:600 7px Inter,sans-serif;letter-spacing:1.2px">CLONE</text>
                  <text x="197" y="160" text-anchor="middle" style="fill:#b4becf;font:italic 6px Fraunces,serif">surface gene only</text>

                  <!-- Yeast factory -->
                  <g transform="translate(265 145)">
                    <text x="0" y="-65" text-anchor="middle" style="fill:#e8a951;font:700 9px Inter,sans-serif;letter-spacing:1.5px">YEAST</text>
                    <g transform="translate(0 0)" opacity="1"><ellipse cx="0" cy="0" rx="20" ry="16" fill="#e8a951" fill-opacity="0.40" stroke="#e8a951" stroke-width="1.4"></ellipse><circle cx="20" cy="-10" r="9" fill="#e8a951" fill-opacity="0.40" stroke="#e8a951" stroke-width="1.2"></circle><ellipse cx="-2" cy="-1" rx="6" ry="5" fill="#9370b9" fill-opacity="0.55"></ellipse></g>
                    <text x="0" y="35" text-anchor="middle" style="fill:#b4becf;font:italic 7px Fraunces,serif">expresses HBsAg only</text>
                  </g>

                  <!-- Arrow -->
                  <path d="M 305 145 L 350 145" stroke="#e8a951" stroke-width="1.6" fill="none"></path>
                  <polygon points="350,145 343,141 343,149" fill="#e8a951"></polygon>

                  <!-- Vaccine = HBsAg subunits -->
                  <g transform="translate(410 145)">
                    <text x="0" y="-65" text-anchor="middle" style="fill:#6cc27d;font:700 9px Inter,sans-serif;letter-spacing:1.5px">VACCINE</text>
                    <g transform="translate(-18 0)" opacity="1"><g stroke="#4fb8a8" stroke-width="2.4" fill="none" stroke-linecap="round"><line x1="0" y1="-12" x2="0" y2="8"></line><circle cx="0" cy="-12" r="4" fill="#4fb8a8" stroke="none"></circle><rect x="-12" y="6" width="24" height="6" rx="1" fill="#4fb8a8" fill-opacity="0.55" stroke="none"></rect></g></g>
                    <g transform="translate(0 -3)" opacity="1"><g stroke="#4fb8a8" stroke-width="2.4" fill="none" stroke-linecap="round"><line x1="0" y1="-12" x2="0" y2="8"></line><circle cx="0" cy="-12" r="4" fill="#4fb8a8" stroke="none"></circle><rect x="-12" y="6" width="24" height="6" rx="1" fill="#4fb8a8" fill-opacity="0.55" stroke="none"></rect></g></g>
                    <g transform="translate(18 0)" opacity="1"><g stroke="#4fb8a8" stroke-width="2.4" fill="none" stroke-linecap="round"><line x1="0" y1="-12" x2="0" y2="8"></line><circle cx="0" cy="-12" r="4" fill="#4fb8a8" stroke="none"></circle><rect x="-12" y="6" width="24" height="6" rx="1" fill="#4fb8a8" fill-opacity="0.55" stroke="none"></rect></g></g>
                    <text x="0" y="35" text-anchor="middle" style="fill:#4fb8a8;font:600 8px Inter,sans-serif;letter-spacing:1.2px">HBsAg ONLY</text>
                    <text x="0" y="46" text-anchor="middle" style="fill:#b4becf;font:italic 7px Fraunces,serif">no core · no DNA</text>
                  </g>

                  <text x="250" y="245" text-anchor="middle" style="fill:#b4becf;font:italic 7.5px Fraunces,serif">isolate the surface gene · grow it in yeast · purify · inject only that protein</text>

                  <!-- FOCUS · audio-aligned attention marker -->
                  <circle cx="110" cy="195" r="30" fill="none" stroke="#d14859" stroke-width="1.8" stroke-dasharray="3 2" opacity="0.85">
                    <animate attributeName="r" values="26;36;26" dur="2.4s" repeatCount="indefinite"/>
                    <animate attributeName="opacity" values="0.85;0.20;0.85" dur="2.4s" repeatCount="indefinite"/>
                  </circle>

                  <!-- FOCUS · audio-aligned attention marker -->
                  <circle cx="197" cy="155" r="26" fill="none" stroke="#d14859" stroke-width="1.8" stroke-dasharray="3 2" opacity="0.85">
                    <animate attributeName="r" values="22;32;22" dur="2.4s" repeatCount="indefinite"/>
                    <animate attributeName="opacity" values="0.85;0.20;0.85" dur="2.4s" repeatCount="indefinite"/>
                  </circle>

                  <!-- FOCUS · audio-aligned attention marker -->
                  <circle cx="410" cy="75" r="20" fill="none" stroke="#d14859" stroke-width="1.8" stroke-dasharray="3 2" opacity="0.85">
                    <animate attributeName="r" values="16;26;16" dur="2.4s" repeatCount="indefinite"/>
                    <animate attributeName="opacity" values="0.85;0.20;0.85" dur="2.4s" repeatCount="indefinite"/>
                  </circle>
</svg>
