<?xml version="1.0" encoding="UTF-8"?>
<!--
  Auto-generated from the reference HTML by
  scripts/storymode-extraction/extract.mjs.
  Do not edit by hand — regenerate the file instead.
-->
<svg xmlns="http://www.w3.org/2000/svg" xmlns:xlink="http://www.w3.org/1999/xlink" viewBox="0 0 500 260" preserveAspectRatio="xMidYMid meet">
<text x="20" y="16" style="fill:#e8a951;font:600 9px Inter,sans-serif;letter-spacing:2px">STEP 01 · PEDIATRIC · POST-URI · PAAN TETRAD = HSP</text>

<!-- Pediatric patient on left with timeline -->
<g transform="translate(95 145)">
  <text x="0" y="-78" text-anchor="middle" style="fill:#9370b9;font:700 8.5px Inter,sans-serif;letter-spacing:1.2px">5-yo BOY</text>
  
  <!-- Child figure -->
  <circle cx="0" cy="-50" r="15" fill="rgba(180,190,207,0.55)" stroke="#b4becf" stroke-width="1.4"/>
  <!-- Body w/ visible purpura on legs -->
  <path d="M -22 -36 L 22 -36 L 25 6 L -25 6 Z" fill="rgba(180,190,207,0.30)" stroke="#b4becf" stroke-width="1.4"/>
  <!-- Legs -->
  <rect x="-18" y="6" width="14" height="34" rx="3" fill="rgba(180,190,207,0.30)" stroke="#b4becf" stroke-width="1.4"/>
  <rect x="4" y="6" width="14" height="34" rx="3" fill="rgba(180,190,207,0.30)" stroke="#b4becf" stroke-width="1.4"/>
  <!-- Purpura dots on legs/buttocks -->
  <g fill="rgba(147,112,185,0.95)" stroke="#9370b9" stroke-width="0.6">
    <circle cx="-12" cy="14" r="2"/>
    <circle cx="-8" cy="22" r="2.2"/>
    <circle cx="-15" cy="28" r="1.8"/>
    <circle cx="-10" cy="34" r="2"/>
    <circle cx="9" cy="16" r="2"/>
    <circle cx="13" cy="24" r="2.2"/>
    <circle cx="8" cy="32" r="1.8"/>
    <circle cx="14" cy="36" r="2"/>
  </g>
</g>

<!-- Timeline showing post-URI -->
<g transform="translate(250 80)">
  <text x="0" y="-15" text-anchor="middle" style="fill:#b4becf;font:700 8px Inter,sans-serif;letter-spacing:1.2px">CLINICAL TIMELINE</text>
  <line x1="-90" y1="0" x2="90" y2="0" stroke="#3a4358" stroke-width="1.6"/>
  <!-- Past URI -->
  <circle cx="-75" cy="0" r="7" fill="rgba(79,184,168,0.85)" stroke="#4fb8a8" stroke-width="1.2"/>
  <text x="-75" y="18" text-anchor="middle" style="fill:#4fb8a8;font:6.5px Inter,sans-serif">URI</text>
  <text x="-75" y="28" text-anchor="middle" style="fill:#b4becf;font:6px Inter,sans-serif">2 wk ago</text>
  <!-- Now -->
  <circle cx="75" cy="0" r="7" fill="rgba(209,72,89,0.85)" stroke="#d14859" stroke-width="1.2"/>
  <text x="75" y="18" text-anchor="middle" style="fill:#d14859;font:6.5px Inter,sans-serif">HSP</text>
  <text x="75" y="28" text-anchor="middle" style="fill:#b4becf;font:6px Inter,sans-serif">today</text>
  <!-- Bridge text -->
  <text x="0" y="-3" text-anchor="middle" style="fill:#e8a951;font:italic 7px Fraunces,serif">post-infectious</text>
</g>

<!-- 4 PAAN features in a 2x2 grid on right -->
<g transform="translate(380 130)">
  <text x="0" y="-22" text-anchor="middle" style="fill:#e8a951;font:700 9px Inter,sans-serif;letter-spacing:1.5px">PAAN TETRAD</text>
  
  <!-- P · Purpura -->
  <g transform="translate(-50 0)">
    <rect x="-42" y="-8" width="84" height="22" rx="4" fill="rgba(147,112,185,0.18)" stroke="#9370b9" stroke-width="1.4"/>
    <g fill="rgba(147,112,185,0.95)">
      <circle cx="-32" cy="3" r="2"/>
      <circle cx="-26" cy="0" r="2.2"/>
      <circle cx="-30" cy="7" r="1.8"/>
    </g>
    <text x="-15" y="0" style="fill:#9370b9;font:700 7px Inter,sans-serif">P · purpura</text>
    <text x="-15" y="9" style="fill:#b4becf;font:6px Inter,sans-serif">palpable · legs</text>
  </g>
  
  <!-- A · Arthralgia -->
  <g transform="translate(50 0)">
    <rect x="-42" y="-8" width="84" height="22" rx="4" fill="rgba(232,169,81,0.18)" stroke="#e8a951" stroke-width="1.4"/>
    <!-- Joint icon -->
    <g transform="translate(-32 3)">
      <circle r="3.5" fill="none" stroke="#e8a951" stroke-width="1.4"/>
      <line x1="-5" y1="0" x2="-3" y2="0" stroke="#e8a951" stroke-width="1.4"/>
      <line x1="3" y1="0" x2="5" y2="0" stroke="#e8a951" stroke-width="1.4"/>
    </g>
    <text x="-20" y="0" style="fill:#e8a951;font:700 7px Inter,sans-serif">A · arthritis</text>
    <text x="-20" y="9" style="fill:#b4becf;font:6px Inter,sans-serif">ankle · knee</text>
  </g>
  
  <!-- A · Abdominal pain -->
  <g transform="translate(-50 35)">
    <rect x="-42" y="-8" width="84" height="22" rx="4" fill="rgba(209,72,89,0.18)" stroke="#d14859" stroke-width="1.4"/>
    <!-- Belly icon -->
    <g transform="translate(-32 3)">
      <circle r="6" fill="none" stroke="#d14859" stroke-width="1.4"/>
      <text y="2" text-anchor="middle" style="fill:#d14859;font:700 7px Inter,sans-serif">!</text>
    </g>
    <text x="-20" y="0" style="fill:#d14859;font:700 7px Inter,sans-serif">A · abdo pain</text>
    <text x="-20" y="9" style="fill:#b4becf;font:6px Inter,sans-serif">colicky</text>
  </g>
  
  <!-- N · Nephritis -->
  <g transform="translate(50 35)">
    <rect x="-42" y="-8" width="84" height="22" rx="4" fill="rgba(79,184,168,0.18)" stroke="#4fb8a8" stroke-width="1.4"/>
    <!-- Kidney icon -->
    <g transform="translate(-32 3)">
      <path d="M -3 -5 Q -6 -5 -6 0 Q -6 5 -3 5 Q 0 5 1 0 Q 0 -5 -3 -5" fill="rgba(79,184,168,0.85)" stroke="#4fb8a8" stroke-width="1"/>
    </g>
    <text x="-20" y="0" style="fill:#4fb8a8;font:700 7px Inter,sans-serif">N · nephritis</text>
    <text x="-20" y="9" style="fill:#b4becf;font:6px Inter,sans-serif">hematuria</text>
  </g>
</g>

<text x="250" y="245" text-anchor="middle" style="fill:#6b7689;font:italic 7.5px Fraunces,serif">PAAN tetrad · most common pediatric vasculitis · post-URI by 1-2 weeks</text>

                  <!-- FOCUS · audio-aligned attention marker -->
                  <circle cx="380" cy="103" r="20" fill="none" stroke="#d14859" stroke-width="1.8" stroke-dasharray="3 2" opacity="0.85">
                    <animate attributeName="r" values="16;26;16" dur="2.4s" repeatCount="indefinite"/>
                    <animate attributeName="opacity" values="0.85;0.20;0.85" dur="2.4s" repeatCount="indefinite"/>
                  </circle>
</svg>
