<?xml version="1.0" encoding="UTF-8"?>
<!--
  Auto-generated from the reference HTML by
  scripts/storymode-extraction/extract.mjs.
  Do not edit by hand — regenerate the file instead.
-->
<svg xmlns="http://www.w3.org/2000/svg" xmlns:xlink="http://www.w3.org/1999/xlink" viewBox="0 0 500 260" preserveAspectRatio="xMidYMid meet">
<text x="20" y="16" style="fill:#e8a951;font:600 9px Inter,sans-serif;letter-spacing:2px">STEP 01 · 5 PID CATEGORIES · 5 SIGNATURES</text>

<!-- Each category as an icon card with image + name -->

<!-- HUMORAL: B cell with antibodies -->
<g transform="translate(70 130)">
  <rect x="-42" y="-50" width="84" height="100" rx="8" fill="rgba(147,112,185,0.15)" stroke="#9370b9" stroke-width="1.6"/>
  <text x="0" y="-36" text-anchor="middle" style="fill:#9370b9;font:700 8px Inter,sans-serif;letter-spacing:1.2px">HUMORAL</text>
  <!-- B cell -->
  <circle cx="0" cy="-10" r="14" fill="rgba(147,112,185,0.55)" stroke="#9370b9" stroke-width="1.4"/>
  <text x="0" y="-7" text-anchor="middle" style="fill:#e8ecf3;font:700 9px Inter,sans-serif">B</text>
  <!-- Y-shaped Igs around it -->
  <g stroke="#e8a951" stroke-width="1.4" fill="none" stroke-linecap="round">
    <g transform="translate(-15 8)"><line x1="0" y1="0" x2="0" y2="6"/><line x1="-3" y1="-3" x2="0" y2="0"/><line x1="3" y1="-3" x2="0" y2="0"/></g>
    <g transform="translate(0 14)"><line x1="0" y1="0" x2="0" y2="6"/><line x1="-3" y1="-3" x2="0" y2="0"/><line x1="3" y1="-3" x2="0" y2="0"/></g>
    <g transform="translate(15 8)"><line x1="0" y1="0" x2="0" y2="6"/><line x1="-3" y1="-3" x2="0" y2="0"/><line x1="3" y1="-3" x2="0" y2="0"/></g>
  </g>
  <text x="0" y="38" text-anchor="middle" style="fill:#d14859;font:700 6.5px Inter,sans-serif">encap &gt;6mo</text>
</g>

<!-- CELLULAR: T cell -->
<g transform="translate(165 130)">
  <rect x="-42" y="-50" width="84" height="100" rx="8" fill="rgba(108,194,125,0.15)" stroke="#6cc27d" stroke-width="1.6"/>
  <text x="0" y="-36" text-anchor="middle" style="fill:#6cc27d;font:700 8px Inter,sans-serif;letter-spacing:1.2px">CELLULAR</text>
  <!-- T cell -->
  <circle cx="0" cy="-10" r="14" fill="rgba(108,194,125,0.55)" stroke="#6cc27d" stroke-width="1.4"/>
  <text x="0" y="-7" text-anchor="middle" style="fill:#e8ecf3;font:700 9px Inter,sans-serif">T</text>
  <!-- TCR -->
  <line x1="0" y1="-24" x2="0" y2="-30" stroke="#6cc27d" stroke-width="1.6"/>
  <rect x="-3" y="-32" width="6" height="4" fill="#6cc27d"/>
  <text x="0" y="38" text-anchor="middle" style="fill:#d14859;font:700 6.5px Inter,sans-serif">opportunistic</text>
</g>

<!-- COMBINED: T + B -->
<g transform="translate(260 130)">
  <rect x="-42" y="-50" width="84" height="100" rx="8" fill="rgba(232,169,81,0.15)" stroke="#e8a951" stroke-width="1.6"/>
  <text x="0" y="-36" text-anchor="middle" style="fill:#e8a951;font:700 8px Inter,sans-serif;letter-spacing:1.2px">COMBINED</text>
  <!-- T + B paired -->
  <circle cx="-9" cy="-10" r="11" fill="rgba(108,194,125,0.55)" stroke="#6cc27d" stroke-width="1.2"/>
  <text x="-9" y="-7" text-anchor="middle" style="fill:#e8ecf3;font:700 8px Inter,sans-serif">T</text>
  <circle cx="11" cy="-10" r="11" fill="rgba(147,112,185,0.55)" stroke="#9370b9" stroke-width="1.2"/>
  <text x="11" y="-7" text-anchor="middle" style="fill:#e8ecf3;font:700 8px Inter,sans-serif">B</text>
  <!-- + sign between -->
  <text x="0" y="14" text-anchor="middle" style="fill:#e8a951;font:700 12px Inter,sans-serif">+</text>
  <text x="0" y="38" text-anchor="middle" style="fill:#d14859;font:700 6.5px Inter,sans-serif">all infections</text>
</g>

<!-- PHAGOCYTE: macrophage shape -->
<g transform="translate(355 130)">
  <rect x="-42" y="-50" width="84" height="100" rx="8" fill="rgba(79,184,168,0.15)" stroke="#4fb8a8" stroke-width="1.6"/>
  <text x="0" y="-36" text-anchor="middle" style="fill:#4fb8a8;font:700 8px Inter,sans-serif;letter-spacing:1.2px">PHAGOCYTE</text>
  <!-- Macrophage (lobed shape) -->
  <ellipse cx="0" cy="-10" rx="16" ry="13" fill="rgba(79,184,168,0.55)" stroke="#4fb8a8" stroke-width="1.4"/>
  <ellipse cx="-3" cy="-13" rx="4" ry="3" fill="#1a4d4a" opacity="0.7"/>
  <text x="0" y="-7" text-anchor="middle" style="fill:#e8ecf3;font:700 8px Inter,sans-serif">MΦ</text>
  <!-- Pseudopodia -->
  <path d="M -16 -10 L -22 -16" stroke="#4fb8a8" stroke-width="2" stroke-linecap="round"/>
  <path d="M 16 -10 L 22 -16" stroke="#4fb8a8" stroke-width="2" stroke-linecap="round"/>
  <text x="0" y="38" text-anchor="middle" style="fill:#d14859;font:700 6.5px Inter,sans-serif">catalase+ · abscess</text>
</g>

<!-- COMPLEMENT: MAC pore -->
<g transform="translate(450 130)">
  <rect x="-42" y="-50" width="84" height="100" rx="8" fill="rgba(209,72,89,0.15)" stroke="#d14859" stroke-width="1.6"/>
  <text x="0" y="-36" text-anchor="middle" style="fill:#d14859;font:700 8px Inter,sans-serif;letter-spacing:1.2px">COMPLEMENT</text>
  <!-- MAC pore (concentric rings) -->
  <g transform="translate(0 -10)">
    <circle cx="0" cy="0" r="14" fill="rgba(209,72,89,0.30)" stroke="#d14859" stroke-width="1.4"/>
    <circle cx="0" cy="0" r="9" fill="rgba(209,72,89,0.55)" stroke="#d14859" stroke-width="1.4"/>
    <circle cx="0" cy="0" r="4" fill="#1a2030" stroke="#d14859" stroke-width="1.2"/>
  </g>
  <text x="0" y="38" text-anchor="middle" style="fill:#d14859;font:700 6.5px Inter,sans-serif">Neisseria</text>
</g>

<text x="250" y="240" text-anchor="middle" style="fill:#6b7689;font:italic 7.5px Fraunces,serif">Each compartment fails differently · each has its own pattern</text>

                  <!-- FOCUS · audio-aligned attention marker -->
                  <circle cx="355" cy="89" r="20" fill="none" stroke="#d14859" stroke-width="1.8" stroke-dasharray="3 2" opacity="0.85">
                    <animate attributeName="r" values="16;26;16" dur="2.4s" repeatCount="indefinite"/>
                    <animate attributeName="opacity" values="0.85;0.20;0.85" dur="2.4s" repeatCount="indefinite"/>
                  </circle>

                  <!-- FOCUS · audio-aligned attention marker -->
                  <circle cx="450" cy="89" r="20" fill="none" stroke="#d14859" stroke-width="1.8" stroke-dasharray="3 2" opacity="0.85">
                    <animate attributeName="r" values="16;26;16" dur="2.4s" repeatCount="indefinite"/>
                    <animate attributeName="opacity" values="0.85;0.20;0.85" dur="2.4s" repeatCount="indefinite"/>
                  </circle>
</svg>
