<?xml version="1.0" encoding="UTF-8"?>
<!--
  Auto-generated from the reference HTML by
  scripts/storymode-extraction/extract.mjs.
  Do not edit by hand — regenerate the file instead.
-->
<svg xmlns="http://www.w3.org/2000/svg" xmlns:xlink="http://www.w3.org/1999/xlink" viewBox="0 0 500 260" preserveAspectRatio="xMidYMid meet">
<text x="20" y="16" style="fill:#e8a951;font:600 9px Inter,sans-serif;letter-spacing:2px">STEP 01 · 6-WK INFANT · TRIAD OF FINDINGS</text>

<!-- Detailed infant central -->
<g transform="translate(170 145)">
  <text x="0" y="-90" text-anchor="middle" style="fill:#b4becf;font:700 9px Inter,sans-serif;letter-spacing:1.5px">6-WEEK INFANT</text>
  
  <!-- Head with low-set ears + small chin -->
  <circle cx="0" cy="-70" r="22" fill="rgba(180,190,207,0.55)" stroke="#b4becf" stroke-width="1.4"/>
  <!-- Low-set ears -->
  <ellipse cx="-22" cy="-62" rx="3" ry="6" fill="rgba(180,190,207,0.85)" stroke="#b4becf" stroke-width="1"/>
  <ellipse cx="22" cy="-62" rx="3" ry="6" fill="rgba(180,190,207,0.85)" stroke="#b4becf" stroke-width="1"/>
  <!-- Cleft palate marker -->
  <line x1="-3" y1="-58" x2="3" y2="-58" stroke="#d14859" stroke-width="1.4"/>
  
  <!-- Body torso -->
  <path d="M -28 -50 Q -32 -38 -32 -25 L -32 60 L 32 60 L 32 -25 Q 32 -38 28 -50 Z" 
        fill="rgba(180,190,207,0.20)" stroke="#b4becf" stroke-width="1.4"/>
  
  <!-- HEART overlay (TOF) -->
  <g transform="translate(-7 -10)">
    <path d="M 0 -5 Q -10 -10 -10 0 Q -10 8 0 14 Q 10 8 10 0 Q 10 -10 0 -5 Z" fill="rgba(209,72,89,0.85)" stroke="#d14859" stroke-width="1.4"/>
  </g>
  
  <!-- Parathyroids (small dots in neck) - ABSENT (X'd out) -->
  <g transform="translate(0 -42)">
    <circle cx="-6" cy="0" r="3" fill="none" stroke="#9370b9" stroke-width="1" stroke-dasharray="1.5 1.5"/>
    <circle cx="6" cy="0" r="3" fill="none" stroke="#9370b9" stroke-width="1" stroke-dasharray="1.5 1.5"/>
    <line x1="-9" y1="-3" x2="9" y2="3" stroke="#d14859" stroke-width="1.6" stroke-linecap="round"/>
    <line x1="-9" y1="3" x2="9" y2="-3" stroke="#d14859" stroke-width="1.6" stroke-linecap="round"/>
  </g>
  
  <!-- Thymus (chest, butterfly shape) - ABSENT (faint w/ X) -->
  <g transform="translate(7 5)">
    <path d="M -8 -5 Q -12 0 -8 8 Q -4 10 0 4 Q 4 10 8 8 Q 12 0 8 -5 Q 4 -8 0 -3 Q -4 -8 -8 -5 Z" fill="none" stroke="#4fb8a8" stroke-width="1" stroke-dasharray="1.5 1.5"/>
    <line x1="-10" y1="-5" x2="10" y2="8" stroke="#d14859" stroke-width="1.6" stroke-linecap="round"/>
    <line x1="-10" y1="8" x2="10" y2="-5" stroke="#d14859" stroke-width="1.6" stroke-linecap="round"/>
  </g>
</g>

<!-- Three labeled findings on right -->
<g transform="translate(370 80)">
  <rect x="-105" y="-15" width="210" height="30" rx="6" fill="rgba(209,72,89,0.20)" stroke="#d14859" stroke-width="1.4"/>
  <text x="0" y="-2" text-anchor="middle" style="fill:#d14859;font:700 9px Inter,sans-serif;letter-spacing:1.2px">TETRALOGY OF FALLOT</text>
  <text x="0" y="10" text-anchor="middle" style="fill:#b4becf;font:6.5px Inter,sans-serif">cardiac · cyanotic CHD</text>
  <line x1="-105" y1="0" x2="-180" y2="32" stroke="#d14859" stroke-width="1" stroke-dasharray="2 2" opacity="0.5"/>
</g>

<g transform="translate(370 130)">
  <rect x="-105" y="-15" width="210" height="30" rx="6" fill="rgba(147,112,185,0.25)" stroke="#9370b9" stroke-width="1.4"/>
  <text x="0" y="-2" text-anchor="middle" style="fill:#9370b9;font:700 9px Inter,sans-serif;letter-spacing:1.2px">HYPOCALCEMIC TETANY</text>
  <text x="0" y="10" text-anchor="middle" style="fill:#b4becf;font:6.5px Inter,sans-serif">parathyroid · ↓ Ca²⁺</text>
  <line x1="-105" y1="0" x2="-180" y2="-25" stroke="#9370b9" stroke-width="1" stroke-dasharray="2 2" opacity="0.5"/>
</g>

<g transform="translate(370 180)">
  <rect x="-105" y="-15" width="210" height="30" rx="6" fill="rgba(79,184,168,0.25)" stroke="#4fb8a8" stroke-width="1.4"/>
  <text x="0" y="-2" text-anchor="middle" style="fill:#4fb8a8;font:700 9px Inter,sans-serif;letter-spacing:1.2px">PNEUMOCYSTIS PNA</text>
  <text x="0" y="10" text-anchor="middle" style="fill:#b4becf;font:6.5px Inter,sans-serif">immune · T-cell defect</text>
  <line x1="-105" y1="0" x2="-175" y2="-25" stroke="#4fb8a8" stroke-width="1" stroke-dasharray="2 2" opacity="0.5"/>
</g>

<text x="250" y="245" text-anchor="middle" style="fill:#6b7689;font:italic 7.5px Fraunces,serif">3 organ systems failing in 1 baby · what single defect explains all three?</text>

                  <!-- FOCUS · audio-aligned attention marker -->
                  <circle cx="370" cy="73" r="28" fill="none" stroke="#d14859" stroke-width="1.8" stroke-dasharray="3 2" opacity="0.85">
                    <animate attributeName="r" values="24;34;24" dur="2.4s" repeatCount="indefinite"/>
                    <animate attributeName="opacity" values="0.85;0.20;0.85" dur="2.4s" repeatCount="indefinite"/>
                  </circle>
</svg>
