<?xml version="1.0" encoding="UTF-8"?>
<!--
  Auto-generated from the reference HTML by
  scripts/storymode-extraction/extract.mjs.
  Do not edit by hand — regenerate the file instead.
-->
<svg xmlns="http://www.w3.org/2000/svg" xmlns:xlink="http://www.w3.org/1999/xlink" viewBox="0 0 500 260" preserveAspectRatio="xMidYMid meet">
                  <text x="20" y="22" style="fill:#e8a951;font:600 10px Inter,sans-serif;letter-spacing:2px">STEP 01 · WILL HE BE A MATCH?</text>

                  <!-- left of square: sister with bad kidney -->
                  <g transform="translate(80 130)">
    
                    <g opacity="1">
                      <circle cx="0" cy="8" r="8" fill="#e8a951" fill-opacity="0.45" stroke="#e8a951" stroke-width="1.4"></circle>
                      <path d="M -12 34 Q -13 22 -7 18 L 7 18 Q 13 22 12 34 Z" fill="#e8a951" fill-opacity="0.45" stroke="#e8a951" stroke-width="1.4"></path>
                      <text x="0" y="50" text-anchor="middle" style="fill:#e8a951;font:600 8px Inter,sans-serif;letter-spacing:1px">sister</text>
                    </g>
  
    
                    <g transform="translate(-3 70) scale(0.7)">
                      <path d="M -16 -10 Q -22 0 -16 10 Q -8 16 4 12 Q 14 8 16 -2 Q 14 -12 4 -14 Q -8 -16 -16 -10 Z" fill="#d14859" fill-opacity="0.55" stroke="#d14859" stroke-width="1.5"></path>
                    </g>
  
                    <line x1="-12" y1="60" x2="6" y2="78" stroke="#d14859" stroke-width="2" stroke-linecap="round"></line>
                    <line x1="-12" y1="78" x2="6" y2="60" stroke="#d14859" stroke-width="2" stroke-linecap="round"></line>
                  </g>

                  <!-- right of square: brother with healthy kidney -->
                  <g transform="translate(420 130)">
    
                    <g opacity="1">
                      <circle cx="0" cy="8" r="8" fill="#4fb8a8" fill-opacity="0.4" stroke="#4fb8a8" stroke-width="1.4"></circle>
                      <path d="M -12 34 Q -13 22 -7 18 L 7 18 Q 13 22 12 34 Z" fill="#4fb8a8" fill-opacity="0.4" stroke="#4fb8a8" stroke-width="1.4"></path>
                      <text x="0" y="50" text-anchor="middle" style="fill:#4fb8a8;font:600 8px Inter,sans-serif;letter-spacing:1px">brother</text>
                    </g>
  
    
                    <g transform="translate(3 70) scale(0.7)">
                      <path d="M -16 -10 Q -22 0 -16 10 Q -8 16 4 12 Q 14 8 16 -2 Q 14 -12 4 -14 Q -8 -16 -16 -10 Z" fill="#6cc27d" fill-opacity="0.55" stroke="#6cc27d" stroke-width="1.5"></path>
                    </g>
  
                  </g>

                  <!-- shared canvas: square unlabeled, all cells dim -->
  
                      <rect x="190" y="90" width="60" height="60" rx="5" fill="#3a4358" fill-opacity="0.1" stroke="#3a4358" stroke-opacity="0.35" stroke-width="1.4"></rect>
    
                      <rect x="250" y="90" width="60" height="60" rx="5" fill="#3a4358" fill-opacity="0.1" stroke="#3a4358" stroke-opacity="0.35" stroke-width="1.4"></rect>
    
                      <rect x="190" y="150" width="60" height="60" rx="5" fill="#3a4358" fill-opacity="0.1" stroke="#3a4358" stroke-opacity="0.35" stroke-width="1.4"></rect>
    
                      <rect x="250" y="150" width="60" height="60" rx="5" fill="#3a4358" fill-opacity="0.1" stroke="#3a4358" stroke-opacity="0.35" stroke-width="1.4"></rect>
    

                  <text x="250" y="262" text-anchor="middle" style="fill:#b4becf;font:italic 10px Fraunces,serif">full sibling · what's the chance of a perfect HLA match?</text>

                  <!-- FOCUS · audio-aligned attention marker -->
                  <circle cx="420" cy="175" r="20" fill="none" stroke="#d14859" stroke-width="1.8" stroke-dasharray="3 2" opacity="0.85">
                    <animate attributeName="r" values="16;26;16" dur="2.4s" repeatCount="indefinite"/>
                    <animate attributeName="opacity" values="0.85;0.20;0.85" dur="2.4s" repeatCount="indefinite"/>
                  </circle>
</svg>
