<?xml version="1.0" encoding="UTF-8"?>
<!--
  Auto-generated from the reference HTML by
  scripts/storymode-extraction/extract.mjs.
  Do not edit by hand — regenerate the file instead.
-->
<svg xmlns="http://www.w3.org/2000/svg" xmlns:xlink="http://www.w3.org/1999/xlink" viewBox="0 0 500 260" preserveAspectRatio="xMidYMid meet">
<text x="20" y="16" style="fill:#e8a951;font:600 9px Inter,sans-serif;letter-spacing:2px">STEP 01 · TCR → Ca²⁺ → CALCINEURIN</text>

<!-- T cell with TCR signaling cascade -->
<g transform="translate(250 145)">
  <!-- T cell membrane (large, central) -->
  <ellipse cx="0" cy="0" rx="220" ry="80" fill="rgba(108,194,125,0.10)" stroke="#6cc27d" stroke-width="1.6"/>
  <text x="-200" y="-65" style="fill:#6cc27d;font:700 8px Inter,sans-serif;letter-spacing:1.2px">T CELL CYTOPLASM</text>
  
  <!-- TCR at top of membrane -->
  <g transform="translate(-160 -75)">
    <rect x="-12" y="-3" width="24" height="14" rx="2" fill="rgba(147,112,185,0.85)" stroke="#9370b9" stroke-width="1.4"/>
    <text x="0" y="6" text-anchor="middle" style="fill:#0a0e1a;font:700 7px Inter,sans-serif">TCR</text>
  </g>
  
  <!-- Step 1: PLCγ → IP3 + DAG -->
  <g transform="translate(-110 -10)">
    <rect x="-22" y="-12" width="44" height="22" rx="4" fill="rgba(232,169,81,0.55)" stroke="#e8a951" stroke-width="1.4"/>
    <text x="0" y="-2" text-anchor="middle" style="fill:#0a0e1a;font:700 7px Inter,sans-serif">PLCγ</text>
    <text x="0" y="7" text-anchor="middle" style="fill:#0a0e1a;font:6px Inter,sans-serif">cleaves PIP2</text>
  </g>
  
  <!-- TCR → PLC arrow -->
  <line x1="-160" y1="-58" x2="-115" y2="-22" stroke="#3a4358" stroke-width="1.4"/>
  
  <!-- Step 2: IP3 generated -->
  <g transform="translate(-50 -25)">
    <ellipse cx="0" cy="0" rx="14" ry="8" fill="rgba(79,184,168,0.85)" stroke="#4fb8a8" stroke-width="1.2"/>
    <text x="0" y="3" text-anchor="middle" style="fill:#0a0e1a;font:700 7px Inter,sans-serif">IP3</text>
  </g>
  <line x1="-85" y1="-12" x2="-65" y2="-22" stroke="#3a4358" stroke-width="1.4"/>
  
  <!-- ER on right with IP3 receptor + Ca release -->
  <g transform="translate(40 -10)">
    <text x="0" y="-32" text-anchor="middle" style="fill:#9370b9;font:700 7.5px Inter,sans-serif;letter-spacing:1.2px">ER</text>
    <rect x="-30" y="-25" width="60" height="35" rx="5" fill="rgba(147,112,185,0.30)" stroke="#9370b9" stroke-width="1.2"/>
    <!-- Ca2+ ions inside ER -->
    <g fill="#e8a951" stroke="#e8a951" stroke-width="0.6">
      <circle cx="-15" cy="-10" r="2.5"/>
      <text x="-15" y="-8" text-anchor="middle" style="fill:#0a0e1a;font:700 5px Inter,sans-serif">Ca</text>
      <circle cx="-3" cy="-15" r="2.5"/>
      <text x="-3" y="-13" text-anchor="middle" style="fill:#0a0e1a;font:700 5px Inter,sans-serif">Ca</text>
      <circle cx="10" cy="-10" r="2.5"/>
      <text x="10" y="-8" text-anchor="middle" style="fill:#0a0e1a;font:700 5px Inter,sans-serif">Ca</text>
    </g>
    <!-- IP3 receptor channel -->
    <rect x="-3" y="10" width="6" height="6" rx="1" fill="#4fb8a8"/>
  </g>
  
  <!-- IP3 → ER arrow -->
  <line x1="-35" y1="-20" x2="20" y2="-15" stroke="#4fb8a8" stroke-width="1.6" stroke-dasharray="2 2"/>
  
  <!-- Ca2+ released into cytoplasm -->
  <g transform="translate(-30 30)">
    <text x="0" y="-15" text-anchor="middle" style="fill:#e8a951;font:700 8px Inter,sans-serif">Ca²⁺ flood</text>
    <g fill="#e8a951" stroke="#e8a951" stroke-width="0.6">
      <circle cx="-25" cy="0" r="2.5"/>
      <circle cx="-15" cy="-5" r="2.5"/>
      <circle cx="-5" cy="3" r="2.5"/>
      <circle cx="5" cy="-2" r="2.5"/>
      <circle cx="15" cy="4" r="2.5"/>
      <circle cx="25" cy="0" r="2.5"/>
      <circle cx="-20" cy="10" r="2.5"/>
      <circle cx="0" cy="13" r="2.5"/>
      <circle cx="20" cy="12" r="2.5"/>
    </g>
  </g>
  
  <!-- Calmodulin -->
  <g transform="translate(110 30)">
    <ellipse cx="0" cy="0" rx="20" ry="11" fill="rgba(180,190,207,0.65)" stroke="#b4becf" stroke-width="1.4"/>
    <text x="0" y="3" text-anchor="middle" style="fill:#0a0e1a;font:700 7px Inter,sans-serif">CaM</text>
  </g>
  <text x="110" y="55" text-anchor="middle" style="fill:#b4becf;font:italic 6.5px Fraunces,serif">+4 Ca²⁺ bound</text>
  
  <!-- Activates calcineurin -->
  <line x1="130" y1="30" x2="160" y2="30" stroke="#3a4358" stroke-width="1.4"/>
  <g transform="translate(180 30)">
    <ellipse cx="0" cy="0" rx="22" ry="14" fill="rgba(209,72,89,0.55)" stroke="#d14859" stroke-width="1.6"/>
    <text x="0" y="3" text-anchor="middle" style="fill:#0a0e1a;font:700 8px Inter,sans-serif">CaN</text>
    <text x="0" y="22" text-anchor="middle" style="fill:#d14859;font:700 7px Inter,sans-serif">ACTIVE</text>
  </g>
</g>

<text x="250" y="245" text-anchor="middle" style="fill:#6b7689;font:italic 7.5px Fraunces,serif">PLCγ → IP3 → ER Ca²⁺ release → calmodulin → calcineurin (Ser/Thr phosphatase)</text>

                  <!-- FOCUS · audio-aligned attention marker -->
                  <circle cx="140" cy="137" r="20" fill="none" stroke="#d14859" stroke-width="1.8" stroke-dasharray="3 2" opacity="0.85">
                    <animate attributeName="r" values="16;26;16" dur="2.4s" repeatCount="indefinite"/>
                    <animate attributeName="opacity" values="0.85;0.20;0.85" dur="2.4s" repeatCount="indefinite"/>
                  </circle>
</svg>
