<?xml version="1.0" encoding="UTF-8"?>
<!--
  Auto-generated from the reference HTML by
  scripts/storymode-extraction/extract.mjs.
  Do not edit by hand — regenerate the file instead.
-->
<svg xmlns="http://www.w3.org/2000/svg" xmlns:xlink="http://www.w3.org/1999/xlink" viewBox="0 0 1000 900" preserveAspectRatio="xMidYMid meet">
      <style>
        .hj-eyebrow { fill: #e8a951; font: 500 10px "Inter", sans-serif; letter-spacing: 2.5px; }
        .hj-title { fill: #e8ecf3; font: italic 400 22px "Fraunces", serif; }
        .hj-section-label { fill: #e8a951; font: 600 9px "Inter", sans-serif; letter-spacing: 1.5px; }
        .hj-section-label-bad { fill: #d14859; font: 600 9px "Inter", sans-serif; letter-spacing: 1.5px; }
        .hj-side-label { fill: #b4becf; font: 600 11px "Inter", sans-serif; letter-spacing: 2px; }
        .hj-side-status { fill: #4fb8a8; font: italic 600 12px "Fraunces", serif; }
        .hj-side-status-bad { fill: #d14859; font: italic 600 12px "Fraunces", serif; }
        .hj-step-num { fill: #e8a951; font: 700 11px "JetBrains Mono", monospace; letter-spacing: 1.5px; }
        .hj-step-name { fill: #e8ecf3; font: 600 12px "Inter", sans-serif; letter-spacing: 0.5px; }
        .hj-caption { fill: #6b7689; font: italic 400 10px "Inter", sans-serif; }
        .hj-anatomy { fill: #b4becf; font: 500 10px "Inter", sans-serif; letter-spacing: 0.5px; }
        .hj-tag-text { fill: #0a0e1a; font: 700 8px "Inter", sans-serif; letter-spacing: 1px; }
        .hj-keypoint { fill: #e8a951; font: 600 10px "Inter", sans-serif; letter-spacing: 1px; }
        .hj-keypoint-bad { fill: #d14859; font: 600 10px "Inter", sans-serif; letter-spacing: 1px; }
        .hj-callout-eyebrow { fill: #d14859; font: 600 9px "Inter", sans-serif; letter-spacing: 2px; }
        .hj-callout-eyebrow-good { fill: #4fb8a8; font: 600 9px "Inter", sans-serif; letter-spacing: 2px; }
        .hj-callout-text { fill: #b4becf; font: 400 10.5px "Inter", sans-serif; }
        .hj-arrow-label { fill: #e8a951; font: 600 9px "Inter", sans-serif; letter-spacing: 1.2px; }
        .hj-label-good { fill: #4fb8a8; font: 600 10px "Inter", sans-serif; letter-spacing: 0.5px; }
        .hj-label-bad { fill: #d14859; font: 600 10px "Inter", sans-serif; letter-spacing: 0.5px; }
        .hj-cause-title { fill: #e8ecf3; font: 600 11px "Inter", sans-serif; letter-spacing: 0.5px; }
        .hj-cause-desc { fill: #b4becf; font: italic 400 10px "Inter", sans-serif; }
      </style>
      <defs>
        <marker id="hjArrow" viewBox="0 0 10 10" refX="8" refY="5" markerWidth="6" markerHeight="6" orient="auto">
          <path d="M 0 0 L 10 5 L 0 10 z" fill="#e8a951"/>
        </marker>
        <marker id="hjArrowCrimson" viewBox="0 0 10 10" refX="8" refY="5" markerWidth="6" markerHeight="6" orient="auto">
          <path d="M 0 0 L 10 5 L 0 10 z" fill="#d14859"/>
        </marker>
        <marker id="hjArrowTeal" viewBox="0 0 10 10" refX="8" refY="5" markerWidth="6" markerHeight="6" orient="auto">
          <path d="M 0 0 L 10 5 L 0 10 z" fill="#4fb8a8"/>
        </marker>
        <symbol id="rbcNormal" overflow="visible">
          <circle cx="0" cy="0" r="18" fill="#d14859" opacity="0.75" stroke="#8b2c38" stroke-width="1"/>
          <circle cx="0" cy="0" r="9" fill="#0a0e1a" opacity="0.45"/>
        </symbol>
        <symbol id="rbcHowellJolly" overflow="visible">
          <circle cx="0" cy="0" r="18" fill="#d14859" opacity="0.75" stroke="#8b2c38" stroke-width="1"/>
          <circle cx="0" cy="0" r="9" fill="#0a0e1a" opacity="0.45"/>
          <circle cx="7" cy="-5" r="3.2" fill="#4a2d60" opacity="1" stroke="#2a1838" stroke-width="0.5"/>
        </symbol>
        <symbol id="rbcSickle" overflow="visible">
          <path d="M -18 -4 Q -10 -16 8 -14 Q 18 -8 14 2 Q 8 12 -8 10 Q -18 4 -18 -4 Z" fill="#d14859" opacity="0.78" stroke="#8b2c38" stroke-width="1"/>
        </symbol>
        <symbol id="splenicMacro" overflow="visible">
          <circle cx="0" cy="0" r="20" fill="#4fb8a8" opacity="0.7" stroke="#3a8a7e" stroke-width="1.2"/>
          <circle cx="-3" cy="-3" r="7" fill="#3a8a7e" opacity="0.6"/>
        </symbol>
      </defs>

      <text x="500" y="26" text-anchor="middle" class="hj-eyebrow">HOWELL-JOLLY BODIES · THE MORPHOLOGIC PROOF OF ASPLENIA</text>
      <text x="500" y="58" text-anchor="middle" class="hj-title">If the spleen were working, you wouldn't see these.</text>
      <line x1="40" y1="78" x2="960" y2="78" stroke="#222c3e" stroke-width="1"/>

      <!-- TOP: SMEAR VIEW -->
      <g transform="translate(40 100)">
        <text x="440" y="20" text-anchor="middle" class="hj-side-label">WHAT YOU'RE LOOKING AT ON THE SMEAR</text>
        <text x="440" y="40" text-anchor="middle" class="hj-side-status-bad">a tiny, round, basophilic inclusion inside an otherwise normal RBC</text>

        <rect x="20" y="60" width="880" height="180" rx="14" ry="14" fill="#050811" stroke="#222c3e" stroke-width="1"/>

        <!-- Normal smear -->
        <g transform="translate(220 150)">
          <text x="0" y="-70" text-anchor="middle" class="hj-label-good">NORMAL SMEAR</text>
          <text x="0" y="-54" text-anchor="middle" class="hj-caption">working spleen · no nuclear remnants</text>
          <g transform="translate(-60 -20)"><use href="#rbcNormal"/></g>
          <g transform="translate(-20 -30)"><use href="#rbcNormal"/></g>
          <g transform="translate(30 -15)"><use href="#rbcNormal"/></g>
          <g transform="translate(70 -10)"><use href="#rbcNormal"/></g>
          <g transform="translate(-55 25)"><use href="#rbcNormal"/></g>
          <g transform="translate(-10 35)"><use href="#rbcNormal"/></g>
          <g transform="translate(40 30)"><use href="#rbcNormal"/></g>
          <g transform="translate(80 40)"><use href="#rbcNormal"/></g>
        </g>

        <line x1="460" y1="80" x2="460" y2="220" stroke="#222c3e" stroke-width="1" stroke-dasharray="4 3"/>

        <!-- Asplenic smear -->
        <g transform="translate(690 150)">
          <text x="0" y="-70" text-anchor="middle" class="hj-label-bad">ASPLENIC SMEAR</text>
          <text x="0" y="-54" text-anchor="middle" class="hj-caption">Howell-Jolly bodies visible · the "proof"</text>
          <g transform="translate(-60 -20)"><use href="#rbcHowellJolly"/></g>
          <g transform="translate(-20 -30)"><use href="#rbcNormal"/></g>
          <g transform="translate(30 -15)"><use href="#rbcHowellJolly"/></g>
          <g transform="translate(70 -10)"><use href="#rbcNormal"/></g>
          <g transform="translate(-55 25)"><use href="#rbcNormal"/></g>
          <g transform="translate(-10 35)"><use href="#rbcHowellJolly"/></g>
          <g transform="translate(40 30)"><use href="#rbcNormal"/></g>
          <g transform="translate(80 40)"><use href="#rbcHowellJolly"/></g>

          <!-- Zoom callout: points from bottom-right HJ body into open space on the right -->
          <g transform="translate(80 40)">
            <line x1="10" y1="-4" x2="40" y2="-20" stroke="#e8a951" stroke-width="1" opacity="0.85"/>
            <circle cx="10" cy="-4" r="1.5" fill="#e8a951" opacity="0.9"/>
            <text x="45" y="-22" class="hj-step-name" fill="#e8a951">HJ body</text>
            <text x="45" y="-10" class="hj-caption">nuclear remnant</text>
          </g>
        </g>
      </g>

      <!-- MIDDLE: PITTING MECHANISM -->
      <g transform="translate(40 360)">
        <text x="440" y="20" text-anchor="middle" class="hj-section-label">WHY THEY APPEAR (AND WHY THEY NORMALLY DON'T)</text>
        <line x1="0" y1="32" x2="880" y2="32" stroke="#222c3e" stroke-width="1"/>

        <!-- With spleen -->
        <g transform="translate(0 60)">
          <rect x="20" y="0" width="400" height="170" rx="14" ry="14" fill="#0a0e1a" stroke="#4fb8a8" stroke-width="1" stroke-dasharray="4 3" opacity="0.7"/>
          <text x="220" y="22" text-anchor="middle" class="hj-side-label">WITH WORKING SPLEEN</text>
          <text x="220" y="40" text-anchor="middle" class="hj-side-status">the inclusion gets "pitted out"</text>

          <g transform="translate(90 100)">
            <use href="#rbcHowellJolly"/>
            <text x="0" y="38" text-anchor="middle" class="hj-caption">RBC with remnant</text>
          </g>

          <g transform="translate(170 100)">
            <path d="M -30 0 L 30 0" stroke="#e8a951" stroke-width="1.3" marker-end="url(#hjArrow)"/>
            <text x="0" y="-22" text-anchor="middle" class="hj-arrow-label">PITTING</text>
            <g transform="translate(0 -12) scale(0.5)"><use href="#splenicMacro"/></g>
          </g>

          <g transform="translate(240 100)">
            <use href="#splenicMacro"/>
            <circle cx="14" cy="-2" r="3.2" fill="#4a2d60" stroke="#2a1838" stroke-width="0.5"/>
            <text x="0" y="38" text-anchor="middle" class="hj-caption">splenic macrophage</text>
            <text x="0" y="50" text-anchor="middle" class="hj-caption">"pits" the remnant</text>
          </g>

          <g transform="translate(320 100)">
            <path d="M -30 0 L 30 0" stroke="#e8a951" stroke-width="1.3" marker-end="url(#hjArrow)"/>
          </g>

          <g transform="translate(370 100)">
            <use href="#rbcNormal"/>
            <text x="0" y="38" text-anchor="middle" class="hj-caption" fill="#4fb8a8">normal RBC</text>
          </g>
        </g>

        <!-- Without spleen -->
        <g transform="translate(460 60)">
          <rect x="20" y="0" width="400" height="170" rx="14" ry="14" fill="#0a0e1a" stroke="#d14859" stroke-width="1.5" stroke-dasharray="4 3" opacity="0.7"/>
          <text x="220" y="22" text-anchor="middle" class="hj-side-label">WITHOUT WORKING SPLEEN</text>
          <text x="220" y="40" text-anchor="middle" class="hj-side-status-bad">the remnant persists · visible on smear</text>

          <g transform="translate(90 100)">
            <use href="#rbcHowellJolly"/>
            <text x="0" y="38" text-anchor="middle" class="hj-caption">RBC with remnant</text>
          </g>

          <g transform="translate(180 100)">
            <path d="M -40 0 L 60 0" stroke="#6b7689" stroke-width="1.3" stroke-dasharray="3 2" marker-end="url(#hjArrow)" opacity="0.7"/>
            <text x="10" y="-14" text-anchor="middle" class="hj-caption">no pitting</text>
            <text x="10" y="20" text-anchor="middle" class="hj-caption" fill="#d14859">nothing removes it</text>
          </g>

          <g transform="translate(260 100)">
            <circle cx="0" cy="0" r="20" fill="none" stroke="#6b7689" stroke-width="1" stroke-dasharray="3 3" opacity="0.6"/>
            <line x1="-14" y1="-14" x2="14" y2="14" stroke="#d14859" stroke-width="1.5" opacity="0.6"/>
            <line x1="14" y1="-14" x2="-14" y2="14" stroke="#d14859" stroke-width="1.5" opacity="0.6"/>
            <text x="0" y="44" text-anchor="middle" class="hj-caption">no functional spleen</text>
          </g>

          <g transform="translate(370 100)">
            <use href="#rbcHowellJolly"/>
            <text x="0" y="38" text-anchor="middle" class="hj-caption" fill="#d14859">HJ body persists ✗</text>
          </g>
        </g>
      </g>

      <!-- TWO WAYS BAND -->
      <g transform="translate(0 610)">
        <line x1="40" y1="0" x2="960" y2="0" stroke="#222c3e" stroke-width="1"/>
        <text x="500" y="22" text-anchor="middle" class="hj-section-label">TWO WAYS THE SPLEEN STOPS WORKING</text>

        <g transform="translate(120 50)">
          <rect x="0" y="0" width="320" height="120" rx="10" ry="10" fill="#0a0e1a" stroke="#222c3e" stroke-width="1"/>
          <text x="20" y="26" class="hj-step-num">01</text>
          <text x="44" y="26" class="hj-cause-title">SURGICAL ASPLENIA</text>
          <text x="20" y="52" class="hj-cause-desc">the spleen is physically gone</text>
          <text x="20" y="68" class="hj-cause-desc">trauma · rupture · ITP · lymphoma</text>
          <text x="20" y="90" class="hj-cause-desc" fill="#d14859">→ no spleen at all</text>
          <g transform="translate(265 40)">
            <path d="M -22 -6 Q -26 2 -23 12 Q -15 23 -2 20 Q 14 17 22 8 Q 25 -2 15 -9 Q 0 -14 -10 -12 Q -19 -10 -22 -6 Z" fill="none" stroke="#6b7689" stroke-width="1" stroke-dasharray="3 3" opacity="0.5"/>
          </g>
        </g>

        <g transform="translate(560 50)">
          <rect x="0" y="0" width="320" height="120" rx="10" ry="10" fill="#e8a951" fill-opacity="0.06" stroke="#e8a951" stroke-width="1.3"/>
          <text x="20" y="26" class="hj-step-num">02</text>
          <text x="44" y="26" class="hj-cause-title">FUNCTIONAL ASPLENIA</text>
          <text x="20" y="52" class="hj-cause-desc">spleen is there, but scarred + nonfunctional</text>
          <text x="20" y="68" class="hj-cause-desc" fill="#e8a951">classic: sickle cell auto-infarction</text>
          <text x="20" y="90" class="hj-cause-desc" fill="#d14859">→ immunologically gone</text>
          <g transform="translate(265 40)">
            <path d="M -22 -6 Q -26 2 -23 12 Q -15 23 -2 20 Q 14 17 22 8 Q 25 -2 15 -9 Q 0 -14 -10 -12 Q -19 -10 -22 -6 Z" fill="#8b2c38" opacity="0.28" stroke="#8b2c38" stroke-width="1"/>
            <g stroke="#6b7689" stroke-width="0.6" opacity="0.6">
              <line x1="-17" y1="-2" x2="-8" y2="0"/>
              <line x1="-11" y1="8" x2="-1" y2="10"/>
              <line x1="4" y1="1" x2="14" y2="3"/>
            </g>
            <g transform="translate(-10 4) scale(0.3)"><use href="#rbcSickle"/></g>
            <g transform="translate(8 0) scale(0.3)"><use href="#rbcSickle"/></g>
          </g>
        </g>
      </g>

      <!-- BOTTOM RESOLVER -->
      <g transform="translate(0 810)">
        <line x1="40" y1="0" x2="960" y2="0" stroke="#222c3e" stroke-width="1"/>

        <g transform="translate(40 18)">
          <text x="0" y="14" class="hj-callout-eyebrow-good">THE CLINICAL LOGIC CHAIN</text>
          <text x="0" y="34" class="hj-callout-text">
            Howell-Jolly on smear → spleen isn't working →
          </text>
          <text x="0" y="50" class="hj-callout-text">
            risk from
            <tspan fill="#e8a951" font-weight="700">encapsulated organisms</tspan>
            →
            <tspan fill="#e8a951" font-weight="700">S. pneumoniae</tspan>
            is the answer.
          </text>
        </g>

        <g transform="translate(520 18)">
          <text x="0" y="14" class="hj-callout-eyebrow">WHERE THE DISTRACTORS BELONG</text>
          <text x="0" y="34" class="hj-callout-text">
            <tspan fill="#d14859" font-weight="700">CMV</tspan> = T-cell deficiency ·
            <tspan fill="#d14859" font-weight="700">TB</tspan> = cell-mediated immunity ·
          </text>
          <text x="0" y="50" class="hj-callout-text">
            <tspan fill="#d14859" font-weight="700">Pneumocystis</tspan> = T-cell (HIV) ·
            <tspan fill="#d14859" font-weight="700">Pseudomonas</tspan> = neutropenia/burns.
          </text>
        </g>
      </g>
    </svg>
