<?xml version="1.0" encoding="UTF-8"?>
<!--
  Auto-generated from the reference HTML by
  scripts/storymode-extraction/extract.mjs.
  Do not edit by hand — regenerate the file instead.
-->
<svg xmlns="http://www.w3.org/2000/svg" xmlns:xlink="http://www.w3.org/1999/xlink" viewBox="0 0 1000 480" preserveAspectRatio="xMidYMid meet">
      <!-- Reuses .dg4-* classes and most icons from diagram-rolling.
           Defines its own broken-integrin icon and crimson arrow marker. -->
      <defs>
        <marker id="ladArrowCrimson" viewBox="0 0 10 10" refX="8" refY="5" markerWidth="5" markerHeight="5" orient="auto">
          <path d="M 0 0 L 10 5 L 0 10 z" fill="#d14859"/>
        </marker>
        <symbol id="ladIntegrinBroken" overflow="visible">
          <line x1="0" y1="0" x2="0" y2="6" stroke="#6b7689" stroke-width="1.5" stroke-dasharray="2 2" opacity="0.6"/>
          <line x1="-3" y1="3" x2="3" y2="9" stroke="#d14859" stroke-width="1.5" stroke-linecap="round" opacity="0.85"/>
          <line x1="3" y1="3" x2="-3" y2="9" stroke="#d14859" stroke-width="1.5" stroke-linecap="round" opacity="0.85"/>
        </symbol>
      </defs>
      <style>
        .dg4-flow-broken { fill: #d14859; font: italic 700 11px "Fraunces", serif; }
        .dg4-panel-title-broken { fill: #d14859; font: italic 600 12px "Fraunces", serif; }
        .dg4-label-crimson { fill: #d14859; font: 700 10px "Inter", sans-serif; }
        .dg4-keypoint-broken { fill: #d14859; font: 600 10px "Inter", sans-serif; letter-spacing: 1px; }
      </style>

      <!-- Title -->
      <text x="500" y="26" text-anchor="middle" class="dg4-eyebrow">LEUKOCYTE ADHESION DEFICIENCY · BROKEN STEP</text>
      <text x="500" y="58" text-anchor="middle" class="dg4-title">When the integrin is missing</text>
      <line x1="40" y1="78" x2="960" y2="78" stroke="#222c3e" stroke-width="1"/>
      <text x="500" y="98" text-anchor="middle" class="dg4-flow">
        cytokines activate endothelium → selectins → rolling →
        <tspan class="dg4-flow-broken">✗ NO firm adhesion</tspan>
         → no migration
      </text>

      <!-- Panel 1: Activation (intact) -->
      <g transform="translate(40 120)">
        <rect x="0" y="0" width="220" height="320" rx="10" ry="10" fill="#0a0e1a" stroke="#222c3e" stroke-width="1"/>
        <circle cx="22" cy="22" r="11" fill="#e8a951"/>
        <text x="22" y="26" text-anchor="middle" class="dg4-panel-num">1</text>
        <text x="40" y="26" class="dg4-panel-title">Activation</text>
        <text x="40" y="40" class="dg4-panel-sub">CYTOKINES SIGNAL</text>
        <text x="110" y="60" text-anchor="middle" class="dg4-caption">blood vessel lumen</text>
        <g fill="#e8a951">
          <circle cx="58" cy="92" r="3.5"/>
          <circle cx="78" cy="105" r="3"/>
          <circle cx="72" cy="80" r="2.8"/>
          <circle cx="98" cy="98" r="3"/>
          <circle cx="142" cy="92" r="3.5"/>
          <circle cx="158" cy="108" r="2.8"/>
          <circle cx="170" cy="86" r="3"/>
        </g>
        <text x="110" y="130" text-anchor="middle" class="dg4-label-gold">TNF · IL-1</text>
        <text x="110" y="143" text-anchor="middle" class="dg4-caption">(from activated macrophages)</text>
        <path d="M 110 152 L 110 175" stroke="#e8a951" stroke-width="1.4" stroke-dasharray="3 3" marker-end="url(#rollArrow)"/>
        <rect x="10" y="186" width="200" height="22" fill="#4fb8a8" opacity="0.18" stroke="#4fb8a8" stroke-width="1"/>
        <text x="110" y="200" text-anchor="middle" class="dg4-label-teal" opacity="0.85">endothelium</text>
        <rect x="10" y="214" width="200" height="40" fill="#d14859" opacity="0.05"/>
        <text x="110" y="236" text-anchor="middle" class="dg4-caption">tissue</text>
        <line x1="20" y1="270" x2="200" y2="270" stroke="#222c3e" stroke-width="1"/>
        <text x="110" y="289" text-anchor="middle" class="dg4-keypoint">RESULT</text>
        <text x="110" y="306" text-anchor="middle" class="dg4-caption">endothelium expresses selectins</text>
      </g>

      <!-- Panel 2: Rolling (intact — selectins still work in LAD) -->
      <g transform="translate(280 120)">
        <rect x="0" y="0" width="220" height="320" rx="10" ry="10" fill="#0a0e1a" stroke="#222c3e" stroke-width="1"/>
        <circle cx="22" cy="22" r="11" fill="#e8a951"/>
        <text x="22" y="26" text-anchor="middle" class="dg4-panel-num">2</text>
        <text x="40" y="26" class="dg4-panel-title">Rolling</text>
        <text x="40" y="40" class="dg4-panel-sub">WEAK ADHESION</text>
        <text x="110" y="60" text-anchor="middle" class="dg4-caption">neutrophil rolls along the wall</text>
        <path d="M 25 90 L 50 90" stroke="#6b7689" stroke-width="1" marker-end="url(#rollArrowDim)" opacity="0.5"/>
        <path d="M 175 90 L 195 90" stroke="#6b7689" stroke-width="1" marker-end="url(#rollArrowDim)" opacity="0.5"/>
        <g transform="translate(110 145)">
          <use href="#neutrophil"/>
          <use href="#sLeX" x="-12" y="20"/>
          <use href="#sLeX" x="-4" y="22"/>
          <use href="#sLeX" x="4" y="22"/>
          <use href="#sLeX" x="12" y="20"/>
        </g>
        <text x="65" y="120" class="dg4-label">neutrophil</text>
        <line x1="80" y1="124" x2="92" y2="138" stroke="#b4becf" stroke-width="0.8"/>
        <text x="155" y="135" class="dg4-label-gold">sLeˣ</text>
        <text x="155" y="148" class="dg4-caption">(ligand)</text>
        <line x1="152" y1="138" x2="125" y2="158" stroke="#e8a951" stroke-width="0.8"/>
        <rect x="10" y="186" width="200" height="22" fill="#4fb8a8" opacity="0.55" stroke="#4fb8a8" stroke-width="1.2"/>
        <use href="#selectin" x="35" y="186"/>
        <use href="#selectin" x="60" y="186"/>
        <use href="#selectin" x="85" y="186"/>
        <use href="#selectin" x="110" y="186"/>
        <use href="#selectin" x="135" y="186"/>
        <use href="#selectin" x="160" y="186"/>
        <use href="#selectin" x="185" y="186"/>
        <text x="110" y="222" text-anchor="middle" class="dg4-label-teal">selectins on endothelium</text>
        <text x="110" y="235" text-anchor="middle" class="dg4-caption">(P-selectin, E-selectin)</text>
        <rect x="10" y="244" width="200" height="22" fill="#d14859" opacity="0.05"/>
        <text x="110" y="259" text-anchor="middle" class="dg4-caption">tissue</text>
        <line x1="20" y1="278" x2="200" y2="278" stroke="#222c3e" stroke-width="1"/>
        <text x="110" y="295" text-anchor="middle" class="dg4-keypoint">LOW AFFINITY</text>
        <text x="110" y="312" text-anchor="middle" class="dg4-caption">cell tumbles, slows down</text>
      </g>

      <!-- Panel 3: BROKEN firm adhesion — THIS STATION'S FOCUS -->
      <g transform="translate(520 120)">
        <rect x="0" y="0" width="220" height="320" rx="10" ry="10" fill="#0a0e1a" stroke="#d14859" stroke-width="1.5"/>
        <rect x="155" y="6" width="58" height="14" rx="3" fill="#d14859" opacity="0.92"/>
        <text x="184" y="16" text-anchor="middle" fill="#0a0e1a" style="font: 700 8px 'Inter', sans-serif; letter-spacing: 1px;">QUESTION</text>
        <circle cx="22" cy="22" r="11" fill="#d14859"/>
        <text x="22" y="26" text-anchor="middle" class="dg4-panel-num">3</text>
        <text x="40" y="26" class="dg4-panel-title-broken">Firm adhesion ✗</text>
        <text x="40" y="40" class="dg4-panel-sub">CD18 DEFECT</text>
        <text x="110" y="60" text-anchor="middle" class="dg4-caption">cell drifts past — never grips</text>
        <path d="M 25 130 L 55 130" stroke="#d14859" stroke-width="1.3" marker-end="url(#ladArrowCrimson)" opacity="0.8"/>
        <path d="M 165 130 L 195 130" stroke="#d14859" stroke-width="1.3" marker-end="url(#ladArrowCrimson)" opacity="0.8"/>
        <g transform="translate(125 130)">
          <use href="#neutrophil"/>
          <use href="#ladIntegrinBroken" x="-12" y="20"/>
          <use href="#ladIntegrinBroken" x="-4" y="22"/>
          <use href="#ladIntegrinBroken" x="4" y="22"/>
          <use href="#ladIntegrinBroken" x="12" y="20"/>
        </g>
        <text x="60" y="82" class="dg4-label-crimson">no integrin</text>
        <text x="60" y="95" class="dg4-caption">(CD18 defect)</text>
        <line x1="88" y1="92" x2="108" y2="115" stroke="#d14859" stroke-width="0.8"/>
        <rect x="10" y="194" width="200" height="22" fill="#4fb8a8" opacity="0.55" stroke="#4fb8a8" stroke-width="1.2"/>
        <use href="#icam" x="98" y="194"/>
        <use href="#icam" x="106" y="194"/>
        <use href="#icam" x="114" y="194"/>
        <use href="#icam" x="122" y="194"/>
        <text x="110" y="172" text-anchor="middle" class="dg4-label-crimson" style="font-size: 14px;">✗</text>
        <text x="40" y="205" class="dg4-label-teal">ICAM-1</text>
        <line x1="62" y1="201" x2="86" y2="190" stroke="#4fb8a8" stroke-width="0.8"/>
        <text x="110" y="232" text-anchor="middle" class="dg4-caption">unbound — no integrin to grip</text>
        <rect x="10" y="244" width="200" height="22" fill="#d14859" opacity="0.05"/>
        <text x="110" y="259" text-anchor="middle" class="dg4-caption">tissue (no neutrophils arrive)</text>
        <line x1="20" y1="278" x2="200" y2="278" stroke="#222c3e" stroke-width="1"/>
        <text x="110" y="295" text-anchor="middle" class="dg4-keypoint-broken">NO ADHESION</text>
        <text x="110" y="312" text-anchor="middle" class="dg4-caption">cell stays in circulation, piles up</text>
      </g>

      <!-- Panel 4: Migration — also broken (cascade is downstream-failed) -->
      <g transform="translate(760 120)">
        <rect x="0" y="0" width="220" height="320" rx="10" ry="10" fill="#0a0e1a" stroke="#222c3e" stroke-width="1" opacity="0.55"/>
        <circle cx="22" cy="22" r="11" fill="#6b7689"/>
        <text x="22" y="26" text-anchor="middle" class="dg4-panel-num">4</text>
        <text x="40" y="26" class="dg4-panel-title" opacity="0.5">Migration</text>
        <text x="40" y="40" class="dg4-panel-sub" opacity="0.5">DIAPEDESIS</text>
        <text x="110" y="60" text-anchor="middle" class="dg4-caption" opacity="0.6">never happens</text>
        <rect x="10" y="170" width="200" height="22" fill="#4fb8a8" opacity="0.4" stroke="#4fb8a8" stroke-width="1.2"/>
        <text x="110" y="184" text-anchor="middle" class="dg4-label-teal" opacity="0.7">endothelium</text>
        <g fill="#e8a951" opacity="0.35">
          <circle cx="50" cy="218" r="1.5"/>
          <circle cx="75" cy="222" r="1.8"/>
          <circle cx="90" cy="232" r="2"/>
          <circle cx="115" cy="228" r="2"/>
          <circle cx="130" cy="240" r="2.3"/>
          <circle cx="155" cy="232" r="2"/>
          <circle cx="170" cy="245" r="2.5"/>
          <circle cx="60" cy="240" r="1.8"/>
          <circle cx="100" cy="248" r="2"/>
          <circle cx="140" cy="250" r="2.2"/>
          <circle cx="180" cy="220" r="1.6"/>
        </g>
        <text x="60" y="250" class="dg4-label-gold" opacity="0.5">chemokines</text>
        <text x="60" y="262" class="dg4-caption" opacity="0.6">(calling — but no one comes)</text>
        <line x1="20" y1="278" x2="200" y2="278" stroke="#222c3e" stroke-width="1"/>
        <text x="110" y="295" text-anchor="middle" class="dg4-keypoint-broken">TISSUE EXPOSED</text>
        <text x="110" y="312" text-anchor="middle" class="dg4-caption">no pus, no neutrophils, infection spreads</text>
      </g>

      <!-- Bottom caption: the LAD tetrad -->
      <line x1="40" y1="455" x2="960" y2="455" stroke="#222c3e" stroke-width="1"/>
      <text x="500" y="475" text-anchor="middle" class="dg4-caption">
        The LAD tetrad: <tspan fill="#d14859" font-weight="700">delayed cord separation</tspan> ·
        <tspan fill="#d14859" font-weight="700">recurrent infections without pus</tspan> ·
        <tspan fill="#d14859" font-weight="700">marked neutrophilia</tspan> ·
        defect in <tspan fill="#e8a951" font-weight="700">CD18 (β2 integrin)</tspan>.
      </text>
    </svg>
