<?xml version="1.0" encoding="UTF-8"?>
<!--
  Auto-generated from the reference HTML by
  scripts/storymode-extraction/extract.mjs.
  Do not edit by hand — regenerate the file instead.
-->
<svg xmlns="http://www.w3.org/2000/svg" xmlns:xlink="http://www.w3.org/1999/xlink" viewBox="0 0 1000 760" preserveAspectRatio="xMidYMid meet">
      <style>
        .sm-eyebrow { fill: #e8a951; font: 500 10px "Inter", sans-serif; letter-spacing: 2.5px; }
        .sm-title { fill: #e8ecf3; font: italic 400 22px "Fraunces", serif; }
        .sm-section-label { fill: #e8a951; font: 600 9.5px "Inter", sans-serif; letter-spacing: 1.8px; }
        .sm-pattern-name { fill: #e8ecf3; font: 600 12px "Inter", sans-serif; letter-spacing: 0.3px; }
        .sm-pattern-disease { fill: #6b7689; font: 600 10px "Inter", sans-serif; letter-spacing: 0.5px; }
        .sm-pattern-disease-hl { fill: #e8a951; font: 700 10.5px "Inter", sans-serif; letter-spacing: 0.5px; }
        .sm-caption { fill: #6b7689; font: italic 400 10px "Inter", sans-serif; }
        .sm-caption-sm { fill: #6b7689; font: italic 400 9px "Inter", sans-serif; }
        .sm-step-title { fill: #e8ecf3; font: 600 11px "Inter", sans-serif; letter-spacing: 0.3px; }
        .sm-step-badge { fill: #0a0e1a; font: 700 9px "JetBrains Mono", monospace; letter-spacing: 0.5px; }
        .sm-key-accent { fill: #e8a951; font: 700 12px "Inter", sans-serif; letter-spacing: 0.5px; }
      </style>
      <defs>
        <marker id="smArrow" viewBox="0 0 10 10" refX="8" refY="5" markerWidth="7" markerHeight="7" orient="auto">
          <path d="M 0 0 L 10 5 L 0 10 z" fill="#e8a951"/>
        </marker>
        <symbol id="smNeu" overflow="visible">
          <circle cx="0" cy="0" r="3.5" fill="#e8a951" opacity="0.9" stroke="#a87b3c" stroke-width="0.4"/>
          <circle cx="-1" cy="-0.5" r="0.9" fill="#4a2d60" opacity="0.8"/>
          <circle cx="1" cy="0.5" r="0.9" fill="#4a2d60" opacity="0.8"/>
        </symbol>
        <symbol id="smMac" overflow="visible">
          <ellipse cx="0" cy="0" rx="8" ry="4" fill="#9370b9" opacity="0.55" stroke="#4a2d60" stroke-width="0.5"/>
          <ellipse cx="0" cy="0" rx="3" ry="1.8" fill="#4a2d60" opacity="0.7"/>
        </symbol>
        <symbol id="smGiant" overflow="visible">
          <circle cx="0" cy="0" r="11" fill="#9370b9" opacity="0.4" stroke="#4a2d60" stroke-width="0.8"/>
          <circle cx="-7" cy="-3" r="1.6" fill="#4a2d60" opacity="0.85"/>
          <circle cx="-4" cy="-7" r="1.6" fill="#4a2d60" opacity="0.85"/>
          <circle cx="0" cy="-8" r="1.6" fill="#4a2d60" opacity="0.85"/>
          <circle cx="4" cy="-7" r="1.6" fill="#4a2d60" opacity="0.85"/>
          <circle cx="7" cy="-3" r="1.6" fill="#4a2d60" opacity="0.85"/>
        </symbol>
        <symbol id="smLymph" overflow="visible">
          <circle cx="0" cy="0" r="3" fill="#4fb8a8" opacity="0.55" stroke="#3a8a7e" stroke-width="0.4"/>
          <circle cx="0" cy="0" r="1.8" fill="#3a8a7e" opacity="0.75"/>
        </symbol>
        <symbol id="smEos" overflow="visible">
          <circle cx="0" cy="0" r="5" fill="#e8a8a0" opacity="0.85" stroke="#b86960" stroke-width="0.5"/>
          <circle cx="-1.8" cy="0" r="1.4" fill="#4a2d60" opacity="0.75"/>
          <circle cx="1.8" cy="0" r="1.4" fill="#4a2d60" opacity="0.75"/>
          <circle cx="0" cy="-2.5" r="0.7" fill="#d14859" opacity="0.8"/>
          <circle cx="-2.5" cy="2" r="0.7" fill="#d14859" opacity="0.8"/>
          <circle cx="2.5" cy="2" r="0.7" fill="#d14859" opacity="0.8"/>
          <circle cx="3" cy="-1.5" r="0.7" fill="#d14859" opacity="0.8"/>
          <circle cx="-3" cy="-1.5" r="0.7" fill="#d14859" opacity="0.8"/>
        </symbol>
        <symbol id="smBart" overflow="visible">
          <rect x="-2.5" y="-0.9" width="5" height="1.8" rx="0.9" fill="#7a4a9e" opacity="0.95" stroke="#4a2d60" stroke-width="0.3"/>
        </symbol>
        <symbol id="smCat" overflow="visible">
          <circle cx="0" cy="2" r="10" fill="none" stroke="#b4becf" stroke-width="1.2"/>
          <path d="M -9 -4 L -6 -11 L -3 -5 Z" fill="#b4becf" opacity="0.8"/>
          <path d="M 9 -4 L 6 -11 L 3 -5 Z" fill="#b4becf" opacity="0.8"/>
          <circle cx="-3.5" cy="0" r="1" fill="#e8a951"/>
          <circle cx="3.5" cy="0" r="1" fill="#e8a951"/>
          <path d="M 0 3 L -1 4 L 1 4 Z" fill="#d14859"/>
          <line x1="-6" y1="5" x2="-12" y2="4" stroke="#b4becf" stroke-width="0.4"/>
          <line x1="-6" y1="6" x2="-12" y2="7" stroke="#b4becf" stroke-width="0.4"/>
          <line x1="6" y1="5" x2="12" y2="4" stroke="#b4becf" stroke-width="0.4"/>
          <line x1="6" y1="6" x2="12" y2="7" stroke="#b4becf" stroke-width="0.4"/>
        </symbol>
      </defs>

      <!-- TITLE -->
      <text x="500" y="26" text-anchor="middle" class="sm-eyebrow">GRANULOMA FINGERPRINTS · THE FLAVOR OF GRANULOMA POINTS TO A SPECIFIC PATHOGEN</text>
      <text x="500" y="58" text-anchor="middle" class="sm-title">Stellate microabscesses inside granulomas = cat scratch disease.</text>
      <line x1="40" y1="78" x2="960" y2="78" stroke="#222c3e" stroke-width="1"/>

      <!-- ZONE 1 · FOUR GRANULOMA SUB-PATTERNS -->
      <g transform="translate(0 100)">
        <text x="500" y="16" text-anchor="middle" class="sm-section-label">THE FOUR CLASSIC GRANULOMA SUB-PATTERNS</text>

        <!-- VIEWFIELD 1 · CASEATING -->
        <g transform="translate(130 140)">
          <circle cx="0" cy="0" r="60" fill="#050811" stroke="#222c3e" stroke-width="1.5" stroke-dasharray="3 2"/>
          <path d="M -14 -10 Q -22 -5 -18 8 Q -10 18 2 15 Q 15 12 18 0 Q 20 -12 8 -15 Q -5 -18 -14 -10 Z"
                fill="#d14859" fill-opacity="0.35" stroke="#d14859" stroke-width="0.6" stroke-dasharray="1.5 1.5"/>
          <g transform="translate(-12 -28)"><use href="#smGiant"/></g>
          <g transform="translate(22 -18) rotate(50)"><use href="#smMac"/></g>
          <g transform="translate(30 5) rotate(100)"><use href="#smMac"/></g>
          <g transform="translate(22 25) rotate(140)"><use href="#smMac"/></g>
          <g transform="translate(-5 32) rotate(180)"><use href="#smMac"/></g>
          <g transform="translate(-28 22) rotate(225)"><use href="#smMac"/></g>
          <g transform="translate(-32 -5) rotate(265)"><use href="#smMac"/></g>
          <g transform="translate(10 -28) rotate(20)"><use href="#smMac"/></g>
          <g transform="translate(0 -48)"><use href="#smLymph"/></g>
          <g transform="translate(32 -38)"><use href="#smLymph"/></g>
          <g transform="translate(48 -15)"><use href="#smLymph"/></g>
          <g transform="translate(48 15)"><use href="#smLymph"/></g>
          <g transform="translate(32 40)"><use href="#smLymph"/></g>
          <g transform="translate(0 50)"><use href="#smLymph"/></g>
          <g transform="translate(-32 40)"><use href="#smLymph"/></g>
          <g transform="translate(-48 15)"><use href="#smLymph"/></g>
          <g transform="translate(-48 -15)"><use href="#smLymph"/></g>
          <g transform="translate(-32 -38)"><use href="#smLymph"/></g>
        </g>
        <text x="130" y="222" text-anchor="middle" class="sm-pattern-name">Caseating</text>
        <text x="130" y="238" text-anchor="middle" class="sm-pattern-disease">→ TB (classically)</text>
        <text x="130" y="254" text-anchor="middle" class="sm-caption-sm">amorphous cheesy necrosis</text>

        <!-- VIEWFIELD 2 · NONCASEATING -->
        <g transform="translate(370 140)">
          <circle cx="0" cy="0" r="60" fill="#050811" stroke="#222c3e" stroke-width="1.5" stroke-dasharray="3 2"/>
          <g transform="translate(0 0)"><use href="#smGiant"/></g>
          <g transform="translate(-18 -5) rotate(-20)"><use href="#smMac"/></g>
          <g transform="translate(18 -5) rotate(20)"><use href="#smMac"/></g>
          <g transform="translate(-14 15) rotate(-60)"><use href="#smMac"/></g>
          <g transform="translate(14 15) rotate(60)"><use href="#smMac"/></g>
          <g transform="translate(-2 20) rotate(180)"><use href="#smMac"/></g>
          <g transform="translate(-32 -15) rotate(-40)"><use href="#smMac"/></g>
          <g transform="translate(32 -15) rotate(40)"><use href="#smMac"/></g>
          <g transform="translate(-25 28) rotate(-110)"><use href="#smMac"/></g>
          <g transform="translate(25 28) rotate(110)"><use href="#smMac"/></g>
          <g transform="translate(0 -28) rotate(0)"><use href="#smMac"/></g>
          <g transform="translate(0 -48)"><use href="#smLymph"/></g>
          <g transform="translate(28 -38)"><use href="#smLymph"/></g>
          <g transform="translate(45 -18)"><use href="#smLymph"/></g>
          <g transform="translate(50 8)"><use href="#smLymph"/></g>
          <g transform="translate(35 35)"><use href="#smLymph"/></g>
          <g transform="translate(5 50)"><use href="#smLymph"/></g>
          <g transform="translate(-28 42)"><use href="#smLymph"/></g>
          <g transform="translate(-45 20)"><use href="#smLymph"/></g>
          <g transform="translate(-48 -10)"><use href="#smLymph"/></g>
          <g transform="translate(-30 -35)"><use href="#smLymph"/></g>
        </g>
        <text x="370" y="222" text-anchor="middle" class="sm-pattern-name">Noncaseating</text>
        <text x="370" y="238" text-anchor="middle" class="sm-pattern-disease">→ sarcoidosis (classically)</text>
        <text x="370" y="254" text-anchor="middle" class="sm-caption-sm">no central necrosis</text>

        <!-- VIEWFIELD 3 · STELLATE MICROABSCESSES [HIGHLIGHTED] -->
        <g transform="translate(610 140)">
          <circle cx="0" cy="0" r="68" fill="#e8a951" fill-opacity="0.06" stroke="none"/>
          <circle cx="0" cy="0" r="60" fill="#050811" stroke="#e8a951" stroke-width="2" stroke-dasharray="3 2"/>
          <polygon points="28,0 9.8,4 19.8,19.8 4,9.8 0,28 -4,9.8 -19.8,19.8 -9.8,4 -28,0 -9.8,-4 -19.8,-19.8 -4,-9.8 0,-28 4,-9.8 19.8,-19.8 9.8,-4"
                   fill="#e8a951" fill-opacity="0.18" stroke="#a87b3c" stroke-width="0.5"/>
          <g transform="translate(0 0)"><use href="#smNeu"/></g>
          <g transform="translate(-3 -2)"><use href="#smNeu"/></g>
          <g transform="translate(3 -2)"><use href="#smNeu"/></g>
          <g transform="translate(0 3)"><use href="#smNeu"/></g>
          <g transform="translate(8 0)"><use href="#smNeu"/></g>
          <g transform="translate(14 0)"><use href="#smNeu"/></g>
          <g transform="translate(20 0)"><use href="#smNeu"/></g>
          <g transform="translate(6 -6)"><use href="#smNeu"/></g>
          <g transform="translate(10 -10)"><use href="#smNeu"/></g>
          <g transform="translate(14 -14)"><use href="#smNeu"/></g>
          <g transform="translate(0 -8)"><use href="#smNeu"/></g>
          <g transform="translate(0 -14)"><use href="#smNeu"/></g>
          <g transform="translate(0 -20)"><use href="#smNeu"/></g>
          <g transform="translate(-6 -6)"><use href="#smNeu"/></g>
          <g transform="translate(-10 -10)"><use href="#smNeu"/></g>
          <g transform="translate(-14 -14)"><use href="#smNeu"/></g>
          <g transform="translate(-8 0)"><use href="#smNeu"/></g>
          <g transform="translate(-14 0)"><use href="#smNeu"/></g>
          <g transform="translate(-20 0)"><use href="#smNeu"/></g>
          <g transform="translate(-6 6)"><use href="#smNeu"/></g>
          <g transform="translate(-10 10)"><use href="#smNeu"/></g>
          <g transform="translate(-14 14)"><use href="#smNeu"/></g>
          <g transform="translate(0 8)"><use href="#smNeu"/></g>
          <g transform="translate(0 14)"><use href="#smNeu"/></g>
          <g transform="translate(0 20)"><use href="#smNeu"/></g>
          <g transform="translate(6 6)"><use href="#smNeu"/></g>
          <g transform="translate(10 10)"><use href="#smNeu"/></g>
          <g transform="translate(14 14)"><use href="#smNeu"/></g>
          <g transform="translate(0 -38) rotate(0)"><use href="#smMac"/></g>
          <g transform="translate(28 -28) rotate(45)"><use href="#smMac"/></g>
          <g transform="translate(38 0) rotate(90)"><use href="#smMac"/></g>
          <g transform="translate(28 28) rotate(135)"><use href="#smMac"/></g>
          <g transform="translate(0 38) rotate(180)"><use href="#smMac"/></g>
          <g transform="translate(-28 28) rotate(225)"><use href="#smMac"/></g>
          <g transform="translate(-38 0) rotate(270)"><use href="#smMac"/></g>
          <g transform="translate(-28 -28) rotate(315)"><use href="#smMac"/></g>
          <g transform="translate(0 -50)"><use href="#smLymph"/></g>
          <g transform="translate(35 -40)"><use href="#smLymph"/></g>
          <g transform="translate(48 -15)"><use href="#smLymph"/></g>
          <g transform="translate(48 15)"><use href="#smLymph"/></g>
          <g transform="translate(35 40)"><use href="#smLymph"/></g>
          <g transform="translate(0 50)"><use href="#smLymph"/></g>
          <g transform="translate(-35 40)"><use href="#smLymph"/></g>
          <g transform="translate(-48 15)"><use href="#smLymph"/></g>
          <g transform="translate(-48 -15)"><use href="#smLymph"/></g>
          <g transform="translate(-35 -40)"><use href="#smLymph"/></g>
          <g transform="translate(0 -75)">
            <rect x="-40" y="-6" width="80" height="14" rx="3" fill="#e8a951"/>
            <text x="0" y="4" text-anchor="middle" style="fill:#0a0e1a; font: 700 8.5px 'Inter', sans-serif; letter-spacing: 1.5px;">EXAM FOCUS</text>
          </g>
        </g>
        <text x="610" y="222" text-anchor="middle" class="sm-pattern-name" fill="#e8a951">Stellate microabscesses</text>
        <text x="610" y="238" text-anchor="middle" class="sm-pattern-disease-hl">→ CAT SCRATCH DISEASE</text>
        <text x="610" y="254" text-anchor="middle" class="sm-caption-sm">star of neutrophils · macrophage rim</text>

        <!-- VIEWFIELD 4 · EOSINOPHILIC -->
        <g transform="translate(850 140)">
          <circle cx="0" cy="0" r="60" fill="#050811" stroke="#222c3e" stroke-width="1.5" stroke-dasharray="3 2"/>
          <g transform="translate(0 -10)"><use href="#smEos"/></g>
          <g transform="translate(-18 -5)"><use href="#smEos"/></g>
          <g transform="translate(15 5)"><use href="#smEos"/></g>
          <g transform="translate(-8 12)"><use href="#smEos"/></g>
          <g transform="translate(10 -20)"><use href="#smEos"/></g>
          <g transform="translate(22 -10)"><use href="#smEos"/></g>
          <g transform="translate(-22 15)"><use href="#smEos"/></g>
          <g transform="translate(8 20)"><use href="#smEos"/></g>
          <g transform="translate(-5 -25)"><use href="#smEos"/></g>
          <g transform="translate(20 18)"><use href="#smEos"/></g>
          <g transform="translate(-30 -18) rotate(-30)"><use href="#smMac"/></g>
          <g transform="translate(30 -22) rotate(30)"><use href="#smMac"/></g>
          <g transform="translate(-25 28) rotate(-110)"><use href="#smMac"/></g>
          <g transform="translate(28 25) rotate(110)"><use href="#smMac"/></g>
          <g transform="translate(0 30) rotate(180)"><use href="#smMac"/></g>
          <g transform="translate(0 -50)"><use href="#smLymph"/></g>
          <g transform="translate(35 -40)"><use href="#smLymph"/></g>
          <g transform="translate(50 -10)"><use href="#smLymph"/></g>
          <g transform="translate(45 20)"><use href="#smLymph"/></g>
          <g transform="translate(18 48)"><use href="#smLymph"/></g>
          <g transform="translate(-18 48)"><use href="#smLymph"/></g>
          <g transform="translate(-45 20)"><use href="#smLymph"/></g>
          <g transform="translate(-50 -10)"><use href="#smLymph"/></g>
          <g transform="translate(-35 -40)"><use href="#smLymph"/></g>
        </g>
        <text x="850" y="222" text-anchor="middle" class="sm-pattern-name">With eosinophils</text>
        <text x="850" y="238" text-anchor="middle" class="sm-pattern-disease">→ parasitic infections</text>
        <text x="850" y="254" text-anchor="middle" class="sm-caption-sm">pink granular cells mixed in</text>

        <text x="500" y="290" text-anchor="middle" class="sm-caption" fill="#b4becf">pathologists use these as <tspan fill="#4fb8a8" font-weight="700">diagnostic fingerprints</tspan></text>
      </g>

      <!-- ZONE 2 · THE IMMUNE STORY -->
      <g transform="translate(0 420)">
        <text x="500" y="16" text-anchor="middle" class="sm-section-label">THE IMMUNE STORY · HOW BARTONELLA MAKES A STELLATE MICROABSCESS</text>

        <!-- STEP 1: CAT SCRATCH -->
        <g transform="translate(120 110)">
          <g transform="translate(-24 -20)"><use href="#smCat"/></g>
          <g transform="translate(-5 -5)">
            <line x1="0" y1="0" x2="28" y2="10" stroke="#d14859" stroke-width="1.8"/>
            <line x1="0" y1="6" x2="28" y2="16" stroke="#d14859" stroke-width="1.8"/>
            <line x1="0" y1="12" x2="28" y2="22" stroke="#d14859" stroke-width="1.8"/>
          </g>
          <g transform="translate(30 5)"><use href="#smBart"/></g>
          <g transform="translate(33 12)"><use href="#smBart"/></g>
          <g transform="translate(36 2)"><use href="#smBart"/></g>
          <g transform="translate(-45 -55)">
            <circle cx="0" cy="0" r="11" fill="#e8a951" stroke="#0a0e1a" stroke-width="1.5"/>
            <text x="0" y="3" text-anchor="middle" class="sm-step-badge">01</text>
          </g>
          <text x="0" y="50" text-anchor="middle" class="sm-step-title">Bartonella enters</text>
          <text x="0" y="64" text-anchor="middle" class="sm-caption">via cat scratch</text>
        </g>

        <path d="M 190 110 L 270 110" stroke="#e8a951" stroke-width="1.3" fill="none" marker-end="url(#smArrow)"/>

        <!-- STEP 2: DRAINS TO LYMPH NODE -->
        <g transform="translate(360 110)">
          <path d="M -35 20 Q -38 5 -30 -10 Q -20 -30 -8 -40" stroke="#6b7689" stroke-width="8" fill="none" stroke-linecap="round" opacity="0.5"/>
          <ellipse cx="8" cy="-38" rx="13" ry="10" fill="#d14859" opacity="0.35" stroke="#d14859" stroke-width="1.3"/>
          <ellipse cx="8" cy="-38" rx="7" ry="5" fill="#d14859" opacity="0.5"/>
          <g transform="translate(-20 0)"><use href="#smBart"/></g>
          <g transform="translate(-14 -15)"><use href="#smBart"/></g>
          <g transform="translate(-6 -28)"><use href="#smBart"/></g>
          <path d="M -32 15 Q -25 -5 -10 -25" stroke="#4fb8a8" stroke-width="1" fill="none" stroke-dasharray="2 2" opacity="0.7" marker-end="url(#smArrow)"/>
          <g transform="translate(-45 -55)">
            <circle cx="0" cy="0" r="11" fill="#e8a951" stroke="#0a0e1a" stroke-width="1.5"/>
            <text x="0" y="3" text-anchor="middle" class="sm-step-badge">02</text>
          </g>
          <text x="0" y="50" text-anchor="middle" class="sm-step-title">drains to axillary LN</text>
          <text x="0" y="64" text-anchor="middle" class="sm-caption">regional lymphadenitis</text>
        </g>

        <path d="M 440 110 L 520 110" stroke="#e8a951" stroke-width="1.3" fill="none" marker-end="url(#smArrow)"/>

        <!-- STEP 3: NEUTROPHILS FORM THE STAR -->
        <g transform="translate(610 110)">
          <polygon points="22,0 7.8,3 15.5,15.5 3,7.8 0,22 -3,7.8 -15.5,15.5 -7.8,3 -22,0 -7.8,-3 -15.5,-15.5 -3,-7.8 0,-22 3,-7.8 15.5,-15.5 7.8,-3"
                   fill="#e8a951" fill-opacity="0.18" stroke="#a87b3c" stroke-width="0.5"/>
          <g transform="translate(0 0)"><use href="#smNeu"/></g>
          <g transform="translate(-3 -2)"><use href="#smNeu"/></g>
          <g transform="translate(3 -2)"><use href="#smNeu"/></g>
          <g transform="translate(10 0)"><use href="#smNeu"/></g>
          <g transform="translate(16 0)"><use href="#smNeu"/></g>
          <g transform="translate(7 -7)"><use href="#smNeu"/></g>
          <g transform="translate(12 -12)"><use href="#smNeu"/></g>
          <g transform="translate(0 -10)"><use href="#smNeu"/></g>
          <g transform="translate(0 -16)"><use href="#smNeu"/></g>
          <g transform="translate(-7 -7)"><use href="#smNeu"/></g>
          <g transform="translate(-12 -12)"><use href="#smNeu"/></g>
          <g transform="translate(-10 0)"><use href="#smNeu"/></g>
          <g transform="translate(-16 0)"><use href="#smNeu"/></g>
          <g transform="translate(-7 7)"><use href="#smNeu"/></g>
          <g transform="translate(-12 12)"><use href="#smNeu"/></g>
          <g transform="translate(0 10)"><use href="#smNeu"/></g>
          <g transform="translate(0 16)"><use href="#smNeu"/></g>
          <g transform="translate(7 7)"><use href="#smNeu"/></g>
          <g transform="translate(12 12)"><use href="#smNeu"/></g>
          <g transform="translate(-1 0)"><use href="#smBart"/></g>
          <g transform="translate(2 1)"><use href="#smBart"/></g>
          <g transform="translate(-45 -55)">
            <circle cx="0" cy="0" r="11" fill="#e8a951" stroke="#0a0e1a" stroke-width="1.5"/>
            <text x="0" y="3" text-anchor="middle" class="sm-step-badge">03</text>
          </g>
          <text x="0" y="50" text-anchor="middle" class="sm-step-title">neutrophils form the star</text>
          <text x="0" y="64" text-anchor="middle" class="sm-caption">acute reaction to bacteria</text>
        </g>

        <path d="M 685 110 L 770 110" stroke="#e8a951" stroke-width="1.3" fill="none" marker-end="url(#smArrow)"/>

        <!-- STEP 4: MACROPHAGES WALL OFF -->
        <g transform="translate(860 110)">
          <polygon points="18,0 6.3,2.5 12.7,12.7 2.5,6.3 0,18 -2.5,6.3 -12.7,12.7 -6.3,2.5 -18,0 -6.3,-2.5 -12.7,-12.7 -2.5,-6.3 0,-18 2.5,-6.3 12.7,-12.7 6.3,-2.5"
                   fill="#e8a951" fill-opacity="0.2" stroke="#a87b3c" stroke-width="0.5"/>
          <g transform="translate(0 0)"><use href="#smNeu"/></g>
          <g transform="translate(-3 -2)"><use href="#smNeu"/></g>
          <g transform="translate(3 -2)"><use href="#smNeu"/></g>
          <g transform="translate(10 0)"><use href="#smNeu"/></g>
          <g transform="translate(-10 0)"><use href="#smNeu"/></g>
          <g transform="translate(0 -10)"><use href="#smNeu"/></g>
          <g transform="translate(0 10)"><use href="#smNeu"/></g>
          <g transform="translate(0 -28) rotate(0)"><use href="#smMac"/></g>
          <g transform="translate(20 -20) rotate(45)"><use href="#smMac"/></g>
          <g transform="translate(28 0) rotate(90)"><use href="#smMac"/></g>
          <g transform="translate(20 20) rotate(135)"><use href="#smMac"/></g>
          <g transform="translate(0 28) rotate(180)"><use href="#smMac"/></g>
          <g transform="translate(-20 20) rotate(225)"><use href="#smMac"/></g>
          <g transform="translate(-28 0) rotate(270)"><use href="#smMac"/></g>
          <g transform="translate(-20 -20) rotate(315)"><use href="#smMac"/></g>
          <g transform="translate(-45 -55)">
            <circle cx="0" cy="0" r="11" fill="#e8a951" stroke="#0a0e1a" stroke-width="1.5"/>
            <text x="0" y="3" text-anchor="middle" class="sm-step-badge">04</text>
          </g>
          <text x="0" y="50" text-anchor="middle" class="sm-step-title">macrophages wall it off</text>
          <text x="0" y="64" text-anchor="middle" class="sm-caption-sm" fill="#e8a951">= HYBRID PATTERN</text>
          <text x="0" y="78" text-anchor="middle" class="sm-caption-sm">acute inside · chronic outside</text>
        </g>

        <!-- Insight box -->
        <g transform="translate(0 220)">
          <rect x="120" y="0" width="760" height="44" rx="8" fill="#111826" stroke="#4fb8a8" stroke-width="1" stroke-dasharray="3 2" opacity="0.9"/>
          <text x="500" y="18" text-anchor="middle" class="sm-step-title" fill="#4fb8a8">WHY HYBRID? Bartonella PARTIALLY resists phagocytosis</text>
          <text x="500" y="34" text-anchor="middle" class="sm-caption">→ draws both neutrophils (acute) AND macrophages (chronic) to the same lesion</text>
        </g>
      </g>

      <!-- ZONE 3 · KEY ASSOCIATION STRIP -->
      <g transform="translate(0 705)">
        <line x1="40" y1="0" x2="960" y2="0" stroke="#222c3e" stroke-width="1"/>
        <rect x="60" y="10" width="880" height="40" rx="8" fill="#e8a951" fill-opacity="0.08" stroke="#e8a951" stroke-width="1"/>
        <text x="500" y="26" text-anchor="middle" class="sm-key-accent">
          <tspan x="500" fill="#b4becf" font-weight="400">cat scratch → axillary lymphadenitis → stellate microabscesses in granulomas</tspan>
          <tspan x="500" dy="1.4em" fill="#e8a951" font-style="italic">= Bartonella henselae</tspan>
        </text>
      </g>
    </svg>
