<?xml version="1.0" encoding="UTF-8"?>
<!--
  Auto-generated from the reference HTML by
  scripts/storymode-extraction/extract.mjs.
  Do not edit by hand — regenerate the file instead.
-->
<svg xmlns="http://www.w3.org/2000/svg" xmlns:xlink="http://www.w3.org/1999/xlink" viewBox="0 0 1000 970" preserveAspectRatio="xMidYMid meet">
      <style>
        .sa-eyebrow { fill: #e8a951; font: 500 10px "Inter", sans-serif; letter-spacing: 2.5px; }
        .sa-title { fill: #e8ecf3; font: italic 400 22px "Fraunces", serif; }
        .sa-section-label { fill: #e8a951; font: 600 9.5px "Inter", sans-serif; letter-spacing: 1.8px; }
        .sa-section-label-crimson { fill: #d14859; font: 600 9.5px "Inter", sans-serif; letter-spacing: 1.8px; }
        .sa-step-title { fill: #e8ecf3; font: 700 11px "Inter", sans-serif; letter-spacing: 0.5px; }
        .sa-caption { fill: #6b7689; font: italic 400 10px "Inter", sans-serif; }
        .sa-caption-sm { fill: #6b7689; font: italic 400 9px "Inter", sans-serif; }
        .sa-anatomy { fill: #e8ecf3; font: 600 11px "Inter", sans-serif; letter-spacing: 0.3px; }
        .sa-organ-label { fill: #e8ecf3; font: 600 10px "Inter", sans-serif; letter-spacing: 0.2px; }
        .sa-organ-sub { fill: #6b7689; font: italic 400 9px "Inter", sans-serif; }
        .sa-accent { fill: #e8a951; font: 700 11px "Inter", sans-serif; letter-spacing: 0.3px; }
        .sa-crimson { fill: #d14859; font: 700 10px "Inter", sans-serif; letter-spacing: 0.3px; }
        .sa-step-badge { fill: #0a0e1a; font: 700 9px "JetBrains Mono", monospace; letter-spacing: 0.5px; }
        .sa-cxr-label { fill: #e8a951; font: 700 11px "Inter", sans-serif; letter-spacing: 1px; }
        .sa-symptom { fill: #e8ecf3; font: 600 10.5px "Inter", sans-serif; letter-spacing: 0.2px; }
        .sa-diagnosis { fill: #e8a951; font: 600 12px "Fraunces", serif; font-style: italic; letter-spacing: 0.3px; }
      </style>
      <defs>
        <marker id="saArrow" viewBox="0 0 10 10" refX="8" refY="5" markerWidth="7" markerHeight="7" orient="auto">
          <path d="M 0 0 L 10 5 L 0 10 z" fill="#e8a951"/>
        </marker>
        <marker id="saArrowCrimson" viewBox="0 0 10 10" refX="8" refY="5" markerWidth="7" markerHeight="7" orient="auto">
          <path d="M 0 0 L 10 5 L 0 10 z" fill="#d14859"/>
        </marker>
        <symbol id="saAntigen" overflow="visible">
          <circle cx="0" cy="0" r="8" fill="#7a4a9e" opacity="0.85" stroke="#4a2d60" stroke-width="0.6"/>
          <text x="0" y="3" text-anchor="middle" style="fill: #e8ecf3; font: 700 10px 'Inter', sans-serif;">?</text>
        </symbol>
        <symbol id="saMac" overflow="visible">
          <circle cx="0" cy="0" r="18" fill="#4fb8a8" opacity="0.35" stroke="#3a8a7e" stroke-width="1"/>
          <path d="M -8 -3 Q -12 -5 -10 2 Q -6 7 -2 4 Q 2 6 5 2 Q 8 -2 4 -5 Q -2 -6 -8 -3 Z" fill="#3a8a7e" opacity="0.6"/>
        </symbol>
        <symbol id="saEpi" overflow="visible">
          <ellipse cx="0" cy="0" rx="10" ry="5" fill="#9370b9" opacity="0.55" stroke="#4a2d60" stroke-width="0.6"/>
          <ellipse cx="0" cy="0" rx="4" ry="2.5" fill="#4a2d60" opacity="0.65"/>
        </symbol>
        <symbol id="saGiant" overflow="visible">
          <circle cx="0" cy="0" r="16" fill="#9370b9" opacity="0.4" stroke="#4a2d60" stroke-width="1"/>
          <circle cx="-10" cy="-5" r="2.2" fill="#4a2d60" opacity="0.85"/>
          <circle cx="-6" cy="-10" r="2.2" fill="#4a2d60" opacity="0.85"/>
          <circle cx="0" cy="-12" r="2.2" fill="#4a2d60" opacity="0.85"/>
          <circle cx="6" cy="-10" r="2.2" fill="#4a2d60" opacity="0.85"/>
          <circle cx="10" cy="-5" r="2.2" fill="#4a2d60" opacity="0.85"/>
        </symbol>
        <symbol id="saActivatedMac" overflow="visible">
          <ellipse cx="0" cy="0" rx="16" ry="9" fill="#9370b9" opacity="0.6" stroke="#e8a951" stroke-width="2"/>
          <ellipse cx="0" cy="0" rx="6" ry="3.5" fill="#4a2d60" opacity="0.7"/>
          <ellipse cx="0" cy="0" rx="13" ry="7" fill="none" stroke="#e8a951" stroke-width="0.4" opacity="0.5"/>
        </symbol>
        <symbol id="saTcell" overflow="visible">
          <circle cx="0" cy="0" r="14" fill="#4fb8a8" opacity="0.45" stroke="#3a8a7e" stroke-width="1"/>
          <circle cx="0" cy="0" r="8" fill="#3a8a7e" opacity="0.65"/>
        </symbol>
        <symbol id="saTh1" overflow="visible">
          <circle cx="0" cy="0" r="14" fill="#4fb8a8" opacity="0.35" stroke="#e8a951" stroke-width="1.5"/>
          <circle cx="0" cy="0" r="8" fill="#3a8a7e" opacity="0.65"/>
          <circle cx="0" cy="0" r="18" fill="none" stroke="#e8a951" stroke-width="0.4" stroke-dasharray="2 2" opacity="0.5"/>
        </symbol>
        <symbol id="saIFNg" overflow="visible">
          <polygon points="-3,3 3,3 0,-3" fill="#e8a951" opacity="0.95" stroke="#a87b3c" stroke-width="0.4"/>
        </symbol>
        <symbol id="saLymph" overflow="visible">
          <circle cx="0" cy="0" r="4" fill="#4fb8a8" opacity="0.55" stroke="#3a8a7e" stroke-width="0.5"/>
          <circle cx="0" cy="0" r="2.5" fill="#3a8a7e" opacity="0.75"/>
        </symbol>
        <symbol id="saMiniGranuloma" overflow="visible">
          <circle cx="0" cy="0" r="9" fill="#9370b9" opacity="0.55" stroke="#4a2d60" stroke-width="0.8"/>
          <circle cx="0" cy="0" r="3" fill="#4a2d60" opacity="0.8"/>
          <circle cx="-5" cy="-4" r="1.2" fill="#4a2d60" opacity="0.6"/>
          <circle cx="5" cy="-4" r="1.2" fill="#4a2d60" opacity="0.6"/>
          <circle cx="-5" cy="4" r="1.2" fill="#4a2d60" opacity="0.6"/>
          <circle cx="5" cy="4" r="1.2" fill="#4a2d60" opacity="0.6"/>
        </symbol>
      </defs>

      <!-- TITLE -->
      <text x="500" y="26" text-anchor="middle" class="sa-eyebrow">SARCOIDOSIS · THE CHRONIC NONCASEATING GRANULOMA DISEASE</text>
      <text x="500" y="58" text-anchor="middle" class="sa-title">An unknown antigen. A Th1 loop that never stops. Granulomas everywhere.</text>
      <line x1="40" y1="78" x2="960" y2="78" stroke="#222c3e" stroke-width="1"/>

      <!-- ZONE 1 · PATHOPHYSIOLOGY CASCADE -->
      <g transform="translate(0 100)">
        <text x="500" y="-6" text-anchor="middle" class="sa-section-label">PATHOPHYSIOLOGY · THE Th1/MACROPHAGE LOOP THAT NEVER RESOLVES</text>

        <!-- STAGE 1: Unknown antigen -->
        <g transform="translate(100 95)">
          <text x="0" y="-70" text-anchor="middle" class="sa-step-title">unknown</text>
          <text x="0" y="-58" text-anchor="middle" class="sa-step-title">antigen</text>
          <g transform="translate(-8 -5)"><use href="#saAntigen"/></g>
          <g transform="translate(8 -8)"><use href="#saAntigen"/></g>
          <g transform="translate(-4 8)"><use href="#saAntigen"/></g>
          <g transform="translate(10 10)"><use href="#saAntigen"/></g>
          <text x="0" y="40" text-anchor="middle" class="sa-caption">can't be cleared</text>
          <text x="0" y="52" text-anchor="middle" class="sa-caption">persists forever</text>
          <g transform="translate(-50 -68)">
            <circle cx="0" cy="0" r="8" fill="#e8a951" stroke="#0a0e1a" stroke-width="1.5"/>
            <text x="0" y="3" text-anchor="middle" class="sa-step-badge">01</text>
          </g>
        </g>

        <!-- Arrow 1 → 2 -->
        <g transform="translate(130 95)">
          <path d="M 0 0 L 130 0" stroke="#e8a951" stroke-width="1.3" fill="none" marker-end="url(#saArrow)"/>
        </g>

        <!-- STAGE 2: Macrophage engulfs -->
        <g transform="translate(290 95)">
          <text x="0" y="-70" text-anchor="middle" class="sa-step-title">macrophage</text>
          <text x="0" y="-58" text-anchor="middle" class="sa-step-title">engulfs</text>
          <use href="#saMac"/>
          <g transform="translate(0 2)"><use href="#saAntigen"/></g>
          <text x="0" y="40" text-anchor="middle" class="sa-caption-sm" fill="#d14859">can't kill it</text>
          <text x="0" y="52" text-anchor="middle" class="sa-caption">→ presents to T cell</text>
          <g transform="translate(-50 -68)">
            <circle cx="0" cy="0" r="8" fill="#e8a951" stroke="#0a0e1a" stroke-width="1.5"/>
            <text x="0" y="3" text-anchor="middle" class="sa-step-badge">02</text>
          </g>
        </g>

        <!-- Arrow 2 → 3 -->
        <g transform="translate(320 95)">
          <path d="M 0 0 L 124 0" stroke="#e8a951" stroke-width="1.3" fill="none" marker-end="url(#saArrow)"/>
          <text x="62" y="-6" text-anchor="middle" class="sa-caption-sm" fill="#e8a951">MHC II + IL-12</text>
        </g>

        <!-- STAGE 3: Th1 cell makes IFN-γ -->
        <g transform="translate(470 95)">
          <text x="0" y="-70" text-anchor="middle" class="sa-step-title">Th1 cell</text>
          <text x="0" y="-58" text-anchor="middle" class="sa-step-title">makes IFN-γ</text>
          <use href="#saTh1"/>
          <g transform="translate(18 -5)"><use href="#saIFNg"/></g>
          <g transform="translate(22 6)"><use href="#saIFNg"/></g>
          <g transform="translate(25 -12)"><use href="#saIFNg"/></g>
          <text x="0" y="40" text-anchor="middle" class="sa-caption">IFN-γ keeps macrophages</text>
          <text x="0" y="52" text-anchor="middle" class="sa-caption">activated, recruits more</text>
          <g transform="translate(-50 -68)">
            <circle cx="0" cy="0" r="8" fill="#e8a951" stroke="#0a0e1a" stroke-width="1.5"/>
            <text x="0" y="3" text-anchor="middle" class="sa-step-badge">03</text>
          </g>
        </g>

        <!-- Arrow 3 → 4 -->
        <g transform="translate(510 95)">
          <path d="M 0 0 L 122 0" stroke="#e8a951" stroke-width="1.3" fill="none" marker-end="url(#saArrow)"/>
          <text x="61" y="-6" text-anchor="middle" class="sa-caption-sm" fill="#e8a951">IFN-γ</text>
        </g>

        <!-- STAGE 4: Macrophage ACTIVATED -->
        <g transform="translate(660 95)">
          <text x="0" y="-70" text-anchor="middle" class="sa-step-title">macrophage</text>
          <text x="0" y="-58" text-anchor="middle" class="sa-step-title" fill="#e8a951">ACTIVATED</text>
          <use href="#saActivatedMac"/>
          <g transform="translate(-26 -4)"><use href="#saIFNg"/></g>
          <g transform="translate(-26 4)"><use href="#saIFNg"/></g>
          <path d="M -22 -3 L -17 -3" stroke="#e8a951" stroke-width="0.8" fill="none" opacity="0.8" marker-end="url(#saArrow)"/>
          <path d="M -22 3 L -17 3" stroke="#e8a951" stroke-width="0.8" fill="none" opacity="0.8" marker-end="url(#saArrow)"/>
          <text x="0" y="40" text-anchor="middle" class="sa-caption">IFN-γ binds receptor</text>
          <text x="0" y="52" text-anchor="middle" class="sa-caption">= epithelioid form</text>
          <g transform="translate(-50 -68)">
            <circle cx="0" cy="0" r="8" fill="#e8a951" stroke="#0a0e1a" stroke-width="1.5"/>
            <text x="0" y="3" text-anchor="middle" class="sa-step-badge">04</text>
          </g>
        </g>

        <!-- Arrow 4 → 5 -->
        <g transform="translate(688 95)">
          <path d="M 0 0 L 128 0" stroke="#e8a951" stroke-width="1.3" fill="none" marker-end="url(#saArrow)"/>
          <text x="64" y="-6" text-anchor="middle" class="sa-caption-sm" fill="#e8a951">fuse → giants</text>
        </g>

        <!-- STAGE 5: GRANULOMA formed -->
        <g transform="translate(860 95)">
          <text x="0" y="-70" text-anchor="middle" class="sa-step-title" fill="#e8a951">granuloma</text>
          <text x="0" y="-58" text-anchor="middle" class="sa-step-title" fill="#e8a951">NONCASEATING</text>
          <circle cx="0" cy="0" r="32" fill="#050811" stroke="#e8a951" stroke-width="1.3" stroke-dasharray="2 2"/>
          <g transform="translate(0 -5)">
            <circle cx="0" cy="0" r="8" fill="#9370b9" opacity="0.5" stroke="#4a2d60" stroke-width="0.8"/>
            <circle cx="-4" cy="-3" r="1.3" fill="#4a2d60"/>
            <circle cx="4" cy="-3" r="1.3" fill="#4a2d60"/>
            <circle cx="0" cy="-5" r="1.3" fill="#4a2d60"/>
          </g>
          <g transform="translate(-18 8) rotate(-30)"><use href="#saEpi"/></g>
          <g transform="translate(18 8) rotate(30)"><use href="#saEpi"/></g>
          <g transform="translate(0 18)"><use href="#saEpi"/></g>
          <g transform="translate(-25 -15)"><use href="#saLymph"/></g>
          <g transform="translate(25 -15)"><use href="#saLymph"/></g>
          <g transform="translate(-28 5)"><use href="#saLymph"/></g>
          <g transform="translate(28 5)"><use href="#saLymph"/></g>
          <g transform="translate(-15 25)"><use href="#saLymph"/></g>
          <g transform="translate(15 25)"><use href="#saLymph"/></g>
          <text x="0" y="52" text-anchor="middle" class="sa-caption">organized structure</text>
          <text x="0" y="64" text-anchor="middle" class="sa-caption">in multiple organs</text>
          <g transform="translate(-65 -68)">
            <circle cx="0" cy="0" r="8" fill="#e8a951" stroke="#0a0e1a" stroke-width="1.5"/>
            <text x="0" y="3" text-anchor="middle" class="sa-step-badge">05</text>
          </g>
        </g>

        <!-- LOOP ARROW -->
        <g>
          <path d="M 860 180 Q 860 245 500 245 Q 290 245 290 160"
                stroke="#d14859" stroke-width="1.8" fill="none" stroke-dasharray="4 3" marker-end="url(#saArrowCrimson)"/>
          <rect x="375" y="232" width="400" height="18" rx="3" fill="#0a0e1a" opacity="0.95"/>
          <text x="575" y="244" text-anchor="middle" class="sa-crimson">ANTIGEN PERSISTS · CHRONIC CYCLE · GRANULOMAS KEEP FORMING</text>
        </g>
      </g>

      <!-- ZONE 2 · MULTI-SYSTEM ORGAN INVOLVEMENT -->
      <g transform="translate(0 390)">
        <text x="500" y="16" text-anchor="middle" class="sa-section-label">MULTI-SYSTEM · GRANULOMAS APPEAR IN MANY ORGANS, LOOK IDENTICAL EVERYWHERE</text>

        <g transform="translate(500 150)">
          <circle cx="0" cy="-100" r="26" fill="none" stroke="#6b7689" stroke-width="1.4"/>
          <line x1="0" y1="-74" x2="0" y2="-62" stroke="#6b7689" stroke-width="1.4"/>
          <path d="M -60 -60 Q -72 -55 -75 -40 L -80 10 Q -80 40 -70 60 L -55 90 Q -30 100 0 98 Q 30 100 55 90 L 70 60 Q 80 40 80 10 L 75 -40 Q 72 -55 60 -60 Q 30 -68 0 -66 Q -30 -68 -60 -60 Z"
                fill="#111826" stroke="#6b7689" stroke-width="1.4"/>
          <ellipse cx="-30" cy="-15" rx="22" ry="38" fill="#4fb8a8" opacity="0.15" stroke="#4fb8a8" stroke-width="1"/>
          <ellipse cx="30" cy="-15" rx="22" ry="38" fill="#4fb8a8" opacity="0.15" stroke="#4fb8a8" stroke-width="1"/>
          <path d="M -8 -5 Q -16 -13 -6 -18 Q 0 -15 6 -18 Q 16 -13 8 -5 Q 0 5 -8 -5 Z" fill="#d14859" opacity="0.5" stroke="#8b2c38" stroke-width="0.8"/>
          <path d="M 25 25 Q 55 25 65 35 Q 60 55 30 55 Q 15 50 25 25 Z" fill="#9370b9" opacity="0.3" stroke="#6b7689" stroke-width="0.8"/>

          <g transform="translate(-30 -25)"><use href="#saMiniGranuloma"/></g>
          <g transform="translate(30 -25)"><use href="#saMiniGranuloma"/></g>
          <g transform="translate(-25 0)"><use href="#saMiniGranuloma"/></g>
          <g transform="translate(28 0)"><use href="#saMiniGranuloma"/></g>
          <g transform="translate(-10 -10)"><use href="#saMiniGranuloma"/></g>
          <g transform="translate(10 -10)"><use href="#saMiniGranuloma"/></g>

          <g transform="translate(-10 -100)"><use href="#saMiniGranuloma"/></g>
          <g transform="translate(10 -100)"><use href="#saMiniGranuloma"/></g>
          <circle cx="-8" cy="-110" r="1.2" fill="#c47b5a" opacity="0.9"/>
          <circle cx="5" cy="-113" r="1.2" fill="#c47b5a" opacity="0.9"/>
          <circle cx="10" cy="-105" r="1.2" fill="#c47b5a" opacity="0.9"/>
          <circle cx="-4" cy="-95" r="1.2" fill="#c47b5a" opacity="0.9"/>

          <g transform="translate(0 -10)"><use href="#saMiniGranuloma"/></g>
          <g transform="translate(42 38)"><use href="#saMiniGranuloma"/></g>
        </g>

        <!-- Organ callouts (anatomically ordered, no leader lines) -->
        <g transform="translate(720 50)">
          <rect x="-10" y="-12" width="200" height="34" rx="6" fill="#111826" stroke="#6b7689" stroke-width="0.8" stroke-dasharray="2 2"/>
          <text x="0" y="0" class="sa-organ-label">SKIN (face)</text>
          <text x="0" y="14" class="sa-organ-sub">reddish-brown papules</text>
        </g>

        <g transform="translate(720 94)">
          <rect x="-10" y="-12" width="200" height="34" rx="6" fill="#111826" stroke="#6b7689" stroke-width="0.8" stroke-dasharray="2 2"/>
          <text x="0" y="0" class="sa-organ-label">EYES</text>
          <text x="0" y="14" class="sa-organ-sub">uveitis, dry eyes</text>
        </g>

        <g transform="translate(720 138)">
          <rect x="-10" y="-12" width="220" height="48" rx="6" fill="#e8a951" fill-opacity="0.1" stroke="#e8a951" stroke-width="1"/>
          <text x="0" y="0" class="sa-organ-label" fill="#e8a951">LUNGS + HILAR NODES</text>
          <text x="0" y="14" class="sa-organ-sub">most common (&gt; 90% of cases)</text>
          <text x="0" y="28" class="sa-organ-sub" fill="#d14859">→ bilateral hilar lymphadenopathy</text>
        </g>

        <g transform="translate(80 130)">
          <rect x="-10" y="-12" width="200" height="34" rx="6" fill="#111826" stroke="#6b7689" stroke-width="0.8" stroke-dasharray="2 2"/>
          <text x="0" y="0" class="sa-organ-label">HEART</text>
          <text x="0" y="14" class="sa-organ-sub">arrhythmias, conduction block</text>
        </g>

        <g transform="translate(80 180)">
          <rect x="-10" y="-12" width="200" height="34" rx="6" fill="#111826" stroke="#6b7689" stroke-width="0.8" stroke-dasharray="2 2"/>
          <text x="0" y="0" class="sa-organ-label">LIVER</text>
          <text x="0" y="14" class="sa-organ-sub">hepatic granulomas</text>
        </g>

        <text x="500" y="290" text-anchor="middle" class="sa-caption" fill="#b4becf">the granulomas look <tspan fill="#e8a951" font-weight="700">identical wherever they appear</tspan></text>
      </g>

      <!-- ZONE 3 · CLINICAL VIGNETTE + CXR -->
      <g transform="translate(0 710)">
        <text x="500" y="16" text-anchor="middle" class="sa-section-label">THE CLASSIC PRESENTATION · 30-YEAR-OLD WOMAN</text>

        <!-- LEFT PANEL: Patient + symptoms -->
        <g transform="translate(30 40)">
          <rect x="0" y="0" width="470" height="170" rx="10" fill="#111826" stroke="#222c3e" stroke-width="1"/>
          <text x="20" y="26" class="sa-diagnosis">30-year-old woman</text>
          <text x="20" y="42" class="sa-caption">reddish-brown papules · dry cough · fatigue</text>

          <g transform="translate(60 95)">
            <ellipse cx="-8" cy="0" rx="10" ry="16" fill="#4fb8a8" opacity="0.25" stroke="#4fb8a8" stroke-width="0.8"/>
            <ellipse cx="8" cy="0" rx="10" ry="16" fill="#4fb8a8" opacity="0.25" stroke="#4fb8a8" stroke-width="0.8"/>
            <path d="M 20 -8 Q 28 -10 32 -5" stroke="#e8a951" stroke-width="1" fill="none" opacity="0.7"/>
            <path d="M 22 0 Q 30 -2 34 2" stroke="#e8a951" stroke-width="1" fill="none" opacity="0.7"/>
            <path d="M 20 8 Q 28 10 32 5" stroke="#e8a951" stroke-width="1" fill="none" opacity="0.7"/>
            <text x="0" y="32" text-anchor="middle" class="sa-symptom">chronic dry cough</text>
          </g>

          <g transform="translate(190 95)">
            <circle cx="0" cy="-18" r="7" fill="none" stroke="#6b7689" stroke-width="1.2"/>
            <path d="M -10 -10 Q -6 -8 0 -8 Q 6 -8 10 -10 L 8 10 L -8 10 Z" fill="#6b7689" opacity="0.4" stroke="#6b7689" stroke-width="1"/>
            <text x="15" y="-15" style="fill: #e8a951; font: 700 10px 'Inter', sans-serif;">z</text>
            <text x="20" y="-22" style="fill: #e8a951; font: 700 8px 'Inter', sans-serif;">z</text>
            <text x="0" y="32" text-anchor="middle" class="sa-symptom">fatigue</text>
          </g>

          <g transform="translate(320 95)">
            <circle cx="0" cy="-5" r="22" fill="none" stroke="#6b7689" stroke-width="1.2"/>
            <circle cx="-10" cy="-12" r="1.8" fill="#c47b5a" opacity="0.9"/>
            <circle cx="-6" cy="-5" r="1.8" fill="#c47b5a" opacity="0.9"/>
            <circle cx="5" cy="-10" r="1.8" fill="#c47b5a" opacity="0.9"/>
            <circle cx="9" cy="-3" r="1.8" fill="#c47b5a" opacity="0.9"/>
            <circle cx="-2" cy="2" r="1.8" fill="#c47b5a" opacity="0.9"/>
            <circle cx="7" cy="6" r="1.8" fill="#c47b5a" opacity="0.9"/>
            <circle cx="-10" cy="2" r="1.8" fill="#c47b5a" opacity="0.9"/>
            <text x="0" y="32" text-anchor="middle" class="sa-symptom">red-brown papules</text>
          </g>

          <line x1="20" y1="140" x2="450" y2="140" stroke="#222c3e" stroke-width="1"/>
          <text x="20" y="158" class="sa-caption">biopsy of hilar node or skin:</text>
          <text x="160" y="158" class="sa-accent">noncaseating granulomas + giant cells</text>
        </g>

        <!-- RIGHT PANEL: Classic CXR -->
        <g transform="translate(520 40)">
          <rect x="0" y="0" width="450" height="170" rx="10" fill="#050811" stroke="#222c3e" stroke-width="1"/>
          <text x="225" y="22" text-anchor="middle" class="sa-cxr-label">THE ICONIC CXR FINDING</text>

          <g transform="translate(225 75)">
            <path d="M -90 -40 Q -100 -20 -95 20 Q -85 50 -60 55 Q -30 58 0 55 Q 30 58 60 55 Q 85 50 95 20 Q 100 -20 90 -40 Q 60 -48 30 -45 Q 0 -48 -30 -45 Q -60 -48 -90 -40 Z"
                  fill="#0a0e1a" stroke="#6b7689" stroke-width="1.2" opacity="0.95"/>
            <path d="M -75 -30 Q -85 0 -75 30 Q -60 45 -25 42 L -25 -28 Q -50 -35 -75 -30 Z" fill="#1a1f30" stroke="#6b7689" stroke-width="0.6"/>
            <path d="M 75 -30 Q 85 0 75 30 Q 60 45 25 42 L 25 -28 Q 50 -35 75 -30 Z" fill="#1a1f30" stroke="#6b7689" stroke-width="0.6"/>
            <path d="M -22 -25 L -22 35 Q -10 48 0 50 Q 10 48 22 35 L 22 -25 Z"
                  fill="#222c3e" stroke="#6b7689" stroke-width="0.6"/>
            <ellipse cx="-28" cy="-5" rx="14" ry="18" fill="#e8a951" fill-opacity="0.4" stroke="#e8a951" stroke-width="1.5"/>
            <ellipse cx="28" cy="-5" rx="14" ry="18" fill="#e8a951" fill-opacity="0.4" stroke="#e8a951" stroke-width="1.5"/>
            <path d="M -62 -35 L -42 -10" stroke="#e8a951" stroke-width="1" fill="none" marker-end="url(#saArrow)"/>
            <path d="M 62 -35 L 42 -10" stroke="#e8a951" stroke-width="1" fill="none" marker-end="url(#saArrow)"/>
          </g>

          <text x="225" y="146" text-anchor="middle" class="sa-accent">BILATERAL HILAR LYMPHADENOPATHY</text>
          <text x="225" y="160" text-anchor="middle" class="sa-caption">the classic sarcoid imaging finding</text>
        </g>
      </g>

      <!-- ZONE 4 · TAKE-HOME + TREATMENT -->
      <g transform="translate(0 935)">
        <line x1="40" y1="0" x2="960" y2="0" stroke="#222c3e" stroke-width="1"/>
        <text x="500" y="18" text-anchor="middle" class="sa-section-label">
          <tspan x="500" fill="#b4becf" font-weight="400">noncaseating granulomas · epithelioid histiocytes · giant cells · lymphocyte rim</tspan>
          <tspan x="500" dy="1.4em" fill="#e8a951">CORTICOSTEROIDS block the Th1 drive</tspan>
        </text>
      </g>
    </svg>
