<?xml version="1.0" encoding="UTF-8"?>
<!--
  Auto-generated from the reference HTML by
  scripts/storymode-extraction/extract.mjs.
  Do not edit by hand — regenerate the file instead.
-->
<svg xmlns="http://www.w3.org/2000/svg" xmlns:xlink="http://www.w3.org/1999/xlink" viewBox="0 0 1000 500" preserveAspectRatio="xMidYMid meet">
      <style>
        .ch-eyebrow { fill: #e8a951; font: 500 10px "Inter", sans-serif; letter-spacing: 2.5px; }
        .ch-title { fill: #e8ecf3; font: italic 400 22px "Fraunces", serif; }
        .ch-side-label { fill: #b4becf; font: 600 11px "Inter", sans-serif; letter-spacing: 2px; }
        .ch-side-status { fill: #4fb8a8; font: italic 600 13px "Fraunces", serif; }
        .ch-side-status-broken { fill: #d14859; font: italic 600 13px "Fraunces", serif; }
        .ch-cell-label { fill: #b4becf; font: 400 10px "Inter", sans-serif; }
        .ch-vesicle-label { fill: #e8a951; font: 500 9px "Inter", sans-serif; letter-spacing: 0.5px; }
        .ch-caption { fill: #6b7689; font: italic 400 10px "Inter", sans-serif; }
        .ch-keypoint { fill: #e8a951; font: 600 10px "Inter", sans-serif; letter-spacing: 1px; }
        .ch-keypoint-broken { fill: #d14859; font: 600 10px "Inter", sans-serif; letter-spacing: 1px; }
        .ch-tag-text { fill: #0a0e1a; font: 700 8px "Inter", sans-serif; letter-spacing: 1px; }
      </style>
      <defs>
        <radialGradient id="chMegaGlow" cx="50%" cy="50%" r="50%">
          <stop offset="0%" stop-color="#d14859" stop-opacity="0.35"/>
          <stop offset="100%" stop-color="#d14859" stop-opacity="0"/>
        </radialGradient>
        <marker id="chArrow" viewBox="0 0 10 10" refX="8" refY="5" markerWidth="6" markerHeight="6" orient="auto">
          <path d="M 0 0 L 10 5 L 0 10 z" fill="#e8a951"/>
        </marker>
        <symbol id="chBacterium" overflow="visible">
          <ellipse cx="0" cy="0" rx="9" ry="4" fill="#d14859" opacity="0.85" stroke="#a53343" stroke-width="0.6"/>
        </symbol>
      </defs>

      <!-- Title -->
      <text x="500" y="26" text-anchor="middle" class="ch-eyebrow">VESICLE TRAFFICKING · LYST GENE DEFECT</text>
      <text x="500" y="58" text-anchor="middle" class="ch-title">Normal fusion vs. Chédiak-Higashi</text>
      <line x1="40" y1="78" x2="960" y2="78" stroke="#222c3e" stroke-width="1"/>

      <!-- LEFT PANEL · NORMAL trafficking -->
      <g transform="translate(60 100)">
        <text x="200" y="20" text-anchor="middle" class="ch-side-label">NORMAL</text>
        <text x="200" y="40" text-anchor="middle" class="ch-side-status">LYST works · vesicles fuse properly</text>
        <rect x="20" y="60" width="360" height="230" rx="20" ry="20" fill="#0a0e1a" stroke="#4fb8a8" stroke-width="1.5"/>
        <g transform="translate(120 150)">
          <circle cx="0" cy="0" r="26" fill="#0a0e1a" stroke="#e8a951" stroke-width="1.5" stroke-dasharray="3 2"/>
          <use href="#chBacterium"/>
          <text x="0" y="-36" text-anchor="middle" class="ch-vesicle-label">PHAGOSOME</text>
        </g>
        <g transform="translate(260 150)">
          <circle cx="0" cy="0" r="18" fill="#4fb8a8" opacity="0.55" stroke="#4fb8a8" stroke-width="1.3"/>
          <circle cx="-4" cy="-4" r="2" fill="#0a0e1a" opacity="0.6"/>
          <circle cx="5" cy="-3" r="2" fill="#0a0e1a" opacity="0.6"/>
          <circle cx="-2" cy="5" r="2" fill="#0a0e1a" opacity="0.6"/>
          <circle cx="6" cy="6" r="2" fill="#0a0e1a" opacity="0.6"/>
          <text x="0" y="-30" text-anchor="middle" class="ch-vesicle-label">LYSOSOME</text>
        </g>
        <path d="M 152 150 L 240 150" stroke="#e8a951" stroke-width="1.5" stroke-dasharray="3 3" marker-end="url(#chArrow)"/>
        <text x="196" y="142" text-anchor="middle" class="ch-keypoint">FUSE</text>
        <g transform="translate(200 250)">
          <circle cx="0" cy="0" r="32" fill="#4fb8a8" opacity="0.4" stroke="#e8a951" stroke-width="1.5"/>
          <ellipse cx="0" cy="0" rx="7" ry="3.5" fill="#d14859" opacity="0.45" stroke="#a53343" stroke-width="0.5" stroke-dasharray="2 1"/>
          <circle cx="-10" cy="-8" r="2" fill="#0a0e1a" opacity="0.6"/>
          <circle cx="9" cy="-7" r="2" fill="#0a0e1a" opacity="0.6"/>
          <circle cx="-8" cy="9" r="2" fill="#0a0e1a" opacity="0.6"/>
          <circle cx="11" cy="8" r="2" fill="#0a0e1a" opacity="0.6"/>
          <text x="0" y="-46" text-anchor="middle" class="ch-vesicle-label">PHAGOLYSOSOME</text>
        </g>
        <line x1="40" y1="298" x2="360" y2="298" stroke="#222c3e" stroke-width="1"/>
        <text x="200" y="318" text-anchor="middle" class="ch-keypoint">BACTERIUM KILLED</text>
        <text x="200" y="332" text-anchor="middle" class="ch-caption">vesicles meet correctly · enzymes do their job</text>
      </g>

      <!-- RIGHT PANEL · CHÉDIAK-HIGASHI broken trafficking -->
      <g transform="translate(560 100)">
        <rect x="295" y="6" width="58" height="14" rx="3" fill="#d14859" opacity="0.92"/>
        <text x="324" y="16" text-anchor="middle" class="ch-tag-text">QUESTION</text>
        <text x="200" y="20" text-anchor="middle" class="ch-side-label">CHÉDIAK-HIGASHI</text>
        <text x="200" y="40" text-anchor="middle" class="ch-side-status-broken">LYST broken · vesicles clump chaotically</text>
        <rect x="20" y="60" width="360" height="230" rx="20" ry="20" fill="#0a0e1a" stroke="#d14859" stroke-width="1.5"/>
        <g transform="translate(90 130)">
          <circle cx="0" cy="0" r="20" fill="#0a0e1a" stroke="#e8a951" stroke-width="1.5" stroke-dasharray="3 2"/>
          <use href="#chBacterium"/>
          <text x="0" y="-30" text-anchor="middle" class="ch-vesicle-label">PHAGOSOME</text>
          <text x="0" y="34" text-anchor="middle" class="ch-caption">can't fuse</text>
        </g>
        <text x="142" y="138" class="ch-keypoint-broken" style="font-size: 16px;">✗</text>
        <g transform="translate(270 175)">
          <circle cx="0" cy="0" r="60" fill="url(#chMegaGlow)"/>
          <path d="M -42 -10 Q -55 -28 -38 -42 Q -18 -54 8 -48 Q 32 -56 48 -38 Q 62 -16 56 8 Q 60 30 42 44 Q 18 56 -8 50 Q -34 56 -48 36 Q -58 14 -42 -10 Z" fill="#d14859" opacity="0.32" stroke="#d14859" stroke-width="1.5"/>
          <circle cx="-18" cy="-14" r="9" fill="#4fb8a8" opacity="0.5" stroke="#4fb8a8" stroke-width="0.8"/>
          <circle cx="14" cy="-18" r="11" fill="#4fb8a8" opacity="0.5" stroke="#4fb8a8" stroke-width="0.8"/>
          <circle cx="22" cy="8" r="8" fill="#4fb8a8" opacity="0.5" stroke="#4fb8a8" stroke-width="0.8"/>
          <circle cx="-8" cy="20" r="10" fill="#4fb8a8" opacity="0.5" stroke="#4fb8a8" stroke-width="0.8"/>
          <circle cx="-30" cy="6" r="7" fill="#4fb8a8" opacity="0.5" stroke="#4fb8a8" stroke-width="0.8"/>
          <circle cx="32" cy="22" r="7" fill="#4fb8a8" opacity="0.5" stroke="#4fb8a8" stroke-width="0.8"/>
          <g fill="#0a0e1a" opacity="0.5">
            <circle cx="-22" cy="-10" r="1.5"/>
            <circle cx="-13" cy="-18" r="1.5"/>
            <circle cx="14" cy="-14" r="1.5"/>
            <circle cx="20" cy="-22" r="1.5"/>
            <circle cx="22" cy="12" r="1.5"/>
            <circle cx="-8" cy="22" r="1.5"/>
            <circle cx="-2" cy="16" r="1.5"/>
          </g>
          <text x="0" y="-72" text-anchor="middle" class="ch-vesicle-label" fill="#d14859">GIANT GRANULE</text>
          <text x="0" y="78" text-anchor="middle" class="ch-caption">multiple lysosomes fused into one</text>
        </g>
        <line x1="40" y1="298" x2="360" y2="298" stroke="#222c3e" stroke-width="1"/>
        <text x="200" y="318" text-anchor="middle" class="ch-keypoint-broken">BACTERIUM SURVIVES</text>
        <text x="200" y="332" text-anchor="middle" class="ch-caption">phagosome can't fuse → killing fails</text>
      </g>

      <!-- Bottom resolver -->
      <line x1="40" y1="430" x2="960" y2="430" stroke="#222c3e" stroke-width="1"/>
      <text x="500" y="443" text-anchor="middle" class="ch-caption">
        <tspan x="500">The defect is in <tspan fill="#e8a951" font-weight="700">LYST</tspan> — the lysosomal trafficking regulator.</tspan>
        <tspan x="500" dy="1.4em">Vesicles still form, but they <tspan fill="#d14859" font-weight="700">fuse with each other instead of with the phagosome</tspan>.</tspan>
      </text>
    </svg>
