<?xml version="1.0" encoding="UTF-8"?>
<!--
  Auto-generated from the reference HTML by
  scripts/storymode-extraction/extract.mjs.
  Do not edit by hand — regenerate the file instead.
-->
<svg xmlns="http://www.w3.org/2000/svg" xmlns:xlink="http://www.w3.org/1999/xlink" viewBox="0 0 1000 720" preserveAspectRatio="xMidYMid meet">
      <style>
        .pr-eyebrow { fill: #e8a951; font: 500 10px "Inter", sans-serif; letter-spacing: 2.5px; }
        .pr-title { fill: #e8ecf3; font: italic 400 22px "Fraunces", serif; }
        .pr-zone-label { fill: #b4becf; font: 600 10.5px "Inter", sans-serif; letter-spacing: 2.5px; }
        .pr-receptor { fill: #e8ecf3; font: 700 11px "Inter", sans-serif; }
        .pr-pamp { fill: #e8a951; font: 600 10px "Inter", sans-serif; }
        .pr-caption { fill: #6b7689; font: italic 400 9.5px "Inter", sans-serif; }
        .pr-strong { fill: #d14859; font: 700 10px "Inter", sans-serif; letter-spacing: 1px; }
        .pr-accent { fill: #4fb8a8; font: 600 10.5px "Inter", sans-serif; }
      </style>

      <!-- Title -->
      <text x="500" y="26" text-anchor="middle" class="pr-eyebrow">PATTERN RECOGNITION · WHERE EVERY SENSOR LIVES</text>
      <text x="500" y="58" text-anchor="middle" class="pr-title">One cell. Three compartments. Four sensor families.</text>
      <line x1="40" y1="78" x2="960" y2="78" stroke="#222c3e" stroke-width="1"/>

      <!-- ===== ZONE 1 · SURFACE TLRs (top band) ===== -->
      <g transform="translate(0 95)">
        <rect x="40" y="0" width="920" height="28" rx="4" fill="#9370b9" fill-opacity="0.04" stroke="#9370b9" stroke-width="0.6" stroke-dasharray="3 3"/>
        <text x="56" y="18" class="pr-zone-label">SURFACE · EXTRACELLULAR WATCH</text>

        <!-- Cell membrane line -->
        <line x1="40" y1="55" x2="960" y2="55" stroke="#4fb8a8" stroke-width="2.5" opacity="0.85"/>
        <text x="48" y="48" class="pr-caption" style="fill:#4fb8a8">cell membrane</text>

        <!-- Surface TLRs sitting on the membrane -->
        <g transform="translate(180 55)">
          <path d="M -5 0 Q -5 -22 0 -30 Q 5 -22 5 0 Z" fill="#9370b9" stroke="#4a2d60" stroke-width="1"/>
          <path d="M -5 0 Q -5 22 0 30 Q 5 22 5 0 Z" fill="#9370b9" fill-opacity="0.3" stroke="#4a2d60" stroke-width="0.8"/>
          <circle cx="0" cy="-40" r="4" fill="#d14859"/>
          <line x1="0" y1="-37" x2="0" y2="-32" stroke="#e8a951" stroke-width="1"/>
          <text x="0" y="-50" text-anchor="middle" class="pr-receptor">TLR4</text>
          <text x="0" y="-64" text-anchor="middle" class="pr-pamp">LPS</text>
          <text x="0" y="-76" text-anchor="middle" class="pr-caption">gram-neg endotoxin</text>
        </g>

        <g transform="translate(360 55)">
          <path d="M -5 0 Q -5 -22 0 -30 Q 5 -22 5 0 Z" fill="#9370b9" stroke="#4a2d60" stroke-width="1"/>
          <path d="M -5 0 Q -5 22 0 30 Q 5 22 5 0 Z" fill="#9370b9" fill-opacity="0.3" stroke="#4a2d60" stroke-width="0.8"/>
          <path d="M -3 -38 Q -10 -46 0 -52 Q 10 -46 3 -38" fill="none" stroke="#d14859" stroke-width="1.4"/>
          <text x="0" y="-62" text-anchor="middle" class="pr-receptor">TLR5</text>
          <text x="0" y="-76" text-anchor="middle" class="pr-pamp">flagellin</text>
        </g>

        <g transform="translate(540 55)">
          <path d="M -5 0 Q -5 -22 0 -30 Q 5 -22 5 0 Z" fill="#9370b9" stroke="#4a2d60" stroke-width="1"/>
          <path d="M -5 0 Q -5 22 0 30 Q 5 22 5 0 Z" fill="#9370b9" fill-opacity="0.3" stroke="#4a2d60" stroke-width="0.8"/>
          <g fill="#d14859"><circle cx="-6" cy="-40" r="3"/><circle cx="0" cy="-46" r="3"/><circle cx="6" cy="-40" r="3"/></g>
          <text x="0" y="-60" text-anchor="middle" class="pr-receptor">TLR2</text>
          <text x="0" y="-74" text-anchor="middle" class="pr-pamp">peptidoglycan</text>
          <text x="0" y="-86" text-anchor="middle" class="pr-caption">(gram-positive)</text>
        </g>

        <g transform="translate(760 55)">
          <path d="M -5 0 Q -5 -22 0 -30 Q 5 -22 5 0 Z" fill="#e8a951" stroke="#c08537" stroke-width="1"/>
          <path d="M -5 0 Q -5 22 0 30 Q 5 22 5 0 Z" fill="#e8a951" fill-opacity="0.3" stroke="#c08537" stroke-width="0.8"/>
          <g fill="#d14859" opacity="0.8">
            <circle cx="-8" cy="-38" r="3"/><circle cx="0" cy="-44" r="3"/><circle cx="8" cy="-38" r="3"/>
            <circle cx="-10" cy="-48" r="2.5"/><circle cx="10" cy="-48" r="2.5"/>
          </g>
          <text x="0" y="-62" text-anchor="middle" class="pr-receptor">CLR</text>
          <text x="0" y="-76" text-anchor="middle" class="pr-pamp">mannose · β-glucan</text>
          <text x="0" y="-88" text-anchor="middle" class="pr-caption">(fungi)</text>
        </g>
      </g>

      <!-- ===== ZONE 2 · ENDOSOME (middle) ===== -->
      <g transform="translate(0 290)">
        <rect x="40" y="0" width="920" height="28" rx="4" fill="#9370b9" fill-opacity="0.04" stroke="#9370b9" stroke-width="0.6" stroke-dasharray="3 3"/>
        <text x="56" y="18" class="pr-zone-label">ENDOSOME · NUCLEIC-ACID WATCH (AFTER ENGULFMENT)</text>

        <!-- Endosome -->
        <g transform="translate(500 100)">
          <circle cx="0" cy="0" r="75" fill="#9370b9" fill-opacity="0.1" stroke="#9370b9" stroke-width="1.5" stroke-dasharray="4 3"/>

          <!-- Virus inside -->
          <ellipse cx="0" cy="0" rx="22" ry="14" fill="#d14859" opacity="0.85" stroke="#a33648" stroke-width="1"/>
          <path d="M -15 -2 Q -8 -10 0 -2 T 15 -2" fill="none" stroke="#e8a951" stroke-width="1.2" opacity="0.8"/>
          <path d="M -15 4 Q -8 12 0 4 T 15 4" fill="none" stroke="#e8a951" stroke-width="1.2" opacity="0.8"/>
          <text x="0" y="38" text-anchor="middle" class="pr-caption">virus / viral genome</text>

          <!-- TLR3 on left side of endosome, pointing inward -->
          <g transform="translate(-75 -15)">
            <path d="M 0 0 L 22 -6 L 22 6 Z" fill="#9370b9" stroke="#4a2d60" stroke-width="0.8"/>
          </g>
          <text x="-135" y="10" class="pr-receptor">TLR3</text>
          <text x="-135" y="24" class="pr-pamp">dsRNA</text>

          <!-- TLR7/8 on upper-left -->
          <g transform="translate(-53 -53) rotate(225)">
            <path d="M 0 0 L 0 18 L 6 18 L 6 0 Z" fill="#9370b9" stroke="#4a2d60" stroke-width="0.8"/>
          </g>
          <text x="-100" y="-40" class="pr-receptor">TLR7/8</text>
          <text x="-100" y="-26" class="pr-pamp">ssRNA</text>

          <!-- TLR9 on right -->
          <g transform="translate(75 15)">
            <path d="M 0 0 L -22 -6 L -22 6 Z" fill="#9370b9" stroke="#4a2d60" stroke-width="0.8"/>
          </g>
          <text x="120" y="10" class="pr-receptor">TLR9</text>
          <text x="120" y="24" class="pr-pamp">CpG DNA</text>
        </g>

        <!-- Side caption -->
        <text x="140" y="100" class="pr-caption">after a virus is phagocytosed,</text>
        <text x="140" y="114" class="pr-caption">its genome is exposed in the endosome</text>
        <text x="140" y="128" class="pr-caption" style="fill:#4fb8a8;font-weight:600">— TLRs read the nucleic acid</text>

        <text x="720" y="100" class="pr-caption">unmethylated <tspan fill="#e8a951">CpG</tspan> is a bacterial signature;</text>
        <text x="720" y="114" class="pr-caption">dsRNA and ssRNA are viral</text>
        <text x="720" y="128" class="pr-caption">replication intermediates</text>
      </g>

      <!-- ===== ZONE 3 · CYTOPLASMIC SENSORS (bottom) ===== -->
      <g transform="translate(0 460)">
        <rect x="40" y="0" width="920" height="28" rx="4" fill="#9370b9" fill-opacity="0.04" stroke="#9370b9" stroke-width="0.6" stroke-dasharray="3 3"/>
        <text x="56" y="18" class="pr-zone-label">CYTOPLASM · WHAT ALREADY GOT IN</text>

        <!-- NLR on left -->
        <g transform="translate(280 85)">
          <circle cx="0" cy="0" r="34" fill="#4fb8a8" fill-opacity="0.18" stroke="#4fb8a8" stroke-width="1.5"/>
          <text x="0" y="-3" text-anchor="middle" class="pr-accent" style="font-size:13px">NLR</text>
          <text x="0" y="12" text-anchor="middle" class="pr-caption">NOD1 / NOD2</text>
          <text x="0" y="54" text-anchor="middle" class="pr-pamp">intracellular peptidoglycan</text>
          <text x="0" y="68" text-anchor="middle" class="pr-caption">NOD2 mutation → <tspan fill="#d14859" font-weight="600">Crohn's disease</tspan></text>
        </g>

        <!-- RLR on right -->
        <g transform="translate(720 85)">
          <circle cx="0" cy="0" r="34" fill="#d14859" fill-opacity="0.18" stroke="#d14859" stroke-width="1.5"/>
          <text x="0" y="-3" text-anchor="middle" class="pr-strong" style="font-size:13px">RLR</text>
          <text x="0" y="12" text-anchor="middle" class="pr-caption">RIG-I · MDA5</text>
          <text x="0" y="54" text-anchor="middle" class="pr-pamp">cytoplasmic viral RNA</text>
          <text x="0" y="68" text-anchor="middle" class="pr-caption">drives type-I interferon response</text>
        </g>

        <!-- Little pathogen indicators to show "already inside" -->
        <g fill="#d14859" opacity="0.4">
          <ellipse cx="140" cy="85" rx="9" ry="4.5" transform="rotate(20 140 85)"/>
          <path d="M 430 75 Q 445 70 460 75 T 490 80" stroke="#9370b9" stroke-width="1.3" fill="none" opacity="0.6"/>
        </g>
      </g>

      <!-- ===== CONVERGENCE STRIP ===== -->
      <g transform="translate(0 600)">
        <line x1="40" y1="0" x2="960" y2="0" stroke="#222c3e" stroke-width="1"/>
        <text x="500" y="22" text-anchor="middle" class="pr-eyebrow">ALL ROADS LEAD TO NF-κB</text>

        <g transform="translate(200 40)">
          <rect x="0" y="0" width="56" height="22" rx="4" fill="#9370b9" fill-opacity="0.22" stroke="#9370b9" stroke-width="1"/>
          <text x="28" y="15" text-anchor="middle" style="fill:#9370b9;font:700 10px Inter,sans-serif">TLRs</text>
        </g>
        <g transform="translate(270 40)">
          <rect x="0" y="0" width="56" height="22" rx="4" fill="#4fb8a8" fill-opacity="0.22" stroke="#4fb8a8" stroke-width="1"/>
          <text x="28" y="15" text-anchor="middle" style="fill:#4fb8a8;font:700 10px Inter,sans-serif">NLRs</text>
        </g>
        <g transform="translate(340 40)">
          <rect x="0" y="0" width="56" height="22" rx="4" fill="#d14859" fill-opacity="0.22" stroke="#d14859" stroke-width="1"/>
          <text x="28" y="15" text-anchor="middle" style="fill:#d14859;font:700 10px Inter,sans-serif">RLRs</text>
        </g>
        <g transform="translate(410 40)">
          <rect x="0" y="0" width="56" height="22" rx="4" fill="#e8a951" fill-opacity="0.22" stroke="#e8a951" stroke-width="1"/>
          <text x="28" y="15" text-anchor="middle" style="fill:#e8a951;font:700 10px Inter,sans-serif">CLRs</text>
        </g>

        <!-- Convergence arrow -->
        <path d="M 475 51 L 570 51" stroke="#e8a951" stroke-width="2" fill="none"/>
        <polygon points="568,47 580,51 568,55" fill="#e8a951"/>

        <!-- NF-kB node -->
        <g transform="translate(610 40)">
          <ellipse cx="40" cy="11" rx="46" ry="16" fill="#e8a951" opacity="0.9"/>
          <text x="40" y="16" text-anchor="middle" style="fill:#0a0e1a;font:700 13px Inter,sans-serif">NF-κB</text>
        </g>

        <!-- to cytokines -->
        <path d="M 700 51 L 795 51" stroke="#e8a951" stroke-width="2" stroke-dasharray="3 3" fill="none"/>
        <polygon points="793,47 805,51 793,55" fill="#e8a951"/>

        <text x="865" y="45" text-anchor="middle" class="pr-accent">CYTOKINES</text>
        <text x="865" y="58" text-anchor="middle" class="pr-caption">TNF · IL-1 · IL-6</text>

        <text x="500" y="88" text-anchor="middle" class="pr-caption">different inputs</text>
        <text x="500" y="102" text-anchor="middle" class="pr-caption" style="fill:#e8a951;font-weight:600">one shared alarm — same downstream response</text>
      </g>
    </svg>
