<?xml version="1.0" encoding="UTF-8"?>
<!--
  Auto-generated from the reference HTML by
  scripts/storymode-extraction/extract.mjs.
  Do not edit by hand — regenerate the file instead.
-->
<svg xmlns="http://www.w3.org/2000/svg" xmlns:xlink="http://www.w3.org/1999/xlink" viewBox="0 0 1000 750" preserveAspectRatio="xMidYMid meet">
      <style>
        .nr-eyebrow { fill: #e8a951; font: 500 10px "Inter", sans-serif; letter-spacing: 2.5px; }
        .nr-title { fill: #e8ecf3; font: italic 400 22px "Fraunces", serif; }
        .nr-section-label { fill: #e8a951; font: 600 9px "Inter", sans-serif; letter-spacing: 1.5px; }
        .nr-section-label-bad { fill: #d14859; font: 600 9px "Inter", sans-serif; letter-spacing: 1.5px; }
        .nr-step-num { fill: #6b7689; font: 700 11px "JetBrains Mono", monospace; letter-spacing: 1.5px; }
        .nr-step-name { fill: #e8ecf3; font: 600 12px "Inter", sans-serif; letter-spacing: 0.5px; }
        .nr-stat { fill: #e8a951; font: 700 24px "Fraunces", serif; }
        .nr-stat-sub { fill: #b4becf; font: 500 10px "Inter", sans-serif; letter-spacing: 0.5px; }
        .nr-anatomy { fill: #b4becf; font: 500 10px "Inter", sans-serif; letter-spacing: 0.5px; }
        .nr-anatomy-dim { fill: #6b7689; font: 500 10px "Inter", sans-serif; letter-spacing: 0.5px; }
        .nr-caption { fill: #6b7689; font: italic 400 10px "Inter", sans-serif; }
        .nr-tag-text { fill: #0a0e1a; font: 700 8px "Inter", sans-serif; letter-spacing: 1px; }
        .nr-correct { fill: #4fb8a8; font: 700 11px "Inter", sans-serif; letter-spacing: 0.5px; }
        .nr-wrong { fill: #6b7689; font: 500 10px "Inter", sans-serif; letter-spacing: 0.3px; }
        .nr-pathogen { fill: #b4becf; font: italic 400 10px "Inter", sans-serif; }
        .nr-pathogen-key { fill: #e8a951; font: italic 600 11px "Inter", sans-serif; }
        .nr-callout-eyebrow { fill: #d14859; font: 600 9px "Inter", sans-serif; letter-spacing: 2px; }
        .nr-callout-eyebrow-good { fill: #4fb8a8; font: 600 9px "Inter", sans-serif; letter-spacing: 2px; }
        .nr-callout-text { fill: #b4becf; font: 400 10.5px "Inter", sans-serif; }
        .nr-drug { fill: #e8a951; font: 600 11px "Inter", sans-serif; letter-spacing: 0.5px; }
      </style>
      <defs>
        <marker id="nrArrow" viewBox="0 0 10 10" refX="8" refY="5" markerWidth="7" markerHeight="7" orient="auto">
          <path d="M 0 0 L 10 5 L 0 10 z" fill="#e8a951"/>
        </marker>
        <marker id="nrArrowCrimson" viewBox="0 0 10 10" refX="8" refY="5" markerWidth="7" markerHeight="7" orient="auto">
          <path d="M 0 0 L 10 5 L 0 10 z" fill="#d14859"/>
        </marker>
        <radialGradient id="nrGlowCrimson" cx="50%" cy="50%" r="50%">
          <stop offset="0%" stop-color="#d14859" stop-opacity="0.35"/>
          <stop offset="100%" stop-color="#d14859" stop-opacity="0"/>
        </radialGradient>
        <symbol id="saureusCluster" overflow="visible">
          <g fill="#e8a951" opacity="0.92" stroke="#a8762d" stroke-width="0.7">
            <circle cx="-5" cy="-3" r="2.3"/>
            <circle cx="-1" cy="-5" r="2.3"/>
            <circle cx="3" cy="-3" r="2.3"/>
            <circle cx="-3" cy="1" r="2.3"/>
            <circle cx="1" cy="3" r="2.3"/>
            <circle cx="5" cy="1" r="2.3"/>
            <circle cx="6" cy="-5" r="2.3"/>
          </g>
        </symbol>
        <symbol id="saureusDot" overflow="visible">
          <circle cx="0" cy="0" r="2.5" fill="#e8a951" opacity="0.92" stroke="#a8762d" stroke-width="0.6"/>
        </symbol>
      </defs>

      <text x="500" y="26" text-anchor="middle" class="nr-eyebrow">NASAL RESERVOIR · THE INFECTION THAT STARTED AS COMMENSAL</text>
      <text x="500" y="58" text-anchor="middle" class="nr-title">The source isn't "out there." It's the patient's own nose.</text>
      <line x1="40" y1="78" x2="960" y2="78" stroke="#222c3e" stroke-width="1"/>

      <!-- JOURNEY SECTION -->
      <text x="60" y="106" class="nr-section-label">THE JOURNEY · NOSE → BLOOD → PROSTHETIC JOINT</text>
      <line x1="40" y1="116" x2="960" y2="116" stroke="#222c3e" stroke-width="1"/>

      <!-- Body silhouette -->
      <g transform="translate(130 140)">
        <g stroke="#3a8a7e" stroke-width="1.3" fill="none" opacity="0.55">
          <circle cx="0" cy="22" r="28"/>
          <line x1="-12" y1="50" x2="-12" y2="60"/>
          <line x1="12" y1="50" x2="12" y2="60"/>
          <path d="M -60 68 Q -48 62 -12 60 L 12 60 Q 48 62 60 68"/>
          <path d="M -60 68 L -56 150 Q -50 162 -36 164 L -36 200 L -28 240 L -10 240 L -10 268 L 10 268 L 10 240 L 28 240 L 36 200 L 36 164 Q 50 162 56 150 L 60 68"/>
          <path d="M -60 72 L -70 110 L -74 150"/>
          <path d="M 60 72 L 70 110 L 74 150"/>
          <path d="M -10 268 L -14 310"/>
          <path d="M 10 268 L 14 310"/>
        </g>

        <!-- Nose reservoir -->
        <g>
          <circle cx="0" cy="18" r="14" fill="url(#nrGlowCrimson)"/>
          <ellipse cx="0" cy="22" rx="3" ry="4" fill="#d14859" opacity="0.9"/>
          <g transform="translate(0 22)"><use href="#saureusCluster"/></g>
        </g>

        <!-- Hip / prosthetic -->
        <g>
          <circle cx="24" cy="248" r="13" fill="url(#nrGlowCrimson)"/>
          <g transform="translate(24 248)">
            <circle cx="0" cy="-2" r="5.5" fill="none" stroke="#b4becf" stroke-width="1.3" opacity="0.85"/>
            <line x1="0" y1="3" x2="0" y2="10" stroke="#b4becf" stroke-width="2" opacity="0.85"/>
            <use href="#saureusDot" x="-4" y="-4"/>
            <use href="#saureusDot" x="3" y="-4"/>
            <use href="#saureusDot" x="0" y="4"/>
            <use href="#saureusDot" x="-2" y="8"/>
          </g>
        </g>

        <!-- Pathway -->
        <path d="M 0 32 C -5 80 10 130 16 200 C 22 235 24 246 24 248" stroke="#d14859" stroke-width="1.8" fill="none" stroke-dasharray="5 3" marker-end="url(#nrArrowCrimson)" opacity="0.75"/>

        <!-- Cocci in transit -->
        <g>
          <use href="#saureusDot" x="-3" y="60"/>
          <use href="#saureusDot" x="2" y="95"/>
          <use href="#saureusDot" x="8" y="130"/>
          <use href="#saureusDot" x="15" y="170"/>
          <use href="#saureusDot" x="20" y="210"/>
        </g>
      </g>

      <!-- Three journey stops labels -->
      <g transform="translate(250 138)">
        <text x="0" y="0" class="nr-step-num">01</text>
        <text x="28" y="0" class="nr-step-name">ANTERIOR NARES</text>
        <text x="28" y="17" class="nr-anatomy">the reservoir · colonized, not infected</text>
        <text x="28" y="50" class="nr-stat">≈30%</text>
        <text x="28" y="67" class="nr-stat-sub">of healthy adults are persistent carriers</text>
      </g>

      <g transform="translate(250 230)">
        <text x="0" y="0" class="nr-step-num">02</text>
        <text x="28" y="0" class="nr-step-name">BREACH · TRANSLOCATION</text>
        <text x="28" y="17" class="nr-anatomy">surgery, IV line, skin breach →</text>
        <text x="28" y="30" class="nr-anatomy">bacteria enter the bloodstream (bacteremia)</text>
      </g>

      <g transform="translate(250 310)">
        <text x="0" y="0" class="nr-step-num">03</text>
        <text x="28" y="0" class="nr-step-name" fill="#d14859">PROSTHETIC JOINT (target)</text>
        <text x="28" y="17" class="nr-anatomy">foreign material = ideal landing site</text>
        <text x="28" y="30" class="nr-anatomy">biofilm forms on the hardware</text>
      </g>

      <!-- Answer-choice roster (right side) -->
      <g transform="translate(600 138)">
        <text x="0" y="0" class="nr-section-label">WHICH SITE IS THE RESERVOIR FOR WHICH ORGANISM?</text>
        <line x1="-5" y1="12" x2="360" y2="12" stroke="#222c3e" stroke-width="1"/>

        <g transform="translate(0 32)">
          <rect x="-5" y="-14" width="360" height="28" rx="4" fill="#e8a951" fill-opacity="0.08" stroke="#e8a951" stroke-width="1.2"/>
          <text x="10" y="4" class="nr-correct">A · Anterior nares</text>
          <text x="140" y="4" class="nr-pathogen-key">→ S. aureus ✓</text>
          <rect x="290" y="-8" width="60" height="16" rx="3" fill="#d14859" opacity="0.92"/>
          <text x="320" y="4" text-anchor="middle" class="nr-tag-text">ANSWER</text>
        </g>

        <g transform="translate(0 62)">
          <text x="10" y="4" class="nr-wrong">B · Gastrointestinal tract</text>
          <text x="140" y="4" class="nr-pathogen">→ E. coli, enterococci, enteric rods</text>
        </g>

        <g transform="translate(0 86)">
          <text x="10" y="4" class="nr-wrong">C · Oropharynx</text>
          <text x="140" y="4" class="nr-pathogen">→ S. pneumoniae, viridans strep</text>
        </g>

        <g transform="translate(0 110)">
          <text x="10" y="4" class="nr-wrong">D · Perineum</text>
          <text x="140" y="4" class="nr-pathogen">→ mixed skin + enteric flora</text>
        </g>

        <g transform="translate(0 134)">
          <text x="10" y="4" class="nr-wrong">E · Urinary tract</text>
          <text x="140" y="4" class="nr-pathogen">→ not a carrier state (ascending only)</text>
        </g>
      </g>

      <!-- Clinical action strip -->
      <g transform="translate(0 490)">
        <line x1="40" y1="0" x2="960" y2="0" stroke="#222c3e" stroke-width="1"/>
        <text x="500" y="22" text-anchor="middle" class="nr-section-label">THE CLINICAL ACTION · ELIMINATE THE RESERVOIR</text>

        <g transform="translate(0 65)">
          <g transform="translate(150 0)">
            <circle cx="0" cy="0" r="22" fill="none" stroke="#d14859" stroke-width="1.5"/>
            <use href="#saureusCluster"/>
            <text x="0" y="42" text-anchor="middle" class="nr-caption">nasal carriage</text>
          </g>

          <path d="M 178 0 L 472 0" stroke="#e8a951" stroke-width="1.5" marker-end="url(#nrArrow)"/>
          <text x="325" y="-10" text-anchor="middle" class="nr-drug">intranasal MUPIROCIN</text>
          <text x="325" y="18" text-anchor="middle" class="nr-caption">(preoperative decolonization)</text>

          <g transform="translate(500 0)">
            <circle cx="0" cy="0" r="22" fill="none" stroke="#4fb8a8" stroke-width="1.5"/>
            <text x="0" y="4" text-anchor="middle" class="nr-correct" fill="#4fb8a8">✓</text>
            <text x="0" y="42" text-anchor="middle" class="nr-caption">reservoir eliminated</text>
          </g>

          <path d="M 528 0 L 822 0" stroke="#4fb8a8" stroke-width="1.5" marker-end="url(#nrArrow)"/>
          <text x="675" y="-10" text-anchor="middle" class="nr-drug" fill="#4fb8a8">→ prevents</text>
          <text x="675" y="18" text-anchor="middle" class="nr-caption">post-op bacteremia</text>

          <g transform="translate(850 0)">
            <circle cx="0" cy="0" r="22" fill="none" stroke="#4fb8a8" stroke-width="1.5" stroke-dasharray="3 2" opacity="0.7"/>
            <text x="0" y="4" text-anchor="middle" class="nr-correct">surgery ✓</text>
            <text x="0" y="42" text-anchor="middle" class="nr-caption">no seeding of joint</text>
          </g>
        </g>
      </g>

      <!-- Bottom resolver -->
      <g transform="translate(0 610)">
        <line x1="40" y1="0" x2="960" y2="0" stroke="#222c3e" stroke-width="1"/>

        <g transform="translate(40 18)">
          <text x="0" y="14" class="nr-callout-eyebrow-good">WHY THE NOSE</text>
          <text x="0" y="34" class="nr-callout-text">
            <tspan fill="#e8a951" font-weight="700">S. aureus</tspan>
            has a specific tropism for nasal mucosa.
          </text>
          <text x="0" y="50" class="nr-callout-text">
            30% of healthy adults are persistent nasal carriers —
          </text>
          <text x="0" y="66" class="nr-callout-text">
            other mucosal sites host different organisms.
          </text>
        </g>

        <g transform="translate(520 18)">
          <text x="0" y="14" class="nr-callout-eyebrow">WHY NOT THE WOUND</text>
          <text x="0" y="34" class="nr-callout-text">
            The surgical incision was
            <tspan fill="#4fb8a8" font-weight="700">clean</tspan>
            — no erythema, no drainage.
          </text>
          <text x="0" y="50" class="nr-callout-text">
            The bacteria reached the joint via the bloodstream,
          </text>
          <text x="0" y="66" class="nr-callout-text">
            not from the skin edge.
          </text>
        </g>

        <line x1="40" y1="96" x2="960" y2="96" stroke="#222c3e" stroke-width="1"/>
        <text x="500" y="112" text-anchor="middle" class="nr-caption">
          <tspan x="500">An infection isn't always a germ invading from outside.</tspan>
          <tspan x="500" dy="1.4em">It can be <tspan fill="#e8a951" font-weight="700">your own flora</tspan> taking advantage of a new opportunity.</tspan>
        </text>
      </g>
    </svg>
