<?xml version="1.0" encoding="UTF-8"?>
<!--
  Auto-generated from the reference HTML by
  scripts/storymode-extraction/extract.mjs.
  Do not edit by hand — regenerate the file instead.
-->
<svg xmlns="http://www.w3.org/2000/svg" xmlns:xlink="http://www.w3.org/1999/xlink" viewBox="0 0 900 460" preserveAspectRatio="xMidYMid meet">
      <style>
        .dg3-eyebrow { fill: #e8a951; font: 500 10px "Inter", sans-serif; letter-spacing: 2.5px; }
        .dg3-title { fill: #e8ecf3; font: italic 400 22px "Fraunces", serif; }
        .dg3-panel-label { fill: #b4becf; font: 600 11px "Inter", sans-serif; letter-spacing: 1.8px; }
        .dg3-state-name { fill: #e8a951; font: italic 600 13px "Fraunces", serif; }
        .dg3-label-dim { fill: #b4becf; font: 400 11px "Inter", sans-serif; }
        .dg3-caption { fill: #6b7689; font: italic 400 10px "Inter", sans-serif; }
        .dg3-tag { fill: #0a0e1a; font: 700 10px "Inter", sans-serif; }
        .dg3-tag-sm { fill: #0a0e1a; font: 700 8px "Inter", sans-serif; }
        .dg3-arrow-label { fill: #e8a951; font: 600 10px "Inter", sans-serif; letter-spacing: 1px; }
      </style>
      <defs>
        <radialGradient id="ikbGlowGold" cx="50%" cy="50%" r="50%">
          <stop offset="0%" stop-color="#e8a951" stop-opacity="0.45"/>
          <stop offset="70%" stop-color="#e8a951" stop-opacity="0.07"/>
          <stop offset="100%" stop-color="#e8a951" stop-opacity="0"/>
        </radialGradient>
        <radialGradient id="ikbGlowCrimson" cx="50%" cy="50%" r="50%">
          <stop offset="0%" stop-color="#d14859" stop-opacity="0.35"/>
          <stop offset="70%" stop-color="#d14859" stop-opacity="0.06"/>
          <stop offset="100%" stop-color="#d14859" stop-opacity="0"/>
        </radialGradient>
        <marker id="ikbArrowGold" viewBox="0 0 10 10" refX="8" refY="5" markerWidth="7" markerHeight="7" orient="auto">
          <path d="M 0 0 L 10 5 L 0 10 z" fill="#e8a951"/>
        </marker>
      </defs>

      <!-- Title -->
      <text x="450" y="26" text-anchor="middle" class="dg3-eyebrow">THE RELEASE MECHANISM</text>
      <text x="450" y="58" text-anchor="middle" class="dg3-title">IκB lets go of NF-κB</text>
      <line x1="40" y1="78" x2="860" y2="78" stroke="#222c3e" stroke-width="1"/>

      <!-- Panel 1: Resting -->
      <g transform="translate(40 100)">
        <text x="120" y="20" text-anchor="middle" class="dg3-panel-label">RESTING</text>
        <text x="120" y="40" text-anchor="middle" class="dg3-state-name">parking brake on</text>
        <rect x="10" y="60" width="220" height="220" rx="10" ry="10" fill="#0a0e1a" stroke="#222c3e" stroke-width="1"/>
        <g transform="translate(120 160)">
          <ellipse cx="-13" cy="0" rx="18" ry="14" fill="#e8a951" opacity="0.35"/>
          <ellipse cx="13" cy="0" rx="18" ry="14" fill="#e8a951" opacity="0.27"/>
          <text x="0" y="4" text-anchor="middle" fill="#0a0e1a" style="font: 700 11px Inter, sans-serif; opacity: 0.6;">NF-κB</text>
          <path d="M -28 -10 Q -28 -32 0 -32 Q 28 -32 28 -10 Q 28 0 22 4 L -22 4 Q -28 0 -28 -10 Z" fill="#d14859" opacity="0.92" stroke="#a53343" stroke-width="1"/>
          <text x="0" y="-14" text-anchor="middle" fill="#0a0e1a" style="font: 700 11px Inter, sans-serif;">IκB</text>
        </g>
        <text x="120" y="220" text-anchor="middle" class="dg3-caption">DNA-binding site is covered</text>
        <text x="120" y="234" text-anchor="middle" class="dg3-caption">NF-κB is locked out of the nucleus</text>
        <text x="120" y="262" text-anchor="middle" class="dg3-label-dim">cytoplasm</text>
      </g>

      <!-- Arrow 1→2 -->
      <g transform="translate(280 220)">
        <path d="M 0 0 L 50 0" stroke="#e8a951" stroke-width="1.8" stroke-dasharray="4 3" marker-end="url(#ikbArrowGold)"/>
        <text x="25" y="-26" text-anchor="middle" class="dg3-arrow-label">SIGNAL</text>
        <text x="25" y="-12" text-anchor="middle" class="dg3-caption">via TLR4</text>
        <text x="25" y="20" text-anchor="middle" class="dg3-caption">IKK adds</text>
        <text x="25" y="32" text-anchor="middle" class="dg3-caption">phosphate</text>
      </g>

      <!-- Panel 2: Tagged -->
      <g transform="translate(340 100)">
        <text x="120" y="20" text-anchor="middle" class="dg3-panel-label">TAGGED</text>
        <text x="120" y="40" text-anchor="middle" class="dg3-state-name">death tag added</text>
        <rect x="10" y="60" width="220" height="220" rx="10" ry="10" fill="#0a0e1a" stroke="#222c3e" stroke-width="1"/>
        <g transform="translate(120 160)">
          <ellipse cx="-13" cy="0" rx="18" ry="14" fill="#e8a951" opacity="0.35"/>
          <ellipse cx="13" cy="0" rx="18" ry="14" fill="#e8a951" opacity="0.27"/>
          <text x="0" y="4" text-anchor="middle" fill="#0a0e1a" style="font: 700 11px Inter, sans-serif; opacity: 0.6;">NF-κB</text>
          <path d="M -28 -10 Q -28 -32 0 -32 Q 28 -32 28 -10 Q 28 0 22 4 L -22 4 Q -28 0 -28 -10 Z" fill="#d14859" opacity="0.92" stroke="#a53343" stroke-width="1"/>
          <text x="0" y="-14" text-anchor="middle" fill="#0a0e1a" style="font: 700 11px Inter, sans-serif;">IκB</text>
          <g transform="translate(28 -28)">
            <circle cx="0" cy="0" r="9" fill="#e8a951" stroke="#c08537" stroke-width="1.2"/>
            <text x="0" y="3" text-anchor="middle" class="dg3-tag">P</text>
          </g>
          <line x1="22" y1="-26" x2="20" y2="-22" stroke="#e8a951" stroke-width="1.3"/>
          <g transform="translate(-30 -28)">
            <circle cx="0" cy="0" r="7" fill="#b4becf" stroke="#6b7689" stroke-width="1"/>
            <text x="0" y="3" text-anchor="middle" class="dg3-tag-sm">Ub</text>
          </g>
          <g transform="translate(-44 -36)">
            <circle cx="0" cy="0" r="6" fill="#b4becf" stroke="#6b7689" stroke-width="1" opacity="0.85"/>
            <text x="0" y="2.5" text-anchor="middle" class="dg3-tag-sm">Ub</text>
          </g>
          <g transform="translate(-58 -42)">
            <circle cx="0" cy="0" r="5" fill="#b4becf" stroke="#6b7689" stroke-width="1" opacity="0.7"/>
          </g>
          <line x1="-23" y1="-28" x2="-19" y2="-26" stroke="#6b7689" stroke-width="1"/>
        </g>
        <text x="120" y="220" text-anchor="middle" class="dg3-caption">P = phosphate (the death tag)</text>
        <text x="120" y="234" text-anchor="middle" class="dg3-caption">Ub = ubiquitin (sends to proteasome)</text>
        <text x="120" y="262" text-anchor="middle" class="dg3-label-dim">cytoplasm</text>
      </g>

      <!-- Arrow 2→3 -->
      <g transform="translate(580 220)">
        <path d="M 0 0 L 50 0" stroke="#e8a951" stroke-width="1.8" stroke-dasharray="4 3" marker-end="url(#ikbArrowGold)"/>
        <text x="25" y="-26" text-anchor="middle" class="dg3-arrow-label">DEGRADE</text>
        <text x="25" y="-12" text-anchor="middle" class="dg3-caption">proteasome</text>
        <text x="25" y="20" text-anchor="middle" class="dg3-caption">NF-κB</text>
        <text x="25" y="32" text-anchor="middle" class="dg3-caption">freed</text>
      </g>

      <!-- Panel 3: Released -->
      <g transform="translate(640 100)">
        <text x="120" y="20" text-anchor="middle" class="dg3-panel-label">RELEASED</text>
        <text x="120" y="40" text-anchor="middle" class="dg3-state-name">brake off — engine fires</text>
        <rect x="10" y="60" width="220" height="220" rx="10" ry="10" fill="#0a0e1a" stroke="#222c3e" stroke-width="1"/>
        <circle cx="120" cy="145" r="36" fill="url(#ikbGlowGold)"/>
        <g transform="translate(120 145)">
          <ellipse cx="-13" cy="0" rx="18" ry="14" fill="#e8a951" opacity="0.95"/>
          <ellipse cx="13" cy="0" rx="18" ry="14" fill="#e8a951" opacity="0.75"/>
          <text x="0" y="4" text-anchor="middle" fill="#0a0e1a" style="font: 700 11px Inter, sans-serif;">NF-κB</text>
        </g>
        <g opacity="0.55">
          <circle cx="62" cy="120" r="2.5" fill="#d14859"/>
          <circle cx="55" cy="135" r="1.8" fill="#d14859"/>
          <circle cx="50" cy="150" r="2.2" fill="#d14859"/>
          <circle cx="58" cy="165" r="1.5" fill="#d14859"/>
          <circle cx="178" cy="123" r="2" fill="#d14859"/>
          <circle cx="184" cy="138" r="1.8" fill="#d14859"/>
          <circle cx="180" cy="155" r="2.3" fill="#d14859"/>
          <circle cx="186" cy="170" r="1.6" fill="#d14859"/>
        </g>
        <text x="60" y="185" text-anchor="middle" class="dg3-caption">IκB</text>
        <text x="60" y="197" text-anchor="middle" class="dg3-caption">degraded</text>
        <path d="M 120 185 L 120 220" stroke="#e8a951" stroke-width="1.5" stroke-dasharray="3 3" marker-end="url(#ikbArrowGold)"/>
        <text x="120" y="240" text-anchor="middle" class="dg3-arrow-label">→ NUCLEUS</text>
        <text x="120" y="262" text-anchor="middle" class="dg3-caption">binds DNA · cytokine genes on</text>
      </g>

      <!-- Bottom caption -->
      <line x1="40" y1="410" x2="860" y2="410" stroke="#222c3e" stroke-width="1"/>
      <text x="450" y="422" text-anchor="middle" class="dg3-caption">
        <tspan x="450">IκB <tspan fill="#e8a951" font-weight="600">phosphorylated</tspan> · <tspan fill="#e8a951" font-weight="600">ubiquitinated</tspan> · <tspan fill="#e8a951" font-weight="600">destroyed</tspan></tspan>
        <tspan x="450" dy="1.5em">— and only then is NF-κB released.</tspan>
      </text>
    </svg>
