<?xml version="1.0" encoding="UTF-8"?>
<!--
  Auto-generated from the reference HTML by
  scripts/storymode-extraction/extract.mjs.
  Do not edit by hand — regenerate the file instead.
-->
<svg xmlns="http://www.w3.org/2000/svg" xmlns:xlink="http://www.w3.org/1999/xlink" viewBox="0 0 1000 480" preserveAspectRatio="xMidYMid meet">
      <!-- Reuses the .dg4-* classes and #neutrophil, #selectin, #sLeX, #integrin, #icam,
           #rollArrow, #rollArrowDim defined in the diagram-rolling symbol above. -->

      <!-- Title -->
      <text x="500" y="26" text-anchor="middle" class="dg4-eyebrow">ENDOTHELIAL ACTIVATION → DIAPEDESIS</text>
      <text x="500" y="58" text-anchor="middle" class="dg4-title">How a neutrophil leaves the bloodstream</text>
      <line x1="40" y1="78" x2="960" y2="78" stroke="#222c3e" stroke-width="1"/>
      <text x="500" y="98" text-anchor="middle" class="dg4-flow">
        cytokines activate endothelium → selectins → rolling →
        <tspan class="dg4-flow-accent">firm adhesion</tspan>
         → migration
      </text>

      <!-- Panel 1: Activation (unchanged) -->
      <g transform="translate(40 120)">
        <rect x="0" y="0" width="220" height="320" rx="10" ry="10" fill="#0a0e1a" stroke="#222c3e" stroke-width="1"/>
        <circle cx="22" cy="22" r="11" fill="#e8a951"/>
        <text x="22" y="26" text-anchor="middle" class="dg4-panel-num">1</text>
        <text x="40" y="26" class="dg4-panel-title">Activation</text>
        <text x="40" y="40" class="dg4-panel-sub">CYTOKINES SIGNAL</text>
        <text x="110" y="60" text-anchor="middle" class="dg4-caption">blood vessel lumen</text>
        <g fill="#e8a951">
          <circle cx="58" cy="92" r="3.5"/>
          <circle cx="78" cy="105" r="3"/>
          <circle cx="72" cy="80" r="2.8"/>
          <circle cx="98" cy="98" r="3"/>
          <circle cx="142" cy="92" r="3.5"/>
          <circle cx="158" cy="108" r="2.8"/>
          <circle cx="170" cy="86" r="3"/>
        </g>
        <text x="110" y="130" text-anchor="middle" class="dg4-label-gold">TNF · IL-1</text>
        <text x="110" y="143" text-anchor="middle" class="dg4-caption">(from activated macrophages)</text>
        <path d="M 110 152 L 110 175" stroke="#e8a951" stroke-width="1.4" stroke-dasharray="3 3" marker-end="url(#rollArrow)"/>
        <rect x="10" y="186" width="200" height="22" fill="#4fb8a8" opacity="0.18" stroke="#4fb8a8" stroke-width="1"/>
        <text x="110" y="200" text-anchor="middle" class="dg4-label-teal" opacity="0.85">endothelium</text>
        <rect x="10" y="214" width="200" height="40" fill="#d14859" opacity="0.05"/>
        <text x="110" y="236" text-anchor="middle" class="dg4-caption">tissue</text>
        <line x1="20" y1="270" x2="200" y2="270" stroke="#222c3e" stroke-width="1"/>
        <text x="110" y="289" text-anchor="middle" class="dg4-keypoint">RESULT</text>
        <text x="110" y="306" text-anchor="middle" class="dg4-caption">endothelium expresses selectins</text>
      </g>

      <!-- Panel 2: Rolling (now standard border, no QUESTION flag) -->
      <g transform="translate(280 120)">
        <rect x="0" y="0" width="220" height="320" rx="10" ry="10" fill="#0a0e1a" stroke="#222c3e" stroke-width="1"/>
        <circle cx="22" cy="22" r="11" fill="#e8a951"/>
        <text x="22" y="26" text-anchor="middle" class="dg4-panel-num">2</text>
        <text x="40" y="26" class="dg4-panel-title">Rolling</text>
        <text x="40" y="40" class="dg4-panel-sub">WEAK ADHESION</text>
        <text x="110" y="60" text-anchor="middle" class="dg4-caption">neutrophil rolls along the wall</text>
        <path d="M 25 90 L 50 90" stroke="#6b7689" stroke-width="1" marker-end="url(#rollArrowDim)" opacity="0.5"/>
        <path d="M 175 90 L 195 90" stroke="#6b7689" stroke-width="1" marker-end="url(#rollArrowDim)" opacity="0.5"/>
        <g transform="translate(110 145)">
          <use href="#neutrophil"/>
          <use href="#sLeX" x="-12" y="20"/>
          <use href="#sLeX" x="-4" y="22"/>
          <use href="#sLeX" x="4" y="22"/>
          <use href="#sLeX" x="12" y="20"/>
        </g>
        <text x="65" y="120" class="dg4-label">neutrophil</text>
        <line x1="80" y1="124" x2="92" y2="138" stroke="#b4becf" stroke-width="0.8"/>
        <text x="155" y="135" class="dg4-label-gold">sLeˣ</text>
        <text x="155" y="148" class="dg4-caption">(ligand)</text>
        <line x1="152" y1="138" x2="125" y2="158" stroke="#e8a951" stroke-width="0.8"/>
        <rect x="10" y="186" width="200" height="22" fill="#4fb8a8" opacity="0.55" stroke="#4fb8a8" stroke-width="1.2"/>
        <use href="#selectin" x="35" y="186"/>
        <use href="#selectin" x="60" y="186"/>
        <use href="#selectin" x="85" y="186"/>
        <use href="#selectin" x="110" y="186"/>
        <use href="#selectin" x="135" y="186"/>
        <use href="#selectin" x="160" y="186"/>
        <use href="#selectin" x="185" y="186"/>
        <text x="110" y="222" text-anchor="middle" class="dg4-label-teal">selectins on endothelium</text>
        <text x="110" y="235" text-anchor="middle" class="dg4-caption">(P-selectin, E-selectin)</text>
        <rect x="10" y="244" width="200" height="22" fill="#d14859" opacity="0.05"/>
        <text x="110" y="259" text-anchor="middle" class="dg4-caption">tissue</text>
        <line x1="20" y1="278" x2="200" y2="278" stroke="#222c3e" stroke-width="1"/>
        <text x="110" y="295" text-anchor="middle" class="dg4-keypoint">LOW AFFINITY</text>
        <text x="110" y="312" text-anchor="middle" class="dg4-caption">cell tumbles, slows down</text>
      </g>

      <!-- Panel 3: Firm adhesion — THIS STATION'S FOCUS -->
      <g transform="translate(520 120)">
        <rect x="0" y="0" width="220" height="320" rx="10" ry="10" fill="#0a0e1a" stroke="#d14859" stroke-width="1.5" opacity="1"/>
        <rect x="155" y="6" width="58" height="14" rx="3" fill="#d14859" opacity="0.92"/>
        <text x="184" y="16" text-anchor="middle" fill="#0a0e1a" style="font: 700 8px 'Inter', sans-serif; letter-spacing: 1px;">QUESTION</text>
        <circle cx="22" cy="22" r="11" fill="#e8a951"/>
        <text x="22" y="26" text-anchor="middle" class="dg4-panel-num">3</text>
        <text x="40" y="26" class="dg4-panel-title">Firm adhesion</text>
        <text x="40" y="40" class="dg4-panel-sub">INTEGRIN · ICAM-1</text>
        <text x="110" y="60" text-anchor="middle" class="dg4-caption">chemokines activate integrins</text>
        <g transform="translate(110 152)">
          <use href="#neutrophil"/>
          <use href="#integrin" x="-12" y="20"/>
          <use href="#integrin" x="-4" y="22"/>
          <use href="#integrin" x="4" y="22"/>
          <use href="#integrin" x="12" y="20"/>
        </g>
        <text x="155" y="138" class="dg4-label-gold">integrins</text>
        <text x="155" y="151" class="dg4-caption">(LFA-1, Mac-1)</text>
        <line x1="152" y1="142" x2="125" y2="170" stroke="#e8a951" stroke-width="0.8"/>
        <rect x="10" y="194" width="200" height="22" fill="#4fb8a8" opacity="0.55" stroke="#4fb8a8" stroke-width="1.2"/>
        <use href="#icam" x="98" y="194"/>
        <use href="#icam" x="106" y="194"/>
        <use href="#icam" x="114" y="194"/>
        <use href="#icam" x="122" y="194"/>
        <g stroke="#e8a951" stroke-width="2.5" opacity="0.95">
          <line x1="98" y1="180" x2="98" y2="184"/>
          <line x1="106" y1="180" x2="106" y2="184"/>
          <line x1="114" y1="180" x2="114" y2="184"/>
          <line x1="122" y1="180" x2="122" y2="184"/>
        </g>
        <text x="40" y="205" class="dg4-label-teal">ICAM-1</text>
        <line x1="62" y1="201" x2="86" y2="190" stroke="#4fb8a8" stroke-width="0.8"/>
        <text x="110" y="232" text-anchor="middle" class="dg4-caption">on endothelium</text>
        <rect x="10" y="244" width="200" height="22" fill="#d14859" opacity="0.05"/>
        <text x="110" y="259" text-anchor="middle" class="dg4-caption">tissue</text>
        <line x1="20" y1="278" x2="200" y2="278" stroke="#222c3e" stroke-width="1"/>
        <text x="110" y="295" text-anchor="middle" class="dg4-keypoint">HIGH AFFINITY</text>
        <text x="110" y="312" text-anchor="middle" class="dg4-caption">cell stops and grips firmly</text>
      </g>

      <!-- Panel 4: Migration / diapedesis (unchanged) -->
      <g transform="translate(760 120)">
        <rect x="0" y="0" width="220" height="320" rx="10" ry="10" fill="#0a0e1a" stroke="#222c3e" stroke-width="1"/>
        <circle cx="22" cy="22" r="11" fill="#e8a951"/>
        <text x="22" y="26" text-anchor="middle" class="dg4-panel-num">4</text>
        <text x="40" y="26" class="dg4-panel-title">Migration</text>
        <text x="40" y="40" class="dg4-panel-sub">DIAPEDESIS</text>
        <text x="110" y="60" text-anchor="middle" class="dg4-caption">squeezes between cells</text>
        <g transform="translate(110 175)">
          <ellipse cx="0" cy="-22" rx="18" ry="14" fill="#e8a951" opacity="0.85" stroke="#c08537" stroke-width="1.3"/>
          <ellipse cx="0" cy="3" rx="6" ry="8" fill="#e8a951" opacity="0.85" stroke="#c08537" stroke-width="1.3"/>
          <ellipse cx="0" cy="22" rx="14" ry="11" fill="#e8a951" opacity="0.85" stroke="#c08537" stroke-width="1.3"/>
          <ellipse cx="-5" cy="-22" rx="5" ry="4" fill="#7a4a1f" opacity="0.7"/>
          <ellipse cx="6" cy="-20" rx="5" ry="4" fill="#7a4a1f" opacity="0.7"/>
          <ellipse cx="0" cy="20" rx="6" ry="4" fill="#7a4a1f" opacity="0.7"/>
        </g>
        <rect x="10" y="170" width="92" height="22" fill="#4fb8a8" opacity="0.55" stroke="#4fb8a8" stroke-width="1.2"/>
        <rect x="118" y="170" width="92" height="22" fill="#4fb8a8" opacity="0.55" stroke="#4fb8a8" stroke-width="1.2"/>
        <g fill="#e8a951" opacity="0.7">
          <circle cx="50" cy="218" r="1.5"/>
          <circle cx="75" cy="222" r="1.8"/>
          <circle cx="90" cy="232" r="2"/>
          <circle cx="115" cy="228" r="2"/>
          <circle cx="130" cy="240" r="2.3"/>
          <circle cx="155" cy="232" r="2"/>
          <circle cx="170" cy="245" r="2.5"/>
          <circle cx="60" cy="240" r="1.8"/>
          <circle cx="100" cy="248" r="2"/>
          <circle cx="140" cy="250" r="2.2"/>
          <circle cx="180" cy="220" r="1.6"/>
        </g>
        <text x="60" y="250" class="dg4-label-gold">chemokines</text>
        <text x="60" y="262" class="dg4-caption">(IL-8 gradient)</text>
        <line x1="20" y1="278" x2="200" y2="278" stroke="#222c3e" stroke-width="1"/>
        <text x="110" y="295" text-anchor="middle" class="dg4-keypoint">EXTRAVASATION</text>
        <text x="110" y="312" text-anchor="middle" class="dg4-caption">follows chemokine trail to infection</text>
      </g>

      <!-- Bottom caption — adapted for Station 5's emphasis -->
      <line x1="40" y1="455" x2="960" y2="455" stroke="#222c3e" stroke-width="1"/>
      <text x="500" y="475" text-anchor="middle" class="dg4-caption">
        <tspan fill="#e8a951" font-weight="600">ICAM-1</tspan> on the endothelium binds
        <tspan fill="#e8a951" font-weight="600">activated integrins</tspan> on the neutrophil — the bond is strong, the cell stops rolling.
      </text>
    </svg>
