<svg xmlns="http://www.w3.org/2000/svg" xml:space="preserve" width="800" height="800" viewBox="0 0 237 260"><path d="M50 117c7 1 15 5 22 13l1-14a93 93 0 0 1 42-74l-7-6c-8-7-4-31-4-31L94 4c-3 15 0 27 0 27a3 3 0 0 1-7 1s-3-13 1-29L74 2s0 25-6 28h-1c-8 2-15-17-23-21l-12 9c13 13 12 31 10 37-6 27 8 62 8 62zm-4 82c5-1 11-9 17-29l7-28c-13-21-33-17-33-17a4 4 0 0 1-2-9h5c-3-10-12-38-7-61l-3-11c-1-2-8-3-16 0-7 2-13 6-12 9 0 0 17 57 19 88 1 7 1 32 18 53 1 2 4 6 7 5zM174 81c-5-6-12-11-19-15l-16 11c-8 7-11 16-9 24 3 13 22 22 45 21a4 4 0 1 1 0 9h-5c-26 0-45-11-49-28-2-11 2-23 12-32 13-13 36-21 36-21 2-1 2-7 0-12s-6-8-8-7c-45 9-77 43-79 85-1 8-6 81-33 91 48 53 159 70 183 25 15-29-26-120-58-151z"/></svg>