<?xml version="1.0" encoding="iso-8859-1"?>
<svg fill="#000000" version="1.1" id="Layer_1" xmlns="http://www.w3.org/2000/svg" xmlns:xlink="http://www.w3.org/1999/xlink" viewBox="0 0 32 32" xml:space="preserve"><path
d="M17,25.36c-0.395,0-0.751-0.17-1-0.439c-0.249,0.27-0.605,0.439-1,0.439c-0.75,0-1.36-0.61-1.36-1.36V13.36H9.583
l1.736,3.473c0.026,0.05,0.041,0.107,0.041,0.167c0,1.302-1.059,2.36-2.36,2.36S6.64,18.302,6.64,17
c0-0.061,0.015-0.118,0.041-0.167l1.79-3.58C7.983,13.046,7.64,12.562,7.64,12c0-0.75,0.61-1.36,1.36-1.36h5.067
c-0.275-0.39-0.427-0.87-0.427-1.39c0-1.301,1.059-2.36,2.36-2.36c1.302,0,2.36,1.059,2.36,2.36c0,0.52-0.152,1-0.427,1.39H23
c0.75,0,1.36,0.61,1.36,1.36c0,0.562-0.344,1.046-0.831,1.253l1.789,3.58c0.026,0.05,0.042,0.107,0.042,0.167
c0,1.302-1.059,2.36-2.36,2.36s-2.36-1.059-2.36-2.36c0-0.061,0.016-0.118,0.042-0.167l1.736-3.473H18.36V24
C18.36,24.75,17.75,25.36,17,25.36z M16.36,24c0,0.353,0.287,0.64,0.64,0.64c0.353,0,0.64-0.287,0.64-0.64V13
c0-0.199,0.161-0.36,0.36-0.36h5c0.353,0,0.64-0.287,0.64-0.64s-0.287-0.64-0.64-0.64h-6c-0.165,0-0.308-0.111-0.349-0.271
s0.033-0.327,0.177-0.405c0.509-0.276,0.812-0.812,0.812-1.434c0-0.904-0.735-1.64-1.64-1.64s-1.64,0.736-1.64,1.64
c0,0.621,0.304,1.157,0.812,1.434c0.145,0.079,0.218,0.246,0.177,0.405c-0.041,0.16-0.185,0.271-0.349,0.271H9
c-0.353,0-0.64,0.287-0.64,0.64S8.647,12.64,9,12.64h5c0.199,0,0.36,0.161,0.36,0.36v11c0,0.353,0.287,0.64,0.64,0.64
s0.64-0.287,0.64-0.64v-6h0.72V24z M21.399,17.36c0.165,0.731,0.82,1.279,1.601,1.279s1.436-0.548,1.601-1.279H21.399z
M7.4,17.36c0.164,0.732,0.819,1.28,1.6,1.28s1.436-0.548,1.6-1.279L7.4,17.36L7.4,17.36z M21.582,16.64h2.836L23,13.805L21.582,16.64z
M7.583,16.64h2.835L9,13.805L7.583,16.64z"/>
</svg>
