<svg  viewBox="0 0 210 210" xmlns="http://www.w3.org/2000/svg"><path d="M164 102C164 70.5198 137.137 45 104 45C70.8631 45 44.0001 70.5198 44.0001 102C44.0001 133.48 70.8631 159 104 159C137.137 159 164 133.48 164 102Z" fill="white"/><path d="M104.6 0.599976C84.0309 0.599976 63.9236 6.69947 46.8208 18.1271C29.7181 29.5548 16.3882 45.7974 8.51667 64.8009C0.645159 83.8044 -1.41439 104.715 2.59848 124.889C6.61134 145.063 16.5164 163.594 31.061 178.139C45.6057 192.684 64.1367 202.589 84.3108 206.602C104.485 210.615 125.396 208.555 144.399 200.683C163.403 192.812 179.645 179.482 191.073 162.379C202.501 145.277 208.6 125.169 208.6 104.6C208.568 77.0272 197.601 50.5929 178.104 31.0961C158.607 11.5992 132.173 0.631844 104.6 0.599976ZM154.131 86.389L95.4595 142.389C93.9677 143.808 91.9874 144.6 89.9283 144.6C87.8691 144.6 85.8888 143.808 84.397 142.389L55.0689 114.389C53.5367 112.921 52.6497 110.905 52.6027 108.784C52.5557 106.663 53.3527 104.61 54.8184 103.076C56.2842 101.542 58.2989 100.652 60.4201 100.602C62.5413 100.553 64.5955 101.347 66.1314 102.811L89.9283 125.537L143.069 74.8109C144.605 73.3471 146.659 72.5528 148.78 72.6024C150.901 72.6521 152.916 73.5417 154.382 75.0757C155.848 76.6098 156.645 78.663 156.598 80.7842C156.551 82.9055 155.664 84.9213 154.131 86.389Z" fill="#15803D"/>
</svg>
