<svg height="800" width="800" xmlns="http://www.w3.org/2000/svg" viewBox="0 0 24 24" xml:space="preserve"><path d="M12 24C5.4 24 0 18.6 0 12S5.4 0 12 0s12 5.4 12 12-5.4 12-12 12M2.2 10c-.1.6-.2 1.3-.2 2 0 5.5 4.5 10 10 10h.5c-.3-.5-.5-1.2-.5-2.1 0-.7-.3-.9-1-1.3-1.3-.6-2.6-1.6-1.6-4.4 0-.1-.4-.2-.6-.3-1.1-.3-1.4-1.2-1.5-1.8-.1-.4-.2-.9-.6-1.2-.7-.7-3-1-4.5-.9m7.1 2c.3.1 1.3.4 1.8 1.3.3.5.3 1 .1 1.6-.5 1.4-.3 1.5.6 1.9.8.4 2.2 1.1 2.2 3.1 0 .5.1 1 .4 1.3.2.2.3.3.5.3.4 0 .4-.5.4-.7 0-1.6.8-2.8 1.4-3.8.4-.7.8-1.3.8-1.8 0-.7-.4-1-1.4-1.4-.3-.1-.6-.3-.9-.4l-.9-.6c-.6-.5-1-.8-2.3-.8h-.4l-.3-.3c-.6-.5-2.3-2-1.2-4.2.3-.6.8-1 1.2-1.3.7-.5 1.1-.8 1.1-2.1 0-1.1-1-2.1-1.5-2.1-3.6.4-6.7 2.7-8.1 5.9 1.5 0 4.1.2 5.3 1.6.7.7.9 1.5 1 2.1.1.2.2.3.2.4m3.1-2c1.6.1 2.4.6 3.1 1.1.2.2.4.3.7.4.2.1.4.2.7.3 1 .5 2.6 1.2 2.6 3.3 0 1.2-.6 2.1-1.1 2.9s-1 1.5-1 2.4c2.7-1.7 4.6-4.8 4.6-8.4 0-4.9-3.5-8.9-8.1-9.8.3.6.5 1.3.5 2 0 2.3-1.2 3.2-2 3.7-.3.2-.5.4-.6.5-.1.4-.2.8.6 1.6"/></svg>