<?xml version="1.0" encoding="UTF-8"?>
<svg version="1.1" xmlns="http://www.w3.org/2000/svg" width="1633" height="1411">
<path d="M0 0 C0.81033691 0.19335938 1.62067383 0.38671875 2.45556641 0.5859375 C33.12314682 8.06386492 62.25134469 23.18657175 86 44 C86.81339844 44.70382813 87.62679688 45.40765625 88.46484375 46.1328125 C138.07521156 89.86517465 161.13884853 152.62952757 165.3984375 217.6953125 C166.26470945 233.02145516 166.18541727 248.30172441 165.25 263.625 C165.18564758 264.68465469 165.18564758 264.68465469 165.11999512 265.76571655 C163.35245835 294.05459755 158.24320849 321.51607395 151.23388672 348.95361328 C144.15514427 376.6796257 139.4450041 406.76015645 147 435 C147.24943359 435.96848877 147.24943359 435.96848877 147.50390625 436.95654297 C161.83020246 491.51585435 210.55966354 515.39668258 255.72628784 542.11816406 C264.19287443 547.12722233 272.62300659 552.17649559 280.93359375 557.44140625 C285.28906017 560.19690541 289.6882539 562.88017336 294.08398438 565.57080078 C333.06089506 589.44614488 371.05422597 614.72581525 407 643 C411.15984769 639.88652935 415.31330048 636.7650587 419.453125 633.625 C466.81603243 597.77439051 517.70813978 566.83337001 568.6640625 536.41796875 C604.63089732 515.7005554 604.63089732 515.7005554 637 490 C637.89912109 489.195625 637.89912109 489.195625 638.81640625 488.375 C659.04105213 469.60502703 669.87148856 439.3264201 671.12597656 412.28442383 C671.20720024 409.14728774 671.23493097 406.01312544 671.25 402.875 C671.270625 401.85535156 671.29125 400.83570313 671.3125 399.78515625 C671.39816637 382.07363486 667.80154275 364.8799843 663.35714722 347.82070923 C658.55670612 329.32627505 654.54899567 310.94640432 652 292 C651.81751709 290.64769287 651.81751709 290.64769287 651.63134766 289.26806641 C649.53612996 273.23361604 648.78638409 257.15770959 648.8125 241 C648.81343658 240.23998688 648.81437317 239.47997375 648.81533813 238.69692993 C648.89772366 207.6010628 652.68173773 176.7525409 662 147 C662.24943359 146.1848291 662.49886719 145.3696582 662.75585938 144.52978516 C672.20471945 114.08818131 687.98291367 85.83018328 709.69140625 62.49609375 C711.73053689 60.29134844 713.68520787 58.04168186 715.625 55.75 C719.11642918 51.75979522 722.91662494 48.37350603 727 45 C727.48903809 44.58266602 727.97807617 44.16533203 728.48193359 43.73535156 C751.90200268 23.77370471 780.1471094 8.61286802 810 1 C810.85045898 0.77844238 811.70091797 0.55688477 812.57714844 0.32861328 C859.59124154 -11.32223964 910.24404314 0.70949822 953 21 C954.19061035 21.56243408 954.19061035 21.56243408 955.40527344 22.13623047 C987.23008301 37.29120226 1016.50239375 57.52365656 1043.14453125 80.546875 C1045.98773553 82.98946363 1048.88882623 85.34217916 1051.8125 87.6875 C1055.88602715 90.99131999 1059.56247342 94.50474058 1063.20703125 98.26953125 C1065.61442989 100.59301185 1068.13691215 102.28214729 1071 104 C1072.32 103.34 1073.64 102.68 1075 102 C1076.52516464 103.62514908 1078.04922566 105.25130805 1079.57177734 106.87890625 C1080.86095401 108.2552468 1082.15296767 109.62893531 1083.44775391 111 C1086.94074036 114.71598054 1090.21353486 118.49420782 1093.375 122.5 C1095.73156286 125.26782282 1095.73156286 125.26782282 1099.046875 126.3515625 C1101.16445504 126.12069851 1102.96612883 125.62640139 1105 125 C1126.27146341 120.93631657 1148.57114482 123.58709985 1168 133 C1169.06863281 133.51433594 1170.13726563 134.02867187 1171.23828125 134.55859375 C1178.99916414 138.50743311 1185.54526551 143.1714711 1192 149 C1193.26457031 150.12341797 1193.26457031 150.12341797 1194.5546875 151.26953125 C1211.4301174 167.11981821 1222.89699514 191.13590617 1224.12451172 214.35522461 C1225.02152348 243.77553905 1217.58328024 269.72318687 1197.36279297 291.56298828 C1180.18324407 309.67814858 1156.01851891 321.33491955 1130.91796875 322.23828125 C1101.06656173 322.81405023 1075.15646003 313.6799868 1053.3125 292.75 C1032.6110375 271.27520701 1025.41830264 245.35743716 1025.72265625 216.16015625 C1026.10298137 201.73618432 1030.20607415 189.09427243 1036 176 C1035.25556641 175.27296875 1035.25556641 175.27296875 1034.49609375 174.53125 C1030.32427273 170.41484216 1026.34680345 166.21230129 1022.546875 161.75 C1020.91809181 159.84040633 1020.91809181 159.84040633 1018.5 157.75 C1018.005 157.1725 1017.51 156.595 1017 156 C1017.20109375 155.37996094 1017.4021875 154.75992188 1017.609375 154.12109375 C1017.73828125 153.42113281 1017.8671875 152.72117188 1018 152 C1016.74552745 150.0563323 1016.74552745 150.0563323 1014.75 148.3125 C1014.00492188 147.61253906 1013.25984375 146.91257813 1012.4921875 146.19140625 C1009.07741378 143.18876039 1005.57595619 140.31153417 1002.02734375 137.46875 C999.91755509 135.74825137 997.85697309 134.01667152 995.81640625 132.21875 C986.65611703 124.15296829 977.01320705 116.97210867 967 110 C966.36481445 109.55414551 965.72962891 109.10829102 965.07519531 108.64892578 C927.80656805 82.60494419 880.63853494 59.64016202 833.97265625 67.62011719 C801.38450391 73.89575643 770.1364248 95.11275154 751.203125 122.24926758 C715.588911 175.03167618 713.25355297 242.58699307 724.73876953 303.43945312 C726.83843329 313.89043406 729.509581 324.19662426 732.16119385 334.5178833 C747.29392908 393.51515366 744.3328569 453.60738863 713 507 C709.95370006 511.89114473 706.58023277 516.48918532 703 521 C702.5884668 521.52432617 702.17693359 522.04865234 701.75292969 522.58886719 C678.05753761 552.48801025 646.69286034 571.32018539 614.41439819 590.73858643 C610.16935466 593.29271414 605.93193587 595.85909355 601.69921875 598.43359375 C601.10071106 598.79759781 600.50220337 599.16160187 599.88555908 599.53663635 C598.68550588 600.26656761 597.48547321 600.99653263 596.28546143 601.72653198 C588.50727202 606.45744625 580.72196099 611.17547104 572.90405273 615.84057617 C563.2875045 621.57928441 553.79576205 627.49346436 544.35009766 633.50878906 C542.01362501 634.9913545 539.67028342 636.46235564 537.32421875 637.9296875 C525.39809054 645.39685851 513.65836227 653.12171667 502 661 C501.27683594 661.48855469 500.55367187 661.97710938 499.80859375 662.48046875 C486.29088583 671.63762573 473.03318704 681.16590783 460 691 C460.763125 691.86625 461.52625 692.7325 462.3125 693.625 C467.41140708 699.58772193 472.23196572 705.77172432 477 712 C477.650896 712.84957275 477.650896 712.84957275 478.31494141 713.71630859 C490.84298925 730.23208958 500.0491879 748.1837661 505.75 768.125 C505.94891846 768.81658203 506.14783691 769.50816406 506.3527832 770.22070312 C509.52921929 781.93985815 510.37956317 793.58223966 510.3125 805.6875 C510.31034485 806.39065338 510.3081897 807.09380676 510.30596924 807.81826782 C510.25211199 818.79316124 509.68356823 829.32359377 507 840 C506.80132324 840.81404297 506.60264648 841.62808594 506.39794922 842.46679688 C501.03614414 863.94614787 492.32144845 885.51782732 480 904 C493.62244905 898.60497067 506.69385238 892.59091119 519.45629883 885.3840332 C548.03379034 869.25818533 577.62528785 858.56343529 610 853 C611.01819824 852.82355957 612.03639648 852.64711914 613.08544922 852.46533203 C627.83830888 850.04608363 642.58362591 849.67929764 657.5 849.5625 C658.39439789 849.55019348 659.28879578 849.53788696 660.21029663 849.52520752 C671.52185673 849.39486513 681.2984847 849.38716619 690.625 856.625 C693 859 693 859 693 861 C694.07241943 861.04753418 695.14483887 861.09506836 696.24975586 861.14404297 C707.74953655 861.6942 719.13440107 862.74506235 730.5625 864.125 C731.45785461 864.2322641 732.35320923 864.3395282 733.2756958 864.45004272 C775.44995948 869.54956337 817.39062829 877.40141734 858 890 C859.10569336 890.34111816 860.21138672 890.68223633 861.35058594 891.03369141 C910.91092044 906.49519071 969.85589845 930.7804023 1007 968 C1007.61359375 968.54269531 1008.2271875 969.08539062 1008.859375 969.64453125 C1023.65125918 983.09467372 1029.83268415 1004.27038299 1030.92529297 1023.62280273 C1031.56205612 1042.08673843 1027.99871102 1060.36552118 1020.4375 1077.1875 C1016.98209587 1084.91577495 1015.7075311 1092.56601589 1014.48364258 1100.90478516 C1012.96910718 1110.95441667 1010.31494426 1120.40675221 1007 1130 C1006.64035156 1131.05767578 1006.64035156 1131.05767578 1006.2734375 1132.13671875 C1001.60163294 1145.61307807 995.1215234 1156.58513252 982.3203125 1163.43359375 C971.80869712 1168.35481422 961.03542143 1169.38362802 949.87109375 1166.0625 C936.40380794 1161.07868811 926.25790554 1151.99240653 920 1139 C914.73492204 1126.16896354 914.27140116 1112.07516475 919 1099 C923.02915658 1089.9043701 928.41410965 1082.39999407 935 1075 C935.68231689 1074.2272876 935.68231689 1074.2272876 936.37841797 1073.43896484 C944.80580606 1063.9239862 944.80580606 1063.9239862 949.00390625 1060.67578125 C952.76479311 1057.61767721 954.89749911 1053.74109341 957.25 1049.5625 C957.8996875 1048.45551758 957.8996875 1048.45551758 958.5625 1047.32617188 C962.56967828 1040.36926515 965.06119203 1034.11341751 964 1026 C959.42592735 1009.89488194 943.37582368 1001.48331052 929.8125 993.75 C928.68247559 993.10450195 927.55245117 992.45900391 926.38818359 991.79394531 C869.86644704 959.71003592 760.90516926 915.36763572 693 927 C690.57608703 928.25757841 688.59734386 929.62252265 686.5234375 931.39453125 C679.59054021 935.80539934 671.88515147 936.36871477 663.875 936.4375 C622.90317857 937.63388561 579.39201109 952.91664848 550.68359375 983.0390625 C539.37594449 995.51533344 532.03023005 1010.74623652 528 1027 C527.81381104 1027.73734375 527.62762207 1028.4746875 527.43579102 1029.234375 C525.8298939 1036.28347072 525.65334892 1043.16516255 525.6875 1050.375 C525.69487183 1052.22339478 525.69487183 1052.22339478 525.70239258 1054.10913086 C526.10935734 1086.200911 536.10262029 1116.58272557 552.6875 1143.875 C562.13958793 1159.46321722 562.13958793 1159.46321722 562.1875 1166.9375 C562.52318374 1174.86167064 567.55334901 1178.76502752 573 1184 C574.16320227 1185.29713174 575.31109581 1186.60828825 576.4375 1187.9375 C583.26441537 1195.77640517 590.26584004 1203.43856949 597.734375 1210.671875 C599.66937578 1212.66025511 601.46611018 1214.69122596 603.26953125 1216.796875 C606.90977858 1220.989147 610.84815331 1224.7514322 614.9375 1228.5 C616.35382678 1229.81146163 617.76920328 1231.12395033 619.18359375 1232.4375 C619.84858887 1233.05496094 620.51358398 1233.67242188 621.19873047 1234.30859375 C623.34744952 1236.32625783 625.43442478 1238.39746617 627.5 1240.5 C631.164048 1244.21153027 635.0443362 1247.60397995 639 1251 C640.08145836 1251.9444782 641.16211938 1252.88986979 642.2421875 1253.8359375 C709.77105791 1314.1946695 709.77105791 1314.1946695 792.5 1341 C800.92094021 1339.55883238 805.94907556 1335.69972421 811 1329 C812.57351291 1326.56065963 813.88424415 1324.06028744 815.125 1321.4375 C815.46700439 1320.71498047 815.80900879 1319.99246094 816.16137695 1319.24804688 C819.56287119 1311.54655049 820.76867765 1303.64467261 822.08203125 1295.3828125 C825.10470014 1276.68815407 831.78098667 1259.84312958 846.875 1247.6875 C858.48892023 1239.66457663 871.57764649 1236.93308343 885.5625 1238.375 C896.98962122 1240.64035151 907.86408931 1246.22694222 915.23046875 1255.33984375 C922.78402524 1266.69519026 924.56520525 1278.51743272 922.57421875 1291.8515625 C919.46538059 1303.56215534 911.46373442 1313.7074224 904 1323 C903.55527344 1323.55445801 903.11054687 1324.10891602 902.65234375 1324.68017578 C897.13006266 1331.49265556 891.40384233 1337.65054292 884.8125 1343.4375 C879.36414877 1348.25345332 875.75648704 1353.10999165 872.26977539 1359.4621582 C868.479178 1366.25942668 863.48068871 1371.50270314 858 1377 C857.15953125 1377.84691406 856.3190625 1378.69382812 855.453125 1379.56640625 C844.76613933 1390.16830446 833.16764655 1398.61284346 819 1404 C817.97519531 1404.39316406 816.95039062 1404.78632812 815.89453125 1405.19140625 C807.58615553 1407.88576086 799.69028101 1408.41208082 791 1408.5 C789.94482178 1408.51844971 788.88964355 1408.53689941 787.80249023 1408.5559082 C773.60099762 1408.44570069 760.74120932 1403.440134 747.8125 1398.0625 C746.78893402 1397.64123337 746.78893402 1397.64123337 745.74468994 1397.2114563 C686.46698599 1372.80243557 634.83840053 1338.62820587 588 1295 C587.07550049 1294.14317627 587.07550049 1294.14317627 586.13232422 1293.26904297 C562.7153473 1271.56141874 562.7153473 1271.56141874 553.5390625 1260.7578125 C551.9305945 1258.92072976 550.24161132 1257.21092213 548.5 1255.5 C545.46405075 1252.51127663 542.65491341 1249.38293521 539.875 1246.15625 C537.82640906 1243.80037042 535.72796998 1241.4949254 533.625 1239.1875 C530.4388461 1235.65997246 527.37418039 1232.06276772 524.375 1228.375 C523.62476563 1227.46492188 522.87453125 1226.55484375 522.1015625 1225.6171875 C520.79780409 1223.99354784 519.53345424 1222.33632223 518.3359375 1220.6328125 C514.07025068 1214.89619919 510.16898634 1214.02827661 503.2734375 1212.734375 C488.69406344 1209.46358464 481.46708581 1195.51949269 474 1183.8125 C448.01049135 1142.26495642 433.61065798 1099.07223366 429.22070312 1050.26220703 C428.12003408 1038.7423668 425.98049022 1027.54747508 423.41137695 1016.27294922 C423 1014 423 1014 423 1010 C422.360625 1009.773125 421.72125 1009.54625 421.0625 1009.3125 C417.58340146 1007.82145777 414.48727306 1005.92954566 411.28125 1003.92578125 C408.36353845 1002.74170995 406.99467679 1003.11894418 404 1004 C403.1028125 1004.22171875 402.205625 1004.4434375 401.28125 1004.671875 C397.20108268 1006.2535129 394.01871542 1007.86798925 392.05859375 1011.97021484 C389.96383463 1018.14528052 388.96925185 1024.56934564 388 1031 C387.8565918 1031.92087402 387.71318359 1032.84174805 387.56542969 1033.79052734 C386.21899953 1042.67791234 385.22378339 1051.59664561 384.36328125 1060.54296875 C381.24749491 1092.28806466 373.02906943 1122.32381638 359 1151 C358.3510376 1152.34263916 358.3510376 1152.34263916 357.68896484 1153.71240234 C352.08555843 1165.20590108 345.87079503 1176.14677922 338.8125 1186.8125 C338.17175537 1187.78413086 337.53101074 1188.75576172 336.87084961 1189.75683594 C330.3829032 1199.33439887 323.52115487 1209.44451007 312 1213 C309.05732128 1213.36687943 306.21491574 1213.56219472 303.25 1213.56640625 C302.5075 1213.70949219 301.765 1213.85257813 301 1214 C300.29847932 1215.31532922 299.63649199 1216.65200142 299 1218 C298.13111105 1219.13737613 297.22100587 1220.24416462 296.27734375 1221.3203125 C295.74318848 1221.93318115 295.2090332 1222.5460498 294.65869141 1223.17749023 C294.09069824 1223.82016846 293.52270508 1224.46284668 292.9375 1225.125 C292.35403809 1225.79152588 291.77057617 1226.45805176 291.16943359 1227.14477539 C287.13986575 1231.73803931 283.06878072 1236.29336575 278.96484375 1240.8203125 C277.18173336 1242.7983952 275.42985231 1244.798558 273.6875 1246.8125 C263.76145356 1258.16230348 253.25378811 1268.90586171 242.58056641 1279.54980469 C240.23613323 1281.88883481 237.89715129 1284.23322197 235.55859375 1286.578125 C234.04459166 1288.09146687 232.5302797 1289.60449881 231.015625 1291.1171875 C230.32897766 1291.80585907 229.64233032 1292.49453064 228.93487549 1293.20407104 C224.44971287 1297.66785754 219.80030881 1301.87874348 215 1306 C213.83222497 1307.02217264 212.66538909 1308.04542045 211.5 1309.0703125 C187.06546712 1330.43883636 161.16793334 1349.79048633 133 1366 C131.98848877 1366.58297852 131.98848877 1366.58297852 130.95654297 1367.17773438 C125.68133347 1370.20048418 120.35784608 1373.12649394 115 1376 C114.22994629 1376.41443359 113.45989258 1376.82886719 112.66650391 1377.25585938 C99.9105251 1384.04851682 86.73726333 1389.81082463 73.4375 1395.4375 C72.62148315 1395.78451965 71.80546631 1396.13153931 70.96472168 1396.48907471 C46.75732382 1406.75399046 21.78509745 1413.41516917 -4 1404 C-5.30324219 1403.58427734 -5.30324219 1403.58427734 -6.6328125 1403.16015625 C-31.15284388 1394.60574016 -51.08606236 1372.20196546 -63.55859375 1350.2578125 C-65.03383382 1347.94700285 -66.44399173 1346.5329587 -68.5625 1344.8125 C-85.50720114 1330.40331983 -105.89466672 1308.52089151 -108.875 1285.5625 C-109.53692078 1273.61398134 -106.39110878 1262.94972636 -99.02734375 1253.45703125 C-89.84217468 1243.50504225 -77.54439764 1238.93472253 -64.2421875 1238.0390625 C-48.85531023 1237.85367844 -36.25346294 1243.38671375 -25.13671875 1253.734375 C-13.65201025 1265.65198826 -9.12686532 1283.16300172 -6.74121094 1299.07250977 C-4.60213809 1313.05566309 0.08265451 1327.33397816 11 1337 C17.9812656 1341.54594039 25.38960538 1341.51539812 33.375 1340.125 C42.20014533 1338.01650582 50.20848495 1334.15346855 58.36474609 1330.25146484 C60.95633512 1329.02073617 63.56251439 1327.82842856 66.17578125 1326.64453125 C93.91351031 1313.95860697 119.10330848 1296.84629029 143 1278 C143.928125 1277.27425781 144.85625 1276.54851562 145.8125 1275.80078125 C152.09943788 1270.83369732 158.2033589 1265.64953248 164.296875 1260.44873047 C165.97339988 1259.02262688 167.65765292 1257.6061717 169.34375 1256.19140625 C184.70130477 1243.25463741 198.91983192 1229.17341178 213.125 1215 C213.80770966 1214.31996918 214.49041931 1213.63993835 215.19381714 1212.93930054 C222.01672034 1206.13670084 228.77092101 1199.357959 235 1192 C236.68238708 1190.16197359 238.36931747 1188.32808651 240.0625 1186.5 C241.71063666 1184.66873704 243.35665539 1182.83556449 245 1181 C245.62777344 1180.33226562 246.25554688 1179.66453125 246.90234375 1178.9765625 C251.15663659 1174.04615955 251.7120553 1169.60721565 252.4609375 1163.234375 C253.61704567 1156.29772596 257.48408507 1150.7480184 261.25 1144.9375 C282.01797522 1112.74713842 294.77231757 1069.93288819 287.8125 1031.5625 C281.93619518 1004.46010349 266.95114936 981.56678156 243.97265625 965.94140625 C215.908774 948.14564408 184.30687088 937.61470684 151.0625 936.5625 C131.56770124 935.9180881 131.56770124 935.9180881 124.9375 929.25 C118.58722495 924.38595954 108.65527349 927.0428735 101.08203125 928.03125 C97.65568766 928.4999593 94.23385033 928.99625031 90.8125 929.5 C89.44699005 929.69823868 89.44699005 929.69823868 88.05389404 929.90048218 C15.76244747 940.45327419 -55.519481 958.89444631 -119 996 C-119.72912598 996.42474609 -120.45825195 996.84949219 -121.20947266 997.28710938 C-133.30762393 1004.38176079 -144.19328952 1011.17803698 -149 1025 C-151.05742173 1035.06787521 -146.16946982 1043.6895865 -141 1052 C-137.05700872 1057.88256712 -132.42345529 1062.69328324 -127.3125 1067.5625 C-113.72900131 1080.86916746 -102.40426979 1095.31514663 -101 1115 C-100.8526418 1130.19631451 -105.92674513 1143.64291458 -116.3125 1154.8125 C-126.47810923 1164.3171167 -138.24710156 1168.25357839 -152 1168 C-164.10608708 1166.26028915 -173.97293521 1161.32010075 -182 1152 C-193.96896353 1134.32276156 -199.0891134 1110.72592866 -201.8125 1089.875 C-202.58717081 1084.87422325 -204.29654028 1080.65996841 -206.3125 1076.0625 C-209.18789575 1069.49810134 -211.237224 1062.97767891 -212.875 1056 C-213.07778564 1055.14027588 -213.28057129 1054.28055176 -213.48950195 1053.39477539 C-218.85475332 1029.47479294 -217.17402017 1002.91327533 -203.8125 981.8125 C-191.0204429 962.5725223 -172.2036942 951.96768017 -153 940 C-152.31824707 939.57332031 -151.63649414 939.14664063 -150.93408203 938.70703125 C-77.00266783 892.63012753 9.45028647 871.21384084 95.484375 862.94921875 C96.73323486 862.82568779 96.73323486 862.82568779 98.00732422 862.69966125 C101.92689218 862.31288853 105.84489626 861.95141892 109.77148438 861.64379883 C116.58393673 861.04243938 121.51423972 860.57247816 126.4074707 855.52954102 C134.47741116 847.77878569 147.264245 849.42207977 157.5625 849.5625 C158.47628418 849.56931793 159.39006836 849.57613586 160.33154297 849.5831604 C175.05472057 849.69703759 189.47125335 850.48231168 204 853 C205.50409424 853.24943359 205.50409424 853.24943359 207.03857422 853.50390625 C239.83892918 859.05892952 270.25388158 870.53142571 298.93359375 887.28125 C310.20596742 893.84805802 321.96712285 898.97839314 334 904 C333.6292334 903.3299292 333.2584668 902.6598584 332.87646484 901.96948242 C317.94685648 874.81936261 305.04472586 845.47804432 304 814 C303.96003906 812.80761719 303.92007813 811.61523438 303.87890625 810.38671875 C302.96110006 768.24064125 320.33456304 731.16748603 347.640625 699.76171875 C350.31779086 696.62801632 352.69742543 693.4141623 355 690 C354.41259033 689.7210791 353.82518066 689.4421582 353.2199707 689.15478516 C351.14449512 688.07516352 349.36085246 686.90887468 347.48046875 685.5234375 C346.80000488 685.02585937 346.11954102 684.52828125 345.41845703 684.015625 C344.3141333 683.20351562 344.3141333 683.20351562 343.1875 682.375 C325.80529018 669.72037905 308.11523553 657.57957024 290 646 C288.25907971 644.8815647 286.51819495 643.76307409 284.77734375 642.64453125 C265.56932121 630.33425306 246.11368272 618.43041064 226.53808594 606.71508789 C99.7077033 530.80541678 99.7077033 530.80541678 80 457 C76.63095941 442.69682967 73.87803317 428.46400056 73.796875 413.7421875 C73.78977005 412.88503143 73.7826651 412.02787537 73.77534485 411.14474487 C73.57412914 379.71495762 77.96582248 351.9615906 85.6484375 321.4453125 C101.43175262 258.30711819 102.16412725 187.21415996 68.2734375 129.67578125 C50.38968245 100.25830012 20.72504877 77.79940278 -12.62109375 69.00390625 C-54.60780419 58.87112599 -98.01155843 75.84025218 -133.5625 97.5 C-156.17500718 111.68184015 -177.22368714 128.09390523 -196.87890625 146.125 C-198.85052427 147.86786676 -200.87115905 149.45526281 -203 151 C-202.78794922 151.5990918 -202.57589844 152.19818359 -202.35742188 152.81542969 C-202.23947266 153.53633789 -202.12152344 154.25724609 -202 155 C-203.76317277 157.28246338 -205.47919885 159.22006429 -207.5 161.25 C-208.60689306 162.41264406 -209.71366424 163.57540418 -210.8203125 164.73828125 C-212.67332205 166.65012523 -214.54230731 168.53969168 -216.4296875 170.41796875 C-217.07164062 171.08441406 -217.71359375 171.75085938 -218.375 172.4375 C-218.93960938 172.99308594 -219.50421875 173.54867187 -220.0859375 174.12109375 C-221.29361812 176.09648454 -221.29361812 176.09648454 -220.31640625 178.8203125 C-219.88199219 179.86960938 -219.44757813 180.91890625 -219 182 C-208.67565899 209.22491244 -207.41928603 236.99967362 -219.12890625 264.08154297 C-229.89511216 287.79254241 -249.32505539 305.95610354 -273.40625 315.71875 C-301.18565989 325.62271353 -329.38473279 323.96967251 -356.02734375 311.59375 C-379.73683349 299.34781556 -397.14997394 278.28810834 -405.3515625 253.015625 C-411.07462126 233.49958288 -411.49644211 211.38813564 -405 192 C-404.79101074 191.36352539 -404.58202148 190.72705078 -404.36669922 190.07128906 C-399.52648443 175.67754171 -391.55051641 163.87485416 -381 153 C-380.40058594 152.32710937 -379.80117188 151.65421875 -379.18359375 150.9609375 C-364.95760368 135.53664589 -341.75268511 124.83382125 -320.90722656 123.85473633 C-317.35472278 123.83004404 -313.80259589 123.81434646 -310.25 123.8125 C-309.02539062 123.80025391 -307.80078125 123.78800781 -306.5390625 123.77539062 C-300.1739818 123.76516833 -294.272372 124.05607346 -288.07714844 125.5690918 C-285.70079405 126.13541796 -285.70079405 126.13541796 -282 126 C-280.26263047 124.54942204 -280.26263047 124.54942204 -278.74609375 122.53125 C-276.25062907 119.50870586 -273.72223818 116.5734049 -271.03515625 113.71875 C-270.38095703 113.02265625 -269.72675781 112.3265625 -269.05273438 111.609375 C-268.39595703 110.91328125 -267.73917969 110.2171875 -267.0625 109.5 C-266.37865234 108.77296875 -265.69480469 108.0459375 -264.99023438 107.296875 C-263.32805493 105.53008286 -261.66463361 103.76447952 -260 102 C-258.35 102.66 -256.7 103.32 -255 104 C-254.5875 103.57589844 -254.175 103.15179688 -253.75 102.71484375 C-250.11473793 99.02278071 -246.39307726 95.50282843 -242.46484375 92.125 C-240.5475805 90.47208208 -238.64744263 88.80475879 -236.75390625 87.125 C-228.20366877 79.57460736 -219.38367072 72.49869693 -210.24316406 65.67675781 C-207.9438825 63.95805235 -205.65552514 62.2254286 -203.3671875 60.4921875 C-165.70226338 32.14413009 -123.35855788 9.78131207 -77 0 C-76.21834473 -0.17644043 -75.43668945 -0.35288086 -74.63134766 -0.53466797 C-51.56831478 -5.61447591 -22.93582507 -5.73785427 0 0 Z M407 737 C388.53827508 756.37341504 373.58595491 778.90405287 372.625 806.4375 C373.73183309 836.14490015 388.69905598 863.35258178 407 886 C425.3572327 868.58167338 440.29248602 837.89600244 441.3359375 812.51953125 C441.70355832 789.4892858 435.429868 771.03733499 421 753 C420.23171875 752.02933594 419.4634375 751.05867187 418.671875 750.05859375 C414.97507032 745.46207005 411.22236139 741.12623057 407 737 Z " fill="#FFFFFF" transform="translate(409,3)"/>
</svg>
