<svg width="1633" height="1411" viewBox="0 0 1633 1411" fill="none" xmlns="http://www.w3.org/2000/svg">
<g clip-path="url(#clip0_12_21)">
<path d="M1362 24C1362.79 24.375 1363.59 24.7499 1364.41 25.1362C1396.23 40.2912 1425.5 60.5237 1452.14 83.5469C1454.99 85.9895 1457.89 88.3422 1460.81 90.6875C1464.89 93.9913 1468.56 97.5047 1472.21 101.27C1474.61 103.593 1477.14 105.282 1480 107C1481.32 106.34 1482.64 105.68 1484 105C1485.53 106.625 1487.05 108.251 1488.57 109.879C1489.86 111.255 1491.15 112.629 1492.45 114C1495.94 117.716 1499.21 121.494 1502.38 125.5C1504.73 128.268 1504.73 128.268 1508.05 129.352C1510.16 129.121 1511.97 128.626 1514 128C1535.27 123.936 1557.57 126.587 1577 136C1578.07 136.514 1579.14 137.029 1580.24 137.559C1588 141.507 1594.55 146.171 1601 152C1602.26 153.123 1602.26 153.123 1603.55 154.27C1620.43 170.12 1631.9 194.136 1633.12 217.355C1634.02 246.776 1626.58 272.723 1606.36 294.563C1589.18 312.678 1565.02 324.335 1539.92 325.238C1510.07 325.814 1484.16 316.68 1462.31 295.75C1441.61 274.275 1434.42 248.357 1434.72 219.16C1435.1 204.736 1439.21 192.094 1445 179C1444.5 178.515 1444.01 178.031 1443.5 177.531C1439.32 173.415 1435.35 169.212 1431.55 164.75C1429.92 162.84 1429.92 162.84 1427.5 160.75C1427 160.173 1426.51 159.595 1426 159C1426.2 158.38 1426.4 157.76 1426.61 157.121C1426.74 156.421 1426.87 155.721 1427 155C1425.75 153.056 1425.75 153.056 1423.75 151.312C1423 150.613 1422.26 149.913 1421.49 149.191C1418.08 146.189 1414.58 143.312 1411.03 140.469C1408.92 138.748 1406.86 137.017 1404.82 135.219C1395.66 127.153 1386.01 119.972 1376 113C1375.36 112.554 1374.73 112.108 1374.08 111.649C1336.81 85.6049 1289.64 62.6402 1242.97 70.6201C1210.38 76.8958 1179.14 98.1128 1160.2 125.249C1124.59 178.032 1122.25 245.587 1133.74 306.439C1135.84 316.89 1138.51 327.197 1141.16 337.518C1156.29 396.515 1153.33 456.607 1122 510C1118.95 514.891 1115.58 519.489 1112 524C1111.59 524.524 1111.18 525.049 1110.75 525.589C1087.06 555.488 1055.69 574.32 1023.41 593.739C1019.17 596.293 1014.93 598.859 1010.7 601.434C1010.1 601.798 1009.5 602.162 1008.89 602.537C1007.69 603.267 1006.49 603.997 1005.29 604.727C997.507 609.457 989.722 614.175 981.904 618.841C972.288 624.579 962.796 630.493 953.35 636.509C951.014 637.991 948.67 639.462 946.324 640.93C934.398 648.397 922.658 656.122 911 664C910.277 664.489 909.554 664.977 908.809 665.48C887.043 680.225 865.876 695.774 846 713C845.267 713.633 844.533 714.266 843.777 714.918C841.841 716.6 839.919 718.298 838 720C837.269 720.638 836.538 721.276 835.785 721.934C824.651 731.768 813.992 742.146 805 754C804.389 754.796 804.389 754.796 803.767 755.608C792.887 769.885 784.2 785.705 783 804C782.923 805.152 782.923 805.152 782.844 806.328C781.685 838.576 800.192 867.445 819 892C819.822 891.711 820.645 891.423 821.492 891.125C833.573 887.107 841.324 886.967 853 892C855.607 893.312 858.168 894.705 860.73 896.102C862.836 897.225 864.943 898.346 867.05 899.467C868.476 900.239 869.892 901.029 871.298 901.836C880.288 907.14 880.288 907.14 890.352 907.245C894.44 905.881 898.198 904.007 902 902C903.319 901.366 904.64 900.737 905.965 900.116C913.022 896.765 919.853 893.003 926.708 889.257C956.24 873.137 985.727 861.718 1019 856C1020.02 855.824 1021.04 855.647 1022.09 855.465C1036.84 853.046 1051.58 852.679 1066.5 852.562C1067.39 852.55 1068.29 852.538 1069.21 852.525C1080.52 852.395 1090.3 852.387 1099.63 859.625C1102 862 1102 862 1102 864C1103.07 864.048 1104.14 864.095 1105.25 864.144C1116.75 864.694 1128.13 865.745 1139.56 867.125C1140.46 867.232 1141.35 867.339 1142.28 867.45C1184.45 872.55 1226.39 880.401 1267 893C1268.11 893.341 1269.21 893.682 1270.35 894.034C1319.91 909.495 1378.86 933.78 1416 971C1416.61 971.543 1417.23 972.085 1417.86 972.645C1432.65 986.095 1438.83 1007.27 1439.93 1026.62C1440.56 1045.09 1437 1063.37 1429.44 1080.19C1425.98 1087.92 1424.71 1095.57 1423.48 1103.9C1421.97 1113.95 1419.31 1123.41 1416 1133C1415.64 1134.06 1415.64 1134.06 1415.27 1135.14C1410.6 1148.61 1404.12 1159.59 1391.32 1166.43C1380.81 1171.35 1370.04 1172.38 1358.87 1169.06C1345.4 1164.08 1335.26 1154.99 1329 1142C1323.73 1129.17 1323.27 1115.08 1328 1102C1332.03 1092.9 1337.41 1085.4 1344 1078C1344.45 1077.48 1344.91 1076.97 1345.38 1076.44C1353.81 1066.92 1353.81 1066.92 1358 1063.68C1361.76 1060.62 1363.9 1056.74 1366.25 1052.56C1366.9 1051.46 1366.9 1051.46 1367.56 1050.33C1371.57 1043.37 1374.06 1037.11 1373 1029C1368.43 1012.89 1352.38 1004.48 1338.81 996.75C1337.68 996.105 1336.55 995.459 1335.39 994.794C1278.87 962.71 1169.91 918.368 1102 930C1099.58 931.258 1097.6 932.623 1095.52 934.395C1088.59 938.805 1080.89 939.369 1072.88 939.438C1031.9 940.634 988.392 955.917 959.684 986.039C948.376 998.515 941.03 1013.75 937 1030C936.814 1030.74 936.628 1031.47 936.436 1032.23C934.83 1039.28 934.653 1046.17 934.688 1053.38C934.692 1054.61 934.697 1055.84 934.702 1057.11C935.109 1089.2 945.103 1119.58 961.688 1146.88C971.14 1162.46 971.14 1162.46 971.188 1169.94C971.523 1177.86 976.553 1181.77 982 1187C983.163 1188.3 984.311 1189.61 985.438 1190.94C992.264 1198.78 999.266 1206.44 1006.73 1213.67C1008.67 1215.66 1010.47 1217.69 1012.27 1219.8C1015.91 1223.99 1019.85 1227.75 1023.94 1231.5C1025.35 1232.81 1026.77 1234.12 1028.18 1235.44C1029.18 1236.36 1029.18 1236.36 1030.2 1237.31C1032.35 1239.33 1034.43 1241.4 1036.5 1243.5C1040.16 1247.21 1044.04 1250.6 1048 1254C1049.08 1254.94 1050.16 1255.89 1051.24 1256.84C1118.77 1317.19 1118.77 1317.19 1201.5 1344C1209.92 1342.56 1214.95 1338.7 1220 1332C1221.57 1329.56 1222.88 1327.06 1224.13 1324.44C1224.47 1323.71 1224.81 1322.99 1225.16 1322.25C1228.56 1314.55 1229.77 1306.64 1231.08 1298.38C1234.1 1279.69 1240.78 1262.84 1255.88 1250.69C1267.49 1242.66 1280.58 1239.93 1294.56 1241.38C1305.99 1243.64 1316.86 1249.23 1324.23 1258.34C1331.78 1269.7 1333.57 1281.52 1331.57 1294.85C1328.47 1306.56 1320.46 1316.71 1313 1326C1312.56 1326.55 1312.11 1327.11 1311.65 1327.68C1306.13 1334.49 1300.4 1340.65 1293.81 1346.44C1288.36 1351.25 1284.76 1356.11 1281.27 1362.46C1277.48 1369.26 1272.48 1374.5 1267 1380C1265.74 1381.27 1265.74 1381.27 1264.45 1382.57C1253.77 1393.17 1242.17 1401.61 1228 1407C1226.98 1407.39 1225.95 1407.79 1224.89 1408.19C1216.59 1410.89 1208.69 1411.41 1200 1411.5C1198.94 1411.52 1197.89 1411.54 1196.8 1411.56C1182.6 1411.45 1169.74 1406.44 1156.81 1401.06C1155.79 1400.64 1155.79 1400.64 1154.74 1400.21C1095.47 1375.8 1043.84 1341.63 997 1298C996.076 1297.14 996.076 1297.14 995.132 1296.27C971.715 1274.56 971.715 1274.56 962.539 1263.76C960.931 1261.92 959.242 1260.21 957.5 1258.5C954.464 1255.51 951.655 1252.38 948.875 1249.16C946.826 1246.8 944.728 1244.49 942.625 1242.19C939.439 1238.66 936.374 1235.06 933.375 1231.38C932.625 1230.46 931.875 1229.55 931.102 1228.62C929.798 1226.99 928.533 1225.34 927.336 1223.63C923.07 1217.9 919.169 1217.03 912.273 1215.73C897.694 1212.46 890.467 1198.52 883 1186.81C857.011 1145.26 842.611 1102.07 838.221 1053.26C837.12 1041.74 834.981 1030.55 832.411 1019.27C832 1017 832 1017 832 1013C830.928 1012.59 830.928 1012.59 829.834 1012.17C824.825 1010.1 820.136 1007.4 815.375 1004.81C813.83 1003.98 813.83 1003.98 812.254 1003.14C786.594 989.243 786.594 989.243 781.602 976.094C780.947 972.73 781.078 969.882 781.295 966.485C781.813 958.722 781.813 958.722 778.953 951.664C776.664 949.084 774.115 946.79 771.552 944.485C768.907 941.955 766.722 939.088 764.5 936.188C764.049 935.604 763.597 935.02 763.132 934.419C761.747 932.618 760.372 930.81 759 929C758.536 928.393 758.071 927.785 757.593 927.159C750.719 918.138 744.553 908.889 739 899C738.594 898.284 738.188 897.567 737.77 896.829C725.802 875.536 717.06 852.341 714 828C713.834 826.708 713.834 826.708 713.664 825.391C709.068 783.406 723.497 743.929 749.422 711.205C752.515 707.38 755.729 703.673 759 700C759.825 699.064 760.65 698.128 761.5 697.164C767.205 690.815 773.166 684.735 779.188 678.688C779.936 677.934 780.684 677.181 781.455 676.406C786.142 671.732 790.975 667.306 796 663C797.083 662.051 798.165 661.1 799.246 660.148C807.51 652.942 816.083 646.232 824.84 639.637C826.957 638.033 829.059 636.411 831.156 634.781C877.144 599.1 927.76 569.206 977.664 539.418C1013.63 518.701 1013.63 518.701 1046 493C1046.6 492.464 1047.2 491.928 1047.82 491.375C1068.04 472.605 1078.87 442.326 1080.13 415.284C1080.21 412.147 1080.23 409.013 1080.25 405.875C1080.27 404.855 1080.29 403.836 1080.31 402.785C1080.4 385.074 1076.8 367.88 1072.36 350.821C1067.56 332.326 1063.55 313.946 1061 295C1060.88 294.098 1060.76 293.197 1060.63 292.268C1058.54 276.234 1057.79 260.158 1057.81 244C1057.81 243.24 1057.81 242.48 1057.82 241.697C1057.9 210.601 1061.68 179.753 1071 150C1071.25 149.185 1071.5 148.37 1071.76 147.53C1081.2 117.088 1096.98 88.8302 1118.69 65.4961C1120.73 63.2913 1122.69 61.0417 1124.63 58.75C1128.12 54.7598 1131.92 51.3735 1136 48C1136.49 47.5827 1136.98 47.1653 1137.48 46.7354C1160.9 26.7737 1189.15 11.6129 1219 4C1219.85 3.77844 1220.7 3.55689 1221.58 3.32861C1268.59 -8.32224 1319.24 3.7095 1362 24Z" fill="white"/>
<path d="M409 1.99998C409.81 2.19334 410.621 2.3867 411.456 2.58592C442.123 10.0638 471.251 25.1866 495 46C495.813 46.7038 496.627 47.4076 497.465 48.1328C547.075 91.8652 570.139 154.63 574.398 219.695C575.265 235.021 575.185 250.302 574.25 265.625C574.186 266.685 574.186 266.685 574.12 267.766C572.352 296.055 567.243 323.516 560.234 350.954C553.155 378.68 548.445 408.76 556 437C556.249 437.968 556.249 437.968 556.504 438.957C570.83 493.516 619.56 517.397 664.726 544.118C673.193 549.127 681.623 554.176 689.934 559.441C694.289 562.197 698.688 564.88 703.084 567.571C733.102 585.959 762.699 605.042 791 626C791.684 626.506 792.369 627.012 793.074 627.533C811.11 640.886 828.416 654.872 845 670C845.967 670.874 846.934 671.748 847.93 672.648C857.108 680.969 866.047 689.48 874 699C874.452 699.533 874.904 700.066 875.37 700.615C907.034 738.045 922.223 777.623 918.798 826.909C918.257 832.038 917.256 837.002 916 842C915.801 842.814 915.603 843.628 915.398 844.467C905.469 884.24 883.414 919.406 855.542 949.117C852.969 951.839 852.969 951.839 851 955C851.144 955.66 851.289 956.32 851.438 957C853.38 967.361 851.277 976.59 845.312 985.312C839.008 992.875 829.419 997.082 820.875 1001.62C817.802 1003.27 814.731 1004.91 811.672 1006.58C809 1008 809 1008 806.797 1008.96C804.192 1010.15 802.349 1011.3 801.048 1013.9C800.27 1016.36 799.734 1018.78 799.25 1021.31C799.052 1022.24 798.855 1023.17 798.651 1024.13C796.058 1036.81 794.602 1049.67 793.363 1062.54C790.247 1094.29 782.029 1124.32 768 1153C767.351 1154.34 767.351 1154.34 766.689 1155.71C761.086 1167.21 754.871 1178.15 747.812 1188.81C747.172 1189.78 746.531 1190.76 745.871 1191.76C739.383 1201.33 732.521 1211.44 721 1215C718.057 1215.37 715.215 1215.56 712.25 1215.57C711.507 1215.71 710.765 1215.85 710 1216C709.298 1217.32 708.636 1218.65 708 1220C707.131 1221.14 706.221 1222.24 705.277 1223.32C704.743 1223.93 704.209 1224.55 703.659 1225.18C703.091 1225.82 702.523 1226.46 701.938 1227.12C701.354 1227.79 700.771 1228.46 700.169 1229.14C696.14 1233.74 692.069 1238.29 687.965 1242.82C686.182 1244.8 684.43 1246.8 682.688 1248.81C672.761 1260.16 662.254 1270.91 651.581 1281.55C649.236 1283.89 646.897 1286.23 644.559 1288.58C643.045 1290.09 641.53 1291.6 640.016 1293.12C639.329 1293.81 638.642 1294.49 637.935 1295.2C633.45 1299.67 628.8 1303.88 624 1308C622.832 1309.02 621.665 1310.05 620.5 1311.07C596.065 1332.44 570.168 1351.79 542 1368C540.988 1368.58 540.988 1368.58 539.957 1369.18C534.681 1372.2 529.358 1375.13 524 1378C523.23 1378.41 522.46 1378.83 521.667 1379.26C508.911 1386.05 495.737 1391.81 482.438 1397.44C481.621 1397.78 480.805 1398.13 479.965 1398.49C455.757 1408.75 430.785 1415.42 405 1406C403.697 1405.58 403.697 1405.58 402.367 1405.16C377.847 1396.61 357.914 1374.2 345.441 1352.26C343.966 1349.95 342.556 1348.53 340.438 1346.81C323.493 1332.4 303.105 1310.52 300.125 1287.56C299.463 1275.61 302.609 1264.95 309.973 1255.46C319.158 1245.51 331.456 1240.93 344.758 1240.04C360.145 1239.85 372.747 1245.39 383.863 1255.73C395.348 1267.65 399.873 1285.16 402.259 1301.07C404.398 1315.06 409.083 1329.33 420 1339C426.981 1343.55 434.39 1343.52 442.375 1342.12C451.2 1340.02 459.208 1336.15 467.365 1332.25C469.956 1331.02 472.563 1329.83 475.176 1328.64C502.914 1315.96 528.103 1298.85 552 1280C552.928 1279.27 553.856 1278.55 554.812 1277.8C561.099 1272.83 567.203 1267.65 573.297 1262.45C574.973 1261.02 576.658 1259.61 578.344 1258.19C593.701 1245.25 607.92 1231.17 622.125 1217C622.808 1216.32 623.49 1215.64 624.194 1214.94C631.017 1208.14 637.771 1201.36 644 1194C645.682 1192.16 647.369 1190.33 649.062 1188.5C650.711 1186.67 652.357 1184.84 654 1183C654.628 1182.33 655.256 1181.66 655.902 1180.98C660.157 1176.05 660.712 1171.61 661.461 1165.23C662.617 1158.3 666.484 1152.75 670.25 1146.94C691.018 1114.75 703.772 1071.93 696.812 1033.56C690.936 1006.46 675.951 983.567 652.973 967.941C624.909 950.146 593.307 939.615 560.062 938.562C540.568 937.918 540.568 937.918 533.938 931.25C527.587 926.386 517.655 929.043 510.082 930.031C506.656 930.5 503.234 930.996 499.812 931.5C498.447 931.698 498.447 931.698 497.054 931.901C424.762 942.453 353.481 960.894 290 998C289.271 998.425 288.542 998.849 287.791 999.287C275.692 1006.38 264.807 1013.18 260 1027C257.943 1037.07 262.831 1045.69 268 1054C271.943 1059.88 276.577 1064.69 281.688 1069.56C295.271 1082.87 306.596 1097.32 308 1117C308.147 1132.2 303.073 1145.64 292.688 1156.81C282.522 1166.32 270.753 1170.25 257 1170C244.894 1168.26 235.027 1163.32 227 1154C215.031 1136.32 209.911 1112.73 207.188 1091.88C206.413 1086.87 204.703 1082.66 202.688 1078.06C199.812 1071.5 197.763 1064.98 196.125 1058C195.922 1057.14 195.719 1056.28 195.511 1055.39C190.145 1031.47 191.826 1004.91 205.188 983.812C217.98 964.573 236.796 953.968 256 942C256.682 941.573 257.364 941.147 258.066 940.707C331.997 894.63 418.45 873.214 504.484 864.949C505.733 864.826 505.733 864.826 507.007 864.7C510.927 864.313 514.845 863.951 518.771 863.644C525.584 863.042 530.514 862.572 535.407 857.53C543.477 849.779 556.264 851.422 566.562 851.562C567.476 851.569 568.39 851.576 569.332 851.583C584.055 851.697 598.471 852.482 613 855C614.504 855.249 614.504 855.249 616.039 855.504C648.839 861.059 679.254 872.531 707.934 889.281C726.587 900.413 726.587 900.413 747 907C749.779 905.847 752.336 904.632 754.984 903.23C755.759 902.834 756.533 902.438 757.331 902.03C759.81 900.76 762.281 899.475 764.75 898.188C767.206 896.912 769.663 895.639 772.126 894.377C773.657 893.592 775.185 892.799 776.707 891.997C785.3 887.581 794.485 885.133 804.012 887.863C807.424 889.09 810.756 890.378 814 892C814.226 891.479 814.451 890.958 814.684 890.422C816.109 887.799 817.821 885.498 819.63 883.129C825.947 874.843 831.219 866.248 836 857C836.325 856.376 836.65 855.753 836.984 855.11C847.849 833.953 853.749 808.842 846.391 785.551C842.014 774.374 836.512 764.401 829 755C828.313 754.122 827.626 753.244 826.918 752.34C813.149 735.098 797.28 719.696 780 706C778.8 705.012 777.602 704.02 776.406 703.027C767.271 695.465 757.863 688.395 748.182 681.547C746.16 680.113 744.147 678.668 742.137 677.219C707.823 652.59 671.759 630.392 635.538 608.715C508.708 532.805 508.708 532.805 489 459C485.631 444.697 482.878 430.464 482.797 415.742C482.79 414.885 482.783 414.028 482.775 413.145C482.574 381.715 486.966 353.962 494.648 323.445C510.432 260.307 511.164 189.214 477.273 131.676C459.39 102.258 429.725 79.7994 396.379 71.0039C354.392 60.8711 310.988 77.8402 275.438 99.5C252.825 113.682 231.776 130.094 212.121 148.125C210.149 149.868 208.129 151.455 206 153C206.212 153.599 206.424 154.198 206.643 154.815C206.761 155.536 206.878 156.257 207 157C205.237 159.282 203.521 161.22 201.5 163.25C200.393 164.413 199.286 165.575 198.18 166.738C196.327 168.65 194.458 170.54 192.57 172.418C191.928 173.084 191.286 173.751 190.625 174.437C190.06 174.993 189.496 175.549 188.914 176.121C187.706 178.096 187.706 178.096 188.684 180.82C189.118 181.87 189.552 182.919 190 184C200.324 211.225 201.581 239 189.871 266.082C179.105 289.793 159.675 307.956 135.594 317.719C107.814 327.623 79.6153 325.97 52.9727 313.594C29.2632 301.348 11.85 280.288 3.64845 255.016C-2.07461 235.5 -2.49643 213.388 4.00001 194C4.209 193.364 4.41799 192.727 4.63332 192.071C9.47353 177.678 17.4495 165.875 28 155C28.5994 154.327 29.1988 153.654 29.8164 152.961C44.0424 137.537 67.2473 126.834 88.0928 125.855C91.6453 125.83 95.1974 125.814 98.75 125.812C99.9746 125.8 101.199 125.788 102.461 125.775C108.826 125.765 114.728 126.056 120.923 127.569C123.299 128.135 123.299 128.135 127 128C128.737 126.549 128.737 126.549 130.254 124.531C132.749 121.509 135.278 118.573 137.965 115.719C138.619 115.023 139.273 114.327 139.947 113.609C140.604 112.913 141.261 112.217 141.938 111.5C142.621 110.773 143.305 110.046 144.01 109.297C145.672 107.53 147.335 105.764 149 104C150.65 104.66 152.3 105.32 154 106C154.413 105.576 154.825 105.152 155.25 104.715C158.885 101.023 162.607 97.5028 166.535 94.125C168.452 92.4721 170.353 90.8047 172.246 89.125C180.796 81.5746 189.616 74.4987 198.757 67.6767C201.056 65.958 203.344 64.2254 205.633 62.4922C243.298 34.1441 285.641 11.7813 332 1.99998C332.782 1.82354 333.563 1.6471 334.369 1.46532C357.432 -3.61449 386.064 -3.73787 409 1.99998Z" fill="white"/>
</g>
<defs>
<clipPath id="clip0_12_21">
<rect width="1633" height="1411" fill="white"/>
</clipPath>
</defs>
</svg>
