<?xml version="1.0" encoding="UTF-8"?>
<svg version="1.1" xmlns="http://www.w3.org/2000/svg" width="2055" height="957">
<path d="M0 0 C0.8881691 -0.00807175 1.7763382 -0.01614349 2.69142151 -0.02445984 C4.56989624 -0.03825106 6.44839551 -0.04899525 8.3269043 -0.05688477 C10.22053536 -0.06834371 12.11413571 -0.08869764 14.00756836 -0.1184082 C32.37899068 -0.40603915 49.36481484 1.35731979 63.56640625 14.48828125 C71.25053013 23.10888023 75.37266618 32.6553725 78.81640625 43.55078125 C79.31172517 45.07867341 79.80803163 46.60624568 80.30517578 48.13354492 C81.79452928 52.73277489 83.25726907 57.34014532 84.71429443 61.94970703 C85.83905913 65.50764291 86.96754225 69.06438828 88.09619141 72.62109375 C98.87936581 106.6242701 109.45916787 140.69053772 119.99139404 174.77212524 C127.40445778 198.75709131 134.934304 222.70371011 142.51343155 246.63666916 C150.26213443 271.10650918 157.92111556 295.60222733 165.49612427 320.12637329 C172.67134938 343.35508126 179.93023868 366.55595558 187.25390625 389.73828125 C194.82856888 413.71552867 202.33067029 437.71372209 209.75390625 461.73828125 C217.47334314 486.71954044 225.26743199 511.67634332 233.12890625 536.61328125 C233.61279428 538.14868123 234.09668102 539.68408161 234.58056641 541.21948242 C235.05107518 542.71208678 235.52161513 544.20468132 235.9921875 545.69726562 C236.22089161 546.42269939 236.44959572 547.14813316 236.68523026 547.89554977 C237.7981622 551.42400616 238.91325966 554.95175388 240.03289795 558.47808838 C240.46043621 559.82490169 240.8879472 561.17172367 241.31542969 562.51855469 C241.52223736 563.17001087 241.72904503 563.82146706 241.9421196 564.49266434 C243.31292568 568.82017293 244.65321142 573.15632879 245.98144531 577.49707031 C246.33147614 578.62682281 246.68150696 579.75657532 247.04214478 580.92056274 C247.67869762 582.97606844 248.30676548 585.03423548 248.9234314 587.09579468 C252.42718614 598.32320693 257.72790163 609.79530621 268.06640625 616.11328125 C274.21021873 619.22120649 279.71267685 620.06266313 286.37890625 618.17578125 C291.76604718 616.06041178 296.32201683 613.37157086 298.80107117 607.94685364 C301.28524337 600.76524013 303.55348275 593.53625304 305.7109375 586.25 C306.08626617 584.99188004 306.46159485 583.73376007 306.84829712 582.43751526 C307.8759607 578.99188013 308.89931885 575.54498016 309.92176437 572.09779358 C310.79576752 569.15298704 311.67225591 566.20892239 312.54867268 563.26483345 C321.68318525 532.57690002 330.72636576 501.86188788 339.77141571 471.14749718 C344.64453951 454.60057949 349.53387475 438.0584815 354.42876053 421.51799011 C356.36678527 414.9690885 358.30449357 408.42009325 360.2421875 401.87109375 C360.4604035 401.13358887 360.6786195 400.39608398 360.9034481 399.63623047 C366.58024932 380.4498374 372.24832485 361.26086652 377.91680527 342.07201385 C386.23431834 313.91578363 394.55537653 285.76060883 402.88421631 257.60772705 C409.67657974 234.64826391 416.46337742 211.68716098 423.24661636 188.72500038 C425.18311781 182.16987231 427.1202383 175.61492738 429.05761719 169.06005859 C430.14913012 165.36687427 431.24059658 161.67367621 432.33203125 157.98046875 C432.60069756 157.07137127 432.86936386 156.16227379 433.14617157 155.2256279 C436.56092066 143.67022879 439.97036371 132.11328252 443.37365723 120.55450439 C445.06613813 114.80643033 446.76067821 109.05896398 448.45578766 103.31166458 C449.57707274 99.50938956 450.69722412 95.7067893 451.81445312 91.90332031 C464.71470033 47.99332281 464.71470033 47.99332281 471.56640625 35.30078125 C472.34733643 33.83705078 472.34733643 33.83705078 473.14404297 32.34375 C480.98457914 17.97705676 490.63260088 7.13266317 506.75390625 2.23828125 C513.24393538 0.47887417 519.34581275 -0.06929222 526.0546875 -0.0625 C527.01231491 -0.06678513 527.96994232 -0.07107025 528.95658875 -0.07548523 C530.97096979 -0.08119494 532.98537144 -0.08175377 534.99975586 -0.07739258 C538.04772909 -0.07423808 541.09472484 -0.09771573 544.14257812 -0.12304688 C559.45618654 -0.17382009 573.95295946 0.65827152 586.04296875 11.2421875 C597.14803707 22.86715602 599.06105704 36.68140024 599.00838184 52.11564255 C599.0107743 53.52065057 599.01404117 54.92565733 599.01809844 56.33066154 C599.02670651 60.18987606 599.02289696 64.04899315 599.01704272 67.90820914 C599.01286945 72.10747367 599.02027606 76.30672051 599.02619523 80.50598073 C599.03495912 87.86533215 599.03626866 95.22465574 599.03269196 102.58401108 C599.02738721 113.52778874 599.03347798 124.47153944 599.04177489 135.41531416 C599.05702377 156.09783365 599.05871903 176.78034091 599.05625186 197.46286485 C599.05441987 213.43365182 599.05617684 229.40443478 599.0604763 245.37522125 C599.0610787 247.66898227 599.0616799 249.96274329 599.06227991 252.25650431 C599.06318715 255.71290878 599.06409582 259.16931325 599.06501226 262.62571772 C599.07344323 294.76650421 599.0777765 326.90728919 599.07360554 359.04807663 C599.07344916 360.26000006 599.07329279 361.47192349 599.07313167 362.72057187 C599.07232588 368.86320133 599.07148011 375.00583079 599.07061837 381.14846024 C599.07044728 382.36842414 599.07027619 383.58838804 599.07009992 384.84532055 C599.06975327 387.31238479 599.06940474 389.77944904 599.06905433 392.24651328 C599.06369708 430.63440336 599.07162709 469.02227046 599.09008789 507.41015625 C599.11080068 550.53148736 599.12153196 593.65280423 599.1175124 636.7741406 C599.11711705 641.37145312 599.11675551 645.96876565 599.11641502 650.56607819 C599.11632429 651.69806658 599.11623356 652.83005497 599.11614008 653.99634604 C599.11497375 671.09031039 599.12162514 688.18426037 599.13222694 705.27822113 C599.1442713 724.71802812 599.14584674 744.15780346 599.13343678 763.59761092 C599.12680241 774.4772535 599.12845257 785.35682043 599.14202529 796.23645698 C599.15026185 803.50479728 599.14758254 810.77308083 599.13605002 818.04141651 C599.12978575 822.18198057 599.12821306 826.32239687 599.13991336 830.46295246 C599.15047463 834.23517258 599.14704869 838.00712018 599.13280883 841.77932584 C599.12882453 843.7638311 599.1394434 845.74834963 599.15078589 847.73282647 C599.08690638 858.32002483 597.8990408 868.55802438 592.2734375 877.71875 C591.04169084 879.76110628 589.92148083 881.79745834 588.828125 883.9140625 C588.31511841 884.9043042 588.31511841 884.9043042 587.79174805 885.91455078 C587.11843764 887.21935698 586.44908352 888.52621524 585.78442383 889.83544922 C580.75205983 899.46357363 573.66931383 905.90903209 563.22973633 909.42529297 C554.1504883 911.77769356 545.70276313 912.87467426 536.32666016 912.75976562 C534.25304407 912.73827231 532.18288936 912.75974434 530.109375 912.78515625 C516.09868191 912.81518115 501.76507441 910.57383687 490.75390625 901.23828125 C479.40391154 889.6119758 477.44302234 875.84018934 477.49562073 860.20928955 C477.49194502 858.92838778 477.48826932 857.64748601 477.48448223 856.32776904 C477.47456448 852.79726606 477.47685773 849.26686318 477.48120916 845.73635292 C477.4836971 841.91889928 477.47460201 838.10147117 477.46682739 834.2840271 C477.45480933 827.67513838 477.44967587 821.06627372 477.448946 814.45737457 C477.44761689 804.8868925 477.4324746 795.31646855 477.41345083 785.74600706 C477.3826388 770.19656399 477.35846051 754.64711944 477.34057617 739.09765625 C477.33950349 738.16793057 477.33843081 737.2382049 477.33732563 736.28030571 C477.32551008 725.91192874 477.31530346 715.54355118 477.30688477 705.1751709 C477.30381081 701.41691079 477.30072202 697.6586507 477.29760742 693.90039062 C477.29684208 692.97301689 477.29607674 692.04564316 477.29528821 691.09016719 C477.282186 675.60180861 477.25751852 660.11349213 477.22386402 644.62516475 C477.20362722 635.08462312 477.19327727 625.54417169 477.19585323 616.00360844 C477.19689191 609.46065834 477.18719371 602.91777938 477.1692142 596.37485412 C477.15921627 592.60600463 477.15399005 588.83731262 477.16198158 585.06845474 C477.17056699 580.97056511 477.15584426 576.87307222 477.13917542 572.77520752 C477.14538723 571.60105073 477.15159905 570.42689394 477.1579991 569.21715665 C477.07813209 558.38295821 476.24111115 544.77441824 468.75390625 536.23828125 C462.50511259 531.20123085 455.86922917 530.51446462 448.03515625 530.8125 C441.41986077 531.67091334 437.17395265 534.32530749 432.75390625 539.23828125 C431.67090926 541.5773421 431.67090926 541.5773421 430.99658203 544.19360352 C430.56163673 545.69657234 430.56163673 545.69657234 430.11790466 547.22990417 C429.81473831 548.32708267 429.51157196 549.42426117 429.19921875 550.5546875 C428.86563858 551.71966263 428.53205841 552.88463776 428.18836975 554.08491516 C427.45955931 556.63578819 426.73560912 559.1875001 426.01937866 561.74188232 C424.85886099 565.87949714 423.67984884 570.01169766 422.49731445 574.14306641 C422.08549593 575.58245003 421.67370733 577.02184222 421.26194763 578.46124268 C420.95122724 579.54738232 420.95122724 579.54738232 420.63422966 580.65546417 C419.99233372 582.90182873 419.352204 585.14868995 418.71253967 587.39569092 C414.33489875 602.76560136 409.83259254 618.09825963 405.31988525 633.42895508 C403.00073875 641.30817816 400.68796693 649.18927364 398.375 657.0703125 C398.14426788 657.85634983 397.91353577 658.64238716 397.67581177 659.4522438 C391.20919034 681.48367668 384.78597806 703.52778459 378.36660767 725.5730238 C377.36702314 729.00513353 376.36638758 732.43693046 375.36343384 735.86805725 C374.96794591 737.22119847 374.57246862 738.5743428 374.17700195 739.92749023 C373.88329964 740.93227401 373.88329964 740.93227401 373.58366394 741.95735645 C372.29643447 746.36601447 371.02072905 750.77788219 369.75080299 755.19155407 C368.85640306 758.2960571 367.95651 761.39895322 367.05574799 764.50161552 C366.62967674 765.97399521 366.20598471 767.44706592 365.78491974 768.92088509 C362.79525021 779.38035516 359.23780998 788.84551532 353.75390625 798.23828125 C352.58638372 800.529512 351.41969886 802.82116982 350.25390625 805.11328125 C342.78041835 818.74438333 332.6787109 828.3231032 317.61328125 832.88671875 C307.7450302 835.33603286 297.39003017 835.3947112 287.27734375 835.40625 C286.227211 835.4095784 285.17707825 835.4129068 284.09512329 835.41633606 C281.88845248 835.42136048 279.68177418 835.42374579 277.47509766 835.42358398 C274.1577454 835.42576231 270.84073084 835.44394451 267.5234375 835.46289062 C257.84256231 835.48912496 248.23354572 835.41145162 238.6015625 834.359375 C237.54737625 834.24434883 237.54737625 834.24434883 236.47189331 834.1269989 C222.99474012 832.43624751 209.97767397 825.56168826 201.52392578 814.76904297 C191.44485061 800.35805081 187.1160857 782.80252705 181.96492386 766.20988464 C180.75528593 762.32399201 179.52996893 758.44304604 178.30639648 754.56152344 C176.10685829 747.57659584 173.91972095 740.5878688 171.73901844 733.59704018 C169.69270042 727.03812954 167.63345226 720.48332591 165.5703125 713.9296875 C163.03981141 705.88631478 160.51729028 697.8404851 158 689.79296875 C151.83784839 670.09855555 145.62922376 650.41871763 139.42260742 630.73828125 C138.68823658 628.40960529 137.95386756 626.08092875 137.2195034 623.75225067 C136.73229545 622.20734658 136.24506327 620.66245013 135.75780678 619.11756134 C132.74398244 609.56147867 129.73674835 600.00336657 126.73880005 590.44229126 C125.09045343 585.18553997 123.43843751 579.92994333 121.78631592 574.67437744 C121.02543432 572.25113628 120.26599223 569.82744258 119.50811768 567.40325928 C112.02179951 538.51722529 112.02179951 538.51722529 92.75390625 517.23828125 C86.05770408 515.00621386 77.40027965 514.99371267 70.94140625 517.98828125 C67.72494674 519.8164018 67.72494674 519.8164018 67.06300491 522.0360111 C66.6997085 524.62443006 66.62507117 527.10953345 66.62082767 529.72460365 C66.61446611 531.40760423 66.61446611 531.40760423 66.60797602 533.12460482 C66.60836215 534.3574516 66.60874828 535.59029838 66.60914612 536.86050415 C66.60561927 538.17020908 66.60209243 539.479914 66.59845871 540.82930696 C66.58875962 544.46822838 66.58520999 548.1071341 66.58261573 551.74606657 C66.57872164 555.67003855 66.56908376 559.59399666 66.56005859 563.51795959 C66.54511401 570.32174014 66.53357144 577.12551958 66.52411079 583.92930984 C66.51022783 593.78608429 66.48903657 603.64283317 66.46568226 613.49958925 C66.42774777 629.51697271 66.39279314 645.53436083 66.36108398 661.55175781 C66.35823325 662.99023528 66.35823325 662.99023528 66.35532492 664.4577729 C66.32854306 678.04066395 66.30465748 691.62355856 66.28193992 705.20645694 C66.28034262 706.16119725 66.27874531 707.11593755 66.27709961 708.09960938 C66.27470941 709.52996651 66.27470941 709.52996651 66.27227093 710.98921974 C66.24543671 726.92940689 66.2110058 742.86956708 66.17044586 758.80972517 C66.14575862 768.63082647 66.12738307 778.45189887 66.11729025 788.27302621 C66.10985848 795.01742295 66.09527133 801.76178087 66.07522602 808.50615181 C66.06391545 812.38883522 66.05569528 816.27145627 66.05623436 820.15415764 C66.05627628 868.65296805 66.05627628 868.65296805 55.96875 881.5 C54.58657536 883.47770969 53.73209004 885.4454643 52.81640625 887.67578125 C48.59240772 897.57104473 41.76559846 904.27326513 31.87890625 908.48828125 C22.55703382 912.19104591 13.0130751 912.58527734 3.09667969 912.55395508 C1.02094314 912.55080709 -1.05334593 912.57429167 -3.12890625 912.59960938 C-18.13789844 912.67088402 -32.73749624 910.60844949 -44.05859375 900.05078125 C-55.23194476 888.06948069 -56.71025449 872.59308867 -56.62641048 856.81653023 C-56.62985255 855.41342231 -56.63460507 854.01031712 -56.64053145 852.60721749 C-56.65295587 848.77653138 -56.64692993 844.94607007 -56.63769777 841.11538331 C-56.63095689 836.93834645 -56.64166961 832.76134684 -56.65009362 828.58431804 C-56.66244172 821.27165975 -56.66368098 813.95906564 -56.65754318 806.64640045 C-56.64844032 795.77197953 -56.65649362 784.89761782 -56.66783442 774.02320144 C-56.6874919 754.59921372 -56.68985052 735.17525271 -56.68463922 715.75125742 C-56.68008067 698.75166752 -56.68068295 681.75208819 -56.68647957 664.75249863 C-56.68723644 662.4715104 -56.68799242 660.19052217 -56.68874751 657.90953394 C-56.68989272 654.47222311 -56.6910426 651.03491228 -56.69220676 647.59760145 C-56.70291042 615.64435721 -56.70763835 583.69111649 -56.6997366 551.73787117 C-56.69943942 550.53358492 -56.69914225 549.32929866 -56.69883607 548.08851889 C-56.69638717 538.30908771 -56.69377557 528.52965657 -56.69115194 518.75022543 C-56.68104922 480.60316091 -56.68940593 442.45614041 -56.71264648 404.30908203 C-56.73872099 361.44111656 -56.75156656 318.57317759 -56.74445873 275.70520389 C-56.74374268 271.1340344 -56.74306829 266.5628649 -56.74241829 261.9916954 C-56.74224848 260.86617439 -56.74207867 259.74065337 -56.74190372 258.58102565 C-56.73960122 241.59464757 -56.74757536 224.6082941 -56.76070976 207.62192154 C-56.77562087 188.30345102 -56.77646428 168.98503817 -56.75863885 149.66656889 C-56.74907658 138.85860803 -56.75050929 128.05078168 -56.76787354 117.2428298 C-56.77836814 110.01861532 -56.77425541 102.79450322 -56.7583935 95.5702988 C-56.74976794 91.45745565 -56.74732165 87.34487593 -56.76266282 83.23204638 C-56.89731576 44.39954753 -56.89731576 44.39954753 -47.6796875 32.30859375 C-46.09556381 30.02089469 -45.24084752 27.85499355 -44.30859375 25.23828125 C-40.85805703 16.13112697 -34.85374529 9.7126231 -26.24609375 5.23828125 C-17.48851117 1.4380507 -9.47816332 0.08328371 0 0 Z " fill="#FEFEFE" transform="translate(110.24609375,28.76171875)"/>
<path d="M0 0 C1.09626714 -0.00445668 1.09626714 -0.00445668 2.21468109 -0.0090034 C4.65867094 -0.01766073 7.10261164 -0.01919615 9.5466156 -0.02069092 C11.30126042 -0.02532131 13.05590423 -0.03034627 14.81054688 -0.03573608 C19.575367 -0.04884357 24.34017303 -0.0553022 29.10500836 -0.05974674 C32.08529616 -0.06268105 35.06558014 -0.0667866 38.04586601 -0.07125092 C47.3801422 -0.08492352 56.71440964 -0.09459048 66.04869515 -0.09845281 C76.80514681 -0.10292856 87.56147108 -0.12045504 98.31788403 -0.1494534 C106.64337152 -0.17111476 114.96882329 -0.18115952 123.29433864 -0.18249393 C128.26120241 -0.18353906 133.22794639 -0.18938429 138.19478035 -0.20731354 C142.87254876 -0.22387063 147.55010835 -0.22591287 152.22789574 -0.21717453 C153.93701362 -0.21640814 155.64614308 -0.22069384 157.35523224 -0.23063278 C174.04370023 -0.32192522 188.95929406 1.99611053 201.54441833 13.84747314 C210.68484612 23.82039342 214.49197032 36.0027622 217.07420349 49.01617432 C217.28720313 50.05376483 217.50020277 51.09135534 217.71965694 52.16038799 C218.42445998 55.60398365 219.11725501 59.04987948 219.81004333 62.49591064 C220.31476376 64.97442183 220.82023077 67.45278108 221.3263855 69.93099976 C222.41294978 75.25946574 223.49435446 80.58893702 224.57106018 85.91940308 C226.14848452 93.72862151 227.73571359 101.5358236 229.32511437 109.34261215 C232.05574833 122.7562151 234.77761484 136.17158333 237.49503148 149.58786952 C239.66348731 160.29378712 241.83430601 170.99922025 244.0087738 181.70391846 C244.14446966 182.3719406 244.28016552 183.03996274 244.41997337 183.72822797 C245.23414074 187.73618019 246.04842852 191.74410793 246.86275768 195.75202727 C247.93928168 201.0504902 249.01565378 206.34898399 250.09199905 211.64748323 C250.35985183 212.96603127 250.62770969 214.28457829 250.89557266 215.60312426 C252.78551749 224.90643115 254.67388788 234.2100565 256.56131649 243.51387417 C264.21221991 281.22638162 271.92301355 318.92637837 279.66186905 356.62094498 C288.88975851 401.57168045 298.02340377 446.54105398 307.12704039 491.51709127 C316.09863671 535.84057898 325.11198976 580.15488541 334.20848083 624.45294189 C343.19100984 668.19973454 352.11402811 711.95832025 360.99239856 755.726358 C362.12196547 761.29471311 363.25214473 766.86294368 364.38258362 772.43112183 C365.90287443 779.9198809 367.42162179 787.40895183 368.93930817 794.89823914 C369.49671227 797.64866905 370.05463732 800.39899241 370.61306 803.1492157 C372.30367965 811.47704493 373.98298245 819.80705089 375.64598083 828.14044189 C375.85409267 829.179566 376.06220451 830.21869011 376.27662277 831.28930283 C376.85239843 834.17685346 377.42009575 837.06585559 377.98460388 839.95562744 C378.23171348 841.19084121 378.23171348 841.19084121 378.48381519 842.4510088 C380.79818035 854.45450342 381.47566103 868.63100536 375.25144958 879.59747314 C374.23135433 881.07209186 373.18456431 882.52863221 372.11082458 883.96466064 C370.53694986 886.30238923 369.68956654 888.48266724 368.77098083 891.14044189 C365.92272977 898.64628384 360.96746494 904.20684515 353.89598083 908.01544189 C342.7104685 912.76967387 332.15432 913.62270558 320.16453552 913.53155518 C317.64998642 913.51546752 315.13704398 913.53148206 312.62254333 913.55059814 C296.51119432 913.57254388 282.77235536 910.95132791 270.45848083 899.76544189 C261.64011955 890.30422068 257.67451003 879.43949591 254.8200531 867.04498291 C254.56654115 865.96545381 254.31302919 864.8859247 254.05183506 863.77368259 C251.1422689 851.22419909 248.55188126 838.60664258 245.97894096 825.98478508 C245.08771232 821.61284062 244.188983 817.24245626 243.28918457 812.87226868 C240.73620687 800.46743649 238.19280058 788.06065278 235.65647888 775.65240479 C234.24548998 768.74986602 232.82850983 761.8485829 231.40532404 754.94854838 C230.65785203 751.32310189 229.91342897 747.69709217 229.17672539 744.06944084 C223.79031061 710.25484133 223.79031061 710.25484133 204.39598083 683.44903564 C193.18429998 676.28002818 181.2669968 673.97957094 168.17192078 674.00672913 C167.3568417 674.00446357 166.54176261 674.00219801 165.70198417 673.9998638 C162.99091886 673.9935711 160.27990416 673.99435011 157.5688324 673.99517822 C155.61670365 673.99218376 153.6645755 673.98878057 151.71244812 673.98500061 C146.42302544 673.97618527 141.13361896 673.97382353 135.84418964 673.97318482 C132.53539933 673.97247288 129.22661309 673.97033583 125.91782379 673.96768761 C114.3626886 673.95844212 102.80756492 673.95435169 91.25242615 673.95513916 C80.50066829 673.95573963 69.74896066 673.94519169 58.99721551 673.9293955 C49.75023166 673.91629674 40.50326418 673.91095625 31.25627112 673.91159457 C25.74063077 673.91184888 20.22503506 673.90903456 14.70940399 673.89841652 C9.51864628 673.88869627 4.32797554 673.88868319 -0.86278534 673.89593315 C-2.76057056 673.89697414 -4.6583613 673.89464515 -6.55613708 673.88857269 C-24.20269292 673.8357951 -39.89212644 674.93300166 -54.41651917 686.10137939 C-60.05358483 692.0339364 -61.5397011 698.89756056 -63.20704651 706.67486572 C-63.45971975 707.81155858 -63.712393 708.94825144 -63.97272301 710.11938953 C-64.78226212 713.7898517 -65.57138134 717.46415471 -66.35401917 721.14044189 C-66.73654217 722.93298716 -66.73654217 722.93298716 -67.12679291 724.76174545 C-68.87898487 733.01211096 -70.58594481 741.27159465 -72.28274202 749.5334928 C-73.00815102 753.0609829 -73.73780065 756.58759552 -74.46714783 760.11427307 C-76.62037057 770.52953202 -78.76788638 780.94596621 -80.91291809 791.36291504 C-82.59127305 799.51337495 -84.27155741 807.66342626 -85.95779741 815.81225902 C-86.6791081 819.29890102 -87.39874839 822.78586861 -88.11420059 826.27371788 C-95.98725134 864.64601696 -95.98725134 864.64601696 -103.35401917 878.14044189 C-103.98550908 879.39239571 -104.61292377 880.64641114 -105.23683167 881.90216064 C-111.72860799 894.8181074 -119.43242728 905.12726731 -133.5405426 910.31134033 C-143.13629339 913.06719479 -152.10035277 913.73413666 -162.06178284 913.60699463 C-164.54984169 913.57784439 -167.03578122 913.58647856 -169.52394104 913.59942627 C-183.83292742 913.58013893 -197.75877044 911.91102729 -208.75636292 901.89044189 C-218.34212232 891.39063698 -219.10730522 877.41707111 -218.55815887 863.92079163 C-217.88935686 854.81181661 -215.74544401 845.85821183 -213.87745667 836.93731689 C-213.39038871 834.54029963 -212.9050584 832.14292874 -212.42131042 829.74523926 C-211.13392145 823.38625906 -209.82509503 817.03188866 -208.51087952 810.67840576 C-207.2692154 804.66278057 -206.04377543 798.64387176 -204.81886292 792.62481689 C-204.5737135 791.42048413 -204.32856409 790.21615137 -204.07598591 788.97532368 C-203.56576216 786.46875952 -203.05560527 783.96218176 -202.54551125 781.4555912 C-201.87029966 778.14083333 -201.19367411 774.82637057 -200.51634604 771.51204497 C-194.94966451 744.26550179 -189.54409874 716.98740961 -184.14698792 689.70684814 C-183.67887979 687.34097729 -183.21076489 684.97510778 -182.74264336 682.60923958 C-182.50834427 681.42509635 -182.27404518 680.24095313 -182.03264612 679.02092677 C-180.8231387 672.90823884 -179.61352817 666.79557133 -178.40382385 660.68292236 C-178.15904364 659.44597134 -177.91426342 658.20902032 -177.66206563 656.93458593 C-171.83359823 627.48463722 -165.96960643 598.04178275 -160.10078633 568.59985596 C-159.4209374 565.18920331 -158.74116323 561.77853577 -158.06137848 558.36787033 C-155.28405826 544.43348963 -152.50620672 530.49921491 -149.7280426 516.56500244 C-146.20024383 498.87090344 -142.67347055 481.17660012 -139.14698792 463.48223877 C-138.99857646 462.73757454 -138.85016501 461.99291031 -138.69725624 461.2256805 C-136.90282099 452.22196201 -135.10843153 443.2182344 -133.31407174 434.21450087 C-132.42260883 429.74132553 -131.53113105 425.26815317 -130.63964003 420.79498344 C-120.85304902 371.68950519 -111.07180119 322.58296651 -101.30255413 273.47403431 C-99.40097417 263.91509019 -97.49902329 254.35622026 -95.59593201 244.7975769 C-93.44161991 233.97712015 -91.287892 223.15654735 -89.13526917 212.33575439 C-88.96588247 211.48429171 -88.79649577 210.63282903 -88.62197614 209.75556445 C-84.263372 187.84403155 -79.92669832 165.92833181 -75.62412977 144.00572515 C-74.67916994 139.1910483 -73.73293194 134.37662437 -72.78578186 129.56237793 C-72.5267252 128.24546444 -72.26766911 126.92855083 -72.00861359 125.61163712 C-71.50567778 123.0550757 -71.00269315 120.49852388 -70.49965668 117.94198227 C-69.11205579 110.88564591 -67.73241167 103.82782302 -66.36005402 96.768507 C-65.55044305 92.61273354 -64.73371629 88.45838208 -63.91503906 84.30438614 C-63.55070777 82.44755948 -63.18941647 80.59013281 -62.83169556 78.73202133 C-59.97457325 63.89933783 -56.66008758 49.4984035 -49.35401917 36.14044189 C-48.75810464 34.9455499 -48.16594146 33.74878283 -47.57667542 32.55059814 C-40.16020835 17.69520121 -30.90739394 7.43744456 -14.93214417 1.90216064 C-9.87008093 0.40655105 -5.28736928 0.01203205 0 0 Z M58.64598083 134.14044189 C57.78746521 134.68378174 57.78746521 134.68378174 56.91160583 135.23809814 C45.65602106 143.45690386 44.20602226 163.59587428 41.65934753 176.31756592 C41.38404162 177.67538167 41.10833885 179.03311701 40.8322804 180.39077997 C40.08457522 184.07415737 39.34267048 187.75868114 38.60188103 191.44345474 C37.79815046 195.43615506 36.98904305 199.42776659 36.18080139 203.41955566 C34.23588863 213.03174094 32.30016142 222.64576645 30.36596286 232.26011252 C29.63550904 235.89045129 28.90453755 239.52068574 28.17357586 243.15092227 C24.94485341 259.18657535 21.71919535 275.22284218 18.50146103 291.26070404 C17.71633114 295.17374771 16.9311781 299.08678674 16.14598083 302.99981689 C15.85330298 304.45839771 15.85330298 304.45839771 15.55471244 305.94644481 C12.39471583 321.69188631 9.21630967 337.43355231 6.03028187 353.17374486 C2.75003198 369.38103023 -0.51333517 385.59164445 -3.76052547 401.80558634 C-5.58034345 410.89016963 -7.4073306 419.97317594 -9.2533493 429.05247498 C-10.82540488 436.78455965 -12.381999 444.51956214 -13.91927817 452.25863928 C-14.70206835 456.19702774 -15.49158315 460.13370874 -16.30107498 464.0667038 C-23.94967586 495.63200521 -23.94967586 495.63200521 -17.35401917 526.14044189 C-16.71786682 527.23485596 -16.71786682 527.23485596 -16.06886292 528.35137939 C-10.44673934 536.77673451 -1.52298815 541.60585272 8.21495438 543.69035625 C15.82004908 545.04637291 23.15665112 545.43149184 30.87156677 545.4151001 C32.13508972 545.42021103 33.39861267 545.42532196 34.70042419 545.43058777 C38.13046071 545.44384408 41.56038614 545.44457137 44.99044323 545.44202447 C47.87252675 545.44094523 50.75458866 545.44586241 53.63666749 545.45062989 C60.44740598 545.46167968 67.25808931 545.46218866 74.0688324 545.45611572 C81.05115687 545.45008462 88.0332794 545.46237536 95.01556945 545.48368579 C101.04914546 545.50141082 107.08265783 545.50728598 113.11625886 545.50404805 C116.70263565 545.50225172 120.28886849 545.50470305 123.87522125 545.51876259 C153.18059904 546.33471966 153.18059904 546.33471966 179.40769958 534.76544189 C183.89361763 528.87855891 182.24526565 517.14790154 181.64598083 510.14044189 C180.3921162 501.16359478 178.35203794 492.31476586 176.4320488 483.46180725 C175.60463124 479.6243195 174.79971179 475.78211068 173.99290466 471.94024658 C172.87526039 466.62429243 171.75548729 461.30881492 170.62802124 455.99493408 C167.06647109 439.20312038 163.58001656 422.39602961 160.10691833 405.58575439 C159.81385671 404.16751453 159.52079066 402.74927557 159.22772026 401.33103752 C157.12479957 391.15418598 157.12479957 391.15418598 156.07646549 386.07953632 C153.74933921 374.81475027 151.41713011 363.55102669 149.08079529 352.28814697 C148.92482238 351.53622121 148.76884948 350.78429546 148.60815012 350.00958407 C147.6586265 345.4321783 146.70897257 340.85479957 145.75929141 336.27742648 C141.473973 315.62247735 137.19427099 294.96640168 132.93282413 274.30651283 C130.52977293 262.65653 128.12225609 251.00747613 125.71132565 239.35912132 C124.15890466 231.8575689 122.61068594 224.35517476 121.06806558 216.85160071 C119.8959306 211.15233788 118.71630084 205.45464598 117.53397179 199.75749016 C117.05584835 197.44769122 116.58012865 195.13739305 116.10712624 192.82653999 C114.02665904 182.66793729 111.9272933 172.54424541 109.03465271 162.58062744 C108.84428688 161.92153035 108.65392105 161.26243326 108.45778656 160.58336353 C104.86880159 148.77208041 98.88861972 138.61301237 88.14598083 132.20294189 C78.77978907 127.88448401 67.31242249 128.58736479 58.64598083 134.14044189 Z " fill="#FEFEFE" transform="translate(1639.354019165039,28.85955810546875)"/>
<path d="M0 0 C1.58590494 -0.00445668 1.58590494 -0.00445668 3.20384836 -0.0090034 C6.73474328 -0.01765164 10.26560413 -0.01919537 13.79650879 -0.02069092 C16.33327303 -0.02532188 18.87003657 -0.03034692 21.40679932 -0.03573608 C28.29147811 -0.04883642 35.17614576 -0.05533789 42.06083488 -0.05974674 C46.36667376 -0.06251653 50.67251041 -0.06675524 54.97834778 -0.07125092 C66.91971444 -0.08343896 78.86107934 -0.0937387 90.80245209 -0.09712601 C91.56572505 -0.09734557 92.32899802 -0.09756514 93.11540046 -0.09779136 C93.88041479 -0.09800964 94.64542912 -0.09822791 95.4336257 -0.09845281 C96.98362319 -0.09889626 98.53362068 -0.09934282 100.08361816 -0.09979248 C101.23687646 -0.10012463 101.23687646 -0.10012463 102.4134329 -0.10046348 C114.85667233 -0.10440707 127.29985305 -0.12184977 139.74306983 -0.145152 C152.54418315 -0.16892924 165.34526709 -0.18133077 178.14640284 -0.18249393 C185.32327635 -0.18340719 192.50007336 -0.189071 199.67692566 -0.20731354 C206.43375658 -0.22442891 213.19041832 -0.22591979 219.94727325 -0.21717453 C222.41745136 -0.21640742 224.88763744 -0.22070347 227.35779572 -0.23063278 C264.14229598 -0.3697397 286.39513443 10.24744046 312.43518066 36.02716064 C313.19891904 36.7829135 313.19891904 36.7829135 313.97808647 37.5539341 C316.66947802 40.21886562 319.35736067 42.88728486 322.04284668 45.5581665 C324.23418985 47.73617708 326.4325739 49.90667916 328.63757324 52.07086182 C331.33844162 54.72179797 334.02624627 57.3853754 336.70577812 60.05787086 C337.71276362 61.05825192 338.72390826 62.0544685 339.73970222 63.04590416 C355.98418768 78.92257965 366.6359679 99.03992692 367.40645218 122.06863594 C367.4144294 123.46552738 367.41717033 124.86245572 367.41546631 126.2593689 C367.41992299 127.42474286 367.41992299 127.42474286 367.42446971 128.61365974 C367.43308434 131.19567774 367.43465878 133.77764899 367.43615723 136.35968018 C367.44079055 138.2198954 367.4458159 140.08010968 367.45120239 141.94032288 C367.46427925 146.97988429 367.47076217 152.01943241 367.47521305 157.05900812 C367.47815154 160.21303515 367.4822578 163.36705861 367.48671722 166.52108383 C367.50038004 176.40530794 367.51005251 186.28952382 367.51391912 196.17375672 C367.51839633 207.5538708 367.53593378 218.93386456 367.56491971 230.31394207 C367.58659042 239.13038758 367.59662627 247.94679937 367.59796023 256.76327121 C367.59900444 262.01966862 367.60483011 267.27595274 367.62277985 272.53232193 C367.63935388 277.48180963 367.64137108 282.4311 367.63264084 287.3806057 C367.63187542 289.18725173 367.636147 290.99390879 367.64609909 292.80052757 C367.71682554 306.45076351 367.21924035 319.16851552 360.00939941 331.21466064 C358.69680764 333.42892019 357.50483175 335.61407947 356.35314941 337.90997314 C349.60218501 351.33265366 342.74034268 358.32822357 328.15002441 363.17950439 C309.1665489 367.88143004 281.95358332 368.4729492 264.44689941 358.57403564 C254.37653947 351.9268736 248.78704933 343.67266125 245.81799316 331.97637939 C244.18175662 323.43028063 244.12345106 315.05689657 244.11730957 306.37774658 C244.11263409 304.88866529 244.10748933 303.3995854 244.10191345 301.9105072 C244.09068243 298.71580898 244.08222433 295.52111981 244.07579422 292.32640839 C244.06505508 287.26489352 244.04479475 282.2034441 244.02267456 277.14196777 C243.9609484 262.75298058 243.90678829 248.36399818 243.87365723 233.97491455 C243.85525809 226.01860669 243.82625903 218.06240962 243.78565252 210.10618329 C243.76467684 205.90397979 243.74913867 201.70191527 243.74684525 197.49965668 C243.74468319 193.54324769 243.72865698 189.58712839 243.70245552 185.63080788 C243.69532087 184.18778142 243.69313284 182.74471964 243.696558 181.30167961 C243.72426624 167.39611783 241.87969902 153.96253152 232.49377441 143.07403564 C219.98968441 131.21052402 204.19132039 130.84066359 188.00231934 130.86578369 C186.14856258 130.86143172 184.29480761 130.85624695 182.4410553 130.85029602 C177.42439319 130.83694607 172.40780661 130.83632296 167.39113021 130.83885932 C163.19408419 130.83993189 158.99705327 130.83503828 154.8000105 130.8302539 C144.89282583 130.81917225 134.98567908 130.81871355 125.07849121 130.82476807 C114.87937983 130.83080545 104.68040649 130.8184997 94.48131865 130.797198 C85.7056418 130.7795474 76.93000875 130.77358615 68.15431482 130.77683574 C62.92147936 130.77864345 57.68874236 130.77606385 52.45592308 130.7621212 C47.53185978 130.74949134 42.60801066 130.75153554 37.68395042 130.76453209 C35.8845309 130.76688633 34.08509606 130.76420486 32.28569412 130.75590897 C20.38689484 130.70503901 8.90503698 130.96892553 -1.72497559 137.07794189 C-2.59122559 137.56134033 -3.45747559 138.04473877 -4.34997559 138.54278564 C-9.54770112 142.03928193 -11.08581062 144.57473312 -12.32650932 150.58523604 C-12.99673946 154.88315564 -13.00011027 159.13069874 -12.97945118 163.47266006 C-12.98265766 164.4803555 -12.98586414 165.48805094 -12.98916778 166.52628261 C-12.99746373 169.90018906 -12.9915448 173.27391781 -12.985672 176.64782715 C-12.98869286 179.09233744 -12.99258202 181.5368468 -12.99726456 183.98135448 C-13.00541179 189.2949043 -13.00734278 194.60840225 -13.00376129 199.9219532 C-12.9984494 207.82364978 -13.00455451 215.7253091 -13.01284422 223.62700162 C-13.0280815 238.56155098 -13.02978954 253.49608338 -13.0273212 268.43063888 C-13.02548814 279.96445012 -13.02724841 291.4982558 -13.03154564 303.03206635 C-13.03214804 304.68945666 -13.03274924 306.34684697 -13.03334924 308.00423728 C-13.0342565 310.50181591 -13.03516517 312.99939453 -13.03608159 315.49697316 C-13.04451087 338.71760339 -13.04884703 361.93823152 -13.04467487 385.15886307 C-13.04444031 386.47183429 -13.04444031 386.47183429 -13.04420101 387.81133019 C-13.04339523 392.24770297 -13.04254946 396.68407573 -13.0416877 401.1204485 C-13.04151662 402.0015151 -13.04134553 402.8825817 -13.04116926 403.79034728 C-13.0408226 405.57207821 -13.04047407 407.35380914 -13.04012367 409.13554006 C-13.03476708 436.85609935 -13.04269523 464.57662682 -13.06115723 492.29718018 C-13.08187891 523.44705162 -13.09259957 554.59690335 -13.08858174 585.74678206 C-13.0881864 589.0690395 -13.08782485 592.39129694 -13.08748436 595.71355438 C-13.08734826 596.94057423 -13.08734826 596.94057423 -13.08720942 598.19238236 C-13.08604401 610.53488196 -13.09268748 622.87736164 -13.10329628 635.21985626 C-13.11535172 649.25966155 -13.11690331 663.29942301 -13.10450611 677.33922896 C-13.0978815 685.19281093 -13.09949934 693.04628807 -13.11309463 700.89986163 C-13.12232158 706.76881622 -13.11581198 712.63768568 -13.10324683 718.50663635 C-13.10059374 720.87737694 -13.10298559 723.24812978 -13.11098269 725.61885837 C-13.16523383 742.90373272 -12.57902156 756.6959749 -2.53747559 771.32794189 C8.79362648 782.65904396 24.57280087 784.63866413 39.89181519 784.68255615 C41.56512645 784.6747835 43.2384358 784.66659112 44.91174316 784.65802002 C46.72063761 784.66345563 48.52952761 784.67058628 50.33840942 784.67926025 C55.20213026 784.69732561 60.06550755 784.69049628 64.92923355 784.67774391 C70.04930716 784.66752835 75.16935379 784.67703311 80.28942871 784.68328857 C88.88331312 784.69054029 97.47705946 784.68104261 106.07092285 784.66192627 C115.96853165 784.64016237 125.8658107 784.6472155 135.76341152 784.66923189 C144.30237086 784.6874568 152.84123167 784.68990973 161.3802042 784.67947721 C166.46217302 784.67328108 171.5439875 784.6722986 176.62594604 784.68562317 C181.40656131 784.69728492 186.18675662 784.68897 190.96732712 784.66604614 C192.7086251 784.66081365 194.44995921 784.66217751 196.19124222 784.6710968 C211.93486479 784.74422705 226.39780492 783.15605705 239.27502441 773.14044189 C244.31599165 768.09947466 243.51522987 758.92593635 243.55400085 752.25035095 C243.55144791 750.98939102 243.54889496 749.72843109 243.54626465 748.42926025 C243.55066019 747.06474499 243.55596534 745.70023241 243.56210327 744.33572388 C243.57354423 741.41222943 243.57905836 738.4888069 243.57998466 735.56529045 C243.58193967 730.92682812 243.60007304 726.28851233 243.6207428 721.65010071 C243.669746 710.12568195 243.70072052 698.6012235 243.7220459 687.07672119 C243.73864327 678.1222343 243.76167217 669.167874 243.80506665 660.21347147 C243.82313006 656.36549242 243.8354782 652.51768567 243.83376884 648.66966057 C243.82144576 609.07216198 243.82144576 609.07216198 252.27502441 595.14044189 C252.77002441 594.31544189 253.26502441 593.49044189 253.77502441 592.64044189 C254.27002441 591.81544189 254.76502441 590.99044189 255.27502441 590.14044189 C256.04795972 588.51644065 256.81853111 586.89131345 257.58752441 585.26544189 C262.92492279 574.62222737 270.59988549 568.91077024 281.83752441 564.99591064 C290.15838741 562.52039367 298.37601974 562.53768884 307.00378418 562.61895752 C309.70513947 562.64038332 312.40382815 562.61907144 315.10510254 562.59356689 C330.95022748 562.56696619 343.85817312 564.80436767 356.04455566 575.72637939 C367.53602475 587.65423338 367.57532483 605.00867704 367.54968262 620.45343018 C367.55403642 622.19247149 367.55922179 623.93151089 367.56517029 625.67054749 C367.57850352 630.37131474 367.57914502 635.0720013 367.57660699 639.77278376 C367.57553284 643.71102915 367.58043225 647.64925851 367.58521241 651.58750045 C367.59628922 660.88933962 367.5967561 670.1911384 367.59069824 679.49298096 C367.58466735 689.05299542 367.59695118 698.61286238 367.61826831 708.17285168 C367.63595318 716.41018737 367.64187463 724.64747641 367.63863057 732.88483036 C367.6368276 737.79137553 367.63935392 742.69781562 367.65334511 747.60434341 C367.66603046 752.2255706 367.66387945 756.84657024 367.65093422 761.46779442 C367.64859152 763.15104313 367.65121885 764.83430839 367.65955734 766.51753807 C367.72158169 780.02649039 366.75103624 793.3987718 361.46252441 806.01544189 C361.20608154 806.62927734 360.94963867 807.24311279 360.6854248 807.87554932 C358.72237475 812.44004454 356.36666591 816.64903951 353.69299316 820.82794189 C352.27188689 823.14555874 351.15368286 825.48177394 350.02502441 827.95294189 C344.35786604 839.4560155 335.03096727 848.85312794 326.03674316 857.81231689 C324.98323006 858.87041333 323.93008191 859.92887324 322.87727356 860.9876709 C320.68970275 863.18407872 318.49669425 865.37486578 316.29968262 867.56182861 C313.51794199 870.33206771 310.7524151 873.11788553 307.99103069 875.90839767 C305.82653455 878.09144086 303.65258175 880.26488016 301.47596169 882.43582916 C300.45366684 883.45797318 299.43436229 884.48311907 298.41846275 885.51161957 C280.57813001 903.54208588 258.95793977 914.90890422 233.23988819 915.26907635 C231.37464324 915.27580333 229.50937388 915.27718713 227.64411926 915.27415466 C226.60908506 915.27642022 225.57405086 915.27868578 224.50765198 915.28101999 C221.05810901 915.28732274 217.6086057 915.28653302 214.15905762 915.28570557 C211.67801361 915.2886994 209.19697006 915.29210245 206.71592712 915.29588318 C200.68656543 915.30378956 194.65721917 915.30693687 188.62785373 915.30749556 C183.72258068 915.30797197 178.81731084 915.31003299 173.9120388 915.31319618 C159.98039758 915.32199616 146.04876403 915.32661664 132.11712001 915.32586571 C131.36718989 915.32582575 130.61725977 915.3257858 129.84460449 915.32574463 C129.0937502 915.32570375 128.34289591 915.32566287 127.56928845 915.32562075 C115.40930243 915.32521457 103.24934741 915.33477873 91.08937035 915.348883 C78.57977834 915.36327734 66.07020143 915.37015148 53.56060094 915.36928922 C46.54702804 915.36895828 39.53348765 915.37165982 32.51992226 915.38246727 C25.91988453 915.39257293 19.31990344 915.39220577 12.71985817 915.38495064 C10.30528157 915.38390869 7.89070064 915.38624437 5.47613144 915.3923111 C-28.51878598 915.47215429 -52.36008407 908.49606427 -77.05874634 884.13586426 C-78.03383157 883.16383756 -79.00850191 882.19139451 -79.98278809 881.21856689 C-81.02154372 880.18626658 -82.06043636 879.15410411 -83.09945679 878.12207031 C-85.2592431 875.97414676 -87.41497291 873.82224625 -89.5682373 871.66778564 C-92.29539271 868.94042706 -95.03606555 866.22710683 -97.78045845 863.51710892 C-99.92557814 861.39447833 -102.06129133 859.26256259 -104.19466782 857.12813568 C-105.19991035 856.12521423 -106.20830469 855.12543936 -107.22021866 854.12924957 C-124.27574261 837.31428074 -136.5308064 816.53371214 -136.85262609 792.03187567 C-136.85896842 790.00588198 -136.85984274 787.9798667 -136.85640335 785.953866 C-136.85845598 784.82950251 -136.86050862 783.70513902 -136.86262345 782.5467039 C-136.86829604 778.76389781 -136.86683587 774.98112809 -136.86541748 771.19831848 C-136.86745138 768.46481146 -136.8709753 765.7313068 -136.87442088 762.99780124 C-136.88199427 756.26325812 -136.88419361 749.52872293 -136.88474994 742.794176 C-136.88566424 734.72732359 -136.89233377 726.66047849 -136.89909676 718.59362923 C-136.91515276 699.09612031 -136.92105969 679.59861218 -136.92584551 660.10109784 C-136.92818196 650.87573092 -136.93178468 641.65036463 -136.93554089 632.4249982 C-136.94837634 600.83998907 -136.95909529 569.25498029 -136.96254349 537.66996861 C-136.96276512 535.68742009 -136.9629869 533.70487157 -136.96320884 531.72232306 C-136.96342948 529.7350085 -136.96364996 527.74769393 -136.96387029 525.76037937 C-136.96431284 521.77354149 -136.96475995 517.78670361 -136.96520996 513.79986572 C-136.96531935 512.81136252 -136.96542874 511.82285932 -136.96554145 510.80440148 C-136.96917145 478.75780741 -136.98508936 446.71123596 -137.00840032 414.66465055 C-137.03300602 380.77611502 -137.04671668 346.88759242 -137.04791141 312.9990477 C-137.04808286 309.27761868 -137.04829828 305.55618967 -137.04854584 301.83476067 C-137.04860161 300.91845302 -137.04865737 300.00214537 -137.04871483 299.05807082 C-137.04986467 284.32282011 -137.06088095 269.58759265 -137.07543289 254.85234979 C-137.08981175 240.03593502 -137.09302704 225.21955001 -137.08499292 210.40313018 C-137.08054314 201.60593212 -137.08437112 192.80883022 -137.10023142 184.01164483 C-137.11000683 178.12750742 -137.10877881 172.24343712 -137.09879519 166.35930027 C-137.09342148 163.01170012 -137.09431051 159.66443343 -137.10530391 156.3168251 C-137.18125491 131.61951658 -133.59703354 112.78351159 -121.84997559 90.82794189 C-121.36859131 89.92092529 -120.88720703 89.01390869 -120.39123535 88.07940674 C-114.05537457 76.54761431 -105.27521728 67.35840594 -96.06091309 58.10528564 C-94.93997252 56.97534581 -93.81909368 55.84534473 -92.69827271 54.71528625 C-90.36041443 52.36105736 -88.01830485 50.01115009 -85.67370605 47.66363525 C-82.7036196 44.68817298 -79.75003636 41.69688928 -76.80019188 38.70137691 C-74.49389087 36.3650082 -72.1760943 34.04029358 -69.85521317 31.71841621 C-68.76289857 30.62195923 -67.67460387 29.52147911 -66.59086227 28.41654778 C-48.19083222 9.68554236 -26.35963563 -0.02336756 0 0 Z " fill="#FEFEFE" transform="translate(962.7249755859375,27.85955810546875)"/>
<path d="M0 0 C1.27336006 3.88844851 0.34506643 5.93263505 -1.1701835 9.68838144 C-4.05950425 17.73715784 -4.29057022 26.20524406 -4.25447559 34.66314983 C-4.25928531 36.35408558 -4.25928531 36.35408558 -4.26419219 38.07918164 C-4.27247832 41.84789928 -4.26657264 45.61645743 -4.26069641 49.38517761 C-4.26261231 52.1180144 -4.26752644 54.850844 -4.27228898 57.58367711 C-4.28103493 63.52107008 -4.28236881 69.45842854 -4.27878571 75.39582634 C-4.2734714 84.22530431 -4.27958136 93.05474898 -4.28786864 101.88422334 C-4.30310203 118.5728258 -4.30481435 135.26141309 -4.30234561 151.95002105 C-4.30051219 164.83911718 -4.30227358 177.72820834 -4.30657005 190.61730385 C-4.30717246 192.46978319 -4.30777366 194.32226253 -4.30837366 196.17474187 C-4.30928092 198.96634731 -4.31018959 201.75795275 -4.31110601 204.54955819 C-4.31953472 230.50232149 -4.32387184 256.45508292 -4.31969929 282.4078474 C-4.31954291 283.38605409 -4.31938654 284.36426077 -4.31922542 285.37211007 C-4.31841965 290.32991576 -4.31757388 295.28772144 -4.31671212 300.24552711 C-4.31645549 301.72244827 -4.31645549 301.72244827 -4.31619367 303.22920621 C-4.31584701 305.22033527 -4.31549848 307.21146432 -4.31514808 309.20259338 C-4.30979177 340.17942573 -4.31771909 371.1562296 -4.33618164 402.13305664 C-4.35690657 436.94641097 -4.36762335 471.75974765 -4.36360615 506.57310849 C-4.36321082 510.28661144 -4.36284927 514.00011438 -4.36250877 517.71361732 C-4.36241804 518.62795582 -4.36232731 519.54229432 -4.36223383 520.48434004 C-4.36106876 534.27611416 -4.36770936 548.06787045 -4.37832069 561.85964012 C-4.3903802 577.54950453 -4.39192306 593.23932971 -4.37953053 608.92919471 C-4.37290949 617.70419293 -4.37451552 626.47909729 -4.38811904 635.25408797 C-4.39638191 641.12329014 -4.3936422 646.99242223 -4.38214377 652.86161874 C-4.37590538 656.20061436 -4.37591286 659.53927867 -4.38600711 662.87828674 C-4.49177725 700.48438707 5.37754359 722.38328893 31.88671875 749.16015625 C32.39055399 749.66931517 32.89438923 750.17847408 33.4134922 750.70306206 C36.07842373 753.3944536 38.74684296 756.08233626 41.41772461 758.76782227 C43.59573518 760.95916544 45.76623727 763.15754948 47.93041992 765.36254883 C50.58135607 768.06341721 53.24493351 770.75122185 55.91742897 773.43075371 C56.91781003 774.43773921 57.91402661 775.44888384 58.90546227 776.46467781 C75.65382252 793.60104207 96.6358381 803.79029889 120.89647102 804.12863445 C122.75519814 804.13537923 124.61394988 804.13673775 126.47268677 804.13371277 C127.50278299 804.13597833 128.53287922 804.13824388 129.59419048 804.14057809 C133.03302002 804.14688925 136.47180985 804.14609057 139.91064453 804.14526367 C142.38168895 804.148257 144.8527329 804.15165993 147.32377625 804.15544128 C153.33255371 804.16335242 159.34131567 804.16649524 165.3500969 804.16705366 C170.23870813 804.16752988 175.12731615 804.16958992 180.01592636 804.17275429 C193.89813821 804.18155625 207.78034236 804.18617451 221.66255702 804.18542381 C222.41006555 804.18538386 223.15757407 804.1853439 223.92773438 804.18530273 C224.67616355 804.18526185 225.42459273 804.18522097 226.19570158 804.18517885 C238.31371881 804.18477276 250.43170492 804.19433417 262.54971315 804.2084411 C275.01407301 804.22283584 287.47841772 804.22970955 299.9427861 804.22884732 C306.93178172 804.22851637 313.92074472 804.23121863 320.90973282 804.24202538 C327.4875964 804.25213175 334.06540315 804.25176346 340.64327431 804.24450874 C343.04978727 804.24346683 345.45630459 804.24580228 347.86281013 804.2518692 C370.28700008 804.32299543 370.28700008 804.32299543 392.0625 799.375 C393.19655273 798.9869519 393.19655273 798.9869519 394.35351562 798.59106445 C411.22865873 792.52365747 422.96443536 780.19929172 435.37109375 767.7265625 C436.42556492 766.6702196 437.48026201 765.61410219 438.53517151 764.55819702 C441.27993683 761.8096584 444.02168529 759.0581304 446.76275635 756.3059082 C449.56069543 753.49767021 452.3615261 750.69231933 455.16210938 747.88671875 C460.07176052 742.96755777 464.97892894 738.04593434 469.88426208 733.12246704 C471.58792642 731.41338418 473.29292732 729.70567715 475 728 C472.57629328 746.04678926 448.57447867 763.67097396 436.51269531 775.7824707 C434.58525423 777.7187955 432.66403659 779.66098697 430.74804688 781.60864258 C409.62737209 803.07025924 388.42007375 819.68811547 356.96486378 820.12863445 C355.09961883 820.13536144 353.23434946 820.13674524 351.36909485 820.13371277 C350.33406065 820.13597833 349.29902645 820.13824388 348.23262757 820.14057809 C344.78308459 820.14688085 341.33358128 820.14609112 337.8840332 820.14526367 C335.40298919 820.1482575 332.92194565 820.15166055 330.44090271 820.15544128 C324.41154101 820.16334767 318.38219476 820.16649498 312.35282931 820.16705366 C307.44755627 820.16753008 302.54228642 820.16959109 297.63701439 820.17275429 C283.70537316 820.18155427 269.77373962 820.18617475 255.84209559 820.18542381 C255.09216547 820.18538386 254.34223535 820.1853439 253.56958008 820.18530273 C252.81872579 820.18526185 252.06787149 820.18522097 251.29426404 820.18517885 C239.13427802 820.18477267 226.974323 820.19433684 214.81434593 820.2084411 C202.30475393 820.22283545 189.79517701 820.22970959 177.28557652 820.22884732 C170.27200363 820.22851639 163.25846324 820.23121793 156.24489784 820.24202538 C149.64486012 820.25213104 143.04487903 820.25176387 136.44483376 820.24450874 C134.03025716 820.2434668 131.61567623 820.24580248 129.20110703 820.2518692 C95.20618961 820.3317124 71.36489152 813.35562237 46.66622925 788.99542236 C45.69114401 788.02339566 44.71647367 787.05095261 43.7421875 786.078125 C42.70343187 785.04582468 41.66453922 784.01366222 40.6255188 782.98162842 C38.46573249 780.83370486 36.31000268 778.68180435 34.15673828 776.52734375 C31.42958288 773.79998516 28.68891004 771.08666494 25.94451714 768.37666702 C23.79939744 766.25403643 21.66368426 764.1221207 19.53030777 761.98769379 C18.52506524 760.98477234 17.51667089 759.98499747 16.50475693 758.98880768 C-0.55076702 742.17383884 -12.80583081 721.39327025 -13.1276505 696.89143378 C-13.13399283 694.86544009 -13.13486715 692.8394248 -13.13142776 690.81342411 C-13.1334804 689.68906062 -13.13553303 688.56469712 -13.13764787 687.40626201 C-13.14332046 683.62345591 -13.14186028 679.84068619 -13.14044189 676.05787659 C-13.14247579 673.32436957 -13.14599971 670.59086491 -13.1494453 667.85735935 C-13.15701869 661.12281623 -13.15921802 654.38828104 -13.15977435 647.6537341 C-13.16068865 639.58688169 -13.16735818 631.5200366 -13.17412117 623.45318734 C-13.19017718 603.95567842 -13.1960841 584.45817029 -13.20086992 564.96065594 C-13.20320638 555.73528903 -13.20680909 546.50992274 -13.2105653 537.28455631 C-13.22340076 505.69954718 -13.23411971 474.11453839 -13.2375679 442.52952671 C-13.23778953 440.54697819 -13.23801132 438.56442968 -13.23823325 436.58188116 C-13.23845389 434.5945666 -13.23867438 432.60725204 -13.2388947 430.61993748 C-13.23933725 426.6330996 -13.23978437 422.64626171 -13.24023438 418.65942383 C-13.24034377 417.67092063 -13.24045316 416.68241743 -13.24056586 415.66395959 C-13.24419586 383.61736551 -13.26011378 351.57079407 -13.28342474 319.52420865 C-13.30803043 285.63567312 -13.32174109 251.74715053 -13.32293582 217.8586058 C-13.32310727 214.13717679 -13.3233227 210.41574778 -13.32357025 206.69431877 C-13.32362602 205.77801112 -13.32368179 204.86170347 -13.32373925 203.91762893 C-13.32488908 189.18237822 -13.33590537 174.44715076 -13.35045731 159.71190789 C-13.36483617 144.89549313 -13.36805145 130.07910811 -13.36001733 115.26268829 C-13.35556755 106.46549023 -13.35939553 97.66838833 -13.37525584 88.87120293 C-13.38503125 82.98706553 -13.38380322 77.10299522 -13.37381961 71.21885838 C-13.3684459 67.87125822 -13.36933493 64.52399154 -13.38032833 61.1763832 C-13.47917326 29.03455354 -13.47917326 29.03455354 -7.0625 13.9375 C-6.57910156 12.77089844 -6.09570312 11.60429687 -5.59765625 10.40234375 C-3.90542689 6.79859858 -2.02161816 3.42758154 0 0 Z " fill="#2B2626" transform="translate(839,123)"/>
<path d="M0 0 C0.88573635 2.55879391 0.98846708 4.0689186 0.53539382 6.77640099 C0.01546662 9.90687567 -0.12648796 12.78324077 -0.12880117 15.95258415 C-0.13370946 17.71901291 -0.13370946 17.71901291 -0.13871691 19.5211271 C-0.13723328 20.808333 -0.13574966 22.09553889 -0.13422108 23.42175102 C-0.13617502 24.8138265 -0.13856425 26.20590143 -0.14134905 27.59797549 C-0.14774692 31.4352656 -0.14791084 35.27253477 -0.14707164 39.10982919 C-0.14724118 43.2801817 -0.1531478 47.45052671 -0.1583125 51.62087548 C-0.16764037 59.89773948 -0.17156086 68.17459814 -0.17383147 76.45146674 C-0.17679306 86.36348841 -0.18549022 96.27550298 -0.19424575 106.18752093 C-0.21509311 130.14675114 -0.22556046 154.10598259 -0.23437535 178.06521976 C-0.23858151 189.39912985 -0.24380355 200.7330394 -0.24905988 212.06694904 C-0.26695046 250.862034 -0.28194655 289.6571191 -0.28938007 328.45220757 C-0.28985483 330.88793226 -0.29033072 333.32365696 -0.29080774 335.75938166 C-0.29104411 336.96728546 -0.29128049 338.17518926 -0.29152403 339.4196962 C-0.29272523 345.5395631 -0.29394068 351.65942999 -0.29516602 357.77929688 C-0.29540617 358.99380421 -0.29564632 360.20831154 -0.29589374 361.45962212 C-0.30378664 400.83667647 -0.32721808 440.21370069 -0.35972196 479.59074188 C-0.39402173 521.21941155 -0.41373136 562.8480636 -0.41702431 604.47674763 C-0.41744185 609.04691832 -0.41792142 613.617089 -0.41844749 618.18725967 C-0.41857069 619.31256955 -0.41869388 620.43787942 -0.4188208 621.59728959 C-0.42115265 639.70510548 -0.4368118 657.81288638 -0.45728934 675.9206898 C-0.47754779 694.12361647 -0.48302453 712.32650113 -0.47351871 730.52943699 C-0.46830383 741.34180597 -0.47418067 752.15403504 -0.49605338 762.96638388 C-0.50956823 770.19381086 -0.50847838 777.42114161 -0.49565142 784.64856957 C-0.48875941 788.76339662 -0.48806918 792.87795634 -0.50521151 796.99275945 C-1.36860517 826.27774411 -1.36860517 826.27774411 11 852 C23.10082292 864.01085398 38.88086775 865.42106363 55.125 865.375 C55.81120422 865.37478851 56.49740845 865.37457703 57.20440674 865.37435913 C73.69928538 865.32356344 88.15343347 863.18894505 101 852 C100.10243232 859.91700719 95.50814171 865.8967424 89.8125 871.3125 C78.52322136 880.24773623 64.14436115 881.35926799 50.34277344 881.31567383 C48.26703689 881.31252584 46.19274782 881.33601042 44.1171875 881.36132812 C29.10819531 881.43260277 14.50859751 879.37016824 3.1875 868.8125 C-7.98585101 856.83119944 -9.46416074 841.35480742 -9.38031673 825.57824898 C-9.3837588 824.17514106 -9.38851132 822.77203587 -9.3944377 821.36893624 C-9.40686212 817.53825013 -9.40083618 813.70778882 -9.39160402 809.87710206 C-9.38486314 805.7000652 -9.39557586 801.52306559 -9.40399987 797.34603679 C-9.41634797 790.0333785 -9.41758723 782.72078439 -9.41144943 775.4081192 C-9.40234657 764.53369828 -9.41039987 753.65933657 -9.42174067 742.78492019 C-9.44139815 723.36093247 -9.44375677 703.93697146 -9.43854547 684.51297617 C-9.43398692 667.51338627 -9.4345892 650.51380694 -9.44038582 633.51421738 C-9.44114269 631.23322915 -9.44189867 628.95224092 -9.44265376 626.67125269 C-9.44379897 623.23394186 -9.44494885 619.79663103 -9.44611301 616.3593202 C-9.45681667 584.40607596 -9.4615446 552.45283524 -9.45364285 520.49958992 C-9.45334567 519.29530367 -9.4530485 518.09101741 -9.45274232 516.85023764 C-9.45029342 507.07080646 -9.44768182 497.29137532 -9.44505819 487.51194418 C-9.43495547 449.36487966 -9.44331218 411.21785916 -9.46655273 373.07080078 C-9.49262724 330.20283531 -9.50547281 287.33489634 -9.49836498 244.46692264 C-9.49764893 239.89575315 -9.49697454 235.32458365 -9.49632454 230.75341415 C-9.49615473 229.62789314 -9.49598492 228.50237212 -9.49580997 227.3427444 C-9.49350747 210.35636632 -9.50148161 193.37001285 -9.51461601 176.38364029 C-9.52952712 157.06516977 -9.53037053 137.74675692 -9.5125451 118.42828764 C-9.50298283 107.62032678 -9.50441554 96.81250043 -9.52177979 86.00454855 C-9.53227439 78.78033407 -9.52816166 71.55622197 -9.51229975 64.33201755 C-9.50367419 60.2191744 -9.5012279 56.10659468 -9.51656907 51.99376513 C-9.65229656 12.86972874 -9.65229656 12.86972874 0 0 Z " fill="#2B2626" transform="translate(63,60)"/>
<path d="M0 0 C1.99711391 -0.00407166 3.99422557 -0.00941686 5.99133301 -0.01593018 C11.38614239 -0.02954154 16.78077856 -0.02433001 22.17559075 -0.01479292 C27.84201516 -0.00716102 33.50842543 -0.01425199 39.17485046 -0.01895142 C48.69130088 -0.02440006 58.20768132 -0.01724217 67.72412109 -0.00292969 C78.69520129 0.01338097 89.66611405 0.00811617 100.63719016 -0.0084089 C110.08558587 -0.02206605 119.53393144 -0.0239224 128.98233384 -0.0160929 C134.61259747 -0.01143776 140.24278269 -0.01073141 145.87304115 -0.02070236 C151.17143375 -0.02943099 156.46961272 -0.0232434 161.76798248 -0.00601959 C163.7015949 -0.00208542 165.63522559 -0.00313545 167.56883049 -0.00980759 C185.71413157 -0.06659984 203.2810609 0.96636643 217.36987305 13.88818359 C224.6258033 21.69151147 228.57647962 30.68721465 231.05714417 40.92529297 C231.22550547 41.61828239 231.39386678 42.31127182 231.56732994 43.02526093 C233.25280127 50.04250042 234.74111591 57.09914913 236.18603516 64.16943359 C236.47376603 65.56459833 236.76181642 66.9596972 237.05015564 68.35473633 C237.66300348 71.32247095 238.27392701 74.29059234 238.88334465 77.2590332 C239.85088006 81.97033452 240.82464113 86.68033649 241.79945374 91.39013672 C244.5680411 104.77074079 247.33002161 118.1526978 250.08251953 131.53662109 C251.60854173 138.95657938 253.14045688 146.37529696 254.67862326 153.7927475 C255.48859899 157.7000377 256.29558863 161.60788922 257.09510612 165.51733398 C263.07294712 202.27902963 263.07294712 202.27902963 284.4753418 231.17333984 C294.12052456 237.25952493 303.7121079 239.52391702 315.0612793 239.59130859 C316.20088356 239.5998587 316.20088356 239.5998587 317.36351013 239.60858154 C318.96791206 239.61799062 320.57233296 239.62454917 322.17675781 239.62841797 C324.58849454 239.63805817 326.99935378 239.66909251 329.41088867 239.70068359 C342.48467895 239.79106842 353.750836 238.42284627 365.05737305 231.38818359 C366.38371451 230.70771276 367.71519255 230.03685434 369.05737305 229.38818359 C367.14019984 237.83572804 362.96422505 244.07296594 355.7331543 248.95849609 C344.22664017 255.14718485 332.34056948 255.87633801 319.57592773 255.77929688 C317.06137863 255.76320922 314.54843619 255.77922376 312.03393555 255.79833984 C295.92258653 255.82028558 282.18374757 253.19906961 269.86987305 242.01318359 C261.05151177 232.55196238 257.08590225 221.68723761 254.23144531 209.29272461 C253.97793336 208.21319551 253.72442141 207.1336664 253.46322727 206.02142429 C250.55366111 193.47194079 247.96327347 180.85438428 245.39033318 168.23252678 C244.49910453 163.86058232 243.60037521 159.49019796 242.70057678 155.12001038 C240.14759908 142.71517819 237.60419279 130.30839448 235.06787109 117.90014648 C233.65688219 110.99760772 232.23990204 104.0963246 230.81671625 97.19629008 C230.06924425 93.57084359 229.32482118 89.94483387 228.5881176 86.31718254 C223.20170282 52.50258303 223.20170282 52.50258303 203.80737305 25.69677734 C192.59569219 18.52776988 180.67838901 16.22731264 167.58331299 16.25447083 C166.76823391 16.25220527 165.95315483 16.24993971 165.11337638 16.2476055 C162.40231108 16.2413128 159.69129637 16.24209181 156.98022461 16.24291992 C155.02809587 16.23992546 153.07596771 16.23652227 151.12384033 16.23274231 C145.83441766 16.22392697 140.54501117 16.22156522 135.25558186 16.22092652 C131.94679154 16.22021458 128.6380053 16.21807753 125.329216 16.21542931 C113.77408081 16.20618382 102.21895713 16.20209339 90.66381836 16.20288086 C79.9120605 16.20348133 69.16035287 16.19293339 58.40860772 16.1771372 C49.16162387 16.16403844 39.91465639 16.15869795 30.66766334 16.15933627 C25.15202298 16.15959058 19.63642727 16.15677626 14.1207962 16.14615822 C8.93003849 16.13643797 3.73936775 16.13642489 -1.45139313 16.14367485 C-3.34917834 16.14471584 -5.24696909 16.14238685 -7.14474487 16.13631439 C-26.75025776 16.07767792 -43.97642736 17.68304842 -58.6887207 32.09912109 C-59.3094043 32.73720703 -59.3094043 32.73720703 -59.94262695 33.38818359 C-57.87507709 22.82070653 -50.42125464 14.63559347 -41.94262695 8.38818359 C-28.84924603 0.11867985 -14.95174435 -0.05141537 0 0 Z " fill="#2B2626" transform="translate(1639.942626953125,686.61181640625)"/>
<path d="M0 0 C0.78070181 -0.00297112 1.56140363 -0.00594224 2.36576307 -0.0090034 C4.97248055 -0.01765021 7.5791519 -0.01919524 10.18588257 -0.02069092 C12.05889991 -0.02532199 13.93191632 -0.03034704 15.80493164 -0.03573608 C20.88786424 -0.04883545 25.97078365 -0.0553004 31.05373049 -0.05974674 C34.23285759 -0.06268185 37.41198112 -0.06678751 40.59110641 -0.07125092 C50.54794854 -0.08492024 60.50478247 -0.09458929 70.46163332 -0.09845281 C81.93630791 -0.10293031 93.41086318 -0.12046636 104.8855015 -0.1494534 C113.76726766 -0.17110762 122.64900034 -0.18115911 131.53079259 -0.18249393 C136.82963298 -0.1835394 142.12836113 -0.18939217 147.42717361 -0.20731354 C152.4160254 -0.22385864 157.40468134 -0.22591858 162.39355087 -0.21717453 C164.21716081 -0.21640756 166.04078156 -0.22070168 167.86436462 -0.23063278 C181.42850536 -0.30012652 193.38510973 0.48721688 205.07015991 8.14044189 C206.40047241 9.00669189 206.40047241 9.00669189 207.75765991 9.89044189 C215.95160704 17.86293099 220.71703459 28.88103243 221.20323849 40.25307751 C221.2070934 41.3689087 221.21094831 42.48473989 221.21492004 43.63438416 C221.22181854 44.92251511 221.22871704 46.21064606 221.23582458 47.53781128 C221.23853879 48.95312486 221.24117599 50.36843859 221.2437439 51.78375244 C221.25005491 53.28401377 221.25682131 54.78427325 221.26400757 56.28453064 C221.27864217 59.50927529 221.29038135 62.73401288 221.29995537 65.95877647 C221.31545899 71.06606263 221.33940945 76.17328779 221.36485291 81.28053284 C221.4359153 95.80174902 221.49574333 110.32300005 221.54696655 124.84429932 C221.5753481 132.86904626 221.61077131 140.89373236 221.6536203 148.91841537 C221.6802633 153.98662037 221.69824775 159.05475664 221.70965755 164.12301767 C221.718841 167.28878754 221.73622947 170.45447453 221.75583649 173.62019539 C221.76325384 175.07815612 221.7673895 176.53613821 221.7678318 177.99411774 C221.77706986 194.85495087 223.82928043 210.03079886 235.58969116 222.78887939 C246.90642013 233.63751982 263.56636254 234.52701809 278.38265991 234.45294189 C279.56674438 234.44730225 280.75082886 234.4416626 281.97079468 234.43585205 C298.2781027 234.20996738 311.6778407 230.81267244 325.07015991 221.14044189 C322.73887049 230.23247063 316.79583209 237.92496287 309.07015991 243.14044189 C297.11582113 249.52399107 284.66578264 250.51626523 271.32015991 250.45294189 C270.09313354 250.44802734 268.86610718 250.44311279 267.60189819 250.43804932 C251.75776515 250.23395327 236.94023327 248.41878828 224.88656616 237.14434814 C213.21727496 224.27048495 212.92407821 207.81769257 212.91244507 191.37774658 C212.90776959 189.88866529 212.90262483 188.3995854 212.89704895 186.9105072 C212.88581793 183.71580898 212.87735983 180.52111981 212.87092972 177.32640839 C212.86019058 172.26489352 212.83993025 167.2034441 212.81781006 162.14196777 C212.7560839 147.75298058 212.70192379 133.36399818 212.66879272 118.97491455 C212.65039359 111.01860669 212.62139453 103.06240962 212.58078802 95.10618329 C212.55981234 90.90397979 212.54427416 86.70191527 212.54198074 82.49965668 C212.53981869 78.54324769 212.52379247 74.58712839 212.49759102 70.63080788 C212.49045637 69.18778142 212.48826834 67.74471964 212.4916935 66.30167961 C212.51940174 52.39611783 210.67483452 38.96253152 201.28890991 28.07403564 C188.78481991 16.21052402 172.98645589 15.84066359 156.79745483 15.86578369 C154.94369807 15.86143172 153.08994311 15.85624695 151.2361908 15.85029602 C146.21952869 15.83694607 141.20294211 15.83632296 136.18626571 15.83885932 C131.98921969 15.83993189 127.79218877 15.83503828 123.595146 15.8302539 C113.68796133 15.81917225 103.78081457 15.81871355 93.87362671 15.82476807 C83.67451533 15.83080545 73.47554199 15.8184997 63.27645415 15.797198 C54.5007773 15.7795474 45.72514425 15.77358615 36.94945031 15.77683574 C31.71661486 15.77864345 26.48387786 15.77606385 21.25105858 15.7621212 C16.32699528 15.74949134 11.40314616 15.75153554 6.47908592 15.76453209 C4.6796664 15.76688633 2.88023156 15.76420486 1.08082962 15.75590897 C-10.82441851 15.70501144 -22.33332185 15.93760195 -32.92984009 22.14044189 C-33.79609009 22.63544189 -34.66234009 23.13044189 -35.55484009 23.64044189 C-37.77354354 25.04172828 -39.85933293 26.53004744 -41.92984009 28.14044189 C-40.73938116 20.53773828 -36.69841149 14.22496395 -30.80484009 9.32794189 C-21.36615851 2.57233731 -11.46130729 -0.01376632 0 0 Z " fill="#2B2626" transform="translate(993.9298400878906,142.85955810546875)"/>
<path d="M0 0 C10.51628902 7.03798066 14.44432089 19.07405966 18.08203125 30.6015625 C18.58090465 32.14261777 19.08095737 33.68329163 19.58203125 35.22363281 C21.03999043 39.72406527 22.47472156 44.23164928 23.90570068 48.74072266 C24.95715192 52.04856581 26.01434505 55.35453297 27.07275391 58.66015625 C36.89386657 89.3407922 46.54616912 120.07380394 56.13427734 150.82794189 C63.32292322 173.88466745 70.59074831 196.91556455 77.9284668 219.92529297 C81.52258567 231.19920709 85.10463518 242.47490286 88.5703125 253.7890625 C89.11565628 255.55850163 89.66122003 257.32787298 90.20703125 259.09716797 C91.16302649 262.19619091 92.10266913 265.29940883 93.03125 268.40673828 C98.13211101 285.1420357 106.08883198 300.12549936 121.89453125 308.8515625 C133.0794632 314.71588446 143.93212733 315.16501451 156.3203125 315.15234375 C157.91538096 315.15623953 159.51044839 315.16057599 161.10551453 315.16532898 C164.43813448 315.17275918 167.77064844 315.17252368 171.10327148 315.16723633 C175.34275452 315.16145189 179.58179921 315.17836335 183.82120991 315.201581 C187.11321995 315.21642092 190.40512696 315.21717611 193.69716454 315.21407127 C195.25863702 315.21457954 196.82011604 315.21972278 198.38155556 315.22988319 C213.92545737 315.31861846 228.30435067 313.10055993 240.4921875 302.6171875 C242.37030898 300.74900317 244.16804753 298.85970821 245.89453125 296.8515625 C246.22453125 297.5115625 246.55453125 298.1715625 246.89453125 298.8515625 C240.36787562 312.80658277 231.05075123 322.28228345 216.76953125 328.1640625 C202.51756984 332.70614245 187.02726836 332.16976674 172.23852539 332.11230469 C168.96546867 332.10159012 165.69296199 332.11225776 162.41992188 332.125 C152.82736168 332.1319715 143.30527712 332.00719973 133.76171875 330.96875 C133.05769424 330.89231262 132.35366974 330.81587524 131.62831116 330.73712158 C118.14399069 329.05601834 105.12192205 322.17959498 96.66455078 311.38232422 C86.58547561 296.97133206 82.2567107 279.4158083 77.10554886 262.82316589 C75.89591093 258.93727326 74.67059393 255.05632729 73.44702148 251.17480469 C71.24748329 244.18987709 69.06034595 237.20115005 66.87964344 230.21032143 C64.83332542 223.65141079 62.77407726 217.09660716 60.7109375 210.54296875 C58.18043641 202.49959603 55.65791528 194.45376635 53.140625 186.40625 C46.97847339 166.7118368 40.76984876 147.03199888 34.56323242 127.3515625 C33.82886158 125.02288654 33.09449256 122.69421 32.3601284 120.36553192 C31.87292045 118.82062783 31.38568827 117.27573138 30.89843178 115.73084259 C27.88460744 106.17475992 24.87737335 96.61664782 21.87942505 87.05557251 C20.23107843 81.79882122 18.57906251 76.54322458 16.92694092 71.28765869 C16.16605932 68.86441753 15.40661723 66.44072383 14.64874268 64.01654053 C7.16242451 35.13050654 7.16242451 35.13050654 -12.10546875 13.8515625 C-19.16741311 11.49758105 -27.69655487 11.79448029 -34.48046875 14.8515625 C-35.70303983 15.49174517 -36.91823093 16.14801417 -38.10546875 16.8515625 C-36.24216481 10.17093616 -34.20296954 3.53697636 -28.14453125 -0.43359375 C-18.53478031 -5.41708912 -9.52674731 -5.19640762 0 0 Z " fill="#2C2727" transform="translate(215.10546875,532.1484375)"/>
<path d="M0 0 C1.26828885 2.5365777 0.84397796 3.34484001 0.1532259 6.05575943 C-0.05367314 6.88884117 -0.26057217 7.72192291 -0.47374088 8.58024955 C-0.70418053 9.48481273 -0.93462018 10.38937591 -1.17204285 11.3213501 C-3.83104338 22.11495757 -6.09358016 32.95450575 -8.24731445 43.85839844 C-8.64676817 45.86508844 -9.04657196 47.87170879 -9.44669056 49.87826633 C-10.52944674 55.31328883 -11.60735158 60.74926314 -12.68438005 66.18542314 C-13.84404371 72.03403935 -15.00834493 77.88173248 -16.17208862 83.72953796 C-18.17507193 93.7976948 -20.17523383 103.86640867 -22.1734314 113.93551636 C-24.2789907 124.54553064 -26.38625555 135.1552038 -28.49575806 145.76443481 C-28.6280618 146.42982556 -28.76036554 147.09521631 -28.89667848 147.78077041 C-29.56764529 151.15517775 -30.23864876 154.5295778 -30.9096719 157.90397394 C-32.26123902 164.70067483 -33.61259417 171.49741786 -34.96388245 178.29417419 C-35.16525877 179.30705891 -35.16525877 179.30705891 -35.3707033 180.34040595 C-38.2346812 194.74592664 -41.09652348 209.1518714 -43.95819461 223.55785048 C-49.78644031 252.89783502 -55.62110817 282.23653757 -61.4609375 311.57421875 C-61.87327933 313.64575442 -62.28562077 315.71729016 -62.69796181 317.78882599 C-64.32458991 325.96067916 -65.95125959 334.13252405 -67.57801533 342.30435181 C-70.39770307 356.46887083 -73.21654655 370.63355769 -76.03491211 384.79833984 C-76.44108765 386.83971413 -76.84726358 388.88108833 -77.2534399 390.92246246 C-77.55553764 392.44075559 -77.55553764 392.44075559 -77.86373836 393.9897213 C-78.1662177 395.50993102 -78.1662177 395.50993102 -78.47480774 397.06085205 C-78.67678117 398.07593653 -78.8787546 399.091021 -79.08684844 400.13686562 C-84.91849772 429.44561975 -90.75141749 458.75412055 -96.58740234 488.06201172 C-96.82335338 489.24694391 -97.05930441 490.4318761 -97.30240548 491.65271533 C-99.70979736 503.74238651 -102.11735969 515.83202374 -104.52526456 527.92159277 C-105.72920939 533.96635554 -106.93310219 540.01112868 -108.13696289 546.0559082 C-108.37507151 547.2514861 -108.61318014 548.44706399 -108.85850418 549.67887151 C-112.16722573 566.293013 -115.47307778 582.90772311 -118.7766031 599.52289855 C-120.58938868 608.6400926 -122.40263066 617.75719589 -124.21603751 626.87426639 C-124.65979566 629.10531694 -125.10353418 631.33637139 -125.54725289 633.56742978 C-131.0172511 661.07021049 -136.51214276 688.56771041 -142.06068623 716.05475628 C-143.19984205 721.69903106 -144.33625946 727.34385086 -145.47055054 732.98910522 C-145.62440606 733.75479273 -145.77826157 734.52048024 -145.93677938 735.3093704 C-146.54159773 738.31974448 -147.1463071 741.33014032 -147.75061011 744.3406179 C-149.42622166 752.68801337 -151.11066861 761.03346724 -152.81384766 769.37528384 C-153.94881953 774.93837646 -155.06738702 780.5046629 -156.17959976 786.07234573 C-156.62172035 788.27117859 -157.06938881 790.46890571 -157.52349472 792.66529465 C-161.09999296 809.98042105 -165.18653452 829.88089899 -155.25 845.875 C-148.78017157 854.66570055 -140.63793369 859.32794377 -129.984375 861.59423828 C-123.75022395 862.44184619 -117.45375839 862.3324348 -111.17211914 862.31567383 C-108.70348643 862.31252042 -106.23606282 862.33600655 -103.76757812 862.36132812 C-89.44416958 862.41990025 -75.09595534 860.66461212 -63.69140625 851.0546875 C-62.04845737 849.42165582 -60.48960902 847.77284453 -59 846 C-58.67 846.66 -58.34 847.32 -58 848 C-62.10608173 859.86949309 -70.96366741 868.46803306 -82 874 C-92.53093624 877.86962689 -102.58153114 878.60856164 -113.70776367 878.46655273 C-116.19582252 878.43740249 -118.68176206 878.44603666 -121.16992188 878.45898438 C-135.47890825 878.43969703 -149.40475128 876.7705854 -160.40234375 866.75 C-169.98810315 856.25019508 -170.75328605 842.27662922 -170.20413971 828.78034973 C-169.53533769 819.67137471 -167.39142485 810.71776993 -165.5234375 801.796875 C-165.03636954 799.39985774 -164.55103923 797.00248685 -164.06729126 794.60479736 C-162.77990229 788.24581716 -161.47107586 781.89144676 -160.15686035 775.53796387 C-158.91519623 769.52233868 -157.68975626 763.50342987 -156.46484375 757.484375 C-156.21969434 756.28004224 -155.97454493 755.07570948 -155.72196674 753.83488178 C-155.211743 751.32831763 -154.7015861 748.82173986 -154.19149208 746.31514931 C-153.5162805 743.00039143 -152.83965495 739.68592867 -152.16232687 736.37160307 C-146.59564534 709.1250599 -141.19007957 681.84696771 -135.79296875 654.56640625 C-135.32486063 652.2005354 -134.85674573 649.83466588 -134.38862419 647.46879768 C-134.1543251 646.28465446 -133.92002602 645.10051123 -133.67862695 643.88048488 C-132.46911954 637.76779695 -131.259509 631.65512944 -130.04980469 625.54248047 C-129.80502447 624.30552945 -129.56024426 623.06857842 -129.30804646 621.79414403 C-123.47957907 592.34419532 -117.61558727 562.90134086 -111.74676716 533.45941406 C-111.06691823 530.04876142 -110.38714406 526.63809387 -109.70735931 523.22742844 C-106.9300391 509.29304774 -104.15218756 495.35877301 -101.37402344 481.42456055 C-97.84622467 463.73046155 -94.31945138 446.03615822 -90.79296875 428.34179688 C-90.6445573 427.59713265 -90.49614584 426.85246842 -90.34323707 426.08523861 C-88.54880183 417.08152012 -86.75441236 408.0777925 -84.96005257 399.07405897 C-84.06858967 394.60088364 -83.17711188 390.12771127 -82.28562086 385.65454154 C-72.49902985 336.5490633 -62.71778202 287.44252461 -52.94853497 238.33359241 C-51.046955 228.7746483 -49.14500413 219.21577836 -47.24191284 209.65713501 C-45.08760075 198.83667825 -42.93387283 188.01610546 -40.78125 177.1953125 C-40.6118633 176.34384982 -40.4424766 175.49238714 -40.26795697 174.61512256 C-35.90935283 152.70358966 -31.57267916 130.78788991 -27.27011061 108.86528325 C-26.32515078 104.0506064 -25.37891277 99.23618247 -24.4317627 94.42193604 C-24.17270604 93.10502254 -23.91364994 91.78810894 -23.65459442 90.47119522 C-23.15165861 87.9146338 -22.64867399 85.35808199 -22.14563751 82.80154037 C-20.75803663 75.74520402 -19.3783925 68.68738113 -18.00603485 61.62806511 C-17.19642389 57.47229165 -16.37969712 53.31794018 -15.5610199 49.16394424 C-15.19668861 47.30711759 -14.8353973 45.44969092 -14.47767639 43.59157944 C-7.53169862 7.53169862 -7.53169862 7.53169862 0 0 Z " fill="#2B2626" transform="translate(1591,64)"/>
<path d="M0 0 C17.74302944 13.79625321 20.08131178 42.1352186 24.2155211 62.44992304 C24.92197852 65.91270581 25.63707053 69.37370676 26.35112 72.83493042 C27.58854264 78.83850757 28.82098808 84.84308809 30.05001831 90.84838867 C32.00705838 100.41023588 33.97447793 109.96993225 35.94360352 119.52929688 C36.62426526 122.83415853 37.30487052 126.13903182 37.98545837 129.44390869 C38.15594541 130.27173646 38.32643244 131.09956423 38.50208575 131.95247769 C39.73092251 137.91989655 40.95838067 143.88759806 42.18531799 149.85540771 C49.57871076 185.81310381 57.03482458 221.7577361 64.49865723 257.7008667 C66.11386027 265.47912367 67.72790985 273.2576193 69.34125346 281.03626215 C70.70669987 287.61965107 72.07265937 294.20293336 73.43904477 300.78612745 C74.22504654 304.57309159 75.01087004 308.36009241 75.79611778 312.14721298 C76.51857613 315.63145768 77.24194519 319.11551246 77.96568644 322.59949088 C78.38191559 324.60498663 78.79694476 326.61072818 79.21190166 328.6164875 C80.5093719 334.87478925 81.82753169 341.12750528 83.19744128 347.370399 C83.85371764 350.36142353 84.50392033 353.35375924 85.1543895 356.34605122 C85.46372878 357.75912764 85.77638447 359.17148317 86.09275043 360.58300304 C89.40012081 375.33943336 92.11411134 392.97056642 84.796875 407.10546875 C84.47847656 407.74355469 84.16007812 408.38164063 83.83203125 409.0390625 C82.734375 410.66796875 82.734375 410.66796875 79.734375 412.66796875 C79.83335083 410.79262451 79.83335083 410.79262451 79.93432617 408.87939453 C80.49311036 393.26131561 77.85801155 378.90950197 74.52044296 363.7146759 C73.68956268 359.90439143 72.88659289 356.08821992 72.08129883 352.27246094 C70.96437182 346.98706641 69.84504929 341.70222025 68.71641541 336.41931152 C65.13998708 319.67015553 61.65939272 302.90156842 58.1953125 286.12890625 C57.90225024 284.71019603 57.6091842 283.2914866 57.31611443 281.87277794 C56.11248689 276.04587964 54.90903722 270.21894464 53.70592403 264.39194012 C51.53217542 253.86512005 49.35251559 243.33953486 47.16918945 232.81469727 C47.01321655 232.06280062 46.85724365 231.31090397 46.69654429 230.53622258 C45.90570509 226.72395791 45.1147741 222.91171229 44.3237896 219.09947777 C39.87950217 197.67974275 35.44046498 176.25895667 31.0212183 154.83403969 C28.6181671 143.18405685 26.21065025 131.53500298 23.79971981 119.88664818 C22.24729882 112.38509575 20.6990801 104.88270161 19.15645975 97.37912756 C17.98432476 91.67986474 16.80469501 85.98217283 15.62236595 80.28501701 C15.14424252 77.97521807 14.66852282 75.66491991 14.1955204 73.35406685 C12.11455283 63.19302087 10.01468427 53.06855503 7.11523438 43.10424805 C6.92382118 42.44462728 6.73240799 41.7850065 6.5351944 41.10539722 C2.75733832 28.69508551 -3.42316336 19.6871442 -14.390625 12.66796875 C-21.65881925 10.06975912 -31.33874462 10.42446919 -38.390625 13.41796875 C-42.53355561 15.61816919 -45.95456499 18.35690874 -49.265625 21.66796875 C-48.0483284 13.13148375 -42.10350789 5.42922705 -35.5 0.10546875 C-23.90635214 -7.35338162 -11.75507706 -6.91117462 0 0 Z " fill="#2B2626" transform="translate(1740.265625,148.33203125)"/>
<path d="M0 0 C6.87437638 5.31067703 9.49129671 13.45091387 10.9453125 21.78125 C11.23202117 26.08503731 11.21788869 30.37826933 11.20359802 34.69035339 C11.20727373 35.98250253 11.21094943 37.27465168 11.21473652 38.60595685 C11.22468042 42.1771134 11.22235395 45.74817129 11.21800959 49.3193351 C11.21552659 53.17702323 11.22461049 57.03468586 11.23239136 60.8923645 C11.24442149 67.57386403 11.24954352 74.25533974 11.25027275 80.93684959 C11.25160054 90.61127916 11.26673149 100.28565109 11.28576792 109.96006028 C11.31659515 125.67592172 11.34076617 141.39178463 11.35864258 157.10766602 C11.35971526 158.04775685 11.36078794 158.98784769 11.36189312 159.95642612 C11.37370768 170.4395367 11.38391396 180.92264787 11.39233398 191.40576172 C11.39540786 195.204834 11.39849666 199.00390627 11.40161133 202.80297852 C11.40237667 203.74040408 11.40314201 204.67782965 11.40393054 205.64366206 C11.41702947 221.29580405 11.44169335 236.94790436 11.47535473 252.60001546 C11.49560219 262.24483914 11.50593999 271.88957353 11.50336552 281.53441862 C11.50232742 288.14886459 11.51201597 294.76324012 11.53000455 301.37766149 C11.54001026 305.18890327 11.54522022 308.99998913 11.53723717 312.81123924 C11.52866465 316.95337507 11.5433605 321.09511733 11.56004333 325.23722839 C11.55072561 327.02238846 11.55072561 327.02238846 11.54121965 328.84361237 C11.63777117 342.05491789 14.08254587 354.81553874 22.9140625 365.06640625 C35.04103665 376.81990474 51.00560204 378.20396768 67.0703125 378.15625 C67.75684906 378.15570618 68.44338562 378.15516235 69.15072632 378.15460205 C86.35969016 378.09184783 99.0379544 375.33706009 112.9453125 364.78125 C111.48033429 374.04847171 105.96041755 380.61808817 98.5859375 386.09375 C87.37938732 393.25533237 74.96081233 394.15481045 61.97070312 394.15185547 C59.84421917 394.15620114 57.71986522 394.19255516 55.59375 394.23046875 C41.44029709 394.34740223 27.09533509 392.23453002 15.9453125 382.78125 C4.59531779 371.15494455 2.63442859 357.38315809 2.68702698 341.7522583 C2.68335127 340.47135653 2.67967557 339.19045476 2.67588848 337.87073779 C2.66597073 334.34023481 2.66826398 330.80983193 2.67261541 327.27932167 C2.67510335 323.46186803 2.66600826 319.64443992 2.65823364 315.82699585 C2.64621558 309.21810713 2.64108212 302.60924247 2.64035225 296.00034332 C2.63902314 286.42986125 2.62388085 276.8594373 2.60485708 267.28897581 C2.57404505 251.73953274 2.54986676 236.19008819 2.53198242 220.640625 C2.53090974 219.71089932 2.52983706 218.78117365 2.52873188 217.82327446 C2.51691633 207.45489749 2.50670971 197.08651993 2.49829102 186.71813965 C2.49521706 182.95987954 2.49212827 179.20161945 2.48901367 175.44335938 C2.48824833 174.51598564 2.48748299 173.58861191 2.48669446 172.63313594 C2.47359225 157.14477736 2.44892477 141.65646088 2.41527027 126.1681335 C2.39503347 116.62759187 2.38468352 107.08714044 2.38725948 97.54657719 C2.38829816 91.00362709 2.37859996 84.46074813 2.36062045 77.91782287 C2.35062252 74.14897338 2.3453963 70.38028137 2.35338783 66.61142349 C2.36197324 62.51353386 2.34725051 58.41604097 2.33058167 54.31817627 C2.33989939 52.55694109 2.33989939 52.55694109 2.34940535 50.7601254 C2.26953834 39.92592696 1.4325174 26.31738699 -6.0546875 17.78125 C-12.30471049 12.74320865 -18.9385958 12.062014 -26.7734375 12.3515625 C-31.19634565 12.93075285 -34.42463264 14.2365633 -38.0546875 16.78125 C-38.8796875 17.35875 -39.7046875 17.93625 -40.5546875 18.53125 C-41.0496875 18.94375 -41.5446875 19.35625 -42.0546875 19.78125 C-39.70628015 10.88202216 -35.67393326 3.85977415 -27.83984375 -1.25390625 C-18.96099299 -6.05275995 -8.53696373 -5.06375035 0 0 Z " fill="#2B2626" transform="translate(585.0546875,547.21875)"/>
<path d="M0 0 C0.6875 1.5625 0.6875 1.5625 1 4 C0.28454181 5.71457093 -0.43583605 7.42747701 -1.19488335 9.12320137 C-2.37395676 11.8717265 -3.19928717 14.68992507 -4.03930664 17.55834961 C-4.22289671 18.18077073 -4.40648678 18.80319185 -4.59564018 19.44447422 C-5.20455952 21.51258968 -5.8073292 23.58244504 -6.41015625 25.65234375 C-6.8494233 27.14851272 -7.28909633 28.64456255 -7.72914124 30.14050293 C-8.6779511 33.36890181 -9.6240963 36.59806516 -10.56817627 39.82785034 C-12.08711653 45.02397809 -13.61210779 50.21831762 -15.13818359 55.41235352 C-16.75517178 60.91662535 -18.37187641 66.42097907 -19.98669434 71.92588806 C-25.46081461 90.58575317 -30.96949126 109.23535711 -36.48303223 127.88360596 C-38.13342579 133.46570385 -39.78308423 139.04801883 -41.43261719 144.63037109 C-51.82492343 179.79905286 -62.22678441 214.96490808 -72.63023376 250.1302948 C-75.81617163 260.89930923 -79.00196477 271.66836646 -82.1875 282.4375 C-82.400116 283.15626942 -82.61273201 283.87503883 -82.83179092 284.61558914 C-90.56009306 310.74208216 -98.28095402 336.87077094 -106 363 C-118.44081527 405.11257618 -118.44081527 405.11257618 -124.58203125 425.87890625 C-124.80257486 426.62471262 -125.02311848 427.37051899 -125.25034523 428.13892555 C-127.61407567 436.13219673 -129.97886814 444.12515146 -132.34594727 452.11743164 C-133.18647396 454.9558584 -134.02687649 457.79432189 -134.8671875 460.6328125 C-135.07422995 461.3321459 -135.28127239 462.0314793 -135.49458885 462.75200462 C-138.4428074 472.71245593 -141.37562566 482.67735139 -144.29908752 492.64509583 C-145.97919155 498.37326345 -147.66318121 504.10028677 -149.34800625 509.82706738 C-150.49402606 513.7235372 -151.63786548 517.62061714 -152.77627563 521.51931763 C-164.32994212 561.07749513 -164.32994212 561.07749513 -170 570 C-171.2797171 566.16084869 -170.27648971 563.69963389 -169.1394043 559.9777832 C-168.92713196 559.25839066 -168.71485962 558.53899811 -168.49615479 557.79780579 C-167.78036285 555.37961613 -167.05224025 552.96531473 -166.32421875 550.55078125 C-165.81089697 548.82535926 -165.29836773 547.09970132 -164.78657532 545.37382507 C-163.68018782 541.64882598 -162.56838428 537.92550204 -161.45239258 534.20336914 C-159.66614247 528.24552161 -157.89169592 522.28419968 -156.11914062 516.32226562 C-153.95765024 509.05482544 -151.79344797 501.78820416 -149.62570381 494.52262688 C-145.8629363 481.91000939 -142.12094724 469.29137139 -138.39453125 456.66796875 C-138.12944637 455.77001335 -137.8643615 454.87205795 -137.59124374 453.94689178 C-136.25930682 449.43460276 -134.92777817 444.9221934 -133.59643555 440.409729 C-131.17730212 432.21104257 -128.75445768 424.01345251 -126.3319664 415.81575775 C-124.9784832 411.23545241 -123.62523059 406.65507893 -122.27197266 402.07470703 C-122.00321886 401.16506699 -121.73446507 400.25542694 -121.45756721 399.31822205 C-118.69153603 389.95608939 -115.92579253 380.59387176 -113.16004562 371.23165512 C-102.52460372 335.23020835 -91.8868585 299.2294494 -81.23739624 263.23214722 C-74.37771602 240.04488541 -67.52447667 216.85572472 -60.67379761 193.665802 C-57.36487123 182.4649729 -54.05548991 171.26427819 -50.74610901 160.06358337 C-50.47904302 159.15968966 -50.21197702 158.25579596 -49.93681812 157.32451153 C-49.40316783 155.51835442 -48.86951648 153.71219763 -48.33586407 151.90604115 C-46.82052668 146.77730201 -45.30531895 141.6485246 -43.79023838 136.51970959 C-42.84914755 133.33399627 -41.90798582 130.1483039 -40.9668026 126.96261787 C-40.50853744 125.41146116 -40.05029679 123.86029722 -39.59208107 122.3091259 C-37.18802338 114.17100913 -34.78172428 106.03356989 -32.3684082 97.89819336 C-31.53198564 95.07798541 -30.69566746 92.25774653 -29.859375 89.4375 C-29.65587118 88.75140215 -29.45236736 88.0653043 -29.24269676 87.3584156 C-26.59703791 78.43592814 -23.97811277 69.50611305 -21.38487244 60.56825256 C-19.85601905 55.30040441 -18.31334527 50.03662275 -16.77029419 44.7729187 C-16.06284079 42.34868301 -15.3606824 39.92289412 -14.66452026 37.49539185 C-10.8762154 24.29061413 -6.77481583 11.99033978 0 0 Z " fill="#2D2828" transform="translate(582,65)"/>
<path d="M0 0 C1.37622693 2.75245385 0.68607524 4.24621672 0.07945251 7.24853516 C-1.1516551 14.2109101 -1.28568498 20.96722136 -1.27124023 28.0234375 C-1.27563981 29.38503324 -1.28094639 30.7466263 -1.28707886 32.10821533 C-1.29848264 35.01529579 -1.3040311 37.9223043 -1.30496025 40.82940674 C-1.30691991 45.43760651 -1.32507464 50.04565973 -1.34571838 54.65380859 C-1.39464372 66.09476685 -1.42575665 77.53576435 -1.44702148 88.97680664 C-1.46359532 97.88273159 -1.48653174 106.78852877 -1.53004223 115.69436836 C-1.55166695 120.2639318 -1.55989091 124.83325154 -1.55764949 129.40286255 C-1.55932988 132.25732138 -1.57346026 135.11162415 -1.59086227 137.96602631 C-1.59902407 139.8958932 -1.59257808 141.82580512 -1.585495 143.75567627 C-1.66528746 153.49119047 -2.96371806 162.96567218 -7.5625 171.6875 C-7.97628906 172.49574219 -8.39007812 173.30398438 -8.81640625 174.13671875 C-10 176 -10 176 -12 177 C-11.7573793 175.44067749 -11.7573793 175.44067749 -11.50985718 173.84985352 C-10.74950525 167.71659724 -10.84737201 161.57372886 -10.84228516 155.40234375 C-10.83760847 154.03797749 -10.83246351 152.67361277 -10.82688904 151.30924988 C-10.81566328 148.38302764 -10.80720247 145.45681525 -10.80076981 142.53057861 C-10.7900139 137.88802393 -10.76974736 133.24554017 -10.74765015 128.60302734 C-10.68598628 115.405144 -10.63184486 102.20726531 -10.59863281 89.00927734 C-10.58018663 81.71068222 -10.55112658 74.41220683 -10.5106281 67.11369991 C-10.48972346 63.26236456 -10.47412466 59.41117897 -10.47182083 55.55978394 C-10.43680692 10.43680692 -10.43680692 10.43680692 0 0 Z " fill="#2B2626" transform="translate(1217,621)"/>
</svg>
