		<svg   viewBox="0 0 76 62" fill="none">
				<path
					d="M15.3935 45.5C14.7535 45.5 14.2335 45.34 13.8335 45.02C13.4735 44.66 13.2135 44.24 13.0535 43.76L0.453496 5.3C0.413496 5.1 0.393496 4.92 0.393496 4.76C0.393496 4.44 0.513496 4.16 0.753496 3.92C0.993496 3.64 1.2935 3.5 1.6535 3.5H7.9535C8.5535 3.5 9.0135 3.68 9.3335 4.04C9.6935 4.36 9.9135 4.66 9.9935 4.94L19.3535 34.28L28.6535 4.94C28.7735 4.66 28.9935 4.36 29.3135 4.04C29.6335 3.68 30.0935 3.5 30.6935 3.5H36.9935C37.3535 3.5 37.6535 3.64 37.8935 3.92C38.1335 4.16 38.2535 4.44 38.2535 4.76C38.2535 4.92 38.2335 5.1 38.1935 5.3L25.5935 43.76C25.4735 44.24 25.2135 44.66 24.8135 45.02C24.4535 45.34 23.9335 45.5 23.2535 45.5H15.3935Z"
					fill="url(#paint0_linear_92_3985)" />
				<path
					d="M48.8935 57.1C45.0535 57.1 41.8335 56.54 39.2335 55.42C36.6735 54.3 34.7335 52.84 33.4135 51.04C32.0935 49.24 31.3935 47.32 31.3135 45.28C31.3135 44.96 31.4335 44.68 31.6735 44.44C31.9135 44.16 32.2135 44.02 32.5735 44.02H38.9935C39.5135 44.02 39.9135 44.14 40.1935 44.38C40.4735 44.58 40.7335 44.84 40.9735 45.16C41.2535 45.84 41.6935 46.5 42.2935 47.14C42.9335 47.78 43.7935 48.32 44.8735 48.76C45.9535 49.16 47.2935 49.36 48.8935 49.36C51.4935 49.36 53.4335 48.94 54.7135 48.1C56.0335 47.26 56.6935 46.12 56.6935 44.68C56.6935 43.64 56.3335 42.8 55.6135 42.16C54.9335 41.52 53.8335 40.94 52.3135 40.42C50.8335 39.9 48.8535 39.34 46.3735 38.74C43.3735 38.1 40.8135 37.28 38.6935 36.28C36.6135 35.24 35.0335 33.92 33.9535 32.32C32.9135 30.68 32.3935 28.66 32.3935 26.26C32.3935 23.86 33.0535 21.74 34.3735 19.9C35.6935 18.02 37.5535 16.56 39.9535 15.52C42.3535 14.44 45.2135 13.9 48.5335 13.9C51.2135 13.9 53.5735 14.26 55.6135 14.98C57.6935 15.7 59.4135 16.64 60.7735 17.8C62.1735 18.96 63.2335 20.2 63.9535 21.52C64.6735 22.84 65.0535 24.12 65.0935 25.36C65.0935 25.68 64.9735 25.98 64.7335 26.26C64.4935 26.5 64.1935 26.62 63.8335 26.62H57.1135C56.7135 26.62 56.3535 26.54 56.0335 26.38C55.7135 26.22 55.4535 25.94 55.2535 25.54C55.0135 24.5 54.2935 23.6 53.0935 22.84C51.9335 22.04 50.4135 21.64 48.5335 21.64C46.5735 21.64 45.0135 22 43.8535 22.72C42.7335 23.44 42.1735 24.54 42.1735 26.02C42.1735 26.98 42.4535 27.8 43.0135 28.48C43.6135 29.12 44.5935 29.7 45.9535 30.22C47.3535 30.7 49.1935 31.24 51.4735 31.84C54.9935 32.56 57.8535 33.42 60.0535 34.42C62.2535 35.42 63.8735 36.72 64.9135 38.32C65.9535 39.88 66.4735 41.86 66.4735 44.26C66.4735 46.94 65.7135 49.24 64.1935 51.16C62.7135 53.08 60.6535 54.56 58.0135 55.6C55.4135 56.6 52.3735 57.1 48.8935 57.1Z"
					fill="url(#paint1_linear_92_3985)" />
				<defs>
					<linearGradient
						id="paint0_linear_92_3985"
						x1="19.3335"
						y1="-10.5"
						x2="19.3335"
						y2="60.5"
						gradientUnits="userSpaceOnUse">
						<stop />
						<stop offset="1" stop-color="#CCCCCC" />
					</linearGradient>
					<linearGradient
						id="paint1_linear_92_3985"
						x1="49.3335"
						y1="0.5"
						x2="49.3335"
						y2="71.5"
						gradientUnits="userSpaceOnUse">
						<stop />
						<stop offset="1" stop-color="#CCCCCC" />
					</linearGradient>
				</defs>
			</svg>