<?xml version="1.0" encoding="UTF-8"?>
<!--
  Auto-generated from the reference HTML by
  scripts/storymode-extraction/extract.mjs.
  Chapter 11 hero icon.
-->
<svg viewBox="0 0 60 60" xmlns="http://www.w3.org/2000/svg">
          <!-- Mast cell exploding (allergy/hypersensitivity) -->
          <circle cx="30" cy="30" r="11" fill="#d14859" opacity="0.45" stroke="#d14859" stroke-width="0.8"/>
          <!-- granules inside -->
          <g fill="#7d2a35" opacity="0.85">
            <circle cx="26" cy="27" r="1.5"/><circle cx="32" cy="28" r="1.5"/>
            <circle cx="29" cy="32" r="1.5"/><circle cx="34" cy="32" r="1.5"/>
            <circle cx="27" cy="33" r="1.5"/><circle cx="31" cy="25" r="1.5"/>
          </g>
          <!-- histamine bursts radiating out -->
          <g stroke="#e8a951" stroke-width="1.2" stroke-linecap="round" fill="none">
            <line x1="30" y1="14" x2="30" y2="9"/>
            <line x1="30" y1="46" x2="30" y2="51"/>
            <line x1="14" y1="30" x2="9" y2="30"/>
            <line x1="46" y1="30" x2="51" y2="30"/>
            <line x1="18" y1="18" x2="14" y2="14"/>
            <line x1="42" y1="42" x2="46" y2="46"/>
            <line x1="18" y1="42" x2="14" y2="46"/>
            <line x1="42" y1="18" x2="46" y2="14"/>
          </g>
          <!-- IgE Y at top -->
          <g transform="translate(10 8)" stroke="#4fb8a8" stroke-width="0.9" fill="none">
            <path d="M 0 0 L 2 4"/><path d="M 4 0 L 2 4"/><path d="M 2 4 L 2 7"/>
          </g>
        </svg>
